<?xml version="1.0" encoding="utf-8"?>
<!-- Generator: Adobe Illustrator 16.0.0, SVG Export Plug-In . SVG Version: 6.00 Build 0)  -->
<!DOCTYPE svg PUBLIC "-//W3C//DTD SVG 1.1//EN" "http://www.w3.org/Graphics/SVG/1.1/DTD/svg11.dtd">
<svg version="1.1" xmlns="http://www.w3.org/2000/svg" xmlns:xlink="http://www.w3.org/1999/xlink" x="0px" y="0px"
	 width="756.061px" height="474.233px" viewBox="0 0 756.061 474.233" enable-background="new 0 0 756.061 474.233"
	 xml:space="preserve">
<g id="Layer_1">
	<g>
		<path fill="#483D20" d="M373.904,269.617c-16.639,11.856-38.78,9.426-57.464,18.799c-7.526,3.774-37.345,18.48-24.205,29.006
			c8.92,7.147,17.466-1.114,26.342-2.188c10.96-1.324,9.534,4.78,15.883,11.118c9.522,9.508,19.711,2.711,27.564-4.355
			c7.831-7.043,18.356-7.908,25.125,0.811c3.12,4.021,5.043,8.195,10.214,9.779c4.484,1.375,13.67,1.723,17.097-1.676
			c5.516-5.475,4.482-15.312,15.623-12.439c7.071,1.822,17.094,11.436,25.175,5.447c5.572-4.13,6.934-15.52,4.005-21.27
			c-3.64-7.145-13.06-12.757-20.185-15.261c-13.47-4.734-27.363-9.588-41.368-12.313c-3.449-0.671-21.865-3.006-22.763-5.424"/>
		<path fill="#87A23B" d="M373.022,271.68c-15.208,11.603-36.002,10.005-53.199,19.347c-6.927,3.762-34.383,18.434-21.766,27.883
			c8.566,6.416,16.312-1.577,24.585-2.853c10.215-1.575,9.067,4.181,15.201,9.918c9.202,8.606,18.528,1.935,25.662-4.917
			c7.113-6.832,16.936-7.961,23.536-0.01c3.043,3.668,4.97,7.516,9.855,8.84c4.24,1.149,12.847,1.193,15.948-2.092
			c4.995-5.291,3.728-14.464,14.24-12.117c6.672,1.489,16.346,10.18,23.724,4.329c5.089-4.036,6.015-14.734,3.099-20.026
			c-3.624-6.574-12.609-11.539-19.354-13.664c-12.749-4.018-25.898-8.136-39.087-10.258c-3.248-0.521-20.553-2.145-21.468-4.38"/>
		<path fill="none" stroke="#FFFFFF" stroke-width="1.7982" stroke-miterlimit="10" d="M371.418,272.926
			c-13.963,12.03-34.057,11.685-50.063,21.653c-6.447,4.016-32.016,19.701-19.339,28.066c8.606,5.681,15.599-2.451,23.482-4.15
			c9.736-2.1,8.963,3.502,15.19,8.67c9.345,7.752,17.933,0.799,24.401-6.199c6.451-6.979,15.835-8.627,22.639-1.357
			c3.137,3.354,5.211,6.945,9.986,7.939c4.145,0.863,12.425,0.412,15.221-2.926c4.502-5.374,2.758-14.125,13.003-12.471
			c6.503,1.052,16.306,8.857,23.066,2.808c4.664-4.173,4.944-14.519,1.836-19.44c-3.862-6.117-12.79-10.377-19.399-12.035
			c-12.494-3.136-25.377-6.344-38.184-7.63c-3.154-0.315-19.893-0.886-20.901-2.983"/>
	</g>
</g>
<g id="Layer_3" display="none">
	<g display="inline">
		<circle fill="none" stroke="#FFFFFF" stroke-width="5.5347" stroke-miterlimit="10" cx="-1007.902" cy="-1640.102" r="9.876"/>
		<circle fill="#394256" cx="-1029.615" cy="-1478.935" r="149.897"/>
		<circle fill="none" stroke="#FFFFFF" stroke-width="1.3516" stroke-miterlimit="10" cx="-1014.358" cy="-1484.173" r="149.897"/>
		<circle fill="#B6C4E5" cx="-1011.591" cy="-1487.863" r="140.673"/>
		<path fill="#424C62" d="M-1009.738-1617.846c4.512,0,8.972,0.224,13.368,0.659c-66.828,6.6-119.002,62.143-119.002,129.689
			c0,67.546,52.174,123.09,119.002,129.689c-4.396,0.435-8.856,0.659-13.368,0.659c-73.106,0-132.371-58.359-132.371-130.349
			C-1142.109-1559.487-1082.845-1617.846-1009.738-1617.846z"/>
		<path fill="#FFFFFF" d="M-962.452-1487.863c0-64.581-31.729-118.337-73.679-129.905c8.001-1.511,16.254-2.312,24.694-2.312
			c73.022,0,132.216,59.195,132.216,132.216c0,73.021-59.194,132.215-132.216,132.215c-8.44,0-16.692-0.8-24.694-2.313
			C-994.181-1369.527-962.452-1423.283-962.452-1487.863z"/>
		<g>
			<path fill="#424C62" d="M-1000.559-1611.164c5.374,0.621,10.713,1.59,15.947,2.898c32.132,8.027,59.214,28.087,76.258,56.483
				s22.01,61.73,13.982,93.862c-6.839,27.374-22.241,50.926-44.542,68.111c-21.636,16.673-48.504,25.855-75.655,25.855
				c-10.106,0-20.25-1.254-30.149-3.727c-5.236-1.308-10.405-2.964-15.437-4.943c40.294-5.426,78.396-47.615,92.39-103.632
				C-953.771-1532.27-967.556-1587.422-1000.559-1611.164 M-1007.504-1613.528c36.04,20.343,52.925,77.258,38.038,136.846
				s-56.555,101.875-97.928,102.877c7.033,3.24,14.465,5.881,22.251,7.826c10.236,2.557,20.481,3.779,30.574,3.779
				c56.346,0,107.623-38.155,121.899-95.296c16.833-67.376-24.14-135.64-91.517-152.473
				C-991.975-1611.915-999.773-1613.078-1007.504-1613.528L-1007.504-1613.528z"/>
		</g>
		<path opacity="0.5" fill="#424C62" d="M-1191.354-1598.214c50.623,31.738,52.58,37.703,30.618,93.269
			c31.738-50.623,37.703-52.581,93.269-30.618c-50.623-31.738-52.581-37.703-30.618-93.269
			C-1129.824-1578.209-1135.788-1576.251-1191.354-1598.214z"/>
		<path opacity="0.8" fill="#FFFFFF" d="M-1199.361-1598.631c52.209,29.055,54.475,34.91,35.44,91.545
			c29.055-52.208,34.91-54.475,91.545-35.439c-52.208-29.055-54.475-34.91-35.439-91.545
			C-1136.87-1581.862-1142.725-1579.596-1199.361-1598.631z"/>
		<path opacity="0.5" fill="#424C62" d="M-871.946-1336.231c-28.421-41.811-27.908-47.098,8.011-82.674
			c-41.811,28.42-47.098,27.908-82.674-8.011c28.42,41.811,27.909,47.098-8.012,82.674
			C-912.81-1372.663-907.522-1372.15-871.946-1336.231z"/>
		<path opacity="0.8" fill="#FFFFFF" d="M-865.885-1333.184c-30.562-40.271-30.326-45.579,3.689-82.979
			c-40.273,30.563-45.579,30.327-82.98-3.688c30.563,40.271,30.327,45.578-3.688,82.979
			C-908.593-1367.436-903.286-1367.2-865.885-1333.184z"/>
		<g>
			<path fill="none" stroke="#FFFFFF" stroke-width="3.4927" stroke-miterlimit="10" d="M-1013.141-1666.828
				c0,2.893,2.346,5.239,5.239,5.239l0,0c2.894,0,5.239-2.346,5.239-5.239v-11.642c0-2.894-2.346-5.24-5.239-5.24l0,0
				c-2.894,0-5.239,2.346-5.239,5.24V-1666.828z"/>
			<path fill="none" stroke="#FFFFFF" stroke-width="3.4927" stroke-miterlimit="10" d="M-1013.141-1704.667
				c0,2.894,2.346,5.239,5.239,5.239l0,0c2.894,0,5.239-2.345,5.239-5.239v-11.642c0-2.894-2.346-5.24-5.239-5.24l0,0
				c-2.894,0-5.239,2.346-5.239,5.24V-1704.667z"/>
			<path fill="#FFFFFF" d="M-1010.314-1680.628c0,1.333,1.08,2.414,2.413,2.414l0,0c1.333,0,2.414-1.081,2.414-2.414v-20.916
				c0-1.333-1.081-2.414-2.414-2.414l0,0c-1.333,0-2.413,1.081-2.413,2.414V-1680.628z"/>
			<path fill="#FFFFFF" d="M-1010.314-1643.444c0,1.333,1.08,2.414,2.413,2.414l0,0c1.333,0,2.414-1.081,2.414-2.414v-20.916
				c0-1.333-1.081-2.413-2.414-2.413l0,0c-1.333,0-2.413,1.081-2.413,2.413V-1643.444z"/>
			<path fill="#FFFFFF" d="M-1005.488-1733.535v13.221c0,1.333-1.081,2.413-2.414,2.413c-1.333,0-2.413-1.081-2.413-2.413v-13.221
				H-1005.488z"/>
		</g>
	</g>
</g>
<g id="Layer_2">
	<rect x="-1332.398" y="-2763.84" fill="#D5D5D5" width="1410" height="275"/>
	<rect x="-1450.398" y="-2495.176" fill="#D5D5D5" width="219" height="445.709"/>
	<rect x="-61.398" y="-2495.176" fill="#D5D5D5" width="228" height="413.143"/>
</g>
</svg>
