<?xml version="1.0" encoding="utf-8"?>
<!-- Generator: Adobe Illustrator 16.0.0, SVG Export Plug-In . SVG Version: 6.00 Build 0)  -->
<!DOCTYPE svg PUBLIC "-//W3C//DTD SVG 1.1//EN" "http://www.w3.org/Graphics/SVG/1.1/DTD/svg11.dtd">
<svg version="1.1" xmlns="http://www.w3.org/2000/svg" xmlns:xlink="http://www.w3.org/1999/xlink" x="0px" y="0px"
	 width="25.143px" height="42.746px" viewBox="0 0 25.143 42.746" enable-background="new 0 0 25.143 42.746" xml:space="preserve">
<g id="Layer_1">
	<path fill="#8EC4DD" d="M25.141,29.434c0.084,7.913-1.983,10.871-10.025,12.698c-7.862,1.786-10.27-0.232-13.23-7.226
		c-3.563-8.413-1.639-9.905,2.165-17.066C7.355,11.616,8.227,5.917,12.737,0C19.551,10.021,21.489,18.193,25.141,29.434z"/>
</g>
<g id="Layer_3" display="none">
	<g display="inline">
		<circle fill="none" stroke="#FFFFFF" stroke-width="5.5347" stroke-miterlimit="10" cx="-1126.287" cy="-4858.217" r="9.876"/>
		<circle fill="#394256" cx="-1148.001" cy="-4697.05" r="149.897"/>
		<circle fill="none" stroke="#FFFFFF" stroke-width="1.3516" stroke-miterlimit="10" cx="-1132.744" cy="-4702.289" r="149.897"/>
		<circle fill="#B6C4E5" cx="-1129.977" cy="-4705.979" r="140.673"/>
		<path fill="#424C62" d="M-1128.124-4835.962c4.512,0,8.972,0.224,13.368,0.659c-66.828,6.6-119.002,62.143-119.002,129.689
			c0,67.546,52.174,123.09,119.002,129.689c-4.396,0.435-8.856,0.659-13.368,0.659c-73.106,0-132.371-58.359-132.371-130.349
			C-1260.495-4777.603-1201.23-4835.962-1128.124-4835.962z"/>
		<path fill="#FFFFFF" d="M-1080.838-4705.979c0-64.581-31.729-118.337-73.679-129.905c8.001-1.511,16.254-2.312,24.694-2.312
			c73.022,0,132.216,59.195,132.216,132.216c0,73.021-59.194,132.215-132.216,132.215c-8.44,0-16.692-0.8-24.694-2.313
			C-1112.567-4587.643-1080.838-4641.398-1080.838-4705.979z"/>
		<g>
			<path fill="#424C62" d="M-1118.945-4829.28c5.374,0.621,10.713,1.59,15.947,2.898c32.132,8.027,59.214,28.087,76.258,56.483
				s22.01,61.73,13.982,93.862c-6.839,27.374-22.241,50.926-44.542,68.111c-21.636,16.673-48.504,25.855-75.655,25.855
				c-10.106,0-20.25-1.254-30.149-3.727c-5.236-1.308-10.405-2.964-15.437-4.943c40.294-5.426,78.396-47.615,92.39-103.632
				C-1072.156-4750.385-1085.941-4805.538-1118.945-4829.28 M-1125.89-4831.644c36.04,20.343,52.925,77.258,38.038,136.846
				s-56.555,101.875-97.928,102.877c7.033,3.24,14.465,5.881,22.251,7.826c10.236,2.557,20.481,3.779,30.574,3.779
				c56.346,0,107.623-38.155,121.899-95.296c16.833-67.376-24.14-135.64-91.517-152.473
				C-1110.361-4830.03-1118.159-4831.193-1125.89-4831.644L-1125.89-4831.644z"/>
		</g>
		<path opacity="0.5" fill="#424C62" d="M-1309.74-4816.33c50.623,31.738,52.58,37.703,30.618,93.269
			c31.738-50.623,37.703-52.581,93.269-30.618c-50.623-31.738-52.581-37.703-30.618-93.269
			C-1248.209-4796.325-1254.174-4794.367-1309.74-4816.33z"/>
		<path opacity="0.8" fill="#FFFFFF" d="M-1317.747-4816.747c52.209,29.055,54.475,34.91,35.44,91.545
			c29.055-52.208,34.91-54.475,91.545-35.439c-52.208-29.055-54.475-34.91-35.439-91.545
			C-1255.256-4799.978-1261.111-4797.711-1317.747-4816.747z"/>
		<path opacity="0.5" fill="#424C62" d="M-990.332-4554.347c-28.421-41.811-27.908-47.098,8.011-82.674
			c-41.811,28.42-47.098,27.908-82.674-8.011c28.42,41.811,27.909,47.098-8.012,82.674
			C-1031.195-4590.778-1025.908-4590.266-990.332-4554.347z"/>
		<path opacity="0.8" fill="#FFFFFF" d="M-984.271-4551.3c-30.562-40.271-30.326-45.579,3.689-82.979
			c-40.273,30.563-45.579,30.327-82.98-3.688c30.563,40.271,30.327,45.578-3.688,82.979
			C-1026.979-4585.551-1021.672-4585.315-984.271-4551.3z"/>
		<g>
			<path fill="none" stroke="#FFFFFF" stroke-width="3.4927" stroke-miterlimit="10" d="M-1131.526-4884.944
				c0,2.893,2.346,5.239,5.239,5.239l0,0c2.894,0,5.239-2.346,5.239-5.239v-11.642c0-2.894-2.346-5.24-5.239-5.24l0,0
				c-2.894,0-5.239,2.346-5.239,5.24V-4884.944z"/>
			<path fill="none" stroke="#FFFFFF" stroke-width="3.4927" stroke-miterlimit="10" d="M-1131.526-4922.782
				c0,2.894,2.346,5.239,5.239,5.239l0,0c2.894,0,5.239-2.345,5.239-5.239v-11.642c0-2.894-2.346-5.24-5.239-5.24l0,0
				c-2.894,0-5.239,2.346-5.239,5.24V-4922.782z"/>
			<path fill="#FFFFFF" d="M-1128.7-4898.744c0,1.333,1.08,2.414,2.413,2.414l0,0c1.333,0,2.414-1.081,2.414-2.414v-20.916
				c0-1.333-1.081-2.414-2.414-2.414l0,0c-1.333,0-2.413,1.081-2.413,2.414V-4898.744z"/>
			<path fill="#FFFFFF" d="M-1128.7-4861.56c0,1.333,1.08,2.414,2.413,2.414l0,0c1.333,0,2.414-1.081,2.414-2.414v-20.916
				c0-1.333-1.081-2.413-2.414-2.413l0,0c-1.333,0-2.413,1.081-2.413,2.413V-4861.56z"/>
			<path fill="#FFFFFF" d="M-1123.874-4951.651v13.221c0,1.333-1.081,2.413-2.414,2.413c-1.333,0-2.413-1.081-2.413-2.413v-13.221
				H-1123.874z"/>
		</g>
	</g>
</g>
<g id="Layer_2">
	<rect x="-1450.784" y="-5981.956" fill="#D5D5D5" width="1410" height="275"/>
	<rect x="-1568.784" y="-5713.292" fill="#D5D5D5" width="219" height="445.709"/>
	<rect x="-179.784" y="-5713.292" fill="#D5D5D5" width="228" height="413.143"/>
</g>
</svg>
