<?xml version="1.0" encoding="utf-8"?>
<!-- Generator: Adobe Illustrator 16.0.0, SVG Export Plug-In . SVG Version: 6.00 Build 0)  -->
<!DOCTYPE svg PUBLIC "-//W3C//DTD SVG 1.1//EN" "http://www.w3.org/Graphics/SVG/1.1/DTD/svg11.dtd">
<svg version="1.1" xmlns="http://www.w3.org/2000/svg" xmlns:xlink="http://www.w3.org/1999/xlink" x="0px" y="0px"
	 width="80.703px" height="81.701px" viewBox="0 0 80.703 81.701" enable-background="new 0 0 80.703 81.701" xml:space="preserve">
<g id="Layer_1">
	<circle fill="#8DC63F" cx="38.372" cy="41.931" r="31.186"/>
	<circle fill="none" stroke="#FFFFFF" stroke-miterlimit="10" cx="40.372" cy="40.931" r="38.186"/>
	<circle fill="#F6E397" cx="38.372" cy="41.931" r="31.186"/>
	<circle fill="#E7CE26" cx="38.372" cy="41.931" r="26.58"/>
	<circle fill="none" stroke="#424C62" stroke-width="2" stroke-miterlimit="10" cx="42.198" cy="38.104" r="22.753"/>
</g>
<g id="Layer_3" display="none">
	<g display="inline">
		<circle fill="none" stroke="#FFFFFF" stroke-width="5.5347" stroke-miterlimit="10" cx="660.187" cy="-92.425" r="9.876"/>
		<circle fill="#394256" cx="638.474" cy="68.742" r="149.897"/>
		<circle fill="none" stroke="#FFFFFF" stroke-width="1.3516" stroke-miterlimit="10" cx="653.73" cy="63.503" r="149.897"/>
		<circle fill="#B6C4E5" cx="656.498" cy="59.813" r="140.673"/>
		<path fill="#424C62" d="M658.351-70.17c4.512,0,8.972,0.224,13.368,0.659c-66.828,6.6-119.002,62.143-119.002,129.689
			c0,67.546,52.174,123.09,119.002,129.689c-4.396,0.435-8.856,0.659-13.368,0.659c-73.106,0-132.371-58.359-132.371-130.349
			C525.979-11.811,585.244-70.17,658.351-70.17z"/>
		<path fill="#FFFFFF" d="M705.637,59.813c0-64.581-31.729-118.337-73.679-129.905c8.001-1.511,16.254-2.312,24.694-2.312
			c73.022,0,132.216,59.195,132.216,132.216c0,73.021-59.194,132.215-132.216,132.215c-8.44,0-16.692-0.8-24.694-2.312
			C673.908,178.149,705.637,124.394,705.637,59.813z"/>
		<g>
			<path fill="#424C62" d="M667.53-63.488c5.374,0.621,10.713,1.59,15.947,2.898c32.132,8.027,59.214,28.087,76.258,56.483
				s22.01,61.73,13.982,93.862c-6.839,27.374-22.241,50.926-44.542,68.111c-21.636,16.673-48.504,25.855-75.655,25.855
				c-10.106,0-20.25-1.254-30.149-3.727c-5.236-1.308-10.405-2.964-15.437-4.943c40.294-5.426,78.396-47.615,92.39-103.632
				C714.318,15.407,700.533-39.746,667.53-63.488 M660.584-65.852c36.04,20.343,52.925,77.258,38.038,136.846
				s-56.555,101.875-97.928,102.877c7.033,3.24,14.465,5.881,22.251,7.826c10.236,2.557,20.481,3.779,30.574,3.779
				c56.346,0,107.623-38.155,121.899-95.296c16.833-67.376-24.14-135.64-91.517-152.473
				C676.114-64.238,668.315-65.401,660.584-65.852L660.584-65.852z"/>
		</g>
		<path opacity="0.5" fill="#424C62" d="M476.734-50.538c50.623,31.738,52.58,37.703,30.618,93.269
			c31.738-50.623,37.703-52.581,93.269-30.618c-50.623-31.738-52.581-37.703-30.618-93.269
			C538.265-30.533,532.301-28.575,476.734-50.538z"/>
		<path opacity="0.8" fill="#FFFFFF" d="M468.728-50.955c52.209,29.055,54.475,34.91,35.44,91.545
			c29.055-52.208,34.91-54.475,91.545-35.439c-52.208-29.055-54.475-34.91-35.439-91.545
			C531.219-34.186,525.364-31.919,468.728-50.955z"/>
		<path opacity="0.5" fill="#424C62" d="M796.143,211.445c-28.421-41.811-27.908-47.098,8.011-82.674
			c-41.811,28.42-47.098,27.908-82.674-8.011c28.42,41.811,27.909,47.098-8.012,82.674
			C755.279,175.014,760.567,175.526,796.143,211.445z"/>
		<path opacity="0.8" fill="#FFFFFF" d="M802.204,214.492c-30.562-40.271-30.326-45.579,3.689-82.979
			c-40.273,30.562-45.579,30.327-82.98-3.688c30.563,40.271,30.327,45.578-3.688,82.979
			C759.496,180.241,764.803,180.477,802.204,214.492z"/>
		<g>
			<path fill="none" stroke="#FFFFFF" stroke-width="3.4927" stroke-miterlimit="10" d="M654.948-119.152
				c0,2.893,2.346,5.239,5.239,5.239l0,0c2.894,0,5.239-2.346,5.239-5.239v-11.642c0-2.894-2.346-5.24-5.239-5.24l0,0
				c-2.894,0-5.239,2.346-5.239,5.24V-119.152z"/>
			<path fill="none" stroke="#FFFFFF" stroke-width="3.4927" stroke-miterlimit="10" d="M654.948-156.99
				c0,2.894,2.346,5.239,5.239,5.239l0,0c2.894,0,5.239-2.345,5.239-5.239v-11.642c0-2.894-2.346-5.24-5.239-5.24l0,0
				c-2.894,0-5.239,2.346-5.239,5.24V-156.99z"/>
			<path fill="#FFFFFF" d="M657.774-132.952c0,1.333,1.08,2.414,2.413,2.414l0,0c1.333,0,2.414-1.081,2.414-2.414v-20.916
				c0-1.333-1.081-2.414-2.414-2.414l0,0c-1.333,0-2.413,1.081-2.413,2.414V-132.952z"/>
			<path fill="#FFFFFF" d="M657.774-95.768c0,1.333,1.08,2.414,2.413,2.414l0,0c1.333,0,2.414-1.081,2.414-2.414v-20.916
				c0-1.333-1.081-2.413-2.414-2.413l0,0c-1.333,0-2.413,1.081-2.413,2.413V-95.768z"/>
			<path fill="#FFFFFF" d="M662.601-185.859v13.221c0,1.333-1.081,2.413-2.414,2.413c-1.333,0-2.413-1.081-2.413-2.413v-13.221
				H662.601z"/>
		</g>
	</g>
</g>
<g id="Layer_2">
	<rect x="335.69" y="-1216.164" fill="#D5D5D5" width="1410" height="275"/>
	<rect x="217.69" y="-947.5" fill="#D5D5D5" width="219" height="445.709"/>
	<rect x="1606.69" y="-947.5" fill="#D5D5D5" width="228" height="413.143"/>
</g>
</svg>
