<svg xmlns="http://www.w3.org/2000/svg" viewBox="0 0 400 400"><defs><style>.cls-1{fill:#ffc5ab;}.cls-2{fill:#f15a24;}.cls-3{fill:#bfd3fb;}.cls-4{fill:#99f;}.cls-5{fill:#ceec75;}.cls-6{fill:#fff;}</style></defs><g id="Graphics"><path class="cls-1" d="M203.5749,172.3781c-5.6662-6.3391-12.0409-12.1391-19.6029-16.1338a45.6862,45.6862,0,0,0-19.4642-5.1476,52.0386,52.0386,0,0,0-37.1533,13.4809c-.8949.8309-1.7429,1.7116-2.5669,2.6142a66.8578,66.8578,0,0,0-25.653,29.0895,71.3762,71.3762,0,0,0-6.1185,40.2864,61.0465,61.0465,0,0,0,18.7546,35.6659,71.7977,71.7977,0,0,0,36.7255,18.0176,65.2466,65.2466,0,0,0,40.3573-5.634c12.2464-6.1713,22.1577-16.6254,28.4813-28.72a71.3852,71.3852,0,0,0,8.0564-39.7672C223.7565,199.27,214.6488,184.7674,203.5749,172.3781ZM102.811,254.0423c-.3087-.5821-.6042-1.1712-.8924-1.7641q.5745.8111,1.1724,1.6A2.4706,2.4706,0,0,0,102.811,254.0423Zm44.7534-.3924c.3273.0359.6528.0842.9779.1351.23.3814.4613.7619.7189,1.1281Q148.3863,254.3223,147.5644,253.65ZM164.97,270.094a7.0742,7.0742,0,0,0,2.8461.436,6.1835,6.1835,0,0,0,.4725.5118A16.769,16.769,0,0,1,164.97,270.094ZM120.213,188.7982c-.3023.2836-.5872.5846-.8825.8754.2288-.4532.4519-.9093.6835-1.3609.0121,0,.024.0014.0364.0018A1.2217,1.2217,0,0,0,120.213,188.7982Zm64.4491,73.2337a34.1812,34.1812,0,0,1-3.2182,2.8094c.101-.132.1925-.2709.292-.4037a12.6181,12.6181,0,0,0,3.301-3.2782c.1859-.1639.372-.3279.5488-.4971C185.2866,261.1242,184.974,261.5777,184.6621,262.0319Zm-31.731-79.3137q1.3752-.2838,2.7679-.4684c-.5325.1782-1.0613.3667-1.5884.56-.4078.0111-.8142.0361-1.2205.0708C152.9037,182.8265,152.9183,182.7723,152.9311,182.7182Zm5.29,4.0176a9.3163,9.3163,0,0,0-.7517.7148c-.0544.059-.1028.1223-.1556.1826-.1141.013-.2262.0346-.3389.0542a10.7414,10.7414,0,0,1,.8012-1.0552C157.9261,186.6626,158.0728,186.7023,158.2213,186.7358Zm47.8068,75.91c-1.8169,2.4215-3.7151,4.7869-5.76,7.0185.17-.2433.3451-.4825.5119-.728q.8164-.969,1.6035-1.9708c1.1149-1.4253,2.1783-2.89,3.2234-4.3683.3946-.3142.7892-.6284,1.1709-.957C206.5277,261.9745,206.2787,262.3114,206.0281,262.6453Zm-35.3113-66.2662q-.1283.8772-.2241,1.76c-.3361-1.2194-.66-2.4423-.9872-3.6641.2971-.0178.5943-.0323.8917-.04C170.5048,195.0828,170.6051,195.7321,170.7168,196.3791Zm-1.3087-13.276a2.1894,2.1894,0,0,0-.3372.5275c-.3667-.0147-.7371-.0213-1.1092-.0189-.179-.1665-.3548-.336-.5318-.5043.5922-.0452,1.1848-.09,1.7784-.1049.0131.0035.0261.0052.0392.0087.0436.0111.086.0264.13.0381C169.3878,183.0669,169.3977,183.0854,169.4081,183.1031Zm-.4185-16.5906a19.2733,19.2733,0,0,1,3.6593,1.0813c-1.1854-.3849-2.3987-.7041-3.6275-.9829C169.0111,166.5783,169,166.5453,168.99,166.5125Zm47.8488,67.8624c-.07.3549-.1362.71-.2225,1.0656a35.7631,35.7631,0,0,1-1.2048,3.8608,69.4911,69.4911,0,0,0,1.4953-7.0489Q216.9043,233.3146,216.8384,234.3749Z"/><path class="cls-2" d="M224.4387,205.8122a85.8377,85.8377,0,0,0-21.0936-34.9444,69.55,69.55,0,0,0-37.0672-19.47,63.076,63.076,0,0,0-10.4663-.8833,1.7485,1.7485,0,0,0-1.7989,1.1221c-12.2074,3.2881-23.3319,9.8789-33.001,17.9609a95.3281,95.3281,0,0,0-15.2253,15.53,54.9918,54.9918,0,0,0-8.921,17.9189c-3.6531,12.7925-2.9038,26.64,1.1517,39.2427a75.5526,75.5526,0,0,0,21.5664,33.044A63.492,63.492,0,0,0,157.04,291.4626,55.1789,55.1789,0,0,0,178.475,288.85a66.8133,66.8133,0,0,0,18.93-10.4351A127.1328,127.1328,0,0,0,213.6633,263.89a51.8324,51.8324,0,0,0,11.2437-17.9434C229.4689,233.0592,228.4705,218.696,224.4387,205.8122Zm-30.9975-38.8833a82.0995,82.0995,0,0,1,29.3152,48.4765c-13.4381,8.1592-28.9352,11.7979-44.422,13.5127-3.0076.333-6.0259.5845-9.0478.7984a104.85,104.85,0,0,0,.2016-14.6118,19.0572,19.0572,0,0,0,9.0783-4.5889c5.7179-5.2207,8.3918-12.938,9.4641-20.4233a64.2289,64.2289,0,0,0-2.3839-28.3082A66.16,66.16,0,0,1,193.4412,166.9289ZM158.86,153.8078a60.7742,60.7742,0,0,1,21.74,5.4272,62.383,62.383,0,0,1,3.9257,26.0918c-.476,7.3023-2.1878,15.0254-6.8633,20.856a16.3246,16.3246,0,0,1-8.2608,5.688c-.0346.0093-.07.0141-.1047.0234q-.1114-1.5791-.2478-3.1567a193.9973,193.9973,0,0,0-4.1364-26.2012,192.1061,192.1061,0,0,0-8.7567-28.1035C157.0536,154.2082,157.9543,153.9963,158.86,153.8078Zm-9.1518,2.5957c.8838-.3257,1.7769-.6226,2.6744-.9058A190.132,190.132,0,0,1,164.759,205.72q.3479,3.3376.5851,6.7012a19.2384,19.2384,0,0,1-6.7834-1.2085c-7.7047-2.8223-12.93-9.4507-16.7784-16.419-4.79-8.6719-7.7434-18.249-13.2287-26.5566-.018-.0274-.042-.0469-.0613-.0728A84.2349,84.2349,0,0,1,149.7086,156.4035Zm-50.7326,56.08a55.2527,55.2527,0,0,1,5.3377-17.87A62.1522,62.1522,0,0,1,116.7484,178.28c2.7825-2.7266,5.7037-5.34,8.7541-7.7945,9.2765,14.52,12.4139,35.6084,29.9388,43.0537a24.7754,24.7754,0,0,0,10.0856,2.0049,100.6038,100.6038,0,0,1-.2474,14.4405,255.3338,255.3338,0,0,1-38.2925-.8882A253.4889,253.4889,0,0,1,98.6487,224.67,64.8609,64.8609,0,0,1,98.976,212.4831Zm-.0148,15.5522a260.7327,260.7327,0,0,0,50.94,5.4585c4.9711.0376,9.9815-.0342,14.995-.26a84.9089,84.9089,0,0,1-2.2627,10.5737,80.97,80.97,0,0,0-10.2212,1.0039,26.0526,26.0526,0,0,0-17.5467,10.7026c-4.4717,6.3579-6.1916,13.9634-7.5509,21.4966A71.901,71.901,0,0,1,98.9612,228.0353Zm31.9234,51.44c2.1745-12.3013,5.5895-27.1895,19.38-30.8882a50.6175,50.6175,0,0,1,10.4453-1.3985c.3193-.0171.6391-.0185.9585-.0337-1.1657,3.8594-2.4724,7.6792-3.7551,11.4722q-4.79,14.1629-10.2748,28.0762A58.4017,58.4017,0,0,1,130.8846,279.4758Zm35.9483,8.6406a53.229,53.229,0,0,1-15.3328-.5713q4.893-12.4365,9.25-25.0747c1.7562-5.106,3.5654-10.2481,5.0857-15.461,2.0487-.041,4.0979-.0493,6.1465-.0073,3.3476.0679,6.9365-.0527,10.2171.6875a4.1931,4.1931,0,0,1,2.93,1.8584c.8418,1.49.8709,3.5239,1.0732,5.1807a120.6792,120.6792,0,0,1,.3613,25.6225,1.2515,1.2515,0,0,0,.3093.981c-.3037.1768-.6023.3618-.9091.5332A50.5222,50.5222,0,0,1,166.8329,288.1164Zm56.485-52.1465a45.8806,45.8806,0,0,1-6.6364,18.0962c-3.7887,5.9062-8.8272,10.8437-14.0654,15.4575a117.4546,117.4546,0,0,1-11.9418,9.4326,120.5293,120.5293,0,0,0-.358-23.2651c-.3917-3.4409-.4666-7.6206-3.6833-9.7183-2.9575-1.9287-6.8448-1.8511-10.2409-2.0176-3.1792-.1562-6.4085-.2563-9.6425-.2417.6582-2.5009,1.2413-5.0185,1.6921-7.5605.1848-1.042.34-2.0864.4788-3.1323a165.0231,165.0231,0,0,0,30.9032-4.6392A93.6343,93.6343,0,0,0,223.34,219,61.3351,61.3351,0,0,1,223.3179,235.97Z"/><path class="cls-3" d="M284.8476,201.0807c-9.2939-4.9-20.2576-8.054-30.8059-8.0522a45.3784,45.3784,0,0,0-35.2,16.6759,1.8077,1.8077,0,0,0-.4757,1.4382,48.83,48.83,0,0,0-12.66,24.5633,47.7729,47.7729,0,0,0,4.3526,30.3012c5.0212,9.995,13.4108,17.3346,23.2335,22.4533,9.0126,4.6965,19.1744,8.5891,29.5073,7.8532,11.1395-.7928,20.5951-7.5748,27.9063-15.6a66.279,66.279,0,0,0,15.0671-26.5456,49.6034,49.6034,0,0,0-.9-30.1953A41.8343,41.8343,0,0,0,284.8476,201.0807Zm-49.7714,81.5247c-.5776-.1992-1.1564-.4132-1.7178-.6644q.8525.2114,1.7185.3709c.072.0174.144.0378.2161.0551A2.6012,2.6012,0,0,0,235.0762,282.6054Zm21.28-1.8212q-.5354.1108-1.07.2144c.3267-.17.6532-.34.9749-.52.3956-.1089.7834-.2345,1.1749-.3525C257.08,280.3524,256.7231,280.5765,256.3566,280.7842Zm-19.05-80.8392a12.4747,12.4747,0,0,0-1.6717,1.2159,1.5388,1.5388,0,0,0-.7428-.3192c.8119-.409,1.64-.7862,2.4775-1.1411A1.7143,1.7143,0,0,0,237.3065,199.945Zm59.0109,56.942a1.1743,1.1743,0,0,0-.8024-.7479,2.4658,2.4658,0,0,0,.972-.07Q296.4059,256.4789,296.3174,256.887ZM283.8,216.8057c-.1526.8574-.3332,1.7074-.5637,2.5319-.2856,1.02-.626,2.0221-.9875,3.016.5617-1.8874,1.0423-3.7977,1.4762-5.72Zm13.5042.7572a2.9311,2.9311,0,0,0-.4683.0253q-.3658-.8988-.7375-1.7979Q296.7246,216.66,297.3037,217.5629Z"/><path class="cls-4" d="M222.9546,208.6609a356.3219,356.3219,0,0,1,37.6539,68.4485c2.2164,5.401,4.328,11.3484,3.2992,17.2682-.4309,2.479,3.2612,2.2343,3.6174.185.9642-5.5479-.2471-10.9971-2.1842-16.2045-2.2336-6.0052-4.9578-11.8614-7.6833-17.6559a370.5612,370.5612,0,0,0-18.91-35.1811q-5.97-9.792-12.5464-19.1961C224.9927,204.5938,221.7409,206.9229,222.9546,208.6609Z"/><path class="cls-4" d="M246.8244,204.0458c-2.241-2.7728-5.3713-5.0983-6.5082-8.5986-.69-2.125-4.2592-.382-3.6278,1.562,1.0011,3.0825,3.2181,5.2951,5.3622,7.6209a50.812,50.812,0,0,1,5.7355,7.9624c3.5119,5.6992,7.0206,11.4018,10.3909,17.1859a219.9925,219.9925,0,0,1,17.0995,35.6008c2.5552,7.0383,4.7532,14.1993,6.8452,21.3867.6228,2.14,4.1992.401,3.6281-1.5616-3.7018-12.7175-7.7941-25.334-13.4563-37.3322-5.6387-11.9484-12.4489-23.2808-19.3592-34.5255A86.7824,86.7824,0,0,0,246.8244,204.0458Z"/><path class="cls-4" d="M208.7435,249.7481a1.8959,1.8959,0,0,0-2.558-.1309c-.6405.4608-1.3885,1.7226-.6891,2.4669a38.6309,38.6309,0,0,1,10.3222,22.1124c.2611,2.368,3.9688,1.3072,3.747-.7058A41.21,41.21,0,0,0,208.7435,249.7481Z"/><path class="cls-4" d="M208.2787,236.5082c-1.49-1.368-4.2872,1.4253-2.6343,2.943,11.7132,10.7561,23.27,25.9457,19.5134,42.8784-.5457,2.46,3.1679,2.2113,3.6174.185a37.4535,37.4535,0,0,0-2.9472-23.63C221.8085,250.1367,215.3049,242.96,208.2787,236.5082Z"/><path class="cls-4" d="M290.5883,209.3226a35.7438,35.7438,0,0,0,12.4729,24.6783c1.5466,1.3163,4.3441-1.4879,2.6343-2.943a32.79,32.79,0,0,1-11.36-22.4411C294.1664,206.24,290.4447,207.3,290.5883,209.3226Z"/><path class="cls-4" d="M283.3162,203.0173c-.7714,4.2344-.0715,8.4365.7476,12.6106a61.6073,61.6073,0,0,0,3.7541,12.76c3.2874,7.5587,8.8888,14.2809,16.8567,17.0637,1.9069.666,4.109-2.5429,1.86-3.3283-7.2323-2.5257-12.3615-8.8328-15.27-15.7182a61.6062,61.6062,0,0,1-3.4843-11.8875c-.7377-3.6762-1.53-7.57-.8475-11.3152C287.385,200.726,283.6889,200.9711,283.3162,203.0173Z"/><path class="cls-5" d="M227.0449,271.1725c-3.0918-6.9-10.675-9.3711-17.7086-8.5092a1.9414,1.9414,0,0,0-.8448-.149c-4.0446.3106-7.484,2.1758-10.7307,4.4991-2.7831,1.9917-5.7614,4.48-6.5076,7.9985a15.4679,15.4679,0,0,0,.304,6.3022,40.0029,40.0029,0,0,0,1.3646,5.375,13.9237,13.9237,0,0,0,6.5718,7.9678c6.7958,3.626,14.9061,1.1929,20.5622-3.4038C225.7938,286.5905,230.3694,278.5915,227.0449,271.1725Zm-13.0235.5367a38.7178,38.7178,0,0,0-2.95-2.751c-.0861-.1167-.1809-.2251-.2733-.336.1857.0025.3711.0127.5565.0249A12.5343,12.5343,0,0,1,214.0214,271.7092Z"/><path class="cls-6" d="M228.5476,279.22a2.3192,2.3192,0,0,0-2.7364-.5742c-1.9657.7778-4.3266,1.5586-6.4449,1.0337a7.2584,7.2584,0,0,1-3.9407-2.9039c-2.6145-3.6142-2.0775-8.4209-.7176-12.4082.72-2.1113-3.1971-2.7851-3.8571-.8505-1.7266,5.0625-2.0431,11.1411,1.5915,15.479a11.04,11.04,0,0,0,6.2268,3.8515c3.0907.6045,6.2988-.3056,9.1609-1.4385A1.4719,1.4719,0,0,0,228.5476,279.22Z"/><path class="cls-6" d="M204.3871,283.1872a11.8746,11.8746,0,0,0-4-4.1153,13.5193,13.5193,0,0,0-2.9982-1.3212,9.8726,9.8726,0,0,1-2.6839-1.0923,2.3893,2.3893,0,0,0-2.8284,0,1.4123,1.4123,0,0,0,0,2.2627c1.6508,1.1587,3.5555,1.4463,5.3463,2.2793a8.3465,8.3465,0,0,1,3.4277,3.14c2.15,3.3374,1.9788,7.5947.9218,11.2715-.6183,2.1509,3.2931,2.813,3.8571.8506C206.7032,292.0324,206.7468,287.2648,204.3871,283.1872Z"/></g></svg>