<svg xmlns="http://www.w3.org/2000/svg" viewBox="0 0 400 400"><defs><style>.cls-1{fill:#bfeaf6;}.cls-2{fill:#89d1e9;}.cls-3{fill:#ceecc8;}.cls-4{fill:#bfd3fb;}.cls-5{fill:#9999c9;}.cls-6{fill:#cbf1de;}.cls-7{fill:#76c3af;}.cls-8{fill:#603813;}</style></defs><g id="Graphics"><path class="cls-1" d="M285.4721,231.5646q-.2373-11.324-.4746-22.6484a1.5818,1.5818,0,0,0-1.3075-2.4776,2.77,2.77,0,0,0-1.3539-.0293q-46.7314-.3435-93.4095,2.564-13.1595.824-26.3007,1.9068a3.3086,3.3086,0,0,0-.7107.1376c-1.073-.081-2.1889.439-2.1124,1.566q2.8331,41.7429,5.6663,83.4858.687,10.1222,1.3741,20.2451a1.3471,1.3471,0,0,0,.0207,1.57c.03.0367.062.0669.0927.1021q.0489.7193.0977,1.439c.1139,1.6777,2.6527,2.01,3.6249,1.0268l87.93-2.8681q12.7264-.4153,25.4529-.83c.0138,0,.0282-.0034.042-.0044,1.1862.6084,3.1568.1723,3.1256-1.3169Q286.3509,273.4987,285.4721,231.5646Zm-96.271,50.4893q-.546.6166-1.0913,1.2348-.98-2.5268-1.9457-5.06a2.5424,2.5424,0,0,0,1.4362-.0464l.0062.0142a1.6381,1.6381,0,0,0,.3842.5322q-.1729.71-.4041,1.4116C187.1781,281.3791,188.1286,281.9894,189.2011,282.0539Zm47.8083.8594q-1.1217,1.11-2.2038,2.2558.9279-1.1192,1.8557-2.2373C236.7773,282.9255,236.8933,282.9191,237.0094,282.9133Zm8.6128-.0215q-.3507.2167-.7012.4326a1.6251,1.6251,0,0,0-.4-.4956c.3526.01.7053.0141,1.0578.0278Zm-12.3963-57.1372q2.1637-.0762,4.3273-.1529c-.42.33-.8388.6617-1.26.9908a1.605,1.605,0,0,0-.3266-.396,2.3855,2.3855,0,0,0-2.8284,0l-.246.164C233.0029,226.1584,233.116,225.9572,233.2259,225.7546Zm-4.4372.1562q-.0957.1736-.19.3482a2.1352,2.1352,0,0,0-.9256-.0215,2.1011,2.1011,0,0,0-.8993-.2554Q227.7814,225.9463,228.7887,225.9108Zm-3.6315.1284,1.3321-.0468a3.567,3.567,0,0,0-.9074.1787c-.4077.1377-.8125.2837-1.2195.4233a2.0115,2.0115,0,0,0-.837-.3779C224.0693,226.1574,224.6132,226.0968,225.1572,226.0392Zm-20.5081,13.104c.0981-.0888.1961-.1782.2942-.2671a2.2106,2.2106,0,0,0,1.0124.8169c-.19.1382-.3858.2671-.5751.4058-.0548.04-.0926.082-.14.123-.3379-.269-.6814-.5312-1.02-.7988A1.7828,1.7828,0,0,0,204.6491,239.1432Zm-4.08-5.309c-.6743.2666-1.3537.52-2.0258.7924a1.5789,1.5789,0,0,0-.3166.1773q-.2681-.2022-.536-.4038Q199.1294,234.1166,200.5687,233.8342Zm-6.3475,19.28a1.2542,1.2542,0,0,0-.0791.51c-.3418-.4981-.6738-1.0034-1.0126-1.5039C193.4935,252.4513,193.8552,252.7853,194.2212,253.1139Zm-1.7371,21.1045c.0255-.0078.0507-.0161.0757-.0254.219.5083.435,1.0176.6611,1.5225a2.5326,2.5326,0,0,0-.5911-.1084l-.1657-.397C192.4758,274.88,192.4884,274.55,192.4841,274.2184Zm-3.4693-25.9507a3.0045,3.0045,0,0,0-.8342.1983c-.3368-.6631-.6776-1.3242-1.0156-1.9863C187.7744,247.0827,188.3967,247.673,189.0148,248.2677Zm-.4528,15.1163a20.0677,20.0677,0,0,0,.9822,3.3623,2.751,2.751,0,0,0-.589.0537q-.9486-2.2736-1.8971-4.5474-.46-1.3974-.8989-2.8017Q187.35,261.4233,188.562,263.384Zm-1.7239,29.726a1.9065,1.9065,0,0,0,.17.1216c-.2.25-.3918.5078-.5911.7593q-.5272.5632-1.0545,1.1274C185.8535,294.4484,186.3426,293.777,186.8381,293.11Zm-10.916-57.5488q-.5044-1.2086-1.0087-2.4175.65.6021,1.3007,1.2031c.248.3145.5118.6167.763.9288A2.9735,2.9735,0,0,0,175.9221,235.5612Zm15.623,69.646q.5279-.5282,1.0558-1.0557a1.1568,1.1568,0,0,0,.0124.7676q-.0987.0272-.1974.0552C192.1311,305.0544,191.8332,305.1291,191.5451,305.2072Zm8.6067,5.7559q-2.4081.21-4.816.42c2.1783-.38,4.3583-.75,6.5373-1.1265Q201,310.5825,200.1518,310.9631Zm78.4309-13.4214c-.0589-1.1294-.1047-2.2593-.1561-3.3892q.2022,1.9461.4221,3.8911C278.76,297.8766,278.6723,297.7087,278.5827,297.5417Z"/><path class="cls-2" d="M277.2392,217.39a2.0773,2.0773,0,0,0-1.6468.7378c-23.554,2.8628-47.3035.7427-70.9527,1.49a2.6411,2.6411,0,0,0-2.3042.0845c-3.02.12-6.0393.2822-9.0554.5215-7.7181.6118-15.381,1.8994-23.1265,2.1528a2.1221,2.1221,0,0,0-1.871,1.0591,1.4186,1.4186,0,0,0-.8815,1.3076q.4524,7.5205.9046,15.0406c.002.0327.0129.0615.0168.0932a1.4072,1.4072,0,0,0-.3836.9307c-.0149,1.0478,1.1168,1.5635,2,1.6,6.6866.2763,13.24-1.3374,19.8772-1.8311,6.7262-.4995,13.482-.2925,20.22-.289,5.0235.0024,10.0468-.0645,15.0694-.1651a2.4457,2.4457,0,0,0,3.24-.0659q11.2344-.2754,22.4569-.8828,11.5471-.6372,23.07-1.6382a3.46,3.46,0,0,0,.4132-.064c.8235,1.27,3.73,1.0176,3.7785-.79q.2367-8.8666,1.1755-17.6919C279.3465,217.9806,278.0611,217.39,277.2392,217.39ZM172.2721,239.2233l-.8246-13.708c1.9433-.0923,3.881-.2485,5.8163-.4331q.2045,6.8818,1.036,13.7217C176.2934,239.0246,174.2852,239.1935,172.2721,239.2233Zm9.9727-.9023q-.81-6.8006-.9942-13.6509c2.6584-.2954,5.316-.603,7.9773-.8711q.64,6.7772,1.28,13.5537C187.75,237.5749,184.9973,237.9543,182.2448,238.321Zm12.2444-1.167q-.6473-6.8533-1.2945-13.7071c2.8062-.2236,5.6168-.3867,8.4291-.5112q.1554,7.0686.731,14.1177C199.732,237.0509,197.11,237.0666,194.4892,237.154Zm18.0337-.0694c-2.0547.0059-4.1108-.0063-6.1671-.0185q-.5851-7.1258-.7353-14.2759c2.0013-.06,4.0029-.1064,6.0048-.1294.0578,0,.1157,0,.1736-.001a1.0517,1.0517,0,0,0-.0942.5328q.7038,6.9433,1.4076,13.8862C212.9159,237.08,212.7194,237.0842,212.5229,237.0846Zm4.5854-.0449q-.7019-6.9236-1.4036-13.8471a1.6459,1.6459,0,0,0-.1626-.5528c2.8144-.0073,5.6288.0108,8.4432.0371q.29,7.1309.5809,14.2627Q220.8374,237.0056,217.1083,237.04Zm15.8044-.2973c-1.45.0444-2.9.0712-4.35.1054q-.2878-7.0649-.5755-14.1289,3.218.0381,6.4359.0772.7031,6.91.7489,13.8608C234.4186,236.6828,233.6659,236.7194,232.9127,236.7424Zm6.2572-.2364q-.0506-6.8517-.7435-13.6738,3.2387.0272,6.4775.0234-.06,6.693.4214,13.3736C243.2737,236.3263,241.2222,236.4255,239.17,236.506Zm10.1426-.4731q-.4689-6.5925-.4085-13.2061c1.549-.0136,3.0981-.019,4.6471-.0522.6662-.0142,1.3317-.0435,1.9976-.0625q.7214,6.4277,1.4424,12.855C254.4319,235.7277,251.8733,235.8981,249.3125,236.0329Zm10.2208-13.458c1.9491-.0855,3.8964-.2,5.8426-.3311q-.0149,6.3831-.03,12.7666c-1.4606.1074-2.921.2163-4.3821.3159Q260.2486,228.9507,259.5333,222.5749Zm14.6161,11.7666a1.6562,1.6562,0,0,0-.2774-.0059c-1.5078.13-3.0165.2486-4.5251.3682q.0149-6.3823.03-12.7652c1.8789-.16,3.7565-.3359,5.6311-.5473Q274.3906,227.8527,274.1494,234.3415Z"/><path class="cls-2" d="M276.8692,258.9455q-.0153-5.0485-.0306-10.0967c-.0052-1.7119-2.6276-2.04-3.6225-.978l-36.7669,1.6128a2.1019,2.1019,0,0,0-1.0535-.2432,2.8163,2.8163,0,0,0-1.1949.3418l-40.242,1.7651-22.4679.9859a2.7819,2.7819,0,0,0-.8531.1806c-1.2152-.0835-2.58.6739-2.2207,2.0176a59.6046,59.6046,0,0,1,1.9453,12.4556,1.438,1.438,0,0,0,.125.499,1.3452,1.3452,0,0,0-.1345.5606,1.8517,1.8517,0,0,0,2,1.6c6.6086-.5884,13.261-.3028,19.8814-.712,6.6178-.4091,13.22-1.0976,19.8214-1.7075a2.318,2.318,0,0,0,1.0777.2661,2.52,2.52,0,0,0,1.4405-.4985l37.89-3.4805,22.7479-2.09c.9072-.0835,1.9848-.5259,2-1.6A1.34,1.34,0,0,0,276.8692,258.9455Zm-102.5574,7.3569a64.0207,64.0207,0,0,0-1.6072-10.8227l5.3262-.2334q.3755,5.4294,1.0683,10.83C177.502,266.1266,175.9058,266.195,174.3118,266.3024Zm8.7749-.3247q-.6941-5.4368-1.0686-10.9067l6.9134-.3033c.1369,2.4082.3461,4.8116.661,7.2032.1687,1.2807.37,2.5571.5861,3.831C187.8158,265.8884,185.4509,265.9318,183.0867,265.9777Zm11.6-.41c-.181.0132-.3624.02-.5435.0323-.0346-.1968-.0688-.3936-.1014-.5909q-.1256-.7572-.2369-1.5175-.234-1.5828-.4157-3.1729c-.217-1.9033-.3675-3.8135-.4728-5.7261l7.2056-.3159q.4556,5.39.9109,10.78C198.9179,265.2316,196.8031,265.4128,194.6869,265.568Zm10.3189-.8349q-.4492-5.3152-.8984-10.6309,3.0292-.1326,6.0585-.2656.4149,5.17.83,10.3413C208.999,264.3625,207.0031,264.5588,205.0058,264.7331Zm9.96-.9234q-.4073-5.0742-.8144-10.1479l7.8106-.3428q.4573,4.8722.9147,9.7437Q218.9217,263.4391,214.9663,263.81Zm19.6944-1.86c-2.6058.2392-5.2126.4917-7.8186.7383q-.448-4.7718-.8959-9.5435,3.8259-.1677,7.6519-.3359.4853,4.5819,1.2848,9.1206Zm4.166-.3828q-.7869-4.4423-1.2488-8.9327,3.048-.1339,6.0959-.2675.63,4.3161,1.0616,8.6572Zm9.8694-.9068q-.4268-4.2452-1.0465-8.4677,2.1132-.0931,4.2265-.1856,1.258-.0549,2.5161-.11.446,4.08.8921,8.1586Zm9.677-8.9385,5.0033-.22a25.8019,25.8019,0,0,0,1.0334,7.7149l-5.1653.4746Q258.8089,255.7064,258.3731,251.7218Zm10.0014,7.1309a1.4379,1.4379,0,0,0-.0456-.2617c-.212-.7051-.3961-1.4175-.5447-2.1387-.0412-.2-.0792-.4009-.1152-.602-.0077-.0528-.0473-.2935-.05-.31q-.08-.5464-.1361-1.0957a24.0323,24.0323,0,0,1-.086-3.1186l5.4483-.2388.0223,7.353Z"/><path class="cls-2" d="M275.41,282.9147q-.1662-4.3717-.3326-8.7446c.1963-.8926-.4158-1.9258-1.8452-1.9258-.0177,0-.0324.0034-.05.0039-.0391-.001-.0786-.0078-.1174-.0063a2.72,2.72,0,0,0-.6007.0971,2.268,2.268,0,0,0-1.224-.353q-33.8763,1.0231-67.7078,3.1265c-.0306,0-.06-.0054-.091-.0044-.0683.0024-.1439.0136-.2183.0234-2.5081.1553-5.0172.2944-7.5248.4585q-10.6752.698-21.3429,1.502c-.8777.0659-1.903.51-1.9857,1.499a1.3753,1.3753,0,0,0-.2263.7832,49.2463,49.2463,0,0,0,1.4093,11.0381c.0019.0078.007.0141.0091.0215a1.32,1.32,0,0,0-.3038.8339,1.8507,1.8507,0,0,0,2,1.6c25.7806-2.435,51.6208-4.8237,77.5413-4.7436,1.1078.0034,2.2213.019,3.3372.0342a2.1242,2.1242,0,0,0,.7439.1147,2.7446,2.7446,0,0,0,.6065-.0986c5.2552.0566,10.5459-.0215,15.5871-1.6.8669-.2715,1.7131-.9522,1.3969-1.9678a1.2893,1.2893,0,0,0-.1409-.2978A1.4956,1.4956,0,0,0,275.41,282.9147Zm-98.02,6.5537a44.971,44.971,0,0,1-1.2156-9.3056c1.4717-.1094,2.9445-.2036,4.4165-.31q.699,4.5938,1.3978,9.1865Q179.6895,289.2546,177.39,289.4684Zm8.5427-.7968-1.3841-9.0967c2.3147-.1636,4.6306-.3091,6.9458-.4654.2368,3.0015.5684,5.9947,1.0155,8.9727C190.3175,288.278,188.1247,288.4694,185.9328,288.6716Zm11.0233-.9874c-.1643.0142-.3285.03-.4929.044q-.6515-4.4246-.9929-8.8853c2.0608-.1357,4.1223-.2587,6.1835-.3891q.5084,4.3857,1.1975,8.7471C200.8861,287.3605,198.9205,287.5153,196.9561,287.6842Zm9.8471-.8037q-.6816-4.3257-1.18-8.6762c2.0017-.1231,4.0038-.2373,6.0058-.355q.4686,4.3036.9373,8.6084Q209.6844,286.662,206.8032,286.8805Zm9.7342-.69q-.4669-4.2883-.9338-8.5762c2.5085-.1435,5.0182-.2661,7.5272-.4008q.5871,4.25.8978,8.5307C221.531,285.882,219.0335,286.026,216.5374,286.19Zm19.0783-.98c-.2083.0074-.4168.0122-.6251.02-2.3266.083-4.6517.1967-6.9768.311q-.3177-4.2833-.9119-8.5386,4.1381-.2153,8.2768-.4121A50.0864,50.0864,0,0,1,235.6157,285.21Zm4.0063-.124a50.0871,50.0871,0,0,0-.2662-8.6889c1.7969-.084,3.5942-.1578,5.3914-.2369a86.8492,86.8492,0,0,1,.3948,8.8218C243.3018,285.009,241.4618,285.0368,239.622,285.0856Zm14.6623-.1543c-1.714-.0117-3.4281.0015-5.1421.0113a86.8522,86.8522,0,0,0-.4106-8.9576c.3755-.0151.7507-.0341,1.1262-.0493,1.5383-.0615,3.0773-.1035,4.6157-.1616q.1712,4.5813.3423,9.1626C254.6387,284.9352,254.4613,284.9328,254.2843,284.9313Zm4.5328.0415q-.1744-4.6692-.3489-9.3388c1.158-.0415,2.3162-.0791,3.4741-.1216q.1112,4.71.222,9.42C261.0505,284.9679,259.934,284.9767,258.8171,284.9728Zm7.3407-.3174q-.1094-4.6413-.2188-9.2832c1.7258-.0615,3.4513-.1294,5.1774-.1816l.2937,7.7241a1.4275,1.4275,0,0,0,.2034.6807A31.4,31.4,0,0,1,266.1578,284.6554Z"/><path class="cls-2" d="M270.7107,300.6545a9.1169,9.1169,0,0,0-3.86-5.4219,16.3511,16.3511,0,0,0-6.2664-2.251c-8.5039-1.2861-17.1776,2.9155-20.7471,10.8652a18.953,18.953,0,0,0-.6108,13.8736,2.0925,2.0925,0,0,0,2.5132,1.0727,3.0051,3.0051,0,0,0,.8558.191,100.5155,100.5155,0,0,0,13.4372-.4161l13.6271-.812a2.8557,2.8557,0,0,0,.9481-.2187c1.2289.7109,3.3252.2959,3.152-1.2256A92.1624,92.1624,0,0,0,270.7107,300.6545Z"/><path class="cls-2" d="M227.892,309.6784a1.8812,1.8812,0,0,0-2-1.6l-.0122.0015-.0355-.2076a1.3254,1.3254,0,0,0,.2915-.8154c.0142-.9946-1.1151-1.6323-2-1.6q-23.242.857-46.484,1.7134a2.0862,2.0862,0,0,0-.9371-.19,2.2235,2.2235,0,0,0-1.9314,1.1162,1.3456,1.3456,0,0,0-.2138.7139,1.2925,1.2925,0,0,0,.2795.8023,62.888,62.888,0,0,0,1.5006,7.8237c.0416.5815.0769,1.1645.09,1.7515.0237,1.0405,1.0868,1.5659,2,1.6a385.65,385.65,0,0,0,47.1476-1.1348,3.5314,3.5314,0,0,0,.4925-.08,2.1024,2.1024,0,0,0,.7352.1065c.8041-.0289,2.1137-.5645,2-1.6Q228.3536,313.8794,227.892,309.6784Z"/><path class="cls-3" d="M223.0464,300.78a4.1116,4.1116,0,0,0-4.126-1.3262,5.2578,5.2578,0,0,0-2.6366,1.7451,5.744,5.744,0,0,0-.36.4639c-1.303-1.898-3.1-3.2959-5.7278-3.0459a4.5576,4.5576,0,0,0-3.6566,2.3794,7.0192,7.0192,0,0,0-.5088,1.2973,7.48,7.48,0,0,0-8.6909,1.1509,7.091,7.091,0,0,0-4.3-1.0586,14.8249,14.8249,0,0,0-4.6886.9795,6.6094,6.6094,0,0,0-5.6136-2.418c-3.7039.3218-6.1039,3.6788-6.3489,7.1856-.1393,1.9951,3.474,2.1059,3.9461.2827a3.237,3.237,0,0,0,.3479.0571,13.9127,13.9127,0,0,0,5.5274-.6006,2.768,2.768,0,0,0,2.3669-.2045,31.3389,31.3389,0,0,1,4.5928.7685c.9526.2344,1.9387.6572,2.8962.2022a3.6622,3.6622,0,0,0,.6371-.4073c1.0514.4971,2.4853.3252,2.7931-.9292.0112-.0454.028-.09.0405-.1357a2.2826,2.2826,0,0,0,.69.0942,8.5387,8.5387,0,0,0,2.4227-.3847,9.264,9.264,0,0,1,2.3282.062c1.3688.22,2.6584.9565,4.0565.9643a3.8032,3.8032,0,0,0,.6873-.0654,5.4794,5.4794,0,0,0,2.7754-.7456,3.7381,3.7381,0,0,0,.7806-.6265,6.7372,6.7372,0,0,0,2.2027.1831c.2121-.0175.4164-.062.6234-.0971a2.205,2.205,0,0,0,1.378,1.11,19.759,19.759,0,0,0,9.15.209,1.758,1.758,0,0,0,1.4683-1.543C228.3576,303.3483,225.8,301.12,223.0464,300.78Z"/><path class="cls-4" d="M169.0216,316.0256q-2.0847-32.1651-2.8473-64.3965-.7575-32.2236-.182-64.4595.3244-18.1662,1.0726-36.3223a1.3512,1.3512,0,0,0-.6862-1.25q.0223-.5763.0447-1.1533c.0031-.0825.0046-.1621.0067-.2431,1.318-.7745.9544-2.9239-1.1076-2.9239a2.5751,2.5751,0,0,0-.4748.045,6.0838,6.0838,0,0,0-3.3026-.2852,1.8612,1.8612,0,0,0-.2145-.0112q-29.6595,1.204-59.3532.9819-8.4809-.0652-16.96-.248c-1.3977-.03-2.0135.9462-1.8559,1.8281a1.41,1.41,0,0,0-.7794,1.2886q.4351,33.6576.5069,67.3178t-.2254,67.32q-.1665,18.9484-.4492,37.8959a1.36,1.36,0,0,0,.3953,1.0015,1.2726,1.2726,0,0,0,.04.2315c.3242,1.0415,1.5542,1.2172,2.46,1.1176q31.6138-3.4782,63.4615-4.0307,9.0387-.16,18.0792-.084a1.6039,1.6039,0,0,0,1.6722-2.3462A1.319,1.319,0,0,0,169.0216,316.0256Zm-41.99-23.8018q-.22-1.2-.4395-2.3994l1.8856-1.2827c.2817.8252.5555,1.6533.8467,2.4756C128.5586,291.4157,127.7963,291.8215,127.0319,292.2238ZM114.9541,255.297c.1566.0015.3134.001.47.0025.2605.9272.5388,1.85.8084,2.7744a2.05,2.05,0,0,0-.69-.2031Q115.2485,256.584,114.9541,255.297Zm-.734-3.2085q-.6893-3.0125-1.3784-6.0253c.1061.1967.2043.3974.31.5947q.6767,2.7223,1.4077,5.4316C114.4461,252.0885,114.3331,252.09,114.22,252.0885Zm4.5574,16.9854c-.0591.0176-.1182.0356-.1774.0532a2.8187,2.8187,0,0,0-.3731-.0127c-.1345-.4253-.2709-.85-.4037-1.2749q-.7811-3.4144-1.5623-6.8291.2213-.1954.4425-.3916a1.9536,1.9536,0,0,0,.2151-.2261c.2363.7867.4582,1.5777.7012,2.3624Q118.1981,265.9147,118.7775,269.0739Zm5.5475,8.3745a2.7127,2.7127,0,0,0,.6485-.0879c.0772.271.1466.5435.2247.814-.248-.0088-.4959-.0132-.7439-.02Q124.39,277.8014,124.325,277.4484Zm-13.726-82.1777q-.8662-1.4736-1.7312-2.9478c-.006-.105-.0136-.21-.02-.3154q1.0165,1.593,2.033,3.1855A2.2586,2.2586,0,0,0,110.599,195.2707Zm15.946,87.3437q-.6033.1832-1.2065.3657-.1485-.8092-.2967-1.6191c.3787.0166.7575.0322,1.1358.0523C126.3,281.8136,126.4207,282.2145,126.545,282.6144Zm12.9815,10.3076a1.2406,1.2406,0,0,0,.2151-.8833q-.2481-2.2953-.4961-4.5908c.4629,1.5176.9926,3.0161,1.5151,4.52l.03.0879Q140.1617,292.4938,139.5265,292.922Zm3.6239-50.9448q-.1362-1.2348-.2708-2.4682.2011.3486.4023.6972C143.2193,240.7936,143.1923,241.3864,143.15,241.9772Zm-40.286,16.3657c-.05-.2163-.0955-.4331-.1439-.6494.0317.0034.0632.0069.0951.0088q.259.8966.5182,1.7935-.0828.0651-.1655.1294C103.0681,259.1974,102.9638,258.7707,102.8644,258.3429Zm59.93,13.2906q.1,2.7619.201,5.5249a1.9053,1.9053,0,0,0-.2052-.1314q-.0639-.6936-.1279-1.3877c.0114-1.3164-.0079-2.6333-.093-3.95C162.6444,271.6725,162.72,271.6569,162.7939,271.6335Zm-3.452-75.291q-.0141,1.6589-.0261,3.3178c-.05-.0156-.1008-.03-.1526-.0429q-.1069-1.6407-.2143-3.2813A2.8639,2.8639,0,0,0,159.3419,196.3425ZM157.68,265.8678l.0284.356a2.0843,2.0843,0,0,0-.4107.2813c-.0632-.5611-.1355-1.1211-.1952-1.6827Q157.3918,265.3455,157.68,265.8678Zm-9.9139-50.4209q.0928,1.5477.2,3.0943c-.1905-.5537-.3567-1.1074-.4937-1.6514-.0474-.188-.0729-.3794-.1151-.5679Q147.5644,215.8854,147.7665,215.4469Zm-6.2919-46.9252c.6769-.64,1.3723-1.2579,2.0573-1.8877-.8358.8637-1.6762,1.7236-2.5422,2.5586-1.2875,1.2412-2.6114,2.4423-3.95,3.6269Q139.2356,170.6493,141.4746,168.5217ZM126.599,221.3053c-.0437.3609-.0909.7212-.1264,1.0831-.2286-.4053-.4675-.8038-.7-1.2071A.9138.9138,0,0,1,126.599,221.3053Zm-3.1163,9.9576c-.0071.1108-.02.2221-.0235.3325-.4778-.87-.9619-1.7368-1.4357-2.6094C122.5064,229.7472,122.9976,230.5031,123.4827,231.2629Zm-14.5843-63.2666a1.8357,1.8357,0,0,0-1.0134.582c-.0488.0293-.0987.0557-.1474.085-.0828.0493-.1527.1015-.2233.1533a2.3636,2.3636,0,0,0-.7491-.3648q1.4541-.45,2.9085-.9013C109.4147,167.6979,109.1575,167.8488,108.8984,167.9963Zm-6.2352,53.6645a2.7561,2.7561,0,0,0-.4378.0474c-.3706-1.2383-.74-2.4776-1.1326-3.7095a1.4651,1.4651,0,0,0-.4236-.627c-.2247-.6752-.4488-1.35-.6677-2.0268-.0145-.083-.0275-.166-.042-.249C100.8382,217.2931,101.7537,219.4758,102.6632,221.6608ZM93.9179,163.15a2.3323,2.3323,0,0,0-.8449-.0571c-.086-.34-.1837-.6773-.2676-1.0181C93.1865,162.424,93.5438,162.7941,93.9179,163.15Zm-2.746,46.5351c-.018,1.2339-.0024,2.4663.0585,3.6978-.0771-.5054-.1585-1.01-.2316-1.5166-.0394-1.5747-.0657-3.15-.1075-4.7246C90.98,207.99,91.0777,208.8371,91.1719,209.6847ZM87.485,161.5534a1.7836,1.7836,0,0,0-.3694.2153c-.01-.45-.0241-.9-.0287-1.3511C87.2167,160.797,87.354,161.174,87.485,161.5534ZM86.226,320.4469c.0042-.2827.0063-.5654.01-.8481a2.54,2.54,0,0,0,1.297.2729,1.8726,1.8726,0,0,0,.4069.4C87.369,320.3312,86.7971,320.3859,86.226,320.4469ZM89.44,317.44l.001-.1753q2.2248-.1,4.45-.24C92.4064,317.1618,90.9222,317.2926,89.44,317.44Zm4.1046-6.7373a1.3993,1.3993,0,0,0,.798-1.3091l-.0168-.7055c.0694.68.14,1.3589.2037,2.039Q94.0366,310.7143,93.5441,310.7023Zm2.3465-153.8891c.1825-.044.3644-.0914.5475-.1329a1.9583,1.9583,0,0,0,.7851.1529l.9591-.0371c-.6522.17-1.3011.3525-1.9522.5263Q96.06,157.0676,95.8906,156.8132Zm33.95,149.0874c.2486-.0684.4958-.1421.7437-.2129l2.3547.2241C131.9053,305.8971,130.8732,305.9064,129.84,305.9006Zm17.1458-6.5616c-.0373-.1806-.0743-.3618-.1139-.542a1.3521,1.3521,0,0,0,.1764-1.9506l.2449-.1c.0405.3038.0781.608.119.9117a1.6291,1.6291,0,0,0,.657,1.0942l.0048.0825a1.5512,1.5512,0,0,0,.6158,1.1353C148.1217,299.7609,147.5568,299.5412,146.986,299.339Zm17.6408,14.9634c-1.1017-.2773-2.2061-.5288-3.3125-.7617a2.4,2.4,0,0,0,.6927-.2261,2.6782,2.6782,0,0,0,2.8518-.0542c.0226.38.0426.7613.0669,1.1421A2.4631,2.4631,0,0,0,164.6268,314.3024Z"/><path class="cls-5" d="M107.3137,160.3625a1.4826,1.4826,0,0,0-.5858-1.1314,2.2866,2.2866,0,0,0-1.4142-.4682,2.749,2.749,0,0,0-.6029.0918,3.318,3.318,0,0,0-.675-.1241,100.57,100.57,0,0,0-10.1629-.3037,2.1305,2.1305,0,0,0-1.9222,1.1338,1.386,1.386,0,0,0-.794,1.2534l.3071,8.8448a1.4175,1.4175,0,0,0,.235.7246,1.329,1.329,0,0,0-.0391.2915,1.8591,1.8591,0,0,0,2,1.6l10.8332-.4439a2.1035,2.1035,0,0,0,.65.0918,1.8836,1.8836,0,0,0,2-1.6,36.2181,36.2181,0,0,0-.1356-7.1411Q107.16,161.7722,107.3137,160.3625ZM102.168,164.24c.1962-.1279.3933-.2554.5871-.3843a1.1786,1.1786,0,0,0,.1967-.1675l-.1224,1.125A1.7549,1.7549,0,0,0,102.168,164.24Zm-2.2268,4.0371a3.8953,3.8953,0,0,0,.506.5186l-2.3073.0947A11.2384,11.2384,0,0,0,99.9412,168.2775Zm-4.5277-.0654a1.9865,1.9865,0,0,0,1.0678.7471l-1.04.0424Z"/><path class="cls-5" d="M134.5513,161.5212c-.0574-.458-.1221-.9151-.1985-1.3706a2.955,2.955,0,0,0-.1025-.4229,1.2708,1.2708,0,0,0,.1179-.5059c0-1.0883-1.1082-1.5117-2-1.6a75.19,75.19,0,0,0-12.6131-.1884,2.9671,2.9671,0,0,0-1.0983.2934c-.7707.1656-1.5616.67-1.5394,1.5362q.1386,5.4213.2771,10.8432c.0007.0269.01.0513.0122.0777a1.2256,1.2256,0,0,0-.5316,1.0727,1.86,1.86,0,0,0,2,1.6q5.1969-.4571,10.3938-.9135a2.641,2.641,0,0,0,1.6991-.7457,2.2485,2.2485,0,0,0,1.68.73,1.8786,1.8786,0,0,0,2-1.6l.4179-7.7431A1.3014,1.3014,0,0,0,134.5513,161.5212Zm-4.3989.8247a1.2647,1.2647,0,0,0-.027-.4317,2.2365,2.2365,0,0,0,.4161-.3833q.0618.4893.1095.9805A1.988,1.988,0,0,0,130.1524,162.3459Z"/><path class="cls-5" d="M159.3654,158.38c.0975-.9893-1.1708-1.63-2-1.6a2.8426,2.8426,0,0,0-.33.0327,2.4338,2.4338,0,0,0-1.975-.439c-1.3117.2861-2.62.5874-3.9288.8867-2.1346-.0752-4.2706-.0937-6.4058-.0215a1.9283,1.9283,0,0,0-.37-.0244,2.291,2.291,0,0,0-1.3742.4414,1.3171,1.3171,0,0,0-.68,1.19,1.465,1.465,0,0,0,.1277.501,68.9336,68.9336,0,0,1,.718,8.5454,1.3545,1.3545,0,0,0,.0673.3852,1.1964,1.1964,0,0,0-.2451.7686c.06,1.0693,1.0584,1.5351,2,1.6a36.1761,36.1761,0,0,0,10.5578-.8482,1.9651,1.9651,0,0,0,1.8256,1.0215c.8158-.0293,2.1-.5634,2-1.6A55.9467,55.9467,0,0,1,159.3654,158.38Z"/><path class="cls-5" d="M107.8215,185.3649a1.8721,1.8721,0,0,0-2-1.6,2.6349,2.6349,0,0,0-.31.0327,2.2654,2.2654,0,0,0-1.2429-.36q-6.192.1692-12.3839.3379c-.9.0249-2,.5673-2,1.6a1.6974,1.6974,0,0,0,1.3884,1.519q.1863,4.0846.3725,8.1694a1.3249,1.3249,0,0,0-.2132.7007c0,1.0923,1.1088,1.5059,2,1.6a69.02,69.02,0,0,0,11.945.2173,2.4578,2.4578,0,0,0,1.6861-.75c.7434-.1836,1.5238-.6841,1.4646-1.5166Q108.1751,190.34,107.8215,185.3649Zm-3.8848,3.3506a2.95,2.95,0,0,0-.1557-.3066,1.288,1.288,0,0,0-.1505-.1939,1.48,1.48,0,0,0,.251-.6885c.0295-.0254.0607-.05.0881-.0771l.0913,1.2856C104.0194,188.7287,103.9786,188.7194,103.9367,188.7155Z"/><path class="cls-5" d="M134.48,193.5558q-.2462-3.98-.0944-7.9687a1.6862,1.6862,0,0,0-1.4272-1.5283,2.0374,2.0374,0,0,0-1.9215-1.1709q-6.5379.0249-13.0531.6294a2.2887,2.2887,0,0,0-1.8478.9878c-.756.1743-1.6129.6811-1.52,1.5283a43.512,43.512,0,0,0,1.6765,8.1582,1.4434,1.4434,0,0,0,.49.6875,1.2792,1.2792,0,0,0-.0485.9248,2.1347,2.1347,0,0,0,2.46,1.1177,54.261,54.261,0,0,1,7.5653-.6294c1.966-.0279,4.6754.3305,6.1687-1.1988C133.6973,194.9294,134.5335,194.4225,134.48,193.5558Zm-5.5794-.455c.0246-.0508.0507-.1016.07-.1514q.4144-.1882.8148-.4072a1.8371,1.8371,0,0,1,.06.2129c-.0472-.2022.034.1088.0231.1782-.0122.0473-.0218.0825-.0308.1152-.0946.0161-.1977.03-.26.0376Q129.2394,193.1052,128.9005,193.1008Z"/><path class="cls-5" d="M158.1658,182.9572c-.0522-1.605-2.0288-1.8911-3.2084-1.2227-.1554-.0029-.3109-.0048-.4662-.0083l-1.4812-.0307-3.0857-.0645q-3.024-.0637-6.0481-.1269c-.9005-.0186-2,.5976-2,1.6a1.3516,1.3516,0,0,0,.462,1.0112,1.67,1.67,0,0,0-.0311.8047c.0354.1811.07.3623.1027.5439.0091.05.0176.1.0264.15l.0077.0489c.0478.3393.1018.6777.1441,1.018q.1219.9807.1813,1.9683a31.4281,31.4281,0,0,1-.022,4.0308,1.3613,1.3613,0,0,0,.698,1.208,1.9494,1.9494,0,0,0,1.9673,1.41,35.5192,35.5192,0,0,0,10.0933-.6992c1.163.3169,2.71-.1772,2.7338-1.4922Q158.3308,188.0317,158.1658,182.9572Zm-5.3053,4.93c.0278.0786.0593.1562.0836.2358.0843.2769.1449.5606.2073.8438q-.3928-.3224-.7858-.6441C152.5315,188.1789,152.6927,188.03,152.8605,187.8874Zm-1.9488-3.0362.0342,0q-.7036.5736-1.3919,1.1665-.0656-.0534-.1311-.1074a1.941,1.941,0,0,0-.8557-.6514,2.3746,2.3746,0,0,0-2.2246-.0688c-.0239-.1455-.04-.291-.0651-.436Z"/><path class="cls-5" d="M106.741,209.7887a1.8816,1.8816,0,0,0-2-1.6q-6.0491-.2028-12.0994.0523a2.0693,2.0693,0,0,0-.8108-.1362c-.7731.0278-2.1512.57-2,1.6q.6974,4.75,1.3947,9.5014c.008.0547.026.104.0382.1563a1.2835,1.2835,0,0,0-.2249.4321,1.631,1.631,0,0,0,1.3969,1.9683A30.1174,30.1174,0,0,0,104.13,221.59a2.0378,2.0378,0,0,0,.47-.1743,2.0566,2.0566,0,0,0,.4945.0508c.868-.0313,2.0365-.5576,2-1.6Q106.9176,214.8273,106.741,209.7887Z"/><path class="cls-5" d="M135.2261,217.0905c-.0114-.0659-.0309-.1313-.0432-.1973a50.8093,50.8093,0,0,1-.1375-6.7534c.047-.9922-1.1341-1.6308-2-1.6a2.4962,2.4962,0,0,0-1.3481.4331q-7.0766-.1179-14.1532-.2363c-.9-.0152-2,.5947-2,1.6a1.3755,1.3755,0,0,0,.5461,1.0815c.1657.7.3218,1.4009.4565,2.107.0339.1777.0668.3549.0987.5332-.0017-.01.0446.2588.0562.3227q.0927.5618.17,1.1255.3163,2.2823.4116,4.5874a1.692,1.692,0,0,0,1.1912,1.4595,2.19,2.19,0,0,0,1.4964.5547,78.3073,78.3073,0,0,0,11.8009-1.37,5.0974,5.0974,0,0,0,2.785-1.1A2.7437,2.7437,0,0,0,135.2261,217.0905Z"/><path class="cls-5" d="M159.07,217.922a1.4948,1.4948,0,0,0-.1119-.2324,1.0125,1.0125,0,0,0,.0541-.456q-.5641-4.5257-.7351-9.086a1.8657,1.8657,0,0,0-2-1.6,2.7536,2.7536,0,0,0-1.0075.2388,3.5158,3.5158,0,0,0-2.54-.3979,2.2778,2.2778,0,0,0-.9295.4667c-.107.01-.2138.022-.3208.0328a1.9,1.9,0,0,0-.7547-.1079l-6.1934.4438a2.4325,2.4325,0,0,0-1.4142.4688,1.7644,1.7644,0,0,0-.306.3374,1.5755,1.5755,0,0,0-1.136,1.8808q.2617,1.1141.4756,2.2388.0487.2592.0949.5195c-.0012-.0068.0429.2549.0536.3159q.0875.5413.1633,1.085.3085,2.2236.4138,4.4687a1.487,1.487,0,0,0,.37.9,1.2607,1.2607,0,0,0,.0073.7544,2.1444,2.1444,0,0,0,2.46,1.1177q5.98-.71,11.96-1.42A1.6215,1.6215,0,0,0,159.07,217.922Z"/><path class="cls-5" d="M103.6055,236.132a3.4013,3.4013,0,0,0-.7318.0215c-.2625.0361-.5251.0718-.7884.1016q-.2091.0249-.0329.0029-.1695.0168-.3392.0312-.7355.063-1.4734.0909-1.4186.0534-2.8379-.0235a27.4223,27.4223,0,0,1-4.5259-.647,2.0868,2.0868,0,0,0-.2844-.166,2.4475,2.4475,0,0,0-1.5411-.1611,2.2577,2.2577,0,0,0-.9693.5171,1.5311,1.5311,0,0,0-.5483.7256,1.28,1.28,0,0,0,.2532,1.2754c.2641,1.0634.5047,2.1328.7054,3.2109.0338.1816.065.3633.0971.5454a.7824.7824,0,0,0-.025.3325q.3827,2.4749.7653,4.95c-.01.0254-.0258.0454-.0348.0723a1.3886,1.3886,0,0,0,.27,1.3047,1.4416,1.4416,0,0,0,.5077.77,2.2835,2.2835,0,0,0,1.4142.4687,2.3692,2.3692,0,0,0,1.2928-.3862,45.5877,45.5877,0,0,0,10.0009-.2881,1.731,1.731,0,0,0,1.447-1.4619,1.5175,1.5175,0,0,0,1.1512-1.4463V236.904C107.3779,235.092,104.4445,234.8351,103.6055,236.132Z"/><path class="cls-5" d="M135.0127,243.9831q-.1554-4.6473-.311-9.2949a1.8025,1.8025,0,0,0-1.6655-1.5826,2.1724,2.1724,0,0,0-.9-.1787q-6.52.2366-13.0454.291c-.9.0079-2,.5791-2,1.6,0,.0152.0053.0279.0058.0425a1.4724,1.4724,0,0,0-.5829,1.5811q.2308,1.0107.4294,2.0293.091.4695.1746.9414c.0066.0366.04.2275.0493.2812q.0393.2365.0765.4737c.1936,1.2334.3431,2.4736.4608,3.7168.01.6484.0317,1.2978.0847,1.9482a1.7459,1.7459,0,0,0,1.4683,1.543,14.0847,14.0847,0,0,0,2.3595.081,1.8327,1.8327,0,0,0,.7934.1231l9.7471-.8951c.732-.0668,1.9586-.4829,1.9939-1.4106A1.414,1.414,0,0,0,135.0127,243.9831Z"/><path class="cls-5" d="M159.3215,233.59a1.8774,1.8774,0,0,0-2-1.6,2.5411,2.5411,0,0,0-.4223.0576q-4.09.0081-8.1639.4082a2.5555,2.5555,0,0,0-1.3631.4361q-.3057-.0117-.6113-.0171c-.5845-.0127-1.17-.0137-1.7558.0073a2.7213,2.7213,0,0,0-.9351.2109c-.8565.0337-2.0428.5606-1.9932,1.6a64.5763,64.5763,0,0,0,1.2239,9.708.79.79,0,0,0,.0752.1718,1.6734,1.6734,0,0,0,1.4394,1.4971c.1775.0254.3546.04.5318.0571v.0005l.002-.0005a31.053,31.053,0,0,0,5.9935-.2861q3.2281-.315,6.4566-.6294c.8937-.0874,2-.5127,2-1.6Q159.8,238.591,159.3215,233.59Z"/><path class="cls-5" d="M106.0657,271.7873l-.0081-2.7007a22.3849,22.3849,0,0,0,.2933-6.9761,1.5781,1.5781,0,0,0-.5858-1.1313,2.2834,2.2834,0,0,0-1.4142-.4683,2.252,2.252,0,0,0-1.4142.4683c-.0155.0136-.0306.0317-.0462.0464q-4.7288-.0177-9.4574-.0362a2.4706,2.4706,0,0,0-1.2055.3408,2.43,2.43,0,0,0-1.3335-.0859,1.6508,1.6508,0,0,0-1.3969,1.9683,78.1134,78.1134,0,0,1,1.158,10.4057,1.8666,1.8666,0,0,0,2,1.6,2.6737,2.6737,0,0,0,1.3788-.4521,1.9912,1.9912,0,0,0,1.6112.6787l8.6272-.6567c.854-.065,2.0593-.5411,2-1.6a1.517,1.517,0,0,0-.335-.8472A1.2967,1.2967,0,0,0,106.0657,271.7873Z"/><path class="cls-5" d="M133.1276,261.6012c.0863-1.0141-1.1794-1.5991-2-1.6a106.2707,106.2707,0,0,0-14.2116.9576,2.55,2.55,0,0,0-1.3553.188,1.5682,1.5682,0,0,0-.9191,1.8066q.792,4.3864,1.5842,8.7725a1.4438,1.4438,0,0,0,.9385.9477,1.93,1.93,0,0,0,1.7107.8189q4.5226-.4674,9.0567-.8121a3.2287,3.2287,0,0,0,.6436-.12,5.2749,5.2749,0,0,0,1.9912.8941c.9294.1513,2.6343-.2491,2.5317-1.543A62.87,62.87,0,0,1,133.1276,261.6012Z"/><path class="cls-5" d="M159.42,266.527a38.2555,38.2555,0,0,0-.44-5.2846c-.2481-1.6309-2.1925-1.9673-3.4142-1.1314.2582-.1768-.0374-.0166-.1468.0562-.1141.0268-.3552.0971-.4039.1074-.0356.0073-.05.0117-.0737.0171-.0272,0-.0509-.0015-.0976-.001-.18.0029-.36.01-.54.0078-.87-.0112-1.7374-.1084-2.6076-.1289a31.093,31.093,0,0,0-5.696.4194c-.0166-.0141-.0268-.03-.0445-.0439a2.2839,2.2839,0,0,0-1.4143-.4688,2.2529,2.2529,0,0,0-1.4141.4688,1.4061,1.4061,0,0,0-.5859,1.1313q.7424,4.51,1.0824,9.0718a1.7889,1.7889,0,0,0,1.4953,1.5484,2.1581,2.1581,0,0,0,1.4936.55,40.6314,40.6314,0,0,0,5.5158-.5191,26.6745,26.6745,0,0,0,5.2418-1.2837,2.9962,2.9962,0,0,0,1.8957-1.9165A9.5676,9.5676,0,0,0,159.42,266.527Zm-11.38-.4087a1.7461,1.7461,0,0,0,.281.39c-.353.1924-.7.4009-1.0485.6084-.0434-.3946-.0786-.7891-.1266-1.1831C147.4443,265.9919,147.7415,266.0578,148.04,266.1183Z"/><path class="cls-5" d="M136.7372,290.3127c.1335-1.2661-1.6286-1.7285-2.5317-1.543a77.5812,77.5812,0,0,1-16.219,1.5791,1.7311,1.7311,0,0,0-1.8008,1.1147c-.057-.0009-.1137.0025-.1707.0015a2.2629,2.2629,0,0,0-.2784.0176l-.0247-.147a1.5685,1.5685,0,0,0-.5143-.706q-.2025-.1252-.4048-.25a2.3825,2.3825,0,0,0-1.0094-.2183h-1.3272a1.7984,1.7984,0,0,0-.7706.1377,1.6,1.6,0,0,0-.6436.3306,1.1889,1.1889,0,0,0-.4136.5151.9973.9973,0,0,0-.0811.1758,1.7426,1.7426,0,0,0-1.52,1.9629,123.7019,123.7019,0,0,1,1.8451,26.1264c-.0632,1.8545,3.0253,2.0855,3.816.6685.0444.001.0876.0073.1326.0054q9.1448-.3948,18.2894-.79c.0482-.0019.0974-.01.1462-.0141,1.195.79,3.4138.3886,3.2719-1.18A142.5074,142.5074,0,0,1,136.7372,290.3127Z"/><path class="cls-5" d="M153.5923,291.9372a2.8143,2.8143,0,0,0-.0859-.4146,2.6413,2.6413,0,0,0-.3876-.7456,3.6,3.6,0,0,0-.44-.4678,1.2935,1.2935,0,0,0-.1767-.1352,3.391,3.391,0,0,0-1.3639-.5791,3.6436,3.6436,0,0,0-.7916-.0645,4.049,4.049,0,0,0-.7843.1045,3.3937,3.3937,0,0,0-1.1287.5235,2.24,2.24,0,0,0-.4083.3769,1.86,1.86,0,0,0-.5408.4658,3.349,3.349,0,0,0-.2946.59,3.2825,3.2825,0,0,0-.118.6416,2.473,2.473,0,0,0,.1111.894,3.0065,3.0065,0,0,0,.4009.8223,1.72,1.72,0,0,0,.1584.2065,4.6417,4.6417,0,0,0,.4771.4834,3.517,3.517,0,0,0,2.2578.7925,3.291,3.291,0,0,0,2.0022-.6543,1.3456,1.3456,0,0,0,.167-.1377,2.9107,2.9107,0,0,0,.8962-1.4331,3.4554,3.4554,0,0,0,.1081-.8471A3.3982,3.3982,0,0,0,153.5923,291.9372Z"/><path class="cls-5" d="M100.9511,295.5451c-.0107-.0283-.0238-.0557-.037-.083a2.9928,2.9928,0,0,0-.2445-.4512,2.2256,2.2256,0,0,0-.2075-.2241,3.0484,3.0484,0,0,0-.2148-.2173.9163.9163,0,0,0-.0873-.063,4.534,4.534,0,0,0-.4641-.2827.9523.9523,0,0,0-.0873-.0381,5.1656,5.1656,0,0,0-.5559-.185c-.0308-.0083-.062-.0132-.0933-.0186a5.8811,5.8811,0,0,0-.599-.064.8933.8933,0,0,0-.1073.0015,5.0135,5.0135,0,0,0-.5974.0649c-.03.0059-.06.0127-.0892.0215a4.0627,4.0627,0,0,0-.55.1885.8509.8509,0,0,0-.0734.0439,5.2228,5.2228,0,0,0-.5421.0582c-.02.0043-.0383.0092-.0579.0141a2.9222,2.9222,0,0,0-.5324.1851c-.0714.0346-.2282.1406-.2284.1406a2.3092,2.3092,0,0,0-.239.1523,2.8661,2.8661,0,0,0-.3578.3663.7934.7934,0,0,0-.0658.0883,2.9327,2.9327,0,0,0-.23.44.7716.7716,0,0,0-.0329.1069,2.4991,2.4991,0,0,0-.08.5044.6384.6384,0,0,0,.0088.0986,1.9649,1.9649,0,0,0,.1444.6231,2.46,2.46,0,0,0,.3047.5273,3.7051,3.7051,0,0,0,.471.4746,2.894,2.894,0,0,0,.3058.1963l.1239.128.4047.25.4778.1611a1.8873,1.8873,0,0,0,.5392.0469,4.3359,4.3359,0,0,0,1.3516-.0142,3.8235,3.8235,0,0,0,.68-.2134,2.3148,2.3148,0,0,0,.4045-.2212,2.7623,2.7623,0,0,0,.7874-.6977,4.81,4.81,0,0,0,.3783-.7212,2.0784,2.0784,0,0,0,.1053-.7959A2.4663,2.4663,0,0,0,100.9511,295.5451Z"/><path class="cls-6" d="M316.02,268.2941c-.4389-4.041-1.611-8.063-5.6061-9.9815a2.2808,2.2808,0,0,0-2.09.0664,13.8982,13.8982,0,0,0,.3714-2.2461,9.6118,9.6118,0,0,0-1.3375-7.1157,12.3491,12.3491,0,0,0-1.4337-2.268,2.1333,2.1333,0,0,0-1.78-.6983,4.3091,4.3091,0,0,0-3.7019-1.0967,10.5785,10.5785,0,0,0-7.4353-2.1289c-1.0925.1162-2.2563.7285-1.9286,2.0254a2.0947,2.0947,0,0,1,.0548.6958,9.9737,9.9737,0,0,0-6.8338-.8965c-.4624.0918-.9181.2163-1.3708.354a12.1355,12.1355,0,0,0-9.8682,7.8438,15.2868,15.2868,0,0,0-.9335,4.8232,11.6584,11.6584,0,0,0,.3786,4.6045c.053.2823.1138.564.1757.8452-.0755-.0092-.1463-.0253-.2235-.0327a5.1442,5.1442,0,0,0-4.59,1.791,15.4646,15.4646,0,0,0-2.057,5.1319c-1.0631,3.666-1.2525,7.4853.3953,11.0132a14.3437,14.3437,0,0,0,7.3047,7.2046,15.4575,15.4575,0,0,0,12.4837-.2276,1.6429,1.6429,0,0,0,.9016-.9956,8.6213,8.6213,0,0,0,1.394.45,6.68,6.68,0,0,0,5.914,1.3535,15.6384,15.6384,0,0,0,4.146-.56,22.0607,22.0607,0,0,0,11.6185-7.2631q.8259-.57,1.6039-1.2056c.01-.0034.0212-.0049.0313-.0088a9.2059,9.2059,0,0,0,5.26-4.8559C317.8594,272.7326,317.8217,269.9323,316.02,268.2941Zm-34.7563,7.0815c-.2328-.57-.4688-1.1386-.6846-1.7163.1335.0308.2712.0415.4071.0611A10.2863,10.2863,0,0,1,281.2635,275.3756Zm4.5283,5.5557a7,7,0,0,0,.9055-.3179,5.5236,5.5236,0,0,0-.3973,1.3936A6.1714,6.1714,0,0,1,285.7918,280.9313Zm24.8573-14.9893.1856.5552c-.051.1592-.1129.3125-.1453.419-.0666.2182-.1531.43-.225.6464-.0506-.0464-.1052-.0883-.1563-.1342.101-.4888.1933-.981.2737-1.4766C310.6037,265.95,310.6277,265.943,310.6491,265.942Zm-24.4265,10.7764a4.662,4.662,0,0,1-.7533.7046,1.5228,1.5228,0,0,0-.2219-.4932c.01-.167.0295-.334.0324-.5014A1.9859,1.9859,0,0,0,286.2226,276.7184Zm-9.6413-1.7886a10.6372,10.6372,0,0,1-.84-2.65c.0147-.124.0266-.2485.0432-.372.0126.0112.0274.0195.04.03.2568.7949.538,1.5816.8269,2.3657a7.3519,7.3519,0,0,0,.0611.8663C276.6714,275.0885,276.6205,275.0123,276.5813,274.93Zm2.76,11.2842a9.1625,9.1625,0,0,0,2.8131-.58c.0423.0693.0854.1382.128.2075A10.1487,10.1487,0,0,1,279.3412,286.214Z"/><path class="cls-7" d="M319.0192,265.444a21.6781,21.6781,0,0,0-6.72-9.83,9.4225,9.4225,0,0,0,.205-1.6372c.1192-3.5952-2.1015-6.8633-4.8389-9.0039a19.1646,19.1646,0,0,0-20.3178-1.65,3.0813,3.0813,0,0,0-1.341-.4307c-5.6631-.5815-11.1336,2.6656-14.7428,6.8135a9.9588,9.9588,0,0,0-2.5258,7.7319,15.58,15.58,0,0,0,1.1192,4.1866,17.4561,17.4561,0,0,0-6.7959,8.5932,15.2938,15.2938,0,0,0-.9676,5.8672,10.8718,10.8718,0,0,0,2.2284,5.8169c2.3189,3.272,5.01,6.49,8.8818,7.916,4.0682,1.4986,8.5,1.14,12.66.2417.0242-.0054.0472-.0156.0713-.022a1.7737,1.7737,0,0,0,1.2432.918c4.3153,1.1441,8.6537.0405,12.74-1.435a53.5554,53.5554,0,0,0,11.71-5.4659,19.09,19.09,0,0,0,7.101-8.1889A15.15,15.15,0,0,0,319.0192,265.444Zm-6.1634,12.7876c-2.803,3.3984-6.9033,5.3476-10.9037,6.9643-4.2551,1.72-9.0531,3.9082-13.71,2.6739a2.1088,2.1088,0,0,0-1.089-.01,2.2227,2.2227,0,0,0-2.3522-.8862c-3.2265.6968-6.7967,1.1548-9.9617-.0635-3.11-1.1968-5.2-3.9951-7.0632-6.6235a7.9313,7.9313,0,0,1-1.6872-5.1158,13.4591,13.4591,0,0,1,.9608-4.4506,14.28,14.28,0,0,1,4.4189-5.9449c.1036.1724.2049.3462.3116.5166,1.0731,1.7144,4.72.4078,3.4539-1.6152a15.6462,15.6462,0,0,1-2.496-6.2388,7.5287,7.5287,0,0,1,1.98-6.1167c2.7849-3.2041,6.94-5.6753,11.2888-5.229a1.839,1.839,0,0,0,.94-.1792,2.0706,2.0706,0,0,0,2.2915.2369,14.4443,14.4443,0,0,1,15.5991,1.0859c2.1756,1.7056,3.8944,4.227,3.647,7.0981-.2664,3.0933-2.6317,5.6753-4.5814,7.898-.6625.7549-.0512,1.8252.7174,2.1889a2.3249,2.3249,0,0,0,2.7364-.5737,30.3016,30.3016,0,0,0,3.5117-4.6426,17.8887,17.8887,0,0,1,4.5921,8.1607A12.2923,12.2923,0,0,1,312.8558,278.2316Z"/><path class="cls-8" d="M299.93,315.6832c-.3619-1.8354-.6857-3.6772-1.008-5.5195a119.5666,119.5666,0,0,1-1.41-23.6328c.6864-2.7339,1.413-5.4575,2.2-8.1655a1.3663,1.3663,0,0,0-.5473-1.5728c.01-.0376.0188-.0757.0291-.1133.5937-2.1743-3.1506-2.7514-3.8571-.8506a77.2841,77.2841,0,0,0-2.8475,9.6573,1.4582,1.4582,0,0,0-.6242,1.1855q-.0113.4255-.0223.8521a2.5986,2.5986,0,0,0-2.3611-.1812,2.5722,2.5722,0,0,0-1.3467-.4179c-.5352-1.4654-1.0892-2.9239-1.6757-4.3707a1.8883,1.8883,0,0,0-1.5086-1.0932c-.427-.8755-.8786-1.7407-1.3393-2.6016l-.02-.0473-.004.0014c-.0679-.1269-.1289-.2568-.1976-.3833-.8319-1.5322-4.4663-.64-3.6556,1.2329a97.6462,97.6462,0,0,1,3.9085,10.7178q.5555,7.7036,1.1109,15.4063a1.486,1.486,0,0,0,.1732.5883c.0984,2.8531.1633,5.708.2222,8.5611.0371,1.7964,2.8775,2.0639,3.7447.8042a2.2237,2.2237,0,0,0,2.1867-.711,1.5553,1.5553,0,0,0,.4691.55c.3791,1.8062,3.5656,1.8848,3.9225.0938a2.67,2.67,0,0,0,.404-.1548c.0683.3384.1259.6777.197,1.0156C296.4913,318.52,300.3625,317.8771,299.93,315.6832Z"/></g></svg>