<svg xmlns="http://www.w3.org/2000/svg" viewBox="0 0 400 400"><defs><style>.cls-1{fill:#f2f2f2;}.cls-2{fill:#333;}.cls-3{fill:#fbddeb;}.cls-4{fill:#e6e6e6;}.cls-5{fill:#1a1a1a;}</style></defs><g id="Graphics"><path class="cls-1" d="M195.6631,303.2408a4.52,4.52,0,0,0-1.6006-2.3257c2.5332-6.5522-1.8224-13.3979-5.85-18.3559-2.1489-2.6455-4.4893-5.311-5.9461-8.4224a13.4734,13.4734,0,0,1-1.3392-4.7466c-.1128-1.6347.1065-3.268.125-4.9023a9.3982,9.3982,0,0,0-.925-4.62,8.1207,8.1207,0,0,0-3.726-3.231,8.38,8.38,0,0,1-3.5187-2.7724,13.6838,13.6838,0,0,1-1.7145-4.2334,109.011,109.011,0,0,1-2.0414-11.5845q-.9155-6.2879-1.5161-12.6167a256.9654,256.9654,0,0,1-1.1059-27.7578c3.2177-.9917,6.7274-.6612,9.9722-1.58,3.0237-.8555,6.0506-2.9024,7.2373-5.9229a6.0746,6.0746,0,0,0-2.5295-7.3115,11.3544,11.3544,0,0,0-4.4459-1.5884c.0295-.1709.06-.3423.0741-.5127.1914-2.3086-1.6253-4.1054-3.6237-4.92a12.7825,12.7825,0,0,0-2.3686-.685,16.43,16.43,0,0,1,.07-2.4956,2.8986,2.8986,0,0,0,.6124-.3008c2.2211-1.46,5.6117-4.3159,4.1972-7.3506a3.68,3.68,0,0,0-2.0044-1.7691c2.6711-8.081,5.4744-16.1411,7.9086-24.2915a8.4138,8.4138,0,0,0,.1054-5.791,8.5727,8.5727,0,0,0-3.422-3.6792,51.4735,51.4735,0,0,0-11.6955-4.9829,14.8481,14.8481,0,0,0-1.3225-5.0527,30.1206,30.1206,0,0,0-2.0329-3.3931,6.0255,6.0255,0,0,1-.717-1.4346,1.7274,1.7274,0,0,1-.0947-.7128l5.9981-.5318a2.6835,2.6835,0,0,0,1.2451-.3594c.014,0,.0279.0025.0419.002.8372-.03,2.0736-.5606,2-1.6q-.3642-5.14-.7282-10.2808a1.8722,1.8722,0,0,0-2-1.6,2.7909,2.7909,0,0,0-1.1118.2954c-.0382,0-.078-.0063-.1155-.0034-2.6695.2-5.3414.355-8.0142.49q-.3243-3.408-.6485-6.8159a1.8282,1.8282,0,0,0-1.6217-1.5777.825.825,0,0,0-.0658-.103q-3.0568-3.2594-5.8013-6.7905a2.2934,2.2934,0,0,0-2.2851-.7344,2.0836,2.0836,0,0,0-2.2551,1.1416c-.0409.0986-.0825.1968-.1276.2939l-.0072.0147a2.9311,2.9311,0,0,0-.2815.48,9.7836,9.7836,0,0,1-.7345.9741c-.1272.15-.2583.2964-.3916.4409a1.4938,1.4938,0,0,0-.1745.1851c-.2924.2959-.5914.5854-.8895.8759a14.5487,14.5487,0,0,0-3.3951,4.3423,1.2508,1.2508,0,0,0,.052.9639.9758.9758,0,0,0-.0067.165q.437,3.3186.8739,6.6372c-3.2435.0079-6.4872-.02-9.7306-.1005a1.8636,1.8636,0,0,0-2,1.6,1.2612,1.2612,0,0,0,.128.5586,1.5237,1.5237,0,0,0-.1611.58,61.0525,61.0525,0,0,0,.1184,9.6172,1.621,1.621,0,0,0,.3705.8853c.013.0644.022.1289.0356.1933a1.7141,1.7141,0,0,0,.9191.9561,2.45,2.45,0,0,0,1.5411.1616c.0235-.0063.0443-.0161.0675-.0229a2.0719,2.0719,0,0,0,.9671.2036q3.0822-.1283,6.1646-.2559a5.99,5.99,0,0,1-.81,1.8975c-.744,1.1748-1.657,2.23-2.4884,3.3408-1.1621,1.5537-2.4776,3.7852-2.3169,5.7817-2.6708,1.1734-5.67,1.4517-8.33,2.6885a7.7213,7.7213,0,0,0-4.5658,9.0386,20.8951,20.8951,0,0,0,2.6854,5.8725,55.2339,55.2339,0,0,1,3.2047,5.9786,42.6817,42.6817,0,0,1,3.3474,12.6831,7.0511,7.0511,0,0,0-.7378.2109,5.1347,5.1347,0,0,0-2.68,2.16,4,4,0,0,0-.3178,3.6284,5.2612,5.2612,0,0,0,2.69,2.6548,6.0866,6.0866,0,0,0,1.7656.4731,12.24,12.24,0,0,0,.3591,3.686,6.8021,6.8021,0,0,0-3.9158,2.7583,6.8871,6.8871,0,0,0-1.059,2.5962,10.2114,10.2114,0,0,0-3.9222.7452,6.11,6.11,0,0,0-3.7829,5.0947,7.8945,7.8945,0,0,0,2.15,5.8135,12.6841,12.6841,0,0,0,6.5142,3.4482,56.2332,56.2332,0,0,0,6.7023,1.0337,1.6635,1.6635,0,0,0,.0105.1909,131.6323,131.6323,0,0,1-.7274,47.5459c-.8016,4-1.8031,7.9556-2.9682,11.8648a10.3754,10.3754,0,0,0-6.8179,6.8535c-1.4038,4.0683-.6742,8.4262-1.3759,12.6a11.0075,11.0075,0,0,1-2.0054,5.01c-1.24,1.5782-3.2,2.3487-4.8187,3.4571a15.7082,15.7082,0,0,0-5.8582,7.9189,15.9854,15.9854,0,0,0-.224,9.5972,8.7807,8.7807,0,0,0-2.2969,8.75,9.0382,9.0382,0,0,0,4.7165,5.28,1.7561,1.7561,0,0,0,1.4563,1.5019c.0547.0108.11.02.1644.03a1.826,1.826,0,0,0,1.6567.8135,2.105,2.105,0,0,0,1.13-.3,169.1261,169.1261,0,0,0,54.4662.7231c4.6924-.7026,9.3476-1.625,13.9612-2.7285a2.4755,2.4755,0,0,0,2.0664.5063,10.8315,10.8315,0,0,0,8.1791-7.5151A9.8032,9.8032,0,0,0,195.6631,303.2408ZM178.18,135.0826a4.774,4.774,0,0,1,.038.7959,12.2056,12.2056,0,0,0-1.6807-3.393A4.0979,4.0979,0,0,1,178.18,135.0826Zm-46.6812-1.6841a3.8115,3.8115,0,0,0-1.2552.5567,6.1746,6.1746,0,0,1,1.3277-1.0615C131.54,133.0611,131.5164,133.2291,131.4987,133.3985Zm3.6953,51.37a8.9229,8.9229,0,0,1-.3895-1.7642,2.02,2.02,0,0,1,.4591,1.2627A1.9435,1.9435,0,0,1,135.194,184.7682Zm-6.6561,117.9951a1.8988,1.8988,0,0,0,1.3344,1.1089q-.8971.1207-1.7958.228a1.235,1.235,0,0,0-.1862-.3667C128.1,303.4059,128.3225,303.087,128.5379,302.7633Zm44.1456-42.7774a8.2142,8.2142,0,0,1,.5495,1.0957,2.9433,2.9433,0,0,0-.6577.0372Q172.6478,260.5526,172.6835,259.9859ZM161.0593,119.609a11.4421,11.4421,0,0,1,1.2872,3.375c-.1166-.3145-.2154-.6318-.3465-.9448a29.2978,29.2978,0,0,0-2.4211-4.5616c-.0034-.08-.0064-.16-.01-.24C160.0453,118.0377,160.5985,118.8219,161.0593,119.609Zm-14.43,104.5137c-.03.2016-.0663.4-.0889.6049-.1913-.8559-.3863-1.7109-.5751-2.5673C146.182,222.816,146.4064,223.4693,146.6293,224.1227Z"/><path class="cls-2" d="M262.6575,161.5362c.0192.02.0629.0567.1236.1065l-.0034-.0044C262.7379,161.6041,262.6969,161.5709,262.6575,161.5362Z"/><path class="cls-2" d="M264.672,174.76c.007.0141.0137.0273.0206.04l-.01-.022Z"/><path class="cls-2" d="M263.3485,173.4132c.1772.165.1079.0815,0,0Z"/><path class="cls-2" d="M246.9277,116.1085c-.0252-.0059-.025-.0054,0,0Z"/><path d="M209.4474,313.8439c.1158.0971.239.1821.3564.2763a32.8554,32.8554,0,0,1,3.7692.9136c5.7.0532,11.3941.1113,17.1041-.0591,14.2315-.4238,28.62,1.3262,42.7822-.5283,6.1775-.8086,12.287-2.0762,18.41-3.2305.1967-.0732.3969-.1357.5932-.21a14.0616,14.0616,0,0,0,1.2325-.9649,11.4858,11.4858,0,0,1-1.076.9092q2.2892-.8723,4.5391-1.8574a2.2723,2.2723,0,0,1,1.9089-.0078,10.494,10.494,0,0,0,1.2-3.6226,1.8219,1.8219,0,0,0,1.1218-1.71,10.793,10.793,0,0,0-.1577-1.3955c-.0348-.2471-.0744-.4942-.1162-.7413a1.445,1.445,0,0,0,.2708-.3022,1.3861,1.3861,0,0,0-.3193-1.9111,2.7243,2.7243,0,0,0-.6757-1.6914,4.1421,4.1421,0,0,0-2.1356-1.209c-.0712-.02-.1452-.0381-.2178-.06a4.955,4.955,0,0,0-.8339-.4209,2.5949,2.5949,0,0,0-2.0136.0044c-.0432-.042-.0755-.084-.1254-.1255a49.3459,49.3459,0,0,1-7.82-8.1953,23.7623,23.7623,0,0,1-6.0032-8.1616,36.6061,36.6061,0,0,1-3.418-12.6377,49.0191,49.0191,0,0,1-.9658-7.856,1.4418,1.4418,0,0,0-.2325-.7368c-.0033-.4194-.006-.8374-.0086-1.251a1.5636,1.5636,0,0,0-1.2675-1.4848,1.2865,1.2865,0,0,0-.4022-.2447q-2.8073-.9675-5.6144-1.934l-.0018-.0083a162.4013,162.4013,0,0,1-8.4511-49.4268c-.056-4.0454.0527-8.09.2969-12.1274,1.4124-.2339,2.8161-.6255,4.1494-.9336q2.2951-.531,4.59-1.0615a16.3953,16.3953,0,0,0,3.9755-1.2935c2.278-1.2041,4.2375-3.7,3.3656-6.4019-.7686-2.3818-3.5164-4.2329-5.7334-5.11a11.3723,11.3723,0,0,0-2.6053-.6875,5.2746,5.2746,0,0,0-.32-2.2793,7.1319,7.1319,0,0,0-4.0476-3.815q-.0988-.5323-.1977-1.0649c.0477-.0073.0979-.01.1436-.0195a5.2792,5.2792,0,0,0,3.5189-7.5977,8.8515,8.8515,0,0,0-1.4586-2.1616,3.29,3.29,0,0,1-1.1141-1.917,10.5266,10.5266,0,0,1,.312-3.2427c.0193-.0346.0445-.0634.0614-.1l10.5546-22.7231a1.1288,1.1288,0,0,0-.36-1.4634c.17-.2466.3379-.4956.51-.74a1.2792,1.2792,0,0,0,.2164-1.2539,1.3025,1.3025,0,0,0-.06-1.4688c-.4617-.6641-.8985-1.3452-1.3046-2.0449q-.2461-.4241-.4767-.8574c-.0373-.0743-.1672-.3262-.1851-.3619q-.1356-.2717-.2654-.5459a29.3984,29.3984,0,0,1-1.659-4.393,1.9969,1.9969,0,0,0-2.0433-1.1734c-1.3826-.3149-3.13.4419-2.5031,1.8609.2643.5976.33,1.6138-.3794,1.9892.0289-.0156-.0962.1-.3375-.06a1.5732,1.5732,0,0,1-.6495-1.1318c-.3135-1.5547-3.5726-1.5821-3.8572,0-.3278,1.8222-1.6,3.6845-3.5734,3.9531-2.029.2763-3.7628-1.3628-4.3462-3.1738a1.8233,1.8233,0,0,0-1.531-1.1114,7.4982,7.4982,0,0,0-5.0587-6.2719,7.965,7.965,0,0,0-9.84,4.1709,7.1811,7.1811,0,0,0,.0907,5.7885,2.0415,2.0415,0,0,0,.1931.32,2.7114,2.7114,0,0,1-4.849-.5517c-.64-1.4492-3.3024-1.668-3.8571,0-.5675,1.706-2.3266,1.8638-3.8658,1.5181-.4641-.1045-3.954-1.18-2.7046-2.1705,1.9717-1.5629-1.2116-3.5444-2.8284-2.2626-.0632.05-.1125.1093-.1712.1626a1.9233,1.9233,0,0,0-1.8107.7695l-4.008,6.8388c-.9739.34-1.6261,1.1646-.8444,2.1338A58.5568,58.5568,0,0,1,226.66,160.4308a4.4768,4.4768,0,0,0-1.7638,1.1982,3.4756,3.4756,0,0,0-.8809,2.5337,4.42,4.42,0,0,0,1.27,2.6821,6.4264,6.4264,0,0,0,2.48,1.542,22.2262,22.2262,0,0,0,.2005,3.5869,6.9635,6.9635,0,0,0-3.8032,2.3755,6.143,6.143,0,0,0-1.1822,2.25,6.0177,6.0177,0,0,0-.1561.7828c-2.6494.6015-5.47,1.53-6.8662,4.0346a5.2851,5.2851,0,0,0-.6353,3.7681,5.18,5.18,0,0,0,2.7457,3.21,36.33,36.33,0,0,0,8.6463,3.0533c1.5131.3867,3.0431.6938,4.5829.94a223.9407,223.9407,0,0,1-2.7,47.9644c-.75,4.5107-1.6576,8.9941-2.6862,13.4492-.0637.0361-.1289.0693-.19.1113a29.25,29.25,0,0,0-4.2067,3.5733c-1.1164-.146-2.3478.375-2.2725,1.5566a69.9742,69.9742,0,0,1-8.4568,38.0679,2.7488,2.7488,0,0,0-1.3646.0649c-3.3657.3247-5.4138,4.0244-5.2385,7.24C204.3885,308.2086,206.6062,311.4625,209.4474,313.8439Z"/><path class="cls-3" d="M173.8587,170.9571c.2167-.0634.13-.0693,0,0Z"/><path class="cls-3" d="M172.865,171.1656l.0082-.0014-.0282.0024h.0052Z"/><path class="cls-4" d="M170.31,177.74c-.1252-.0107-.2256-.0048.1184.0166l-.0332-.0058C170.3668,177.7491,170.3385,177.7433,170.31,177.74Z"/><path class="cls-4" d="M195.99,300.6153a1.52,1.52,0,0,0,.6386-1.1176c.6243-7.562-2.4611-14.4756-7.7814-19.7193a20.5184,20.5184,0,0,1-3.3764-3.87,12.094,12.094,0,0,1-1.3445-5.4394c-.2752-3.6714-.7954-6.99-2.607-10.2486a19.3694,19.3694,0,0,0-6.6419-6.917,1.65,1.65,0,0,0-.0316-.2788,246.9987,246.9987,0,0,1-6.2052-53.1274,20.1183,20.1183,0,0,0,12.3908-3.3433c1.9752-1.3232,4.0575-3.2124,4.5531-5.644a9.0271,9.0271,0,0,0-2.2261-7.3032,8.7265,8.7265,0,0,0-5.2026-3.4214A8.1547,8.1547,0,0,0,176.43,177.4a9.0761,9.0761,0,0,0-3.7721-2.4038l.031-.1846a1.3829,1.3829,0,0,0-.0761-.4341c2.7528-.0751,5.6636-1.289,7.0175-3.7509a6.1719,6.1719,0,0,0,.6687-4.61,5.3436,5.3436,0,0,0-2.8469-3.2959,5.7883,5.7883,0,0,0-.8575-.3374c1.1088-3.97,2.3087-7.9126,3.6354-11.8144q1.0849-3.192,2.2673-6.3487a36.2642,36.2642,0,0,0,2.0949-6.4853,8.732,8.732,0,0,0-4.3146-9.5479,42.6175,42.6175,0,0,0-5.38-2.3955q-2.8237-1.1645-5.6474-2.3281a11.1645,11.1645,0,0,0-2.6357-5.3506c-.75-.9033-1.5612-1.7568-2.3234-2.6484a73.8433,73.8433,0,0,0,7.65-1.3452,1.9085,1.9085,0,0,0,1.4606-1.3623,1.2427,1.2427,0,0,0,.6687-1.1841q-.643-5.9547-.8176-11.9453a1.8639,1.8639,0,0,0-2-1.6,2.7049,2.7049,0,0,0-1.1851.3344,49.0768,49.0768,0,0,0-8.7591.5752c-.0963-.42-.198-.8384-.28-1.2607q-.0448-.2322-.0868-.4654c-.0144-.0795-.0282-.1591-.042-.2387l-.0058-.0362c-.05-.3383-.1039-.6762-.1488-1.0151a38.096,38.096,0,0,1-.3146-4.09,1.5209,1.5209,0,0,0-.6885-1.1993c-.024-.0234-.0419-.0493-.0675-.0722q-4.0159-3.6108-8.032-7.2227a2.3265,2.3265,0,0,0-2.8284,0,1.6812,1.6812,0,0,0-.4478.6143,2.57,2.57,0,0,0-1.2779.7407q-1.6744,1.7417-3.3487,3.4829a21.8227,21.8227,0,0,0-3.1845,3.4741c-.8613,1.4366-.551,2.96-.3887,4.5381q.1814,1.7629.3626,3.5249l-9.2713.4321c-.012.0005-.0247.0035-.0368.004-1.1812-.3594-2.7812.1279-2.765,1.47a73.0623,73.0623,0,0,0,1.2572,12.4619,1.1824,1.1824,0,0,0-.0454.9424,2.158,2.158,0,0,0,2.46,1.1176c.1437-.0175.2917-.0463.4367-.0517-.56.02,0,.001.1244-.0108q.4377-.0417.8763-.0737.9136-.0666,1.83-.0918c.8863-.0234,1.7723-.0063,2.6579.0288a5.8985,5.8985,0,0,1-.68,1.125c-.6885.9483-1.4642,1.83-2.1668,2.7671a10.01,10.01,0,0,0-2.3266,5.8223,15.1419,15.1419,0,0,0-8.688,3.6914,10.3088,10.3088,0,0,0-3.28,9.459c.7044,3.9331,2.8232,7.709,4.3843,11.3584l4.4919,10.5a6.5367,6.5367,0,0,0-4.43,4.1762c-.8449,2.7461.722,5.3648,3.1325,6.6607a6.4223,6.4223,0,0,0,1.7213.62,2.7756,2.7756,0,0,0-.0049.5884,4.0852,4.0852,0,0,0,.2582,1.103,16.4354,16.4354,0,0,0-3.6008,2.8662,5.3031,5.3031,0,0,0-1.3185,2.5694c-.039.0053-.08.0063-.1181.0131-4.0607.711-8.0567,4.5728-7.4483,8.9644.6266,4.5234,5.8291,7.269,9.77,8.42a18.2439,18.2439,0,0,0,5.55.6914,151.867,151.867,0,0,1-2.1524,57.4258,1.6443,1.6443,0,0,0-.0348.2983,17.9149,17.9149,0,0,0-7.1166,6.2491c-2.0469,3.1425-2.7161,6.6181-3.0759,10.2934-.3412,3.4859-.5128,7.4277-3.11,10.0874-2.502,2.562-6.0423,3.8731-8.03,6.9844-2.3441,3.6689-2.2124,8.168-1.9049,12.3462a10.1832,10.1832,0,0,0,1.1577,15.1987c2.9042,2.1016,6.4954,2.8374,9.9708,3.3667q6.6632,1.0145,13.3849,1.5908a203.8055,203.8055,0,0,0,26.845.5591c4.49-.2026,8.97-.5635,13.4378-1.0522a103.8671,103.8671,0,0,0,12.7351-1.8931c3.95-.9409,7.9214-2.749,10.2847-6.2C198.3,308.7814,197.4869,304.6339,195.99,300.6153ZM170.6671,252.37a2.4122,2.4122,0,0,0-.3906.0581,147.44,147.44,0,0,1-19.0934,3.3018q-4.7754.4952-9.5772.6748c-2.15.0815-4.5608.2564-6.4062-.9624a1.4292,1.4292,0,0,0-.1045-.2417,154.0672,154.0672,0,0,0,2.2606-57.481,120.9322,120.9322,0,0,0,27.2668.7413A250.9872,250.9872,0,0,0,170.6671,252.37ZM139.3357,120.5821c1.4613-1.8281,3.5789-4.0849,2.668-6.6259a2.1093,2.1093,0,0,0-2.46-1.1172c-.01.0024-.02.0073-.0308.01a3.22,3.22,0,0,0-.4544-.0664,41.2167,41.2167,0,0,0-5.5561.0425,68.653,68.653,0,0,1-.9905-9.54q4.8516-.2263,9.7033-.4522a2.8306,2.8306,0,0,0,.7839-.1562c.79-.1265,1.7656-.6846,1.6742-1.5723q-.23-2.2353-.46-4.4707c-.08-.7793-.1789-1.56-.24-2.3408a1.77,1.77,0,0,1,.3231-1.4444,43.3756,43.3756,0,0,1,3.0023-3.1684l2.8075-2.9195q3.18,2.8594,6.3588,5.7178a40.15,40.15,0,0,0,1.1515,8.0508,1.0305,1.0305,0,0,0,.1777.3486,1.1455,1.1455,0,0,0,.0789.37,2.1357,2.1357,0,0,0,2.46,1.1177c.8724-.1719,1.7486-.3227,2.6294-.4458q.5688-.079,1.14-.1435c.0886-.0088.3239-.0332.3665-.0376q.3575-.0338.7154-.0616c1.379-.1084,2.7615-.1352,4.1441-.12q.202,4.8392.71,9.6587c-1.171.2593-2.3464.4986-3.5292.6983q-1.0773.1822-2.16.331-.52.0718-1.04.1353-.26.0323-.5208.0615c-.081.01-.162.0185-.2432.0273-.0268.003-.052.0059-.094.01a3.6928,3.6928,0,0,0-.6375.1255,2.5169,2.5169,0,0,0-1.8921.0742,1.4829,1.4829,0,0,0-.7175,2.189,33.6472,33.6472,0,0,0,3.7388,4.601,15.1758,15.1758,0,0,1,1.6736,2.3267l.0225.0386.0112.0229q.0738.1494.1427.3018c.1021.2265.1948.458.2747.6938.0711.209.1272.4214.1828.6348.0137.0527.0231.0869.0313.1162l.0033.0278.0012.0113a38.5936,38.5936,0,0,1-28.3588,1.6377A9.4049,9.4049,0,0,1,139.3357,120.5821Zm-13.7179,20.3755c-1.1082-2.9551-1.34-5.9121.6825-8.5259,1.9236-2.4863,5.0551-3.5351,8.0966-3.7192a2.6909,2.6909,0,0,0,1.2655-.4087l.0106.0039a43.1082,43.1082,0,0,0,31.75-1.9531c.0245-.0117.0409-.0254.0643-.0376,3.3261,1.3325,6.7519,2.5649,9.9372,4.1772a5.5517,5.5517,0,0,1,3.1306,3.3863,9.2171,9.2171,0,0,1-.3659,5.2607c-1.208,3.8765-2.8328,7.6353-4.1238,11.4888q-1.9887,5.937-3.6392,11.978l-.0026.0166c-.078.04-.16.0708-.2357.1153q-.1317.0775-.2559.1626a1.788,1.788,0,0,0-2.3286-2.1553c-11.7593,2.8906-23.915,1.2568-35.73-.4009l-4.0487-9.4639C128.4145,147.586,126.8767,144.315,125.6178,140.9576Zm4.8352,27.7481-.0138-.0093c-.0386-.03-.4959-.4136-.5742-.4727-.0307-.0351-.0618-.07-.0915-.1064-.0932-.1143-.181-.2334-.2626-.356-.0064-.01-.0451-.0625-.0838-.1186l-.0365-.0762c-.0305-.0664-.0593-.1343-.0862-.2021a3.8883,3.8883,0,0,1-.1382-.4185c-.01-.0356-.0171-.0718-.0257-.1079.006-.2744-.0219-.5518-.0083-.8291,0-.0088,0-.01,0-.0171.0059-.021.0114-.04.02-.0752.0327-.1328.0716-.2632.1172-.3921.0316-.0893.1-.3813.18-.4326q-.1707.31-.0363.07.0592-.1019.1236-.2007c.11-.1689.3206-.5747.51-.6513q-.2652.27-.0613.0722c.0579-.0537.117-.1059.1774-.1572q.1359-.1143.28-.2187c.0329-.024.0667-.0459.1-.0689.1374-.0669.27-.1392.4114-.1987a2.2636,2.2636,0,0,0,.4125-.1031c.0206,0,.0411-.0024.0617-.0029a4.2572,4.2572,0,0,1,.4724.02,1.9486,1.9486,0,0,0,.9917-.2094c12.4944,1.7524,25.3378,3.4463,37.7737.39a2.3461,2.3461,0,0,0,.6714-.2773,1.2326,1.2326,0,0,0-.0694.1406,1.373,1.373,0,0,0,.2016,1.2324,2.29,2.29,0,0,0,2.7364.5742c.095-.0561.1907-.11.2908-.1567l.0085-.0034a2.015,2.015,0,0,0,.2-.05c.0611.0019.123.0029.1851.0049l.0294.0053c.0752.0186.1909.0586.2876.0772.0255.01.0506.02.0748.0312.084.0381.1656.086.2494.1255l.0206.0122c.0886.0674.1782.1328.2633.2051.0275.0234.0543.0479.0812.0723.08.1059.3172.4253.3532.478.004.0122.0052.0176.0113.0342.0507.1362.1054.2695.147.4092l.0523.1762c-.0255-.0718.0267.1826.0316.2461a5.6445,5.6445,0,0,1-.0125.8037.5511.5511,0,0,0-.0012.0562c-.0083.0307-.0176.0639-.0194.0718q-.0414.183-.0967.3632c-.0272.0889-.2147.7559-.3009.76-.0072,0,.1608-.2725.0537-.1035-.0337.0527-.0631.1094-.0962.1631q-.0995.16-.2106.3144c-.0739.1016-.1517.2012-.233.2974-.0243.0288-.05.0566-.0749.0849l-.0018.001c-.209.1646-.3992.3462-.6188.4995-.0127.0088-.06.0362-.1033.0635-.1175.061-.2327.127-.3528.1841q-.2106.1-.428.1836a1.0141,1.0141,0,0,0-.1873.07.3911.3911,0,0,1,.05-.0264l-.0183.0059a7.4581,7.4581,0,0,1-.919.1948c-.0154.0025-.0319.0049-.0482.0064.0851-.0064.1322-.0059-.0082.0014a.8024.8024,0,0,0-.1439.02.7891.7891,0,0,1,.1239-.0186c-.1556.0073-.3106.0171-.4664.0191a9.0048,9.0048,0,0,1-1.0069-.0489,1.7559,1.7559,0,0,0-.698.0855l-.2315-.0249a2.375,2.375,0,0,0-1.0094.2187,1.7086,1.7086,0,0,0-.9192.9561,4.8435,4.8435,0,0,0-.1637.92,2.6016,2.6016,0,0,0,.0124.5537c.0274.2124.0653.4282.1145.6406a1.9,1.9,0,0,0-.3727-.0229,242.74,242.74,0,0,1-33.2691-.6675l-.0131-.0786a1.5632,1.5632,0,0,0-.2719-.4566,2.2856,2.2856,0,0,1-.217-.3032,2.5738,2.5738,0,0,1-.1291-.3852,2.6,2.6,0,0,1,0-.2847,2.3851,2.3851,0,0,1,.1455-.44,1.4131,1.4131,0,0,0,.198-.9424,1.1143,1.1143,0,0,0-.0142-.8042,2.12,2.12,0,0,0-2.46-1.1172c-.1256.0327-.2514.0566-.3781.0815-.0243,0-.0392-.0014-.0748-.0014-.04.0005-.18-.0113-.2612-.0161-.0361-.0059-.0679-.0118-.0818-.0147-.1051-.0215-.2179-.0625-.3275-.0884-.047-.0195-.0942-.0385-.1406-.0595-.1015-.0454-.2014-.0953-.2994-.1475C130.49,168.7276,130.4719,168.7164,130.453,168.7057Zm3.9163,25.3969a14.1437,14.1437,0,0,1-5.89-.64,12.9045,12.9045,0,0,1-5.3144-3.2139,4.1576,4.1576,0,0,1-.7-4.9458,5.69,5.69,0,0,1,1.794-2.0522,5.0726,5.0726,0,0,1,2.233-.9038,1.82,1.82,0,0,0,.42-.1362,2.2308,2.2308,0,0,0,1.96.0019,1.704,1.704,0,0,0,.9191-.9565,1.3424,1.3424,0,0,0-.2016-1.2329c-.036-.0415-.06-.09-.0915-.1333l-.0173-.0528c-.0008-.0449.0007-.0913.003-.1367a3.2868,3.2868,0,0,1,.1684-.4868c.1925-.3086.4195-.5781.6317-.8735l.0572-.0542q.1208-.1122.2441-.2222.3076-.2754.6284-.5357.5985-.4855,1.2388-.916l.0244-.0161a3.2789,3.2789,0,0,0,1.09.293,242.8079,242.8079,0,0,0,34.538.7754,2.7643,2.7643,0,0,0,1.0786-.2784,2.7309,2.7309,0,0,0,1.1273.3545c.0244.0025.0491.0049.0719.0083l.0133.0025.0143.0019c.0613.0039.1227.0108.1841.0142-.0663-.0039-.1174-.0068-.1652-.01.12.0191.24.04.3595.0664s.2378.0562.3553.0894l.033.01a6.6385,6.6385,0,0,1,.72.3208c.0522.0273.1105.0547.1675.083l.0212.0161c.0628.0439.1272.0854.19.1294a7.1541,7.1541,0,0,1,.6138.4853c.09.0791.1743.1631.2611.2447.0258.0278.0516.0561.0767.0844a7.28,7.28,0,0,1,.8147,1.1548,6.7711,6.7711,0,0,1,.3816.9937,1.3123,1.3123,0,0,0,.1143,1.3657,1.6022,1.6022,0,0,0,.1432.1577,1.9221,1.9221,0,0,0,1.9677,1.3828,2.44,2.44,0,0,0,1.6314-.6743,5.5654,5.5654,0,0,1,.942.77,9.7823,9.7823,0,0,1,1.905,2.6577,5.02,5.02,0,0,1,.5412,3.2305,5.2581,5.2581,0,0,1-1.763,2.6567A15.1733,15.1733,0,0,1,168.45,196.68c-.007-.0137-.0176-.0244-.025-.0376a1.865,1.865,0,0,0-1.9915-1.5366,117.0323,117.0323,0,0,1-30.5538-.8428A3.188,3.188,0,0,0,134.3693,194.1026Zm-7.95,70.709a14.371,14.371,0,0,1,6.369-6.7876,12.76,12.76,0,0,0,6.977,1.6285c3.4867-.01,6.9938-.293,10.4625-.6275a154.3252,154.3252,0,0,0,21.1123-3.5112,2.63,2.63,0,0,0,.3655-.1192,16.3649,16.3649,0,0,1,6.175,6.1162c1.7156,2.941,2.006,6.0708,2.2792,9.3877.0083.1011.0211.2037.03.3052-5.5539,4.1865-12.7114,4.9766-19.4679,5.1914-7.6661.2442-15.5123.3985-23.1307-.6059a49.6413,49.6413,0,0,1-12.7544-3.2925A24.5158,24.5158,0,0,1,126.4191,264.8116Zm-13.46,25.9473c1.6065-3.0142,5.0386-4.33,7.4412-6.5752a13.8958,13.8958,0,0,0,4.0249-8.3086c7.3755,2.773,15.271,3.6167,23.1225,3.7866,4.1862.0908,8.3844.065,12.57-.0483a64.2277,64.2277,0,0,0,11.5093-1.1587,29.8033,29.8033,0,0,0,9.21-3.5117,9.9273,9.9273,0,0,0,.4194,1.1465,14.8522,14.8522,0,0,0,3.0159,4.2065c2.365,2.4546,4.7431,4.7036,6.2533,7.8247a21.7828,21.7828,0,0,1,2.1388,10.5176,2.0884,2.0884,0,0,0-1.06.0381c-20.4969,5.9277-42.0263,5.61-63.0977,3.8061-5.4422-.4663-10.8746-1.0371-16.3043-1.6289a1.5825,1.5825,0,0,0-.3877-.6406C111.5853,297.0494,111.443,293.6026,112.9588,290.7589ZM192.34,310.8273c-1.7312,2.6328-4.6039,4.021-7.577,4.7763a86.65,86.65,0,0,1-10.9707,1.7456q-6.04.7259-12.119,1.0635a203.9831,203.9831,0,0,1-23.4376-.01q-6.0732-.3531-12.1179-1.0748a75.1882,75.1882,0,0,1-10.3975-1.6752c-2.9881-.8008-5.7479-2.4415-6.5591-5.6016a7.6007,7.6007,0,0,1,1.1513-6.1973c21.3993,2.3438,43.0528,4.4571,64.511,1.6157a121.9622,121.9622,0,0,0,17.4642-3.6049C193.3862,304.8116,194.2058,307.9884,192.34,310.8273Z"/><path class="cls-5" d="M227.5535,161.9117c.0218-.0083.0524-.02.096-.0385-.0176.0053-.0343.0112-.05.017Z"/><path class="cls-5" d="M303.5539,301.2838a8.0458,8.0458,0,0,0-2.7028-6.3276,6.2148,6.2148,0,0,0-5.2027-1.2207c-11.4069-8.5616-16.138-22.7344-17.7575-36.4371a1.1649,1.1649,0,0,0,.0987-.1113,1.3555,1.3555,0,0,0,.2016-1.2329,1.9065,1.9065,0,0,0-.9192-.9565q-.4095-.2322-.8151-.4707a5.9935,5.9935,0,0,0-.7839-.4737c-.039-.0244-.078-.0488-.1168-.0737q-.199-.1253-.3967-.2529-.3955-.2556-.7862-.5181-1.5629-1.05-3.0434-2.2158a1.9214,1.9214,0,0,0-.1626-.105,149.4917,149.4917,0,0,1-7.9374-58.5049c.7469-.1572,1.4926-.32,2.2352-.4975,2.98-.7129,6.2361-1.3941,8.9074-2.9585,2.6976-1.58,4.5416-4.2583,3.59-7.4732-1.0446-3.5288-4.5661-5.2729-7.6939-6.5888a2.3108,2.3108,0,0,0-2.7364.5742,1.4682,1.4682,0,0,0,.7175,2.1889c2.1768.9161,4.8228,1.9239,5.735,4.3194.841,2.2085-.6629,3.8-2.544,4.7021a35.8421,35.8421,0,0,1-7.265,2.2036q-4.1818.988-8.4479,1.5591a85.0357,85.0357,0,0,1-17.5464.4766,81.3178,81.3178,0,0,1-8.6789-1.127,27.1418,27.1418,0,0,1-7.4355-2.1435c-2.0183-1.0225-4.81-3.3638-3.6573-5.9429.8547-1.9126,3.2883-2.7563,5.1681-3.394a2.1168,2.1168,0,0,0,.6.08,1.8781,1.8781,0,0,0,2-1.6c.0061-.1206.0233-.24.0368-.3593a5.773,5.773,0,0,1,.4454-1.3248,6.2952,6.2952,0,0,1,.7516-1.0346,6.2193,6.2193,0,0,1,.8032-.6441,5.8336,5.8336,0,0,1,.6329-.3c.1617-.0468.3223-.0967.488-.1289a2.0374,2.0374,0,0,0,1.1953-.7353,1.3726,1.3726,0,0,0,.2016-1.2329,1.668,1.668,0,0,0-.2557-.4248v-3.1065a1.515,1.515,0,0,0-.5858-1.1313,2.2187,2.2187,0,0,0-.8547-.3985,2.6074,2.6074,0,0,0-1.1108-.3506c-.0812-.0156-.1618-.03-.2422-.05-.0265-.01-.0519-.02-.0676-.0273-.0736-.0322-.144-.07-.2157-.106-.1238-.0942-.2472-.1855-.3629-.2905a.5861.5861,0,0,1,.06.0733.65.65,0,0,0-.064-.0762l-.0111-.0088c-.1528-.1406-.0762-.0825,0-.0039-.0393-.0444-.0778-.0894-.111-.1318a4.1768,4.1768,0,0,1-.2494-.375c-.0339-.0826-.069-.1636-.0983-.2481a3.1656,3.1656,0,0,1-.0793-.3174,3.41,3.41,0,0,1,.0014-.584c.07-.2426.17-.4736.2357-.7138.026-.042.0515-.0845.0793-.126.0837-.1245.1808-.2349.2716-.3525.0279-.0259.0557-.0518.0846-.0767.0612-.0522.1341-.1172.21-.1763.018-.0078.0227-.0088.0594-.0273.0417-.0215.0847-.04.1273-.06-.0782.03-.0322.0069.0456-.0215.0146-.0063.0287-.0141.0434-.02.0588-.0249.12-.0444.1784-.0693-.0724.0312-.1266.0542-.1714.0728.021-.0069.0425-.0132.063-.0181.7769-.1851,1.6379-.9146,1.44-1.7847a1.4818,1.4818,0,0,0,.1383-1.0283,72.8349,72.8349,0,0,0-5.9347-16.3833c-2.1677-4.5811-4.2207-9.417-7.7067-13.1626a90.3728,90.3728,0,0,1,7.57-10.6694,1.4692,1.4692,0,0,0-.7175-2.189,2.3314,2.3314,0,0,0-2.7364.5737,90.4274,90.4274,0,0,0-7.9553,11.29,1.5235,1.5235,0,0,0-.1594,1.2695,1.4851,1.4851,0,0,0,.5249,1.291c3.6243,3.5567,5.6033,8.7627,7.7166,13.2827A71.8338,71.8338,0,0,1,225.3,159.3077a5.0057,5.0057,0,0,0-2.8228,4.7632,5.1568,5.1568,0,0,0,1.6807,3.2637,5.2486,5.2486,0,0,0,2.3185,1.2226v1.9273a7.6622,7.6622,0,0,0-4.04,4.7939,3.6658,3.6658,0,0,0-.5978.1446c-2.4045.8183-5.0425,1.9414-6.5675,4.0839a6.2568,6.2568,0,0,0,.6892,7.7813,15.8722,15.8722,0,0,0,7.8563,4.52,47.3573,47.3573,0,0,0,5.3158,1.19,211.0135,211.0135,0,0,1-3.897,58.9394,2.3028,2.3028,0,0,0-.798.3765l-7.0171,5.2426a1.3883,1.3883,0,0,0-.4312.5362,1.713,1.713,0,0,0-.5252.478,1.46,1.46,0,0,0,.6508,2.1548,59.4335,59.4335,0,0,1-6.7107,34.9849c-4.15.0053-6.9687,3.4145-7.4186,7.5175a23.5668,23.5668,0,0,0,.3754,6.6514,6.287,6.287,0,0,0,3.056,4.6709c2.0377,1.082,4.6467,1.0117,6.888,1.21q3.7972.3354,7.6028.5678,7.7336.4754,15.4841.5664c10.2052.1333,20.4384-.1123,30.622-.8022,9.785-.6631,19.6292-1.89,28.9873-4.938,2.1515-.7012,4.9273-1.2935,6.3582-3.2124C303.68,306.171,303.6209,303.39,303.5539,301.2838ZM233.1725,193.5777c.2592.0318.52.0689.7781.0992a91.3938,91.3938,0,0,0,20.9963.0478c1.4191-.1606,2.8328-.3642,4.2423-.5928a151.9087,151.9087,0,0,0,4.3672,46.1163c.986,3.9013,2.1431,7.7553,3.4387,11.5639a364.299,364.299,0,0,1-37.7592,1.271A213.95,213.95,0,0,0,233.1725,193.5777Zm-6.7394,61.6211a2.502,2.502,0,0,0,.3787.0415,364.4271,364.4271,0,0,0,41.4711-1.3339,3.244,3.244,0,0,0,.8331-.188c1.0515.8,2.137,1.5532,3.2439,2.2739a69.868,69.868,0,0,1-41.1324,5.28,68.6942,68.6942,0,0,1-9.6488-2.4468Zm-5.1785,6.9414a74.8842,74.8842,0,0,0,41.8348.7447,73.6364,73.6364,0,0,0,11.0017-4.003c1.8023,13.4029,6.513,26.9883,17.0728,35.8291-20.2687,4.3667-41.0487,8.626-61.8359,5.8291a107.13,107.13,0,0,1-15.4317-3.2822A62.0769,62.0769,0,0,0,221.2546,262.14Zm78.2288,41.7a5.377,5.377,0,0,1-.41,2.2163,3.0137,3.0137,0,0,1-1.8026,1.1949c-1.8576.706-3.7632,1.292-5.6768,1.8247a121.23,121.23,0,0,1-24.113,3.7842,349.2457,349.2457,0,0,1-51.235-.0562,61.5684,61.5684,0,0,1-6.6808-.6382c-1.8087-.3432-2.2141-1.9824-2.4048-3.62a17.5071,17.5071,0,0,1,.0239-6.3818c.2854-1.064,1.151-2.8018,2.3887-3.2242a2.3967,2.3967,0,0,0,1.2288.8194,109.644,109.644,0,0,0,31.783,4.8721,176.375,176.375,0,0,0,33.063-3.4468c6.146-1.14,12.2575-2.4546,18.3672-3.773a2.0433,2.0433,0,0,0,.836-.4175,2.0825,2.0825,0,0,0,1.6311-.0859c1.0341-.5146,2.0963.66,2.5054,1.5269C299.7655,300.0821,299.5933,302.0758,299.4834,303.84Z"/><path class="cls-5" d="M227.037,165.1163l-.0145-.0156.0107.0127Z"/><path class="cls-5" d="M264.5865,167.8263c.1064-.043.1674-.0855,0,0Z"/><path class="cls-5" d="M279.7572,128.5943c-.0224-.0385-.0345-.0761-.0607-.1152q-3.1884-4.7871-6.3769-9.5737a2.1057,2.1057,0,0,0-2.3842-.6538c-1.0492-.4312-2.5237-.1866-2.83.9731-.1118.4243-.3668.9946-.9021.95-.2742-.0224-.788-.5259-1.0445-.65a4.0251,4.0251,0,0,0-1.8211-.397c-1.9237.0518-2.9791,1.4581-3.9923,2.8868-.2233.3149-.4743.5991-.7124.8989a.5058.5058,0,0,1-.1705.145,7.9694,7.9694,0,0,1-2.3786-.9487,7.2828,7.2828,0,0,0-1.9328-.4619c-.5415-4.3955-1.9826-9.3506-6.9155-10.0972-4.7552-.72-9.5978,2.1826-11.9311,6.2529a13.2,13.2,0,0,0-1.665,4.8247,5.6359,5.6359,0,0,0-3.9006.0542,7.9846,7.9846,0,0,0-1.8017.9073,12.1707,12.1707,0,0,0-1.2363.86c-.1146-.2285-.3688-.5718-.437-.73-.2672-.6221-.4449-1.2754-.7414-1.8868-1.1388-2.3476-4.3892-3.7944-6.5667-1.8115-1.75,1.5933.9291,3.4229,2.5332,2.479.084.1236.215.29.2636.3823.281.5332.4244,1.1319.6542,1.6875a5.4241,5.4241,0,0,0,2.2082,2.7491,4.1407,4.1407,0,0,0,3.6683.268c1.0527-.435,1.7392-1.3882,2.756-1.8618.9561-.4448,1.3306-.126,2.0083.5938a5.2354,5.2354,0,0,0,3.4638,1.8042c2.6419.2265,4.53-1.3423,6.7917-2.3706.7448-.3389,1.3455-.6236,1.9615-.0435.9041.8516,1.4739,1.7178,2.7612,2.0347,2.0792.5122,3.45-.8052,4.7351-2.169a2.2949,2.2949,0,0,0,1.3222-.7119,18.896,18.896,0,0,1,2.538,1.0635,4.9827,4.9827,0,0,0,5.5885-1.5249,16.547,16.547,0,0,0,1.3912-1.8267,4.9284,4.9284,0,0,0,1.66.7051,5.26,5.26,0,0,0,4.5585-1.3267q2.5166,3.7787,5.0332,7.5562a130.3936,130.3936,0,0,0-12.3707,28.248,2.11,2.11,0,0,0-1.7727.0332c-9.8982,4.8907-21.3107,3.93-31.96,2.93a1.8517,1.8517,0,0,0-2,1.6c-.0155,1.0835,1.12,1.5176,2,1.6,10.88,1.021,22.3931,1.7627,32.6089-2.7436a2.1592,2.1592,0,0,0,1.4759.6733,2.7132,2.7132,0,0,0,.9813.1807l.0165.0078c.117.0537.2289.1138.3428.1733l.0092.0044.021.0176c.2079.1636.4062.3252.6024.5015.04.0454.0793.09.1173.1372q.1215.1494.2314.3086c.0731.1059.1391.2148.2063.3247l.0153.0234c.0047.0151.0075.0254.0164.05a6.89,6.89,0,0,1,.2659.7847c.01.0429.0174.0688.024.0923,0,.0146-.0011.0249-.0007.0493.0027.1284.0187.2563.0185.3852s-.0119.2564-.0186.3853c-.0014.0264-.0011.0376-.0014.0547l-.0076.0249a5.8089,5.8089,0,0,1-.2559.7876c-.0252.0591-.0381.0923-.0461.1157l-.0109.0161c-.0688.1089-.1333.2192-.2066.3247s-.1507.2085-.2315.3086c-.034.042-.0628.08-.086.1118a3.4906,3.4906,0,0,1-.5821.4888c-.0356.0254-.0547.04-.0744.0557l-.0082.0039c-.1148.0566-.2258.12-.3429.1723-.0953.0435-.2031.0782-.3007.1221l-.0044-.0044.0618-.0322c-.0222.0088-.0469.0156-.071.0234a1.2367,1.2367,0,0,0-.1762-.165,1.6,1.6,0,0,0-.6437-.3311,1.8082,1.8082,0,0,0-.7705-.1377,2.253,2.253,0,0,0-1.4142.4688c-.1043.1074-.2085.2158-.3128.3237a1.3579,1.3579,0,0,0-.273.8071q.1275.8577.2551,1.7149a2.1871,2.1871,0,0,0-.7105.082,70.5334,70.5334,0,0,1-30.1819,1.9292,2.1376,2.1376,0,0,0-2.46,1.1172,1.6232,1.6232,0,0,0,1.3969,1.9683,75.4954,75.4954,0,0,0,32.3088-1.9292,2.3323,2.3323,0,0,0,.7365-.3472,2.06,2.06,0,0,0,.8318.3848c.104.0219.2047.0551.3068.0835a5.3241,5.3241,0,0,1,.5882.2793,3.746,3.746,0,0,1,1.317,1.4326,5.18,5.18,0,0,1,.4006,1.2l.0039.0307a1.5641,1.5641,0,0,0,.5858,1.1314,2.2835,2.2835,0,0,0,1.4142.4687,2.2529,2.2529,0,0,0,1.4142-.4687,1.4415,1.4415,0,0,0,.5858-1.1314,6.5631,6.5631,0,0,0-1.61-3.7666,7.652,7.652,0,0,0-2.8315-2.0058,6.5424,6.5424,0,0,0,5.425-6.0987,6.275,6.275,0,0,0-3.6171-5.4721,126.8777,126.8777,0,0,1,12.7329-29.1817A1.3478,1.3478,0,0,0,279.7572,128.5943Zm-29.7763-4.2934a9.6322,9.6322,0,0,0-.9081-.8941c-1.8144-1.6176-4.3156-1.4375-6.4325-.5722-1.1.45-2.0566,1.1587-3.1267,1.6665a4.7105,4.7105,0,0,1-.9532.3672,9.9417,9.9417,0,0,1,5.9673-9.771,5.7059,5.7059,0,0,1,2.781-.4409A3.5088,3.5088,0,0,1,249.73,116.58a14.34,14.34,0,0,1,1.5694,6.3437A13.0431,13.0431,0,0,0,249.9809,124.3009Z"/></g></svg>