<svg xmlns="http://www.w3.org/2000/svg" viewBox="0 0 400 400"><defs><style>.cls-1{fill:#89d1e9;}.cls-2{fill:#ffc5ab;}.cls-3{fill:#76c3af;}.cls-4{fill:#bfd3fb;}.cls-5{fill:#ffeda5;}.cls-6{fill:#fbddeb;}.cls-7{fill:#fff;}.cls-8{fill:#cbf1de;}.cls-9{fill:#ffd499;}.cls-10{fill:#99f;}.cls-11{fill:#603813;}.cls-12{fill:#b3b3b3;}.cls-13{fill:#4d4d4d;}.cls-14{fill:#f7aeab;}</style></defs><g id="Graphics"><path class="cls-1" d="M286.7094,146.0982a49.69,49.69,0,0,0-6.6807-6.38,13.127,13.127,0,0,0-3.6143-2.6221c-14.9575-9.915-34.4771-12.0635-52.2119-11.8452-22.891.2817-45.9787,5.5229-66.2154,16.3745-19.7006,10.5644-36.0544,26.3476-46.4693,46.1943a103.7456,103.7456,0,0,0-10.7238,32.4312c-.6883,2.2187-1.3077,4.46-1.8152,6.7339a1.5287,1.5287,0,0,0,.8981,1.7695,89.7584,89.7584,0,0,0,1.1656,21.3892c3.7215,20.8427,15.684,39.7827,32.2533,52.8408,15.5249,12.2358,36.3378,20.5127,56.25,16.0185,9.0824-2.05,17.526-7.1709,21.944-15.59a22.8246,22.8246,0,0,0,2.0835-16.3985,16.5763,16.5763,0,0,0-2.4264-5.1645l.0348-.0054a3.1444,3.1444,0,0,0,1.69-.1162c20.97-7.102,41.6045-16.9365,58.2616-31.7637a97.096,97.096,0,0,0,20.4965-25.0727,75.6973,75.6973,0,0,0,8.76-26.82C302.7985,179.9952,298.8776,160.1388,286.7094,146.0982Zm-117.3606,43.085A315.5628,315.5628,0,0,0,137.5114,216.3l.0144-.0215c3.57-4.0454,7.32-7.9326,11.27-11.6128,1.3626-1.27,2.7591-2.5019,4.163-3.7251q4.1676-3.1707,8.4029-6.2368,4.5621-3.3061,9.22-6.4756C170.1683,188.5436,169.7593,188.8644,169.3488,189.1832Zm-22.7837-19.9756q4.1-3.2007,8.3593-6.209,7.0151-4.448,14.3965-8.2763,6.0941-3.1516,12.4054-5.8618c-.5779.2993-1.1582.5947-1.7342.8964A348.1446,348.1446,0,0,0,146.5651,169.2076Zm50.6017,128.543c-1.2718,3.9531-5.48,7.022-9.0655,8.7456a22.5694,22.5694,0,0,1-6.08,1.917,19.7087,19.7087,0,0,1-2.8.2622,8.3874,8.3874,0,0,1-3.4683-.2964c-2.0222-.9492-.8823-4.0674-.1368-5.4394a23.3861,23.3861,0,0,1,3.8425-5.149,24.7617,24.7617,0,0,1,9.4141-5.9863,2.8009,2.8009,0,0,0,1.5676-.457,1.5675,1.5675,0,0,1,.2667-.11c.1576-.0415.3127-.0908.4712-.1294,1.3662-.1865,3.3248.7407,4.2569,1.3228A4.4039,4.4039,0,0,1,197.1668,297.7506Zm-31.4995-153.04c-14.6919,7.9585-28.6937,17.8018-40.14,30.044a97.8285,97.8285,0,0,0-6.7094,7.978,107.1026,107.1026,0,0,1,31.8242-32.7519,129.4275,129.4275,0,0,1,47.0286-18.84A184.6722,184.6722,0,0,0,165.6673,144.711ZM200.71,157.8375c-.989.439-1.98.874-2.9649,1.3213.1929-.11.3851-.2217.5779-.332q2.3022-1.1023,4.6286-2.1534C202.199,157.0509,201.4594,157.4527,200.71,157.8375Zm10.7509-22.22c-.89.21-1.7767.43-2.6624.6523q2.2826-.6913,4.5984-1.3242C212.7512,135.1671,212.1049,135.3883,211.4613,135.6178Zm34.2991,99.39a1.6265,1.6265,0,0,0-.2762.6607,2.2675,2.2675,0,0,0-.66-.2837q.5462-.3061,1.0944-.6089Q245.84,234.8924,245.76,235.0079Zm16.5172,8.8482a2.1684,2.1684,0,0,0-.3825-.1539q.669-.6693,1.3326-1.3452Q262.7531,243.1063,262.2776,243.8561Zm18.3953-35.2574c-.183.5508-.3611,1.1031-.5484,1.6519q-1.5346,4.4985-3.2723,8.9214c-.1385.2671-.2809.5322-.4207.7988q-1.5986,2.5276-3.329,4.97c.0972-.2016.1949-.4043.2919-.6045,2.695-5.562,5.1653-11.23,7.4526-16.9717C280.79,207.7765,280.7351,208.1881,280.6729,208.5987Zm1.7345,11.5376c.3592-1.48.7033-2.9629,1.0183-4.4511,1.081-1.9869,2.0964-4.0079,3.0257-6.0689A106.841,106.841,0,0,1,282.4074,220.1363Zm5.1629-66.5009q-.78-1.1024-1.5621-2.2051c-.09-.1929-.1884-.3819-.2828-.5733q1.0127,1.3792,1.932,2.8223C287.63,153.6627,287.599,153.6505,287.57,153.6354Z"/><path class="cls-2" d="M225.2551,244.9855a10.57,10.57,0,0,0-8.5766,3.9267,7.5989,7.5989,0,0,0-3.7546,5.51,9.46,9.46,0,0,0,3.2256,8.3769c4.8113,4.356,13.1381,3.1167,16.4033-2.5444C236.056,254.18,232.7426,245.4322,225.2551,244.9855Z"/><path class="cls-3" d="M261.2424,231.7545a8.7121,8.7121,0,0,0-5.9358-3.8872c-.2648-.0376-.5289-.06-.792-.0723a2.6383,2.6383,0,0,0-2.2848-.1479,9.9994,9.9994,0,0,0-2.9763,1.6416c-4.0263,1.7876-5.6413,6.895-4.5785,11.2256a8.503,8.503,0,0,0,5.2776,5.9853c3.1064,1.1035,6.2743.042,8.7914-1.9067a9.8778,9.8778,0,0,0,4.0306-6.4673A9.5758,9.5758,0,0,0,261.2424,231.7545Z"/><path class="cls-4" d="M283.2675,204.857c-.1134-.0971-.2325-.1865-.3513-.2758a3.52,3.52,0,0,0-.2433-.482,2.015,2.015,0,0,0-2.3733-.6758c-.058-.0117-.1168-.0224-.1771-.0307a5.29,5.29,0,0,0-1.3193-.02,6.9017,6.9017,0,0,0-3.2467,1.3535,2.6425,2.6425,0,0,0-2.1426.3667c-4.2929,2.685-4.8264,8.8281-2.4237,12.9321a9.0236,9.0236,0,0,0,6.8484,4.4961,8.1659,8.1659,0,0,0,7.3184-3.9087A10.8011,10.8011,0,0,0,283.2675,204.857Z"/><path class="cls-5" d="M292.6328,174.5108a9.4573,9.4573,0,0,0-3.942-4.1713,8.5108,8.5108,0,0,0-6.8709-.1875,11.2584,11.2584,0,0,0-6.6074,6.3418,1.2391,1.2391,0,0,0-.2871.3369c-1.98,3.5683-.2067,7.8305,3.2295,9.7382,3.7762,2.0972,8.8186,1.2911,12.3236-.9873a7.2529,7.2529,0,0,0,3.3872-5.0771A10.3361,10.3361,0,0,0,292.6328,174.5108Z"/><path class="cls-6" d="M270.6851,144.0885a10.7738,10.7738,0,0,0-2.2757-.0991c-2.5686-1.1587-5.4347.4462-6.927,2.6015a11.5151,11.5151,0,0,0-2.0986,7.3418,9.832,9.832,0,0,0,9.85,8.7661,9.7229,9.7229,0,0,0,9.6592-8.6909C279.4384,149.1485,275.3417,144.8033,270.6851,144.0885Z"/><path class="cls-7" d="M242.2935,139.4938a10.2018,10.2018,0,0,0-4.1113-3.47,12.9824,12.9824,0,0,0-5.5281-1.7055,4.8394,4.8394,0,0,0-3.5045,1.6645,2.4869,2.4869,0,0,0-1.5121.7749,12.2347,12.2347,0,0,0-3.2062,9.6128c.4236,3.6807,2.5523,7.4331,6.496,8.0845a13.1646,13.1646,0,0,0,6.2016-.8135,9.5315,9.5315,0,0,0,4.9464-3.0967C244.3076,147.53,244.2512,142.6085,242.2935,139.4938Z"/><path class="cls-8" d="M207.1836,142.401a8.3786,8.3786,0,0,0-8.8536-4.3242,2.341,2.341,0,0,0-2.5254-.3428,12.8129,12.8129,0,0,0-6.8789,12.0669,7.4453,7.4453,0,0,0,1.3782,4.083,8.2339,8.2339,0,0,0,3.3988,2.4316,10.8561,10.8561,0,0,0,8.421-.18c.0784-.0357.1509-.0811.2282-.1187.2246-.0937.4543-.1826.6631-.2935a5.8253,5.8253,0,0,0,1.3364-.9926C207.9088,151.8165,209.4714,146.6441,207.1836,142.401Zm-6.2537-1.0381a4.9013,4.9013,0,0,1,.97.5107,7.2268,7.2268,0,0,0-4.2687-.1181c.0171-.01.0317-.0254.0489-.0357A3.5328,3.5328,0,0,1,200.93,141.3629Z"/><path class="cls-9" d="M173.1663,157.5758c-.0492-.0664-.1094-.1231-.16-.1885a11.74,11.74,0,0,0-.2995-1.207,9.7053,9.7053,0,0,0-11.5475-6.6734c-.0612.0157-.1174.0425-.1782.06a2.286,2.286,0,0,0-1.6979.6108c-.3925.1719-.7832.3472-1.16.5513a1.5931,1.5931,0,0,0-.3632.1548c-.4007.2412-.7881.5024-1.1672.7754-.9866.6553-1.9307,1.3813-2.8473,2.1191a1.4264,1.4264,0,0,0-.544,1.2657,11.5737,11.5737,0,0,0-1.5262,3.0087,10.3611,10.3611,0,0,0,1.0433,8.6988c1.8678,3.0268,5.1118,4.2563,8.5086,4.6157,3.5119.3716,7.49.1616,10.2508-2.3315.0961-.087.1714-.1846.2617-.2745a1.8312,1.8312,0,0,0,.86-.4043C175.7849,165.6041,175.5327,160.78,173.1663,157.5758Z"/><path d="M142.2076,186.899c-1.0323-4.3017-5.0057-8.1543-9.5092-8.3564a7.4615,7.4615,0,0,0-6.0948,2.667h0a2.109,2.109,0,0,0-2.3206,1.0859c-1.6691,4.2227-3.1066,9.2173-.7557,13.4741a6.2147,6.2147,0,0,0,5.3984,3.3228,18.1963,18.1963,0,0,0,6.8842-1.64C139.9871,195.67,143.3472,191.648,142.2076,186.899Z"/><path class="cls-10" d="M129.3189,215.2564a10.4783,10.4783,0,0,0-9.9336-3.6821,8.0168,8.0168,0,0,0-3.8531,1.8379,1.8214,1.8214,0,0,0-.69.3652c-3.2281,2.7662-3.8379,7.1026-2.7472,11.0445a11.132,11.132,0,0,0,2.8738,5.2905,7.9127,7.9127,0,0,0,5.8714,1.6367,11.3906,11.3906,0,0,0,9.408-5.9214A9.9816,9.9816,0,0,0,129.3189,215.2564Z"/><path class="cls-11" d="M209.61,213.2584a2.3736,2.3736,0,0,0-2.8284,0q-11.8011,8.5115-22.9872,17.83a1.2594,1.2594,0,0,0-.0838-.21c.54-.4243,1.0752-.8554,1.6182-1.2763a1.1852,1.1852,0,0,0,.2243-1.9405c.7028-.5644,1.3981-1.1381,2.1066-1.6953q5.3986-4.248,11.0066-8.22a1.4208,1.4208,0,0,0,0-2.2627,2.3759,2.3759,0,0,0-2.8284,0c-.1588.1128-.3147.229-.4732.3418a1.48,1.48,0,0,0,.0844-1.0625c.18-.1211.3574-.2471.5385-.3677a1.4163,1.4163,0,0,0,0-2.2627,2.3972,2.3972,0,0,0-2.8284,0c-.782.52-1.554,1.0533-2.3254,1.5879q3.3984-2.9912,6.8514-5.9194c1.9245-1.6255-1.2465-3.5986-2.8285-2.2627a444.4727,444.4727,0,0,0-76.31,83.2422q-5.5887,7.924-10.8011,16.1035-3.9639,5.1614-7.9277,10.3232a1.1834,1.1834,0,0,0,.2329,1.8287,5.06,5.06,0,0,0,.65,2.6586c.3934.7359,1.5469.857,2.2586.7354,4.5006-.77,7.69-4.1851,10.2876-7.6924,2.9215-3.9448,5.748-7.9546,8.7221-11.8613q9.0025-11.8242,18.8357-22.9854a414.9049,414.9049,0,0,1,42.3472-41.6264q12.8033-10.9014,26.4581-20.7427A1.4214,1.4214,0,0,0,209.61,213.2584Zm-22.2265,8.478.0228-.021c2.0386-1.8369,4.0485-3.8027,6.5887-4.9Q190.6535,219.2276,187.3837,221.7364Z"/><path class="cls-12" d="M225.4011,183.0011a2.5676,2.5676,0,0,0-2.389-.2134c-6.0494,2.2031-12.2715,4.5049-17.2562,8.7144-4.2746,3.61-8.1132,9.041-7.9414,14.8808.1716,5.836,5.6181,9.8936,11.2063,9.8545,6.205-.043,11.2667-4.4175,13.9052-9.7485,3.3405-6.75,3.33-14.7486,3.4354-22.106A1.45,1.45,0,0,0,225.4011,183.0011Z"/><path class="cls-13" d="M227.3951,190.8849c-.189.8715-.3974,1.7485-.6259,2.625a2.5573,2.5573,0,0,0-3.0021-.6465c.0878-.0718.1773-.1421.2648-.2144,1.9437-1.601-1.2322-3.5776-2.8284-2.2627-5.6746,4.6748-12.0027,8.8418-17.1577,14.1162a40.9343,40.9343,0,0,1,5.7184-6.7329,57.9359,57.9359,0,0,1,11.9163-9.207,1.43,1.43,0,0,0,.4269-2.4067c1.2-.49,2.404-.9659,3.6-1.438a1.4745,1.4745,0,0,0,.7175-2.189,2.3113,2.3113,0,0,0-2.7364-.5742c-7.7649,3.0659-15.7182,6.3638-21.3653,12.7666-3.4485,3.91-8,12.5054-3.94,17.188a1.41,1.41,0,0,0,.8153,1.5254,1.7079,1.7079,0,0,0-.4741.44,1.468,1.468,0,0,0,.7176,2.189c7.0174,2.9067,15.1475.9419,20.8774-3.8169,6.1475-5.1055,9.2809-12.8941,10.9331-20.5117C231.7269,189.5465,227.8254,188.9005,227.3951,190.8849Zm-20.5921,4.3628A30.6153,30.6153,0,0,1,211,191.815a58.883,58.883,0,0,0-4.6105,4.2466c-.8234.8448-1.6508,1.7173-2.4525,2.6192A23.0342,23.0342,0,0,1,206.803,195.2477Zm16.3951-1.9239c-.0055.0074-.0128.0117-.0182.0191-5.3833,7.0366-11.3507,14.8144-19.9517,17.8676C208.4282,203.8526,216.2487,198.9269,223.1981,193.3238Zm-4.8619,15.919c-3.6015,3.33-8.6937,5.5254-13.6,4.917,9.1807-3.27,15.6375-11.0479,21.4669-18.6421C224.656,200.64,222.2766,205.5992,218.3362,209.2428Z"/><path class="cls-14" d="M240.0164,182.7325a7.7439,7.7439,0,0,0-5.6233-4.5854,8.0917,8.0917,0,0,0-2.33-.0923,14.9229,14.9229,0,0,0-2.7727-.4956,7.4185,7.4185,0,0,0-3.1734.3838,1.888,1.888,0,0,0-.9583.229c-3.1808,1.83-5.6662,5.58-4.2636,9.3276a6.653,6.653,0,0,0,9.6111,3.5215,10.6164,10.6164,0,0,0,3.0046-2.6426,1.9465,1.9465,0,0,0,.2231-.0918,5.3074,5.3074,0,0,0,1.6742-1.3755c.1724-.14.3432-.2832.52-.4145,1.1986-.7241,2.3974-1.4483,3.5746-2.207A1.3807,1.3807,0,0,0,240.0164,182.7325Z"/><path class="cls-14" d="M249.8294,190.026a14.2109,14.2109,0,0,0-6.3536-2.2676,5.9516,5.9516,0,0,0-2.5283-1.47,2.0979,2.0979,0,0,0-2.46,1.1177,1.2254,1.2254,0,0,0,.04.9272,1.3156,1.3156,0,0,0-.1943.6772c0,1.08,1.1074,1.522,2,1.6q.372.0323.7438.0664c.0539.1124.1081.2251.1554.3384a15.6967,15.6967,0,0,1,.8021,3.6236,9.7128,9.7128,0,0,0,1.4288,4.1318,6.0494,6.0494,0,0,0,3.5234,2.4565,5.1992,5.1992,0,0,0,6.2372-4.5712C253.5459,194.0406,251.8865,191.4933,249.8294,190.026Z"/></g></svg>