<svg xmlns="http://www.w3.org/2000/svg" viewBox="0 0 400 400"><defs><style>.cls-1{fill:#bfeaf6;}.cls-2{fill:#fff000;}.cls-3{fill:#ecbde4;}.cls-4{fill:#89d1e9;}.cls-5{fill:#99f;}.cls-6{fill:#fbddeb;}</style></defs><g id="Graphics"><path class="cls-1" d="M298.28,202.8541a3.2048,3.2048,0,0,0-.6771-.3183c-9.824-3.2828-20.4641-3.7286-30.6939-4.8057q-9.4143-.991-18.8285-1.9829l-.0028,0c-7.9207-2.1035-15.7857-4.4341-23.6136-6.8589a170.4528,170.4528,0,0,1-17.6293-6.3472,91.64,91.64,0,0,1-9.2838-9.6714c-3.291-3.8886-6.5322-7.8139-9.9058-11.6323q-2.5943-2.9362-5.2283-5.8364a64.0127,64.0127,0,0,0-5.0132-5.3916c-3.6766-3.2178-8.7168-.9761-12.5021.9517-3.48,1.7719-7.6956,5.2583-6.687,9.6679.6415,2.8047,2.7737,4.4185,5.2027,5.6665.9151,1.2661,1.88,2.4815,2.8683,3.6231-.1476.018-.291.0469-.4377.0674a2.8582,2.8582,0,0,0-1.2237-.0581c-17.8415,3.0126-35.91,5.9965-54.04,4.5981-.1272-.0552-.2567-.105-.3838-.1606a2.56,2.56,0,0,0-1.4771-.1514c-1.1348-1.5557-2.7665-2.9541-4.8462-2.4121-2.21.5757-2.4479,2.64-1.91,4.5078a17.2084,17.2084,0,0,1,.5822,6.8989c-.5383,4.8452-2.0487,9.6592-3.1751,14.3945-.6917,2.9082-1.4777,5.8472-1.9648,8.8189-.2137.6855-.4057,1.3779-.5982,2.07.9268.4229,1.8353.88,2.731,1.36a56.4557,56.4557,0,0,1,7.7455,4.8755,2.5463,2.5463,0,0,1,.7885.8745,76.2224,76.2224,0,0,1,5.9225,5.4258,1.9255,1.9255,0,0,1,1.3559.6723c3.6615,3.9712,7.2594,8.0469,10.5831,12.3218,3.1863,1.998,6.3377,4.0581,9.3769,6.2607a106.6368,106.6368,0,0,1,10.9427,3.4263,2.2055,2.2055,0,0,1,1.5033,2.6475,2.1041,2.1041,0,0,1-.4393.791c10.1353-.3257,20.266-.7945,30.402-1.104a373.4819,373.4819,0,0,1,39.2991.4883c2.4253.1816,6.138,1.1176,7.852-1.29a2.0271,2.0271,0,0,0,.2948-.6431.9013.9013,0,0,0,.2171-.4145,42.0522,42.0522,0,0,0,.6163-7.126c.0741-.05.1486-.0981.22-.1528a2.3093,2.3093,0,0,0,.89-2.0152,22.8149,22.8149,0,0,1,3.3881-4.0629,24.9718,24.9718,0,0,1,5.5046-3.9117c.0338-.0034.07-.0039.1029-.0083a122.315,122.315,0,0,1,25.0232-.8237,1.8545,1.8545,0,0,0,.4913-.043c1.8624.273,3.7237.5108,5.5846.6475a90.796,90.796,0,0,0,21.7195-.68c.7954-.5195,1.5951-1.0346,2.3884-1.5664.1727-.1157.3288-.2485.4968-.3691,1.2377-1.7979,2.42-3.6328,3.4725-5.5469a41.4083,41.4083,0,0,0,4.6011-13.4609,1.6258,1.6258,0,0,1,.43-.8413A2.87,2.87,0,0,0,298.28,202.8541Z"/><path class="cls-2" d="M305.56,207.6129a1.8731,1.8731,0,0,0-1.6265-.7461c.2907-1.7017-2.6826-2.5835-3.6608-1.0347a31.9463,31.9463,0,0,0-3.356,8.4834c-.82,2.8619-1.6743,5.792-3.6341,8.106-3.6248,4.2793-9.95,4.7378-15.1576,4.7222-7.25-.022-14.5231-.5518-21.7657-.8575-7.17-.3022-14.6677-.6035-21.4375,2.1983-6.0782,2.5151-11.2658,7.7969-11.9417,14.5473a1.2191,1.2191,0,0,0,.2919.9478,1.38,1.38,0,0,0-.3149.8384c-.015,1.05,1.1169,1.561,2,1.6,5.2071.2319,10.4518.0327,15.6629.0058q2.5707-.0132,5.1412-.0268l.0222.001a63.4946,63.4946,0,0,0,15.7315,2.2919,186.4981,186.4981,0,0,0,22.3252-.2817c6.0821-.4414,12.7163-.8711,17.8252-4.584,5.0037-3.6357,6.7956-9.9048,7.5652-15.751C310.1552,221.0514,309.3153,213.7306,305.56,207.6129Z"/><path class="cls-2" d="M145.0314,243.964a2.1632,2.1632,0,0,0-1.66-.7417,73.8192,73.8192,0,0,1-18.2479-10.4956,114.4006,114.4006,0,0,0-15.1578-15.355c-.4877-.521-.9761-1.042-1.4851-1.544a23.2019,23.2019,0,0,0-10.3886-6.2807,2.1849,2.1849,0,0,0-.726-.0654c-1.1548-.3692-2.8039.1084-2.8894,1.4565a59.7275,59.7275,0,0,0,9.9033,36.7124,2.1248,2.1248,0,0,0,2.4516.6318,14.0306,14.0306,0,0,0,5.5941.3653q1.3995-.0711,2.7989-.1411a20.9028,20.9028,0,0,0,3.2093-.045,5.07,5.07,0,0,0,.8219-.1582l18.8114-.9472a2.5083,2.5083,0,0,0,1.5332-.5889,35.7734,35.7734,0,0,0,4.027-.0566,2.0476,2.0476,0,0,0,1.9286-1.1748A1.4847,1.4847,0,0,0,145.0314,243.964Z"/><path class="cls-3" d="M300.9594,246.8219a2.6953,2.6953,0,0,0-2.6806-.32,8.4577,8.4577,0,0,0-1.14.6382q-1.2879.7558-2.5758,1.5122a1.9772,1.9772,0,0,0-.8538.8237,25.2377,25.2377,0,0,1-3.2878.667q-7.25-.066-14.5007-.1172c-.082-.0039-.1647-.0088-.2466-.0122q-20.5533-.9052-41.1238-1.34-40.8881-.8643-81.7872.13-23.06.5617-46.1009,1.7139c-.91.0454-1.9851.5527-2,1.6a1.6933,1.6933,0,0,0,1.3432,1.5142,7.21,7.21,0,0,0,.244,3.7587,1.2974,1.2974,0,0,0-.2131.8414,45.3265,45.3265,0,0,0,4.8164.9643c.1157-.0234.2346-.04.3483-.0659l1.3708-.312.04.0068a13.7542,13.7542,0,0,0,2.4547,1.0073c3.1.5357,6.1451,1.586,9.2909.8838,2.6841-.5986,5.22-1.6762,7.964-2.0215,3.0739-.3862,5.7412.4278,8.5481,1.5874a3.5724,3.5724,0,0,0,.4984.1646,8.267,8.267,0,0,0,2.8667-.5225,16.1658,16.1658,0,0,0,2.7469-1.3974c.0907-.003.1815-.0034.2723-.0069,2.4042-1.5249,4.7847-2.7089,7.7528-2.1093,2.5361.5127,4.597,2.53,7.1559,2.8344a6.9527,6.9527,0,0,0,4.1537-1.0781,23.2143,23.2143,0,0,1,4.5036-1.9189,15.4219,15.4219,0,0,1,8.1225-.19c.2427.0625.4778.1519.7179.2237a1.825,1.825,0,0,1,2.2819-.08,12.2786,12.2786,0,0,0,5.7219,2.2119,17.98,17.98,0,0,0,5.3915-.5156c3.4319-.76,6.8574-1.8013,10.4128-1.6543a19.8164,19.8164,0,0,1,5.7124,1.1284,14.8309,14.8309,0,0,0,3.8691,1.1587c1.7175.0888,3.4812-.6416,5.1214-1.08a29.553,29.553,0,0,1,4.7133-.9937,8.5694,8.5694,0,0,1,1.5261-.0024,2.2936,2.2936,0,0,1,1.9922.0786,27.37,27.37,0,0,0,6.4293,2.4121q2.0469-.0242,4.094-.0083c1.8371-.4326,3.6849-.8193,5.5545-1.083.2988-.042.6049-.0825.9164-.12a11.8385,11.8385,0,0,1,6.6167-.2193c2.1243,1.543,3.7786,3.2632,6.6037,3.4756,2.8078.2114,5.366-.9961,7.7837-2.269a14.5041,14.5041,0,0,1,6.3977-1.9448,15.3337,15.3337,0,0,1,7.5437,3.6279,6.0222,6.0222,0,0,0,1.0016.3935,8.2423,8.2423,0,0,0,4.9754-.39q.24-.1113.4789-.2251c.8887-.4248,1.7694-.8633,2.6768-1.248a12.1527,12.1527,0,0,1,4.1488-1.0352,1.9569,1.9569,0,0,0,.4584.6924,5.3422,5.3422,0,0,0,4.7166,1.2231,5.133,5.133,0,0,0,3.6941-3.1772,16.8978,16.8978,0,0,0,1.1417-4.7066,18.1875,18.1875,0,0,0,.1291-2.4267A3.2534,3.2534,0,0,0,300.9594,246.8219Z"/><path class="cls-4" d="M309.1968,211.06a8.9591,8.9591,0,0,0-1.3724-3.9953,14.67,14.67,0,0,0-2.2411-2.3237,24.24,24.24,0,0,0-4.6941-3.2853,32.244,32.244,0,0,0-7.7435-2.9306c-7.7191-1.8823-15.8994-1.6846-23.7842-2.2441a201.6237,201.6237,0,0,1-28.3906-3.7207,31.9158,31.9158,0,0,1,4.5378-2.2862,1.4744,1.4744,0,0,0,.7175-2.1894,2.3124,2.3124,0,0,0-2.7363-.5738,35.183,35.183,0,0,0-7.1629,3.9449,105.1859,105.1859,0,0,1-11.9157-3.7891q-2.6532-1.03-5.2528-2.2271c.1493-.1059.2942-.2177.4452-.3212.4168-.2867.8382-.5679,1.2684-.834.2837-.1753.5735-.3526.8689-.5078.2879-.1514.66-.1275.21-.3008a2.3258,2.3258,0,0,0,2.7363-.5737,1.4665,1.4665,0,0,0-.7175-2.19c-3.0024-1.1577-5.8233,1.1138-8.1421,2.8164-.073.0537-.1418.1133-.2144.167a78.9382,78.9382,0,0,1-11.0586-6.8779,24.8784,24.8784,0,0,1,3.7306-1.5352c.8662-.2734,1.7136-.9507,1.3969-1.9683a2.0968,2.0968,0,0,0-2.46-1.1171,30.687,30.687,0,0,0-5.5279,2.3676,62.7783,62.7783,0,0,1-8.7729-8.8706,61.13,61.13,0,0,1-5.3525-7.896,40.451,40.451,0,0,0-4.9232-7.4292,12.8523,12.8523,0,0,0-7.8868-4.3559,16.22,16.22,0,0,0-10.25,2.6772,41.9287,41.9287,0,0,0-4.5025,3.1748,12.6552,12.6552,0,0,0-3.4526,3.6128c-1.7457,3.2222.1733,7.0952,1.7738,9.9932a28.1644,28.1644,0,0,0,1.717,2.6846c-16.282,3.5893-33.7437,7.2294-50.2359,3.4985a38.6158,38.6158,0,0,0,3.87-10.51c.7133-3.8637.7664-8.4448-1.3757-11.9043-2.2988-3.7128-7.18-3.4912-10.2723-.9233-2.9016,2.41-4.21,6.148-4.41,9.8252-.2626,4.8472,1.4932,9.5415,2.5808,14.1973a61.033,61.033,0,0,1-.5273,17.143c-1.0915,6.13-3.435,11.7886-5.4526,17.6426A42.8318,42.8318,0,0,0,91.6149,222.8a40.8127,40.8127,0,0,0,3.3191,14.5913A40.1724,40.1724,0,0,0,103.15,249.6a1.1055,1.1055,0,0,0-.0764.4819,33.6506,33.6506,0,0,0,2.51,10.4014A2.1183,2.1183,0,0,0,107.99,261.61a2.3574,2.3574,0,0,0,3.2667-.189c1.6938-2.4238,6.0406.9688,7.8137,1.6958a8.7719,8.7719,0,0,0,5.7309.5664c1.8228-.5156,3.2293-1.6938,4.8415-2.62a7.8041,7.8041,0,0,1,5.0868-1.0161c1.9317.3,3.4646,1.5341,5.2968,2.12a7.7825,7.7825,0,0,0,5.6144-.4258c1.6737-.7422,3.1065-1.9341,4.7985-2.6411a9.3182,9.3182,0,0,1,5.2021-.5581c1.9321.354,3.4518,1.4795,5.2517,2.17,3.3134,1.272,6.5232.2817,9.533-1.291,2.3788-1.2427,5.13-3.2354,7.943-2.35,3.2389,1.02,5.6514,3.6777,9.1341,4.1416,4.2036.5591,7.4459-1.9439,11.18-3.3306a11.6669,11.6669,0,0,1,5.02-.8081,7.2,7.2,0,0,1,4.2835,2.2041,6.5077,6.5077,0,0,0,5.2862,1.8853c2.0277-.26,3.8491-1.3867,5.6539-2.2749,1.56-.7681,3.353-1.728,5.1454-1.667,1.7717.0605,2.9273,1.4248,4.2033,2.4814a9.3715,9.3715,0,0,0,8.9113,1.7134c2.8138-.8037,5.3743-2.4,8.233-3.0332a4.48,4.48,0,0,1,3.3373.35c1.58.91,2.7539,2.3662,4.4173,3.1753,3.0783,1.4971,6.4278.6509,9.4261-.5864,2.6553-1.0957,5.6619-2.9888,8.637-2.1675,3.1057.8569,5.5525,3.3071,8.807,3.8052a7.5578,7.5578,0,0,0,4.9953-.877c1.2019-.6958,2.5715-2.417,4.0085-2.539a5.1039,5.1039,0,0,1,2.3618.7827,18.1779,18.1779,0,0,0,2.6546,1.14,7.3159,7.3159,0,0,0,4.6957-.1973,3.9448,3.9448,0,0,0,2.1678-1.96c.9549-.043,1.8661-.565,1.8555-1.5781a49.0478,49.0478,0,0,1,1.934-14.2251,1.6266,1.6266,0,0,0,.0452-.2647,23.0333,23.0333,0,0,0,4.6478-8.4756,36.3468,36.3468,0,0,0,1.1714-13.5335c-.1382-1.73-.3574-3.4517-.6191-5.1666C309.718,214.4589,309.1989,211.1116,309.1968,211.06ZM106.674,149.609c1.6759-.3462,2.46,1.584,2.8534,2.8887a16.4559,16.4559,0,0,1,.4871,6.3462,33.301,33.301,0,0,1-3.9882,11.8183c-.7292-.2192-1.4569-.4482-2.1813-.7-.0551-.019-.1168-.0249-.1737-.0415-.9764-3.7515-2.1955-7.5166-2.0659-11.4175C101.7091,155.3834,103.0372,150.3605,106.674,149.609Zm-3.27,41.4145a63.8537,63.8537,0,0,0,.92-17.5c14.575,4.3549,29.9626,2.9877,44.7641.2094,4.4177-.8291,8.8109-1.7832,13.2-2.7519a60.4667,60.4667,0,0,0,9.3917,8.2661c1.3037.9639,2.6264,1.9014,3.9521,2.8345a2.3873,2.3873,0,0,0,2.8284,0,1.4128,1.4128,0,0,0,0-2.2627c-5.0254-3.5371-10.1932-7.1831-14.0461-12.0381a22.6918,22.6918,0,0,1-4.3486-8.06,3.88,3.88,0,0,1,1.0653-4.147,30.7177,30.7177,0,0,1,4.3264-3.4106c2.4712-1.7007,5.5364-3.3857,8.6463-3.0132,2.7587.3306,4.835,2.3228,6.4179,4.4556,1.7254,2.3247,3.0267,4.9209,4.52,7.3916a58.23,58.23,0,0,0,5.4049,7.5,68.4966,68.4966,0,0,0,8.0826,8.0478c-5.9393,4.1709-10.5661,10.1226-14.5676,16.2735-1.2988,1.9965,2.3484,3.3144,3.4539,1.6152,3.747-5.76,8.1375-11.7085,13.8692-15.665a78.6131,78.6131,0,0,0,11.5167,7.2456,42.2619,42.2619,0,0,0-3.059,3.0781,39.38,39.38,0,0,0-8.0981,14.1059c-.6878,2.1255,3.2278,2.7955,3.8571.8506a36.8642,36.8642,0,0,1,6.6122-12.08,35.511,35.511,0,0,1,4.1476-4.2486,107.7926,107.7926,0,0,0,17.0209,6.1553,35.8685,35.8685,0,0,0-10.55,16.3154c-.6491,2.14,3.2641,2.8057,3.8571.8506a32.8594,32.8594,0,0,1,10.9389-16.084,178.7883,178.7883,0,0,0,25.049,3.9751c4.2052.3882,8.4189.6792,12.6346.9248,4.0727.2378,8.1726.34,12.219.8912a33.4778,33.4778,0,0,1,10.8938,3.2124c-3.68,4.0664-2.266,10.5781-5.53,15.021-4.0993,5.5805-11.3051,7.0249-17.8264,7.0659-8.0591.0508-16.1718-.815-24.2143-1.2818-7.2323-.42-14.8783-.48-21.2386,3.4883a16.375,16.375,0,0,0-6.6308,7.5108,17.3208,17.3208,0,0,0-.5269,9.9472q-31.5051-.5646-63.0152.17-5.4764.13-10.9512.3072a1.6662,1.6662,0,0,0-.22-.648c-1.9246-3.3222-5.5751-4.7392-9.0356-5.8974a41.13,41.13,0,0,1-5.21-1.95,17.377,17.377,0,0,1-4.7835-3.6494c-3.0961-3.2374-5.4757-7.0909-8.4454-10.4419a64.9862,64.9862,0,0,0-22.3418-16.4117C100.2312,201.84,102.3337,196.6256,103.4043,191.0235Zm-7.7626,32.3448a38.2754,38.2754,0,0,1,1.67-12.9678,61.7122,61.7122,0,0,1,19.5218,14.3589c2.8815,3.188,5.2214,6.8037,8.0581,10.0244a23.1856,23.1856,0,0,0,9.96,6.8687c3.2158,1.123,7.1091,1.8925,9.2936,4.6738q-18.7269.6328-37.4347,1.72A37.5921,37.5921,0,0,1,95.6417,223.3683Zm203.16,33.1816a1.8332,1.8332,0,0,0-1.4826,1.4663c-.1037.7461-1.5056.5723-1.9813.4317-1.9552-.5787-3.5118-1.8824-5.62-2.06a7.2415,7.2415,0,0,0-4.9434,1.5986c-1.0924.794-2.1608,1.9756-3.6214,1.8877a10.5388,10.5388,0,0,1-4.06-1.6723,23.1773,23.1773,0,0,0-4.6283-2.085c-3.3026-.9565-6.5917.1563-9.6216,1.4644-2.3885,1.0307-5.5332,2.9179-8.0765,1.3349-1.5089-.9389-2.663-2.3232-4.2919-3.1a8.6407,8.6407,0,0,0-4.4291-.7661c-3.075.2559-5.8123,1.7466-8.6433,2.84a9.2159,9.2159,0,0,1-3.481.8042c-1.4676-.0424-2.4829-.9555-3.5433-1.8794a10.0769,10.0769,0,0,0-4.8284-2.6562,11.205,11.205,0,0,0-5.7551.7041c-1.8512.6665-3.5642,1.6362-5.3359,2.48-.6635.3159-1.5617.8594-2.3164.6323a6.0064,6.0064,0,0,1-1.8856-1.46c-2.9049-2.566-6.7583-3.0816-10.4684-2.3287a21.78,21.78,0,0,0-5.1366,1.8194c-1.6854.8169-3.44,1.89-5.3386,2.0923-3.2075.3413-5.9938-2.7037-8.8306-3.7613-3.2951-1.229-6.4636-.5615-9.5252.9742-2.2446,1.1259-5.212,3.4794-7.8835,2.6826-1.8066-.5386-3.3559-1.7227-5.19-2.2564a14.4744,14.4744,0,0,0-5.8689-.3872,14.0383,14.0383,0,0,0-5.3442,1.8945c-1.3074.771-2.9423,2.1685-4.5513,2.09a5.7707,5.7707,0,0,1-2.2307-.8731,16.0541,16.0541,0,0,0-2.9138-1.2265,12.5874,12.5874,0,0,0-5.6719-.2544,13.9724,13.9724,0,0,0-5.2414,2.2954c-1.4265.9346-2.7107,1.8154-4.4637,1.2661-1.7308-.5425-3.21-1.6865-4.8986-2.3325a10.1377,10.1377,0,0,0-4.9148-.6919,5.9836,5.9836,0,0,0-2.74,1.0762,30.9269,30.9269,0,0,1-1.8262-7.32c.0369-.021.0766-.0386.112-.0611q47.8179-2.7714,95.7454-2.5337,10.4638.0543,20.9262.2632a2.623,2.623,0,0,0,1.1949.021q13.2886.2629,26.5716.7525,12.168.4548,24.3275,1.1054c6.3219.3374,12.9164.6719,19.03-1.2871a21.9756,21.9756,0,0,0,4.59-2.0757A52.1043,52.1043,0,0,0,298.8019,256.55Zm7.0685-23.7578c-1.5327,5.9067-5.0667,10.9692-10.85,13.2969-5.7647,2.32-12.3581,1.88-18.4285,1.5581q-11.6631-.62-23.3339-1.0757-13.4227-.5149-26.8535-.7827c-.681-3.1626-.8762-6.48.4783-9.5005A13.257,13.257,0,0,1,232.57,230.4c6.2422-3.4839,13.74-2.7007,20.5947-2.29q5.9076.3545,11.8152.7085c3.7923.227,7.5969.5278,11.3987.4028,6.5631-.2158,13.3733-1.8516,18.1479-6.6465a16.1407,16.1407,0,0,0,4.4779-8.6006c.4967-2.6113.615-5.9238,2.4612-8.0166a15.4015,15.4015,0,0,1,3.4671,3.5239,9.6913,9.6913,0,0,1,.662,3.0119C306.5516,218.2862,307.7507,225.5465,305.87,232.7921Z"/><path class="cls-5" d="M133.0148,193.1344a3.0362,3.0362,0,0,0-.4819-.9888,3.92,3.92,0,0,0-3.2537-1.5264,3.8478,3.8478,0,0,0-1.3962.3389,2.3148,2.3148,0,0,0-1.5288.4541,3.56,3.56,0,0,0-1.1045,3.9868,4.0154,4.0154,0,0,0,3.8231,2.711,4.138,4.138,0,0,0,3.8639-2.7735A3.81,3.81,0,0,0,133.0148,193.1344Z"/><path class="cls-5" d="M147.0549,192.53a3.805,3.805,0,0,0-.5357-1.5113,3.9518,3.9518,0,0,0-2.3519-1.6791,3.79,3.79,0,0,0-2.818.3632,2.3754,2.3754,0,0,0-1.4649.1709q-.2025.1253-.4048.25a1.569,1.569,0,0,0-.5144.7061,3.8687,3.8687,0,0,0-.2027,2.397,3.9742,3.9742,0,0,0,1.2135,2.0888,4.2434,4.2434,0,0,0,2.7339,1.0713,4.4515,4.4515,0,0,0,2.454-.5869,4.3849,4.3849,0,0,0,1.2458-1.0415,3.0019,3.0019,0,0,0,.5394-1.0317A2.8987,2.8987,0,0,0,147.0549,192.53Z"/><path class="cls-5" d="M151.7689,205.6681c-.53-1.9639-4.442-1.3164-3.8571.8506.8714,3.2285,1.8951,6.9965.0883,10.103a9.1777,9.1777,0,0,1-6.4158,4.2671c-5.9565,1.0268-10.7581-4.5254-12.2335-9.7134-.5569-1.958-4.4708-1.3071-3.8571.8506,1.6262,5.7182,6.2534,10.7754,12.232,11.9282,5.5394,1.0679,11.7924-1.5845,14.29-6.7651C153.779,213.53,152.7723,209.3858,151.7689,205.6681Z"/><path class="cls-6" d="M305.0676,240.8478a2.3035,2.3035,0,0,0-3.1412.3237c-.3682.4927-.767.956-1.155,1.43-10.2541,5.6177-22.7885,3.9077-33.9885,3.4555q-19.8984-.8026-39.811-1.1738-39.5733-.7391-79.154.2241-22.3974.545-44.7768,1.6358c-.8994.0434-1.9562.5434-1.9951,1.5659-.825.1328-1.5156.645-1.4469,1.54a38.6113,38.6113,0,0,0,2.8537,11.9726,2.221,2.221,0,0,0,3.3428.7061,8.3713,8.3713,0,0,1,5.0462-1.74,10.041,10.041,0,0,1,5.1969,1.7188,13.5615,13.5615,0,0,0,5.5546,2.2138,9.0049,9.0049,0,0,0,5.012-1.1132c1.4794-.7779,2.7911-1.8306,4.2545-2.6319a3.5657,3.5657,0,0,1,3.8192-.2627,14.2583,14.2583,0,0,0,5.892,1.9561,10.5236,10.5236,0,0,0,5.9919-1.5235c1.5489-.9453,2.8708-2.4712,4.5738-3.1342,1.5262-.5943,3.0982.0981,4.4962.7319,3.5281,1.6,6.7822,3.0249,10.7214,2.0229,3.4267-.8711,6.3552-3.0415,9.7624-3.9155,3.7062-.95,6.197,1.6494,9.3295,3.1338,3.48,1.6489,6.98,1.083,10.42-.3354,1.5541-.6407,3.052-1.4112,4.6164-2.0274a6.3473,6.3473,0,0,1,3.7062-.61c1.6676.416,2.7384,2.1523,4.1907,3a8.4322,8.4322,0,0,0,5.7035.8671,21.8938,21.8938,0,0,0,5.6452-2.0678c.92-.4375,1.8355-.8877,2.7743-1.2852.6217-.2632,1.6442-.8271,2.3113-.4765.6545.3442,1.0831,1.3505,1.518,1.9165a7.9093,7.9093,0,0,0,2.1659,1.9575,10.198,10.198,0,0,0,5.4322,1.3662c4.3818-.0518,7.9193-2.5352,11.9583-3.8232.8383-.2671,1.5-.5118,2.2095.07.7.5732,1.2293,1.3613,1.875,1.9956a8.2558,8.2558,0,0,0,5.0728,2.2236c4.14.4,7.6986-1.6089,11.4827-2.8921,1.7762-.602,3.9174-1.1679,5.7083-.3247a16.9487,16.9487,0,0,1,2.4011,1.709,9.2336,9.2336,0,0,0,2.9161,1.4248,9.0831,9.0831,0,0,0,5.7331-.3994,7.8742,7.8742,0,0,0,2.2118-1.36c.48-.4243,1.2025-1.55,1.7109-1.5254.7358.0352,1.7367.9659,2.4117,1.2647a8.3219,8.3219,0,0,0,2.9556.707c.2418.0122.484.0117.726.003a9.3163,9.3163,0,0,0,8.2854-.8677c3.052-2.0464,3.67-5.8091,4.198-9.168.3136-1.9936.7658-4.0176.9033-6.0327A5.1028,5.1028,0,0,0,305.0676,240.8478Z"/><path class="cls-3" d="M307.02,244.3346c-.0975-1.5655-.5378-3.2134-2.0638-3.9649-2.0448-1.0068-3.9073.2154-5.6964,1.1226a40.6011,40.6011,0,0,1-5.193,2.2c-7.21,2.4712-14.9475,2.9424-22.5117,2.8164-8.2041-.1367-16.3887-.939-24.5765-1.4189q-13.4109-.7868-26.8422-1.1436c-18.0775-.5-36.1658-.4922-54.2468-.2129q-13.4426.2081-26.8817.5879c-8.9754.2436-17.9724.3794-26.9387.8633a76.2671,76.2671,0,0,0-12.7234,1.6c-1.4822.3349-1.6485,1.5-1.0808,2.3135A31.3538,31.3538,0,0,0,101.241,260.12a5.763,5.763,0,0,0,4.3338,3.2178c1.9126.2681,3.6853-.4111,5.493-.9194,3.46-.9727,6.2987,1.3017,9.5825,2.03a9.6649,9.6649,0,0,0,5.3751-.3081,42.4559,42.4559,0,0,0,4.5344-2.2486,5.6435,5.6435,0,0,1,4.44-.4292c1.7466.5147,3.37,1.3789,5.1352,1.8521,3.5314.9458,6.6479-.2437,9.7484-1.876a14.3405,14.3405,0,0,1,4.2071-1.7612c1.5784-.2564,2.9683.51,4.3224,1.2236,3.4228,1.8037,6.93,2.75,10.7391,1.5063a13.9587,13.9587,0,0,0,4.5253-2.6318c.8739-.7158,2.2515-2.2368,3.508-2.1186a4.0972,4.0972,0,0,1,1.89,1.142,20.6972,20.6972,0,0,0,2.257,1.6036,16.9007,16.9007,0,0,0,4.7922,1.937,18.0942,18.0942,0,0,0,10.5871-.7027,30.4393,30.4393,0,0,0,4.5586-2.5517,3.9528,3.9528,0,0,1,2.0414-.7857,3.0043,3.0043,0,0,1,1.6022,1,12.8917,12.8917,0,0,0,3.7017,2.8907,7.6084,7.6084,0,0,0,4.5034.3374c2.9583-.6367,5.3268-2.66,8.1669-3.5806,3.0779-.9976,5.3158,1.3975,7.85,2.7554,3.1491,1.688,6.5632,1.414,9.8684.37,2.7967-.8838,6.2554-2.7329,9.2164-1.5942,1.6313.6269,2.9969,1.7939,4.594,2.4956a10.4113,10.4113,0,0,0,4.7582.8715c3.1447-.1752,5.9873-1.4653,8.9484-2.4013a11.7409,11.7409,0,0,1,4.007-.7486,5.7278,5.7278,0,0,1,3.45,1.6734,9.1271,9.1271,0,0,0,4.6125,2.4253,8.7544,8.7544,0,0,0,4.9731-1.0283c1.3792-.6734,2.7658-1.7051,4.2991-1.9864,1.6945-.31,3.46.4707,5.0836.8618a10.2357,10.2357,0,0,0,9.7641-2.3662c2.7743-2.6479,3.9556-6.1909,4.2739-9.9463A41.1821,41.1821,0,0,0,307.02,244.3346Zm-3.9891,5.3237c-.2029,3.3794-1.1513,6.91-3.9645,9.05-2.9346,2.2324-6.0481.2691-9.2493-.1094a9.8082,9.8082,0,0,0-5.1871.8223,46.6028,46.6028,0,0,1-4.2144,2.0732c-1.452.4688-2.4-.375-3.4683-1.27a11.1949,11.1949,0,0,0-4.0974-2.3911c-2.9075-.8345-5.9087.0069-8.6741.95-2.4876.8491-5.2844,2.2075-7.9795,1.8257-1.5688-.2222-2.9041-1.2334-4.2388-2.0137a11.3387,11.3387,0,0,0-4.8459-1.623c-3.331-.2749-6.4172,1.1792-9.5255,2.1235a7.46,7.46,0,0,1-8.2054-1.2461c-2.8208-1.8164-5.7207-3.0068-9.0948-2.0093-2.715.8033-4.9806,2.6084-7.66,3.4527a2.92,2.92,0,0,1-2.9981-.4649c-1.1972-.9677-2.1151-2.2148-3.4847-2.9707-3.5787-1.9756-6.5577.4361-9.5841,2.145a12.9229,12.9229,0,0,1-9.1895,1.2945,12.2519,12.2519,0,0,1-4.2422-1.8189c-1.4558-1.0053-2.6756-2.3032-4.4276-2.8017-3.6256-1.0318-6.2206,1.6684-8.86,3.6352a7.3752,7.3752,0,0,1-4.33,1.4937,9.73,9.73,0,0,1-4.73-1.4824,14.404,14.404,0,0,0-4.8177-1.8189,10.273,10.273,0,0,0-4.8946.6568c-2.6757.978-5.3607,3.4282-8.3244,3.3305a14.3639,14.3639,0,0,1-4.5549-1.3779,13.9735,13.9735,0,0,0-5.0857-1.1758,10.8953,10.8953,0,0,0-4.8973,1.36,19.0164,19.0164,0,0,1-4.4307,2.1147,7.5522,7.5522,0,0,1-4.2839-.7754,24.3511,24.3511,0,0,0-4.7988-1.5947,11.3778,11.3778,0,0,0-5.281.4653c-1.4325.4312-3.1469,1.3394-4.2083-.1318a16.0868,16.0868,0,0,1-1.9076-4.9839,34.5841,34.5841,0,0,1-.9775-4.8945c7.7112-1.4571,15.6892-1.3535,23.5018-1.5928q13.0639-.4006,26.13-.7056c17.4188-.3891,34.8441-.5815,52.2668-.3672,17.39.2134,34.7752.8409,52.1242,2.065,14.633,1.0322,30.3333,2.3071,43.994-4.1777.8315-.3946,1.6333-.84,2.45-1.2637l.0749-.0366c.0559.1865.1162.3838.1246.438A28.3762,28.3762,0,0,1,303.0311,249.6583Z"/></g></svg>