<svg xmlns="http://www.w3.org/2000/svg" viewBox="0 0 400 400"><defs><style>.cls-1{fill:#e5d6ff;}.cls-2{fill:#99f;}.cls-3{fill:#76c3af;}.cls-4{fill:#ed1c24;}.cls-5{fill:#009245;}.cls-6{fill:#8c6239;}.cls-7{fill:#006837;}.cls-8{fill:#603813;}.cls-9{fill:#ffeda5;}.cls-10{fill:#89d1e9;}.cls-11{fill:#754c24;}.cls-12{fill:gray;}.cls-13{fill:#b3b3b3;}.cls-14{fill:#39b54a;}</style></defs><g id="Graphics"><path class="cls-1" d="M338.2526,215.8293l-23.4307-24.6651c-3.59-3.7783-7.08-7.8432-11.5365-10.6338-.94-.5883-1.9351-1.0966-2.8427-1.7343a9.5113,9.5113,0,0,1-2.5328-2.8648,12.8683,12.8683,0,0,0-5.3-4.4887c-5.7839-2.9771-11.6708-5.7667-17.5887-8.4654-.0213-.01-.0451-.0151-.0669-.0244-1.0082-.9019-2.0207-1.813-3.0111-2.7495-1.0951-2.1607-2.3658-4.2324-3.5235-6.3648a52.1308,52.1308,0,0,1-3.9223-10.2919c-1.8637-6.3228-3.9615-12.9488-9.3008-17.2281a167.4687,167.4687,0,0,1-7.9389-16.9926,43.3565,43.3565,0,0,1-3.0438-17.3423,1.3947,1.3947,0,0,0-.972-1.4014,2.1185,2.1185,0,0,0-2.954-.2017q-26.8047,26.6925-53.6093,53.3843-7.32,7.2891-14.64,14.5786a2.3663,2.3663,0,0,0-2.6469-.4712q-36.0775,13.856-72.2168,27.55-8.9448,3.39-17.8941,6.7671a2.3276,2.3276,0,0,0-1.2641-.07,2.1573,2.1573,0,0,0-1.3932,1.0791,1.47,1.47,0,0,0-.6888,2.1738,1.9281,1.9281,0,0,0,1.6824.77l31.2111,64.3271q1.9786,4.0782,3.9574,8.1563c1.1668,2.4047,2.2377,4.9765,4.0475,6.9834a31.5979,31.5979,0,0,0,5.7942,4.642,35.69,35.69,0,0,1,5.9854,5.2447c6.8805,7.4258,14.6985,13.6294,22.7205,19.7636,8.8,6.7295,17.6739,13.5821,24.4027,22.4869a2.4521,2.4521,0,0,0,3.338.1235,2.0049,2.0049,0,0,0,1.1277.2832c12.188-.9932,23.7236-5.0313,35.1677-9.0933q17.7255-6.2914,35.3233-12.9355,9.7782-3.6913,19.515-7.4917a2.5015,2.5015,0,0,0,.7418-.1929c6.7071-2.9824,12.5677-7.4814,18.0687-12.2793,5.242-4.5722,10.2442-9.414,15.0153-14.4751a212.0984,212.0984,0,0,0,25.646-33.2734,215.8246,215.8246,0,0,0,11.4422-20.8652C341.8521,216.0226,339.6856,215.26,338.2526,215.8293ZM124.8,252.97c.3325.3266.6507.666.9811.9946.1485.2393.3009.4756.45.7144q-.1676-.0426-.3344-.0865-3.26-3.4108-6.5339-6.809C121.1942,249.4914,123.0127,251.2131,124.8,252.97Zm19.15,34.4609q1.0629,1.0642,2.1245,2.13a2.6956,2.6956,0,0,0-.3375-.0161c-.59-.543-1.1751-1.0908-1.7624-1.6363A1.2493,1.2493,0,0,0,143.95,287.4313ZM126.8506,243.694a2.9907,2.9907,0,0,0-.7689.2075q-.632-.8174-1.2834-1.6186C125.4772,242.76,126.1671,243.2228,126.8506,243.694Zm-7.64,23.082a2.3061,2.3061,0,0,0-.6145.2608c-.0757-.1226-.1651-.2339-.238-.3584a20.6813,20.6813,0,0,1-1.3957-2.9771Q118.0595,265.2592,119.211,266.776Zm63.2271-96.3618q-1.6729,2.8323-3.2766,5.7051c-.0325-.09-.0644-.1807-.0989-.27Q180.7257,173.1166,182.4381,170.4142Zm-18.4207-3.1557c-.2349.2866-.4684.5742-.6929.8691-.3072.062-.6093.1377-.9145.2046Zm-32.702,25.1889a8.2051,8.2051,0,0,0,.5347-2.2719c.0522-.0772.1088-.1509.1629-.2271a10.2474,10.2474,0,0,1-.58,2.4981c-.0679.062-.1334.1264-.2017.1875C131.2567,192.5715,131.2907,192.51,131.3154,192.4474Zm-2.5727,34.2007q1.1785.97,2.3581,1.939.5064.4175,1.01.8384a1.4964,1.4964,0,0,0-.132.2378c-.03.0009-.0609,0-.0914.0024-.1747-.16-.352-.3169-.5252-.478-.8906-.83-1.7582-1.6836-2.6393-2.5235Zm-4.888-14.2148c-.0664.0273-.1315.0576-.1977.0854-.4823-.1762-.97-.3369-1.4585-.4956l.0228-.042c.1144-.123.2281-.2466.3424-.37.5107.1426,1.0192.2925,1.5315.4287C124.0135,212.17,123.9346,212.3019,123.8547,212.4333Zm-1.677-16.2959c.067-.1094.1487-.2075.2174-.3159.1913-.001.3823-.0079.5736-.0039.3245.0512.6489.1035.9733.1547-.4391.11-.8782.22-1.3194.3208-.1674-.0224-.3357-.038-.5031-.06C122.138,196.2033,122.1606,196.1652,122.1777,196.1374ZM194.1,282.7707q.1265-1.0723.2529-2.1455c.0024.6826.0182,1.3637.051,2.0434A2.5816,2.5816,0,0,0,194.1,282.7707ZM203.859,145.4a2.08,2.08,0,0,0-.2064-.1475c1.0145-1.5,2.023-3.0039,3.0595-4.4892C205.7476,142.3,204.8038,143.85,203.859,145.4Zm19.4572,12.6655c-.1156.9746-.2046,1.9522-.3037,2.9287q-.08-.5148-.1625-1.0288Zm1.2527,145.398c-1.212.4218-2.423.8457-3.6375,1.26,1.2923-.5263,2.5835-1.0556,3.8815-1.5678C224.732,303.258,224.6492,303.36,224.5689,303.4631Zm3.9845-91.4839c-.1141.03-.2279.06-.342.09a1.552,1.552,0,0,0,.1354-.22q.5389-1.1529,1.0781-2.3057c.043-.0327.0846-.0659.1277-.0981C229.2163,210.2887,228.8788,211.1315,228.5534,211.9792Zm.6848-26.2315.4794-2.1133.378.1011C229.8016,184.403,229.5139,185.0729,229.2382,185.7477Zm1.8759-71.8193a1.5982,1.5982,0,0,0-.309-.3569c.243-.3633.4883-.7247.7315-1.0874Q231.3254,113.2062,231.1141,113.9284Zm1.4421,11.0708a1.9159,1.9159,0,0,0-.3861.208c.2086-.5562.4321-1.104.6784-1.6377C232.75,124.0461,232.6566,124.5231,232.5562,124.9992Zm5.3908,173.6216q-.414.1553-.8282.31c.3067-.23.6073-.4673.9112-.7007.4831-.17.9687-.333,1.4525-.5009C238.9707,298.0265,238.4552,298.3166,237.947,298.6208Zm2.87-197.7906c.1152.6431.2645,1.28.4069,1.9175a1.6356,1.6356,0,0,0-.7638.503C240.5776,102.4435,240.7066,101.6388,240.8172,100.83Zm.0726,50.6836-.0166.0293q.2605-.8123.5391-1.6191c.0016.3506.0071.7012.01,1.0518A1.5968,1.5968,0,0,0,240.89,151.5138ZM248.0911,128.5c-.057-.43-.1152-.8589-.1715-1.2886q.7939,1.9409,1.5953,3.8789C249.0449,130.2243,248.5727,129.36,248.0911,128.5ZM254.74,265.8884q.2529-.2878.506-.5752c.5561-.1514,1.11-.31,1.66-.4805Q255.8215,265.3579,254.74,265.8884Zm2.4258-53.5752-.0037.0546c-.1081.045-.2174.087-.3257.1314q.1284-1.9138.2568-3.8281c.0367-.0054.0734-.0113.11-.0171.0154.0932.0293.1865.0448.28Q257.2283,210.6242,257.1658,212.3132Zm6.63,15.5083a1.4687,1.4687,0,0,0-.1452.0336,1.7153,1.7153,0,0,0-.1242-.1811q.0309-.2988.0619-.5972c.3546-.0063.7091-.0136,1.0633-.0278.019.147.0371.2944.0566.4414C264.4038,227.5978,264.0994,227.7062,263.7961,227.8215Zm9.1412-47.1519c-.0655-.0825-.1353-.1611-.2007-.2437-.0047-.07-.0108-.1391-.0154-.2084.2587-.0821.5153-.1705.7731-.2554l.037.1255C273.33,180.278,273.1307,180.47,272.9373,180.67Zm9.4685,10.3662q-.1141-.4548-.2285-.9087.5468.0564,1.0954.0645Q282.831,190.6047,282.4058,191.0358Zm1.54,58.4624c.5789-.4287,1.1606-.853,1.7366-1.2856.8852-.51,1.7666-1.0274,2.6485-1.544Q286.1453,248.0947,283.9454,249.4982Zm9.6443-65.68a1.0918,1.0918,0,0,0,.1144-.12q.77.6321,1.5645,1.2339c.2184.23.4391.458.6505.6943C295.148,185.0173,294.3674,184.42,293.59,183.8185Zm5.0116,88.292q.87-1.0371,1.7281-2.0859,1.34-1.2649,2.6494-2.5635Q300.8271,269.8209,298.6013,272.1105Zm5.2713-85.9394a7.4325,7.4325,0,0,0-.3246-1.1221c.4528.3623.8984.7383,1.3354,1.1343.5468.4956,1.0785,1.0063,1.6036,1.5244q-1.1711-.7281-2.3656-1.4219A1.807,1.807,0,0,0,303.8726,186.1711Zm2.4772,7.562c-.1393-.2041-.28-.4072-.4181-.6128.0759-.0244.1508-.0537.2266-.0786q.3849.3654.77.7319A2.2932,2.2932,0,0,0,306.35,193.7331Zm18.8626,37.4834c-.209.0786-.42.1528-.6264.2358.2724-.3115.5485-.6191.82-.9316.2182-.1187.4369-.2368.6545-.356Zm.3656-6.8013q.3642-.33.7234-.6655c.4049-.1372.815-.2642,1.2324-.3687C326.88,223.7233,326.2265,224.0651,325.578,224.4152Z"/><path class="cls-2" d="M238.1407,89.9606q-26.45,26.8653-52.9,53.731l-14.2713,14.4951a1.9363,1.9363,0,0,0-1.5953-.1709C156.3,161.902,143.1959,165.7,130.1685,169.7409a354.7055,354.7055,0,0,0-36.2229,13.0234,191.468,191.468,0,0,0-19.59,9.8081c-2.2495,1.2993.1141,3.8633,2.0189,2.7627,22.2812-12.87,47.0563-20.2607,71.5755-27.5493l22.2256-6.6069a2.08,2.08,0,0,0,2.8293.0762q26.45-26.8653,52.9-53.731l15.0642-15.3008C242.7326,90.4323,239.6005,88.4777,238.1407,89.9606Z"/><path class="cls-2" d="M178.43,326.4792c-6.7232-7.98-13.4817-15.979-21.1316-23.0991a105.573,105.573,0,0,0-12.0082-9.6934c-4.07-2.8047-8.3051-5.3579-12.4315-8.0767a73.49,73.49,0,0,1-13.1091-10.4389,2.3551,2.3551,0,0,0-2.6461-.6084c-.0025-.0118-.0013-.0215-.004-.0332-5.2643-22.0723-20.0542-39.9961-28.9447-60.53A84.76,84.76,0,0,1,82.5,196.1008c-.3746-1.983-4.2735-1.3526-3.8571.8505C82.8616,219.277,97.5182,237.423,106.9,257.6271a94.122,94.122,0,0,1,6.3425,17.7534c.2785,1.168,1.757,1.4146,2.8126.9737a1.0285,1.0285,0,0,0,.2407.4321c6.8488,7.2168,15.48,12.08,23.7089,17.5088a124.8208,124.8208,0,0,1,23.24,20.2573c4.0322,4.4072,7.8838,8.9746,11.7318,13.542a2.3209,2.3209,0,0,0,2.7364.5737A1.4678,1.4678,0,0,0,178.43,326.4792Z"/><path class="cls-2" d="M346.1628,216.9562a21.3751,21.3751,0,0,0-3.89-3.1079c-2.3337-1.7241-4.809-3.2724-7.0928-5.061a69.2983,69.2983,0,0,1-7.6461-7.3843c-2.3193-2.4775-4.6106-4.9873-7.063-7.3354-2.4316-2.3282-5.0442-4.4781-7.5962-6.6719-5.25-4.5137-10.5542-8.9717-16.0625-13.169a128.3847,128.3847,0,0,0-19.1107-12.4023,2.1186,2.1186,0,0,0-2.1333.1426,1.563,1.563,0,0,0-.19-.9434l-14.3619-27.1245c-4.5055-8.5093-9.561-16.957-12.8368-26.0425A40.6525,40.6525,0,0,1,245.5054,92.55c.0769-2.106-3.9226-2.1206-4,0-.3494,9.57,3.3625,18.5752,7.6173,26.95,4.6528,9.1587,9.5869,18.1821,14.3939,27.2607q4.2035,7.94,8.4069,15.8779a2.0169,2.0169,0,0,0,2.8245.4869,1.4007,1.4007,0,0,0,.9343,1.4619c10.975,5.6186,20.7066,13.5034,30.0863,21.4228,4.6653,3.94,9.471,7.82,13.7525,12.18,4.3229,4.4019,8.2489,9.3823,13.185,13.1333,2.2635,1.72,4.6648,3.2632,6.9564,4.9483.4293.3159.8541.6372,1.2811.9565a2.0473,2.0473,0,0,0-1.1312,1.0278,187.6117,187.6117,0,0,1-51.8305,64.3789,183.386,183.386,0,0,1-19.2307,13.3775,1.4948,1.4948,0,0,0-.8554,1.6572,1.7153,1.7153,0,0,0-.5417.0708l-68.1057,22.4365q-9.6107,3.1664-19.2214,6.3321c-.8621.2841-1.7159.9433-1.3969,1.9682a2.0949,2.0949,0,0,0,2.46,1.1177q34.053-11.2185,68.1057-22.4365,9.6108-3.1663,19.2215-6.3321c.806-.2656,1.5919-.8632,1.4317-1.7768a1.9124,1.9124,0,0,0,.9209-.2739A189.6915,189.6915,0,0,0,343.46,219.52a2.8228,2.8228,0,0,0,2.2059-.0249A1.54,1.54,0,0,0,346.1628,216.9562Z"/><path class="cls-3" d="M148.0192,209.67c-.3137-1.0078-1.5636-1.2622-2.46-1.1172a44.8069,44.8069,0,0,1-21.4157-1.8413,2.09,2.09,0,0,0-2.46,1.1177c-.3537,1.0332.5586,1.687,1.3968,1.9682a49.2947,49.2947,0,0,0,23.5425,1.8409A1.629,1.629,0,0,0,148.0192,209.67Z"/><path class="cls-3" d="M172.3634,200.7018a2.3124,2.3124,0,0,0-2.7364-.5737q-6.1464,2.6075-12.2931,5.2144a1.4741,1.4741,0,0,0-.7174,2.1889,2.3115,2.3115,0,0,0,2.7364.5742q6.1464-2.6073,12.2931-5.2143A1.4746,1.4746,0,0,0,172.3634,200.7018Z"/><path class="cls-3" d="M196.0856,188.8747a2.2932,2.2932,0,0,0-2.7363-.5738q-4.7734,2.7247-9.5467,5.45c-.76.4336-1.3693,1.3687-.7175,2.189a2.2935,2.2935,0,0,0,2.7364.5742q4.7733-2.7253,9.5466-5.45C196.1281,190.63,196.7374,189.695,196.0856,188.8747Z"/><path class="cls-3" d="M226.8342,178.09a20.0175,20.0175,0,0,0-20.7785,1.8926,1.4209,1.4209,0,0,0,0,2.2627,2.3753,2.3753,0,0,0,2.8285,0,15.2367,15.2367,0,0,1,15.9311-1.3926,2.2842,2.2842,0,0,0,2.7364-.5737A1.4736,1.4736,0,0,0,226.8342,178.09Z"/><path class="cls-3" d="M232.6447,186.6071c-.1792-.9883-1.6574-1.2959-2.46-1.1177a1.6442,1.6442,0,0,0-1.3969,1.9683,17.1578,17.1578,0,0,1-2.8075,12.646c-1.3555,1.9541,2.2995,3.2793,3.4538,1.6147A20.1028,20.1028,0,0,0,232.6447,186.6071Z"/><path class="cls-3" d="M214.82,211.175a2.4134,2.4134,0,0,0-2.8284,0,23.6608,23.6608,0,0,1-5.134,2.5273l-.025.0088q-.1834.0594-.3678.1167-.3894.12-.7825.2275-.6881.1869-1.3861.334a21.345,21.345,0,0,1-2.6933.3965c-.8974.0679-2,.5366-2,1.6a1.8541,1.8541,0,0,0,2,1.6,27.29,27.29,0,0,0,13.2171-4.5478A1.4132,1.4132,0,0,0,214.82,211.175Z"/><path class="cls-3" d="M190.31,223.0788a2.2783,2.2783,0,0,0-2.7364-.5742,19.4443,19.4443,0,0,0-9.1342,12.3169,1.6443,1.6443,0,0,0,1.3969,1.9682c.8229.1519,2.2358-.11,2.46-1.1177a17.5653,17.5653,0,0,1,1.0789-3.2949c.1172-.2646.243-.5254.371-.7851a.9029.9029,0,0,1,.081-.1558q.1043-.1905.2127-.3784.4347-.7523.9414-1.4595t1.0779-1.3618c.0761-.0869.1532-.1738.231-.2593.0012-.0014.1782-.1889.2174-.2329q.2483-.252.5066-.4936.6351-.5919,1.3266-1.1192.3454-.2629.7038-.5078c.1194-.082.2409-.1606.3613-.2407l.07-.0474c.02-.0112.051-.0288.1161-.0679C190.3724,224.8024,190.9276,223.9357,190.31,223.0788Z"/><path class="cls-3" d="M190.7436,255.9811c-.2709-.1343-.5388-.2744-.8021-.4233-.0884-.05-.1757-.1021-.2632-.1538.127.0727-.22-.14-.2453-.1563a15.7011,15.7011,0,0,1-1.3247-.98q-.35-.2879-.6838-.5952-.1516-.14-.3-.2832c-.0065-.0063-.127-.1269-.19-.1889a15.7444,15.7444,0,0,1-1.0889-1.27,16.6036,16.6036,0,0,1-.9836-1.4253c-.1442-.2338-.2809-.4721-.4143-.7129-.0253-.0454-.04-.0708-.0541-.0952-.0119-.0263-.0257-.0566-.0495-.1069-.0586-.1245-.12-.2471-.1783-.3716a15.9721,15.9721,0,0,1-1.1223-3.3545c-.2085-.9629-1.64-1.3315-2.46-1.1172a1.6456,1.6456,0,0,0-1.3969,1.9678,17.9359,17.9359,0,0,0,9.538,12.0293,2.2874,2.2874,0,0,0,2.7364-.5737A1.4734,1.4734,0,0,0,190.7436,255.9811Z"/><path class="cls-3" d="M220.1115,256.5612a2.3032,2.3032,0,0,0-2.7364-.5742,30.9568,30.9568,0,0,1-14.1427,2.8013,1.8591,1.8591,0,0,0-2,1.6c0,1.0458,1.1047,1.5664,2,1.6a35.5863,35.5863,0,0,0,16.1617-3.2382A1.4773,1.4773,0,0,0,220.1115,256.5612Z"/><path class="cls-3" d="M246.7661,241.5168a2.358,2.358,0,0,0-2.8284,0q-5.9732,5.0933-12.2747,9.78a1.42,1.42,0,0,0,0,2.2627,2.3773,2.3773,0,0,0,2.8284,0q6.2984-4.6845,12.2747-9.78A1.4265,1.4265,0,0,0,246.7661,241.5168Z"/><path class="cls-3" d="M267.396,224.0578a2.3289,2.3289,0,0,0-2.7364-.5742,28.95,28.95,0,0,0-14.0058,11.0405c-1.32,1.981,2.33,3.3018,3.4538,1.6147a25.4609,25.4609,0,0,1,12.5709-9.8921A1.47,1.47,0,0,0,267.396,224.0578Z"/><path class="cls-3" d="M289.5891,230.298a16.83,16.83,0,0,0-13.2391-6.4736c-.9005,0-2,.5849-2,1.6,0,1.021,1.1038,1.5991,2,1.6.27.0005.5392.0054.8086.02q.1794.0095.3584.0239c.0215.002.133.0137.2019.021.0939.0137.2231.0318.2475.0352q.1774.027.3544.0586.3978.071.7912.164t.7811.208c.0993.0293.198.0606.2967.0918.0228.0079.0484.0171.0788.0284a16.0641,16.0641,0,0,1,1.4871.6352q.3225.16.637.334c.131.0728.2605.1479.3894.2241l.0172.01.0362.0239c.4261.2793.84.5747,1.2375.894a10.5422,10.5422,0,0,1,2.0623,2.1158,2.2914,2.2914,0,0,0,2.7363.5742A1.4732,1.4732,0,0,0,289.5891,230.298Z"/><path class="cls-4" d="M315.551,224.4977a2.3693,2.3693,0,0,0-2.8284,0c-1.95,1.522-3.9142,3.0249-5.878,4.5288a43.993,43.993,0,0,0-2.15-5.9775,2.0863,2.0863,0,0,0-2.0413-1.1694,2.6911,2.6911,0,0,0-2.02.0258,1.4826,1.4826,0,0,0-.7176,2.19q1.8879,3.5017,3.4526,7.1641c.031.1167.0593.2348.09.3515q-3.0888,2.3394-6.1983,4.6514c-.61.4126-1.2116.8379-1.8274,1.2427a1.4164,1.4164,0,0,0,0,2.2631,2.3994,2.3994,0,0,0,2.8284,0c.2479-.163.4887-.3364.7357-.5a2.3087,2.3087,0,0,0,.4219-.24c.2241-.166.4452-.3359.6692-.5019q2.2252-1.5045,4.4013-3.0772a36.4711,36.4711,0,0,0,2.7235,6.4419l.0085.0274.0048-.0015c.0685.1269.1267.2573.1968.3838.8654,1.5605,4.23.7095,3.6555-1.2329-.8384-2.8321-1.8191-5.6118-2.9168-8.3433,2.5143-1.9224,4.9849-3.9023,7.3895-5.9629A1.4267,1.4267,0,0,0,315.551,224.4977Z"/><path class="cls-5" d="M246.8867,128.6192a7.5156,7.5156,0,0,0-7.8837-4.93,8.2583,8.2583,0,0,0-3.0474-2.0551,10.0308,10.0308,0,0,0-6.53-.36c-3.3712,1.0278-6.7278,4.2129-6.4713,7.8911a14.4557,14.4557,0,0,0-8.0982,8.0107,8.1968,8.1968,0,0,0,1.6405,7.8321,17.7009,17.7009,0,0,0,4.3435,4.1216,5.7557,5.7557,0,0,0,.2462,1.3886,6.1394,6.1394,0,0,0,3.6471,3.7749c2.0457.7691,4.2775.441,6.3744.042a9.0939,9.0939,0,0,0,4.4927-1.9785,4.9994,4.9994,0,0,0,1.3808-2.0859,15.0646,15.0646,0,0,0,3.0275-.8911,11.7633,11.7633,0,0,0,5.5062-4.56,10.4721,10.4721,0,0,0,.4074-10.1655,4.8783,4.8783,0,0,0,1.3527-2.8077A7.7724,7.7724,0,0,0,246.8867,128.6192Z"/><path class="cls-6" d="M245.9524,159.0822a31.3721,31.3721,0,0,1-4.76-12.9595,1.8947,1.8947,0,0,0-2-1.6,2.222,2.222,0,0,0-1.9221,1.09,2.4564,2.4564,0,0,0-2.1849-.08,1.6891,1.6891,0,0,0-.9317,1.0957c-.0389-.0293-.0752-.0615-.1142-.0908a2.3767,2.3767,0,0,0-2.8285,0,1.4138,1.4138,0,0,0,0,2.2627,20.3688,20.3688,0,0,1,5.4981,6.1845,46.3164,46.3164,0,0,1,3.3711,8.1309c.668,1.9263,4.59,1.2612,3.8571-.8506-.02-.0566-.04-.1128-.06-.1689a2.2684,2.2684,0,0,0,.93-.7158C245.86,161.0954,246.6735,160.1984,245.9524,159.0822Z"/><path class="cls-7" d="M228.6657,144.5168a9.8675,9.8675,0,0,0-6.8682-3.9712c-2.4761-.3223-5.6678.0444-7.1171,2.3847a3.76,3.76,0,0,0-.4982,1.4117,11.1965,11.1965,0,0,0-5.662,1.6464,3.4807,3.4807,0,0,0-1.0737,4.9292,4.3649,4.3649,0,0,0,1.2481,1.3091,6.4463,6.4463,0,0,0-1.57,2.0508,4.4475,4.4475,0,0,0,.7256,4.9439c1.4524,1.4809,3.7093,1.6045,5.6231,1.1328A8.604,8.604,0,0,0,216.04,159.31a7.7188,7.7188,0,0,0,1.2673.29,8.01,8.01,0,0,0,6.0088-1.5342c1.2989-1.0146,2.4722-2.852,2.139-4.54a12.1988,12.1988,0,0,0,2.0141-1.8687C229.2431,149.6281,230.2247,146.97,228.6657,144.5168Z"/><path class="cls-8" d="M230.5079,166.591a31.1943,31.1943,0,0,1-7.2689-13.5454c-.2442-.979-1.6109-1.3062-2.46-1.1172a1.6358,1.6358,0,0,0-1.3969,1.9683c.0327.1308.0756.2592.11.39a1.9215,1.9215,0,0,0-.4739.16,1.7059,1.7059,0,0,0-.905,1.0239,2.3058,2.3058,0,0,0-2.1374.3633,1.4214,1.4214,0,0,0,0,2.2627q.578.484,1.1291.999c.2036.1914.4025.3867.6009.5835l.082.082q.1227.1282.2436.2583a25.759,25.759,0,0,1,3.5868,4.9351q.102.1831.2011.3677l.019.0346.0511.1026c.0644.1284.1262.2578.1892.3867.1207.3183.2458.6352.3452.9609a8.8971,8.8971,0,0,1,.4447,2.6836c.0345,1.3618,1.94,2.0161,3.0094,1.3814a5.1662,5.1662,0,0,0,2.0177-2.0708,2.2793,2.2793,0,0,0,1.8949-.02C230.5407,168.425,231.1958,167.3439,230.5079,166.591Z"/><path class="cls-9" d="M115.7161,196.3478a8.3806,8.3806,0,0,0-.87-1.6889,7.226,7.226,0,0,0-3.5-2.6578c-.0135-.0419-.021-.0844-.0379-.1254a1.8927,1.8927,0,0,0-1.2368-1.128,2.5041,2.5041,0,0,0-.4933-.0727,2.4267,2.4267,0,0,0-1.133-.3c-3.8654-.0059-8.08,1.3515-10.0241,4.9511a8.4843,8.4843,0,0,0-.93,3.3287,9.14,9.14,0,0,0,1.0434,8.541,9.9819,9.9819,0,0,0,6.1469,3.9585,6.9936,6.9936,0,0,0,4.8361-.6573l.0066-.0044a9.6792,9.6792,0,0,0,3.8793-2.9126,12.6026,12.6026,0,0,0,2.8342-6.3027c.0426-.1987.0994-.3916.129-.5952A7.6456,7.6456,0,0,0,115.7161,196.3478Z"/><path class="cls-2" d="M102.5167,197.67c-2.508,0-2.5144,3.2,0,3.2C105.0249,200.87,105.0312,197.67,102.5167,197.67Z"/><path class="cls-2" d="M107.959,195.15c-2.5081,0-2.5144,3.2,0,3.2C110.4671,198.35,110.4735,195.15,107.959,195.15Z"/><path class="cls-2" d="M113.8979,200.4748a1.8854,1.8854,0,0,0-2-1.6c-.787.0278-2.1343.5674-2,1.6a6.5585,6.5585,0,0,1,.0335,1.4472c-.0058.0635-.0141.1265-.0218.19.0192-.1694-.0163.1167-.0349.1982a5.9107,5.9107,0,0,1-.2137.7237c-.0359.0976-.0749.1938-.1163.289-.0162.0376-.1265.2393-.1319.26l-.0425.0664q-.0992.1545-.21.3013c-.0238.0312-.17.1811-.2143.25-.0178.0166-.0349.0337-.0531.0493-.0767.0669-.1563.1308-.238.1914-.022.0171-.0449.0322-.0673.0483-.0885.0445-.1752.0933-.2657.1338-.0236.0108-.0779.0391-.1315.0679a3.5932,3.5932,0,0,1-.82.2021c-.0616.0118-.1236.021-.1855.03-.1169.0054-.2337.0147-.3509.0151a2.7521,2.7521,0,0,1-.4376-.0131c-.0727-.0186-.15-.0381-.1748-.0435-.0383-.0083-.1081-.0176-.1743-.0259a2.5941,2.5941,0,0,1-.25-.105c-.12-.0532-.2329-.1181-.35-.1757l-.0222-.0181c-.1085-.085-.2152-.17-.3224-.2568-.0248-.02-.0364-.0279-.0523-.04l-.02-.0259a4.6417,4.6417,0,0,1-.46-.6787,1.9831,1.9831,0,0,0-1.1953-.7353,2.4491,2.4491,0,0,0-1.5411.1611,1.4866,1.4866,0,0,0-.7175,2.189c1.7368,3.186,6.2921,3.6,9.2917,2.1831A6.639,6.639,0,0,0,113.8979,200.4748Z"/><path class="cls-10" d="M236.7041,275.4074c-3.0715-2.4976-7.8129-2.2007-11.3753-1.1333-3.9658,1.189-7.4328,3.3989-11.1435,5.1641-3.6963,1.7587-7.3305,2.5405-11.35,1.4526a28.5683,28.5683,0,0,1-5.6289-2.333c-1.8258-.9473-3.5587-2.1709-5.4649-2.95-4.02-1.6416-7.8375-.126-11.3187,2.0307-.1661.1031-.3323.2168-.4986.3247-4.4709,2.2867-8.3514,5.584-10.3125,10.398a13.3849,13.3849,0,0,0,6.5844,17.7915c7.49,4.0015,16.9748,2.376,24.9827,1.2153,8.1807-1.186,16.886-2.4585,24.3633-6.1748,6.3169-3.14,12.0767-8.6992,13.4411-15.8725C239.62,281.9733,239.5878,277.7521,236.7041,275.4074Zm-5.1687,16.7a42.0256,42.0256,0,0,0,2.8417-4.94A18.1875,18.1875,0,0,1,231.5354,292.1071Z"/><path class="cls-5" d="M210.3275,279.8879q-1.1694-2.3965-2.3387-4.7925a1.8669,1.8669,0,0,0-.9191-.9561,2.4511,2.4511,0,0,0-1.5411-.1616,1.9891,1.9891,0,0,0-1.1953.7354,1.3152,1.3152,0,0,0-.2016,1.2329q1.1693,2.3964,2.3387,4.7924a1.8665,1.8665,0,0,0,.9191.9561,2.4467,2.4467,0,0,0,1.5411.1611,1.9871,1.9871,0,0,0,1.1952-.7353A1.3139,1.3139,0,0,0,210.3275,279.8879Z"/><path class="cls-5" d="M214.275,278.52a13.2266,13.2266,0,0,1-.9679-1.5064c-.1976-.3886-.3842-.7827-.5429-1.1889a1.7986,1.7986,0,0,0-.9192-.9561,2.4467,2.4467,0,0,0-1.5411-.1611,1.9871,1.9871,0,0,0-1.1952.7353,1.3587,1.3587,0,0,0-.2016,1.2329,14.765,14.765,0,0,0,1.914,3.4595,2.08,2.08,0,0,0,1.1953.7354,2.4465,2.4465,0,0,0,1.5411-.1616,1.7021,1.7021,0,0,0,.9191-.9561A1.3848,1.3848,0,0,0,214.275,278.52Z"/><path class="cls-5" d="M218.116,277.5163a23.4608,23.4608,0,0,0-3.4777-7.2471,2.2787,2.2787,0,0,0-2.7363-.5737,1.4752,1.4752,0,0,0-.7175,2.1889c.3751.5279.7292,1.07,1.0573,1.628a6.9616,6.9616,0,0,1,.4162.7407c-.1832-.4243.0364.0737.0777.1562q.1087.2169.2127.4361a22.0985,22.0985,0,0,1,1.3105,3.522,2.0941,2.0941,0,0,0,2.46,1.1171A1.6384,1.6384,0,0,0,218.116,277.5163Z"/><path class="cls-5" d="M190.8374,308.2775a17.84,17.84,0,0,0-1.55-4.7524,1.8686,1.8686,0,0,0-.9191-.9566,2.4474,2.4474,0,0,0-1.5411-.1611,3.1642,3.1642,0,0,0-.4319.1509c-.2251-.8335-.4338-1.6719-.606-2.5191a1.7114,1.7114,0,0,0-.9191-.956,2.4468,2.4468,0,0,0-1.5411-.1612,2.1482,2.1482,0,0,0-1.0777.6006q-.42-1.2114-.7976-2.437c-.6-1.9472-4.517-1.291-3.8572.8511a73.446,73.446,0,0,0,3.7107,9.5981,2.1374,2.1374,0,0,0,2.46,1.1177,2.4,2.4,0,0,0,.49-.2,2.1312,2.1312,0,0,0,2.4209,1.0454,2.3823,2.3823,0,0,0,.3959-.1494,2.0076,2.0076,0,0,0,.8249.7354,2.4508,2.4508,0,0,0,1.541.1616,1.99,1.99,0,0,0,1.1953-.7354l.2017-.3823A1.3024,1.3024,0,0,0,190.8374,308.2775Z"/><path class="cls-11" d="M225.5084,288.1672a4.555,4.555,0,0,0-3.6782-.8057c-1.1732.1528-2.3407.4062-3.5054.6143q-3.554.6342-7.1082,1.269a5.4465,5.4465,0,0,0-.9179-1.1611c1.0977-.8565.6776-2.7984-1.284-2.7984a1.7094,1.7094,0,0,0-1.8594,1.3584,10.123,10.123,0,0,0-2.0612-.081c-.2268.0132-.463.0322-.7.0527.0028-.0332.0159-.063.0164-.0972v-.1836a1.0238,1.0238,0,0,0-.1722-.6162,1.1889,1.1889,0,0,0-.4136-.5151,1.6,1.6,0,0,0-.6436-.3306,1.8093,1.8093,0,0,0-.7706-.1382c-.1772.02-.3545.0381-.5317.0577a2.1558,2.1558,0,0,0-.8825.4111l-.3127.3237a1.36,1.36,0,0,0-.2731.8076v.1836a1.0242,1.0242,0,0,0,.1722.6167,1.1819,1.1819,0,0,0,.1592.2686,5.465,5.465,0,0,0-2.2889,1.6191,4.3686,4.3686,0,0,0-4.3317-2.3989c.3026-.9219-.2916-2.0723-1.8-2.0723-2.29,0-2.4874,2.6612-.5908,3.1245a3.7508,3.7508,0,0,0-.3172.3047,1.96,1.96,0,0,0-.27.1075,2.6774,2.6774,0,0,0-1.2694,1.291,2.1836,2.1836,0,0,0-1.0382-.2417c-2.5081,0-2.5144,3.2,0,3.2a2.0046,2.0046,0,0,0,1.3542-.4556,4.1835,4.1835,0,0,0,1.4585,1.1934,5.8365,5.8365,0,0,0,4.32.48,4.3764,4.3764,0,0,0,.9662,2.4273c-1.9668.415-1.8008,3.1426.5228,3.1426a1.7083,1.7083,0,0,0,1.86-1.3623,7.3634,7.3634,0,0,0,1.7153.5161,17.2709,17.2709,0,0,0,4.2051.1533,14.5982,14.5982,0,0,0,1.9688-.2744,1.741,1.741,0,0,0,1.8083,1.1509c1.9206,0,2.3687-1.8731,1.3466-2.752a5.7347,5.7347,0,0,0,.82-.9414c.0682-.0049.1376-.0073.2034-.0156a4.0843,4.0843,0,0,1,1.0026.1069c.5289.0986,1.0521.2275,1.583.3154a11.4141,11.4141,0,0,0,3.7243.01,16.2445,16.2445,0,0,0,6.1117-2.62,6.778,6.778,0,0,0,2.24-1.9312A2.504,2.504,0,0,0,225.5084,288.1672Z"/><path class="cls-12" d="M154.4459,234.9567c-.3686-4.9331-5.0255-7.6767-9.5758-7.9048a10.7187,10.7187,0,0,0-6.9637,1.7681,8.3645,8.3645,0,0,0-3,5.1435c-.51,2.8238.1387,5.605.8313,8.3414a1.462,1.462,0,0,0,.8816.9941c1.1307,1.7324,4.4254.9678,6.2579.4551a21.8177,21.8177,0,0,0,6.4021-2.9717c1.3148-.8921,3.6386-2.5171,3.7011-4.3C153.7242,236.3014,154.5069,235.7721,154.4459,234.9567Z"/><path class="cls-13" d="M162.7657,234.45a9.4488,9.4488,0,0,0-10.55-5.0274c-3.7013.8819-7.2274,4.22-6.8352,8.28a5.3042,5.3042,0,0,0,3.3,4.6973,3.2473,3.2473,0,0,0,1.2757.1787,2.3389,2.3389,0,0,0,.7029-.0283,18.71,18.71,0,0,0,6.3952-2.6182,16.0545,16.0545,0,0,0,2.4693-1.936c.3647-.35.7006-.729,1.07-1.0738a4.143,4.143,0,0,1,.5372-.4467c-.014.0136.0079.0058.0685-.0244a1.3875,1.3875,0,0,0,.1694-.0328C162.1561,236.2873,163.2075,235.3429,162.7657,234.45Z"/><path class="cls-14" d="M139.4107,242.8171a1.176,1.176,0,0,0,.198-.3125,1.0238,1.0238,0,0,0,.1723-.6167c-.0238-.1416-.0476-.2837-.0715-.4253a1.5688,1.5688,0,0,0-.5143-.7061q-.2023-.1252-.4048-.25a2.375,2.375,0,0,0-1.0094-.2187h-.3318a1.807,1.807,0,0,0-.77.1381,1.6007,1.6007,0,0,0-.6437.3306,1.1881,1.1881,0,0,0-.4135.5152,1.0219,1.0219,0,0,0-.1723.6162c.0238.1416.0476.2837.0714.4253.0052.0141.0149.0249.02.0385a1.5623,1.5623,0,0,0-1.2491,1.8965,1.53,1.53,0,0,0-.5833.7046c-.08-.0073-.1552-.0195-.2409-.0195-2.5082,0-2.5145,3.2,0,3.2a1.7785,1.7785,0,0,0,1.7688-1.0244c.0769.0063.14.0293.2219.0293a1.6816,1.6816,0,0,0,1.8833-1.6021,2.1518,2.1518,0,0,0,1.1029.2749C140.5708,245.8107,140.8918,243.5173,139.4107,242.8171Z"/><path class="cls-14" d="M148.73,240.9513a2.6044,2.6044,0,0,0-.3589.0293,1.6143,1.6143,0,0,0-.2177-.2241q-.2023-.1252-.4048-.25a2.375,2.375,0,0,0-1.0094-.2187h-.3318a1.807,1.807,0,0,0-.77.1381,1.6007,1.6007,0,0,0-.6437.3306,1.1881,1.1881,0,0,0-.4135.5152,1.0219,1.0219,0,0,0-.1723.6162l.0714.4253a1.5646,1.5646,0,0,0,.5144.706l.4048.25a2.3836,2.3836,0,0,0,1.0094.2183h.3318a1.8565,1.8565,0,0,0,.4111-.0318,1.8808,1.8808,0,0,0,1.58.6953C151.2384,244.1515,151.2447,240.9513,148.73,240.9513Z"/><path class="cls-14" d="M166.3155,230.0021a1.6353,1.6353,0,0,0-1.8093,2.0464c-.0576.0122-.1175.022-.1723.0371v-.1518a1.0227,1.0227,0,0,0-.1722-.6162,1.1841,1.1841,0,0,0-.4136-.5147,1.602,1.602,0,0,0-.6436-.3311,1.8074,1.8074,0,0,0-.7706-.1376l-.5316.0571a2.15,2.15,0,0,0-.8825.4116c-.1043.1074-.2085.2158-.3128.3237a1.3581,1.3581,0,0,0-.2731.8072v.332a1.022,1.022,0,0,0,.1723.6162,1.1679,1.1679,0,0,0,.2734.3833l-.1917.1919a1.1872,1.1872,0,0,0-.4135.5146,1.19,1.19,0,0,0,0,1.233,1.1885,1.1885,0,0,0,.4135.5151q.2025.1245.4048.25a2.39,2.39,0,0,0,1.0095.2187q.2658-.0293.5316-.0576a2.1558,2.1558,0,0,0,.8825-.4111l.3318-.332a1.1891,1.1891,0,0,0,.33-.3741,2.2672,2.2672,0,0,0,.91.1792,1.6359,1.6359,0,0,0,1.8118-2.0385C168.8093,232.7687,168.6549,230.0021,166.3155,230.0021Z"/><path class="cls-2" d="M275.0867,189.4924c.6824-.7413.0353-1.8331-.7175-2.19a2.3337,2.3337,0,0,0-2.7364.5742c-1.1715,1.2715-2.3813,2.5059-3.6045,3.7266.039-.3828.0866-.7647.12-1.1475.0875-.99-1.1635-1.63-2-1.6a1.8848,1.8848,0,0,0-2,1.6c-.032.3623-.0757.7188-.1122,1.0791-1.5623-1.5249-3.1385-3.0356-4.7492-4.51-1.5306-1.4009-4.6878.561-2.8284,2.2627,1.9746,1.8071,3.9031,3.6621,5.8051,5.5434h-1.7183c-.9005,0-2,.5845-2,1.6,0,1.02,1.1038,1.6,2,1.6h.6494c-1.4124,1.25-2.84,2.4839-4.3034,3.6743a1.4241,1.4241,0,0,0,0,2.2627,2.3633,2.3633,0,0,0,2.8284,0c.9875-.8032,1.9573-1.6264,2.9186-2.4595a1.72,1.72,0,0,0,1.3454,1.108c.821.1513,2.2381-.11,2.46-1.1177.1455-.66.275-1.3238.4054-1.9868,1.2911,1.3545,2.572,2.7187,3.8234,4.1113a2.3392,2.3392,0,0,0,2.7364.5742c.7563-.3579,1.3984-1.4311.7175-2.189-1.2091-1.3452-2.4451-2.666-3.69-3.9775H272.49c.9,0,2-.5845,2-1.6,0-1.02-1.1038-1.6-2-1.6h-2.6141C271.6522,193.0915,273.4,191.3224,275.0867,189.4924Z"/><path class="cls-2" d="M252.9144,182.2233c-2.5081,0-2.5144,3.2,0,3.2C255.4225,185.4235,255.4288,182.2233,252.9144,182.2233Z"/><path class="cls-2" d="M278.7945,181.8918c-2.508,0-2.5144,3.2,0,3.2C281.3026,185.092,281.309,181.8918,278.7945,181.8918Z"/><path class="cls-2" d="M248.5918,209.04v.2051c0,2.1138,4,2.1186,4,0V209.04C252.5918,206.9264,248.5918,206.9216,248.5918,209.04Z"/><path class="cls-2" d="M278.1309,206.4445c-2.508,0-2.5144,3.2,0,3.2C280.639,209.6447,280.6454,206.4445,278.1309,206.4445Z"/></g></svg>