<svg xmlns="http://www.w3.org/2000/svg" viewBox="0 0 400 400"><defs><style>.cls-1{fill:#89d1e9;}.cls-2{fill:#ffeda5;}.cls-3{fill:#ffd499;}.cls-4{fill:#ba1815;}.cls-5{fill:#c12f2d;}.cls-6{fill:#d91815;}</style></defs><g id="Graphics"><path class="cls-1" d="M292.6386,165.4347c-2.0613-4.0083-4.9538-7.6382-7.5133-11.3355q-4.0654-5.8733-8.1308-11.7456c-1.2622-1.8232-2.4606-3.7461-4.4249-4.8891a17.8047,17.8047,0,0,0-5.9816-1.7032c-4.6756-.8276-9.353-1.6464-14.0428-2.3906a240.6144,240.6144,0,0,0-28.3043-3.0576,132.4138,132.4138,0,0,0-28.1125,1.9009,69.2906,69.2906,0,0,1-13.6454,1.52c-4.6027-.1138-9.017-1.1773-13.5914-.0591-4.0315.9854-7.73,3.0376-11.8056,3.8565-3.8959.7827-7.927.32-11.8638.7329a19.4961,19.4961,0,0,0-5.7564,1.3984,25.5209,25.5209,0,0,0-4.9754,3.2949,7.1243,7.1243,0,0,1-4.9794,1.6465,13.2853,13.2853,0,0,1-5.2138-1.8511,37.3236,37.3236,0,0,1-4.9394-3.4248c-.8013-.6318-2.5575-.7065-3.1411.3243q-6.4124,11.3224-12.8247,22.6455-3.1756,5.6073-6.3513,11.2153-1.5877,2.8037-3.1756,5.6074a11.7734,11.7734,0,0,0-1.8921,4.9526c-.2276,3.4283,2.4113,6.1309,4.6028,8.4058a45.7447,45.7447,0,0,1,6.5247,8.6172c3.7048,6.3149,5.9751,13.3921,7.7681,20.4541,2.295,9.04,3.8648,18.2622,6.7789,27.1387.4543,1.3833,2.5769,1.4365,3.5022.5815a2.2826,2.2826,0,0,0,.52-.07,49.1711,49.1711,0,0,0,6.73-2.3062q-.0071,1.2269-.0139,2.4537c-.0077,1.375,1.9679,1.9975,3.01,1.3813q3.3971-2.0091,6.7943-4.0186-.0285,1.6407-.0569,3.2818c-.0238,1.3706,1.982,2.0029,3.0094,1.3813q4.2281-2.5569,8.456-5.1142.9556-.5787,1.9112-1.1563c-.0165.4151-.0167.8-.0075.9214a2.5026,2.5026,0,0,0,1.7851,2.2588c1.5492.49,3.0983-.8286,4.4131-1.5127,1.6321-.8491,3.2955-1.6328,4.98-2.3682l-.5353,2.52c-.33,1.5532,1.6523,2.5439,2.938,1.8071,2.2155-1.27,4.4824-2.44,6.79-3.5283q-.1383.6591-.2766,1.3188a1.74,1.74,0,0,0,1.9285,2.0254,14.2758,14.2758,0,0,0,7.1266-3.1724c1.2745-.9443,3.0545-2.4873,4.8369-2.8081a14.8651,14.8651,0,0,0-1.1748,5.6031c-.0186,1.4331,1.9562,1.9155,3.0094,1.3813q4.6272-2.3466,9.2544-4.6938a16.8583,16.8583,0,0,1-.201,2.6152c-.2469,1.6011,2.5317,1.9741,3.4142,1.1313a27.3856,27.3856,0,0,1,10.7423-6.3662q-.0372.5479-.0741,1.0952a11.3549,11.3549,0,0,0-.0954,2.566c.3684,2.2065,2.865,2.4282,4.5655,1.64,1.8548-.86,3.6231-2.0308,5.4044-3.0337l1.5082-.85c-.23.8916-.4563,1.7842-.6435,2.688-.392,1.8945,2.07,2.4805,3.3428,1.5571a45.5107,45.5107,0,0,1,9.3831-5.2514c-.0472.061-.09.1181-.1186.1626a4.7147,4.7147,0,0,0-.7282,2.1362,2.8872,2.8872,0,0,0,2.95,3.22,5.6975,5.6975,0,0,0,2.9084-1.0928q1.6755-.9909,3.351-1.9829l2.2218-1.3144q-.4083,1.53-.8164,3.06a1.628,1.628,0,0,0,1.3969,1.9683c2.7524.4023,5.0056-.7031,7.1083-2.3921.71-.57,1.479-1.3325,2.3092-1.9868a5.834,5.834,0,0,0,.3951,2.13,2.214,2.214,0,0,0,3.3427.706c.902-.7329,1.77-1.5019,2.6212-2.289a2.8038,2.8038,0,0,0,2.4517,2.1743c1.8663.3051,3.9155-.834,5.3749-1.897a11.5247,11.5247,0,0,0,3.51-4.313,1.1464,1.1464,0,0,0-.3175-1.34,284.2993,284.2993,0,0,1,16.858-49.47C292.2205,182.3624,296.97,173.8575,292.6386,165.4347ZM108.1973,181.6256a5.021,5.021,0,0,0,.6231-.0195q.0777.8305.1553,1.6621Zm16.3473,5.6147c.758-1.4111,1.5353-2.8017,2.3258-4.1484q.5073-.4154,1.0147-.83Q126.2038,184.744,124.5446,187.24Zm4.192-30.7226a1.8908,1.8908,0,0,0-.5062-.3423q1.0623-.3714,2.1247-.7422C129.805,155.78,129.2773,156.1578,128.7366,156.5177Zm1.952,83.5639c.4946-.3334.9946-.6586,1.49-.9916a1.809,1.809,0,0,0,.2195.2246C131.8286,239.5724,131.2626,239.8365,130.6886,240.0816Zm10.83-25.478q.31-.6019.62-1.2051.8016-1.0517,1.6032-2.103C142.987,212.3893,142.2509,213.4952,141.5188,214.6036Zm2.7189,8.836-.0256-.0059c.3682-.6895.7566-1.3672,1.1311-2.0532a2.3584,2.3584,0,0,0,.5315.0517C145.3281,222.1007,144.7882,222.7745,144.2377,223.44Zm29.756-4.9693c-.573.24-1.152.4654-1.7235.7085,1-.7788,2.0177-1.5361,3.043-2.2837Q174.6379,217.6715,173.9937,218.47Zm14.44,21.05c-.0425.043-.0714.086-.1085.1289a8.0018,8.0018,0,0,0-1.6093-.2529q1.3075-.33,2.6015-.7095C189.0212,238.963,188.72,239.2316,188.4334,239.52Zm1.0515-50.333q-2.9383,2.3534-5.8766,4.7061-5.0249,4.0239-10.05,8.0483,8.1738-6.9492,16.69-13.48C189.9984,188.7081,189.7366,188.9425,189.4849,189.1871Zm4.9666,52.9605c.5763-.4,1.1631-.7837,1.7441-1.1763a2.5312,2.5312,0,0,0,.4466.0649Q195.5468,241.5921,194.4515,242.1476Zm3.6667-71.9766a1.0925,1.0925,0,0,0,.154-1.1323c.8054-.3013,1.6145-.5933,2.4227-.8867C199.82,168.8058,198.97,169.4894,198.1182,170.171Zm4.6623,26.2485c.4392-.38.8777-.7617,1.3189-1.14l.0906-.0557a1.56,1.56,0,0,0,.2082.35Q203.589,195.9957,202.7805,196.42Zm6.56-13.4589c-.72.3374-1.4455.6689-2.1613,1.0122q1.4814-.9976,2.9674-1.9869a1.53,1.53,0,0,0,.0582.32C209.9152,182.5231,209.6283,182.7428,209.34,182.9606Zm5.3113,57.5239.034-.5025c.0014-.021-.0066-.0376-.0061-.0586q.9027-.3083,1.8055-.6162C215.8711,239.6954,215.2582,240.0851,214.6513,240.4845Zm-2.3177-67.6626q-1.3895,1.01-2.7518,2.0556a2.9589,2.9589,0,0,0-.103-.3437c.19-.1289.3745-.2647.5642-.3936q3.8518-2.6139,7.7668-5.1328Q215.0375,170.8605,212.3336,172.8219Zm65.1769-13.4141c.0208.2437.0382.4873.0617.73a2.4221,2.4221,0,0,0-1.2059.3,1.3678,1.3678,0,0,0-.3375-.3716C276.5261,159.8551,277.0188,159.6324,277.5105,159.4078Zm-23.5013,51.0435c-.0818.2344-.1609.47-.2412.7046l-2.5785,1.4248c-.0727-.0122-.1461-.0176-.22-.0225Q252.4853,211.4985,254.0092,210.4513ZM246.353,181.8c.8439-.1929,1.7049-.3618,2.5719-.51q-.4558.1948-.91.3916c-.56.2442-1.1151.4986-1.6734.7466a1.3636,1.3636,0,0,0-.0964-.601C246.2815,181.819,246.317,181.8087,246.353,181.8Zm-5.5768-46.88c.7325.0918,1.4621.2046,2.1938.3023-1.3539-.0352-2.7082-.0987-4.0565-.21q-1.5432-.3128-3.0821-.6494C237.482,134.5323,239.1311,134.7135,240.7762,134.92Zm3.7154,65.2115c.071-.0337.1432-.064.2143-.0977-5.1118,2.5845-10.2325,5.1514-15.3283,7.7651Q236.8244,203.7559,244.4916,200.1315ZM264.8,234.1788l-.1451.7676c-.1588.1279-.3059.2666-.4584.4l.7862-2.7173Z"/><path class="cls-2" d="M320.3468,298.5983q-18.4312-21.6915-37.5019-42.8282-4.105-4.5483-8.2485-9.0615c.6072.0122,1.2144.0176,1.8215.0308,2.5131.0547,2.507-3.1455,0-3.2-1.6309-.0357-3.2621-.0547-4.893-.086a2.29,2.29,0,0,0-2.2787-.19,1.6845,1.6845,0,0,0-.24.1465q-26.8776-.4738-53.7611-.1631-30.586.375-61.1476,1.7915-17.141.7955-34.2646,1.9175c-.9091.0595-1.985.5425-2,1.6a1.2488,1.2488,0,0,0,.1382.5669A483.5984,483.5984,0,0,0,81.863,292.1393q-4.87,6.5435-9.5161,13.25a1.3083,1.3083,0,0,0,.5429,2.0429,2.1456,2.1456,0,0,0,1.8082.9117q40.0946-1.0957,80.1892-2.1909c1.3672.1264,2.7367.2221,4.1052.331a2.1315,2.1315,0,0,0,1.7732.8677l6.964-.29a311.7633,311.7633,0,0,0,41.7033-.5756q7.7376-.6336,15.4378-1.65,31.8626.2043,63.6622-2.334,15.5057-.424,31.0114-.8472c.9107-.0254,1.9853-.5669,2-1.6A1.6208,1.6208,0,0,0,320.3468,298.5983Zm-231.265.3872c-.2534.0214-.507.04-.76.0615.0954-.1651.1947-.3277.29-.4922a2.3208,2.3208,0,0,0,.5605.0527A1.0091,1.0091,0,0,0,89.0818,298.9855Zm1.9683,5.7114q1.9445-.07,3.8894-.127c.0445.0059.089.0113.1335.0171Zm57.02-23.97c-.4164.0561-.8333.1093-1.2493.1679.9-.3315,1.796-.6738,2.697-1.0024C149.0356,280.172,148.552,280.4483,148.07,280.7272Zm131.2993,13.1977c-.7862.0469-1.5717.106-2.357.167a1.4792,1.4792,0,0,0-.0381-.3472C277.7727,293.8019,278.5715,293.8551,279.3691,293.9249Zm-28.46-9.81c-.0176.0312-.0265.0654-.0409.0981-.6475.0523-1.295.104-1.9408.1719.1671-.0537.3346-.106.5006-.1626.4584-.0786.9141-.17,1.3745-.2368C250.8382,284.0279,250.8734,284.0714,250.9093,284.1144Zm-23.15,9.5962c-1.1848-.0245-2.3695-.0567-3.5543-.0733,1.0113-.0395,2.0236-.061,3.0359-.0791C227.4134,293.609,227.5864,293.6588,227.759,293.7106Zm78.9125-.0323c-.0668.0025-.1337.0054-.2.0078a3.0411,3.0411,0,0,0-.87-.2265,1.4888,1.4888,0,0,0-.0875-.6655C305.8972,293.0919,306.2818,293.3883,306.6715,293.6783Zm-57.4931-41.5c-.472.1812-.9475.3536-1.4191.5357l-.0014,0c.0043-.0425.0171-.08.0178-.1245a1.1642,1.1642,0,0,0-.0594-.3633C248.2038,252.2081,248.691,252.1935,249.1784,252.1778Zm-27.9815.4141c-.3525.0967-.7019.2065-1.0532.3086-.83-.0425-1.66-.0835-2.4911-.1133C218.8337,252.7159,220.0153,252.6544,221.1969,252.5919ZM179.6458,248.09c2.6077-.0606,5.2158-.0987,7.8239-.1441-.0736.0122-.1473.023-.2208.0357l-14.3591.4628c-1.4516-.0083-2.9032-.0273-4.3548-.0405Q174.09,248.2274,179.6458,248.09Zm-24.1545,7.6118c.5631-.0288,1.1309-.04,1.6976-.0367q-.5673.3736-1.1344.7476a3.3131,3.3131,0,0,0-1.0122-.6768C155.192,255.7272,155.3416,255.71,155.4913,255.7018Z"/><path class="cls-3" d="M198.9389,249.3243c-.0381-2.1152-4.0381-2.1152-4,0q.4191,23.2266.838,46.4527c.0381,2.1152,4.0381,2.1157,4,0Q199.358,272.5512,198.9389,249.3243Z"/><path class="cls-3" d="M185.9907,248.9679q-9.2287,24.4929-18.4574,48.9858c-.7838,2.08,3.1366,2.7632,3.8571.8506l18.4574-48.9853C190.6317,247.7384,186.7113,247.0558,185.9907,248.9679Z"/><path class="cls-3" d="M225.6824,296.3468A273.13,273.13,0,0,1,209.7735,248.85c-.4651-1.9746-4.3719-1.3349-3.8571.8506a273.13,273.13,0,0,0,15.9089,47.4971C222.6444,299.0563,226.5736,298.3692,225.6824,296.3468Z"/><path class="cls-3" d="M254.0914,296.5377q-14.5318-23.8938-27.7232-48.5659c-.9514-1.78-4.5774-.4868-3.4538,1.6147q13.1855,24.6621,27.7231,48.5664C251.6884,299.881,255.3316,298.5768,254.0914,296.5377Z"/><path class="cls-3" d="M283.0745,296.4371a461.2177,461.2177,0,0,1-34.9063-48.2822c-1.0766-1.7124-4.7243-.4053-3.454,1.6147a461.1745,461.1745,0,0,0,34.9065,48.2828,2.3169,2.3169,0,0,0,2.7364.5737A1.4682,1.4682,0,0,0,283.0745,296.4371Z"/><path class="cls-3" d="M303.14,294.0963a410.1937,410.1937,0,0,1-36.8664-45.7749c-1.1512-1.66-4.8115-.3423-3.4539,1.6152a410.1435,410.1435,0,0,0,36.8665,45.7744,2.3448,2.3448,0,0,0,2.7363.5743C303.1618,295.9278,303.84,294.8473,303.14,294.0963Z"/><path class="cls-3" d="M170.2284,250.1046q-14.4246,24.082-28.8494,48.165c-1.2245,2.044,2.4123,3.354,3.4538,1.6148q14.4249-24.0821,28.85-48.1651C174.9068,249.6754,171.27,248.3653,170.2284,250.1046Z"/><path class="cls-3" d="M152.3809,248.526Q136.3486,273.0893,121.08,298.14c-1.24,2.0346,2.3987,3.3461,3.4538,1.6152q15.2672-25.0475,31.3015-49.6143C157.1365,248.1466,153.4889,246.8282,152.3809,248.526Z"/><path class="cls-3" d="M130.3978,250.1544q-14.8309,19.8676-28.1656,40.7935-3.7953,5.96-7.4629,12.0009c-1.2375,2.0367,2.4011,3.3477,3.4539,1.6153q12.8751-21.1875,27.2915-41.3833,4.1077-5.7495,8.337-11.4112C135.2705,249.8692,131.6068,248.5353,130.3978,250.1544Z"/><path class="cls-4" d="M268.239,138.8287a90.0637,90.0637,0,0,1-2.4731-28.8139c.3-.733.5857-1.4717.8992-2.1993a1.1581,1.1581,0,0,0-.119-1.249,1.3369,1.3369,0,0,0-.1381-.7026,2.1557,2.1557,0,0,0-2.36-.9263c-18.0941,3.6758-36.65,3.4629-55.02,2.98-18.3639-.4829-36.8251-1.28-55.0988,1.1055-2.2516.2939-4.4936.6508-6.7257,1.0566q-12.948.0447-25.8959.01a1.8425,1.8425,0,0,0-1.6378.7734c-1.319.7739-.9557,2.9238,1.1068,2.9238a2.3507,2.3507,0,0,0,.794-.13,1.1955,1.1955,0,0,0-.1454.7017,14.2708,14.2708,0,0,1,.0571,1.5312,1.5024,1.5024,0,0,0-.1952.5308q-.3447,2.2624-.6893,4.5239a1.1705,1.1705,0,0,0,.5867,1.1963c-.1532.55-.2795,1.1-.4083,1.5987-.2274.88-.4217,1.769-.5955,2.6626a21.7875,21.7875,0,0,0-1.0629,12.2651c.51,3.1035,1.4232,11.2671,6.4466,9.6509a3.4374,3.4374,0,0,0,.3867-.1524,5.9361,5.9361,0,0,0,1.8465.1646,4.1751,4.1751,0,0,0,1.3849.4092,2.4319,2.4319,0,0,0,2.9729-.4c.1349-.17.259-.3476.39-.52a7.6509,7.6509,0,0,0,2.4652-3.8842q.3718-.709.7015-1.4385a1.8222,1.8222,0,0,0,2.0415-1.1641,32.94,32.94,0,0,0,.8159-5.2871,1.8772,1.8772,0,0,0,.3093.2085,6.8863,6.8863,0,0,0,3.8411,7.6426,2.4413,2.4413,0,0,0,.8052.2085,2.9813,2.9813,0,0,0-.1249.876c.0184.86.74,1.3134,1.4683,1.5424a6.7216,6.7216,0,0,0,1.9876.2964,1.3777,1.3777,0,0,0,.2407.9092,2.3029,2.3029,0,0,0,2.7364.5737c5.3433-2.2807,7.5507-7.455,8.8045-12.7378a5.303,5.303,0,0,0,2.6087,3.7139,5.786,5.786,0,0,0,1.0457,2.0147,5.232,5.232,0,0,0,1.5378,1.2685,4.6748,4.6748,0,0,0,.841,1.3745,6.1331,6.1331,0,0,0,5.2153,1.7847,5.2324,5.2324,0,0,0,2.3655.22,8.3406,8.3406,0,0,0,6.9418-7.4433,5.68,5.68,0,0,0-.3356-2.2486,6.9126,6.9126,0,0,0,.801,1.188,13.0169,13.0169,0,0,0,2.6347,3.3955,1.5622,1.5622,0,0,0,.3407.2373c-.0306.0947-.0725.1836-.0945.2822-.4229,1.8985,1.03,3.587,2.7026,4.2647a6.9958,6.9958,0,0,0,5.091-.0313c.0425.0176.0849.04.1273.0538a2.2882,2.2882,0,0,0,2.4975-.6548,35.7819,35.7819,0,0,0,2.7875-3.7613,27.8261,27.8261,0,0,0,2.3651-3.75,27.4233,27.4233,0,0,0,1.267-2.7857,16.9252,16.9252,0,0,0,3.067,4.4614,12.9648,12.9648,0,0,0,11.0242,3.8321c3.6341-.5078,6.0213-2.8394,7.6582-5.82.0176.0552.0276.1114.0461.1665a9.6717,9.6717,0,0,0,5.5585,6.1373c4.8314,1.7749,9.6926-.7964,12.4539-4.7476a5.6882,5.6882,0,0,0,3.1817,3.0229,8.26,8.26,0,0,0,7.36-.6381,11.6129,11.6129,0,0,0,4.5661-6.3638,30.3356,30.3356,0,0,0,.942-3.8706,28.2459,28.2459,0,0,0,1.4158,5.2285,1.8709,1.8709,0,0,0,1.4468,1.106,4.09,4.09,0,0,0,2.7745,1.6377c.0741.0092.1486.0058.2229.0107.3562.3721.7077.748,1.0855,1.1016a2.1617,2.1617,0,0,0,2.4684.2011C265.6127,141.6051,268.7208,140.7272,268.239,138.8287Z"/><path class="cls-5" d="M303.3146,275.4288c-3.53-9.7969-4.6835-20.168-4.9329-30.5254-.26-10.8037.2268-21.6308.4846-32.4306q.81-33.9083,1.62-67.8155.4584-19.1974.9169-38.395c.0271-1.1362-1.12-1.6577-2.1922-1.5713a1.7878,1.7878,0,0,0-1.5863-.7021,252.9247,252.9247,0,0,1-28.7036.5434c-.98-1.2607-3.849-.99-3.6774.7886.07.729.1666,1.4551.2488,2.1826-.6214.0318-1.241.0689-1.8567.12-.9079.0751-1.9848.5317-2,1.6-.0153,1.0737,1.119,1.5307,2,1.6.7613.06,1.5235.0987,2.2855.1417.0543.3906.1165.78.1742,1.1708a1.2086,1.2086,0,0,0,.19,1.2774c.0629.4.1125.8027.1789,1.2026a24.0535,24.0535,0,0,0-.2231,10.4346,63.12,63.12,0,0,0,3.2826,11.9458,68.4987,68.4987,0,0,0,8.4861,15.7275c.2166.4112.4276.8243.65,1.2325a91.5027,91.5027,0,0,0,6.6659,10.4336,2.1993,2.1993,0,0,0,2.3114.67c.964,1.3115,1.9562,2.605,2.9943,3.8677a1.9792,1.9792,0,0,0,.9464.622c-12.7093,25.0454-23.7888,52.0454-25.5252,80.3721a2.0013,2.0013,0,0,0-2.628,1.5107c-.7236,9.2032-1.4357,18.4141-1.487,27.6509a1.4552,1.4552,0,0,0,.3039.93q-.8839.3925-1.7584.7993c-2.3657,1.1006.0436,3.6816,2.0189,2.7632,5.8974-2.7432,12.2048-5.2232,18.8051-5.2378,3.2614-.0068,6.3642.9595,9.5988,1.1895a34.7311,34.7311,0,0,0,10.3856-1.35,1.827,1.827,0,0,0,1.35-1.1A1.3175,1.3175,0,0,0,303.3146,275.4288Zm-25.6122-.061a1.4235,1.4235,0,0,0,.0035-.2588c-.0035-.0332-.0061-.0664-.01-.1q.2193-.0894.4383-.1792c.3359.0806.67.1582.9938.2431q.2461.0637.4923.128C278.9786,275.2413,278.3388,275.2945,277.7024,275.3678Z"/><path class="cls-5" d="M125.8725,276.9908q-4.07-21.1537-9.412-42.0342c-1.7156-6.6914-3.4969-13.3725-5.4513-19.9985a110.3724,110.3724,0,0,0-6.0741-16.5542,51.7633,51.7633,0,0,0-9.9316-14.4219C107.6368,168.7,114.9989,149.6,118.7493,130.2374c1.1893-6.1406,2.0489-12.3408,2.6258-18.5679a1.3725,1.3725,0,0,0-.0041-.1386c.2778-1.39-1.2843-2.0938-2.4713-1.8643A136.8991,136.8991,0,0,1,82.9155,111.76a2.0526,2.0526,0,0,0-1.6474.7134,1.3609,1.3609,0,0,0-.4547,1.0332c.06,8.3906.9345,16.81,1.4955,25.1787l.1867,2.7871c-.0011.0449-.0107.0854-.0079.1323l.1789,2.9785c.0315,9.63.2912,19.2559,1.0075,28.8643q.4961,6.6533,1.3139,13.2763l5.9967,74.4341q.949,11.7825,1.8983,23.564a1.67,1.67,0,0,0,1.3865,2.2661c1.0218.3071,2.2992,0,2.6062-.9087a30.847,30.847,0,0,1,14.481-3.7344c5.1656-.0092,11.4412,1.543,15.0521-3.3247A1.324,1.324,0,0,0,125.8725,276.9908ZM89.3357,191.04l-.0478-.5938a1.43,1.43,0,0,0,.0971-.6172l-.0019-.0307c.107.3955.2191.79.3249,1.1855A2.9315,2.9315,0,0,0,89.3357,191.04Zm18.729,57.6025a1.599,1.599,0,0,0-.6972.4336c0-.0093.0028-.0171.0026-.0259-.003-.1592-.01-.3179-.0132-.4766a1.015,1.015,0,0,0,.2206-.7666q-.0792-.602-.1585-1.2041Z"/><path class="cls-6" d="M103.5939,222.98q-1.598-8.37-3.563-16.6646c-.4665-1.9746-4.3734-1.3344-3.8571.8506a386.7929,386.7929,0,0,1,9.1711,58.4449q.6619,8.3737.9606,16.77c.0765,2.1157,4.0763,2.1108,4,0A392.4649,392.4649,0,0,0,103.5939,222.98Z"/><path class="cls-6" d="M93.1956,231.4337q-1.1692-7.4875-2.581-14.9341c-.3753-1.9824-4.2743-1.3525-3.8571.8511a448.8776,448.8776,0,0,1,6.7661,52.603q.5235,7.59.79,15.1944c.0754,2.1157,4.0752,2.1113,4,0A452.495,452.495,0,0,0,93.1956,231.4337Z"/><path class="cls-6" d="M119.9459,237.4591q-2.5509-10.3946-5.9448-20.5576a123.1988,123.1988,0,0,0-6.8224-17.0288,53.1548,53.1548,0,0,0-10.8024-14.8638,138.3136,138.3136,0,0,0,23.8312-52.9717,138.1712,138.1712,0,0,0,2.7147-19.3755c.1427-2.0947-3.8557-2.1176-4,0a135.474,135.474,0,0,1-21.358,64.0572c-1.4243,2.2011-2.9289,4.3476-4.4794,6.46a2.4612,2.4612,0,0,0-1.2737.6382,155.234,155.234,0,0,0,10.2864-36.1055q1.0113-6.4226,1.47-12.9136c.1507-2.0937-3.8476-2.1171-4,0a152.3681,152.3681,0,0,1-12.2093,49.6153q-1.0493-27.7654-2.0985-55.53-.324-8.5708-.6478-17.1406a1.8623,1.8623,0,0,0-2.121-1.5811c-.0418-.0019-.0786-.01-.1219-.01a1.6233,1.6233,0,0,0-1.7322,2.25q1.1283,29.8527,2.2563,59.7055.324,8.57.6478,17.1407a1.5392,1.5392,0,0,0,.9949,1.3681c-.3021.8887.4124,1.49,1.3358,1.6641a1.5747,1.5747,0,0,0,.8968,1.91,2.3181,2.3181,0,0,0,2.7364-.5742c1.6175-1.8584,3.1719-3.77,4.6848-5.7143,7.7319,7.6411,11.9588,18.125,15.4213,28.2734a261.881,261.881,0,0,1,10.2593,40.2935c1.3155,7.6723,2.2616,15.4077,2.8838,23.1665.1693,2.1108,4.168,2.0947,4,0A266.39,266.39,0,0,0,119.9459,237.4591Z"/><path class="cls-6" d="M303.0517,103.4571c.1494-2.0937-3.8489-2.1171-4,0q-2.1007,29.4243-2.09,58.9478.0028,4.0686.0478,8.1367a140.874,140.874,0,0,1-11.4584-38.5141,1.8994,1.8994,0,0,0-2-1.6c-.7778,0-2.1466.5893-2,1.6a144.4461,144.4461,0,0,0,10.0721,35.9609,72.3665,72.3665,0,0,1-23.9172-45.4873,69.1455,69.1455,0,0,1,.1126-17.2188c.2731-2.06-3.7218-2.0991-4,0-2.761,20.8286,4.319,42.5889,18.1926,58.2754a72.4839,72.4839,0,0,0,7.73,7.5337,1.65,1.65,0,0,0-1.3947.8247,236.2476,236.2476,0,0,0-27.1685,84.375,232.6655,232.6655,0,0,0-1.7139,25.1612c-.03,2.1118,3.97,2.12,4,0A232.9836,232.9836,0,0,1,281.11,195.8951a228.6663,228.6663,0,0,1,10.69-22.3637,1.6933,1.6933,0,0,0,.2-.6241q1.3781,1.0606,2.8129,2.0479.6786,1.3784,1.3875,2.7431a2.1572,2.1572,0,0,0,.9356.9351c.003.1494.004.2993.0071.4487.0441,2.1158,4.044,2.1148,4,0q-.6142-29.4932.8854-58.978Q302.4553,111.7758,303.0517,103.4571Z"/><path class="cls-6" d="M286.1642,196.1969A189.1088,189.1088,0,0,0,274.711,256.65q-.2049,8.75.4153,17.49c.1479,2.1128,4.1469,2.0991,4,0A186.3656,186.3656,0,0,1,284.83,213.51q2.21-8.3483,5.1911-16.4624C290.7865,194.9576,286.8669,194.2775,286.1642,196.1969Z"/><path class="cls-6" d="M302.96,273.6666c-6.4033-22.2524-3.9693-45.6377-3.8686-68.4551.029-6.5761-.1354-13.1552-.723-19.7075-.1891-2.1089-4.1874-2.09-4,0,2.0859,23.2578-1.34,46.6485,1.1051,69.8867a111.2107,111.2107,0,0,0,3.6293,19.1265C299.6658,276.4737,303.58,275.8224,302.96,273.6666Z"/><path class="cls-6" d="M268.4547,139.2784a2.3159,2.3159,0,0,0-2.7364-.5742c-.0341.0142-.2748.1016-.3776.1416-.0986.0264-.2578.0713-.2875.0786q-.27.0681-.5445.1162c-.0485.0083-.1608.0225-.2391.0332-.2684.02-.5371.0357-.8063.0308-.1587-.0024-.3166-.0151-.4751-.021-.0249-.001-.0335,0-.0517-.001-.0166-.0029-.0243-.0053-.0482-.0093-.3417-.06-.68-.1167-1.016-.2026-.1438-.0366-.2855-.08-.4275-.1221-.0548-.018-.1657-.0551-.2392-.0835q-.45-.175-.8833-.3911-.2166-.1076-.4281-.2256c-.0734-.041-.146-.0834-.2185-.1264a12.7365,12.7365,0,0,1-1.5727-1.251c-.0347-.0317-.054-.0483-.0739-.0654-.0165-.02-.031-.0376-.06-.0713-.1052-.1206-.2125-.2388-.3144-.3623a9.5135,9.5135,0,0,1-.6146-.8335c-.07-.1069-.1356-.2168-.2018-.3262a8.1519,8.1519,0,0,0-.49-3.2275,1.8508,1.8508,0,0,0-1.3618-1.105,2.1465,2.1465,0,0,0-1.0437-.2373c-.849.03-2.06.5591-2,1.6a9.7334,9.7334,0,0,0,.8736,3.4731,7.342,7.342,0,0,1-.5325,1.8877,7.8271,7.8271,0,0,1-1.2859,2.0034,2.4851,2.4851,0,0,1-.3367.3536c-.1376.1269-.277.2519-.4214.3706-.1682.1386-.3426.268-.52.3945-.0191.0137-.1381.0918-.1959.1313-.0586.0323-.1707.0967-.1882.106-.1912.1006-.3835.1973-.5817.2832-.1047.0454-.2107.0874-.3172.1279-.2018.0606-.4061.1133-.6126.1548-.1161.0235-.2328.0425-.35.0611-.0151,0-.0256.0019-.0431.0024-.2209.0059-.44.0068-.661.0049-.0552,0-.1106-.0059-.1662-.01-.0477-.0063-.1115-.0146-.1386-.021-.2111-.0473-.4225-.0879-.633-.14-.0515-.0127-.1022-.0293-.1534-.0445-.0433-.018-.2057-.0761-.2421-.0927a6.0948,6.0948,0,0,1-1.9966-1.314,6.9513,6.9513,0,0,1-.6955-.7891,8.3394,8.3394,0,0,1-.7234-1.101c-.0992-.1841-.1886-.3746-.27-.5684a9.913,9.913,0,0,0-.0257-5.5151,1.994,1.994,0,0,0-2.4723-1.09,1.8094,1.8094,0,0,0-1.5256,1.0947,8.593,8.593,0,0,0-.1008,5.51c-1.1438,3.0889-4.07,5.6279-7.3653,5.58-3.7672-.0547-6.621-3.0454-7.7707-6.5073a8.021,8.021,0,0,0-.4248-3.6993,1.5,1.5,0,0,0-.1039-.2084c.0132-.2032.0223-.4073.0494-.607.1364-1.0054-1.1992-1.6-2-1.6a1.8845,1.8845,0,0,0-2,1.6,11.5753,11.5753,0,0,0,.3715,4.7232,7.863,7.863,0,0,1-7.8536,5.88c-4-.3378-7.1229-3.3686-9.1418-6.7988.0283-.1157.0595-.2339.0868-.3486a1.5906,1.5906,0,0,0-1.2343-1.8989c-.1506-.3438-.2936-.6871-.4215-1.0269-.7179-1.9072-4.6423-1.2353-3.8572.8506a23.4521,23.4521,0,0,0,1.2749,2.7886c-.9735,3.8325-2.6341,8.7588-6.6936,9.6338-2.5579.5517-5.2082-1.0718-6.8381-2.9263-2.0615-2.3462-3.246-5.2637-4.4125-8.1192-.77-1.8837-4.6969-1.2045-3.8572.8511q.2262.553.4574,1.1074a1.487,1.487,0,0,0,.06.5767c1.2724,4.1079-2.4072,9.2764-6.8285,8.3633a9.8382,9.8382,0,0,1-5.4157-3.87,30.1474,30.1474,0,0,1-3.152-5.0372c-.0335-.0971-.054-.1953-.0915-.292a1.5244,1.5244,0,0,0-.2566-.42c-.1612-.3286-.3269-.6548-.482-.9858a2.1494,2.1494,0,0,0-2.46-1.1172c-.7842.1743-1.8333,1.0371-1.397,1.9678.27.5761.55,1.1577.84,1.7387,1.3561,4.2486-2.5468,9.1617-6.9578,9.2066-4.2185.043-7.542-3.1943-9.339-6.8721.0011-.14.0133-.2778.0088-.4175a1.4625,1.4625,0,0,0-.6917-1.205c-.1435-.4024-.2754-.8042-.3808-1.2037-.5191-1.9658-4.43-1.32-3.8571.8511a17.1734,17.1734,0,0,0,.8942,2.5337c-.4106,4.3687-4.412,8.6455-9.0168,8.0977-4.6331-.5513-8.1016-5.8477-7.1986-10.3243a1.6535,1.6535,0,0,0-1.3968-1.9677c-.8-.1782-2.2606.1279-2.46,1.1172a12.2908,12.2908,0,0,0,6.2459,12.96c4.93,2.7979,11.0052,1.2544,14.736-2.7666a11.9915,11.9915,0,0,0,1.89-2.7065,15.1956,15.1956,0,0,0,6.7119,4.501,11.8167,11.8167,0,0,0,13.5663-4.9175,10.9838,10.9838,0,0,0,.6745-1.2862,16.1349,16.1349,0,0,0,5.04,4.4522,10.1792,10.1792,0,0,0,13.39-3.3511,10.6969,10.6969,0,0,0,.6576-1.1973,17.0439,17.0439,0,0,0,1.8279,2.2022,11.9457,11.9457,0,0,0,9.8742,3.6543c4.8134-.6372,7.4837-4.5142,9.1024-8.7485,2.8036,3.2348,6.5737,5.5473,10.9994,5.5649a12.5261,12.5261,0,0,0,9.5056-4.7725,13.02,13.02,0,0,0,5.2076,4.1914,11.8231,11.8231,0,0,0,14.0791-3.9,10.3444,10.3444,0,0,0,3.177,2.4517,9.696,9.696,0,0,0,12.53-4.1821c.042-.0752.0754-.1543.1156-.2305a11.9655,11.9655,0,0,0,12.0949,2.2173A1.4731,1.4731,0,0,0,268.4547,139.2784Z"/></g></svg>