<svg xmlns="http://www.w3.org/2000/svg" viewBox="0 0 400 400"><defs><style>.cls-1{fill:#bfeaf6;}.cls-2{fill:#99f;}.cls-3{fill:#e5d6ff;}.cls-4{fill:#89d1e9;}</style></defs><g id="Graphics"><path class="cls-1" d="M271.1108,337.2431a45.3447,45.3447,0,0,0-8.7667-12.69c-.4369-.7061-.8578-1.4224-1.2982-2.1265q-10.9262-17.47-23.2641-33.997c-3.4144-8.36-8.9616-16.0079-10.9052-24.9146a49.741,49.741,0,0,1-.8413-10.1592c-.0329-3.55-.0441-7.1-.0654-10.65-.0294-4.8979.3054-10.1738-.9374-14.9936a3.172,3.172,0,0,0,.9862-1.314,10.0382,10.0382,0,0,0,.2068-3.7612c-.0084-.32-.0331-.6348-.0484-.9531a1.3308,1.3308,0,0,0,.7324-.9336,47.898,47.898,0,0,0,.2818-17.1607q.226-17.99.4521-35.979c.0244-1.9448.2455-4.0835-.425-5.9516a6.6243,6.6243,0,0,0-2.8058-3.3189,1.5343,1.5343,0,0,0-1.303-1.9829c-11.07-2.43-22.3042-2.2837-33.4819-1.1138-4.0507.03-8.1038.1084-12.149.295-3.3672.1547-6.8692.6308-9.4394,2.85-.1581.0263-.3168.0532-.4748.0795-.641.1084-1.5671.7808-1.4683,1.543,1.35,10.417,3.27,20.96,3.3522,31.4854.08,10.2539-2.2418,20.4912-1.03,30.74.065.55.1331,1.123.2085,1.7021a1.312,1.312,0,0,0-.8746,1.2989c2.0449,13.5449,2.0776,27.8652-1.1031,41.2446a62.2468,62.2468,0,0,1-3.016,9.438c-.1758.4243-.38.8467-.59,1.269a1.5507,1.5507,0,0,0-.61.5738q-8.7391,14.7326-18.27,28.9756c-5.6835,8.4868-12.1419,16.7666-15.9046,26.35-1.7979,4.58-3.143,9.7788-2.6941,14.7334a14.78,14.78,0,0,0,7.122,11.5063c4.3838,2.729,9.5405,3.4609,14.6166,3.62,5.7946.1817,11.6123.0625,17.4085,0q19.7877-.2124,39.5552-1.2314,17.9077.5493,35.83.249c10.1164-.1636,23.8978.5816,30.7329-8.521a12.6116,12.6116,0,0,0,2.626-7.7851A21.6511,21.6511,0,0,0,271.1108,337.2431ZM172.5246,206.7754c.04.6152.0876,1.23.1246,1.8452-.1061.1347-.2068.2715-.2976.4106Q172.4322,207.9034,172.5246,206.7754Zm-13.74,145.5107c.0908-.0181.1815-.0371.2724-.0552a23.0132,23.0132,0,0,0,3.2694.8462c.5636.1006,1.1291.1778,1.6955.2432.333.1064.6681.206,1.0033.3056A54.6015,54.6015,0,0,1,158.7847,352.2861Z"/><path class="cls-2" d="M273.0561,343.0488a20.673,20.673,0,0,0-2.85-9.1006,1.1926,1.1926,0,0,0,.2185-1.22c-1.3011-3.2861-3.8834-5.584-6.2995-8.0508-.0775-.0791-.1536-.1626-.231-.2427q-.9645-1.3344-1.9035-2.6948c-.3708-.5361-.766-1.0347-1.1744-1.5176-.6647-1.5322-.9437-3.2163-1.5484-4.7714-1.2119-3.1177-3.5777-5.4815-6.0287-7.667-2.398-2.1382-5.0935-4.2237-6.49-7.2032a1.8084,1.8084,0,0,0-1.0991-.9218c-.43-.9439-.86-1.8877-1.3043-2.8243-.66-1.3925-1.3806-2.7348-2.1494-4.0473-.7822-1.128-1.5215-2.2852-2.226-3.4619-.3109-.4439-.6155-.8907-.9424-1.3272-1.6746-2.2378-3.5105-4.3486-5.1426-6.62-2.8773-4.0039-5.5921-9.2485-3.83-14.0625l-.005-.0108a13.5794,13.5794,0,0,1-.8432-4.2138,24.9,24.9,0,0,1-2.2362-11.6494q-.4579-1.0109-.9431-2.0093l.0031-.1152q.1335-4.8561.2671-9.711l.1369-4.9805c.0377-1.37-.071-2.9609.5986-4.2109a1.4333,1.4333,0,0,0-.31-1.8657,2.0763,2.0763,0,0,0-2.9052-1.1074c-3.6968,1.9814-7.8446,2.4013-11.9706,2.5869-4.6456.21-9.3.28-13.95.251-8.9757-.0562-17.9436-.55-26.8753-1.4341a2.856,2.856,0,0,0-1.261-.1162c-.0681-.0069-.1365-.0118-.2047-.0186a1.85,1.85,0,0,0-2,1.6,1.4078,1.4078,0,0,0,.93,1.3159c.1583,1.3364.3127,2.6734.4533,4.0113a1.45,1.45,0,0,0-.0744.1528,1.3163,1.3163,0,0,0,.2086,1.2139c.0743.74.149,1.4794.2179,2.22a.9613.9613,0,0,0-.1595.6924,58.85,58.85,0,0,1-1.8753,25.3462,1.56,1.56,0,0,0-.4086,1.4067A114.9134,114.9134,0,0,1,155.64,291.2588c-1.9979,3.4028-4.0937,6.7451-6.2073,10.0766A132.536,132.536,0,0,0,131.9283,327.79c-2.846,5.5039-4.0988,11.523-4.9757,17.6118-.3816,2.6495-.65,5.4629.2406,8.0469a10.2974,10.2974,0,0,0,5.3016,5.6265,28.7729,28.7729,0,0,0,15.6765,3.1147c2.9718.5987,6.0285.8653,8.7338,1.1626a202.0523,202.0523,0,0,0,27.5271,1.0586c10.54-.2856,21.0382-1.2617,31.495-2.5937a1.95,1.95,0,0,0,1.0509.2348q8.788-.7851,17.5869-1.436a39.3215,39.3215,0,0,0,5.0344.4683,2.03,2.03,0,0,0,1.8254.9536q5.3876-.5084,10.775-1.0161c.0891-.0088.1782-.0157.2674-.0235a20.8236,20.8236,0,0,0,6.4505.0767c2.9745-.5269,5.441-2.2979,7.7-4.2139a10.4546,10.4546,0,0,0,3.1111-2.4145,9.8231,9.8231,0,0,0,1.809-3.6758A16.1487,16.1487,0,0,0,273.0561,343.0488ZM158.1709,328.7339c-.07-.17-.1356-.3409-.2073-.5093q.2257-.8321.451-1.6636C158.3041,327.2837,158.2248,328.0088,158.1709,328.7339Zm9.7687-12.6875c-.0986.0063-.1819.0312-.276.0434.0351-.5508.0721-1.1015.1222-1.6514.0213-.2348.0518-.4687.0757-.7031.0351.2217.0731.4424.1075.6641.0067.5493.0069,1.0986.0238,1.6484C167.9748,316.0488,167.9578,316.0454,167.94,316.0464Zm72.7273,19.582a1.3867,1.3867,0,0,0-.118.12q-.3257-.4731-.6511-.9468-.117-.3764-.2339-.7534Q240.1634,334.84,240.6669,335.6284Zm-7.0523-31.4946q.1967.8847.4124,1.7646c-.4895-.6372-.977-1.2764-1.4721-1.9092A3.0223,3.0223,0,0,0,233.6146,304.1338Zm.7822,21.2529a2.4312,2.4312,0,0,0-.3806-.0513q-1.2673-2.4147-2.4424-4.8755Q232.9657,322.934,234.3968,325.3867Zm-8.5487-50.7783c.03.18.0576.3593.089.539l-.0148-.0239a1.5355,1.5355,0,0,0-.4621-.4741l-.4111-2.1421Zm-6.2569,23.4223.0182.02c.1966.3745.391.75.5871,1.125a2.7662,2.7662,0,0,0-.622-.0445q-.1318-.2879-.2639-.5752A1.3361,1.3361,0,0,0,219.5912,298.0307ZM202.486,283.7744a2.1562,2.1562,0,0,0-.2175.0928q-1.035-1.6019-2.07-3.2041C200.9415,281.7148,201.7073,282.75,202.486,283.7744ZM196.55,243.2485a1.3792,1.3792,0,0,0,.2148.2588c-.0462.0317-.0765.0708-.12.104-.2105.0088-.4211.0137-.6313.0293-.058.0044-.1192.0132-.1816.0239-.1661-.1-.3292-.2051-.4957-.3042C195.74,243.3227,196.1454,243.29,196.55,243.2485Zm-3.8542,22.854a1.9836,1.9836,0,0,0-.3793.4736q-.3114-.8568-.623-1.7128C192.0246,265.2783,192.3533,265.6958,192.6955,266.1025Z"/><path class="cls-3" d="M187.8938,250.8589a2.1088,2.1088,0,0,0-2.46-1.1177,1.99,1.99,0,0,0-1.1952.7353,1.8614,1.8614,0,0,0-.1491.2779,1.2531,1.2531,0,0,0-.2342-.5391,2.3058,2.3058,0,0,0-2.7364-.5742,3.8187,3.8187,0,0,0-1.4787,1.2558,4.0346,4.0346,0,0,0-.6351,1.7784,3.63,3.63,0,0,0,1.2448,3.1176,4.9868,4.9868,0,0,0,4.0385,1.04,4.4588,4.4588,0,0,0,3.1445-2.0122A4.6458,4.6458,0,0,0,187.8938,250.8589Zm-3.8894.6953a1.1422,1.1422,0,0,0,.0323.1552,3.3259,3.3259,0,0,1,.09.3433,3.426,3.426,0,0,1-.0026.6484,3.38,3.38,0,0,1-.164.4991,3.0424,3.0424,0,0,1-.2576.3554c-.0364.0313-.0737.0611-.1116.09-.025.0122-.0506.0239-.0761.0351-.0225.0054-.0454.01-.068.0142-.021.0005-.0422,0-.0632,0-.0234-.0049-.047-.01-.07-.0156-.0278-.0122-.0554-.0259-.0828-.0391l-.0549-.0444c-.0256-.0327-.05-.0664-.074-.1a2.3864,2.3864,0,0,1-.111-.3272,1.0583,1.0583,0,0,1,.0928-.6084c.0382-.06.0807-.1176.1242-.1738.0378-.03.0736-.0635.1136-.0913A1.73,1.73,0,0,0,184.0044,251.5542Z"/><path class="cls-3" d="M233.2427,283.9619a6.9429,6.9429,0,0,0-8.135-4.711c-.8672.2168-1.7257.9952-1.397,1.9683a2.1127,2.1127,0,0,0,2.46,1.1177c.1173-.0293.2326-.0547.35-.0786l.0257,0c.09.0024.1822.0034.2724.0029h.001l.0079.0019c.0744.0166.4057.106.4022.0928.0838.0332.168.0664.2491.1045-.0073-.0034.4175.2183.2852.1387a3.8174,3.8174,0,0,1,1.4424,1.6821,4.9069,4.9069,0,0,1-1.349,5.127,6.2574,6.2574,0,0,1-2.1446,1.3261,6.473,6.473,0,0,1-.75.189c-.1432.0288-.29.0557-.4351.0742.0953-.0122.2919-.0073-.1259.0064-.2569.0083-.5119.01-.7687,0-.0429-.002-.0706-.0025-.0895-.0025l-.0331-.0049c-.1806-.0244-.3606-.06-.5382-.1a3.8494,3.8494,0,0,1-1.2-.4829l-.025-.0146c-.1115-.0737-.2206-.1543-.3267-.2363a6.0322,6.0322,0,0,1-.5885-.5181,4.6734,4.6734,0,0,1-1.2057-2.4365,4.0247,4.0247,0,0,1,.5271-2.542,3.9078,3.9078,0,0,1,.9976-1.1074c.0128-.0108.1119-.08.1408-.1036.0913-.0527.1854-.103.28-.1479.0858-.041.1776-.0786.2684-.1143.036-.0005.326-.0771.3584-.084a1.6322,1.6322,0,0,0,1.3969-1.9682,2.12,2.12,0,0,0-2.46-1.1172,6.965,6.965,0,0,0-5.5322,6.5161,7.7339,7.7339,0,0,0,4.9886,7.0288,9.9481,9.9481,0,0,0,9.6444-1.5122A8.0114,8.0114,0,0,0,233.2427,283.9619Z"/><path class="cls-3" d="M192.39,321.8383a8.5529,8.5529,0,0,0-8.5519-6.0751,2.8744,2.8744,0,0,0-.6682.1157c-.0069-.01-.01-.02-.0169-.0308a2.3031,2.3031,0,0,0-2.7364-.5737,10.2736,10.2736,0,0,0-5.7911,7.3672,8.5126,8.5126,0,0,0,.6079,5.3354,8.08,8.08,0,0,0,3.9468,3.6367A10.0539,10.0539,0,0,0,189.412,330.5,8.6112,8.6112,0,0,0,192.39,321.8383Zm-5.33,5.9722a5.1938,5.1938,0,0,1-2.402,1.3653,5.33,5.33,0,0,1-1.5805.1367c-.02,0-.14-.0078-.1915-.0093-.1125-.0142-.2261-.0308-.3359-.05-.14-.0254-.28-.0537-.4177-.0864.0124.0029-.3511-.0933-.3848-.0957a4.8117,4.8117,0,0,1-2.6212-1.9283,5.464,5.464,0,0,1-.65-3.477,7.36,7.36,0,0,1,1.2485-3.314,6.5827,6.5827,0,0,1,2.4209-2.1562,2.118,2.118,0,0,0,1.6931.7676c.1322-.0064.2639-.0132.3962-.0127-.0234,0,.2486.0161.3523.018.0758.0118.1708.0259.1932.03.1616.0313.32.0723.4793.1109.02.0048.1.0317.149.0483.101.0391.2018.08.3.124.12.0537.2392.1113.3558.1724-.0017-.001.2887.1772.3156.187a5.0788,5.0788,0,0,1,1.9108,2.2935A5.666,5.666,0,0,1,187.06,327.8105Z"/><path class="cls-3" d="M248.0617,316.372c-.0273-.0034-.0565-.0034-.0842-.0063a3.5837,3.5837,0,0,0-.767-.1631c-5.377-.5264-11.2228,1.9409-14.1368,6.5957-2.8371,4.5322-2.8477,10.8482.6219,15.0674a13.1859,13.1859,0,0,0,14.6155,3.9814,15.5541,15.5541,0,0,0,9.7063-12.83C258.53,323.0532,254.1032,317.1152,248.0617,316.372Zm.1891,21.7632a8.4808,8.4808,0,0,1-10.5232-1.2544c-2.9926-2.9067-3.4009-7.625-1.7946-11.33,1.8154-4.1875,6.3077-6.4034,10.7137-6.1832a1.5068,1.5068,0,0,0,.3516.09,8.4115,8.4115,0,0,1,7.0352,7.8144A12.2359,12.2359,0,0,1,248.2508,338.1352Z"/><path class="cls-3" d="M226.8861,313.2661l.0282.0112.0281.0064c-.04-.0176-.073-.0318-.1008-.0435C226.8553,313.2475,226.874,313.2607,226.8861,313.2661Z"/><path class="cls-3" d="M228.0058,309.9258a.1415.1415,0,0,0-.06-.0059l.0459.0044Z"/><path class="cls-3" d="M228.6138,310.2837l-.0118-.0176c-.0346-.0322-.07-.064-.1059-.0933-.01-.0078-.02-.0141-.03-.0215C228.4645,310.1606,228.516,310.21,228.6138,310.2837Z"/><path class="cls-3" d="M227.9757,309.9365a2.0451,2.0451,0,0,0,.2059.0527l-.0268-.0122c-.0346-.01-.0691-.0195-.1041-.0273-.0165-.0034-.0442-.0083-.074-.0132l.0287-.0024-.0447-.0025.0139.0044-.0327-.0054-.0118-.0005c-.0317,0-.0633.001-.0951.003l-.0261.0058C227.8777,309.9394,227.9358,309.9389,227.9757,309.9365Z"/><path class="cls-3" d="M231.45,308.0171a5.4326,5.4326,0,0,0-5.9418-.7193,1.8074,1.8074,0,0,0-.9191.9561,1.3744,1.3744,0,0,0,.2016,1.2329c.0068.0088.016.0151.023.0239a2.3936,2.3936,0,0,0-1.3259.4546,3.1635,3.1635,0,0,0-1.2588,2.5728,3.7329,3.7329,0,0,0,1.292,2.6264,5.9392,5.9392,0,0,0,5.426,1.187,5.2883,5.2883,0,0,0,3.8649-3.5288A4.6926,4.6926,0,0,0,231.45,308.0171Zm-2.6947,4.4736c-.0914.1382-.1881.2715-.2888.4048-.0414.0366-.0827.0737-.126.1079-.0259.021-.09.0659-.1493.1069-.071.0381-.1612.0874-.2.105-.0357.0166-.0721.0313-.1085.0459-.086.0234-.1715.0483-.2593.0659-.0279.0059-.056.01-.084.0147-.1045.0039-.2086.0078-.3136.0044-.0949-.0186-.1891-.0391-.2829-.0625.0342.0151.0671.0293.111.05-.0452-.021-.0927-.0376-.1391-.0562-.0137-.0034-.0278-.0054-.0414-.0093-.1275-.0351-.2482-.1167-.0313-.0278-.0754-.04-.16-.0879-.2457-.13-.0381-.0293-.0764-.0576-.1131-.0884-.0155-.0131-.03-.0268-.0453-.0405-.0345-.0459-.0634-.0952-.096-.1416a2.1673,2.1673,0,0,1-.0914-.2671c-.0019-.0571-.0024-.1147,0-.1714.0154-.0542.031-.1088.051-.1616l.0148-.0117a1.41,1.41,0,0,0,.3-1.9439,1.9825,1.9825,0,0,0,.9111-.2231c.0714-.0391.1442-.0742.2182-.1079l.064-.0142-.0336,0,.0081-.0039c.0172-.0009.0343-.0009.0516-.0014.0163-.0039.0324-.0083.049-.0113l.0579.0088.0188.001c-.0159-.0063-.0186-.01-.0148-.0117l-.0287-.0029c.12-.0171.208,0,.1284.0127l-.04-.0039.0231.0058-.0235.0025.0439.0029a.5646.5646,0,0,1,.0739.0254l.0316.0146c.038.0108.0762.021.1144.03l.002.0015c-.0343-.0069-.0616-.0127-.09-.0191.056.0244.1121.0493.1665.0767l.0056.0029c.038.0269.0759.0537.1127.0825.0023-.0122.0622.024.1267.1011l.0089.0137a.7267.7267,0,0,0,.0794.07c-.0326-.0229-.0432-.0337-.0676-.0522a2.7963,2.7963,0,0,1,.1966.2963,3.401,3.401,0,0,1,.164.4878,2.232,2.232,0,0,1-.22,1.4229Z"/><path class="cls-3" d="M177.4454,300.4785c-.0321-.0088-.0673-.0225-.0972-.0283l-.0377-.0059-.0643.0029A.5992.5992,0,0,0,177.4454,300.4785Z"/><path class="cls-3" d="M182.4643,299.8432a6.774,6.774,0,0,0-6.8027-2.4253c-.7869.1919-1.6648.9346-1.4314,1.8233a2.0606,2.0606,0,0,0-1.834.4194,5.07,5.07,0,0,0-.5837,6.2954,6.3791,6.3791,0,0,0,5.4772,3.126,6.5234,6.5234,0,0,0,5.5533-3.2607A5.3506,5.3506,0,0,0,182.4643,299.8432Zm-3.171,4.5318-.0017.0044c-.0392.0615-.0748.1255-.1145.1865a4.7729,4.7729,0,0,1-.3182.4346c-.025.0307-.0888.0937-.1254.1411-.02.018-.0384.0371-.0584.0551-.1185.107-.2424.2085-.3709.3033.008-.0059-.0428.0307-.0948.0678.0779-.0424.1492-.0747-.0023.0044l-.0127.0059a.9731.9731,0,0,1-.0863.0586c-.0045-.0059.0256-.0254.0624-.0469-.1466.0757-.2922.15-.4458.2129l-.025.0117c.2388-.1279-.0842.0171-.1754.0371-.0476.01-.0956.0181-.1436.0264-.0974-.0029-.1977-.0044-.2978-.0063-.0624-.0127-.1251-.0245-.1872-.04-.0211-.0054-.0743-.0239-.127-.04l-.0465-.02q-.105-.0461-.2077-.0981c-.0722-.0361-.3071-.2359-.0983-.044l0,.0005c-.0139-.0117-.0288-.0244-.0394-.0322q-.0945-.0658-.1856-.1372a4.1609,4.1609,0,0,0-.3556-.313c-.0632-.0747-.1267-.1484-.1865-.2261-.1184-.1543-.2216-.3169-.325-.4809a.2342.2342,0,0,0-.0291-.0366c-.0324-.0752-.06-.1578-.0785-.2032a4.4621,4.4621,0,0,1-.1831-.5459c-.009-.0341-.0253-.1342-.0418-.1855-.0026-.022-.0062-.0444-.0082-.0664a3.9355,3.9355,0,0,1-.0144-.5161c.0034-.09.0135-.1787.02-.2686l0,0c.0668-.2031.1352-.41.2006-.6137l.0144-.0157c.0686-.082.3291-.3662.02-.0659a1.5593,1.5593,0,0,0,.5858-1.1313,1.2164,1.2164,0,0,0-.0375-.2715,2.3066,2.3066,0,0,0,.9521-.0166c.0349-.0088.1334-.0274.2264-.0449.0733,0,.2064-.0079.2948-.0118-.0341-.0088-.0592-.0131-.1044-.0268l.0042-.0015a1.3941,1.3941,0,0,0,.1645.0254h.0083c.0885-.001.1448.0249.1266.0342a3.57,3.57,0,0,0,.3554.0889c.05.0209.1.0415.15.0644.0691.0317.1377.0654.2052.1.0478.0249.2588.1758.136.0776.0773.0538.1531.1094.2271.1675.1211.0952.232.2.3456.3032l.0015.0025c.0461.06.0978.1162.1444.1758a4.4461,4.4461,0,0,1,.2606.3711l.0378.0556c.0174.0366.0351.0738.0511.1114.0616.1586.1261.3134.1737.4775.02.0688.0341.144.0537.2153.0079.17.027.3364.0223.5073-.0021.08-.0105.1583-.0142.2374v.0009c-.059.148-.0783.3579-.1258.4986C179.4187,304.0844,179.3523,304.2275,179.2933,304.375Z"/><path class="cls-3" d="M178.1944,305.5781l.015-.01c-.0135.0074-.0261.0142-.0389.022Z"/><path class="cls-3" d="M153.4412,328.3481a7.51,7.51,0,0,0-8.015-4.09c-.8548.1216-1.7549,1.07-1.3969,1.9682a1.74,1.74,0,0,0,.1341.2535,2.12,2.12,0,0,0-1.3283-.08,5.2292,5.2292,0,0,0-3.1513,2.309,5.6821,5.6821,0,0,0-.8188,3.3633c.2662,2.7925,2.4927,4.6582,5.0668,5.3955a8.4544,8.4544,0,0,0,7.98-1.8315A6.6573,6.6573,0,0,0,153.4412,328.3481Zm-3.5478,3.19c-.0387.1762-.0792.3515-.1343.5239-.0658.206-.1474.4038-.2319.6025l-.0184.043c-.0631.11-.1282.2187-.1991.3237-.1213.18-.2627.3369-.3938.5083l-.0058.0088-.0324.0249c-.0744.0606-.1434.127-.218.1875-.0875.07-.1791.1328-.268.2012-.0268.02-.0392.0312-.0577.0459-.011.0039-.0169.0054-.0351.0132-.2464.1084-.4807.2309-.73.332-.0543.0093-.3693.1045-.44.12-.1093.0244-.22.0464-.33.065-.0338.0058-.5293.0327-.1836.0317s-.1257,0-.1625.0015c-.0956.0029-.1916.0039-.2872.0029s-.1919-.01-.2876-.01l-.0342,0-.007-.001c-.2133-.0361-.4246-.0732-.6347-.1254-.0527-.0132-.1191-.024-.1837-.0386-.0216-.01-.0494-.0215-.0885-.0381-.1972-.0825-.392-.165-.5818-.2642-.0426-.0219-.1184-.0673-.1616-.0927-.05-.0342-.1008-.0669-.15-.1031-.1626-.1206-.3061-.2578-.46-.3867-.0719-.0908-.1476-.1772-.2165-.27-.0523-.07-.2257-.377-.2438-.3833a3.8971,3.8971,0,0,1-.1823-.47c-.0238-.0811-.04-.1631-.063-.2447l-.0082-.0263c0-.0147.0013-.0244.0007-.0479-.0056-.2353-.0244-.4619-.0084-.6977.0056-.0835.0158-.166.0254-.2486.0054-.0229.01-.0449.0195-.0781a5.4614,5.4614,0,0,1,.2167-.6587c.0324-.0766.0709-.1509.104-.2275-.16.37-.0075.0317.0454-.0484.0452-.0683.0928-.1357.1424-.2006s.101-.1285.1548-.19c-.0486.0484-.0973.0972-.1459.1455a2.0851,2.0851,0,0,1,.3557-.3183l.078-.03c.1254-.0484.5772-.189.0459-.0347.8163-.2373,1.7867-.99,1.3968-1.9683a1.6126,1.6126,0,0,0-.1478-.2749,2.965,2.965,0,0,0,1.3033.105l.0177.0015c.1211.0049.2443-.0078.3658-.0049.0171,0,.0524.0054.0813.0083.0121-.0068.042-.0093.1147.0059l.0074.0019a.3252.3252,0,0,0,.0888,0,.292.292,0,0,1-.0474.01c.1926.041.3819.0874.5731.1348l.0264.0131c.1324.0635.27.1158.4013.1817.0321.0161.0638.0332.0953.0508a.6562.6562,0,0,1,.1329.07l.0041.0034.0268.0142-.0232-.0118c.1757.1289.35.2539.5143.3975.0724.063.1419.1289.2107.1963.0139.0176.0178.0234.0407.0522.1512.1929.2876.3912.4281.5918.0165.0235.0247.0337.0367.05l.0062.0181c.0448.1118.0994.2192.1426.3315a4.8263,4.8263,0,0,1,.1721.5464c.0125.05.0221.1.0331.15.0047.041.0214.1533.0257.2a5.3167,5.3167,0,0,1,.0119.7881C149.9329,331.2319,149.8921,331.5053,149.8934,331.5381Z"/><path class="cls-3" d="M147.0791,327.37l-.0414-.01c-.0444-.0024-.0768-.0024-.1221-.0078C146.8907,327.3667,146.97,327.3969,147.0791,327.37Z"/><path class="cls-3" d="M148.3158,327.8261l-.0036-.0024c-.046-.0229-.0915-.0479-.137-.0732C148.1528,327.7431,148.1838,327.7627,148.3158,327.8261Z"/><path class="cls-3" d="M211.9694,234.9292a6.2224,6.2224,0,0,0-6.7.8364,2.1963,2.1963,0,0,0-1.7845.7769,6.2213,6.2213,0,0,0-.37,7.14,6.985,6.985,0,0,0,7.1162,2.7871,6.3659,6.3659,0,0,0,5.086-5.1475A6.006,6.006,0,0,0,211.9694,234.9292Zm-.7973,6.6587c-.028.0732-.0576.146-.0889.2177l-.0483.107q-.1209.2468.0421-.0679a2.0565,2.0565,0,0,1-.3832.59q-.0885.1165-.1841.2276a.4611.4611,0,0,0-.0665.0918c-.1185.1035-.3059.2329-.345.2622l-.0841.0605c-.0575.0318-.1168.0655-.1083.0611-.1048.0537-.214.0957-.32.1464l-.0014.001c-.1661.04-.3317.0757-.499.11-.0676.0024-.1348.0058-.2024.0063-.0945.001-.1882-.0044-.2823-.0078-.2-.0395-.3969-.083-.5953-.1308-.0919-.0386-.1843-.0747-.2747-.1172q-.1059-.0506-.2094-.1055l-.0191-.01c-.058-.0591-.4045-.3028-.4412-.335,0,.0005-.0339-.0273-.0712-.0591l-.0288-.0322q-.0785-.0909-.1516-.186t-.1427-.1973c-.0382-.0562-.0743-.1138-.11-.1719a5.7717,5.7717,0,0,0-.2617-.6465q-.0359-.1156-.0657-.2339c-.0155-.061-.0288-.1225-.0418-.1836a6.7993,6.7993,0,0,1-.0372-.7192c.0017-.081.0055-.1626.011-.2436s.0133-.1622.0228-.2427l.0109-.0811a1.92,1.92,0,0,0,1.4765-1.1167l.047-.1089.0234-.0488c.0386-.0522.0823-.1045.1-.1289.0572-.08.1218-.1533.1807-.2319l.0041-.0059.011-.0078c.035-.0278.2537-.2036.3785-.2988.1071-.0508.2141-.1.3215-.1494-.014-.001-.03.0048-.0421,0a.1193.1193,0,0,0,.048-.0025c.0309-.0141.0614-.0288.0925-.0429.1187-.0533.115-.0289.0668.0024.06-.019.1159-.0381.1388-.0425s.072-.0088.12-.0146c.0186,0,.0371-.002.0558-.002.06,0,.1188.0029.178.0059l.0043.001c.0894.0239.1842.0459.2756.0644.0183.0073.037.0137.0552.0215.0929.04.1839.083.2736.1289a.5038.5038,0,0,0,.1357.0571c.1231.0948.2675.23.3131.2681.0521.0449.1141.0957.1719.1489.01.0161.02.0332.03.0464.146.1973.2926.3877.426.5942l.017.0249.0093.0235c.0316.0752.0658.1484.0956.2246.0807.2051.1264.4155.1909.625l.0008.0024c.01.1084.0227.2163.0277.3252a4.656,4.656,0,0,1-.0156.6426,2.2368,2.2368,0,0,1-.0288.2368c-.0121.0342-.0232.0674-.0286.0889A4.978,4.978,0,0,1,211.1721,241.5879Z"/><path class="cls-3" d="M208.9031,237.5571a1.02,1.02,0,0,1-.1593.0405l-.0059.003A.2947.2947,0,0,0,208.9031,237.5571Z"/><path class="cls-3" d="M205.7893,271.476a6.7212,6.7212,0,0,0-7.2532-4.0424,2.5626,2.5626,0,0,0-.4734-.0445,2.1317,2.1317,0,0,0-1.158.3042,2.3894,2.3894,0,0,0-1.6361.4453,8.3259,8.3259,0,0,0-3.4392,7.357,7.6144,7.6144,0,0,0,13.1753,4.332C207.0265,277.6386,207.022,274.0669,205.7893,271.476Zm-3.3417,5.273a4.8393,4.8393,0,0,1-.2178.5625c-.0084.0166-.0173.0347-.0233.0439-.0838.13-.1653.26-.2574.3848-.0769.1035-.16.2007-.2424.3l-.01.0146a5.9181,5.9181,0,0,1-.5322.4478c-.0492.0361-.1.07-.15.104-.0336.021-.0773.0483-.1041.0615-.19.0933-.3808.1778-.575.2588-.0379.001-.4092.1177-.4861.1328-.06.0122-.1773.0274-.2249.0352-.0315.0014-.063.0049-.0946.0058-.115.004-.3522-.0161-.41-.0156-.1939-.0376-.3858-.08-.5794-.123l-.0031-.0015c-.12-.0537-.2429-.102-.3619-.16-.1088-.0527-.2146-.11-.32-.1689l-.0274-.02c-.1717-.1245-.3421-.25-.503-.3887-.0807-.07-.1575-.1426-.2359-.2144-.0291-.0268-.0471-.0424-.0639-.0571-.01-.0156-.0264-.039-.0613-.084-.1483-.1894-.2989-.373-.4331-.5742-.0743-.1108-.1431-.2246-.212-.3389-.0056-.0092-.0157-.0292-.0257-.05a6.16,6.16,0,0,1-.4472-1.3164c-.0069-.038-.0137-.0771-.0151-.0932-.0147-.17-.0317-.3389-.0368-.5093-.0084-.2852.0139-.5645.0336-.8481.0032-.0459.0045-.0723.0062-.1011.0035-.0127.0076-.0293.0139-.0611.0273-.1391.06-.2773.0969-.414a6.8914,6.8914,0,0,1,.2722-.8076,4.6266,4.6266,0,0,1,.7823-1.3155q.1055-.1347.2172-.2646c.04-.0479.0824-.0938.1243-.14.01-.0092.01-.0087.0345-.0322l.0092-.0078a2.1245,2.1245,0,0,0,1.3883-.1909c.1164-.0659.254-.1152.3651-.1875l.01-.0073c.1021-.0205.204-.0445.3062-.0664l.0177.0005c.04.0009.0823,0,.1246.0019a.4144.4144,0,0,1,.158.0024c.0149,0,.0309.0015.0453.001l-.0363,0c.1054.0225.2145.05.3208.0684.04.0073.0634.01.0863.0127.0177.01.0352.02.0685.0361.1251.06.2523.1182.3779.1777.0188.0093.0266.0118.0383.0171a4.7,4.7,0,0,1,.5768.4634c-.0566-.0532-.1719-.2114.05.0591.0744.09.1494.18.22.2729s.1377.189.2021.2867c.0022.0034.14.2285.1744.2773a6.6128,6.6128,0,0,1,.5347,1.4424,5.5682,5.5682,0,0,1,.1979,1.4038A4.9255,4.9255,0,0,1,202.4476,276.749Z"/><path class="cls-3" d="M199.762,270.5483l-.0038-.001-.0052,0c-.0518.001-.1045,0-.158-.0024C199.588,270.5488,199.6339,270.5522,199.762,270.5483Z"/><path class="cls-3" d="M203.1273,194.8452l-.0076-.0025a.6559.6559,0,0,0,.11.0484C203.1949,194.8759,203.1608,194.8613,203.1273,194.8452Z"/><path class="cls-3" d="M207.532,193.915a6.4346,6.4346,0,0,0-9.1662-.7285,2.1479,2.1479,0,0,0-.7584.207,7.0824,7.0824,0,0,0-3.9636,7.28,7.3007,7.3007,0,0,0,5.8285,5.8437,7.7166,7.7166,0,0,0,7.9408-3.4409A11.692,11.692,0,0,0,208.665,198.4,5.99,5.99,0,0,0,207.532,193.915Zm-2.8454,4.2744a10.6335,10.6335,0,0,1-.6911,3.1714c-.0252.062-.0378.0923-.0514.125-.0623.1138-.1327.2241-.2053.3311a5.3831,5.3831,0,0,1-.4092.5278c-.0188.022-.0265.0322-.0342.0425-.02.0161-.0344.0278-.0627.0517-.0857.0718-.1669.148-.2539.2183s-.1785.1343-.2666.2031c-.0434.0342-.0666.0542-.0812.0684-.0211.01-.0439.02-.0811.04-.2.1031-.4.1988-.6049.29l-.0587.0258c-.0861.0254-.1723.0508-.26.0723-.108.0264-.22.042-.3272.0694l-.0533.0151c-.1954.0034-.3881.0034-.5822-.0015a4.7607,4.7607,0,0,0-.5269-.0976l-.0214-.002c-.1147-.0473-.23-.0908-.3432-.1431-.0762-.0356-.3369-.187-.3857-.208a5.915,5.915,0,0,1-.57-.4384c-.07-.062-.1381-.127-.2045-.1924l-.0542-.0694c-.1346-.1728-.272-.34-.3933-.5229a3.43,3.43,0,0,1-.4872-1.0913c-.0379-.13-.0716-.2627-.0971-.3965q-.0352-.1692.0056.0171l-.0166-.167a7.3145,7.3145,0,0,1,.0007-.835c.007-.0835.0174-.1689.0288-.2529.0128-.0317.0738-.3061.0744-.3086a8.0162,8.0162,0,0,1,.28-.79c.0066-.0171.0416-.0923.0586-.1319.0689-.1255.1443-.25.2229-.3676a5.3282,5.3282,0,0,1,.5074-.65c.0176-.0152.023-.02.0484-.0415.1065-.09.209-.1836.3191-.27.081-.0634.1654-.122.25-.1806.0135-.0054.0482-.024.0919-.0484a2.2447,2.2447,0,0,0,1.6862-.78c.0287-.0336.0371-.0429.0554-.0639a3.8,3.8,0,0,1,.3183-.2642c.0212-.0156.1161-.0747.1721-.1113.0616-.03.1431-.07.1627-.0791.0491-.023.1789-.0723.2241-.0923.0655-.0176.1307-.0371.1961-.0513.0633-.0141.1275-.0234.1915-.0341a2.0737,2.0737,0,0,0,.305-.0064c.0107-.0005.0223.0025.0338.0029-.02-.0048-.0245-.0048-.0509-.0117.0195.0054.0405.0083.0607.0127a.3127.3127,0,0,1,.1169.0244c.0542.01.1084.022.16.0332.0112.0025.0238.0083.036.0122l-.0394-.0185c.0151.0073.0316.0137.047.021a.4133.4133,0,0,1,.1021.0459c.0521.0229.1035.0464.1541.0693.0392.0171.05.022.0738.0327.0758.0513.1512.1045.2233.1607a4.1124,4.1124,0,0,1,.3148.2724.1033.1033,0,0,0,.0266.021c.0092.0152.02.0332.0561.083.0648.09.1356.1758.1985.2676-.0144-.021.1092.189.1555.2593.0271.0615.0658.147.0725.1641.0411.103.0778.207.11.3134A4.9953,4.9953,0,0,1,204.6866,198.1894Z"/><path class="cls-3" d="M202.9233,194.7973c-.04-.0078-.0781-.0156-.1169-.0244l-.01-.001A.656.656,0,0,0,202.9233,194.7973Z"/><path class="cls-3" d="M185.326,178.122l.0087,0a.7214.7214,0,0,0,.14-.0171l.0066-.0009C185.5752,178.0815,185.5521,178.062,185.326,178.122Z"/><path class="cls-3" d="M185.9241,177.914c.0391-.0171.07-.0293.1-.04l.0186-.0107C185.9393,177.8867,185.9039,177.9106,185.9241,177.914Z"/><path class="cls-3" d="M184.8961,178.0776c.0729.0112.1433.0274.2146.042h.0243A.5784.5784,0,0,0,184.8961,178.0776Z"/><path class="cls-3" d="M191.5373,173.1435a5.3245,5.3245,0,0,0-6.5218-3.9311,2.5248,2.5248,0,0,0-1.9875-.001,7.0126,7.0126,0,0,0-4.1985,5.499,5.7688,5.7688,0,0,0,3.0155,5.6914,6.4475,6.4475,0,0,0,7.0047-.2544A7.214,7.214,0,0,0,191.5373,173.1435Zm-3.8738,1.6778c-.0074.0942-.0207.187-.03.2807.0314-.3335.0055-.0273-.0142.063a6.2973,6.2973,0,0,1-.213.7485c-.0764.2168-.1694.4248-.2632.6343l-.0064.0142c-.0582.1011-.1162.2016-.1794.3a5.6756,5.6756,0,0,1-.3491.4839,1.808,1.808,0,0,1-.1931.2275c-.0354.0259-.0688.0513-.0859.0664q-.1238.1077-.2557.2056c-.0126.0093-.02.01-.0311.0176.02-.0044.0278-.0093.0528-.0132a.6018.6018,0,0,0-.0714.0239.2162.2162,0,0,1-.1.04,2.33,2.33,0,0,0-.3.1563c-.043.0112-.0859.0224-.13.0317l-.0133.0025-.0066.0009a2.22,2.22,0,0,0-.2441.0415c.0453-.0136.0612-.0156.0956-.0249-.0637.001-.1274-.0009-.191-.0024.032.0093.0467.01.0869.0229a1.023,1.023,0,0,0-.1112-.0229l-.0446-.001c-.1038.001-.1765-.0283-.17-.041-.0491-.0078-.0987-.0142-.1457-.0259a.1627.1627,0,0,1-.1018-.0215l-.031-.0146a.6412.6412,0,0,0-.1373-.0381c.0376.0034.0544.0088.084.0132-.154-.0689-.3054-.14-.4566-.2149-.067-.05-.1559-.1-.202-.1347-.12-.09-.2308-.1909-.3442-.2891.0015.0078.0114.0161.01.023a.4437.4437,0,0,0-.0387-.0474l-.0048-.0039c-.0973-.0835-.1-.0986-.08-.0928l-.0193-.0215a5.3966,5.3966,0,0,1-.3689-.5293c-.036-.0844-.0814-.2021-.0866-.2163a3.9562,3.9562,0,0,1-.15-.4926.1869.1869,0,0,1-.0043.02.2985.2985,0,0,0-.0058-.1021c0-.0068-.0028-.0176-.0028-.0229-.0069-.0425-.015-.0865-.0168-.1075a4.5077,4.5077,0,0,1-.0025-.7c.0058-.0782.0169-.1553.0229-.233l.0005-.0107c.0059-.0225.0118-.0439.0209-.083a5.1863,5.1863,0,0,1,.1864-.62c.0273-.0738.0564-.1475.087-.22.0107-.0254.0837-.1762.1207-.2563l.057-.1c.0623-.1011.1278-.2007.1962-.2979.08-.1133.3178-.5229.4482-.5556-.01.0029-.3127.292-.0627.0693.0888-.0791.1747-.1611.2662-.2373.0687-.0566.14-.11.2116-.1641a2.34,2.34,0,0,0,1.8451-.063l.0841-.0419.0031-.001h-.0009l.0195-.01.0016-.0005.0121.001.0415-.0127.0562.0176a.4781.4781,0,0,0,.0741-.0049l.0059.0029a.3655.3655,0,0,1-.0576.0088c.0576.0186.1272.04.1811.0513.0518.0244.1158.0542.1685.08.0251.018.0511.0346.0757.0532.0638.0478.1261.0981.1865.15.0668.0576.2124.2978.1006.0879-.1254-.2349.0431.0683.0748.1108.0473.0635.0875.1323.135.1958l.0181.0225.0018.0063c.0873.24.1776.4722.25.7178.0075.0254.0115.0361.0173.0542.0094.1147.0261.228.0324.3433A5.1945,5.1945,0,0,1,187.6635,174.8213Z"/><path class="cls-3" d="M186.4305,172.248l-.0224-.0068c-.0377,0-.0635-.002-.0977-.0049l-.0323.0093A.3791.3791,0,0,0,186.4305,172.248Z"/><path class="cls-3" d="M184.5643,177.9907c.018.0078.0352.0171.0533.0249.0425.0146.0854.0254.1251.0352l.0077.0009C184.7751,178.0444,184.7239,178.0141,184.5643,177.9907Z"/><path class="cls-3" d="M182.81,175.8667l.0028.0229a.3682.3682,0,0,0,.01.0811v.0005C182.8646,175.8491,182.811,175.7778,182.81,175.8667Z"/><path class="cls-3" d="M183.4476,177.2309c.0238.0269.0537.0606.0847.0967l.0292.0244A.2165.2165,0,0,0,183.4476,177.2309Z"/><path class="cls-4" d="M267.1543,325.4033c-10.9165-15.126-21.2912-30.709-30.7656-46.7827a61.4936,61.4936,0,0,1-5.7962-12.1294,48.8046,48.8046,0,0,1-2.0693-13.5723c-.306-9.6216.14-19.3013.276-28.9248q.414-29.3488.828-58.6973l.1022-7.2436c.0134-.9536-.7956-1.4736-1.689-1.5669a2.24,2.24,0,0,0-2.6514-.2373c-6.64-3.5225-14.368-4.104-21.7671-4.085a198.8051,198.8051,0,0,0-26.71,1.8926c-3.9094.5415-8.0543,1.4126-10.9981,4.2339a1.4667,1.4667,0,0,0-1.2469,1.4951c1.0786,20.6724,1.4933,41.3716,1.7162,62.0689.11,10.226.4383,20.4946.1742,30.7187a54.5117,54.5117,0,0,1-2.0232,14.2315,63.8361,63.8361,0,0,1-5.2992,12.4126c-4.4435,8.11-9.9425,15.61-14.9959,23.34-5.3171,8.1343-10.7605,16.3179-15.2627,24.94-3.6383,6.9673-6.7328,14.8911-5.4483,22.8975a16.4067,16.4067,0,0,0,4.7089,9.4111c2.9211,2.815,6.96,4.1675,10.91,4.69a101.3865,101.3865,0,0,0,13.6768.4l15.423-.0576q15.423-.0579,30.846-.1153,3.8557-.0146,7.7115-.0288a2.0754,2.0754,0,0,0,1.2294-.3642c8.7143-.646,17.4558-.8985,26.1924-.6871,9.1356.2208,18.9085,1.836,27.8017-.977,6.7244-2.127,13.2743-7.1738,14.5176-14.4912C278.0176,339.5092,271.89,331.9653,267.1543,325.4033Zm-89.7525-168.18c3.997-.5786,8.0192-.9951,12.0459-1.2993,7.6343-.5767,15.6023-1.1069,23.225-.1172a32.296,32.296,0,0,1,9.6474,2.6836c-5.1421,2.978-11.7888,3.3643-17.52,3.8672q-6.4194.5632-12.87.6108a89.7575,89.7575,0,0,1-11.5839-.4048c-3.2844-.4048-6.7465-1.28-9.1233-3.707A20.9056,20.9056,0,0,1,177.4018,157.2236Zm94.5337,192.8877a15.7736,15.7736,0,0,1-6.6582,7.4819c-7.3387,4.4512-16.4328,3.4766-24.6161,3.0826a266.17,266.17,0,0,0-28.4685.15q-3.5851.2116-7.1635.5195a3.3567,3.3567,0,0,0-.77.1611c-19.2778.0825-38.56.273-57.8371.2095-3.85-.0127-7.9317-.1-11.5253-1.6455a12.0926,12.0926,0,0,1-6.7972-7.47c-2.4046-7.272.33-15.2325,3.4994-21.8018,4.1424-8.5859,9.6-16.62,14.7776-24.6045,2.7025-4.168,5.5288-8.2661,8.2873-12.4062a1.8583,1.8583,0,0,0,.7278.3076,99.6681,99.6681,0,0,0,35.5911-.3462,1.633,1.633,0,0,0,1.3969-1.9683,2.12,2.12,0,0,0-2.46-1.1172,93.7937,93.7937,0,0,1-33.428.3511c1.6991-2.6045,3.3574-5.2339,4.9188-7.92.5826-1.0024,1.1391-2.0161,1.6823-3.0347a2.4414,2.4414,0,0,0,1.2383.36q6.215.0125,12.43.0244c2.0185.0039,4.0377.0215,6.0562.0112a8.3114,8.3114,0,0,0,5.0814-1.3457,1.4191,1.4191,0,0,0,0-2.2627,2.3811,2.3811,0,0,0-2.8284,0c-1.0532.7627-2.9572.4077-4.166.4053q-2.7258-.0051-5.4516-.0107-5.4575-.01-10.9148-.021a61.5479,61.5479,0,0,0,4.5792-12.5171,66.5391,66.5391,0,0,0,16.4678.9653c.8979-.06,2-.542,2-1.6a1.8559,1.8559,0,0,0-2-1.6,62.2743,62.2743,0,0,1-15.819-.9233q.2916-1.692.4658-3.4209c.2292-2.313.3187-4.6348.3523-6.9585q5.5254.0447,11.0508.0884c1.5862.0126,4.44.5336,5.283-1.2525a1.7207,1.7207,0,0,0-1.0421-2.3022,2.67,2.67,0,0,0-2.6985.3657c-.0332,0-.067.001-.1,0q-.8653-.0066-1.7308-.0137-1.803-.0147-3.606-.0288l-7.1419-.0571c-.0059-1.5557-.0193-3.11-.0307-4.6636q-.0226-3.0689-.0494-6.1372a52.2583,52.2583,0,0,0,14.6916-.6,1.6294,1.6294,0,0,0,1.3969-1.9683,2.126,2.126,0,0,0-2.46-1.1172,45.62,45.62,0,0,1-13.5393.5049c-.0372-.0044-.0767-.0049-.1146-.0078q-.024-2.9443-.0474-5.8877c-.0182-1.9775-.0528-3.9556-.0754-5.9336a92.4931,92.4931,0,0,0,13.4237.2818c.8989-.0469,2-.5518,2-1.6a1.8581,1.8581,0,0,0-2-1.6,92.5152,92.5152,0,0,1-13.4644-.2847c-.0444-3.543-.079-7.0859-.135-10.6289a50.89,50.89,0,0,0,14.585.4653,1.6206,1.6206,0,0,0,1.3968-1.9682c-.35-1.0372-1.5333-1.2193-2.46-1.1177a44.0987,44.0987,0,0,1-13.579-.6773c-.219-12.5937-.5417-25.185-1.1065-37.768q-.1311-2.9209-.284-5.8408c5.3678,4.7153,13.46,4.6723,20.2662,4.746q7.0516.0762,14.0919-.4663a106.4436,106.4436,0,0,0,13.2067-1.6255,26.8791,26.8791,0,0,0,9.3847-3.6132q-.39,27.6459-.78,55.2929-.2027,14.3621-.4051,28.7242c-.1249,8.93-.025,17.9072,3.4986,26.2724a92.0926,92.0926,0,0,0,6.2134,11.6441q3.572,5.93,7.2725,11.78,7.34,11.61,15.17,22.9009,3.9473,5.6924,8.0164,11.3c2.4183,3.3325,4.937,6.688,6.561,10.4985C272.77,342.459,273.3821,346.3935,271.9355,350.1113Z"/><path class="cls-3" d="M206.2393,142.36a8.1259,8.1259,0,0,0-2.5978-1.1567c-.13-.0405-.261-.08-.3911-.1206-.09-.0332-.18-.0669-.2683-.104-.1156-.0493-.2308-.1079-.3429-.1685-.0157-.0361-.3064-.2724-.3481-.3154a2.3221,2.3221,0,0,0-2.8284,0l-.0006.001c-.044-.0039-.0891-.0122-.1322-.0132a7.7448,7.7448,0,0,0-7.3324,5.041,6.9341,6.9341,0,0,0,2.4587,7.8057,8.5237,8.5237,0,0,0,8.872,1.0688,8.7242,8.7242,0,0,0,4.8474-7.1221A5.6255,5.6255,0,0,0,206.2393,142.36Zm-2.0787,5.09c-.0039.0381-.0287.2089-.0314.2431-.0184.0918-.0385.1846-.061.2749a7.0042,7.0042,0,0,1-.2633.8316,3.9332,3.9332,0,0,1-.6184,1.1572,8.0875,8.0875,0,0,1-.541.6841c-.0109.0127-.0464.0473-.0776.0776-.1172.1109-.2357.22-.36.3223-.0888.0737-.18.1455-.2724.2148.0141-.0107-.1445.0987-.23.16-.0908.0513-.2565.1489-.2421.1416-.102.0527-.2058.1035-.3106.1509-.0608.0273-.1226.0517-.184.0766-.04.0152-.1775.0679-.234.083-.14.0381-.2818.0713-.4247.0982-.0624.0117-.23.0224-.3.0278-.1688.0029-.3368.0068-.5065.002l-.0219-.0005c-.12-.02-.24-.0386-.36-.0635-.1-.021-.5488-.1641-.5115-.1377-.2266-.0908-.452-.1821-.67-.2949.0114.0058-.1432-.0825-.2328-.1314-.084-.0576-.2328-.1562-.2226-.1489a6.5517,6.5517,0,0,1-.5237-.4214c.0157.0137-.1293-.1274-.2-.1933-.0628-.0743-.1952-.2237-.1819-.2071-.1766-.2163-.3267-.4472-.481-.6787-.0232-.0346-.0306-.0469-.0449-.0683-.06-.1187-.1132-.2413-.1629-.3648-.0944-.2339-.1582-.4717-.2314-.7124-.014-.0454-.0195-.0649-.0273-.0918a3.8771,3.8771,0,0,1-.04-.4111,4.6394,4.6394,0,0,1,.0383-.9414c.007-.0279.0114-.0459.0236-.0918.0447-.168.087-.334.1423-.499a5.06,5.06,0,0,1,.316-.7525c.0254-.04.0668-.1094.0743-.12.0994-.1431.19-.292.2938-.4326q.13-.1751.2721-.34c.0374-.0444.0768-.0874.1159-.13.0058-.0044.0167-.0142.0523-.0489a6.8019,6.8019,0,0,1,.7435-.5942c-.0647.0449-.2831.1475.0359-.019.1525-.08.3036-.1587.4617-.2271.0583-.0254.1192-.0469.1792-.0708.0495-.0088.2629-.0688.3186-.0806.0033,0,.1688-.0214.2662-.0366.13,0,.3666-.0034.4033-.0024a2.2278,2.2278,0,0,0,1.0444-.2407,13.93,13.93,0,0,0,2.5351.9506c-.363-.1186.2949.1285.4.18a2.0339,2.0339,0,0,1,.1863.1216,1.7042,1.7042,0,0,1,.1525.1275c-.0135.0161.2683.4184.1754.2485a3.8367,3.8367,0,0,1,.3057.8877A5.6988,5.6988,0,0,1,204.1606,147.45Z"/><path class="cls-3" d="M183.7914,125.3012a9.33,9.33,0,0,0-9.6117-4.43,1.74,1.74,0,0,0-1.4483,1.4536,2.5107,2.5107,0,0,0-1.9589.4043,8.1015,8.1015,0,0,0,3.3047,14.5683,8.7411,8.7411,0,0,0,8.9138-3.0752A8.2414,8.2414,0,0,0,183.7914,125.3012Zm-3.2064,5.1817a7.3125,7.3125,0,0,1-.5557,1.3965,7.19,7.19,0,0,1-.4922.728c-.0715.0933-.1492.1807-.2209.2729-.0373.0484-.061.0806-.0779.1045-.0221.0191-.0488.0425-.09.0816a7.1916,7.1916,0,0,1-.6011.5083c-.0893.0669-.1819.13-.275.1919-.0443.0185-.28.1489-.2907.1543-.1306.0644-.2636.123-.3987.1777-.0344.0137-.1042.0352-.1614.0527-.2278.0586-.4552.1094-.6865.1543a1.5023,1.5023,0,0,1-.1559.0166l.0894-.0039-.0906.0039c-.0932.0069-.1609.0078-.038.002-.0719.0039-.1437.0078-.2157.0093-.173.0034-.3447-.0083-.5174-.0093-.0388,0-.0588.0005-.08.0015-.0224-.0049-.04-.0093-.0753-.0162-.2555-.05-.51-.0927-.7621-.16-.0543-.0142-.201-.0606-.2409-.0708-.0613-.0235-.1231-.0454-.1837-.0708-.2679-.11-.5221-.2412-.7783-.375-.0229-.0117-.0255-.0137-.0431-.023-.1654-.11-.3263-.226-.4818-.35-.1122-.0893-.2168-.1875-.3279-.2778l-.0725-.0591a5.3117,5.3117,0,0,1-.5256-.645,3.7926,3.7926,0,0,1-.6261-1.3188,5.6337,5.6337,0,0,1,.0443-3.233,7.14,7.14,0,0,1,.3736-.9487c.0189-.0381.04-.08.046-.09.1021-.1734.2089-.3423.3248-.5069.0827-.1167.1684-.2314.2587-.3427.0239-.03.1509-.17.1958-.2246a6.0821,6.0821,0,0,1,.7491-.6206,1.3114,1.3114,0,0,0,.5569-1.0586,3.0605,3.0605,0,0,0,1.0853.0234c.0654-.01.1058-.0181.1356-.0244.0174,0,.0233.0005.0449,0,.1194-.002.2376-.01.3572-.01.1489-.0005.2976.0152.4459.0157l.0244-.0015c.0222.0054.0346.0088.0646.0151.2631.0552.5255.1011.7849.1743.0492.0137.1751.0611.2283.0806.1293.0523.2585.1035.3854.1621.136.063.2693.13.4011.2012.0352.019.1394.0815.1951.1138a7.1507,7.1507,0,0,1,.5913.4336c.0635.0522.3944.3564.4271.3774a6.1892,6.1892,0,0,1,.6431.81,4.9173,4.9173,0,0,1,.8017,2.7827A4.3155,4.3155,0,0,1,180.585,130.4829Z"/><path class="cls-3" d="M176.5774,134.3222h.0012l-.0392.002Z"/><path class="cls-3" d="M217.9986,101.6777l.0059.0049a.9832.9832,0,0,1,.147.0766A.2653.2653,0,0,0,217.9986,101.6777Z"/><path class="cls-3" d="M221.1733,100.8213l.0065-.01c.0471-.07.0678-.103.0736-.1138l0-.0009A.7488.7488,0,0,0,221.1733,100.8213Z"/><path class="cls-3" d="M223.4846,95.1074a6.5825,6.5825,0,0,0-7.6608-.0889,4.0671,4.0671,0,0,0-2.8049,2.27,4.8431,4.8431,0,0,0-.2237,3.4614,6.9232,6.9232,0,0,0,6.1069,4.5425,6.2638,6.2638,0,0,0,6.2526-3.8741A5.275,5.275,0,0,0,223.4846,95.1074Zm-2.323,5.7544c-.0059-.0025.0009-.02.0117-.0405-.0476.0717-.0909.146-.14.2172a3.2677,3.2677,0,0,0-.3909.4873l-.0019.002q-.1194.1084-.2463.208c-.0533.0415-.11.08-.1632.1211-.132.0654-.2635.127-.3979.187-.1017.0225-.2027.044-.3047.065-.0958.0019-.1912.0068-.2874.0044-.04-.001-.09-.0069-.1381-.0108l-.0066-.001c-.1372-.0244-.3471-.1108-.4982-.123l-.0077-.0029q-.159-.0652-.3136-.1412c-.0165-.0078-.0694-.041-.1257-.0752.021.0259.008.0328-.1141-.0512-.0115-.0078-.0215-.0176-.0329-.0254a.1188.1188,0,0,0-.0314-.01c.0067-.0019.0174.0054.0255.0054a5.1019,5.1019,0,0,1-.4605-.3579c-.0551-.0483-.1074-.1-.16-.15l-.0115-.0156c-.1405-.1822-.2863-.3565-.4107-.55l-.06-.0972q-.1358-.2373.0352.082a1.0038,1.0038,0,0,1-.1429-.312c-.0329-.08-.1385-.5669-.2021-.7094-.0047-.12-.0139-.2393-.01-.36.0023-.0718.0068-.144.0132-.2158.0023-.0254.0063-.0508.0092-.0767l.0068-.0307c.0628-.2017.1264-.3951.2-.5928.0551-.0747.1105-.1528.1624-.23l.0131-.01.0236-.004c.0534-.01.1077-.0253.1618-.038a2.168,2.168,0,0,0,.5075-.0928c.0377.0234.0755.0469.1132.07a2.3769,2.3769,0,0,0,1.0094.2188h.8633a1.8093,1.8093,0,0,0,.7706-.1382,1.6,1.6,0,0,0,.6436-.3306l0-.0005c.0323.04.0649.0786.0952.12.0589.0795.1095.1645.1657.246a5.0063,5.0063,0,0,1,.2094.5962l.0081.0362c.0025-.0122.0083.0058.0163.0761.01.0489.0207.0948.0222.0953-.0055-.001-.01-.0079-.0142-.0147l.001.01a4.0749,4.0749,0,0,1,.0093.5312c-.0048.1045-.0175.2075-.0262.3115l-.0012.0044c-.0141.0528-.1883.6519-.3049.9493l0,.0009C221.2127,100.8012,221.1788,100.8691,221.1616,100.8618Z"/><path class="cls-3" d="M221.5679,98.81l-.0163-.0761a.3458.3458,0,0,0,.0243.1567"/><path class="cls-3" d="M189.6705,92.71l.003.0005c.0114.002.0248.0029.0372.0044.0544.0039.1088.0073.1633.0078.0264.0005.0527-.001.0792-.0014A2.1346,2.1346,0,0,0,189.6705,92.71Z"/><path class="cls-3" d="M194.6861,86.9629a5.3681,5.3681,0,0,0-3.1633-1.8067,6.1432,6.1432,0,0,0-6.2236,2.4951,3.2511,3.2511,0,0,0-1.6908,3.3467,5.1949,5.1949,0,0,0,1.7949,3.2735,6.9511,6.9511,0,0,0,7.1149,1.13,5.5664,5.5664,0,0,0,3.3117-5.4331A5.1376,5.1376,0,0,0,194.6861,86.9629Zm-3.4022,5.08c-.0533.0712-.1111.1381-.1682.206l-.017.0147q-.1234.109-.2569.2075l-.0032.0024c-.1283.063-.2585.12-.3888.1773-.0144.0048-.0292.01-.0427.0131-.0914.022-.1834.0376-.2756.0547-.0594.0025-.1189.003-.1783.003a1.01,1.01,0,0,1-.2425-.0064c-.0463-.0029-.0927-.0058-.1389-.0063l.0987.0014q-.17-.03-.3371-.0717c-.0275-.0074-.0607-.0181-.0943-.0293-.1366-.0542-.2741-.1055-.4068-.1719-.1039-.0518-.2019-.1157-.3057-.1665.0455.0224.0765.0381.11.0547-.0247-.0147-.0482-.03-.0675-.044-.16-.1167-.2993-.2524-.4459-.3828h0c-.0742-.0889-.1447-.18-.211-.2749-.0481-.0688-.0921-.147-.1394-.2192-.0111-.0259-.023-.0508-.0335-.0767a3.2279,3.2279,0,0,1-.1374-.4873,2.95,2.95,0,0,1-.0007-.4634,1.7057,1.7057,0,0,0,1.1454-1.0312c.027-.0757.0586-.1485.0894-.2222.0831-.123.1692-.24.26-.3569.0534-.0479.1061-.0962.1625-.1411.0415-.0328.0846-.0635.1274-.0943.1282-.0679.2565-.1347.391-.19.047-.0132.0938-.0269.1414-.0381.0707-.0171.1421-.0312.2137-.0444.1171-.0044.234-.01.3516-.0069-.0432-.0083-.0838-.0161-.14-.0273.0535.0107.108.0185.1623.0268l.0172,0a1.0682,1.0682,0,0,1,.1757.0249c.0056.0019.0243.0117.0349.0171-.0137-.001-.0354-.0035-.0675-.0084.032.0074.0641.0147.096.0225.0845.043.2225.1143.3224.1626.0578.0459.1137.0938.1715.14l.0021.0014c.0351.0415.0706.0825.1038.1255.0614.08.1182.1636.1722.249a7.1816,7.1816,0,0,1,.2646.8018,4.5985,4.5985,0,0,1-.0038,1.019,5.96,5.96,0,0,1-.3158.9375,1.0807,1.0807,0,0,1-.0541.0972Q191.3574,91.9435,191.2839,92.0425Z"/><path class="cls-3" d="M188.6363,92.3252c.1357.081.2992.1494,0,0Z"/><path class="cls-3" d="M190.575,88.2622c-.0229-.0044-.0462-.0078-.0694-.0113l-.0222.0005c.0779.0147.1415.0259.1825.0327C190.6356,88.2768,190.6056,88.2685,190.575,88.2622Z"/></g></svg>