<svg xmlns="http://www.w3.org/2000/svg" viewBox="0 0 400 400"><defs><style>.cls-1{fill:#99f;}.cls-2{fill:#f15a24;}.cls-3{fill:#f7aeab;}.cls-4{fill:#e5d6ff;}</style></defs><g id="Graphics"><path class="cls-1" d="M320.1654,232.8463q-12.5854-.8613-25.1813-1.5571,12.1851-.0308,24.37-.0469c2.5163-.0039,2.5035-3.1206,0-3.2-26.8272-.85-53.6558-1.6982-80.4938-2.1172-26.8222-.4189-53.6569-.4092-80.47.4629q-22.5861.7345-45.1311,2.3579c-.9085.0669-1.9849.5376-2,1.6-.0142,1.0005,1.1152,1.6255,2,1.6q16.6212-.4769,33.2485-.6748-18.7028.99-37.3787,2.417c-.9083.07-1.9848.5347-2,1.6a1.8532,1.8532,0,0,0,2,1.6q10.8236-.8387,21.6583-1.5112a1.5117,1.5117,0,0,0,.4374,2.8911c-.5329.022-1.0661.039-1.599.0615-2.4928.1055-2.526,3.169,0,3.2,1.123.0137,2.2456.0381,3.3686.0532a2.1647,2.1647,0,0,0,1.5009.5567c2.9305-.1582,5.8623-.2842,8.7947-.3946q9.3921.1663,18.7825.4024c-3.89.499-7.7632,1.1313-11.6077,1.9209a1.509,1.509,0,0,0-1.3445,1.8164q-6.4477.4761-12.896.9531c-.9084.0669-1.9848.5371-2,1.6-.0138.9756,1.1158,1.6577,2,1.6q7.7319-.5046,15.4537-1.1426,2.054-.1515,4.1081-.3037a1.3506,1.3506,0,0,0,.3107.67q-6.45.9749-12.872,2.1294c-1.44.2608-2.1095,2.3575-.4778,2.9243a46.7247,46.7247,0,0,0,16.45,2.1241q2.18-.0439,4.36-.1245a2.1875,2.1875,0,0,0,1.3744.4462q2.6364-.1332,5.2727-.2656a1.2769,1.2769,0,0,0-.0214.4727,1.42,1.42,0,0,0,.4989.8633l-.0278.0166c-1.5191.9922.0856,2.7778,1.4142,2.7314,3.7091-.13,7.4192-.2168,11.13-.2832a2.4448,2.4448,0,0,0,1.5647.6089l6.4747.1611c-3.7352.29-7.4672.6255-11.1934,1.0288q-7.3459.7947-14.6549,1.8863c-2.206.3286-1.5963,3.3256.5318,3.143q1.929-.1654,3.8581-.3315c-.0039.041-.0162.0762-.0168.1186a1.4565,1.4565,0,0,0,.6076,1.14q-.2518.0374-.5036.0757c-2.25.3393-1.5586,3.1792.5317,3.143q6.5259-.1128,13.052-.226a2.21,2.21,0,0,0,1.64.6914l19.5249-.6387a1.35,1.35,0,0,0-.1034.23l-3.8036.3486q-7.9275.7274-15.855,1.4541c-.9072.0835-1.9847.5264-2,1.6-.0141.9951,1.1151,1.6323,2,1.6q12.5136-.4541,25.0353-.2656a1.3308,1.3308,0,0,0-.33.8662,1.1949,1.1949,0,0,0,.0178.1392q-10.8837,1.171-21.7677,2.3427a1.5488,1.5488,0,0,0-1.0817.5381c-.0717.0083-.1433.0171-.2149.0254-2.258.2632-1.554,3.1821.5317,3.1426q7.3851-.1384,14.77-.2778l-1.1072.2709c-1.732.4244-1.98,2.8165,0,3.086,2.6059.354,5.2195.6128,7.8369.792l-7.8934,1.5718c-2.2062.4389-1.5929,3.207.5316,3.1425l1.9891-.06a1.733,1.733,0,0,0,1.8465,2.1372q4.1709-.0667,8.3419-.1338a1.7326,1.7326,0,0,0,1.9121,1.6323q3.0674-.0638,6.1346-.1264a1.7422,1.7422,0,0,0,1.8324,2.2265l2.9774-.1094a1.7793,1.7793,0,0,0,1.8586,1.2871q4.9572-.2138,9.9145-.4267a1.9119,1.9119,0,0,0,1.9642-1.3872c.0029-.0176,0-.0337.0021-.0513,2.0169-.4726,1.35-3.1767-.7-3.1015l-2.6036.0961c-.087-.1167-.1713-.2358-.2542-.3564a1.486,1.486,0,0,0-.9248-1.4644c-.16-.2646-.331-.5224-.4907-.7871q4.83-.5376,9.6289-1.3164,3.7515-.5419,7.4888-1.1806c2.2741-.3916,1.5316-3.107-.5318-3.1431q-2.1921-.0389-4.384-.0767a1.1886,1.1886,0,0,0,0-.7876q4.9641-.4629,9.9205-1.0107l.0268-.001,0-.0019c.1771-.02.3547-.0352.5319-.0552,2.243-.2525,1.57-3.2217-.5317-3.1431q-3.7924.142-7.5849.2837a1.6946,1.6946,0,0,0-.3938-.6914q5.8609-.8072,11.7442-1.4521a1.6351,1.6351,0,0,0,1.4325-1.7554,1.9044,1.9044,0,0,0-1.9641-1.3872q-3.1471-.0315-6.2939-.023c.0052-.0405.0222-.08.0244-.1206a1.4437,1.4437,0,0,0,.8452-1.2739,1.2908,1.2908,0,0,0-.3056-.84,1.3336,1.3336,0,0,0,.2384-.7476,1.2822,1.2822,0,0,0-.3833-.9458l7.4107-.7324c.8821-.0869,1.9186-.5034,1.9885-1.5191q6.926-.2262,13.8521-.4531c2.515-.0825,2.5029-3.0766,0-3.2-.7318-.0356-1.4641-.0581-2.1961-.0908l9.49-.6636a1.92,1.92,0,0,0,1.9644-1.3872,1.6437,1.6437,0,0,0-1.4327-1.7553q-4.7064-.8424-9.4426-1.4249a2.3788,2.3788,0,0,0,1.2023-.3735c2.8356.084,5.6711.168,8.506.273a1.8619,1.8619,0,0,0,2-1.6c.0154-1.0718-1.1188-1.5328-2-1.6q-16.5982-1.2672-33.2381-1.8448a2.5276,2.5276,0,0,0-.9738-.3037l2.237-.1142q10.23-.5216,20.459-1.0425a1.9147,1.9147,0,0,0,1.9644-1.3872,1.46,1.46,0,0,0-.4141-1.2153q7.1358-.3325,14.2717-.6656a1.9571,1.9571,0,0,0,1.6563-.84q9.78.457,19.5539,1.0425a1.8568,1.8568,0,0,0,2-1.6c.0154-1.0786-1.12-1.5235-2-1.6q-16.0582-1.3938-32.1349-2.5684,2.16-.2167,4.32-.4346c.9365.0088,1.8733.0064,2.81.0171,1.35.0162,1.9648-.8857,1.865-1.7363,1.5963-.0923,3.1929-.1772,4.788-.2905.9086-.0645,1.9848-.5391,2-1.6a1.3081,1.3081,0,0,0-.342-.8867q9.998.2167,19.9939.5087c2.055.0606,2.8208-2.8608.5318-3.1425-7.845-.9668-15.7124-1.6626-23.5911-2.1787q14.2946.3463,28.5773,1.0478a1.8588,1.8588,0,0,0,2-1.6C322.1805,233.38,321.0471,232.9064,320.1654,232.8463ZM194.5315,267.652l16.9679-2.5591,5.47-.4707q4.9136-.1868,9.8276-.3574c3.3347.0468,6.6682.1626,10,.3134l-1.301.4336q-14.2641.9969-28.5283,1.9942l-8.2.5727ZM259.305,240.71q-5.6333-.0213-11.2667.0088-8.68-.8424-17.377-1.4839,17.3158-.0557,34.6312.122c-1.3721.12-2.7455.2271-4.1216.3086A2.17,2.17,0,0,0,259.305,240.71Zm-89.6786,9.9326a1.5382,1.5382,0,0,0,.376.49q-4.8193.3407-9.6338.7437Q164.9918,251.2138,169.6264,250.6427Zm49.3294,29.2666c.0574.0425.1155.0835.1728.126a1.8822,1.8822,0,0,0,1.9351,1.4658l.0155.0117c-.3774.0781-.7542.1592-1.1314.2383q-1.0083.0374-2.0167.0752a1.4677,1.4677,0,0,0-.1042-1.8321Zm-10.0781-47.7168q-17.8854.4965-35.764,1.2109-14.8135.578-29.624,1.232,23.7642-1.3008,47.5574-1.9878Q199.9615,232.3824,208.8777,232.1925Zm-53.337,21.0547c-1.0178-.0235-2.0329-.0811-3.0448-.1651q1.8451-.2965,3.6923-.5815A1.4837,1.4837,0,0,0,155.5407,253.2472Zm75.3926,38.5083q-2.3235.0483-4.647.0962,2.2446-.1488,4.4849-.3482C230.8269,291.586,230.8783,291.672,230.9333,291.7555Z"/><path class="cls-2" d="M314.81,214.6046a2.1209,2.1209,0,0,0-2.46-1.1177q-14.6815,2.7774-29.3634,5.5542a65.3524,65.3524,0,0,0-5.4333-15.9824q5.2348-2.2625,10.47-4.5244a1.4752,1.4752,0,0,0,.7176-2.19,2.31,2.31,0,0,0-2.7364-.5737q-4.9833,2.1533-9.967,4.3071a93.7037,93.7037,0,0,0-8.9868-13.5947c-.8694-1.1025-1.7674-2.1826-2.6773-3.2519q14.4377-7.6912,28.8755-15.3829c2.2987-1.2246-.083-3.7944-2.019-2.7631q-14.3961,7.669-28.7925,15.3388a2.337,2.337,0,0,0-.8908-.4511c-.0147-.004-.03-.0074-.0444-.0118a86.6768,86.6768,0,0,0-14.1779-12.5224,159.92,159.92,0,0,1,11.2371-12.3052c1.7926-1.7651-1.3462-3.7222-2.8285-2.2627A169.68,169.68,0,0,0,244.217,165.4a64.3653,64.3653,0,0,0-13.4868-6.4111,68.8634,68.8634,0,0,0-8.4249-2.2393,178.651,178.651,0,0,1,13.389-29.1216c1.1875-2.0654-2.4441-3.3711-3.4538-1.6147a183.8968,183.8968,0,0,0-13.8564,30.0679,70.9968,70.9968,0,0,0-25.972,1.1167,36.4889,36.4889,0,0,1,.245-9.8555c.1568-.9819-1.2143-1.6279-2-1.6a1.899,1.899,0,0,0-2,1.6,37.3358,37.3358,0,0,0-.1024,10.87c-.232.0684-.4683.1221-.7.1929a66.4117,66.4117,0,0,0-15.9817,7.36,89.5375,89.5375,0,0,1-10.0212-33.0259c-.2122-2.1055-4.21-2.084-4,0a93.4134,93.4134,0,0,0,10.7384,34.979,1.4856,1.4856,0,0,0,.1187.1689,68.1514,68.1514,0,0,0-11.2321,10.0884c-4.1368-1.4336-8.3286-2.7026-12.576-3.769a2.1078,2.1078,0,0,0-2.46,1.1176c-.3321.9829.531,1.75,1.3969,1.9683q5.7551,1.4443,11.3724,3.3623c-.4253.5288-.8492,1.0586-1.26,1.6006a71.7643,71.7643,0,0,0-5.9614,9.3076c-.1284.0669-.2586.13-.3869.1978-1.0265.5385-1.1212,1.3452-.7425,1.9868-.6571,1.3276-1.2581,2.6816-1.8325,4.0473q-10.3952-1.5841-20.79-3.1674a2.1388,2.1388,0,0,0-2.46,1.1176,1.6228,1.6228,0,0,0,1.3968,1.9683q10.3218,1.5717,20.6437,3.1445a70.1224,70.1224,0,0,0-3.9082,16.5264,198,198,0,0,0-30.619,1.4028,1.6245,1.6245,0,0,0-1.3969,1.9683c.3216,1.0327,1.5564,1.2285,2.46,1.1172a190.6559,190.6559,0,0,1,29.2735-1.2984l-.0011.0127c-.1033,1.6919-.1355,3.3853-.1095,5.08a1.4355,1.4355,0,0,0,.6814,1.2114,2.1464,2.1464,0,0,0,1.49.5474q27.3127-1.65,54.6919-1.5806,27.238.0769,54.4353,1.87,15.443,1.0194,30.8421,2.5918a1.9845,1.9845,0,0,0,1.69-.774,1.3809,1.3809,0,0,0,.6409-1.2114,52.9014,52.9014,0,0,0-.4733-6.0928q14.9493-2.8278,29.8984-5.6552A1.6329,1.6329,0,0,0,314.81,214.6046Zm-160.649-12.59q.617-1.1125,1.2717-2.2032c.0779.02.1567.0352.236.0494Q154.8943,200.9233,154.1609,202.0143Zm21.3928-22.5313c.0066.04.0129.0781.0229.1172-.8369.5435-1.6748,1.0859-2.4936,1.66-.5142.1606-1.0341.3032-1.5467.4692C172.85,180.93,174.1943,180.191,175.5537,179.483ZM173.3852,216.91c-1.8653.14-3.729.3027-5.593.4594q.6738-.2292,1.3477-.4594a2.0253,2.0253,0,0,0,.7224.1167c1.9243-.0826,3.8409-.2349,5.7491-.4419.6557.0107,1.3109.0244,1.9666.0351C176.18,216.7164,174.7822,216.8053,173.3852,216.91ZM184.407,172.026q-.913.3252-1.821.666c.3208-.1787.6415-.3574.9639-.5332.4746-.17.9556-.3188,1.4329-.48C184.79,171.7936,184.5981,171.9088,184.407,172.026Zm6.8457,30.9375c-.3726-.0327-.743-.0728-1.1143-.1133.3049-.126.61-.2524.9163-.3755,1.1518-.166,2.3068-.3076,3.466-.4116C193.4384,202.3888,192.35,202.692,191.2527,202.9635Zm4.7287-26.978c-.561.0849-1.1224.166-1.6824.2573,1.1423-.2915,2.2935-.5464,3.4488-.7822C197.1565,175.628,196.5656,175.7955,195.9814,175.9855Zm7.1433,42.8623q-1.8577-.0843-3.7158-.1563c1.2672-.0444,2.5343-.0913,3.8018-.1279A1.3052,1.3052,0,0,0,203.1247,218.8478ZM192.9162,160.57c.0008-.0473-.005-.0962-.0083-.1445a66.358,66.358,0,0,1,24.4107-1.251c-.1973.5884-.3948,1.1768-.586,1.7676C208.8308,158.5929,200.7861,158.8575,192.9162,160.57Zm14.388,19.5918c-.83.0855-1.6587.1763-2.4844.29a1.7677,1.7677,0,0,0,.2014-.3007q1.1465-.0579,2.2929-.1153C207.3086,180.0782,207.3059,180.12,207.3042,180.1622Zm7.812,11.11c-.08.0117-.16.0244-.24.0361q2.18-.6145,4.3724-1.1826c.1128.03.2249.063.3373.0942-1.0629.291-2.1268.5781-3.1876.8765C215.9709,191.1559,215.5429,191.211,215.1162,191.2726Zm12.7289,32.0395q2.5639-.0132,5.1278-.0268l.1792.0512a1.5827,1.5827,0,0,0,.0431.2251C231.4117,223.48,229.6291,223.3819,227.8451,223.3121Zm-10.2487-12.0078c5.8524.0195,11.7168.09,17.5632.335q.4276.1567.8555.313Q226.8108,211.4908,217.5964,211.3043Zm12.5214-46.7563q-1.77-.411-3.5624-.711a45.3139,45.3139,0,0,0-6.0166-1.8921c.2278-.706.4626-1.41.699-2.1128,1.0969.2163,2.19.4507,3.2739.7227a61.9335,61.9335,0,0,1,12.9265,4.83C235.0124,165.046,232.568,164.7794,230.1178,164.548ZM250.8622,201.13c.3136.3906.6163.79.9331,1.1782-.4627-.3476-.9421-.6733-1.4113-1.0122A2.7861,2.7861,0,0,0,250.8622,201.13Zm-2.9489-10.9448a1.1392,1.1392,0,0,0,.0687.8652c-.161-.1431-.3165-.2915-.4779-.4346a1.632,1.632,0,0,0-.5368-.3081Q247.44,190.2457,247.9133,190.1847Zm-1.3284,34.0962a1.4231,1.4231,0,0,0-.0958-.1333c1.8982.1616,3.7964.3237,5.6954.4751C250.3188,224.4957,248.4514,224.3961,246.5849,224.2809Zm14.7068,1.0244c.2656.018.5315.0337.7971.0517q2.8994.2682,5.8172.3794c.7036.044,1.4064.0967,2.11.1377.0329.002.0648-.0068.0976-.0068.3.0845.6.1719.8995.2573Q266.1543,225.6932,261.2917,225.3053Z"/><path class="cls-3" d="M192.8141,218.8443a11.8044,11.8044,0,0,0-9.3418-3.0043,12.07,12.07,0,0,0-6.59,3.0068,11.5769,11.5769,0,0,0-10.4448-4.7954c-4.8949.3974-8.75,3.5869-11.3538,7.5517-2.0613-4.2544-3.2534-9.124-7.735-11.4868-6.8306-3.6015-14.2872,1.8745-18.491,6.9766a32.473,32.473,0,0,0-4.9585,8.3418,36.0339,36.0339,0,0,0-11.1465-1.6641c-3.5929.104-6.4178,2.1558-7.0924,5.7661-1.224,6.5508,4.2673,12.479,10.0178,14.64,6.4947,2.44,13.7879,1.6821,20.4339-.1846a24.0264,24.0264,0,0,0,6.8431-2.396c.65-.2754,1.3009-.5488,1.9387-.8525,1.72-.8194,3.5069-2.1905,5.388-2.5664,1.6562-.3311,3.4469.3647,5.0832.6215a39.4857,39.4857,0,0,0,4.7962.4664c6.1476.2055,13.0234-1.3282,16.9142-6.379a28.14,28.14,0,0,0,10.8517.3951c3.2741-.5161,7.2908-1.7681,8.2033-5.4117C196.9685,224.5206,195.23,221.0846,192.8141,218.8443Zm-24.4711,3.7823c.068.1626.1233.3286.1792.4946-.1362.0171-.27.0439-.4053.0635a7.8479,7.8479,0,0,0-.3841-1.6983A6.3365,6.3365,0,0,1,168.343,222.6266Zm21.9252,6.6967a8.8369,8.8369,0,0,0,1.8365-1.7832,3.15,3.15,0,0,1-.1433.3379A3.3889,3.3889,0,0,1,190.2682,229.3233Z"/><path class="cls-3" d="M321.6635,226.6334a8.4737,8.4737,0,0,0-8.2011-4.76,8.2186,8.2186,0,0,0-3.8659,1.2871,32.4528,32.4528,0,0,0-1.5982-4.855c-1.3378-3.2486-2.6878-7.18-5.76-9.1841-5.9661-3.89-14.938-3.876-21.0679-.4258a18.6482,18.6482,0,0,0-5.5995,4.793,12.3972,12.3972,0,0,0-13.1212-3.9824c-3.4756,1.1416-6.1274,3.9082-8.2405,6.791a31.246,31.246,0,0,0-2.9878,5.0127,11.93,11.93,0,0,0-8.8-5.918,11.1442,11.1442,0,0,0-8.896,3.0664,7.398,7.398,0,0,0-2.6462,4.3364,9.3437,9.3437,0,0,0,2.785,8.2334,14.9916,14.9916,0,0,0,2.786,2.1831,13.7044,13.7044,0,0,0,7.3792,4.2857,34.5469,34.5469,0,0,0,10.9465.3247,23.3516,23.3516,0,0,0,8.3322-2.2676c1.5186,2.1729,4.197,3.4365,6.6892,4.2534a44.4555,44.4555,0,0,0,11.6939,2.066,46.7215,46.7215,0,0,0,22.3056-4.5352c5.2884,3.3823,13.3572,3.644,16.9847-2.2373A9.2042,9.2042,0,0,0,321.6635,226.6334Z"/><path class="cls-4" d="M321.0482,237.1119a5.1784,5.1784,0,0,0-4.7907-2.08c-.3658-.5234-.7456-1.0219-1.124-1.4809a15.6976,15.6976,0,0,0-11.1575-5.9351c-4.1542-.2314-8.677,1.58-12.3557,3.3828a21.453,21.453,0,0,0-7.27,5.4942c-5.8772-3.7364-16.88,1.2011-15.8588,8.7212a1.7428,1.7428,0,0,0,.5774,1.0864,12.5815,12.5815,0,0,0,3.0774,4.1719,9.524,9.524,0,0,0,6.3319,1.8447,13.2683,13.2683,0,0,0,3.6008-.6055A12.3175,12.3175,0,0,1,283.8,251.05a5.356,5.356,0,0,1,1.2522.2759,26.9043,26.9043,0,0,0,7.4076,1.123,53.7559,53.7559,0,0,0,13.6461-2.0556,33.2232,33.2232,0,0,0,5.5122-2.0147,10.0288,10.0288,0,0,0,6.836-.1177,6.5267,6.5267,0,0,0,3.9533-5.2114A8.49,8.49,0,0,0,321.0482,237.1119Z"/><path class="cls-4" d="M136.1971,240.3185c-1.24-3.7486-4.9339-5.8975-8.7147-6.2276a12.7108,12.7108,0,0,0-9.8085,3.7671,21.9185,21.9185,0,0,0-4.6815-3.6865,12.2113,12.2113,0,0,0-4.102-1.6372,15.522,15.522,0,0,0-4.8543.1723,11.9459,11.9459,0,0,0-9.8152,6.3492,7.57,7.57,0,0,0-6.2449-.8965,7.8856,7.8856,0,0,0-5.4523,6.8193c-.5856,5.3155,3.7342,7.4375,8.3413,7.7989a8.8747,8.8747,0,0,0,1.0973,1.3012,4.81,4.81,0,0,0,1.2537.8809,3.5429,3.5429,0,0,0,1.0143.3056l.0236.0088c5.1786,1.6055,10.6867,2.92,16.0951,1.6665a15.6133,15.6133,0,0,0,7.275-3.9072c.8844.0332,1.77.0361,2.6372.0191,4.2073-.0835,8.515-.8174,12.135-3.0733C135.7694,247.8771,137.4851,244.21,136.1971,240.3185Z"/></g></svg>