<svg xmlns="http://www.w3.org/2000/svg" viewBox="0 0 400 400"><defs><style>.cls-1{fill:#76c3af;}.cls-2{fill:#99f;}.cls-3{fill:#89d1e9;}.cls-4{fill:#fff;}</style></defs><g id="Graphics"><path class="cls-1" d="M206.9192,223.5392c-.2057-3.3037-3.7311-4.5742-6.5237-4.6065q-44.518-.5178-89.0251.8164a6.5518,6.5518,0,0,0-3.5259,1.0274c-3.4522-.2466-7.3124,1.6035-7.1958,5.31q1.3995,44.5393,2.7991,89.0787c.1013,3.23,3.8161,4.6811,6.5237,4.6069l96.5129-2.6226c2.7932-.0757,6.12-2.2485,5.9266-5.353Q209.6649,267.6677,206.9192,223.5392Z"/><path class="cls-2" d="M312.9877,312.6466q-.01-5.9019-.0985-11.8032-.1891-12.786-.7448-25.563-1.1109-25.5535-3.6676-51.0113c-.258-2.5932-2.5478-3.9145-5-4q-41.7422-1.4472-83.5144-1.3325c-2.5422.0069-4.0383,1.3311-4.521,2.897a3.8262,3.8262,0,0,0-3.1108,3.7153q.5079,47.3731,1.0159,94.7452c.0277,2.5795,2.7426,3.9467,5,4q25.9178.6129,51.8354,1.225l25.9177.6124c4.5415.1074,14.1605,2.2793,16.4468-3.4009C313.7092,319.8409,312.9931,315.6647,312.9877,312.6466Z"/><path class="cls-3" d="M248.0989,152.7743c-.82-10.4156-1.5963-20.9874-3.2682-31.3077-1.3614-8.4043-8.6909-7.7827-15.6987-7.6894q-30.283.4038-60.5461,1.6766c-6.2991.265-17.6458-1.42-20.98,5.5869-1.681,3.5328-1.3427,8.3762-1.6935,12.189q-.702,7.6261-1.4041,15.2532a3.2544,3.2544,0,0,0,2.7459,3.515q.4255,14.2451.9681,28.4865.4605,11.7171,1.0112,23.43c.2515,5.3521-.3953,11.5149,5.9132,13.3137,2.9372.8378,6.3592.5432,9.3821.6481q5.89.2055,11.7815.3517,11.292.2807,22.5883.3412,23.0832.1266,46.1571-.6562c2.3552-.0778,4.7912-1.6546,4.8375-4.1951Q250.4482,183.22,248.0989,152.7743Z"/><path class="cls-4" d="M217.9824,185.4073a157.827,157.827,0,0,0-18.7385-36.0625,2.0116,2.0116,0,0,0-1.9239-.7343,1.944,1.944,0,0,0-.3769-.1353,2.1481,2.1481,0,0,0-2.46,1.1172,254.0462,254.0462,0,0,0-14.6535,35.2529c-.7,2.12,3.2165,2.792,3.857.8506q2.2389-6.7851,4.8648-13.4277a132.0535,132.0535,0,0,1,16.9325.7348c.93.1026,2.1128-.09,2.46-1.1176.0117-.0352.0114-.07.02-.1055a153.2343,153.2343,0,0,1,6.1616,14.478C214.8242,188.1725,218.7475,187.5035,217.9824,185.4073Zm-11.4355-15.49a141.8186,141.8186,0,0,0-16.7136-.856q3.3573-8.19,7.2783-16.1367a155.1549,155.1549,0,0,1,10.0376,17.1988A1.5624,1.5624,0,0,0,206.5469,169.9171Z"/><path class="cls-4" d="M166.5281,272.6573a10.0118,10.0118,0,0,0-2.448-4.9116,9.4872,9.4872,0,0,0-3.9075-2.1255c3.1161-1.3628,5.6875-3.9253,5.25-7.646-1.1538-9.8061-13.715-9.5063-20.989-8.7514-1.1932-.502-3.0083-.042-2.9838,1.3872q.3126,18.2731.6249,36.5468c.0361,2.1158,4.0361,2.1158,4,0q-.1668-9.7579-.3338-19.517a40.0594,40.0594,0,0,0,7.4715-.2647,29.0521,29.0521,0,0,1,5.0551,1.0737,5.2,5.2,0,0,1,3.9979,3.6353,12.2385,12.2385,0,0,1,.6091,5.0513,11.5563,11.5563,0,0,1-14.8312,10.2133c-2.26-.6826-3.5466,2.3355-1.0633,3.0855a15.71,15.71,0,0,0,18.3021-7.56A15.2568,15.2568,0,0,0,166.5281,272.6573Zm-5.1057-14.6831c.5144,3.1709-2.22,4.732-4.8745,5.4322a32.4957,32.4957,0,0,1-3.5747.72,35.1272,35.1272,0,0,0-7.2909.0913q-.1017-5.9524-.2035-11.9048C150.9772,251.7506,160.31,251.1163,161.4224,257.9742Z"/><path class="cls-4" d="M270.5142,290.4283c-3.4633,4.2378-9.4348,4.0254-14.3058,3.0655-2.4924-.4913-5.3671-.9112-7.1107-2.9468a19.45,19.45,0,0,1-3.4629-6.9678,40.1506,40.1506,0,0,1-1.0454-16.4756c.5822-4.7973,2.4179-10.3823,7.0957-12.6567,2.6654-1.2959,5.9107-1.1231,8.8016-1.0654,2.6079.0517,5.2532.3442,7.24,2.1918,1.52,1.4136,4.6739-.5468,2.8285-2.2626-2.2728-2.1138-5.3067-2.8165-8.3172-3.05a34.2905,34.2905,0,0,0-9.4932.3852c-6.2979,1.3281-10.1957,6.8814-11.5494,12.8692a42.6854,42.6854,0,0,0,.2314,19.6718,23.471,23.471,0,0,0,4.0861,8.82c2.1175,2.6,5.0747,3.58,8.2446,4.2812,6.96,1.5376,15.2563,1.8184,20.2109-4.2441C275.461,290.2164,271.7874,288.87,270.5142,290.4283Z"/></g></svg>