<svg xmlns="http://www.w3.org/2000/svg" viewBox="0 0 400 400"><defs><style>.cls-1{fill:#ffeda5;}.cls-2{fill:#89d1e9;}</style></defs><g id="Graphics"><path class="cls-1" d="M128.1145,283.7262c-.08-2.7119-.7383-5.7593-3.0932-7.4219-2.2823-1.6113-5.5391-1.7407-8.254-1.0825a2.3531,2.3531,0,0,0-2.5024-.3174,12.1554,12.1554,0,0,0-6.3374,13.04c1.0691,5.0376,6.2,7.9506,11.1267,7.5283a9.9128,9.9128,0,0,0,6.6965-3.1314C127.8059,290.04,128.2019,286.6881,128.1145,283.7262Zm-12.8584,3.397a4.4529,4.4529,0,0,1-1.5227-2.8379,11.087,11.087,0,0,0,2.7527,3.4956,2.1183,2.1183,0,0,0,1.4883.4726c-.0191.0044-.0379.01-.0571.0142-.0962.0205-.1932.0351-.29.0537a.1635.1635,0,0,0-.0569.0156c-.0232,0-.052,0-.0935,0-.0547,0-.1091-.0029-.1636-.0019A7.0621,7.0621,0,0,1,115.2561,287.1232Zm4.05,5.0986c-.0771.0141-.3345.0493-.4319.0649-.1086.0049-.3752.022-.4377.0235q-.3105.0087-.6214-.0035c-.0886-.0034-.1774-.0112-.2663-.0136-.0322-.001-.0459-.001-.07-.001l-.0186-.0034a10.0272,10.0272,0,0,1-1.2222-.2422c-.0712-.019-.3393-.1074-.3855-.1187-.1875-.0712-.3742-.144-.5568-.227-.188-.0855-.3694-.1826-.5533-.2764-.0544-.0278-.1071-.0591-.16-.09-.04-.0244-.0943-.0581-.1128-.0708-.2263-.1563-.43-.3408-.64-.5171a8.0562,8.0562,0,0,0,2.2041.6709,10.7577,10.7577,0,0,0,4.0574.6211c-.0347.01-.0689.02-.1035.03C119.7632,292.1285,119.5357,292.1793,119.3064,292.2218Z"/><path class="cls-1" d="M176.7183,256.2726c-.66-3.938-3.6323-6.4434-7.1883-7.8907-7.5766-3.0835-17.9582-5.0356-24.3725,1.4566a14.694,14.694,0,0,0-1.2788,1.5044,8.4442,8.4442,0,0,0-1.48,2.4824,9.86,9.86,0,0,0-.8755,5.5024,9.1313,9.1313,0,0,0,.31,1.3706,8.6524,8.6524,0,0,0,.6445,3.7754c1.5076,3.628,5.1324,5.6143,8.7825,6.5313,7.3855,1.8564,17.5449,1.2588,22.7329-5.0493A12.4,12.4,0,0,0,176.7183,256.2726Zm-25.8963,4.375a3.8289,3.8289,0,0,0-.2612,1.2666,4.3756,4.3756,0,0,1-1.0388-1.6465,3.6239,3.6239,0,0,1,.5481-.4351A7.1419,7.1419,0,0,0,150.822,260.6476Zm15.1919-8.294a10.745,10.745,0,0,0-1.0219-.99,8.62,8.62,0,0,1,5.6552,4.7954,5.9743,5.9743,0,0,1,.364,1.3662C170.4666,254.8609,168.4124,253.2633,166.0139,252.3536Zm-.0046,12.8233a10.52,10.52,0,0,0,4.4856-3.9908,8.5854,8.5854,0,0,1-1.1709,1.9463,9.4223,9.4223,0,0,1-4.64,3.0323A9.6223,9.6223,0,0,0,166.0093,265.1769Z"/><path class="cls-1" d="M298.9907,161.0719c-5.0173-5.2656-10.9592-9.7266-16.728-14.1289a115.1936,115.1936,0,0,0-18.8779-12.0918,44.1145,44.1145,0,0,0-17.7185-6.3565c-.6414-.0854-1.2866-.1362-1.93-.2041-1.3967-.6225-2.8225-1.1845-4.2839-1.6689a39.2527,39.2527,0,0,0-18.9475-1.148,71.2714,71.2714,0,0,0-10.7618,2.7984,105.5609,105.5609,0,0,0-37.9023,11.041c-8.6428,4.4893-17.8084,10.4653-21.179,19.9253a41.4936,41.4936,0,0,0-6.6914,17.2407c-2.3313,13.7988.4832,29.8853,11.8658,39.127a35.2876,35.2876,0,0,0,3.9321,2.7529c11.9333,10.6274,28.0325,15.3325,43.6894,16.5464,1.8467.143,3.6971.2246,5.5484.2729,8.2981,1.9292,16.8127,2.9815,25.302,1.7227a50.7781,50.7781,0,0,0,5.3242-1.103,85.39,85.39,0,0,0,27.3315-6.4668,47.5018,47.5018,0,0,0,15.076-10.0806,50.4574,50.4574,0,0,0,4.9636-4.273,43.2875,43.2875,0,0,0,12.3992-23.3754c3.6267-3.6709,6.8161-7.8575,7.3969-13.0308C307.5542,171.85,303.408,165.7071,298.9907,161.0719ZM149.3123,186.2735a28.721,28.721,0,0,1-.3809-4.5468,32.8762,32.8762,0,0,0,.4656,4.1738C149.37,186.025,149.3377,186.1485,149.3123,186.2735Zm138.4016,2.6739a2.5654,2.5654,0,0,0,.3188-.1387,18.7594,18.7594,0,0,1-.1628,5.0137A45.6733,45.6733,0,0,0,287.7139,188.9474Zm-117.3086-1.9121c.2178-.2.4377-.3965.6572-.5943q.1981.4783.41.9512c-.0046.1353-.0036.2715-.0117.4067l-.0024.0288a2.27,2.27,0,0,0-.5389-.22Q170.67,187.3161,170.4053,187.0353Zm.4656,9.4912a3.6877,3.6877,0,0,1-.3.3188c-.13-.1343-.2564-.2715-.3858-.4062-.0022-.15-.0176-.2964-.0285-.4444.21.1187.4177.2417.6264.3633C170.8128,196.4137,170.8416,196.47,170.8709,196.5265Zm97.1548,8.04c-.6529.4009-1.3125.791-1.9842,1.1612.0943-.2076.1985-.4117.2876-.6211.5059-.3775,1-.7779,1.4983-1.1719a5.3293,5.3293,0,0,0,.148.5322C267.9883,204.5025,268.01,204.5318,268.0257,204.566Zm-4.6226-15.1992c-.2849.2847-.59.55-.8882.8213.2876-.6118.5554-1.2324.8086-1.86Q263.3631,188.8478,263.4031,189.3668Zm-100.93-12.0874c-.0757.7051-.1348,1.4121-.1909,2.1191q-.3984-1.0562-.7974-2.1118A9.5336,9.5336,0,0,0,162.4734,177.2794Zm7.2249,39.3135a46.8649,46.8649,0,0,1-4.9056-4.3384,45.37,45.37,0,0,1-3.2624-3.7056,1.5516,1.5516,0,0,0,.1916-.1958,78.5577,78.5577,0,0,0,14.92,11.939A75.885,75.885,0,0,1,169.6983,216.5929Zm14.5534-25.1988q.31-.074.6192-.1474c.2839.3935.559.7934.8681,1.168Q184.9715,191.9407,184.2517,191.3941Zm5.0354-10.3725a12.3394,12.3394,0,0,1-2.49,1.1289l-.0434-.0947a25.8067,25.8067,0,0,0,2.166-2.0137c.1428.0215.2837.0522.4275.0684C189.3084,180.4142,189.3054,180.7179,189.2871,181.0216ZM196.791,137.82q-2.1464.4073-4.2871.8872c1.4983-.5517,2.9993-1.0952,4.5086-1.6157l.0251-.0078A1.401,1.401,0,0,0,196.791,137.82Zm3.8142,9.749c-.2016.1158-.4.2373-.601.3555-.5821-.0151-1.1658.0083-1.75.0474q.5089-.2088,1.019-.416c.7691-.1778,1.54-.3457,2.3071-.5328C201.2547,147.2047,200.9275,147.3839,200.6052,147.5694Zm2.6036-12.1308a104.9925,104.9925,0,0,1,12.0927-2.1724,1.4224,1.4224,0,0,0-.1533.3218C211.1577,134.1319,207.18,134.7613,203.2088,135.4386Zm1.3027,62.8574c-.1118-.0156-.2244-.0264-.3362-.0425a7.9729,7.9729,0,0,1-.4656-.78l-.0112-.0244c.0522-.01.1025-.02.1543-.0307q.4365.1121.88.1884C204.6577,197.836,204.5764,198.0626,204.5115,198.296Zm3.6128-46.7642c.8164-.2446,1.6367-.4765,2.458-.7036-.7232.4092-1.4392.8306-2.1533,1.2549C208.3291,151.8985,208.2412,151.7086,208.1243,151.5318Zm3.1243,75.3287c-.877-.0874-1.7532-.18-2.6277-.293l-.0613-.0142c.2478-.1953.5-.3857.75-.58.75.0694,1.502.11,2.2539.1558A1.3792,1.3792,0,0,0,211.2486,226.8605Zm-.0062-43.2452c.13-.2421.26-.4853.3921-.727.667-.1035,1.32-.2319,1.9693-.3648a1.5147,1.5147,0,0,0,.2422.4082c.0083.1407.0219.28.0337.4195q-.0444.1113-.09.2221A4.164,4.164,0,0,0,211.2424,183.6153Zm3.4063,18.7681c-.5862-.0151-1.17-.0415-1.7534-.0723l-.1106-.2153q1.28.0117,2.56-.0234C215.1118,202.1734,214.8831,202.2858,214.6487,202.3834Zm11.97-11.7666c-.2178.0586-.4316.1294-.6509.1831-.1865.0459-.3769.084-.5659.125-.0339-.0893-.0627-.18-.0952-.27.4575-.3384.9148-.6768,1.3625-1.0293C226.6375,189.9542,226.6267,190.2853,226.6189,190.6168Zm.8-6.5342c-.21.1133-.43.2085-.6433.3159-.1907-.01-.38-.0146-.5708-.0229.4-.4082.7739-.84,1.1526-1.2671.5351-.228,1.0652-.47,1.5862-.7349l-.0071.0249C228.44,182.9855,227.9321,183.548,227.4187,184.0826Zm3.2507,29.0718c-.1748.0942-.3459.1943-.5212.2881-.4326.1074-.8672.2075-1.3015.3081l2.8826-1.394Q231.1994,212.755,230.6694,213.1544Zm4.9993-62.4551c-.531-.0449-1.062-.0888-1.5947-.1157-.1306-.2671-.27-.5288-.4126-.7891.6794.2476,1.3535.5088,2.0283.7686C235.6829,150.6085,235.6758,150.6539,235.6687,150.6993Zm.6421,30.9932c.1072-.11.21-.2256.3159-.3384.0586.2554.1219.5093.17.7666a14.38,14.38,0,0,1,.229,2.0151A18.4345,18.4345,0,0,0,236.3108,181.6925Zm2.6338-24.31c-.0972-.0195-.1953-.0307-.2925-.0488q.05-.3282.1-.6553l.0148-.0088c.49-.1181.9773-.2475,1.4649-.375a2.1344,2.1344,0,0,0,1.2021-.1875l.0557,1.458C240.6423,157.4889,239.794,157.4239,238.9446,157.3829Zm7.6455,59.4707c.2522-.2261.51-.4443.7568-.6777.0933.15.1846.3017.2876.4477C247.2859,216.6988,246.937,216.7716,246.59,216.8536Zm4.8652-1.1841a5.1414,5.1414,0,0,1-.7373-.9174q1.3491-.33,2.6851-.6914Q252.4514,214.89,251.4553,215.67Zm2.575-47.8945c-.1111-.2017-.2459-.3872-.3645-.5835l.2651-1.1977a1.6864,1.6864,0,0,0-1.2763-1.9571q.0486-.1764.0918-.3545c.0268-.0146.0556-.0312.0825-.0459a4.1975,4.1975,0,0,1,.8132.7452,5.183,5.183,0,0,1,.9985,2.65,1.9741,1.9741,0,0,0-.6.72Zm19.1162,51.0684c.6487-.54,1.2766-1.104,1.9143-1.6573.27-.1679.5435-.33.8118-.5q.6332-.4013,1.2617-.8174A29.3579,29.3579,0,0,1,273.1465,218.8434Zm26.8252-33.6968a33.0058,33.0058,0,0,0-2.668-13.3462A38.2217,38.2217,0,0,0,286.875,158.524c-.7856-.6772-1.6006-1.3217-2.4082-1.9746a59.0252,59.0252,0,0,0-4.0454-4.9321q-1.5157-2.045-3.1309-4.02c4.8765,3.5713,9.6495,7.3442,14.2037,11.2944,4.6894,4.0674,9.6289,9.0386,11.0778,15.293C303.5369,178.35,302.1907,181.9542,299.9717,185.1466Z"/><path class="cls-2" d="M205.36,188.9025a61.057,61.057,0,0,1-7.9878,1.69c1.8-.376,3.5933-.79,5.3731-1.2608,2.5222-.666,1.229-3.601-1.0633-3.0854a105.7379,105.7379,0,0,1-22.4909,2.5674q10.1938-10.94,19.8149-22.3916a1.2052,1.2052,0,0,0,.0784-1.4273,1.4826,1.4826,0,0,0-.8923-1.5659,1.992,1.992,0,0,0-1.7676-.9692l-7.6382.0146q-4.0378-.2945-8.0762-.5893-2.7165-.3107-5.425-.6983a2.9341,2.9341,0,0,0-1.5684.188c-.1106-.0083-.2209-.0161-.3315-.0244-2.08-.1519-2.7925,2.853-.5318,3.1431.1673.0214.3352.0356.5025.0566a1.7751,1.7751,0,0,0,1.803,1.15q.5273.0081,1.0546.0156a2.05,2.05,0,0,0,1.01.5518,51.044,51.044,0,0,0,13.3667.9492q-10.8247,10.5023-21.65,21.0049a1.4139,1.4139,0,0,0-.4536,1.5708,1.719,1.719,0,0,0,1.4072,1.8838,65.4171,65.4171,0,0,0,36.5288.312C208.9209,191.2818,207.6336,188.2594,205.36,188.9025Z"/><path class="cls-2" d="M243.8252,194.6866c-.3152-1.0117-1.5622-1.2568-2.46-1.1172a101.0905,101.0905,0,0,1-16.4753,1.1768c5.5312-3.8477,10.5713-8.3682,13.36-14.6685a1.1969,1.1969,0,0,0-.403-1.4614c.2036-.4653.4187-.9238.5957-1.4048.5068-1.3784-1.3416-2.2973-2.46-1.9682a45.5263,45.5263,0,0,1-11.2033,2.2754,41.8852,41.8852,0,0,1-6.2981-1.0069,12.9677,12.9677,0,0,1-1.9666-.9609c-1.5586-.9429-4.3318,1.2685-2.4236,2.5127.1331.0869.2713.1645.4061.249l-.0013.001c.0088.0058.0183.01.0271.0151.3384.2114.679.4195,1.0257.6153a2.0826,2.0826,0,0,0,.6074.3281,26.9791,26.9791,0,0,0,14.9036,3.1006,52.4326,52.4326,0,0,1-3.8633,4.7226c-1.4224,1.37-2.9175,2.6626-4.4561,3.9q-1.3186,1.06-2.6692,2.08c-.3217.2441-.7717.6787-1.2368,1.0581a2.5356,2.5356,0,0,0-2.7617.8467,1.5832,1.5832,0,0,0-.2722,1.562l-.0364.0229c-1.5986.9883.1541,2.7139,1.4143,2.7315a107.8232,107.8232,0,0,0,25.2507-2.6416A1.6379,1.6379,0,0,0,243.8252,194.6866Z"/><path class="cls-2" d="M273.75,203.1441a42.86,42.86,0,0,1-12.5147.78,77.6773,77.6773,0,0,0,12.856-9.581,1.4631,1.4631,0,0,0-.4048-2.5132,6.7638,6.7638,0,0,0-.82-.3936c.0014-.0224.0092-.042.01-.0649.0144-1.0156-1.1152-1.6055-2-1.6a51.6375,51.6375,0,0,1-16.2337-2.4849,7.1747,7.1747,0,0,0-2.2666-.77,2.173,2.173,0,0,0-2.3593.9263,1.459,1.459,0,0,0,.8183,1.998c.3553.13.7149.2432,1.0723.3667a1.2374,1.2374,0,0,0,.3975.4336,23.5415,23.5415,0,0,0,2.37,1.3731c.2354.2148.469.4292.7036.6338a10.2189,10.2189,0,0,0,5.1224,2.6977,11.89,11.89,0,0,0,2.9082.0386q-5.6082,4.081-11.2161,8.1621c-1.25.91-.2952,2.3745.8826,2.6738.3457.0879.696.1533,1.0437.2334.3911,3.4336,6.3684,2.7163,8.6218,2.5469a51.0827,51.0827,0,0,0,12.0732-2.3711C277.2717,205.4254,276.073,202.6505,273.75,203.1441Z"/></g></svg>