<svg xmlns="http://www.w3.org/2000/svg" viewBox="0 0 400 400"><defs><style>.cls-1{fill:#7ac943;}.cls-2{fill:#ffc5ab;}.cls-3{fill:#ffd499;}.cls-4{fill:#fbddeb;}.cls-5{fill:#ffeda5;}.cls-6{fill:#cbf1de;}.cls-7{fill:#bfd3fb;}.cls-8{fill:#99f;}</style></defs><g id="Graphics"><path class="cls-1" d="M318.1445,169.8649a11.343,11.343,0,0,1-1.4643-3.2056,2.17,2.17,0,0,0-2.938-.9561c-13.5234,8.1924-27.0854,16.3731-41.2664,23.3926-13.9653,6.9126-28.5642,12.6831-43.8593,15.854-16.6929,3.461-33.8194,3.48-50.7857,2.9238-8.6325-.2827-17.2793-.6753-25.86-1.706a219.2955,219.2955,0,0,1-24.469-4.4253,372.4186,372.4186,0,0,1-47.4392-15.2139Q77.3873,185.5,74.72,184.45c-.7827-1.5425-4.1724-.8555-3.7341,1.1987,1.875,8.7911,4.1457,17.6963,8.8694,25.4444a35.7546,35.7546,0,0,0,8.9311,9.9858c4.18,3.1475,8.9746,5.4282,13.6392,7.751,19.46,9.6909,39.7783,17.7886,61.1391,22.1372a203.8522,203.8522,0,0,0,64.9077,2.605,148.1139,148.1139,0,0,0,16.2444-2.751,112.06,112.06,0,0,0,15.6748-5.1606c4.8672-1.9327,9.7835-3.6988,14.7054-5.4844a93.9952,93.9952,0,0,0,13.85-6.0137c7.9654-4.4443,15.2461-11.352,17.6524-20.4316a23.7258,23.7258,0,0,0-.5662-13.4717c-1.43-4.5415-3.5617-8.9863-3.11-13.8687a9.121,9.121,0,0,1,2.3321-5.4145,1.0528,1.0528,0,0,0,.2529-.5,93.4368,93.4368,0,0,1,11.9194-8.4219C318.2341,171.5753,318.7385,170.756,318.1445,169.8649ZM87.4019,214.9811c-.1372-.15-.2815-.292-.4158-.4458q-1.046-1.2012-1.968-2.4839c.6545.67,1.3335,1.3169,2.0232,1.9531a10.1784,10.1784,0,0,0,1.0254.9756A2.3141,2.3141,0,0,0,87.4019,214.9811Zm15.3633-10.5786c-.4861-.2251-.9764-.4429-1.46-.6729.8482.2632,1.7022.5059,2.5528.7617C103.4934,204.462,103.1289,204.4361,102.7652,204.4025Zm96.5288,42.9018c-1.6839.1089-3.3692.1943-5.0557.2368a23.572,23.572,0,0,1-6.7688-.43c.281-.0512.562-.101.8428-.1543q.4.0088.8.0181c.0722.0015.1467-.0078.22-.0137,2.8787.1827,5.761.26,8.6451.253C198.4165,247.2418,198.8548,247.2814,199.294,247.3043Zm47.96-29.8144c.2012-.0933.4031-.1846.6038-.2784-.0262.1494-.05.2989-.0764.4483q-.3762.2556-.7518.5112A1.3063,1.3063,0,0,0,247.2544,217.49Zm-24.6579-5.7364.3515-.0425q-1.6362.5449-3.2722,1.09a2.0319,2.0319,0,0,0-.64.0483c-.1025.0249-.2056.0518-.3083.0767C220.0061,212.5069,221.2986,212.1212,222.5965,211.7535Zm-29.3191,25.5586a1.5517,1.5517,0,0,0-.5152.6729c-1.0107.0278-2.0215.0571-3.0324.0766Q191.5033,237.6859,193.2774,237.3121Zm-33.0862-1.9595c.82.0894,1.6418.1661,2.4636.2354-1.1257-.0439-2.2517-.08-3.3777-.1157q.3692-.07.7383-.1416C160.074,235.337,160.1326,235.3463,160.1912,235.3526Zm-8.0518-16.0546a1.8342,1.8342,0,0,0-.4284.2041c-1.1055-.2046-2.2107-.41-3.3138-.628C149.6441,219.0206,150.8919,219.1588,152.1394,219.298Zm117.6135,14.1386-.0747.0274c.4024-.2315.8047-.4624,1.2044-.6983.0056.0259.009.0518.0154.0772.0349.1406.0825.2744.1257.41A3.1859,3.1859,0,0,0,269.7529,233.4366Z"/><path class="cls-2" d="M96.9568,200.4571c-3.2156-2.6621-8.5674-.6987-9.6841,3.2193a5.4715,5.4715,0,0,0,1.6568,5.5342,5.6242,5.6242,0,0,0,6.7592.3994c.065-.043.1162-.0982.1778-.1441a5.6251,5.6251,0,0,0,1.1435-.5835C99.9138,206.9283,99.4507,202.5216,96.9568,200.4571Z"/><path class="cls-3" d="M120.4556,208.1373c-2.043-4.2759-8.2815-5.0893-12.09-2.89a8.772,8.772,0,0,0-4.23,9.039,6.3893,6.3893,0,0,0,1.6086,4.6182,8.3823,8.3823,0,0,0,10.0151,1.9277c.2334-.0761.4659-.1567.6944-.2544a6.9968,6.9968,0,0,0,4.01-7.2592c.114-.5176.2112-1.0386.2969-1.5611A6.0457,6.0457,0,0,0,120.4556,208.1373Z"/><path class="cls-4" d="M150.989,223.7154c.3728-2.7236-.4868-5.6772-1.374-8.247-.6587-1.9082-1.4622-3.8911-3.2607-4.9878a6.688,6.688,0,0,0-6.1529-.1265,9.7282,9.7282,0,0,0-3.8415,3.1021c-.2259.11-.448.2265-.6648.3525-3.3154,1.93-6.6558,5.46-5.6338,9.5923a9.6417,9.6417,0,0,0,4.4167,5.6225c.149.232.3052.46.4744.6788a10.2417,10.2417,0,0,0,8.9058,3.7949,7.8673,7.8673,0,0,0,7.1963-7.1909A9.6752,9.6752,0,0,0,150.989,223.7154Zm-6.3344-9.9526a8.3144,8.3144,0,0,0-1.7574-.85,2.88,2.88,0,0,1,.3213-.0542A1.6669,1.6669,0,0,1,144.6546,213.7628Z"/><path class="cls-5" d="M185.4668,220.3507a7.8793,7.8793,0,0,0-5.24-5.061,10.2282,10.2282,0,0,0-4.6091-.1851,9.8435,9.8435,0,0,0-1.2415.1387c-.228-.0088-.4526-.0039-.6767.0053a8.151,8.151,0,0,0-1.5625-.0273,7.9,7.9,0,0,0-6.2593,4.1118,10.82,10.82,0,0,0-1.2644,6.0635,12.1822,12.1822,0,0,0-.1326,2.5723,10.4829,10.4829,0,0,0,3.075,7.207,8.8114,8.8114,0,0,0,6.76,2.1c.1936-.0186.3843-.0513.5757-.08a10.7174,10.7174,0,0,0,1.374.1753,8.6259,8.6259,0,0,0,5.7669-1.7319,7.9834,7.9834,0,0,0,2.0756-1.5865c1.7063-1.8408,2.1267-4.4755,2.2041-6.8945A18.4231,18.4231,0,0,0,185.4668,220.3507Z"/><path class="cls-6" d="M222.1851,224.9078c-.9331-2.8515-3.02-5.14-5.1306-7.1875a8.703,8.703,0,0,0-4.1641-2.4887,9.0634,9.0634,0,0,0-4.8245.394,12.7208,12.7208,0,0,0-2.6013,1.248,10.4254,10.4254,0,0,0-2.3052.8409,2.0181,2.0181,0,0,0-1.7075.7143c-.2075.2744-.4035.5576-.5888.8472a11.86,11.86,0,0,0-3.7984,6.3589,11.428,11.428,0,0,0,.9509,7.7207c.9756,1.872,2.89,4,5.116,4.3857a12.2319,12.2319,0,0,0,6.772,2.99,11.6746,11.6746,0,0,0,8.4848-2.2012,5.7685,5.7685,0,0,0,2.23-4.374A10.52,10.52,0,0,0,222.1851,224.9078Zm-6.8745,9.562a10.53,10.53,0,0,0,1.3046-2.3413,8.8882,8.8882,0,0,1,.1211,1.0142A8.1643,8.1643,0,0,1,215.3106,234.47Z"/><path class="cls-7" d="M256.3562,221.6578c-.6069-3.477-2.6914-6.5327-4.9861-9.1338a9.1111,9.1111,0,0,0-4.8327-3.1465,15.3086,15.3086,0,0,0-5.5576.0093,2.6852,2.6852,0,0,0-1.2806.1914c-3.9453,1.7124-7.8025,4.1138-9.8884,8.01a13.32,13.32,0,0,0-.6211,11.5454,13.7113,13.7113,0,0,0,11.0867,8.1255,3.38,3.38,0,0,0,1.5408.8535c1.8037.4331,3.6245-.4839,5.1716-1.3149a20.3743,20.3743,0,0,0,7.3066-6.2686A12.025,12.025,0,0,0,256.3562,221.6578Z"/><path class="cls-8" d="M287.4778,209.0558a9.1978,9.1978,0,0,0-1.2593-3.5039,5.5557,5.5557,0,0,0-.3713-.4976,16.4885,16.4885,0,0,0-4.1546-3.9565c-2.4453-1.7232-4.9043-2.8775-7.9326-1.9478a17.5291,17.5291,0,0,0-6.79,4.4063c-3.6237,3.5444-5.9834,8.3794-4.697,13.5087a9.4792,9.4792,0,0,0,1.0269,2.4991,11.35,11.35,0,0,0,6.14,6.4658,12.1221,12.1221,0,0,0,10.9517-.4507c.1423-.084.2707-.1851.4089-.2744a9.1821,9.1821,0,0,0,3.9441-2.5972,12.7178,12.7178,0,0,0,2.8081-7.3393A22.247,22.247,0,0,0,287.4778,209.0558Z"/></g></svg>