<svg xmlns="http://www.w3.org/2000/svg" viewBox="0 0 400 400"><defs><style>.cls-1{fill:#f2f2f2;}.cls-2{fill:#fff000;}.cls-3{fill:gray;}</style></defs><g id="Graphics"><path class="cls-1" d="M236.3467,317.5148a3.718,3.718,0,0,0,2.4578-4.6748c2.2114-2.2754,1.0149-6.6348-3.6253-6.6485q-31.5592-.0937-63.0867,1.4517c-2.4606.1206-3.9438,1.3491-4.4726,2.8061a10.595,10.595,0,0,0-1.1172.6553,3.5413,3.5413,0,0,0-1.2859,3.8921c.6509,2.5073,2.5393,3.6811,4.7376,4.2573a3.5829,3.5829,0,0,0-1.1263,5.0176,7.1318,7.1318,0,0,0,5.0418,3.3931c-2.52.7529-4.58,3.0918-2.792,5.7627,2.0623,3.0805,5.4468,3.5336,8.9087,3.7622,5.53.3647,11.0879.4985,16.6267.6484q16.6351.45,33.2759.1094c4.0354-.0772,5.469-3.4287,4.2981-5.77a3.7715,3.7715,0,0,0-.4112-4.0107c.0269-.001.0535-.001.08-.002,3.6148-.0966,5.1416-2.8134,4.5777-5.0556A3.7977,3.7977,0,0,0,236.3467,317.5148Z"/><path class="cls-2" d="M258.0208,133.0763c-13.3794-9.9707-30.565-13.3233-46.8907-14.312-16.175-.98-32.3357,1.8383-46.737,9.4272a87.075,87.075,0,0,0-46.08,76.6021c-.0816,15.7524,3.61,32.6645,14.8547,44.2978a52.0127,52.0127,0,0,0,15.1826,10.7627c2.5506,2.9116,5.2322,5.7378,7.8575,8.6094a80.2774,80.2774,0,0,1,7.4641,9.3022A96.6,96.6,0,0,1,167.98,304.004a4.3371,4.3371,0,0,0,3.6709,3.8569c.0821.0113.1636.02.2454.0308.3323,2.48,3.4451,3.648,5.5764,3.7969a237.1691,237.1691,0,0,0,48.5327-1.69,4.9444,4.9444,0,0,0,2.3028-1.0278,6.0918,6.0918,0,0,0,5.2229-1.7666,4.435,4.435,0,0,0,2.136-2.541,3.129,3.129,0,0,0,.9853-2.4082,50.5109,50.5109,0,0,1,14.1934-37.0737,35.6345,35.6345,0,0,0,14.2963-8.7583c10.7325-10.9258,16.1509-26.4839,18.3736-41.3487C287.7178,186.9752,282.2815,151.1559,258.0208,133.0763ZM136.59,238.1886a44.9717,44.9717,0,0,1-3.1209-5.78,43.5343,43.5343,0,0,0,3.3323,5.4658A3.2852,3.2852,0,0,0,136.59,238.1886Zm134.7985-66.7329q.816,3.0762,1.41,6.2036Q272.16,174.5356,271.3884,171.4557Z"/><path class="cls-3" d="M208.7066,273.5743c-.1294-14.5844-.1018-29.1748-.0945-43.7593.0027-4.9838.0561-9.9707.2585-14.9511a18.9274,18.9274,0,0,0,3.9558-1.9527c5.0877-3.3046,9.0452-9.5527,8.7193-15.7661a8.3376,8.3376,0,0,0-5.145-7.6723,6.7472,6.7472,0,0,0-8.2117,2.5908c-1.7693,2.8086-1.9568,6.4468-2.3345,9.6538-.4255,3.6128-.7012,7.2417-.8867,10.874a12.5161,12.5161,0,0,1-3.2864.1582,13.5485,13.5485,0,0,1-1.8889-.3061c.0076-.5918.02-1.1841.0261-1.7754.0518-4.7686.1648-9.5523.0689-14.32-.076-3.7671-.73-8.126-4.1822-10.3179a2.4355,2.4355,0,0,0-2.4238-.25,16.0781,16.0781,0,0,0-8.05,14.4438,16.2836,16.2836,0,0,0,9.71,13.9888c.272.1275.5478.2407.8235.354-.1028,6.6685-.2889,13.3355-.6512,19.9951-.9069,16.6675-2.8855,33.3682-7.5073,49.4492A133.2527,133.2527,0,0,1,177.16,310.128c-1.1233,2.0982,2.4993,3.3985,3.4539,1.6153,8.1748-15.27,12.96-31.9273,15.6533-48.982,2.4575-15.56,3.2146-31.3256,3.478-47.0634a18.1616,18.1616,0,0,0,5.0906.1128c-.2866,7.7758-.2244,15.5615-.209,23.3408q.0246,12.575.0493,25.15c.0291,14.8-.4765,30.4009,5.2537,44.3554.6855,1.67,1.4746,3.2862,2.3206,4.88.9458,1.7818,4.5708.4893,3.4538-1.6152C209.4881,300.21,208.8215,286.5553,208.7066,273.5743Zm-19.1407-70.8178a13.365,13.365,0,0,1,4.5218-13.397c1.6252,1.9346,1.7754,4.8608,1.8049,7.33.05,4.1464-.02,8.3-.0586,12.4467-.0054.5723-.0156,1.1451-.022,1.7173A13.2659,13.2659,0,0,1,189.5659,202.7565Zm19.701,5.0434a102.0605,102.0605,0,0,1,1.1972-10.5337c.3164-1.7251,1.0713-5.2173,3.4229-5.1123,2.8733.1279,3.7544,3.772,3.6653,6.0352a15.1352,15.1352,0,0,1-2.7859,7.8437,16.4286,16.4286,0,0,1-5.7078,5.1343C209.124,210.0445,209.18,208.9215,209.2669,207.8Z"/></g></svg>