<?xml version="1.0" encoding="UTF-8"?>
<svg width="402px" height="277px" viewBox="0 0 402 277" version="1.1" xmlns="http://www.w3.org/2000/svg" xmlns:xlink="http://www.w3.org/1999/xlink">
    <title>Painting</title>
    <defs>
        <polygon id="path-1" points="0.662297895 0.123451613 53.1965735 0.123451613 53.1965735 41.8539833 0.662297895 41.8539833"></polygon>
        <polygon id="path-3" points="0.0228632241 0.772840101 173.578346 0.772840101 173.578346 91.9997589 0.0228632241 91.9997589"></polygon>
    </defs>
    <g id="Desktop" stroke="none" stroke-width="1" fill="none" fill-rule="evenodd">
        <g id="Preschool" transform="translate(-843.000000, -4968.000000)">
            <g id="Large-CTA" transform="translate(194.000000, 4968.000000)">
                <g id="Painting" transform="translate(649.000000, 0.000000)">
                    <path d="M350.368503,163.076 L347.43911,163.316891 C348.493692,163.104907 349.553787,162.924583 350.611126,162.726364 C350.525656,162.840615 350.449837,162.960372 350.368503,163.076 M336.464571,44.9898664 C337.872058,44.896263 339.279545,44.8260605 340.688411,44.7434693 C340.451302,44.8714857 340.214194,44.9981255 339.977085,45.1247653 C339.83096,45.0931054 339.677942,45.071081 339.512518,45.068328 C338.493778,45.0421741 337.475039,45.0490567 336.457678,45.0463037 C336.461814,45.0270324 336.460435,45.0091376 336.464571,44.9898664 M386.079525,108.276744 C386.076767,108.776421 386.079525,109.274721 386.076767,109.773021 C385.947185,109.759256 385.817602,109.764762 385.68802,109.771644 C385.683884,109.605086 385.681127,109.438527 385.676991,109.271968 C385.66872,108.887919 385.562573,108.574072 385.398527,108.315286 C385.625986,108.329052 385.856201,108.327675 386.079525,108.276744 M390.3075,38.9827336 L391.006419,38.6881584 C391.047775,38.9028955 391.101538,39.1176326 391.140137,39.3337462 C390.789988,39.5539894 390.501874,39.8719655 390.352992,40.3055692 C390.306121,40.4418447 390.266144,40.5822497 390.219273,40.7185252 C390.113126,40.5368246 389.989058,40.3743952 389.862232,40.2092129 C390.182053,39.8526942 390.319907,39.4177139 390.3075,38.9827336 M244.710474,176.922413 C245.103357,176.63885 245.494862,176.355287 245.884988,176.073101 C245.908423,176.068971 245.93048,176.066218 245.953915,176.063465 C246.140018,176.313992 246.353691,176.528729 246.5908,176.710429 C245.964943,176.802656 245.339087,176.868729 244.710474,176.922413 M397.708869,69.7011511 C397.634428,67.1394476 397.559987,64.5763676 397.488303,62.0160406 C399.163227,60.793691 400.194373,58.8266441 399.784947,56.6531192 C399.488562,55.0838866 398.513935,53.7280145 397.222245,52.8250175 C397.134019,49.7567547 397.044414,46.6871154 396.957566,43.6188526 C397.175375,41.2526149 397.22776,38.8739886 397.113341,36.4871031 C398.828242,35.6832155 398.563563,32.8723619 396.257269,33.0045079 L260.872451,40.6992539 C251.142731,41.2526149 241.411633,41.8045994 231.681913,42.3593369 C231.374499,42.1680006 230.998159,42.0372312 230.503264,42.057879 L218.654731,42.5341549 C218.423137,42.5437906 218.219113,42.5892157 218.027497,42.6497826 C216.850225,42.4639524 215.586106,43.0420907 215.758423,44.3897037 C220.299327,79.9796249 222.933713,115.804931 223.609196,151.675662 C223.781513,160.7896 223.80357,169.903538 223.72775,179.017477 C223.460314,179.307922 223.315567,179.693348 223.381737,180.176506 L224.20886,186.162991 C224.419776,187.679916 225.930654,188.417731 227.32022,187.757001 C227.525622,187.659268 227.732403,187.573924 227.936426,187.480321 C228.169399,187.550523 228.435457,187.587689 228.741492,187.565665 C272.100641,184.509791 315.514932,182.23991 358.956793,180.76841 C371.075519,180.358207 383.194245,180.009947 395.317106,179.722255 C396.345495,179.697477 396.965837,179.112456 397.189161,178.417314 C398.143109,178.122739 399.029509,177.555612 399.699478,176.680146 C399.727049,176.644356 399.733941,176.609943 399.755998,176.574154 C400.339119,176.300226 400.765088,175.778525 400.742574,174.993909 C399.731184,139.895405 398.719338,104.798278 397.708869,69.7011511" id="Fill-1" fill="#F7F1EE"></path>
                    <path d="M132.432298,139.818665 C118.753529,111.167449 84.5978077,104.576415 59.7205767,120.376424 C31.3673453,132.120624 15.9196753,167.7089 25.6664849,196.8054 C36.4131081,228.885167 76.748996,240.718975 106.025132,227.951862 C137.31875,214.305209 146.260764,168.782821 132.432298,139.818665" id="Fill-3" fill="#5AB947"></path>
                    <path d="M70.2505743,144.495 L70.2495743,144.495 C70.2445743,144.499 70.2395743,144.501 70.2345743,144.505 L70.2425743,144.505 C70.2455743,144.502 70.2485743,144.498 70.2505743,144.495" id="Fill-5" fill="#FEFEFE"></path>
                    <path d="M70.2400743,144.504778 C70.2440743,144.500778 70.2460743,144.497778 70.2490743,144.494778 L70.2440743,144.494778 C70.2410743,144.497778 70.2390743,144.501778 70.2360743,144.504778 C70.2380743,144.504778 70.2380743,144.505778 70.2400743,144.504778" id="Fill-7" fill="#FEFEFE"></path>
                    <path d="M70.2405743,144.5025 C70.2415743,144.5005 70.2425743,144.4995 70.2445743,144.4975 L70.2435743,144.4975 C70.2425743,144.4995 70.2415743,144.5005 70.2405743,144.5025" id="Fill-9" fill="#FEFEFE"></path>
                    <path d="M78.5963161,141.805985 C77.9303641,138.238696 74.3818113,136.082371 70.9645344,136.030113 C70.9358178,136.028738 70.9071012,136.036989 70.8770171,136.036989 C68.3786718,135.805954 65.8078512,136.659958 64.0561378,138.521989 C62.1512692,140.54767 61.2049884,143.304962 62.0582821,146.043 C62.9020035,148.753535 65.1651461,150.732459 67.78793,151.615342 C70.5146408,152.532606 73.6584261,151.755613 75.7848229,149.856451 C76.3427457,149.360001 76.8090488,148.78654 77.191937,148.166321 C77.4503865,147.812893 77.6814868,147.444337 77.8674611,147.055153 C78.6715262,145.374649 78.939548,143.650139 78.5963161,141.805985" id="Fill-11" fill="#FEFEFE"></path>
                    <path d="M70.2360743,144.508 L70.2370743,144.507 L70.2490743,144.492 C70.2440743,144.497 70.2400743,144.502 70.2360743,144.508" id="Fill-13" fill="#FEFEFE"></path>
                    <path d="M105.599659,135.758447 C104.480505,133.843231 102.36793,132.497366 100.231866,132.129543 C98.1731764,131.775813 96.0979063,132.161956 94.3003522,133.09913 C93.801569,133.092083 93.284824,133.19778 92.7832773,133.395079 C89.0251319,134.883283 87.0244721,139.445133 87.9792069,143.337573 C88.9809184,147.411811 93.3456175,150.230378 97.3566087,149.985162 C101.533401,149.730082 105.41866,146.683212 106.45215,142.47791 C107.010345,140.208964 106.783751,137.783588 105.599659,135.758447" id="Fill-15" fill="#FEFEFE"></path>
                    <path d="M98.2250743,139.493 L98.2220743,139.493 L98.2210743,139.492 C98.2200743,139.492 98.2190743,139.492 98.2170743,139.493 C98.2150743,139.492 98.2130743,139.493 98.2110743,139.492 L98.2130743,139.494 C98.2120743,139.494 98.2110743,139.494 98.2110743,139.495 C98.2120743,139.495 98.2150743,139.496 98.2160743,139.497 C98.2180743,139.498 98.2200743,139.499 98.2210743,139.5 L98.2240743,139.499 C98.2360743,139.503 98.2470743,139.508 98.2600743,139.511 C98.2640743,139.511 98.2700743,139.51 98.2740743,139.51 L98.2410743,139.493 L98.2390743,139.493 L98.2400743,139.493 C98.2370743,139.491 98.2340743,139.49 98.2310743,139.489 C98.2290743,139.489 98.2270743,139.49 98.2250743,139.49 C98.2250743,139.491 98.2260743,139.492 98.2250743,139.493" id="Fill-17" fill="#FEFEFE"></path>
                    <path d="M73.5914469,139.701277 C73.4272025,139.412839 73.2269045,139.149604 72.9958941,138.926975 C71.848854,137.825029 70.0955785,137.75782 68.7442344,138.449512 C67.5317636,139.072594 66.7385834,140.394369 66.7425743,141.811357 C66.7439247,142.538053 66.9468934,143.187739 67.2633643,143.823423 C67.5891824,144.48011 68.1219752,144.961774 68.7055101,145.353826 C69.3144161,145.76408 70.0301478,145.926502 70.7405382,145.98811 C71.4335694,146.049718 72.1319419,145.866294 72.7595424,145.568054 C73.954654,144.998179 74.7518402,143.627397 74.7424929,142.259416 C74.7358163,141.269485 74.29249,140.32576 73.5914469,139.701277" id="Fill-19" fill="#231F20"></path>
                    <path d="M101.671852,137.90317 C101.48719,137.160388 101.56315,137.619635 101.451829,137.449247 C101.337888,137.273535 101.157154,137.076525 100.989517,136.927436 C100.814022,136.77036 100.611024,136.641239 100.414574,136.513448 C100.342543,136.468189 100.267892,136.428254 100.189312,136.392313 C99.5907954,136.128745 98.9346534,135.946378 98.2758921,136.014266 C98.0375332,136.040889 97.7886969,136.056863 97.5516476,136.115434 C97.3211466,136.171342 97.093265,136.269847 96.874551,136.361697 C96.5877345,136.4815 96.3231822,136.673186 96.0835136,136.868865 C95.9617148,136.970033 95.86349,137.09383 95.7600265,137.214965 C95.6591823,137.334768 95.5504801,137.449247 95.4719003,137.587687 C95.3618884,137.776711 95.2689023,137.98437 95.1903224,138.188036 C95.1602001,138.263912 95.1379358,138.341119 95.1222198,138.420988 C95.0816202,138.623323 95.0501883,138.837638 95.0384013,139.050622 C94.9755374,139.178413 94.9074348,139.304872 94.8655256,139.437987 C94.8026617,139.644316 94.7843264,139.867949 94.7568234,140.079602 C94.7463461,140.155478 94.7397978,140.231353 94.7437268,140.309891 C94.7515847,140.524207 94.7921844,140.743847 94.832784,140.954168 C94.8471903,141.024719 94.8694546,141.089946 94.8956479,141.155172 C94.9598214,141.312248 95.0593559,141.562505 95.1759161,141.727567 C95.2806892,141.872663 95.406417,142.012434 95.5269062,142.144218 C95.5557188,142.174834 95.5845314,142.204119 95.617273,142.233405 C95.9996951,142.55155 96.4056911,142.767196 96.8837187,142.896318 C97.1194583,142.960213 97.3774622,142.980181 97.6184405,142.996154 C97.7153557,143.004141 97.8135805,142.998817 97.9104957,142.988168 C98.155403,142.961545 98.4120972,142.946902 98.6517659,142.879013 C98.8914345,142.812456 99.1271741,142.715282 99.3524364,142.615445 C99.4349453,142.579504 99.5148348,142.535576 99.5894857,142.487655 C99.795103,142.358533 100.00334,142.218762 100.189312,142.061686 C100.343852,141.931233 100.451245,141.759515 100.576973,141.60377 C100.584831,141.597115 100.593998,141.593121 100.600547,141.586465 C100.761635,141.425396 100.908318,141.247022 101.047142,141.067316 C101.100839,140.996765 101.150606,140.923552 101.191205,140.845014 C101.339198,140.569466 101.489809,140.275281 101.543505,139.962461 C101.582795,139.742821 101.632562,139.509869 101.628633,139.283574 C101.628633,139.250295 101.616846,139.214354 101.614227,139.181075 C101.626014,139.115849 101.64042,139.051953 101.649588,138.986727 C101.670543,138.86293 101.688878,138.739133 101.705904,138.614005 C101.719,138.535467 101.730787,138.455598 101.742574,138.37706 C101.719,138.218653 101.695426,138.060246 101.671852,137.90317" id="Fill-21" fill="#231F20"></path>
                    <path d="M109.711901,170.349333 C107.957531,179.462572 105.555798,191.00546 95.8563815,194.898388 C86.4813374,198.66091 74.7735749,194.97114 67.4151591,188.662291 C63.3059857,185.137242 60.2693107,180.614253 58.8103263,175.402177 C58.1753852,173.135879 54.1490302,173.99106 54.8170987,176.3809 C57.7750962,186.951928 66.6697934,194.844853 76.9599809,198.229888 C82.5943934,200.083009 88.9631291,200.63071 94.7466148,199.150958 C100.374126,197.715132 104.965026,194.120077 107.909221,189.167438 C111.141899,183.73436 112.523586,177.461201 113.705129,171.328056 C114.170293,168.906644 110.15636,168.043226 109.711901,170.349333" id="Fill-23" fill="#231F20"></path>
                    <path d="M60.5180292,229.798786 C59.960817,239.560035 59.4021977,249.321284 58.8463926,259.082532 C54.5054843,257.787448 49.7114893,258.190272 45.7913044,260.550844 C44.9329725,261.069153 44.3701319,262.166262 45.0342838,263.072271 C45.6449659,263.904039 46.9803053,264.301363 47.9230633,263.734936 C48.3733358,263.462721 48.8348651,263.213878 49.3146867,262.995281 C49.5243448,262.897668 49.7368172,262.80968 49.9492895,262.724441 C49.9732102,262.714817 49.9661747,262.717566 49.9802457,262.710692 C50.08015,262.677696 50.1800542,262.643326 50.2827726,262.61033 C50.7837007,262.448101 51.2944786,262.314743 51.812292,262.211631 C52.006472,262.173136 52.2020591,262.137391 52.3976462,262.107145 C52.491922,262.092022 52.5847907,262.078273 52.6790665,262.067275 C52.7114298,262.06315 52.7578642,262.059026 52.8197767,262.052152 C53.2827131,262.02328 53.7428353,261.994409 54.2071788,261.999908 C54.4703068,262.002658 54.7348419,262.012282 54.9979698,262.02878 C55.055661,262.032904 55.4524636,262.079648 55.5382968,262.085147 C55.956206,262.149764 56.3727081,262.22263 56.7835817,262.321617 C57.0382671,262.384859 57.2929525,262.454975 57.5448236,262.531965 C57.6151787,262.552588 58.339836,262.812429 57.9739896,262.672197 C58.9434826,263.044774 60.2647509,263.00353 60.861362,262.010907 C60.9204602,261.913294 60.9654875,261.808808 61.0048863,261.701572 C61.9940787,261.631456 62.953722,261.043031 63.0184486,259.91705 C63.5925461,249.876712 64.1652364,239.839124 64.7393338,229.798786 C64.8758227,227.403843 60.6559252,227.396969 60.5180292,229.798786" id="Fill-25" fill="#231F20"></path>
                    <path d="M114.256577,254.515911 C111.114052,255.266644 107.970186,256.017376 104.829003,256.768109 C105.055769,247.779944 105.282535,238.790404 105.50796,229.803615 C105.569683,227.401546 101.544246,227.396046 101.482522,229.803615 L100.743184,259.167428 C100.708296,260.502521 102.178923,261.209255 103.289944,260.945261 C107.301963,259.986908 111.315324,259.028556 115.327344,258.071578 C117.866053,257.465217 116.669156,253.9398 114.256577,254.515911" id="Fill-27" fill="#231F20"></path>
                    <path d="M20.6349431,186.352989 C17.0983477,201.5098 13.5617523,216.667996 10.0265581,231.823421 C8.33812811,228.154417 6.64969806,224.485413 4.96126802,220.815023 C3.9790361,218.678466 -0.12784228,219.549993 0.90903592,221.802939 C3.4928243,227.421447 6.07661268,233.039956 8.66180225,238.658465 C9.35819206,240.174284 12.239032,240.700803 12.7154355,238.658465 C16.7060154,221.552149 20.6965953,204.44722 24.6885764,187.340904 C25.256057,184.909219 21.1758012,184.037692 20.6349431,186.352989" id="Fill-29" fill="#231F20"></path>
                    <path d="M195.215295,153.729208 C192.456677,150.667456 189.698059,147.605705 186.940816,144.545335 C186.379741,143.920826 185.137951,143.844835 184.440733,144.255187 C167.864271,154.006921 151.287809,163.758655 134.709971,173.510389 C132.406539,174.865794 134.668716,177.957943 136.793374,176.708925 C152.881646,167.243194 168.971293,157.778844 185.059565,148.313113 C187.473012,150.992146 189.885084,153.669797 192.297156,156.348829 C193.901995,158.128403 196.974155,155.681489 195.215295,153.729208" id="Fill-31" fill="#231F20"></path>
                    <path d="M206.141355,144.466761 C196.899373,151.956349 187.654627,159.445936 178.412645,166.936893 C176.36363,168.595311 179.497255,171.028845 181.343165,169.533393 C190.585147,162.042436 199.829893,154.552848 209.073257,147.063261 C211.12089,145.403473 207.987265,142.971309 206.141355,144.466761" id="Fill-33" fill="#926558"></path>
                    <path d="M215.223712,137.09743 C213.862148,136.938802 212.531371,136.952245 211.196395,137.30042 C209.906198,137.639184 208.755936,138.201103 207.668644,138.936436 C205.765534,140.22159 204.272432,142.234011 203.786859,144.43329 C203.625934,145.161903 203.9128,145.88917 204.497727,146.31397 C204.32001,146.569388 204.209461,146.865134 204.226253,147.198521 C204.282227,148.252455 205.244977,149.010641 206.325272,149 C211.400699,148.946115 215.982157,144.905141 216.248033,140.005157 C216.455136,139.803512 216.624457,139.56557 216.690226,139.312841 C216.935112,138.385272 216.299809,137.22245 215.223712,137.09743" id="Fill-35" fill="#F89C1C"></path>
                    <path d="M209.263574,142.477 C209.248574,142.494 209.234574,142.51 209.221574,142.523 C209.237574,142.508 209.249574,142.495 209.263574,142.477" id="Fill-37" fill="#009AB3"></path>
                    <path d="M208.258574,144.4675 C208.247574,144.4915 208.236574,144.5155 208.226574,144.5325 C208.238574,144.5125 208.248574,144.4915 208.258574,144.4675" id="Fill-39" fill="#009AB3"></path>
                    <path d="M214.258708,160.050147 C213.237228,159.845232 212.146041,160.270824 211.785439,161.280948 L209.82157,166.783432 C209.483758,167.730505 210.28137,168.760333 211.22644,168.949484 C212.247921,169.155713 213.339108,168.727494 213.699709,167.719997 L215.663578,162.2162 C216.001391,161.27044 215.203778,160.240613 214.258708,160.050147" id="Fill-41" fill="#F89C1C"></path>
                    <path d="M218.66094,175.46759 C218.550574,175.121588 218.358179,174.827784 218.085245,174.586179 C217.936102,174.481782 217.783975,174.377385 217.634831,174.272988 C217.278378,174.091039 216.902535,174.000064 216.504322,174.001555 L215.980827,174.001555 C215.676574,173.989624 215.390218,174.046297 215.118776,174.173065 C214.847334,174.250617 214.607213,174.387825 214.399903,174.586179 C214.183645,174.760672 214.031518,174.975432 213.936066,175.228968 C213.797362,175.463115 213.73323,175.719634 213.74367,175.998524 C213.770516,176.17749 213.797362,176.353474 213.824208,176.530949 C213.934574,176.876951 214.12697,177.172246 214.399903,177.413851 C214.549047,177.516757 214.701173,177.621154 214.851809,177.725551 C215.206771,177.9075 215.582613,177.998475 215.980827,177.998475 L216.504322,177.998475 C216.808575,178.010406 217.094931,177.952242 217.366373,177.826965 C217.636323,177.747922 217.877936,177.610714 218.085245,177.413851 C218.301504,177.237867 218.455122,177.023107 218.549083,176.769571 C218.687786,176.535423 218.751918,176.278905 218.741478,175.998524 C218.714632,175.82254 218.689278,175.645065 218.66094,175.46759" id="Fill-43" fill="#F89C1C"></path>
                    <path d="M218.742837,187 C216.078618,187 216.073024,191 218.742837,191 C221.407055,191 221.411251,187 218.742837,187" id="Fill-45" fill="#F89C1C"></path>
                    <path d="M217.569679,198.103117 C217.487053,197.875544 217.348454,197.684115 217.155215,197.526153 C216.969973,197.349449 216.755411,197.224953 216.512863,197.155342 C216.270315,197.041556 216.014441,196.990687 215.742574,197.001396 C215.565328,197.021476 215.388081,197.042895 215.210835,197.065652 C214.878997,197.145972 214.585807,197.299918 214.3286,197.526153 C214.224651,197.646632 214.120702,197.768451 214.016753,197.888931 C213.836841,198.164696 213.746219,198.465895 213.743553,198.795207 L213.743553,200.203482 C213.734225,200.455151 213.79153,200.685401 213.916802,200.895572 C213.999428,201.123145 214.138027,201.315912 214.3286,201.473875 C214.515175,201.650578 214.729737,201.773736 214.973617,201.844685 C215.2135,201.957133 215.470707,202.009341 215.742574,201.998631 C215.919821,201.978551 216.0984,201.955794 216.274314,201.934375 C216.606151,201.852717 216.899341,201.700109 217.155215,201.473875 C217.26183,201.352056 217.365779,201.231576 217.469728,201.109758 C217.648307,200.835332 217.738929,200.532793 217.741595,200.203482 L217.741595,198.795207 C217.750924,198.543538 217.693618,198.313287 217.569679,198.103117" id="Fill-47" fill="#F89C1C"></path>
                    <path d="M287.582632,128.373305 C285.678274,130.035989 282.467359,130.025059 280.106678,129.729956 C278.525492,129.533221 276.997014,129.085103 275.524015,128.500363 C274.286807,128.008525 273.037116,127.505758 271.679239,127.523519 C269.066122,127.556308 267.612542,129.448516 267.373977,131.839393 C267.321271,132.373583 267.537643,133.955661 267.025839,134.26989 C266.26576,134.739868 263.710898,133.640065 262.931402,133.428301 C259.936859,132.614037 256.982539,131.646757 254.098957,130.505967 C251.243115,129.372008 248.446914,128.09323 245.728385,126.669634 C245.592459,126.598591 244.928084,126.220149 244.179101,125.79389 C244.753321,125.911384 245.237386,125.976963 245.380247,125.97423 C247.789474,125.940075 250.480263,123.740468 249.078001,121.24166 C248.623064,120.431495 247.202771,119.380875 248.829727,118.749683 C250.161252,118.233254 251.965744,119.886375 252.896424,120.6173 C254.169694,121.616003 257.155915,120.857754 256.375031,118.835755 C254.969996,115.201622 258.194781,111.055158 262.153292,112.965128 C263.221285,113.480191 264.30731,113.032072 264.878756,112.299781 C266.226924,111.84893 267.501581,111.221837 268.77069,110.559222 C270.381002,109.716267 272.148046,108.667014 274.032985,108.686141 C275.446343,108.699803 276.858313,109.586477 276.816703,111.094779 C276.768158,112.869492 276.50324,114.205651 278.142679,115.402456 C279.335503,116.272735 280.918075,116.503625 282.355012,116.233115 C283.882104,115.946209 285.499351,114.585459 287.079149,114.838209 C290.75055,115.422949 289.964118,120.334493 286.6575,120.790809 C284.323171,121.113236 284.963967,124.459097 287.209527,124.388054 C289.256746,124.325208 288.550761,127.528983 287.582632,128.373305 M293.309573,115.485795 C292.545333,113.644137 290.959987,112.243766 289.070887,111.57432 C286.729624,110.746394 284.780883,111.406276 282.581093,112.276555 C282.289823,112.391317 281.556097,112.790252 281.185767,112.68642 C280.621256,112.527939 280.940267,112.649532 280.809889,112.195948 C280.689219,111.773788 280.998521,111.123469 280.983264,110.648026 C280.96662,110.124766 280.836242,109.593308 280.648996,109.105569 C279.949946,107.280305 278.220352,105.915456 276.356218,105.348477 C271.098084,103.75547 267.149282,108.079541 262.391857,109.156119 C259.712164,108.496237 256.816099,109.001737 254.632954,110.806507 C253.141924,112.037467 252.244532,113.784857 251.954648,115.63198 C250.068322,114.853237 248.048844,114.679728 246.138939,115.947576 C244.964146,116.727685 244.02237,117.955912 243.87396,119.374044 C243.800449,120.103603 243.914184,120.792175 244.262322,121.441128 C244.352477,121.609172 244.493951,121.88788 244.657618,122.099644 C242.029244,120.904205 237.029093,121.894711 237.828008,125.579394 C238.195564,127.272135 240.369,128.054976 241.736587,128.813226 C243.524435,129.806464 245.349733,130.735491 247.205545,131.601671 C250.979584,133.362723 254.888163,134.86556 258.873026,136.100619 C261.874504,137.032378 266.788661,139.230618 269.697209,137.099322 C270.901129,136.218113 271.311682,134.963928 271.442061,133.541697 C271.494767,132.970619 271.369937,132.261553 271.541925,131.713701 C271.816552,130.842056 272.400481,131.272414 273.200782,131.570249 C276.999788,132.985648 280.7447,133.88735 284.83775,133.323103 C288.251168,132.850392 292.206904,130.888507 292.684034,127.150542 C292.894859,125.50152 292.377506,123.848399 291.367767,122.632468 C293.360892,120.879613 294.381727,118.076139 293.309573,115.485795" id="Fill-49" fill="#9DC3E7"></path>
                    <path d="M366.680559,131.004979 C365.668275,121.679663 354.097727,112.510926 345.046796,117.17835 C341.585616,112.88127 335.818368,110.509435 330.250805,111.085374 C328.296957,111.288246 325.798141,111.841039 324.138272,113.169921 C322.219092,112.365239 320.075268,112.099735 317.938377,112.54088 C314.717094,113.206683 312.01166,115.540395 310.744225,118.482723 C306.488471,118.196796 302.0053,120.854559 300.966668,125.064498 C299.768567,129.919817 303.533433,135.001154 308.472826,135.745927 C309.51007,135.903868 310.684597,135.55667 311.03127,134.47287 C311.337729,133.517055 310.594462,132.380154 309.578018,132.226298 C306.682608,131.789237 304.376541,128.970811 304.978365,126.03529 C305.574642,123.122915 308.886059,121.51083 311.644187,122.361804 C312.574657,122.649093 313.973828,122.086769 314.201245,121.087385 C315.094274,117.17835 319.104584,115.126481 322.421548,116.455362 C322.536644,119.096786 326.119853,120.699341 328.309438,118.86396 C328.923742,118.34929 329.135905,117.317229 328.633923,116.652788 C328.323305,116.238874 327.984952,115.853553 327.623026,115.491378 C327.713161,115.443724 327.800522,115.391985 327.89759,115.351138 C328.661657,115.035256 329.522792,114.841915 330.343713,114.731629 C331.89542,114.521949 333.488728,114.666274 335.000221,115.050233 C338.246464,115.878061 340.965765,117.893168 342.654754,120.730657 C343.321752,121.852581 345.001035,121.84305 345.920411,121.101001 C352.207667,116.03464 360.710855,123.924874 362.287523,129.89667 C363.047429,132.77909 362.340217,136.407645 359.659744,138.155886 C357.230261,139.739379 353.835642,138.507168 353.183898,135.703719 C352.72629,133.747159 349.818399,134.159711 349.172201,135.703719 C348.588404,137.096593 347.115739,138.068746 345.580672,138.094616 C344.72231,138.108232 343.979044,137.612624 343.124842,137.714741 C342.211013,137.823666 341.541241,138.54393 340.635732,138.748164 C336.544994,139.672663 333.284884,135.615217 331.053699,132.902992 C329.876398,131.473356 326.434632,132.039764 327.251393,134.309483 C328.517441,137.819581 326.987921,142.300471 323.364498,143.847202 C319.889451,145.329939 315.460361,143.388357 313.972441,140.040284 C313.030878,137.921698 308.967874,138.776757 309.960745,141.011075 C312.34308,146.367447 318.841113,149.402362 324.550119,147.358662 C328.206823,146.048843 330.781907,142.82331 331.587575,139.209733 C332.739915,140.215925 334.001803,141.081876 335.456442,141.660539 C338.235371,142.764763 341.140488,142.759316 343.723893,141.468559 C346.311458,141.998205 348.930917,141.385504 350.868124,139.795203 C353.077122,142.162954 356.844761,143.150084 359.984229,142.108491 C364.608843,140.574015 367.182541,135.620664 366.680559,131.004979" id="Fill-51" fill="#9DC3E7"></path>
                    <path d="M319.128223,90.0002221 C318.858177,89.8573437 318.578584,89.7433158 318.304447,89.6155496 C318.705424,89.2872042 318.979562,88.8132327 319.046391,88.2334763 C319.684681,82.769753 320.322971,77.3060298 320.961261,71.8423065 C321.088101,70.7679712 319.83607,70 318.91546,70 C317.799816,70 316.996498,70.761102 316.869658,71.8423065 C316.231368,77.3060298 315.593078,82.769753 314.954788,88.2334763 C314.950697,88.2788127 314.960244,88.3186538 314.960244,88.3639902 C306.674748,86.0188618 297.303614,88.5164853 290.652032,93.9032741 C286.133539,97.564532 282.560206,102.959564 282.749783,108.98381 C282.824796,111.383891 286.917763,111.386639 286.841386,108.98381 C286.662719,103.296152 290.55247,98.4479049 295.027319,95.3952538 C299.534901,92.3206215 305.119939,90.7008756 310.561771,91.2572769 C320.6012,92.284902 328.922156,102.477349 326.15896,112.694525 C325.513851,115.083616 329.489525,115.94913 330.104629,113.672693 C332.616873,104.3856 327.451907,94.3525166 319.128223,90.0002221" id="Fill-53" fill="#FFDF40"></path>
                    <path d="M286.157564,95.9372832 C282.22859,92.8897824 279.357889,88.9195698 277.771843,84.3315298 C277.434996,83.3591232 276.259441,82.7869613 275.255718,83.0743853 C274.310637,83.3443491 273.469201,84.2590022 273.826504,85.2891623 C275.615749,90.4614521 278.902395,95.10053 283.263679,98.4838065 C284.098296,99.1311822 285.333856,99.2117684 286.157564,98.4838065 C286.892627,97.8310584 286.981271,96.5779433 286.157564,95.9372832" id="Fill-55" fill="#FFDF40"></path>
                    <path d="M299.160473,84.9585338 C298.271878,84.3318765 297.429338,83.6465534 296.645044,82.8958979 C296.261702,82.5319034 295.895969,82.1519091 295.539718,81.7612482 C295.518045,81.7359153 295.507209,81.7239154 295.489599,81.7079157 C295.482826,81.6985825 295.481472,81.6972492 295.47199,81.6852494 C295.385298,81.5785843 295.293187,81.4732525 295.20514,81.3665874 C295.027692,81.1532573 294.855662,80.9345939 294.687696,80.7132639 C294.049695,79.8746097 293.474005,78.9906229 292.966042,78.0706366 C292.830586,77.8279736 292.705966,77.5813106 292.578637,77.3359809 C292.554254,77.289315 292.550191,77.2826484 292.539354,77.263982 C292.536645,77.2573154 292.539354,77.2626487 292.529872,77.2413157 C292.47298,77.1146509 292.414734,76.9893194 292.359197,76.863988 C292.134339,76.3586622 291.931154,75.8440032 291.745578,75.3226777 C291.402873,74.358692 290.251492,73.7867006 289.247758,74.0746963 C288.317171,74.3400257 287.465149,75.252012 287.828173,76.2733301 C289.415725,80.7372635 292.371388,84.7278706 296.286084,87.4864961 C297.117788,88.0718207 298.354507,88.2638178 299.160473,87.4864961 C299.830984,86.8385058 300.035523,85.5758579 299.160473,84.9585338" id="Fill-57" fill="#FFDF40"></path>
                    <path d="M344.155374,82.5361817 C343.299377,81.7498196 342.12204,81.8964768 341.255104,82.5361817 C336.612757,85.9623744 331.971777,89.388567 327.330798,92.8147596 C326.480271,93.4432907 326.615644,94.8065047 327.330798,95.4643672 C328.186795,96.2493327 329.3655,96.1040722 330.231068,95.4643672 C334.873415,92.0367779 339.513027,88.6105852 344.155374,85.1843926 C345.004534,84.5558615 344.869161,83.1926475 344.155374,82.5361817" id="Fill-59" fill="#FFDF40"></path>
                    <path d="M348.464481,95.887577 C347.773879,94.9396847 346.623809,94.8072282 345.588606,95.2252942 L334.775707,99.582563 C333.830157,99.9619958 333.428122,101.297599 334.020668,102.113035 C334.71127,103.060927 335.86134,103.192004 336.895142,102.775318 C340.499441,101.322435 344.105142,99.8709319 347.709441,98.4180491 C348.654992,98.0386162 349.057026,96.7030126 348.464481,95.887577" id="Fill-61" fill="#FFDF40"></path>
                    <g id="Group-65" transform="translate(288.742574, 0.000000)">
                        <mask id="mask-2" fill="white">
                            <use xlink:href="#path-1"></use>
                        </mask>
                        <g id="Clip-64"></g>
                        <path d="M52.8438462,39.0954613 C43.1806154,26.4090742 33.5146154,13.7240742 23.8513846,1.0376871 C23.0247692,-0.0456354839 21.0309231,-0.310570968 20.2638462,1.0376871 C13.8170769,12.3688806 7.37307692,23.6986871 0.927692308,35.0298806 C-0.350307692,37.2755903 3.33969231,38.9720097 4.51384615,36.9066226 L22.3172308,5.61094516 C30.6221538,16.5135258 38.9284615,27.4147194 47.2333846,38.3159129 C46.1783077,39.2452677 46.1132308,41.0762355 47.97,41.3938806 C48.8132308,41.5381387 49.6564615,41.6823968 50.4996923,41.8266548 C51.9036923,42.0680097 54.0456923,40.6739774 52.8438462,39.0954613" id="Fill-63" fill="#59240C" mask="url(#mask-2)"></path>
                    </g>
                    <g id="Group-68" transform="translate(227.742574, 185.000000)">
                        <mask id="mask-4" fill="white">
                            <use xlink:href="#path-3"></use>
                        </mask>
                        <g id="Clip-67"></g>
                        <path d="M173.21815,86.0025612 C166.692165,77.2035164 162.488031,66.6798149 157.734094,56.8797552 C152.670118,46.4411881 147.60752,36.0053672 142.543543,25.5681731 C139.615394,19.5318746 136.687244,13.494203 133.757717,7.45790448 C133.522087,6.97181493 133.144528,6.69444179 132.720118,6.5708597 L168.767362,4.4589791 C171.370315,4.30656119 171.402008,0.622441791 168.767362,0.77760597 C125.72563,3.30005373 82.6852756,5.82250149 39.6435433,8.34494925 C27.5092913,9.05623284 15.3750394,9.76751642 3.24216535,10.4788 C0.639212598,10.6312179 0.607519685,14.3139642 3.24216535,14.1601731 L42.9161811,11.8340836 C31.5604724,31.6140836 20.4638189,51.541009 9.64413386,71.6162328 C6.49275591,77.4644119 3.36480315,83.3249493 0.258897638,89.1964716 C-0.934409449,91.4539045 2.72956693,93.1332478 3.82917323,91.0543224 C14.7246457,70.4545612 25.9012205,50.0017254 37.3602756,29.7081731 C40.6260236,23.9245313 43.9165748,18.1532478 47.2264173,12.3956955 C47.3931496,12.1073373 47.4716929,11.828591 47.4868504,11.5663224 C75.4551575,9.92817313 103.423465,8.28865075 131.390394,6.64912836 C130.377598,7.02948657 129.589409,8.07993433 130.188819,9.31575522 C140.349843,30.2601731 150.497087,51.2128299 160.67189,72.1517552 C163.313425,77.5852478 166.03626,82.9912776 169.647874,87.8617851 C171.039606,89.7374866 174.740787,88.0567701 173.21815,86.0025612" id="Fill-66" fill="#59240C" mask="url(#mask-4)"></path>
                    </g>
                </g>
            </g>
        </g>
    </g>
</svg>