<svg xmlns="http://www.w3.org/2000/svg" viewBox="0 0 400 400"><defs><style>.cls-1{fill:#fff000;}.cls-2{fill:#f6e8d5;}</style></defs><g id="Graphics"><path class="cls-1" d="M282.1938,227.0176a82.46,82.46,0,0,0-6.4014-28.0976c-6.6377-16.3863-16.7075-31.79-30.1-43.44-13.5532-11.79-30.94-19.417-49.0322-19.77a64.5717,64.5717,0,0,0-13.0264,1.0864,1.6324,1.6324,0,0,0-1.3967,1.9683,1.3775,1.3775,0,0,0,.28.4858,77.4472,77.4472,0,0,0-33.4121,13.2168,75.8063,75.8063,0,0,0-28.6238,37.6822,82.59,82.59,0,0,0-.5368,49.767,81.7624,81.7624,0,0,0,27.6635,40.502,90.9745,90.9745,0,0,0,45.2295,18.8511,86.9012,86.9012,0,0,0,51.0325-9.2525,73.1408,73.1408,0,0,0,33.9238-37.7617A64.3586,64.3586,0,0,0,282.1938,227.0176ZM122.9516,197.16c-.13.0166-.2588.042-.3867.0708.136-.5479.2583-1.1.4055-1.6436a2.2411,2.2411,0,0,0,.3271.1495C123.1674,196.2071,123.07,196.6861,122.9516,197.16Zm5.3616,7.6753a2.5956,2.5956,0,0,0-.5459.3462c.0285-.0664.0517-.1343.0808-.2007.2058-.4746.4262-.9414.6477-1.4077C128.4465,203.9951,128.39,204.4165,128.3132,204.835Zm4.4209-20.2876q-.8577,1-1.68,2.0293c.3554-.6909.7158-1.3794,1.1069-2.0513.1892-.3252.428-.64.6145-.9678.0352.0386.0723.0782.1094.1172C132.8334,183.9654,132.7812,184.2559,132.7341,184.5474Zm3.2854,22.585c-.0642.0561-.1285.1118-.1919.1689-.0557-.1284-.1111-.2573-.1668-.3857a37.0462,37.0462,0,0,1,1.4329-7.0577A31.7479,31.7479,0,0,0,136.02,207.1324Zm65.86,82.0014a1.84,1.84,0,0,1-.305.1724c-.27-.1792-.5256-.3882-.788-.582a5.02,5.02,0,0,1,1.0056-.233,1.4832,1.4832,0,0,0,.42-.1225c.0964.0185.1929.0366.2893.0552A2.2927,2.2927,0,0,1,201.8791,289.1338Zm-45.73-68.9458c-.1326-.1968-.2734-.3877-.4082-.583-.1724-.5864-.3411-1.1733-.5173-1.7583.0127-.0083.0263-.0151.0393-.0234a3.19,3.19,0,0,0,.5744.3564,2.0819,2.0819,0,0,0,.6531.1748q.1007.4476.2039.8946c-.05.2065-.1055.4121-.149.6206C156.415,219.9776,156.28,220.0811,156.1491,220.188Zm17.3252,36.9863c-.0413.0191-.0818.04-.1228.0591-.2891-.0332-.5781-.0722-.8677-.1123q-.0521-.2328-.1042-.4653l.059-.0376c.3628.1738.7293.3393,1.0965.5034C173.5148,257.14,173.4943,257.1568,173.4743,257.1743Zm69.2029-56.7036c-.03-.809-.0777-1.6211-.1475-2.4355.0108-.085.0254-.17.0366-.2549.357.9141.67,1.8438.9551,2.7822l-.07.2842C243.1957,200.7159,242.9386,200.5884,242.6772,200.4707Zm-4.5523,53.73c-.5595.5777-1.1379,1.1333-1.7251,1.6763.7058-.8,1.409-1.6011,2.095-2.416C238.3718,253.7071,238.2553,253.9571,238.1249,254.2Zm-.34-17.1909a7.1109,7.1109,0,0,0,.0317-.8652c.1086-.2344.2229-.4663.3284-.7027.1147.0132.2319.02.3452.0362C238.2614,235.9912,238.0229,236.5,237.7844,237.0093Zm22.7077-37.7729q.482,1.31,1.0076,2.6035c-.0772-.0625-.1531-.1255-.2312-.187a1.2474,1.2474,0,0,0-.572-.938C260.6376,200.2207,260.56,199.73,260.4921,199.2364Zm17.5469,25.5468c-.2285-1.3745-.4917-2.7417-.7766-4.1035a2.7383,2.7383,0,0,0,.3484-.0639C277.7931,222.001,277.9421,223.39,278.039,224.7832Zm-48.563-5.54c.7019-1.8252,1.43-3.64,2.2214-5.4282-.5827,1.8525-1.2385,3.6806-1.9262,5.4966C229.6733,219.2867,229.5741,219.2671,229.476,219.2432ZM266.5839,188.32c.1133.2129.2224.4292.3347.6431-.0852-.0889-.1775-.1728-.2639-.2607q-1.0788-2.0948-2.21-4.1636a1.5076,1.5076,0,0,0-.633-.6089c-.2815-.6709-.5755-1.3369-.896-1.9927C264.1962,184.0347,265.433,186.1568,266.5839,188.32Zm-13.9856-20.6738a1.9057,1.9057,0,0,0-.4177.1616c-.3162-.2939-.6524-.5659-.9858-.8413-.4327-.5581-.8978-1.09-1.3482-1.6343a1.2989,1.2989,0,0,0-1.0466-1.268c-.0388-.0445-.0735-.0918-.1123-.1362q-.2055-.5193-.4412-1.0259C249.7446,164.4385,251.2021,166.0147,252.5983,167.6465Zm-18.3821,50.8911q-.0838.709-.1684,1.4185c-.14.04-.28.0806-.4207.1211C233.82,219.5625,234.0317,219.0552,234.2162,218.5376Zm-2.7641-65.7192c.6208.4536,1.2273.94,1.8242,1.4477q-.9273-.5661-1.8972-1.06A1.3655,1.3655,0,0,0,231.4521,152.8184Zm-1.846,6.7358c-.2773.0225-.5522.0493-.8279.0752a4.9055,4.9055,0,0,1-1.2763-.6592,1.7578,1.7578,0,0,0-.1834-.3178Q228.4623,159.1036,229.6061,159.5542Zm-31.655-19.5761c1.4675.0566,2.93.164,4.3877.3129q-1.0957.0426-2.1895.1426c-.7385-.1167-1.4763-.2378-2.2168-.34C197.943,140.0557,197.9438,140.0161,197.9511,139.9781Zm-3.0554,53.8486c.2253-.1323.45-.2661.675-.3984.107-.0142.2149-.0235.3218-.0386-.5039.46-1.0061.9233-1.4985,1.3989Q194.643,194.3067,194.8957,193.8267ZM164.01,158.4219q.3548-.0094.71-.0185c.0022.0556-.002.1113.0012.1669q-.9464.3-1.884.64C163.22,158.9356,163.6164,158.6817,164.01,158.4219Zm12.883,120.1641a17.0911,17.0911,0,0,1-1.7368-.8233q1.24.4372,2.4871.8545C177.3925,278.6075,177.1425,278.6,176.8925,278.586Zm20.32,15.33q1.35-.0315,2.7-.0639a1.3546,1.3546,0,0,0,.1018.22Q198.611,294.0149,197.2123,293.9165Zm17.0371-.2968q3.66-.6117,7.32-1.2227c1.07-.1787,2.1323-.3843,3.2026-.5107A92.4742,92.4742,0,0,1,214.2494,293.62Zm16.9839-17.0039a2.1211,2.1211,0,0,0-.2461-.0123c-.0673.0025-.135.0049-.2026.0079a1.3388,1.3388,0,0,0-.0737-.3457c.4458-.0538.8923-.1075,1.331-.1788C231.7809,276.2754,231.5016,276.437,231.2333,276.6158Zm5.9473,11.4887c.2932-.2187.5845-.438.8638-.6743q.7177-.25,1.4038-.5508a2.1706,2.1706,0,0,0,.395.0962Q238.5175,287.574,237.1806,288.1045Zm4.8262-8.4853c-.0826-.04-.1682-.0752-.2571-.1075q.5574-.5141,1.1145-1.0278a2.1584,2.1584,0,0,0,.7607.5034C243.0878,279.2036,242.5456,279.4073,242.0068,279.6192Zm2.5048-7.8286c-.0478.1186-.1186.2236-.1767.3364-.6265.1294-1.251.2695-1.8833.373.7712-.4218,1.5217-.8789,2.26-1.3554A3.898,3.898,0,0,1,244.5116,271.7906Zm5.38-4.3057c-.4448.5254-.9265,1.019-1.4006,1.5195a3.5619,3.5619,0,0,0-.2171-.4638q.9255-.7632,1.8069-1.5821C250.0221,267.1353,249.9531,267.3086,249.892,267.4849Zm6.2854-1.06c-.3672.417-.7385.83-1.1221,1.232q.9408-1.5074,1.7728-3.0782Q256.4838,265.4955,256.1774,266.4253Z"/><path class="cls-1" d="M202.5492,79.1563q-3.655,26.543-7.31,53.0859c-.2832,2.0567,3.7112,2.0967,4,0q3.6549-26.543,7.31-53.0859C206.8324,77.1,202.8378,77.06,202.5492,79.1563Z"/><path class="cls-1" d="M320.04,134.5034l-45.1509,38.4571c-1.9179,1.6338,1.2513,3.6059,2.8284,2.2632l45.1509-38.4576C324.7861,135.1324,321.6166,133.16,320.04,134.5034Z"/><path class="cls-1" d="M337.7763,291.2354q-25.8867-12.2505-51.2588-25.5488c-1.9394-1.0162-4.3286,1.5527-2.019,2.7631q25.3667,13.2949,51.2588,25.5489C337.726,294.93,340.1362,292.3526,337.7763,291.2354Z"/><path class="cls-1" d="M246.3759,370.0489q-6.045-20.7576-13.323-41.1265c-.686-1.9194-4.6086-1.252-3.8572.8506q7.2749,20.3591,13.323,41.1264C243.0881,372.8545,247.0031,372.2022,246.3759,370.0489Z"/><path class="cls-1" d="M123.246,315.2764a2.3174,2.3174,0,0,0-2.7365.5737Q100.9937,338.405,80.372,359.9668c-.7031.7349-.0166,1.83.7173,2.189a2.3352,2.3352,0,0,0,2.7363-.5742q20.6151-21.5538,40.1377-44.1162C124.6254,316.7,124.0124,315.6514,123.246,315.2764Z"/><path class="cls-1" d="M100.2282,243.0948a2.3056,2.3056,0,0,0-2.7363-.5738q-17.109,7.1778-34.78,12.89c-.8642.2783-1.7148.9472-1.3969,1.9682a2.0967,2.0967,0,0,0,2.46,1.1177q18.14-5.8476,35.7356-13.2129A1.477,1.477,0,0,0,100.2282,243.0948Z"/><path class="cls-1" d="M124.57,154.1118q-19.8585-14.53-40.2261-28.3471-5.8476-3.9654-11.736-7.87a2.4008,2.4008,0,0,0-2.8284,0,1.4115,1.4115,0,0,0,0,2.2627q20.5052,13.6024,40.5168,27.93,5.7441,4.114,11.4453,8.2871a2.3779,2.3779,0,0,0,2.8284,0A1.4136,1.4136,0,0,0,124.57,154.1118Z"/><path class="cls-2" d="M324.1428,208.67c-1.3594-4.01-2.9314-8.2661-5.9456-11.3482a11.3543,11.3543,0,0,0-13.8084-1.8037,17.0932,17.0932,0,0,0-6.342,6.502,21.4447,21.4447,0,0,0-14.3125-13.5757c-9.67-2.7613-20.2534,1.2744-26.3208,9.0937a28.773,28.773,0,0,0-5.0164,10.2979,14.2561,14.2561,0,0,0-4.9384-1.3872,11.3585,11.3585,0,0,0-9.396,3.4209,8.5438,8.5438,0,0,0-1.48,8.6933,8.3378,8.3378,0,0,0,6.6108,5.481,84.4892,84.4892,0,0,0,55.2432,9.76,81.278,81.278,0,0,0,14.2139-3.6958c4.1794-1.4926,8.92-3.3691,11.3891-7.3056C326.7685,218.4522,325.69,213.2349,324.1428,208.67Z"/><path class="cls-2" d="M166.05,266.0034a14.328,14.328,0,0,0-10.7117-7.1572,14.6885,14.6885,0,0,0-9.3623,2.0552,24.2177,24.2177,0,0,0-2.07-7.667,13.1129,13.1129,0,0,0-9.1074-7.3452c-8.1587-1.7456-17.07,2.5591-22.6758,8.3032a29.6086,29.6086,0,0,0-5.7559,8.3413c-4.8071-4.3257-12.2116-5.3418-17.6137-1.1118a10.7193,10.7193,0,0,0-4.2334,9.4512,11.3832,11.3832,0,0,0,1.5371,4.6079c1.4206,3.5146,5.2329,5.6743,8.5908,6.9722,8.9753,3.4677,18.8655,2.6225,28.2671,2.14q7.719-.3969,15.4314-.91a133.2589,133.2589,0,0,0,14.86-1.4267c4.0762-.7339,8.5615-1.9165,11.614-4.8994C168.0639,274.1856,168.1762,269.8726,166.05,266.0034ZM92.987,277.8882a1.6094,1.6094,0,0,0-.67-.9643c.2029.0683.4089.1279.6148.1879.0935.1114.1875.2207.2895.3248a7.4574,7.4574,0,0,0,.4224.8544C93.4235,278.1587,93.1994,278.0313,92.987,277.8882Zm8.4954,2.5254a1.5367,1.5367,0,0,0,.3073.67c-.4043-.0762-.8066-.1479-1.2158-.2363A7.8266,7.8266,0,0,0,101.4824,280.4136Z"/></g></svg>