<svg xmlns="http://www.w3.org/2000/svg" viewBox="0 0 400 400"><defs><style>.cls-1{fill:#fff;}.cls-2{fill:#999;}.cls-3{fill:#4d4d4d;}</style></defs><g id="Graphics"><path class="cls-1" d="M314.0029,208.8448c-.24-2.5664-2.562-3.9555-5-4q-108.639-1.99-217.3032-1.1274a6.0349,6.0349,0,0,0-1.5561.2231c-2.8059-.4467-6.0906.8413-6.0852,3.878l.0644,35.9619c.0047,2.5962,2.7632,3.9223,5,4q110.9067,3.85,221.905,2.1269c2.2117-.0341,5.0416-1.4238,5-4Q315.7287,227.3368,314.0029,208.8448Z"/><path class="cls-2" d="M129.3652,182.298c-4.6254-.147-9.947-1.083-14.5207-.2735-4.7918.8482-5.7542,3.9434-5.7417,8.2959.032,11.09.3633,22.189.5449,33.2779q.2863,17.4733.5723,34.9467a39.6527,39.6527,0,0,0,.8044,8.3335l-.0959,5.8482c-.0423,2.5683,2.8015,3.96,5,4q4.144.0732,8.2876.1474c2.3164.041,4.9053-1.4819,5-4,.0591-1.5693.0932-3.1386.1435-4.708,1.2788-3.9258,1.2642-8.8086,1.2994-12.542q.1589-16.8354.3173-33.6718.0843-8.9129.168-17.8262c.0408-4.3159.9168-9.6592-.0166-14.0366C135.5606,188.88,134.9627,182.4757,129.3652,182.298Z"/><path class="cls-2" d="M296.9153,234.7389l-.0566-51.2749c-.003-2.5777-2.7637-3.9492-5-4-3.5369-.0806-8.4278-1.0894-11.7417.7934-2.6548-1.6557-7.522-.8491-8.2044,2.4536a3.9628,3.9628,0,0,0-3.3215,3.75q-.2955,28.6232-.5913,57.2461a3.4628,3.4628,0,0,0,1.45,2.9082q-.0015,1.9557-.0027,3.9112c-.0027,3.7978-1.344,10.4721.9172,13.8257,1.6882,2.5039,4.9971,2.7553,7.99,2.812a22.6353,22.6353,0,0,0,6.6873.7954c6.5874.0913,11.685.24,11.9016-7.583C297.18,251.8463,296.9248,243.2726,296.9153,234.7389Z"/><path class="cls-3" d="M276.2185,164.4308a5.5383,5.5383,0,0,0-.48-2.45,3.4327,3.4327,0,0,0-2.3784-2.8086,5.2925,5.2925,0,0,0-3.281-1.2705c-4.7126-.2837-10.9462-1.7723-15.51-.1537-8.0886,2.8745-5.9558,16.6748-6.3075,23.0532-.5965,10.82-.69,21.6617-.9464,32.4932q-.4657,19.6718-.9314,39.3432c-.2192,9.2639-1.3509,20.3282.6611,29.4022.0745.336.1587.65.2544.9449.0455,2.52,2.837,3.7881,4.9937,3.8769l.5781.0239a33.0678,33.0678,0,0,0,5.7737.2383l6.7754.2793a5.3954,5.3954,0,0,0,3.2041-.9477,4.1455,4.1455,0,0,0,3.1128-3.6811c.2541-8.5659,1.9125-17.4832,2.1183-26.167.2443-10.31.6182-20.6181.9367-30.926C275.4223,205.2688,276.02,184.8531,276.2185,164.4308Z"/><path class="cls-3" d="M155.57,168.2677c-3.8789-4.4616-10.8-3.8026-16.0985-3.78-2.8037.0118-6.3429-.4042-8.7907,1.2777-2.2459,1.5431-1.6651,4.4916-1.4568,6.7982,2.4412,27.0256.5251,54.2358-.3019,81.2927-.2536,8.2882-.362,16.5824-.86,24.8613-.236,3.9245-.8351,10.9049,4.9665,10.7536q8.4037-.219,16.8076-.4385c2.2915-.06,4.9365-1.4033,5-4q1.3966-57.2028,1.5867-114.4248A3.4539,3.4539,0,0,0,155.57,168.2677Z"/></g></svg>