<svg xmlns="http://www.w3.org/2000/svg" viewBox="0 0 400 400"><defs><style>.cls-1{fill:#f2dfc4;}.cls-2{fill:#f6e8d5;}.cls-3{fill:#f7aeab;}.cls-4{fill:#ffd499;}.cls-5{fill:#ffeda5;}.cls-6{fill:#ceecc8;}.cls-7{fill:#76c3af;}.cls-8{fill:#bfeaf6;}.cls-9{fill:#99f;}.cls-10{fill:#fff000;}</style></defs><g id="Graphics"><path class="cls-1" d="M284.1365,320.2921a1.4117,1.4117,0,0,0-.0371-.416c-.0747-.8692-.1987-1.7344-.3394-2.5811-.0171-.1279-.0393-.2588-.0644-.396-.36-1.976-4.1668-1.3564-3.86.8033-3.222-.1465-6.6272,1.53-9.4854,2.6748q-6.9621,2.789-13.865,5.7212-2.907,1.2348-5.8,2.5a2.9033,2.9033,0,0,0-1.7036.1162q-3.412,1.3051-6.9133,2.3222a2.13,2.13,0,0,0-1.2237-.042q-2.9271.9039-5.854,1.8072c-1.936.5971-1.6069,2.4258-.2751,2.9765-.3411.1587-.6809.32-1.022.479a2.2144,2.2144,0,0,0-2.0093-.5639,144.6189,144.6189,0,0,0-27.3259,11.1084,1.7169,1.7169,0,0,0-.9546,1.2134,2.0192,2.0192,0,0,0-.1623.1557,21.2959,21.2959,0,0,0-4.47,9.5825c-.2344,1.2637.7529,1.959,1.9285,2.0254,6.36.3584,11.71-3.5581,16.4094-7.3593a1.52,1.52,0,0,0,.6028-.9087c6.76-3.2959,13.6093-6.4136,20.57-9.1954,11.9417-4.7724,24.6824-7.0327,36.7364-11.4741,2.8471-1.0488,6.2685-2.0971,7.9609-4.83A9.423,9.423,0,0,0,284.1365,320.2921Zm-18.6787,5.6665c.0908.1074.1848.208.2807.3047q-3.6,1.2539-7.1748,2.5825Q262.0032,327.3846,265.4578,325.9586Zm14.6767-4.92c.0262.0239.055.0425.0818.0649.003.187.0047.3731-.0027.5586-.7.1973-1.3925.417-2.09.6216a3.6407,3.6407,0,0,0-.2432-.4458,2.7539,2.7539,0,0,0-.551-.605A5.5706,5.5706,0,0,1,280.1345,321.0382Z"/><path class="cls-1" d="M199.2244,355.586q-.0158-4.0722-.0318-8.1455c-.0061-1.55-2.1828-1.9912-3.3234-1.2129-5.0227-6.456-12.6727-10.1416-19.5828-14.2666-2.47-1.4746-4.8523-3.0781-7.19-4.7446q-2.0526-1.5389-4.1326-3.04c-4.2285-3.2027-8.3582-6.5454-12.5886-9.7334a119.4038,119.4038,0,0,0-13.9688-9.2569,2.4,2.4,0,0,0-1.8926-.0507c-1.4443-.2037-3.195.8921-2.1848,2.3408.1971.2827.4156.5425.6282.8081a13.65,13.65,0,0,0,.023,6.1045,11.01,11.01,0,0,0,3.7094,5.5156c3.7537,3.1533,8.77,4.61,13.105,6.7564.865.4282,1.72.88,2.5767,1.3276q1.0338.6781,2.0644,1.3608,1.7007,1.358,3.4,2.7173,11.1926,8.92,22.4771,17.7246,6.3822,4.9614,12.8161,9.855c1.2771.9731,3.7063.3071,3.3428-1.5566-.075-.3838-.1343-.7691-.1858-1.1548A1.52,1.52,0,0,0,199.2244,355.586Z"/><path class="cls-2" d="M285.0108,315.2159a1.23,1.23,0,0,0-.2576-1.8916,573.5559,573.5559,0,0,0-51.2449-30.145q-7.5388-3.92-15.1924-7.6123a2.1139,2.1139,0,0,0-1.6809-.0547c-2.3137-1.22-5.2466.0386-7.6335.6226q-17.2584,4.22-34.0742,10.0176-6.1187,2.102-12.16,4.4165a2.102,2.102,0,0,0-2.5241-.4595,113.09,113.09,0,0,1-27.24,10.34c-1.54.3657-1.9871,2.1607-.4778,2.9243.0945.0479.1858.1006.28.1485a1.5611,1.5611,0,0,0-1.1,1.8462q1.0683,4.6083,2.1367,9.2172c.3186,1.3746.3489,3.04,1.5938,3.8672,1.2353.8208,2.5529,1.5362,3.8144,2.3169,4.9929,3.09,9.8926,6.3311,14.72,9.6739,9.6667,6.6948,19.0344,13.8095,28.2842,21.0659,5.1826,4.0659,10.3291,8.1777,15.4753,12.289a2.36,2.36,0,0,0,2.4236.25,289.0011,289.0011,0,0,1,38.3652-19.5713q10.0193-4.2,20.3411-7.6323,5.17-1.7109,10.4019-3.2241c3.2148-.93,6.5166-1.6465,9.6818-2.7339,3.2837-1.1274,6.233-3.2558,7.0823-6.7964A14.6793,14.6793,0,0,0,285.0108,315.2159ZM264.083,316.358c.0071.0371.0215.0733.0318.11q-3.63,1.1572-7.2517,2.3364Q260.4663,317.5614,264.083,316.358Zm-35.9724-26.2886h.1328q.382.33.763.6573a2.13,2.13,0,0,0-.6238.1679l-.32.0557a2.0636,2.0636,0,0,0-.3745-.1958A1.5955,1.5955,0,0,0,228.1106,290.0694ZM164.51,320.0636c.7329.5542,1.4554,1.1206,2.1753,1.6894q-.6354-.4606-1.27-.9214c-3.3511-2.43-6.7-4.8784-10.0866-7.2729C158.4451,315.6451,161.5154,317.8009,164.51,320.0636Zm-12.5647,4.811q-6.73-4.5095-13.6767-8.6831-1.2909-5.5694-2.5818-11.1382c8.7485,4.8018,16.8149,10.7281,24.8862,16.5811Q175.07,332.1476,189.5669,342.66l7.0474,5.1108c.5171.375,1.0312.7666,1.5691,1.1162q-.33,3.7911-.66,7.582-.1072,1.2372-.2151,2.4742C182.5269,347.1437,167.6668,335.4078,151.9448,324.8746ZM282.1677,323.24c-.6806,2.9746-3.1682,4.2836-5.8967,5.0708-6.54,1.8876-13.0925,3.6416-19.5517,5.8076a291.5141,291.5141,0,0,0-38.1507,15.8427c-5.8784,2.9512-11.6413,6.1255-17.3027,9.4737q.0747-.86.1494-1.7188.1695-1.9482.3389-3.896.1428-1.64.2854-3.2793a1.6167,1.6167,0,0,0,1.2177-.7812q.0884-.1619.1763-.3233c.1541-.0581.3079-.1186.4607-.184,5.2087-2.2286,10.3076-4.7471,15.4448-7.1348,10.2115-4.7471,20.4683-9.4336,31.0369-13.3413,10.3674-3.8325,21.4267-6.2813,31.2576-11.4346A10.99,10.99,0,0,1,282.1677,323.24Z"/><path class="cls-3" d="M230.4939,101.3453c-7-9.0542-18.9768-14.7226-30.1372-12.4761a2.3659,2.3659,0,0,0-2.5923-.4091,39.3475,39.3475,0,0,0-23.0224,32.4585A36.5173,36.5173,0,0,0,179.5613,142.7c3.9568,6.4277,10.7532,9.4175,17.9163,10.8042,7.4985,1.4517,15.2395,1.5161,22.2724-1.78a32.1286,32.1286,0,0,0,13.9209-12.7124C240.5952,127.2062,238.7493,112.024,230.4939,101.3453Z"/><path class="cls-4" d="M236.624,163.4806a17.82,17.82,0,0,0-11.082-9.9658c-6.1035-2.02-12.667-1.2969-18.8542-.0762a1.9566,1.9566,0,0,0-.3533.1079c-5.3455-.0815-10.6209-1.3853-15.978-.6968-4.64.5957-9.2041,2.84-11.3462,7.1831a14.3856,14.3856,0,0,0,.3034,12.252,19.4414,19.4414,0,0,0,9.9939,9.185,42.9594,42.9594,0,0,0,15.1121,3.1328,64.6543,64.6543,0,0,0,17.43-1.2c4.8633-1.09,9.5686-3.2959,12.7012-7.2911A12.81,12.81,0,0,0,236.624,163.4806Zm-39.5153,2.17a3.3751,3.3751,0,0,0-.8731.4951c-.0066-.2065-.021-.4141-.0459-.624Zm17.0056,11.7637a1.078,1.078,0,0,0-.0464-.2432c.5615-.0342,1.1218-.0874,1.6819-.1509q-.6189.1875-1.2366.3687C214.38,177.4,214.2471,177.4049,214.1143,177.4147Z"/><path class="cls-5" d="M233.6555,181.318c-3.6736-1.1714-7.5747-.2251-11.2612.3745q-4.749.7719-9.5508,1.0957-3.7148-.3567-7.4292-.7129c-2.4546-.2353-4.9082-.4819-7.3635-.7065a9.9029,9.9029,0,0,0-5.6016.7378c-.0908.0014-.1814-.002-.2722,0a29.9473,29.9473,0,0,0-6.907-.3565,9.031,9.031,0,0,0-7.95,5.87,11.5857,11.5857,0,0,0-.4629,6.1753,14.0765,14.0765,0,0,0,3.8984,8.2832c5.1233,5.232,13.3145,7.2588,20.3379,8.1543a52.5288,52.5288,0,0,0,23.1367-1.8887c6.1355-2.0537,12.4209-5.9531,14.9434-12.2075C241.4346,190.53,239.95,183.3253,233.6555,181.318Zm-36.6338,7.8335q.2682-.1048.542-.1973a4.7768,4.7768,0,0,1,.584.1284c.4453.1358,1.0977.4453,1.1492.8379-.0117.0093-.0227.0195-.0344.0293a2.5245,2.5245,0,0,0-2.1624-.7C197.073,189.2179,197.0493,189.1832,197.0217,189.1515Z"/><path class="cls-6" d="M240.9756,206.8155c-2.7446-1.7241-6.1016-1.5888-9.1794-1.0722-3.79.6357-7.53,1.5879-11.3118,2.2812a109.3806,109.3806,0,0,1-11.874,1.6094q-1.67.12-3.3492.17c-2.6657-.2988-5.3293-.6186-7.987-.9829-3.697-.5064-7.5383-1.4673-11.292-1.5142a15.3336,15.3336,0,0,0-3.313-.0586,8.8157,8.8157,0,0,0-8.0881,6.6031c-.6177,2.4609-.7251,5.52.6145,7.7563,2.1963,5.3233,8.4389,8.8106,13.4363,10.835a47.1251,47.1251,0,0,0,21.2294,3.1079,69.1809,69.1809,0,0,0,22.438-5.6963c6.0733-2.6782,12.032-7.415,12.5481-14.5361A9.183,9.183,0,0,0,240.9756,206.8155Zm-55.85,7.3223a11.1975,11.1975,0,0,0-1.3011-.3335c.0364-.0464.0677-.0967.1082-.1392.5366.0992,1.0757.1841,1.6133.2784C185.4026,214.0006,185.2664,214.0753,185.1253,214.1378Z"/><path class="cls-7" d="M248.219,232.1788c-3.8664-6.59-13.5112-4.7842-19.5222-2.9155-6.5081,2.0234-12.8389,5.4077-19.7156,5.9355-4.69-.9243-9.4223-1.7465-14.1711-2.4121-1.2466-.2846-2.4969-.55-3.7537-.771a28.6141,28.6141,0,0,0-7.9089-.3584c-4.8289.02-9.8931,1.1665-12.645,5.4219-3.2732,5.062-1.8777,12.0191.863,16.9937,1.7244,3.1294,4.6074,4.9663,7.7617,6.4492a51.1636,51.1636,0,0,0,10.1763,3.4917c14.4438,3.353,29.946.9209,43.8115-3.7949,6.0757-2.0669,11.4038-5.5069,14.5266-11.2657C250.3848,243.8946,251.2434,237.3336,248.219,232.1788ZM192.051,238.97c-.8676-.062-1.7351-.1059-2.601-.1157a1.4689,1.4689,0,0,0,.0732-.2231A18.456,18.456,0,0,1,192.051,238.97Zm-1.2368,4.77c.0237-.0185.0467-.038.07-.0566,1.2458-.4717,2.5166-.877,3.7944-1.2314.177.0244.354.0517.531.0781A31.9051,31.9051,0,0,1,190.8142,243.74Zm-7.9333,4.89a2.5266,2.5266,0,0,1,1.0705-1.2022,2.0925,2.0925,0,0,0-.2307.6617q-.4258.2592-.8406.5473Zm-2.2-5.3906q-.39.9688-.7605,1.9453a6.8282,6.8282,0,0,1,.53-1.8794C180.5274,243.2818,180.6048,243.2628,180.6814,243.24Zm13.2327,10.3667c.0227-.01.0456-.0186.0678-.03.2232-.0318.4454-.07.668-.1065.4441-.0576.88-.1181,1.3-.1782,1.8811-.27,3.7563-.5879,5.6274-.9287a32.0407,32.0407,0,0,1-6.9917,1.2368C194.3591,253.6105,194.1377,253.6051,193.9141,253.6066Z"/><path class="cls-8" d="M252.84,267.1666a27.7091,27.7091,0,0,0-4.6828-4.5019,12.581,12.581,0,0,0-5.971-2.9546,29.7422,29.7422,0,0,0-7.3953.271q-4.0616.4123-8.12.8491c-.4654.05-.93.1055-1.3955.1562a78.3118,78.3118,0,0,0-22.55,1.9248,86.8067,86.8067,0,0,0-17.4387-.3232c-6.1562.5186-13.2456,1.38-17.6211,6.2529a10.2408,10.2408,0,0,0-2.1343,3.7193,7.7243,7.7243,0,0,0-.1692,7.0219c.065.1275.1539.2329.2247.355a15.4814,15.4814,0,0,0,2.8269,5.3345c4.415,5.39,11.6191,7.1948,18.2436,7.9438a125.8409,125.8409,0,0,0,20.3838.6172,60.9551,60.9551,0,0,0,8.2068.2359,140.823,140.823,0,0,0,15.9245-1.61q3.8295-.5793,7.629-1.3394a28.6066,28.6066,0,0,0,6.9609-1.9829c3.8721-1.88,5.9975-5.5664,7.332-9.5053a30.0591,30.0591,0,0,0,1.6472-6.377A8.5612,8.5612,0,0,0,252.84,267.1666Zm-34.4707-1.626c-.1719.0708-.345.1377-.5151.2134-.1226.0015-.2451.0059-.3677.0068-.6636.0059-1.3271,0-1.9907-.0014C216.4527,265.68,217.4109,265.6129,218.3689,265.5406Z"/><path class="cls-9" d="M260.7505,293.215a12.6716,12.6716,0,0,0-7.4006-2.9063,74.9241,74.9241,0,0,0-9.3953-.2148q-5.1369.0768-10.2646.434c-6.962.4844-13.8343,1.5245-20.7493,2.417-1.8782.2422-3.7551.417-5.6321.5406a2.1,2.1,0,0,0-1.3-.3907c-3.4986.2461-7-.4111-10.458-.8574q-5.176-.6679-10.3521-1.3364l-10.3525-1.336a33.639,33.639,0,0,0-8.8408-.4492,8.9645,8.9645,0,0,0-6.6011,3.9649,10.443,10.443,0,0,0-1.0347,7.229,19.7759,19.7759,0,0,0,1.2136,4.146,17.5338,17.5338,0,0,0,5.9964,11.332c4.6262,4.1567,10.9172,6.3286,16.9138,7.5527.1763.0362.3542.063.53.0972a113.9233,113.9233,0,0,0,18.7068,3.3306,185.6954,185.6954,0,0,0,20.8726,1.2568c6.6376.0166,13.74.1748,20.0471-2.17a51.7842,51.7842,0,0,0,8.2466-4.2578,35.8748,35.8748,0,0,0,7.186-5.2256,21.04,21.04,0,0,0,5.7141-15.79A10.46,10.46,0,0,0,260.7505,293.215Zm-4.2161,13.2524q.3384-.3186.658-.6528a16.128,16.128,0,0,1-.7449,1.9858c.0506-.3628.0938-.7285.1145-1.1035A1.3259,1.3259,0,0,0,256.5344,306.4674Zm-76.479-2.1626a49.3143,49.3143,0,0,1,6.2349-.69Q183.1746,303.9762,180.0554,304.3048Zm3.08,15.689c1.76.3452,3.5288.64,5.3015.913a1.6212,1.6212,0,0,0,.4311.1324c.4971.0693.9952.1162,1.4927.1777-1.8245-.1636-3.647-.38-5.4516-.6973C184.3142,320.3551,183.7236,320.1783,183.1353,319.9938Z"/><path class="cls-10" d="M199.0117,113.3971a4.5655,4.5655,0,0,0-1.281-1.9976,3.5,3.5,0,0,0-1.9738-.87,4.3754,4.3754,0,0,0-.8621-.1177,3.4694,3.4694,0,0,0-1.7388.4195,3.6964,3.6964,0,0,0-1.9443.9511,3.6545,3.6545,0,0,0-1.1482,2.2891,3.1048,3.1048,0,0,0,.5422,1.9648,2.8192,2.8192,0,0,0,.2.7305,3.7992,3.7992,0,0,0,.8621,1.2109,4.348,4.348,0,0,0,4.84.5591,4.1407,4.1407,0,0,0,1.3423-.82,3.9666,3.9666,0,0,0,1.2153-1.9228A4.4819,4.4819,0,0,0,199.0117,113.3971Z"/><path class="cls-10" d="M218.0755,113.0275a3.6617,3.6617,0,0,0-1.9424-2.92,3.4776,3.4776,0,0,0-.8345-.29,2.3213,2.3213,0,0,0-2.7217-.5586,6.1955,6.1955,0,0,0-3.6184,5.0762,3.5077,3.5077,0,0,0,1.3237,3.1713,4.7356,4.7356,0,0,0,4.2576.461,5.3634,5.3634,0,0,0,2.7327-2.0386A4.3663,4.3663,0,0,0,218.0755,113.0275Z"/><path class="cls-10" d="M219.5657,126.76c-.6621-1.9283-4.583-1.2642-3.8569.85.1455.4244-.5533,1.2212-.752,1.5469-.3486.5718-.7017,1.1406-1.0684,1.7007a26.5065,26.5065,0,0,1-2.393,3.1919,10.664,10.664,0,0,1-6.4309,3.6265c-4.9619.7-9.36-2.6773-10.7737-7.3194-.5938-1.9492-4.51-1.2939-3.8572.8506a14.0439,14.0439,0,0,0,15.6941,9.5542,14.8937,14.8937,0,0,0,8.8218-5.0967,30.7239,30.7239,0,0,0,3.0407-4.209C218.864,130.0548,220.1616,128.4952,219.5657,126.76Z"/></g></svg>