<svg xmlns="http://www.w3.org/2000/svg" viewBox="0 0 400 400"><defs><style>.cls-1{fill:#f2f2f2;}.cls-2{fill:#fff;}</style></defs><g id="Graphics"><circle class="cls-1" cx="190.2278" cy="195.837" r="73.5"/><path d="M308.8118,323.9288a560.1769,560.1769,0,0,0-48.0647-62.3208q-7.4067-8.3189-15.1411-16.3364a2.6714,2.6714,0,0,0-.8457-.5893c1.3389.59,9.5953-12.1117,10.5253-13.6173a67.63,67.63,0,0,0,7.4481-16.5153c7.8053-26.7086-3.6312-57.5245-23.2005-76.3426a55.0351,55.0351,0,0,0-17.2756-11.5092,45.6479,45.6479,0,0,0-5.3484-1.7847c-1.3213-.8941-3.1936-1.0566-4.6912-1.35q-3.5639-.6966-7.1679-1.1587a116.76,116.76,0,0,0-14.5342-.9556,2.2292,2.2292,0,0,0-.9473.1953c-1.4527.6643-4.6044.1507-6.26.3123a71.8429,71.8429,0,0,0-7.2159,1.0864,88.9123,88.9123,0,0,0-12.1993,3.4539c-13.8665,4.9337-28.42,12.699-37.0183,25.0459a60.3843,60.3843,0,0,0-9.0015,21.0234c-2.4443,10.6394-2.42,21.4935-2.11,32.3357.3913,13.6923,4.3226,27.42,12.4145,38.5827,8.791,12.1267,21.5387,19.1732,35.8617,22.92,15.3663,4.02,32.0628,3.4095,47.4788-.0866a51.1738,51.1738,0,0,0,18.31-8.3448Q254.9655,286.7,279,316.3653q6.83,8.4332,13.5684,16.941a2.3354,2.3354,0,0,0,2.7363.5737,50.2808,50.2808,0,0,0,13.1943-8.0122A1.4186,1.4186,0,0,0,308.8118,323.9288ZM198.98,265.0577c-15.4031,1.6865-31.6084.7281-45.94-5.59a56.4851,56.4851,0,0,1-27.3176-25.092c-6.8269-13.0979-6.6914-28.3112-6.1578-42.7084.5153-13.9025,3.2266-28.4442,11.7327-39.82a45.346,45.346,0,0,1,6.041-6.6064,77.0358,77.0358,0,0,1,18.7023-11.8535,78.8413,78.8413,0,0,1,23.0691-7.3489c8.3119-1.1168,16.76.0039,25.0554.7581.5259.0478,1.0519.093,1.5784.1327a59.4593,59.4593,0,0,1,12.6352,2.1532c7.406,2.2228,13.85,6.801,19.2693,12.2294a75.9,75.9,0,0,1,10.74,13.7342,89.0571,89.0571,0,0,1,5.5674,10.541c5.8379,13.0694,8.6434,27.7212,6.4471,41.9678-2.2781,14.7764-10.7141,27.1821-21.1316,37.542-5.2954,5.2656-10.99,10.44-17.6026,14.0039C214.667,262.8741,206.8035,264.2013,198.98,265.0577Z"/><path class="cls-2" d="M158.614,189.9459a8.8056,8.8056,0,0,0-2.6784-1.2041,4.1069,4.1069,0,0,0-1.8453-.2729,6.17,6.17,0,0,0-.6677.0239,6.0471,6.0471,0,0,0-.9726.1753,2.3269,2.3269,0,0,0-2.1138-.0645c-1.7954.918-3.7532,2.211-3.7615,4.47a3.2444,3.2444,0,0,0,1.8618,2.9058,11.1145,11.1145,0,0,0,3.1221.8511,8.233,8.233,0,0,0,6.6126-1.2725,4.6733,4.6733,0,0,0,1.6645-2.4653A2.8844,2.8844,0,0,0,158.614,189.9459Z"/><path class="cls-2" d="M177.784,152.7965a50.6925,50.6925,0,0,0-6.2793-2.9341c-2.1448-.8232-4.5586-1.7363-6.67-.331-1.6045,1.0673-2.7719,3.0673-3.934,4.5791-1.2881,1.6748-2.553,3.3681-3.7623,5.101-4.7439,6.7993-8.67,14.3511-9.1809,22.7671-.1274,2.0982,3.8714,2.1187,4,0,.001-.018.0035-.0361.0047-.0542a1.8037,1.8037,0,0,0,.8071.688q3.0033,1.4524,6.0066,2.9043c1.7839.8623,4.2747,1.5225,5.3215-.7563.7481-1.6285,1.1519-3.438,1.877-5.0923.7329-1.6729,1.5652-3.2989,2.4524-4.8946,3.666-6.5927,8.1218-12.8579,10.2761-20.17A1.5448,1.5448,0,0,0,177.784,152.7965Zm-21.1229,23.83a2.5783,2.5783,0,0,0,.9964-.0772,11.8356,11.8356,0,0,0-.69,2.0459C156.8335,177.9405,156.7332,177.2843,156.6611,176.6266ZM167.44,151.9689c.6785-.1875,2.3182.7578,2.9056.9961.73.2958,1.4487.6171,2.16.9536a1.6655,1.6655,0,0,0-1.4153.8281c-.0881.1592-.18.3159-.2691.4746a2.5394,2.5394,0,0,0-2.1923-.6826c.34-1.1372-.708-2-1.8311-2.0449A1.4061,1.4061,0,0,1,167.44,151.9689Zm-6.0949,28.7265c-.1363.3565-.25.72-.3731,1.0806a4.48,4.48,0,0,1,1.5989-3.9419C162.1345,178.7755,161.7161,179.7257,161.3455,180.6954Z"/><path class="cls-2" d="M242.5877,216.8692l-2.2037-1.166a2.0871,2.0871,0,0,0-.85-.2314,6.6452,6.6452,0,0,0-5.0146-2.4668,2.0338,2.0338,0,0,0-1.7271.7925,55.8516,55.8516,0,0,1-19.2766,20.8413,61.8371,61.8371,0,0,1-14.6613,5.539,59.4875,59.4875,0,0,1-11.6329,1.58,1.9072,1.9072,0,0,0-1.6672.8833q-1.9474-.0659-3.896-.2163c-1.5139-.1177-2.6836,1.627-1.4143,2.7315,2.3982,2.0859,5.5159,2.4751,8.5991,2.3735,9.1409,2.3535,18.6355.1821,27.1284-3.4609,4.2173-1.8091,8.2767-3.9693,12.3208-6.1314a26.6249,26.6249,0,0,0,7.284-5.2588c.0815-.0249.1657-.04.2453-.0713,3.7386-1.5024,5.0088-5.9838,5.4756-9.6943l2.2093-4.2363C243.8853,217.9508,243.1609,217.173,242.5877,216.8692Zm-5.4873,1.81q-.078.4372-.16.8745c-.0728-.2593-.1316-.5166-.2266-.78a1.8573,1.8573,0,0,0-1.708-1.1587c.2-.34.3877-.687.5808-1.0312a4.172,4.172,0,0,1,1.32,1.6157A4.899,4.899,0,0,1,237.1,218.6793Z"/></g></svg>