<svg xmlns="http://www.w3.org/2000/svg" viewBox="0 0 400 400"><defs><style>.cls-1{fill:#ecbde4;}.cls-2{fill:gray;}.cls-3{fill:#603813;}.cls-4{fill:#333;}.cls-5{fill:#4d4d4d;}.cls-6{fill:#fbddeb;}</style></defs><g id="Graphics"><path class="cls-1" d="M243.4252,247.4532c-8.58-6.1689-19.5939-5.7812-29.6729-5.7285-11.3316.0591-22.7061.2852-33.93,1.9863a104.1382,104.1382,0,0,0-15.7654,3.6319c-.09.1089-.1807.22-.2759.3149a3.2389,3.2389,0,0,1-.3123.25,6.3386,6.3386,0,0,1-.6561,1.1016,2.2013,2.2013,0,0,1-.1739.2251,6.3754,6.3754,0,0,1-.2685.66,1.6522,1.6522,0,0,1-.6419.6817v2.4565c11.0336,1.3047,22.0676,2.6255,33.1208,3.7554a162.5059,162.5059,0,0,0,17.9695,1.126,3.0544,3.0544,0,0,0,1.7116.25q2.1359-.2579,4.2757-.543a53.2548,53.2548,0,0,0,7.9823-1.3218c.0412-.01.0816-.0234.1228-.0337a49.0041,49.0041,0,0,0,16.2392-6.1406,1.1516,1.1516,0,0,0,.4891-.626A1.388,1.388,0,0,0,243.4252,247.4532Z"/><path class="cls-2" d="M214.3961,96.422c-.017-.36-.0174-.72-.0393-1.08-.2817-4.629-.6513-10.4534-5.3386-12.8334-3.9413-2.0015-8.8554-1.0856-12.3475,1.4288-3.3178,2.3891-5.4605,5.9106-7.1754,9.579a6.3073,6.3073,0,0,0-3.5469.4045c-4.43,1.7868-7.5356,6.867-9.512,10.9689a62.1445,62.1445,0,0,0-4.6179,14.5494c-3.7861,18.4959-1.4593,37.5439,3.2113,55.6516,2.4028,9.3154,5.4253,18.46,8.6671,27.5131,3.5694,9.9683,7.0764,20.0733,11.5362,29.6832.3482.75.7221,1.4878,1.0862,2.23a1.776,1.776,0,0,0-.3613,2.2224,1.2724,1.2724,0,0,0,.54.434,2.1789,2.1789,0,0,0-.0591.3792,447.5146,447.5146,0,0,0,.3491,62.8974c.4045,5.3035.92,10.5976,1.5132,15.8832a1.883,1.883,0,0,0-.3736,1.1,1.4615,1.4615,0,0,0,.1749.6063,4.69,4.69,0,0,0,2.7263,4.7907,9.449,9.449,0,0,0,12.809-5.4385,1.2835,1.2835,0,0,0-.0652-.9924l-3.4548-78.0124a22.9915,22.9915,0,0,0-.1746-3.1464q.2191-6.283.4387-12.5658,5.3-23.5924,9.5814-47.3972c1.81-10.1589,3.5908-20.3446,4.9246-30.5785,1.2062-9.255,1.9074-18.6654.8618-27.9722a66.04,66.04,0,0,0-2.896-13.5723c-.7406-2.2153-1.74-4.5874-3.8485-5.8264A7.5,7.5,0,0,0,214.3961,96.422ZM209.8551,317.61c-.0463.0938-.0919.1877-.1438.2789-.043.0757-.0878.15-.134.2238q-.1737.2652.0706-.0893c-.0212.1208-.2408.3179-.32.4114q-.1678.2-.35.3864c-.0272.0274-.0551.0542-.0826.0812l-.0024.0018c-.2418.1893-.4773.3813-.7348.55-.0376.0248-.0761.0484-.1143.0724-.1533.0771-.3039.1582-.46.2292q-.2394.11-.4863.2026c-.0432.0161-.087.0309-.1306.0462l-.0146.0047c-.299.0725-.5929.1485-.8977.1955-.0865.013-.1731.0249-.26.035q-.3015.0319.0836-.0041a1.7418,1.7418,0,0,1-.5221.0134q-.2606-.003-.5205-.026c-.0562-.0051-.2639-.0422-.3426-.0537a6.7193,6.7193,0,0,1-.7408-.1989,2.4822,2.4822,0,0,1-.8494-.4192,4.59,4.59,0,0,1-.5374-.4072l-.0627-.0665q-.1125-.1254-.213-.26c-.0233-.0313-.0432-.0652-.0653-.0969a7.1059,7.1059,0,0,0,2.1419-.9542q1.3091-.3,2.6186-.6l.0256-.008.2046.1972a1.5683,1.5683,0,0,0,.8334.2615c.1581-.0131.316-.0267.4741-.04a2.376,2.376,0,0,0,.9415-.4247l.1964-.1454c.0352.0147.07.0281.1058.0426l.0468.0182c.0756.0412.1488.0861.2241.1276Q209.8461,317.4032,209.8551,317.61Zm-5.699-6.4413c-.0009.053-.0054.1109-.008.1663-.1488-1.5307-.28-3.0631-.4148-4.5948A23.5434,23.5434,0,0,1,204.1561,311.1688ZM202.9047,84.9329a6.6719,6.6719,0,0,1,5.0478,1.5676c1.78,1.6626,2.1831,4.329,2.4237,6.6278.1557,1.4885.2486,2.9809.3119,4.4747a10.88,10.88,0,0,0-2.616,2.036,8.6964,8.6964,0,0,0-7.4994-3.1294,11.8647,11.8647,0,0,0-6.608,2.6212,12.2671,12.2671,0,0,0-1.6146-3.6946c.3078-.6659.6094-1.335.9353-1.99C195.2354,89.5243,198.1343,85.3,202.9047,84.9329ZM199.492,224.094a375.64,375.64,0,0,1-9.1676-46.6159q-1.8158-13.9084-2.6-27.9258c-.4966-8.8895-1.02-17.9559-.211-26.8409a46.4178,46.4178,0,0,1,2.602-12.0566,29.2065,29.2065,0,0,1,1.8609-4.0615q1.1466,4.1906,2.0868,8.4335a224.4377,224.4377,0,0,1,4.4219,31.5886q-1.1591,14.6706-.9455,29.4071a310.8438,310.8438,0,0,0,2.1055,31.4783c.0312,5.8928.1171,11.7838.3033,17.6736C199.794,224.8151,199.6446,224.4537,199.492,224.094Zm3.8367-46.9108c-.08-10.4251-.3385-20.8787-1.1134-31.285.44-5.5742,1.015-11.137,1.7638-16.6758q.9224-6.8245,2.1482-13.6028c.4011-2.216.8058-4.4352,1.284-6.636.1166-.537.2395-1.0763.3766-1.6128a32.9112,32.9112,0,0,1,1.1958,5.6138c1.237,8.9483.64,18.0226-.3183,26.9667-1.0246,9.5562-2.2312,19.09-3.1781,28.6552-.8257,8.34-1.5083,16.6939-2.1252,25.0522C203.3658,188.166,203.3707,182.6737,203.3287,177.1832Zm1.3842-71.7754c-1.51,4.4086-2.09,9.25-2.8611,13.8328-.5352,3.184-1.0032,6.3783-1.44,9.5771-.562-4.0042-1.2258-7.9955-2.0211-11.9679q-1.4349-7.1655-3.46-14.1948a12.6876,12.6876,0,0,1,1.3505-1.1674,6.2369,6.2369,0,0,1,8.7259.7526c.2424.275.4558.569.6693.863A18.5054,18.5054,0,0,0,204.7129,105.4078ZM190.29,100.8184c.1667.53.32,1.0648.4817,1.5972a28.0464,28.0464,0,0,0-2.9395,4.9218q1.0636-3.46,2.3623-6.8334C190.2273,100.6136,190.259,100.7189,190.29,100.8184Zm-6.7275,39.5458q.434,14.6988,2.0083,29.3341,1.3852,12.8793,3.6386,25.6463c-1.769-6.1706-3.2657-12.42-4.4316-18.7444a153.0681,153.0681,0,0,1-1.2129-50.38C183.307,130.935,183.4248,135.6871,183.5628,140.3642Zm22.579,85.02c-.2653-1.4736-.51-2.9512-.7543-4.4286q.98-20.9384,2.8032-41.8246-.7665,21.957-1.5328,43.9138C206.4827,223.8237,206.3187,224.6055,206.1418,225.384Zm4.6347-123.9092c.0031.9442-.0064,1.8885-.0218,2.833a20.348,20.348,0,0,0-.8416-1.9A6.6161,6.6161,0,0,1,210.7765,101.4748ZM180.889,181.5942c-5.1144-17.2688-8.58-35.3651-6.7612-53.43a85.8887,85.8887,0,0,1,2.4042-13.268c1.2627-4.7917,2.9587-9.6514,5.93-13.676,1.1334-1.5358,2.5809-3.5228,4.468-4.1857a1.8826,1.8826,0,0,1,1.0692-.088,121.5151,121.5151,0,0,0-4.7774,13.7732c-5.21,18.6083-6.0665,38.3262-3.619,57.4434a191.2348,191.2348,0,0,0,4.9315,24.85C183.2555,189.2271,182.0239,185.4259,180.889,181.5942Zm39.3747-73.44a62.3374,62.3374,0,0,1,1.37,6.4772c1.39,8.8713.9873,17.9558-.0013,26.8456-1.0688,9.6119-2.7633,19.1665-4.4155,28.6915q-2.8044,16.17-6.1289,32.2427.647-18.53,1.2938-37.0593.6221-17.8188,1.244-35.638.3084-8.8477.6174-17.6947c.1408-4.0341.3091-8.0753.2643-12.1135a3.9629,3.9629,0,0,1,3.4088,1.84C219.169,103.5724,219.6975,106.0408,220.2637,108.1543Z"/><path class="cls-3" d="M193.5325,330.1662q-7.78-44.9574-14.552-90.082c-2.1356-14.2347-4.2611-28.4873-5.4275-42.8407q-.59-7.2561-.8077-14.5373c1.0455-2.1413,1.9621-4.3493,2.7944-6.5834a80.29,80.29,0,0,0,4.3845-15.2857c1.4181-8.9022-.4146-19.0542-7.8988-24.8627-6.83-5.3011-17.351-5.1489-22.575,2.2848-5.0788,7.2271-4.7593,17.3847-2.7066,25.6008a45.8765,45.8765,0,0,0,11.2978,20.4557q3.2475,12.2364,5.8219,24.6437c5.355,25.8368,9.3007,51.9735,13.6649,77.99q3.8139,22.7369,7.6279,45.4731c.3042,1.813,3.5159,2.0567,3.802.3183,1.0767.5918,2.7066.3676,2.9014-.82C192.8391,331.9214,193.74,331.3633,193.5325,330.1662Zm-25.36-192.876c7.05,4.1137,8.9077,13.1137,8.1468,20.6619a61.21,61.21,0,0,1-3.6158,14.2569c.1653-5.6654.6324-11.2939.95-16.9627.3645-6.5131-.6215-13.6752-5.7819-18.1123C167.97,137.1882,168.0746,137.2335,168.1721,137.29Zm1.5557,62.4062q-.001-1.0893-.0019-2.1791c.014.1673.0243.3347.0386.5021q.2508,2.9321.5534,5.8585C170.1193,202.4846,169.926,201.09,169.7278,199.6964Z"/><path class="cls-4" d="M256.8082,166.7676c-3.4615-.3682-7.3458-.4318-10.3109,1.6685a2.3945,2.3945,0,0,0-.6864.8112c-1.4139.7544-1.855,3.56.154,3.7387.3343.03.666.0722.9984.11a49.8963,49.8963,0,0,0,26.1168,5.158c1.9584-.15,2.85-3.8072.5481-3.9115-.7618-.0346-1.5176-.101-2.2711-.18a1.5859,1.5859,0,0,0-.934-1.8426q-.553-.2069-1.112-.4126a1.7342,1.7342,0,0,0-.8872-1.9306A37.0023,37.0023,0,0,0,256.8082,166.7676Z"/><path class="cls-5" d="M254.5716,146.2768a15.7332,15.7332,0,0,0-12.8193,6.1971c-3.4842,4.5747-4.6483,10.5671-5.5612,16.1115a1.9088,1.9088,0,0,0,.3583,1.4551q-8.0421,32.516-16.0851,65.0315-8.4152,34.0242-16.8307,68.0484-4.7319,19.131-9.4638,38.2619a1.6961,1.6961,0,0,0,.776,1.8154,1.9321,1.9321,0,0,0,.4041,2.1172,7.4,7.4,0,0,0,6.57,1.634,2.2639,2.2639,0,0,0,1.477-1.86q7.1869-34.4771,15.0022-68.8191,7.7623-34.0976,16.1451-68.05,4.3095-17.4541,8.792-34.865c8.3993,7.7511,21.1239,10.3724,31.8082,5.8986a2.4362,2.4362,0,0,0,1.3877-1.4748,2.5767,2.5767,0,0,0,1.12-1.6138,17.298,17.298,0,0,0,1.4925-14.3217,20.7669,20.7669,0,0,0-9.4107-11.3151A30.1145,30.1145,0,0,0,254.5716,146.2768Zm18.8815,29.6885a27.8615,27.8615,0,0,1-28.3571-6.2167c1.3126-1.8288,4.3129-2.3031,6.3546-2.4878a25.7256,25.7256,0,0,1,8.668.68A26.7062,26.7062,0,0,1,273.4531,175.9653ZM265.59,152.8278a19.6245,19.6245,0,0,1,9.5768,8.6987c.0934.1872.1679.3846.2535.576a22.6124,22.6124,0,0,0-5.3033-4.7108,27.4248,27.4248,0,0,0-8.4919-5.0647q-1.6456-.91-3.3129-1.7768A29.8657,29.8657,0,0,1,265.59,152.8278Z"/><path class="cls-6" d="M244.1411,248.85c.08-1.2949-1.4128-1.7959-2.5981-1.4931a2.01,2.01,0,0,0-1.4419-.1,145.9235,145.9235,0,0,1-59.5167,4.1,147.7457,147.7457,0,0,1-16.636-3.3193,1.872,1.872,0,0,0-2.417,1.4077,1.525,1.525,0,0,0,.7663,1.9229,1.2527,1.2527,0,0,0-.79,1.351q5.2415,42.1018,10.4827,84.2041,1.46,11.7283,2.92,23.4566a1.8405,1.8405,0,0,0-1.1382,1.0478c-.3534,1.0323.5582,1.6875,1.3968,1.9678a101.426,101.426,0,0,0,64.9714-.3,1.47,1.47,0,0,0,.7175-2.189,1.6169,1.6169,0,0,0-.4984-.47,1.27,1.27,0,0,0,.5007-.8061,1.3943,1.3943,0,0,0,.71-1.25q-.6294-42.7105,1.2816-85.4068Q243.3946,260.9069,244.1411,248.85Zm-69.6819,75.6294c-.0056.0073-.01.0161-.0151.0234l-.2239-1.7988c.0793.2041.1521.4112.2328.6143.06.15.1254.2978.1861.4472C174.572,324.0011,174.5108,324.2389,174.4592,324.4791Zm57.6963,27.1314-.18-1.0415q.1524.7264.305,1.4526l.0244.3994a1.4768,1.4768,0,0,0,.1972.6558l.0033.0156a1.8715,1.8715,0,0,0-.31.1948c-.1733.1367-.3592.2559-.5354.3887a1.6836,1.6836,0,0,0-.4621-.3023A1.6146,1.6146,0,0,0,232.1555,351.6105Zm-5.6728-71.6958q.6516-1.6443,1.3385-3.2749-.7048,2.0186-1.4372,4.0273C226.4173,280.4166,226.45,280.1656,226.4827,279.9147ZM191.754,344.8761c.0623.3686.13.7363.1935,1.1045l-1.3594-2.3194C190.9706,344.0714,191.3648,344.4718,191.754,344.8761Zm-4.0169-76.3291c.3874.0395.7736.0639,1.1583.0683-.4553.3067-.91.6138-1.3577.9312Q187.6589,269.0506,187.7371,268.547Z"/></g></svg>