<?xml version="1.0" encoding="UTF-8"?>
<svg width="322px" height="334px" viewBox="0 0 322 334" version="1.1" xmlns="http://www.w3.org/2000/svg" xmlns:xlink="http://www.w3.org/1999/xlink">
    <title>Group 4</title>
    <g id="Desktop" stroke="none" stroke-width="1" fill="none" fill-rule="evenodd">
        <g id="Admissions" transform="translate(-132.000000, -1833.000000)">
            <g id="Group-4" transform="translate(132.000000, 1833.000000)">
                <g id="Green_Circle" transform="translate(0.000000, 95.000000)">
                    <path d="M208.306159,43.4480468 C186.847622,-1.30093514 133.265915,-11.5951604 94.2398171,13.0821279 C49.760752,31.4248396 25.5272561,87.0106414 40.8175407,132.452939 C57.6762805,182.556813 120.95311,201.039479 166.87998,181.099128 C215.971768,159.785065 229.999533,88.6857946 208.306159,43.4480468" id="Fill-1" fill="#5AB947"></path>
                    <path d="M110.761598,50.5646486 L110.759443,50.5646486 C110.748671,50.5711081 110.737898,50.5775676 110.727126,50.584027 C110.731435,50.5861802 110.737898,50.5861802 110.744362,50.584027 C110.750825,50.5775676 110.757289,50.5711081 110.761598,50.5646486" id="Fill-4" fill="#FEFEFE"></path>
                    <path d="M110.75535,50.5844577 C110.763967,50.575845 110.768276,50.5715387 110.77474,50.5629261 C110.772585,50.5629261 110.766122,50.5629261 110.763967,50.5650793 C110.757504,50.5715387 110.753195,50.5779982 110.746732,50.5844577 C110.751041,50.5844577 110.751041,50.5844577 110.75535,50.5844577" id="Fill-6" fill="#FEFEFE"></path>
                    <path d="M110.738329,50.5950081 C110.740484,50.592855 110.742638,50.5885486 110.746947,50.5842423 L110.744793,50.5842423 C110.742638,50.5885486 110.740484,50.592855 110.738329,50.5950081" id="Fill-8" fill="#FEFEFE"></path>
                    <path d="M124.214333,46.493682 C123.165106,40.9084027 117.574252,37.5322586 112.190228,37.4482856 C112.144984,37.4482856 112.09974,37.4590514 112.052341,37.4590514 C108.116122,37.0973216 104.065715,38.4344297 101.305837,41.3519523 C98.3046585,44.5213937 96.8137642,48.8406189 98.1581545,53.1275468 C99.4874634,57.3692586 103.053114,60.4697991 107.18539,61.8499703 C111.481407,63.2861234 116.434537,62.071745 119.78474,59.0982405 C120.663764,58.3209523 121.398439,57.4230874 122.001691,56.4520153 C122.408886,55.898655 122.772992,55.3194568 123.066,54.7122676 C124.332829,52.0789613 124.755106,49.3789072 124.214333,46.493682" id="Fill-10" fill="#FEFEFE"></path>
                    <path d="M110.710967,50.6285973 C110.710967,50.6285973 110.710967,50.6285973 110.713122,50.6285973 C110.72174,50.6156784 110.730358,50.6070658 110.738976,50.5941468 C110.728203,50.6070658 110.719585,50.6178315 110.710967,50.6285973" id="Fill-12" fill="#FEFEFE"></path>
                    <path d="M166.895707,37.5856568 C165.150585,34.6595216 161.856398,32.6032604 158.525585,32.0412874 C155.315423,31.5008459 152.079407,32.0908099 149.276439,33.5226568 C148.498675,33.511891 147.692902,33.6733775 146.910829,33.9748189 C141.050667,36.2485486 137.930992,43.2183054 139.419732,49.1653144 C140.981724,55.387927 147.787699,59.6963865 154.04213,59.3217378 C160.555098,58.9341703 166.613472,54.2769 168.225016,47.851891 C169.095423,44.3874676 168.742089,40.681891 166.895707,37.5856568" id="Fill-14" fill="#FEFEFE"></path>
                    <path d="M154.904996,43.1263658 L154.898533,43.1263658 C154.898533,43.1263658 154.896378,43.1242126 154.896378,43.1242126 C154.894224,43.1242126 154.892069,43.1263658 154.88776,43.1263658 L154.874833,43.1263658 C154.876988,43.1263658 154.876988,43.1263658 154.879142,43.1285189 C154.876988,43.1285189 154.874833,43.1285189 154.874833,43.1285189 C154.876988,43.1306721 154.883451,43.1328252 154.885606,43.1328252 C154.889915,43.1349784 154.894224,43.1392847 154.896378,43.1414378 L154.902841,43.1392847 C154.928695,43.1478973 154.952394,43.1565099 154.980402,43.1651225 C154.98902,43.1651225 155.001947,43.1629694 155.010565,43.1629694 C154.98902,43.1522036 154.963167,43.1392847 154.939467,43.1263658 L154.935159,43.1263658 L154.937313,43.1263658 L154.917923,43.1177532 C154.913614,43.1177532 154.909305,43.1199063 154.904996,43.1220595 C154.904996,43.1220595 154.90715,43.1263658 154.904996,43.1263658" id="Fill-16" fill="#FEFEFE"></path>
                    <path d="M116.200346,44.0672937 C115.935346,43.6258973 115.612175,43.2211045 115.239451,42.8787532 C113.38876,41.1842216 110.559939,41.0808703 108.379614,42.1445279 C106.423354,43.1005279 105.143598,45.1352577 105.150037,47.3120955 C105.152215,48.4317351 105.479695,49.428645 105.990305,50.4083297 C106.515996,51.4160054 107.37563,52.1566901 108.317134,52.7617261 C109.299573,53.3926 110.45437,53.6402126 111.600549,53.7371045 C112.71872,53.8318432 113.845508,53.5497802 114.85811,53.0890054 C116.786362,52.2148252 118.072581,50.1047351 118.0575,48.0011045 C118.046728,46.4809784 117.331443,45.0297532 116.200346,44.0672937" id="Fill-18" fill="#231F20"></path>
                    <path d="M160.268122,40.2508297 C159.964341,39.0515234 160.089301,39.7943613 159.906171,39.5187577 C159.718732,39.2345414 159.421415,38.9137216 159.145642,38.6747216 C158.856943,38.4206495 158.523,38.2117937 158.199829,38.005091 C158.081333,37.9297306 157.958528,37.865136 157.82926,37.8091541 C156.844667,37.3806766 155.765276,37.0878477 154.681577,37.1976586 C154.289463,37.2385685 153.880114,37.2665595 153.490154,37.359145 C153.110967,37.4517306 152.736089,37.611064 152.376293,37.7574784 C151.904463,37.9512622 151.46926,38.2634694 151.074992,38.5778297 C150.874626,38.7414694 150.713041,38.9417126 150.542837,39.1398027 C150.376943,39.3335865 150.198122,39.5187577 150.068854,39.7405324 C149.887878,40.0484333 149.734911,40.3821721 149.605642,40.7116045 C149.556089,40.8343342 149.519463,40.9592171 149.49361,41.0884063 C149.426821,41.4178387 149.375114,41.7644964 149.355724,42.1090009 C149.252309,42.3157036 149.140276,42.5181 149.071333,42.7355685 C148.967919,43.0693072 148.937756,43.4310369 148.892512,43.7712351 C148.875276,43.896118 148.864504,44.0188477 148.870967,44.1437306 C148.883894,44.4925414 148.950683,44.8456586 149.017472,45.1858568 C149.041171,45.2999739 149.077797,45.4054784 149.120886,45.513136 C149.226455,45.7672081 149.390195,46.1720009 149.581943,46.4389919 C149.754301,46.6736856 149.96113,46.8976135 150.159341,47.1107757 C150.20674,47.1624514 150.254138,47.2098207 150.308,47.2550369 C150.937106,47.7696405 151.604992,48.1184514 152.391374,48.3273072 C152.779179,48.4328117 153.20361,48.4629559 153.600033,48.4909468 C153.759463,48.5017126 153.921049,48.4952532 154.08048,48.4780279 C154.483366,48.4328117 154.905642,48.4112802 155.299911,48.3014694 C155.694179,48.1916586 156.081984,48.0366315 156.452553,47.875145 C156.588285,47.8148568 156.719707,47.7459559 156.842512,47.6684423 C157.180764,47.4574333 157.523325,47.2335054 157.82926,46.9772802 C158.083488,46.7662712 158.260154,46.4906676 158.466984,46.2387486 C158.479911,46.2279829 158.494992,46.2215234 158.505764,46.2107577 C158.770764,45.9502261 159.012065,45.6595505 159.240439,45.3688748 C159.328772,45.2569108 159.410642,45.1384874 159.477431,45.0114514 C159.720886,44.5657486 159.96865,44.0899018 160.056984,43.5817577 C160.121618,43.2286405 160.203488,42.8518387 160.197024,42.4858027 C160.197024,42.4298207 160.177634,42.3738387 160.173325,42.3178568 C160.192715,42.2145054 160.216415,42.1090009 160.231496,42.0056495 C160.265967,41.8054063 160.29613,41.6030099 160.324138,41.4027667 C160.345683,41.2757306 160.365073,41.1465414 160.384463,41.0173523 C160.345683,40.7632802 160.306902,40.507055 160.268122,40.2508297" id="Fill-20" fill="#231F20"></path>
                    <path d="M173.236963,90.9782568 C170.49863,105.273041 166.74985,123.376752 151.610378,129.483095 C136.977207,135.387041 118.70298,129.597212 107.217492,119.70132 C100.80363,114.174176 96.0637927,107.077383 93.7865163,98.9040135 C92.7954593,95.3470045 86.5108659,96.6905721 87.5536301,100.439212 C92.1706626,117.018491 106.054077,129.399122 122.115663,134.71095 C130.910215,137.617707 140.850947,138.474662 149.878183,136.155716 C158.661963,133.901365 165.827736,128.262257 170.423224,120.49368 C175.468996,111.9715 177.625622,102.13159 179.46985,92.5113018 C180.195907,88.7131396 173.930703,87.3588063 173.236963,90.9782568" id="Fill-22" fill="#231F20"></path>
                    <path d="M95.2278577,184.33015 C94.374687,199.617537 93.5193618,214.904924 92.6683455,230.192312 C86.0218008,228.164041 78.6815163,228.794915 72.6791585,232.491879 C71.3649309,233.303618 70.5031423,235.021834 71.5200528,236.440762 C72.4550935,237.74342 74.499687,238.365681 75.9431829,237.476429 C76.6326138,237.052258 77.3392805,236.660384 78.0739553,236.318032 C78.3949715,236.169465 78.7202967,236.02951 79.045622,235.896014 C79.082248,235.880942 79.0714756,235.885249 79.0930203,235.876636 C79.2459878,235.822807 79.3989553,235.768978 79.5562317,235.717303 C80.3232236,235.465384 81.1052967,235.256528 81.8981423,235.092888 C82.1954593,235.0326 82.4949309,234.976618 82.7944024,234.929249 C82.938752,234.905564 83.0809472,234.886186 83.2252967,234.866807 C83.2748496,234.860348 83.3459472,234.853888 83.4407439,234.843123 C84.149565,234.797906 84.8540772,234.75269 85.5650528,234.75915 C85.967939,234.763456 86.3729797,234.780681 86.7758659,234.808672 C86.8641992,234.812978 87.4717602,234.886186 87.6031829,234.896951 C88.243061,234.995996 88.8807846,235.110114 89.5098902,235.267294 C89.8998496,235.364186 90.2898089,235.473996 90.6754593,235.594573 C90.7831829,235.629023 91.8927358,236.033816 91.3325732,235.814195 C92.8170041,236.397699 94.8400528,236.333105 95.7535488,234.778528 C95.8440366,234.625654 95.9129797,234.462014 95.9733049,234.296222 C97.4878984,234.184258 98.957248,233.262708 99.0563537,231.499276 C99.935378,215.776951 100.812248,200.052474 101.691272,184.33015 C101.900256,180.579357 95.4389959,180.568591 95.2278577,184.33015" id="Fill-24" fill="#231F20"></path>
                    <path d="M180.699837,222.976665 C175.654065,224.150133 170.606138,225.325755 165.56252,226.501377 C165.926626,212.426214 166.290732,198.351052 166.652683,184.278043 C166.751789,180.516485 160.288374,180.507872 160.189268,184.278043 L159.002154,230.258629 C158.946138,232.351494 161.307439,233.458214 163.091341,233.042656 L182.419106,228.542566 C186.495366,227.593025 184.573577,222.074494 180.699837,222.976665" id="Fill-26" fill="#231F20"></path>
                    <path d="M42.1403862,134.771023 C31.9928252,128.15869 20.9382317,123.079402 9.34932927,119.625744 C20.3026626,110.048519 31.2559959,100.471294 42.2093293,90.8940685 C45.3182317,88.1767892 40.4469715,84.3570955 37.6396951,86.8138432 C25.4022967,97.5128613 13.1648984,108.211879 0.9275,118.910897 C-0.903800813,120.512843 0.190670732,123.191366 2.35160569,123.736114 C14.4425,126.784978 25.8762805,131.694168 36.4525813,138.244059 L30.0516463,150.566555 C28.2052642,154.117105 33.9318496,156.750411 35.6317276,153.479771 L43.2994919,138.719906 C44.1225,137.139492 43.6054268,135.72487 42.1403862,134.771023" id="Fill-28" fill="#231F20"></path>
                    <path d="M262.655935,91.3210387 C248.57,82.1270748 234.484065,72.9331108 220.39813,63.7369937 C217.168577,61.6290568 213.648171,66.4456604 217.13626,68.7215432 L255.337195,93.6572099 C241.714472,101.54421 227.869837,109.037183 213.794675,116.0823 C212.489065,116.736859 211.558333,118.75221 212.635569,120.031183 C216.70752,124.865012 221.423659,128.854805 226.930488,131.970417 C230.280691,133.865192 233.839878,129.048588 230.194512,126.985868 C226.557764,124.927453 223.239878,122.375967 220.327033,119.398156 C234.66935,112.133417 248.789756,104.444507 262.655935,96.3055883 C264.788862,95.0524532 264.622967,92.6064712 262.655935,91.3210387" id="Fill-30" fill="#231F20"></path>
                </g>
                <g id="Speech-Bubble" transform="translate(213.000000, 0.000000)">
                    <path d="M99.7340614,31.922726 C95.0110175,24.3313594 89.3241532,17.1692944 82.4597658,11.7807379 C74.8949086,5.84206526 66.3003934,2.8873909 57.0820391,1.77660225 C52.0913273,1.17604914 47.0682362,0.852313483 42.054859,0.564939439 C36.9076477,0.270527662 31.7496434,0.175518284 26.6175424,0.766687748 C21.9506224,1.30624718 17.275068,2.30912395 13.2665248,5.10310343 C9.55371144,7.68946984 6.95798004,11.7490681 5.00983235,15.9693612 C1.01855804,24.6187335 0.279233292,34.730781 0.0558169095,44.2563508 C-0.16867878,53.8945244 1.07684057,64.0734304 7.78149067,71.0712816 C9.07449949,72.4201802 10.5790523,73.5239311 12.1807427,74.4001287 C12.1073499,74.601877 12.0490674,74.8141819 12.0220847,75.0476 C11.0517884,83.6113465 10.8510375,92.2489893 11.4219905,100.854962 C11.5212866,102.341097 12.8326437,103.200873 14.120256,103.200873 L14.1245732,103.200873 C15.1844519,104.756211 18.4374808,104.832454 19.0958575,102.647238 C19.4779319,101.381619 20.5065107,100.497211 21.4401106,99.8520854 C23.1410972,98.6767842 24.962966,97.6727345 26.7179179,96.5959615 C30.4253347,94.3227742 34.1327515,92.0484139 37.8401683,89.7752266 C38.7942749,89.1899219 39.4612862,88.0826521 39.016612,86.9730364 C47.7956886,88.1061112 56.6600304,88.3348375 65.477962,87.534882 C74.9812531,86.6715869 85.1234934,85.2311978 93.5766196,80.0995184 C100.904029,75.651672 106.748472,68.3758303 107.846127,59.1047918 C108.997747,49.3704359 104.60497,39.7522025 99.7340614,31.922726" id="Fill-1" fill="#CEECC8"></path>
                    <path d="M34.2196,54.7408 C31.3466,56.9148 26.1416,58.2288 23.2366,55.3468 C21.5536,53.6788 20.6816,50.9738 20.2216,48.7108 C19.7336,46.3098 19.8216,43.7408 20.6716,41.4328 C22.1056,37.5438 26.6506,34.3828 30.6416,36.3568 C31.2826,36.6738 32.1066,36.7128 32.8236,36.4858 C35.6876,38.1438 37.6916,41.0298 38.3386,44.3428 C39.1246,48.3678 37.4556,52.2928 34.2196,54.7408 M33.4496,32.1408 C32.6726,31.8748 31.7596,31.8028 30.9996,32.1108 C26.0536,30.8628 20.4646,33.0708 17.4876,37.2328 C13.6546,42.5918 14.5146,50.0958 17.6276,55.5618 C20.9716,61.4298 28.8256,62.0438 34.4966,59.5108 C39.5976,57.2318 43.4496,52.2918 43.5256,46.5918 C43.6076,40.3348 39.3916,34.1738 33.4496,32.1408" id="Fill-4" fill="#000000"></path>
                    <path d="M70.0116,48.9161 C68.3596,45.4071 65.0096,43.2271 61.0766,43.5811 C58.4876,43.8131 56.1096,44.8391 54.1056,46.3741 C54.4816,42.4071 54.8576,38.4411 55.2336,34.4751 C55.4806,31.8721 50.4836,31.8351 50.2336,34.4751 C49.5366,41.8151 48.8416,49.1561 48.1456,56.4961 C48.0776,56.9711 48.0286,57.4501 48.0096,57.9301 C47.9036,60.5871 52.7626,60.5401 53.0096,57.9301 C53.0416,57.5851 53.0746,57.2411 53.1076,56.8961 C53.6816,52.7401 56.6616,48.6621 60.8546,47.6701 C63.1006,47.1381 64.6946,48.6081 65.4726,50.6331 C66.5786,53.5101 65.8486,56.7071 65.2086,59.6051 C64.9386,60.8311 65.7646,61.8001 66.9546,62.0651 C67.9736,62.2911 69.7586,61.9021 70.0306,60.6681 C70.8736,56.8441 71.7596,52.6301 70.0116,48.9161" id="Fill-6" fill="#000000"></path>
                    <path d="M83.2108,28.4889 C83.3388,27.2269 81.7428,26.4889 80.7108,26.4889 C79.4818,26.4889 78.3408,27.2169 78.2108,28.4889 C77.5858,34.6389 77.4388,40.8249 77.7708,46.9979 C77.8388,48.2669 79.0948,48.9979 80.2708,48.9979 C81.3368,48.9979 82.8388,48.2729 82.7708,46.9979 C82.4388,40.8249 82.5858,34.6389 83.2108,28.4889" id="Fill-8" fill="#000000"></path>
                    <path d="M80.2167,58.8727 C79.0907,58.8727 77.7167,59.6027 77.7167,60.8727 C77.7167,62.1477 79.0967,62.8727 80.2167,62.8727 C81.3417,62.8727 82.7167,62.1427 82.7167,60.8727 C82.7167,59.5977 81.3367,58.8727 80.2167,58.8727" id="Fill-10" fill="#000000"></path>
                </g>
            </g>
        </g>
    </g>
</svg>