<?xml version="1.0" encoding="UTF-8"?>
<svg width="426px" height="345px" viewBox="0 0 426 345" version="1.1" xmlns="http://www.w3.org/2000/svg" xmlns:xlink="http://www.w3.org/1999/xlink">
    <title>Camp Illustration</title>
    <defs>
        <polygon id="path-1" points="29.3768875 1.69089372 36.8516654 2.33888433 17.3264433 223.476608 9.85166538 222.828617"></polygon>
        <polygon id="path-3" points="17.1725564 7.97954242 191.493499 23.2648123 180.814442 145.600422 6.49349932 130.315152"></polygon>
    </defs>
    <g id="Desktop" stroke="none" stroke-width="1" fill="none" fill-rule="evenodd">
        <g id="Afterschool" transform="translate(-852.000000, -3889.000000)">
            <g id="Large-CTA" transform="translate(194.000000, 3889.000000)">
                <g id="Camp-Illustration" transform="translate(658.000000, 0.000000)">
                    <g id="Flag" transform="translate(306.130956, 125.609103) rotate(5.000000) translate(-306.130956, -125.609103) translate(196.130956, 9.609103)">
                        <g id="Group-3" transform="translate(0.000000, 7.000000)">
                            <mask id="mask-2" fill="white">
                                <use xlink:href="#path-1"></use>
                            </mask>
                            <g id="Clip-2" transform="translate(23.351665, 112.583751) rotate(-5.000000) translate(-23.351665, -112.583751) "></g>
                            <path d="M34.7152315,4.60848993 C34.8254516,4.45017197 34.9057163,4.26948432 34.9413676,4.06074998 C34.9884711,3.78434778 34.9158832,3.48131159 34.7774818,3.21995902 C34.819624,3.12942721 34.8493563,3.034878 34.8504745,2.93926542 C34.8580826,2.21735336 34.0962703,1.68765637 33.3492005,1.65900429 C31.9957576,1.60680755 30.650153,1.64809112 29.4514489,2.26637444 C29.3221232,2.33240981 29.198976,2.40994962 29.0792823,2.49363908 C28.449201,2.69741738 27.7886405,3.13303557 27.6047905,3.7356498 C27.4677009,4.18530636 27.5019978,4.6172064 27.7649725,5.03275157 C27.9669002,5.35231371 28.3051865,5.61668965 28.6508324,5.79623238 C28.9568382,5.95474279 29.2871565,6.06279363 29.6264109,6.13217942 C29.6249905,6.13936031 29.6220504,6.14567648 29.6214214,6.15292718 C27.4604591,29.6833104 24.2638734,67.7339931 22.1020569,91.2650316 L15.6182528,161.857561 C14.3988634,175.132014 13.1795369,188.405741 11.9602104,201.679468 C11.8203008,203.209463 14.9886262,203.454664 15.129102,201.918143 C17.2909185,178.387105 19.4520066,154.855272 21.6129061,131.325614 C23.7747226,107.794575 25.9358107,84.2627418 28.0976273,60.7317033 C29.3168909,47.4587012 31.5710493,19.6646047 32.7903758,6.39087759 C32.7977983,6.3053193 32.7929104,6.2237892 32.780523,6.14598115 C32.9497668,6.08858208 33.1101071,6.01432381 33.2647457,5.93225628 C33.9334404,5.72457864 34.5567876,5.24914612 34.7152315,4.60848993" id="Fill-1" fill="#999999" mask="url(#mask-2)" transform="translate(23.455711, 102.299283) rotate(-5.000000) translate(-23.455711, -102.299283) "></path>
                        </g>
                        <path d="M32.4587947,135.933964 C31.4060294,135.709476 30.4445141,135.736875 29.4116688,136.017648 C28.6204934,136.231938 27.875928,136.585319 27.127103,136.910554 C25.5587108,137.592557 23.991189,138.273828 22.4227968,138.955832 C21.7748943,139.237751 21.2360951,139.965801 21.7038261,140.672415 C22.140242,141.333595 23.1395894,141.667969 23.8725181,141.348547 C25.2868829,140.734117 26.699571,140.120342 28.1139357,139.505912 C28.7820227,139.21533 29.4443357,138.905429 30.1275173,138.649747 C30.2715181,138.595893 30.417873,138.543081 30.566131,138.496979 C30.6436134,138.472619 30.7217731,138.449955 30.8006102,138.428989 C30.8253739,138.424029 30.8600689,138.416763 30.9120147,138.407077 C31.0261286,138.391952 31.1384371,138.379101 31.2514229,138.367947 C31.1386326,138.397068 31.7737046,138.429625 31.4039404,138.349992 C32.1116097,138.501298 33.15854,138.451934 33.458167,137.636422 C33.719595,136.923287 33.2079967,136.094162 32.4587947,135.933964" id="Fill-4" fill="#000000" transform="translate(27.527323, 138.627450) rotate(-5.000000) translate(-27.527323, -138.627450) "></path>
                        <g id="Group-8" transform="translate(22.000000, 0.000000)">
                            <mask id="mask-4" fill="white">
                                <use xlink:href="#path-3"></use>
                            </mask>
                            <g id="Clip-7" transform="translate(98.993499, 76.789982) rotate(-5.000000) translate(-98.993499, -76.789982) "></g>
                            <path d="M186.334176,60.8699887 C163.668577,57.0788107 141.770431,49.8187401 120.294615,41.8522688 C98.6878001,33.8368763 77.3638541,25.034267 55.416612,17.9473097 C43.1769819,13.9959361 30.7469512,10.5961148 18.0984792,8.19364132 C17.3602306,8.05286791 16.4039418,8.15603652 16.0683485,8.94746625 C15.7732594,9.64493536 16.369877,10.4509542 17.07963,10.5860586 C17.17311,10.6037593 17.265511,10.6245623 17.359061,10.6414702 C17.3521219,11.0763135 17.337989,11.5105324 17.3149936,11.9447812 C17.2905554,12.0209606 17.2700439,12.0982797 17.2615522,12.1854308 L12.8024198,57.4850583 C11.3093921,72.6512051 9.81643435,87.8165591 8.32413606,102.983568 C7.48623105,111.488726 6.64898549,119.995539 5.81180987,128.501558 C5.6911473,129.732705 7.28060741,129.993695 8.14594281,129.761986 C32.162677,123.329194 55.9401763,116.019929 79.4122977,107.84443 C102.88355,99.6696543 126.050673,90.6327483 148.848733,80.7576385 C161.679768,75.1997126 174.391842,69.3741898 186.97911,63.2925478 C188.499279,62.5583829 187.706472,61.100146 186.334176,60.8699887" id="Fill-6" fill="#D3DDD1" mask="url(#mask-4)" transform="translate(96.805313, 68.989473) rotate(-5.000000) translate(-96.805313, -68.989473) "></path>
                        </g>
                        <path d="M33.8959691,15.7320903 C30.9762243,14.4142688 27.6553396,14.2698497 24.6506905,15.1654592 C24.0145294,15.3548014 23.6570393,16.1024689 24.0154825,16.7070731 C24.4110983,17.3756494 25.2824284,17.5243921 25.9496985,17.325732 C26.1141398,17.276376 26.2805171,17.2301531 26.4465652,17.1883012 C26.4913254,17.1803706 26.7056163,17.1324101 26.7041793,17.1322641 C27.0311467,17.0685934 27.3605542,17.0205863 27.6925664,16.9860573 C28.0063422,16.9533455 28.3227228,16.9341118 28.6387244,16.9295213 C28.70228,16.9315756 28.8505565,16.9334306 28.8801789,16.9342387 C29.0477446,16.9395222 29.2142077,16.9498321 29.3819432,16.9624736 C29.691494,16.9858566 30.001549,17.0217701 30.3092342,17.0699222 C30.3478676,17.0760505 30.6777212,17.1374667 30.7065153,17.1396588 C30.8239674,17.1662763 30.9413647,17.1936224 31.0577691,17.224538 C31.7103721,17.3936293 32.3453236,17.6240578 32.9628927,17.9026371 C33.5762607,18.1793214 34.5239563,17.9005154 34.7909849,17.2677143 C35.0984162,16.5406525 34.4855672,15.99755 33.8959691,15.7320903" id="Fill-9" fill="#000000" transform="translate(29.373094, 16.303298) rotate(-5.000000) translate(-29.373094, -16.303298) "></path>
                        <path d="M122.466697,68.8186691 C115.307823,59.5055939 107.344094,50.8189647 98.6403235,42.8897461 C98.3970842,42.6679081 98.0811791,42.5230381 97.7494353,42.4576987 C98.5199045,41.0715345 95.9276232,39.9576838 94.9727553,41.1564763 C89.0285349,48.6192626 83.0850428,56.0829055 77.1408225,63.5456918 C76.4442332,64.4211046 75.7386286,65.2893875 75.0503263,66.1710735 C74.363896,67.0497495 73.6787539,67.9959608 73.6375506,69.148886 C73.5683198,71.0219934 75.2710589,72.9484693 76.2517255,74.43299 C78.5614462,77.9265037 81.0896566,81.2748237 83.7969347,84.4784875 C86.8782166,88.1255639 90.2148729,91.555299 93.7667879,94.757858 C94.3296186,95.2652857 95.3839634,95.4378894 96.0219883,94.9539912 C105.678413,87.63082 114.523198,79.2947206 122.354807,70.0899817 C122.640718,69.7539339 122.757969,69.1977751 122.466697,68.8186691" id="Fill-11" fill="#B49E81" transform="translate(98.135503, 67.943579) rotate(-5.000000) translate(-98.135503, -67.943579) "></path>
                        <path d="M95.2857702,71.548674 C95.1587576,70.8121571 94.0465659,70.5018342 93.3687291,70.5936556 C92.5862347,70.6996288 92.01816,71.2284813 92.1464418,71.9688122 C92.1632122,72.0688292 92.114941,72.3427695 92.0055514,72.5159163 C91.8708512,72.7277027 91.7284643,72.8461695 91.4563744,72.9877952 C91.4146995,73.0109681 91.3967339,73.0220555 91.3934613,73.0225207 L91.3933945,73.0232565 C91.3943963,73.0211169 91.4115603,73.0099619 91.4516991,72.985918 C91.3636727,73.0125936 91.3153852,73.0285362 91.3075713,73.0345492 C91.2690344,73.0409354 91.2298295,73.0457824 91.191426,73.0506971 C91.1673818,73.0486684 91.1272414,73.0460228 91.050701,73.0440128 C91.0814245,73.0525361 91.1003262,73.0578378 91.1144857,73.061998 C91.1136842,73.0619304 91.1128828,73.0618628 91.1120145,73.0625309 C91.0457587,73.0450785 90.8642897,72.9978879 90.8367053,72.9903708 C90.6585751,72.9330828 90.6319257,72.9241618 90.7592282,72.9630752 C90.6607782,72.9176999 90.5643316,72.8680454 90.4714246,72.8149827 C90.3180044,72.7256766 90.0428191,72.5008051 89.9096988,72.3479714 C89.6892789,72.098066 89.5084628,71.8122097 89.3778713,71.5157639 C89.0666561,70.8067039 88.9717669,70.0365704 88.9651738,69.2813008 C88.9574439,68.5029528 88.9736881,67.6739904 89.2041298,66.9231523 C89.414606,66.2410595 89.735096,65.7528502 90.273795,65.4053784 C90.3103941,65.3847427 90.3401142,65.3687162 90.3622874,65.3557597 C90.4243329,65.3305988 90.4883156,65.3107909 90.5531665,65.290315 C90.5782124,65.2902041 90.6486742,65.279098 90.6816008,65.2722384 C90.9508942,65.2682713 91.351369,65.3850954 91.6782424,65.5031229 C92.1701553,65.6802994 92.579927,66.0062326 92.4475236,66.628931 C92.2889458,67.3621091 93.3249438,67.8713621 93.9703296,67.9146971 C94.779483,67.9688849 95.4977086,67.5831825 95.6578221,66.841979 C96.1560556,64.5190521 93.2075011,63.2101052 91.1703501,62.9470286 C88.9384404,62.6586224 86.9104749,64.0125046 86.2110463,65.9181162 C84.9235074,69.4280985 86.0170624,74.9827739 90.8860145,75.402497 C93.2916375,75.609924 95.6875864,73.8674764 95.2857702,71.548674" id="Fill-13" fill="#DEDEDE" transform="translate(90.713607, 69.163765) rotate(-5.000000) translate(-90.713607, -69.163765) "></path>
                        <path d="M110.395698,68.5729477 C110.000351,67.9295059 108.952599,67.6416808 108.270477,67.9747585 C108.09134,68.0610943 107.911626,68.1361788 107.725536,68.202718 C107.686959,68.21703 107.665559,68.2256063 107.644159,68.2341825 C107.620896,68.2369986 107.589615,68.2407311 107.542158,68.2478845 C107.373089,68.2750681 107.204946,68.2919289 107.036949,68.3160035 C106.952838,68.3160289 106.868727,68.3160544 106.784973,68.3121095 C106.635575,68.3057649 106.487463,68.2939289 106.339062,68.2764673 C106.279359,68.2697735 106.220656,68.2607645 106.161166,68.2516884 C106.15193,68.2485001 106.108332,68.2391794 106.021851,68.2213995 C105.677705,68.1216258 105.335711,68.0332379 104.99857,67.908457 C104.527044,67.7338042 103.76988,67.3467474 103.159489,67.0218217 C103.098844,66.990243 103.037554,66.9570088 102.977051,66.9238419 C104.351081,66.2105127 105.725183,65.4963893 107.099284,64.782266 C107.739243,64.4503922 108.228881,63.7952363 107.787689,63.0790705 C107.399148,62.4482117 106.334132,62.1317087 105.662468,62.4808814 L101.303918,64.7447224 C101.363938,63.8192706 101.432547,62.8953517 101.480612,61.9704803 C101.565861,60.2862399 98.4113618,60.0787271 98.325397,61.7621062 C98.1565309,65.0947195 97.9039813,68.4225937 97.5696081,71.7426871 C97.4013172,73.4150419 100.55489,73.6328776 100.724107,71.9501999 C100.82618,70.9363188 100.906346,69.9189684 100.992669,68.9037436 C103.706103,70.357065 106.75823,71.7144586 109.707293,70.2761431 C110.356994,69.9595031 110.829225,69.2772574 110.395698,68.5729477" id="Fill-15" fill="#DEDEDE" transform="translate(104.063107, 66.854128) rotate(-5.000000) translate(-104.063107, -66.854128) "></path>
                    </g>
                    <g id="Orange_Rectangle" transform="translate(0.000000, 173.871704)">
                        <path d="M168.913899,43.0290168 C168.74573,38.7295882 164.740557,35.2076255 160.399047,35.4359795 C122.139691,37.4508056 83.8068936,37.2872404 45.5645668,34.9452839 C41.3252351,34.6850665 37.1029332,38.2601348 37.0497153,42.5383211 C37.0422649,43.2541845 37.1487005,43.9169422 37.3317698,44.5361534 C37.2029827,67.5924764 37.0731312,90.6487994 36.9431455,113.705122 C36.9166708,118.472942 40.8515965,120.94129 44.944047,121.120787 C45.9594431,121.499961 47.0365718,121.689017 48.0987995,121.631663 C83.7909282,119.710302 119.538403,119.195178 155.273106,120.087352 C155.954295,120.104346 156.593973,120.058675 157.188948,119.960961 C162.036027,121.151588 168.281671,118.788389 168.573304,112.84906 C169.711101,89.5866876 169.823923,66.3009484 168.913899,43.0290168" id="Fill-1" fill="#F9A93A"></path>
                        <path d="M92.5234406,53.2000118 C92.2190347,52.5584963 91.9156931,51.9159186 91.6112871,51.273341 C90.7757673,50.0338565 89.6943812,49.0683969 88.3660644,48.3780242 C88.1255198,48.2569435 87.887104,48.1358627 87.6465594,48.014782 C86.5928465,47.4221236 85.4710149,47.102428 84.2831931,47.0567571 C83.0804703,46.8167199 81.8777475,46.8645149 80.6750248,47.2012043 C79.5212624,47.4369932 78.4952228,47.9191919 77.5990347,48.6446143 C76.6379208,49.1947882 75.8609406,49.9488876 75.2680941,50.9090366 C74.9647525,51.5516143 74.6603465,52.1941919 74.357005,52.8357075 C73.9248762,54.2653099 73.9248762,55.6959745 74.357005,57.125577 C74.6603465,57.7681547 74.9647525,58.4107323 75.2680941,59.0533099 C76.1036139,60.2927944 77.185,61.2571919 78.5143812,61.9475646 L78.522896,61.951813 C79.8703713,62.8737261 81.6244307,63.443018 83.7840099,63.443018 C86.3916832,63.443018 88.4022525,62.6060739 89.8284901,61.3209186 C90.5394802,60.8164155 91.1365842,60.1855211 91.6112871,59.4176143 C91.9156931,58.7750366 92.2190347,58.132459 92.5234406,57.4898814 C92.9534406,56.0592168 92.9534406,54.6296143 92.5234406,53.2000118" id="Fill-3" fill="#FEFEFE"></path>
                        <path d="M124.237963,49.991372 C123.786676,48.5936329 123.011824,47.4061919 121.910215,46.4311733 L120.080587,45.1693845 C118.647963,44.4354652 117.125933,44.0679745 115.514498,44.0679745 L114.792864,44.0679745 C113.562468,44.0223037 112.401255,44.2538441 111.307097,44.7636578 C110.208681,45.0769807 109.239052,45.6335273 108.395017,46.4311733 C107.527567,47.1374776 106.903854,48.0030988 106.523879,49.0280366 C105.964027,49.972254 105.704324,51.0088752 105.745834,52.1368379 C105.853334,52.850577 105.960834,53.5664404 106.069399,54.2812416 C106.519621,55.6789807 107.294473,56.8653596 108.395017,57.8414404 C109.004894,58.2620366 109.616899,58.6826329 110.226775,59.1032292 C111.658334,59.8382106 113.180364,60.2046391 114.792864,60.2046391 L115.514498,60.2046391 C116.743829,60.2503099 117.906106,60.0187696 118.9992,59.5089559 C120.096552,59.1956329 121.067245,58.6390863 121.910215,57.8414404 C122.77873,57.135136 123.402443,56.2695149 123.781354,55.244577 C124.34227,54.3003596 124.601973,53.2637385 124.561527,52.1368379 C124.452963,51.4209745 124.345463,50.7061733 124.237963,49.991372" id="Fill-5" fill="#FEFEFE"></path>
                        <path d="M114.792864,51.4320205 C112.765265,51.4320205 112.761007,54.2795422 114.792864,54.2795422 C116.820463,54.2795422 116.823656,51.4320205 114.792864,51.4320205" id="Fill-7" fill="#231F20"></path>
                        <path d="M85.8879233,54.7568553 C85.8208688,54.5762963 85.7101757,54.4233522 85.5569084,54.298023 C85.4494084,54.2247373 85.3419084,54.1503894 85.2344084,54.0760416 C84.9810916,53.946464 84.7128738,53.8816752 84.4286906,53.8816752 C84.2871312,53.8986689 84.1455718,53.9156627 84.0040124,53.9326565 C83.7389876,53.9974453 83.5048292,54.1185261 83.2994084,54.298023 L82.9588144,54.6761348 C82.805547,54.801464 82.6959183,54.9544081 82.6288639,55.133905 C82.5298787,55.3017186 82.4841114,55.4844019 82.4915619,55.6830168 C82.4841114,55.8816317 82.5298787,56.0643149 82.6288639,56.2321286 C82.6959183,56.4126876 82.805547,56.5656317 82.9588144,56.6898988 C83.0673787,56.7642466 83.1738144,56.8375323 83.2823787,56.9118801 C83.5346312,57.0414578 83.8039134,57.1062466 84.0880965,57.1062466 C84.2285916,57.0892528 84.370151,57.0733211 84.5127748,57.0563273 C84.7767351,56.9915385 85.0119579,56.8693957 85.2163144,56.6898988 L85.5569084,56.311787 C85.7101757,56.1875199 85.8208688,56.0345758 85.8879233,55.8540168 C85.9869084,55.6872652 86.0326757,55.504582 86.0252252,55.3059671 C86.0326757,55.1062901 85.9869084,54.9236068 85.8879233,54.7568553" id="Fill-9" fill="#231F20"></path>
                        <path d="M135.161134,65.5350596 C135.031282,65.1760658 134.780094,64.8510596 134.427792,64.6843081 L134.045688,64.540923 C133.763634,64.4729478 133.480515,64.4729478 133.196332,64.540923 C132.092594,64.6768733 130.987792,64.8138857 129.88299,64.9508981 C129.532817,64.9944447 129.115589,65.3183888 128.929327,65.605159 C128.733485,65.9057366 128.643015,66.356072 128.767545,66.7023205 C128.817569,66.8382708 128.899525,66.9604137 128.982545,67.0793702 C128.83247,74.2518112 128.736678,81.4274385 128.520614,88.5977553 C128.435465,91.4123516 128.238559,94.6347988 126.185416,96.7930099 C124.247223,98.8301404 121.245738,99.4419168 118.580589,99.8710099 C111.488782,101.01278 104.228807,101.385581 97.0518515,101.20396 C91.0041782,101.051016 84.3860099,100.36383 80.2797228,95.3750907 C75.5550446,89.6343764 75.3538812,81.802364 75.1803911,74.7371963 C75.159104,73.8503329 74.4193762,73.3915006 73.657297,73.3511404 C73.6179158,73.3267118 73.5838564,73.2948484 73.5423465,73.2736062 C73.3848218,73.1705814 73.2187822,73.1079168 73.0431634,73.0420658 C72.8686089,72.9762149 72.7004406,72.910364 72.5173713,72.8806248 C71.9873218,72.7945938 71.5349703,72.7892832 71.0059851,72.8923081 C70.7686337,72.939041 70.5419257,73.0356932 70.3184109,73.1227863 C70.2002673,73.1684571 70.0853168,73.2226248 69.9788812,73.2906 C69.5552673,73.5593143 69.2189307,73.841836 68.9294257,74.2571217 C68.7186832,74.5619478 68.6612079,75.0048484 68.7687079,75.3553453 C68.8751436,75.7015938 69.1742277,76.0499665 69.5031139,76.2060969 C70.2204901,76.5470348 71.0953911,76.3994012 71.6009604,75.7780658 C71.5860594,75.7961217 71.5700941,75.8141776 71.5541287,75.8322335 C71.599896,75.7801901 71.6573713,75.7408919 71.7095248,75.6952211 C71.7212327,75.6888484 71.7350693,75.6824758 71.7478416,75.6761031 C71.7574208,75.6729168 71.7659356,75.6707925 71.7755149,75.6686683 L71.8085099,75.6686683 C71.8489554,75.6909727 71.8925941,75.7069043 71.9309109,75.732395 C71.9575198,75.7472646 71.9873218,75.7536373 72.014995,75.7663826 C72.2001931,82.5575255 72.656802,89.668364 76.5427673,95.4802398 C80.4180891,101.278308 86.7605891,103.369606 93.4479406,103.882606 C101.298634,104.485886 109.306851,103.984569 117.099005,102.951134 C120.220762,102.536911 123.522396,102.081265 126.280144,100.450923 C129.018733,98.8312025 130.683386,96.2417739 131.276233,93.1393453 C132.035119,89.1606745 131.794574,84.9419665 131.879723,80.9112522 C131.975515,76.4471963 132.071307,71.9831404 132.166035,67.5190845 C132.791876,67.4415503 133.418782,67.3640161 134.045688,67.286482 C134.396926,67.2429354 134.813089,66.9189913 135.000416,66.6322211 C135.195193,66.3316435 135.285663,65.8813081 135.161134,65.5350596" id="Fill-11" fill="#231F20"></path>
                        <path d="M35.8631708,68.0954925 C25.7219827,84.7961385 15.5797302,101.495722 5.43747772,118.196368 C4.68178465,116.131623 3.92609158,114.065816 3.16933416,112.000008 C2.54562129,110.295319 -0.567621287,110.960201 0.0912153465,112.757294 C1.23859158,115.892648 2.38596782,119.028002 3.53334406,122.163356 C3.95695792,123.323182 5.77487871,123.616325 6.45180941,122.504294 C17.1741361,104.846685 27.8975272,87.1901385 38.6209183,69.5325298 C39.6490866,67.8395236 36.8083193,66.5394988 35.8631708,68.0954925" id="Fill-13" fill="#231F20"></path>
                        <path d="M214.307104,9.0829677 C211.12255,6.19296149 207.936931,3.30401739 204.751312,0.412949068 C204.140371,-0.14041118 203.105817,-0.135100621 202.492748,0.412949068 C202.247946,0.633868323 202.129802,0.918514286 202.08297,1.21165714 C201.374109,0.974806211 200.490693,1.10438385 200.097946,1.77776273 C199.870173,2.1707441 199.640272,2.56478758 199.410371,2.95776894 C199.213465,3.2955205 199.169827,3.61627826 199.228366,3.90304845 C192.457995,21.0380981 185.079876,37.9352348 177.068465,54.5296696 C174.731139,59.369713 172.341658,64.1821416 169.904282,68.9722658 C169.009158,70.7300609 171.837153,72.0300857 172.660965,70.4093031 C181.385495,53.2689429 189.47354,35.8046385 196.877203,18.0556882 C198.976114,13.0234025 201.018614,7.96987453 203.00896,2.89404224 L212.049604,11.0967317 C212.65948,11.6500919 213.696163,11.6458435 214.307104,11.0967317 C214.915916,10.5497441 214.90953,9.62995528 214.307104,9.0829677" id="Fill-15" fill="#231F20"></path>
                        <path d="M81.9360743,167.421108 C82.0148366,167.257543 82.0669901,167.071673 82.0733762,166.859251 C82.5225347,151.884537 82.9727574,136.909822 83.4219158,121.935108 C83.4772624,120.080661 80.2841931,120.076412 80.2288465,121.935108 C79.7796881,136.909822 79.3294653,151.884537 78.8803069,166.859251 C78.8739208,167.050431 78.9101089,167.218245 78.9665198,167.370127 C76.6568663,167.509263 74.3461485,167.649462 72.0354307,167.788599 C71.2797376,167.83427 70.3952574,168.345145 70.438896,169.212891 C70.4793416,170.013723 71.2158762,170.68604 72.0354307,170.63612 C75.0752327,170.452375 78.1129059,170.269692 81.1527079,170.085947 C81.908401,170.040276 82.7928812,169.530462 82.7492426,168.661655 C82.7226337,168.134847 82.3916188,167.667518 81.9360743,167.421108" id="Fill-18" fill="#231F20"></path>
                        <path d="M140.410114,163.270694 C137.783282,163.578706 135.15645,163.885657 132.530683,164.192607 C133.423678,149.93588 133.808975,135.651539 133.680188,121.366135 C133.663158,119.509563 130.470089,119.506377 130.487119,121.366135 C130.61697,135.769433 130.227416,150.172731 129.318455,164.547352 C129.314198,164.607893 129.323777,164.660998 129.32697,164.71729 C128.891649,164.944582 128.565955,165.32588 128.565955,165.89411 C128.565955,166.662017 129.376995,167.409743 130.16249,167.318402 L140.410114,166.118216 C141.192416,166.026874 142.006649,165.595657 142.006649,164.693924 C142.006649,163.926017 141.196673,163.17829 140.410114,163.270694" id="Fill-20" fill="#231F20"></path>
                    </g>
                </g>
            </g>
        </g>
    </g>
</svg>