<?xml version="1.0" encoding="UTF-8"?>
<svg width="402px" height="239px" viewBox="0 0 402 239" version="1.1" xmlns="http://www.w3.org/2000/svg" xmlns:xlink="http://www.w3.org/1999/xlink">
    <title>Chalkboard</title>
    <defs>
        <polygon id="path-1" points="0.728346007 0.757173212 18.4652281 0.757173212 18.4652281 75 0.728346007 75"></polygon>
    </defs>
    <g id="Desktop" stroke="none" stroke-width="1" fill="none" fill-rule="evenodd">
        <g id="About" transform="translate(-843.000000, -4415.000000)">
            <g id="LARGE-CTA" transform="translate(194.000000, 4415.000000)">
                <g id="Chalkboard" transform="translate(649.000000, 0.000000)">
                    <path d="M170.616103,156.416067 C171.451551,154.350899 170.901656,151.972777 169.178544,150.253161 C168.73308,149.80818 168.287616,149.364829 167.843784,148.918218 C167.008336,147.203492 166.094564,145.539296 165.105732,143.925628 C165.099205,143.276901 164.945822,142.577645 164.603158,141.824601 C153.708061,117.873862 143.04467,93.7976155 131.885232,69.9674943 C123.997424,53.1250427 114.061787,35.7626315 95.8369349,28.670644 C92.204692,27.2574624 88.4957575,28.0284369 86.6274206,31.4529981 C85.5896369,32.0772756 84.7117633,32.9786474 84.1553415,34.194603 C66.7381984,72.2380387 49.3210552,110.284734 31.9039121,148.33143 C31.6020411,148.994826 31.4796609,149.606064 31.442131,150.187963 C30.8302302,151.187132 30.2656498,152.217272 29.7614436,153.28001 C29.1887045,154.486186 28.9423124,155.702142 29.0402166,156.848009 C28.6812348,159.944946 30.7257992,163.504795 35.1624876,163.850348 C78.1521872,167.199931 121.285479,166.634332 164.17238,162.158442 C167.602287,161.801479 169.982989,159.571684 170.42519,157.037085 C170.503513,156.831709 170.560624,156.626333 170.616103,156.416067" id="Fill-1" fill="#00AADA"></path>
                    <path d="M89.5101091,83.8121847 C88.9068294,82.3107164 88.0148837,80.9517604 86.7337252,79.9982856 C85.768802,79.2806347 85.0309196,78.8751534 83.9135548,78.4611893 C83.1253991,78.1693785 82.2950787,78.0624943 81.4631365,78.0115971 C79.9354767,77.9199821 78.2099671,78.374664 76.9304303,79.2517929 C75.9898329,79.8998843 75.3735795,80.4801127 74.6616446,81.3826902 C74.3340572,81.798351 74.0907993,82.2581226 73.867002,82.7331634 C73.2702092,83.4949253 72.7982888,84.3601782 72.4479974,85.2763283 C71.3290109,88.214795 72.3879937,91.741973 74.7151613,93.6862472 C77.0958457,95.6780254 80.5241609,96.5992653 83.4854209,95.5830173 C85.2028219,94.9960026 86.6380437,94.0662798 87.8202773,92.6343711 C88.7576312,91.5010595 89.5198394,90.1302274 89.79391,88.6423317 C90.0874413,87.039069 90.1279843,85.3458879 89.5101091,83.8121847" id="Fill-3" fill="#FEFEFE"></path>
                    <path d="M122.625926,79.3405622 C120.130677,77.4176294 117.091654,76.6019363 113.965755,77.1850294 C110.958908,77.7458184 107.945626,80.1801525 107.203969,83.189614 C106.788899,84.8767605 107.020566,86.6865796 107.778311,88.2303425 C107.799225,88.3115932 107.810487,88.3976233 107.83301,88.4772808 C108.458833,90.8478889 110.252645,93.1133491 112.517835,94.1409312 C115.325191,95.418638 118.750327,95.2959654 121.372671,93.6056326 C123.975709,91.9296382 125.77113,89.4331712 125.9851,86.3058166 C126.165286,83.6771181 124.691625,80.9321196 122.625926,79.3405622" id="Fill-5" fill="#FEFEFE"></path>
                    <path d="M81.8983775,88.7300374 C81.8086927,88.4142227 81.6490538,88.1478091 81.4158733,87.9255038 C81.2203605,87.6626189 80.9674494,87.4579569 80.6625212,87.3150463 C80.3486244,87.1439065 80.0132033,87.0486328 79.661639,87.0345182 C79.3943783,86.9833526 79.1307051,86.9939386 78.8652381,87.0345182 C78.8078399,87.0274608 78.7504416,87.0204035 78.6930433,87.0133462 C78.2141266,87.0133462 77.7603216,87.1209702 77.3352157,87.3362182 C77.1540525,87.4597212 76.9728892,87.5832242 76.7899322,87.7067271 C76.4634796,87.9925483 76.2338866,88.3401209 76.0993594,88.7512093 C75.9953251,89.3493165 75.9397205,89.4992844 76.1029468,90.0991559 C76.2320929,90.5843461 76.4975599,90.86311 76.8329809,91.2142112 C76.8419494,91.2247972 76.8527116,91.2353832 76.8616801,91.2442048 C77.0482244,91.3853511 77.2365625,91.5317903 77.4482186,91.63765 C77.4535996,91.6411786 77.4607744,91.6447073 77.4679492,91.6464716 C77.4715366,91.6482359 77.475124,91.6500003 77.4805051,91.6517646 C77.5899205,91.6976371 78.0186138,91.8546623 78.1262355,91.8934775 C78.1441725,91.8987705 78.1621094,91.9040635 78.1800464,91.9075921 C78.7558227,92.0293308 79.2347394,92.0328594 79.8105157,91.9058278 C79.8284527,91.9022992 79.8428023,91.8970062 79.8607392,91.8917132 C80.0777764,91.8176114 80.3288938,91.745274 80.5459309,91.6341213 C80.551312,91.632357 80.5584868,91.6288283 80.5656616,91.6252997 C80.569249,91.6235353 80.5728364,91.6200067 80.5764238,91.6182424 C80.651759,91.5688412 81.0499594,91.298899 81.123501,91.2459691 C81.1378505,91.2353832 81.1504064,91.2247972 81.1629623,91.2124469 C81.494796,90.8719316 81.7710251,90.5631742 81.8983775,90.0903343 C82.0400794,89.5698575 82.0275236,89.2522785 81.8983775,88.7300374" id="Fill-7" fill="#231F20"></path>
                    <path d="M116.500328,84 C113.170055,84 113.163062,88 116.500328,88 C119.830601,88 119.835846,84 116.500328,84" id="Fill-9" fill="#231F20"></path>
                    <path d="M130.298407,102.643122 C128.479661,114.346182 120.342911,124.438072 109.61118,128.635112 C98.7100004,132.897132 86.6662546,129.649799 78.2374077,121.607278 C73.4605769,117.048682 70.1248644,111.170494 68.7273186,104.607516 C68.1334424,101.823374 63.43246,102.861388 64.0569983,105.795484 C66.8682278,118.986419 77.1948966,129.603147 89.5743117,133.520273 C102.165134,137.505712 115.911432,133.190375 125.026142,123.581669 C130.15478,118.18 133.801955,111.333777 134.968728,103.831089 C135.425432,100.883664 130.735746,99.8373197 130.298407,102.643122" id="Fill-11" fill="#231F20"></path>
                    <path d="M50.934,237.04 C50.908,237.06 50.892,237.084 50.866,237.104 C50.892,237.09 50.976,237.026 51.134,236.896 C51.122,236.902 51.108,236.908 51.096,236.916 C51.042,236.956 50.986,236.998 50.934,237.04" id="Fill-13" fill="#231F20"></path>
                    <g id="Group-17" transform="translate(45.000000, 164.000000)">
                        <mask id="mask-2" fill="white">
                            <use xlink:href="#path-1"></use>
                        </mask>
                        <g id="Clip-16"></g>
                        <path d="M13.7115083,2.88978261 L10.185425,67.7729348 C6.75909167,67.0473913 2.87359167,68.6778261 1.027425,71.73 C0.400425,72.7702174 0.794675,74.1886957 1.87925833,74.7218478 C2.95750833,75.2468478 4.45534167,75.0528261 5.12984167,73.9359783 C5.240675,73.7533696 5.37050833,73.5854348 5.49875833,73.4158696 C5.677675,73.2218478 5.858175,73.031087 6.05925833,72.8598913 C6.024425,72.8794565 6.114675,72.7865217 6.21759167,72.7196739 C6.223925,72.7147826 6.233425,72.7098913 6.24134167,72.705 C6.280925,72.6772826 6.32050833,72.6463043 6.356925,72.6153261 C6.314175,72.6528261 6.30309167,72.6609783 6.271425,72.6903261 C6.413925,72.5990217 6.55800833,72.5109783 6.70684167,72.431087 C6.85250833,72.3528261 7.002925,72.2859783 7.15175833,72.2191304 C7.19609167,72.2044565 7.23884167,72.1897826 7.283175,72.1751087 C7.54284167,72.0952174 7.80884167,72.0544565 8.07484167,72.0071739 C8.36300833,71.9859783 8.651175,71.9876087 8.936175,72.0055435 C9.263925,72.0658696 9.59009167,72.1245652 9.905175,72.2370652 C10.3817583,72.4098913 11.0562583,72.303913 11.5470917,72.0952174 C12.9055917,72.4848913 14.7153417,71.8147826 14.8103417,70.0751087 L18.4615083,2.88978261 C18.616675,0.0495652174 13.866675,0.0430434783 13.7115083,2.88978261" id="Fill-15" fill="#231F20" mask="url(#mask-2)"></path>
                    </g>
                    <path d="M150.309869,232.280413 C147.21776,229.8486 143.294647,228.600932 139.408574,228.819192 C140.580999,207.590912 141.753423,186.361004 142.924238,165.131095 C143.080454,162.293708 138.249033,162.285564 138.092817,165.131095 C136.893014,186.861048 135.694822,208.589373 134.49663,230.319326 C134.074686,230.816113 133.857272,231.454607 134.103674,232.145222 C134.515955,233.306563 135.876806,234.041157 137.074998,233.669788 C137.564582,233.518309 138.060608,233.389633 138.564686,233.295162 C138.613,233.285389 138.788542,233.252813 138.930263,233.226752 C139.160561,233.192547 139.403743,233.181145 139.635651,233.169743 C140.146171,233.142054 140.659912,233.145311 141.170432,233.177887 C141.294438,233.186032 142.143158,233.21535 141.484474,233.195804 C141.701888,233.200691 141.932186,233.262586 142.147989,233.301677 C142.619858,233.389633 143.088506,233.500392 143.549101,233.638841 C143.724643,233.690963 143.900185,233.751229 144.074116,233.811495 C144.061232,233.813123 144.515385,233.984148 144.592688,234.016725 C145.059726,234.225212 145.51549,234.463019 145.95837,234.723628 C146.127469,234.824614 146.291738,234.933745 146.456006,235.041246 C146.494657,235.07708 146.839299,235.324659 146.894055,235.368637 C147.853897,236.122776 149.377405,236.293801 150.309869,235.368637 C151.137653,234.549345 151.318026,233.073644 150.309869,232.280413" id="Fill-18" fill="#231F20"></path>
                    <path d="M203.301561,50.8547164 C199.393534,47.4641349 193.165218,47.0708598 188.768279,49.7978908 C186.554276,51.1703076 184.860252,53.1577224 184.059025,55.641991 C183.324839,57.9239576 183.377164,60.4810549 184.099904,62.7597846 C184.780129,64.9122779 186.060458,66.77993 187.775738,68.2008993 C174.743532,81.2210561 161.711325,94.2395945 148.680753,107.258133 C146.479831,109.45756 150.14749,112.323775 152.150558,110.325031 C165.799219,96.6898764 179.44788,83.0547215 193.098177,69.4179481 C194.455357,68.0633339 193.582183,66.4594837 192.244624,65.8898012 C192.110541,65.7716568 191.968283,65.6583677 191.809672,65.5677364 C191.734455,65.5224208 191.490817,65.3654344 191.405788,65.3136451 C191.307679,65.2343427 191.104919,65.0741195 191.0575,65.0336591 C190.887443,64.8912385 190.725563,64.7423443 190.568588,64.5869763 C190.481924,64.5028187 190.400166,64.4138058 190.316773,64.3264113 C190.045337,63.9768335 189.783712,63.6256372 189.556425,63.2469279 C189.440329,63.0575732 189.337314,62.8633633 189.232664,62.6691533 C189.231029,62.6642981 189.231029,62.6659165 189.229393,62.6610613 C189.180339,62.5493906 189.131284,62.4361014 189.0855,62.3228123 C188.920349,61.9117347 188.782995,61.4877097 188.67344,61.0588294 C188.61948,60.8597642 188.581871,60.6590807 188.540992,60.4567787 C188.555709,60.5069496 188.482126,60.0570299 188.473951,59.9502144 C188.436342,59.5100053 188.426531,59.0649409 188.447788,58.6247317 C188.459234,58.4030087 188.482126,58.1845226 188.501748,57.9660364 L188.501748,57.9611812 C188.523005,57.8430368 188.545898,57.7281293 188.570425,57.6132217 C188.665264,57.1827231 188.789536,56.7619349 188.948146,56.3508572 C188.98085,56.2602259 189.09204,56.0223188 189.106757,55.9770031 C189.204866,55.7941221 189.30134,55.6096227 189.414166,55.4332153 C189.531898,55.2454791 189.657805,55.0609797 189.791888,54.8813355 C189.845848,54.8085068 189.988107,54.649902 190.043702,54.5851654 C190.356017,54.2679558 190.679778,53.9717857 191.031337,53.6934181 C191.055865,53.6739971 191.131082,53.6205894 191.189948,53.5785106 C191.21284,53.5623264 191.235732,53.5477607 191.245543,53.5429054 C191.440127,53.4344716 191.629805,53.3163272 191.827659,53.2111302 C192.027148,53.1075515 192.229908,53.0088282 192.434303,52.9181969 C192.524236,52.8793549 192.61417,52.8437497 192.702468,52.8065262 C192.720455,52.8016709 192.726996,52.7984341 192.751523,52.7919604 C193.186475,52.6608687 193.619792,52.5378691 194.06619,52.452093 C194.211719,52.42458 195.0015,52.3646986 194.37687,52.3922117 C194.635225,52.3808827 194.891945,52.3533697 195.15357,52.346896 C195.411925,52.3404223 195.67028,52.3436592 195.928635,52.3582249 C196.044731,52.3630802 196.286734,52.3954485 196.394654,52.4083958 C196.850863,52.490935 197.302167,52.5750927 197.74693,52.7142764 C197.828688,52.7401711 197.910446,52.7693026 197.992204,52.7968157 C198.015096,52.8065262 198.026542,52.8129998 198.06088,52.829184 C198.32087,52.9521836 198.582495,53.0687095 198.835945,53.2078933 C198.919338,53.2548274 199.002731,53.3033799 199.086124,53.3519324 C199.113922,53.3697349 199.25618,53.4636031 199.339573,53.5186292 C199.359195,53.5315765 199.378817,53.5477607 199.383723,53.5526159 C199.530887,53.6788524 199.686227,53.7953783 199.833391,53.9232332 C200.788323,54.7502438 202.349899,54.7696648 203.301561,53.9232332 C204.222154,53.1026963 204.243411,51.6720165 203.301561,50.8547164" id="Fill-20" fill="#231F20"></path>
                    <path d="M47.8911453,113.300531 C41.8106297,94.0210807 34.2144382,75.2658546 25.2256386,57.1663148 C25.071804,56.8579474 24.8710093,56.6177455 24.6410671,56.44084 C24.2783412,55.5709195 23.321328,54.9687917 22.370792,55.0012515 C15.7235172,55.2300925 9.07624242,55.4573105 2.42896764,55.6861516 C1.23067694,55.7267262 0,56.5528261 0,57.8625758 C0,59.112275 1.22905763,60.0779517 2.42896764,60.037377 C8.63578962,59.8247658 14.8426116,59.6105317 21.0478143,59.3979205 C29.8552509,77.1404034 37.2474091,95.5612945 43.2064764,114.456097 C44.0420413,117.108057 48.7720509,116.095313 47.8911453,113.300531" id="Fill-22" fill="#231F20"></path>
                    <path d="M398.988202,108.875021 C399.025806,108.708912 399.05033,108.533033 399.04706,108.340868 C398.602352,74.2886011 398.154375,40.2363346 397.708032,6.18406812 C397.691682,4.93662498 396.480181,3.95137288 395.2556,4.00185688 C348.258821,5.90722043 301.260406,7.81258397 254.261992,9.71957604 L214.328219,11.3383208 C213.159226,11.3871763 212.428401,12.0385826 212.137379,12.8251558 C211.383665,13.2876543 210.858844,14.0872556 211.033784,15.1376483 C215.593674,42.5276564 218.461385,70.1928838 219.625472,97.9330228 C219.955733,105.819925 220.145388,113.710084 220.204247,121.601872 C220.212421,122.658779 220.894197,123.321585 221.746009,123.595176 C221.997792,124.411062 222.731887,125.059211 223.971183,124.995699 C269.056699,122.640865 314.140581,120.286031 359.224463,117.931198 C371.988556,117.263506 384.754284,116.597443 397.520012,115.929752 C398.806722,115.862982 399.866173,115.084552 399.972445,113.74754 C400.111416,111.941516 399.715757,110.332543 398.988202,108.875021" id="Fill-24" fill="#4A7C54"></path>
                    <path d="M398.673829,0.0230928939 C386.549263,-0.113396345 374.431222,0.356733256 362.355598,1.39135539 C325.861177,2.76467304 289.365124,4.13967575 252.870703,5.51467845 L211.327098,7.07840702 C208.592872,7.18119521 208.260066,10.7181201 210.371098,11.457858 C210.17533,12.7064818 210.933931,14.0696892 212.666478,13.9972319 L329.48778,9.07687909 C330.027773,9.63294636 330.823896,9.97838209 331.775003,9.81661706 C334.147059,9.4088344 336.524009,9.03980794 338.90259,8.68089179 L357.327623,7.90408266 C370.873139,7.33284992 384.418654,6.76330223 397.962538,6.19206949 C399.476477,6.1280375 400.251392,5.01421791 400.285652,3.90882358 C401.615243,2.67368022 401.094826,0.0517387836 398.673829,0.0230928939" id="Fill-26" fill="#9C6943"></path>
                    <path d="M401.233809,114.058581 C401.75064,112.692601 401.03918,110.911554 399.065081,111.003414 C352.666405,113.158701 306.287355,115.839627 259.944288,119.056398 C246.936827,119.95968 233.931001,120.903788 220.928446,121.890423 C219.031218,122.035016 218.291953,123.817764 218.727007,125.113998 C217.384228,126.422141 217.892881,129.142192 220.324931,128.994197 C266.92805,126.183987 313.532804,123.372077 360.135923,120.558465 C373.316752,119.764054 386.494309,118.969643 399.675138,118.17353 C402.107188,118.027236 402.638739,115.1762 401.233809,114.058581" id="Fill-28" fill="#9C6943"></path>
                    <path d="M220.910884,54.6692574 C220.685105,53.9494731 219.988275,53.392629 219.213478,53.1838125 C218.700196,53.0003071 218.115444,52.9591765 217.566426,53.0382737 L198.31833,55.8145845 C197.363234,55.8035109 196.406515,55.7702901 195.448171,55.716504 C194.75459,55.6785373 194.061008,55.996508 193.589958,56.4948202 C192.982465,56.583409 192.376597,56.6719978 191.770729,56.7574228 C190.684064,56.9156171 189.849168,58.0577803 190.022969,59.0844616 C190.219511,60.2345345 191.27044,60.8720577 192.417205,60.9242619 C201.48249,61.3308213 210.60625,60.0984874 219.21023,57.2778822 C220.343999,56.9061255 221.302344,55.9189927 220.910884,54.6692574" id="Fill-30" fill="#ECECED"></path>
                    <path d="M242.176799,35.6082262 C241.57076,33.9186595 238.704101,33.2777332 237.782217,35.0863523 C235.943259,38.6872821 234.107507,42.2882118 232.268548,45.8891415 C230.897746,48.5784228 235.157653,50.5729595 236.422638,48.0956895 C237.389414,46.200635 238.35619,44.3055805 239.324569,42.410526 C241.080158,48.7398775 242.05495,55.2551467 242.189625,61.8601129 C242.248946,64.7108489 247.058777,64.7157415 246.999456,61.8601129 C246.816682,52.9099759 245.195769,44.016919 242.176799,35.6082262" id="Fill-32" fill="#ECECED"></path>
                    <path d="M272.908523,46.3811444 C272.436135,45.0853047 271.191481,44.7342151 269.932316,44.8874178 C268.816642,45.0246619 267.704192,45.1826522 266.594967,45.3597929 C266.13064,43.7735063 265.68566,42.1808363 265.284211,40.5769953 C264.985945,39.39127 263.423679,38.7625005 262.309616,39.0832687 C261.106881,39.4295707 260.305594,40.4589015 260.619982,41.7148447 C261.002085,43.2404885 261.424493,44.7549613 261.861412,46.2662424 C260.162104,46.6316947 258.469246,47.032256 256.79251,47.4966518 C255.686509,47.8030572 254.667569,48.9281397 255.102876,50.1282277 C255.525284,51.2884192 256.868285,51.9570853 258.07747,51.6219543 C259.752594,51.1591544 261.44384,50.7585931 263.139923,50.3931408 C263.694536,52.0767749 264.27172,53.7540256 264.894047,55.4153177 C265.324517,56.5627423 266.657844,57.2569421 267.868641,56.9106401 C268.956908,56.5962554 270.012929,55.491919 269.558275,54.2774683 C268.963357,52.6927776 268.411968,51.0937241 267.879927,49.4866913 C268.989152,49.3079548 270.103215,49.1499645 271.218889,49.0127204 C272.368421,48.8722846 273.301911,47.4695221 272.908523,46.3811444" id="Fill-34" fill="#ECECED"></path>
                    <path d="M303.920939,47.1059 C303.486626,44.4256425 301.310102,42.2046741 298.785137,41.1849237 C297.364947,40.6132211 295.891913,40.3851824 294.404016,40.3594879 C296.266777,37.9827466 298.129537,35.6060054 299.990647,33.2292642 C301.351387,31.4932796 298.930458,29.619187 297.194854,30.0672348 C293.401626,31.0452317 289.61005,32.0232286 285.816822,33.0028314 C284.636083,33.3079536 283.706354,34.4336939 284.086172,35.6509708 C284.462687,36.8473709 285.937373,37.462433 287.134626,37.1557049 C288.721606,36.7445929 290.311888,36.3350869 291.898867,35.9255808 L287.088387,42.0649603 C285.702877,43.8330631 288.165089,45.615619 289.885831,45.2269897 C291.923638,44.7660946 294.225667,44.2538105 296.281639,44.9218675 C297.518526,45.3217381 298.811559,46.3527299 299.046055,47.6792085 C299.282203,49.0313815 298.241831,50.2679293 297.084212,50.8862032 C295.272644,51.8545647 293.064744,51.7437572 291.06657,51.6570382 C289.842895,51.6056492 288.589495,52.5820402 288.589495,53.8105585 C288.589495,55.1225839 289.842895,55.9094779 291.06657,55.9624728 C294.20585,56.0989749 297.568067,55.9383842 300.266428,54.1911583 C302.695613,52.620582 304.393235,50.0190139 303.920939,47.1059" id="Fill-36" fill="#ECECED"></path>
                    <path d="M327.893552,38.5785874 C327.424583,37.3586329 326.024573,36.7929737 324.71077,37.0685513 C323.990076,37.2216499 323.264208,37.3505751 322.534893,37.4553268 C322.365926,37.4778887 322.195235,37.4988391 322.027993,37.521401 L322.026268,37.521401 C321.662473,37.5552438 321.298677,37.5890867 320.933157,37.6132602 C319.486595,37.709954 318.034861,37.7018962 316.588298,37.6035908 C315.358979,37.5181778 313.938279,38.5544139 314.002073,39.7614758 C314.074487,41.1087439 315.258979,41.8323364 316.588298,41.922584 C319.764183,42.1417568 322.983172,41.8903527 326.086642,41.2344459 C327.286651,40.9830418 328.345279,39.7518064 327.893552,38.5785874" id="Fill-38" fill="#ECECED"></path>
                    <path d="M326.476533,46.0065927 L318.523283,46.6226361 C317.862614,46.6747879 317.247334,46.8198352 316.739644,47.2631257 C316.321051,47.6281884 315.973065,48.2458616 316.001644,48.8081234 C316.063844,50.0173938 317.230523,51.0930251 318.523283,50.9936107 L326.476533,50.3759375 C327.137203,50.3237857 327.752483,50.1787385 328.260173,49.735448 C328.678765,49.3703852 329.028432,48.7543418 328.998172,48.1904502 C328.935972,46.9811799 327.770975,45.9055485 326.476533,46.0065927" id="Fill-40" fill="#ECECED"></path>
                    <path d="M360.586024,33.0432542 C360.485296,31.7489675 359.427651,30.8322499 358.149054,30.8322499 C357.029672,30.8322499 355.609731,31.7407237 355.712084,33.0432542 L356.254716,39.8741198 C353.346598,39.9417195 350.43848,40.0093192 347.528738,40.0769189 L349.981954,30.7695965 C350.737415,27.8990831 345.999945,26.8603562 345.280227,29.5940215 C344.212834,33.6533001 343.143816,37.7125787 342.073174,41.7718573 C341.67676,43.2738893 342.952108,44.6028002 344.424038,44.568176 C348.48403,44.4758447 352.545647,44.3802159 356.60564,44.2862358 C356.777852,46.454372 356.950065,48.6208595 357.120653,50.7889957 C357.22463,52.0832823 358.279026,53 359.557623,53 C360.681878,53 362.09857,52.0915262 361.994593,50.7889957 C361.52507,44.8731989 361.055547,38.9590509 360.586024,33.0432542" id="Fill-42" fill="#ECECED"></path>
                    <path d="M350.5,72 C347.16929,72 347.164045,76 350.5,76 C353.83071,76 353.835955,72 350.5,72" id="Fill-44" fill="#ECECED"></path>
                    <path d="M359.499344,74 C356.170383,74 356.163389,78 359.499344,78 C362.830054,78 362.837048,74 359.499344,74" id="Fill-46" fill="#ECECED"></path>
                    <path d="M357.267179,85.4924666 C356.153845,85.2536933 354.622013,85.7412585 354.318522,87.0570166 C354.233864,87.4276997 354.125246,87.7933736 353.986279,88.149029 C353.9735,88.1824239 353.959125,88.2174885 353.944749,88.2508834 L353.938359,88.2642414 C353.844117,88.4312157 353.761057,88.5981901 353.662023,88.761825 C353.564586,88.9237902 353.46076,89.0790763 353.350545,89.2326928 C353.321793,89.2710969 353.294639,89.3061615 353.265887,89.3445656 C353.024691,89.5933574 352.777106,89.8254518 352.515145,90.0491975 C352.475212,90.0725739 352.435279,90.1009596 352.393749,90.124336 C352.235614,90.2195114 352.07109,90.2963196 351.90976,90.384816 C351.904968,90.3881555 351.904968,90.3881555 351.900176,90.3898252 C351.882606,90.3948345 351.877814,90.3965042 351.857049,90.4015134 C351.690927,90.4549452 351.520014,90.4966888 351.3491,90.5317535 C351.339516,90.5334232 351.337919,90.5350929 351.329932,90.5367627 C351.155824,90.5367627 350.981716,90.5467812 350.807608,90.5401022 C350.772467,90.5384324 350.759688,90.5384324 350.734131,90.5384324 C350.603151,90.5133863 350.47217,90.4883401 350.344385,90.4549452 C350.253337,90.4298991 350.160693,90.398174 350.068048,90.3664488 C350.005752,90.3363934 349.943457,90.306338 349.882759,90.2729432 C349.777335,90.2178416 349.668717,90.1393637 349.561697,90.0742437 C349.508985,90.0308303 349.457871,89.9840775 349.408354,89.9389944 C349.365226,89.8989206 349.322099,89.8538375 349.280568,89.8120939 C349.211883,89.6968815 349.10646,89.5733205 349.045762,89.4714661 C349.023399,89.433062 349.002634,89.3946579 348.981869,89.3545841 C348.932352,89.2143256 348.881238,89.0740671 348.841305,88.9271297 C348.825331,88.8653491 348.810955,88.8018989 348.79658,88.7384486 C348.79019,88.6098783 348.769425,88.4762988 348.769425,88.3527378 C348.76623,88.2007911 348.779009,88.0521839 348.786996,87.9002372 C348.794982,87.8618331 348.802969,87.823429 348.812553,87.7833551 C348.850888,87.62139 348.906795,87.4694433 348.956312,87.3124874 C348.96909,87.289111 348.978674,87.2657346 348.989856,87.2456976 C349.047359,87.1438433 349.138406,87.0369797 349.207091,86.9267766 C349.247024,86.8883725 349.286957,86.8482986 349.330085,86.8098945 C350.213404,85.99172 350.264519,84.4522162 349.330085,83.64573 C348.3669,82.8125278 346.898961,82.7574263 345.940568,83.64573 C343.265053,86.1236298 343.402423,90.7204345 346.066756,93.148242 C348.913184,95.7413542 353.235538,95.5125993 356.078771,93.076443 C357.484414,91.8692183 358.514687,90.0876016 358.939575,88.2458742 C359.223898,87.0136032 358.477949,85.7529467 357.267179,85.4924666" id="Fill-48" fill="#ECECED"></path>
                </g>
            </g>
        </g>
    </g>
</svg>