<?xml version="1.0" encoding="UTF-8"?>
<svg width="286px" height="212px" viewBox="0 0 286 212" version="1.1" xmlns="http://www.w3.org/2000/svg" xmlns:xlink="http://www.w3.org/1999/xlink">
    <title>Group 47</title>
    <defs>
        <polygon id="path-1" points="0.371382904 0.99129187 86.9937391 0.99129187 86.9937391 125.398764 0.371382904 125.398764"></polygon>
        <polygon id="path-3" points="0.255189495 0.596315986 14.9051338 0.596315986 14.9051338 59 0.255189495 59"></polygon>
    </defs>
    <g id="Desktop" stroke="none" stroke-width="1" fill="none" fill-rule="evenodd">
        <g id="FAQ" transform="translate(-909.000000, -3607.000000)">
            <g id="LARGE-CTA" transform="translate(192.000000, 3607.000000)">
                <g id="Group-47" transform="translate(717.000000, 0.000000)">
                    <g id="Group-3" transform="translate(199.000000, 0.000000)">
                        <mask id="mask-2" fill="white">
                            <use xlink:href="#path-1"></use>
                        </mask>
                        <g id="Clip-2"></g>
                        <path d="M86.8855884,20.7959143 C86.8422261,14.7042 88.0359652,7.45405714 80.6159072,5.59234286 C74.138342,3.96591429 67.0639072,3.61105714 60.4371246,2.91677143 C46.3711536,1.44077143 28.9139942,0.831342857 14.7753275,1.02677143 C12.4745739,1.05891429 10.2541681,2.33691429 9.84350145,4.68848571 C7.58993623,4.90448571 5.47411014,6.21077143 5.36442899,8.6292 C4.18726957,34.3614857 3.01138551,60.0912 1.83550145,85.8222 C1.54089275,92.2559143 1.24755942,98.6883429 0.952950725,105.120771 C0.734863768,109.898486 -1.05829565,117.166629 2.99990725,120.810343 C6.84767536,124.265057 12.8928928,123.593914 17.656371,123.728914 C23.9490087,123.907629 30.2416464,124.086343 36.5342841,124.266343 L55.4109217,124.802486 C61.5836754,124.977343 71.2789797,125.639486 77.4453565,125.306486 C83.2495304,124.992771 86.2134725,121.392771 86.5182841,115.767771 C86.8588058,109.479343 86.6968348,103.118914 86.7618783,96.8202 C87.0220522,71.4800571 87.0641391,46.1373429 86.8855884,20.7959143" id="Fill-1" fill="#F7F1EE" mask="url(#mask-2)"></path>
                    </g>
                    <path d="M192.201747,58.0104765 C180.757055,58.6305893 169.539142,60.4367174 158.486854,63.5954582 C152.089904,65.4227416 155.388391,73.4366086 161.203105,71.7746006 C171.373758,68.8684003 181.662896,67.0635944 192.201747,66.4937253 C198.552831,66.1486305 198.645836,57.6614151 192.201747,58.0104765" id="Fill-4" fill="#FFDF40"></path>
                    <path d="M203.739049,62.4043095 C201.879168,61.1307677 199.881366,60.0191791 197.78661,59.0879476 C197.417911,58.9247674 196.893539,58.991021 196.606773,59.2670778 C196.273579,59.3431467 195.986813,59.5284115 196.000469,59.8658142 C196.038704,60.9577721 196.078305,62.04973 196.117906,63.1429147 C196.137024,63.6398169 196.126099,64.1465344 196.176625,64.6422097 C196.22715,65.1342042 196.412865,65.591845 196.92085,65.8384557 C197.529886,66.1353701 198.178523,65.9820052 198.756152,65.7084023 C199.276427,65.4630185 199.796702,65.2151808 200.318343,64.9685701 C201.397128,64.4569449 202.475914,63.9453197 203.5547,63.4336945 C203.995773,63.2251183 204.19924,62.7184008 203.739049,62.4043095" id="Fill-6" fill="#000000"></path>
                    <path d="M157.813346,70.8529661 C157.707469,70.2319481 157.612546,69.6084608 157.528575,68.9837388 C157.331427,67.5441621 157.190258,66.0971777 157.097769,64.647724 C157.053958,63.9797901 156.092554,63.8316347 155.670266,64.1884422 C155.641059,64.1785652 155.614286,64.1625151 155.585079,64.1563419 C154.555524,63.9328742 153.519885,64.5390767 153.152361,65.5354218 C152.760498,66.60461 153.219295,67.8491153 153.468773,68.8985495 C153.60629,69.4775902 153.743807,70.0553962 153.882542,70.6344369 C154.009106,71.1677964 154.080907,71.7641219 154.279273,72.2727888 C154.511714,72.8703489 155.191998,73.0246774 155.75302,72.8654104 C155.770058,72.8604719 155.787095,72.8530641 155.804133,72.846891 C156.401664,73.0913474 157.120891,73.0580124 157.622282,72.6382388 C157.846204,72.4505752 158.025098,72.1863648 157.997108,71.8863501 C157.965466,71.5431234 157.87176,71.1937236 157.813346,70.8529661" id="Fill-8" fill="#F7AEAB"></path>
                    <path d="M143.086777,106.363372 C145.457075,101.42504 145.98551,95.5731992 143.650951,89.4968306 C140.67691,81.7499739 134.605015,76.8077923 127.592404,74.6548898 C127.039718,68.9570112 124.456259,63.4438871 119.489737,59.2766478 C113.602923,54.3357493 106.243128,52.7499402 99.2496631,53.8058632 C95.3400113,48.509569 89.3051326,44.5950841 82.1457345,43.4378027 C63.1144229,40.3624109 48.7573342,53.9559762 40.3700271,69.5831235 C39.107655,71.9374597 38.7106907,74.1865885 38.9340629,76.2458309 C31.0764671,79.4585055 24.2821229,85.3231763 20.3673655,93.5883719 C14.410348,106.163222 16.8125565,118.791958 24.0013121,128.157982 C23.747306,128.413303 23.4856414,128.650661 23.2392938,128.917528 C15.301284,137.509893 14.8711329,150.003913 22.6789487,158.770768 C29.6941122,166.645927 40.8384705,169.872715 51.0752994,167.978982 C53.6498236,167.501699 56.0864952,166.716493 58.4146717,165.710608 C61.4282819,168.950225 65.4617456,171.382826 70.3389181,172.369466 C83.561276,175.043273 93.9614857,168.934829 100.107412,159.313485 C108.547052,162.948272 118.338413,162.666008 127.109921,156.29198 C133.45752,151.679533 136.2401,145.426108 136.27201,139.247098 C141.274271,136.511706 145.288589,132.157146 147.078119,126.264249 C149.2978,118.95875 147.330849,111.871364 143.086777,106.363372" id="Fill-10" fill="#614B9E"></path>
                    <path d="M69.6191999,90.5199037 C69.1487141,89.3520108 68.4562297,88.2962883 67.458497,87.5533236 C66.7092515,86.9951104 66.1353345,86.681033 65.2649989,86.357718 C64.6532412,86.1307376 64.0074269,86.0475995 63.3590899,86.0093296 C62.1708925,85.9367486 60.830071,86.2904157 59.8348611,86.973996 C59.1020133,87.4767838 58.6239593,87.9281051 58.0689627,88.6301605 C57.8141687,88.9534755 57.6249653,89.3124212 57.4521596,89.6806044 C56.9879805,90.2731286 56.6209259,90.9461517 56.348473,91.6587643 C55.4781374,93.9444034 56.3018029,96.6879622 58.1105874,98.2002846 C59.9622581,99.7495573 62.6287648,100.466129 64.9332622,99.6756567 C66.2677769,99.2203764 67.384077,98.4972065 68.3048669,97.3820997 C69.0339307,96.5005714 69.6255067,95.4342917 69.8386759,94.276956 C70.0682427,93.0298839 70.0997766,91.7128701 69.6191999,90.5199037" id="Fill-12" fill="#FFFFFF"></path>
                    <path d="M96.3362491,86.8199687 C94.3663098,85.3243363 91.9670736,84.6911398 89.4992514,85.143423 C87.1254174,85.5795975 84.7465029,87.4729914 84.1609826,89.8137119 C83.8332944,91.1259528 84.0161901,92.5336069 84.6156816,93.7343259 C84.630923,93.7987608 84.6410838,93.8644348 84.6575952,93.9263914 C85.1529378,95.7714591 86.5678394,97.5322658 88.3548831,98.3327452 C90.5724937,99.32529 93.275286,99.2298768 95.3468341,97.9163968 C97.4018707,96.6128298 98.8193126,94.6711098 98.9882371,92.2374543 C99.1304893,90.1928863 97.9670693,88.0591008 96.3362491,86.8199687" id="Fill-14" fill="#FFFFFF"></path>
                    <path d="M63.9316305,93.3838956 C63.8730368,93.1312308 63.7654157,92.9180891 63.609963,92.7402357 C63.4796219,92.529917 63.3122113,92.3661789 63.1077312,92.2532561 C62.898468,92.1149257 62.6760511,92.0387028 62.4404805,92.0288221 C62.2635036,91.986476 62.0865267,91.9949453 61.9095498,92.0274106 L61.7959498,92.0104721 C61.4766739,92.0104721 61.174139,92.0979873 60.8907368,92.2701946 C60.7687663,92.3675905 60.6479915,92.4678094 60.5272167,92.5652054 C60.309583,92.793874 60.1553261,93.0719464 60.0668376,93.400834 C59.996286,93.8807559 59.9604123,94.0007363 60.0680334,94.4792467 C60.1541303,94.8674188 60.332303,95.0904413 60.5547199,95.3727482 C60.5618946,95.3798059 60.5678736,95.3882751 60.5750483,95.3953328 C60.6982147,95.5082556 60.8249684,95.625413 60.9648758,95.7101051 C60.969659,95.7129282 60.9732463,95.7157512 60.9780295,95.7185743 C60.9816169,95.7199858 60.9840084,95.7199858 60.9864,95.7213974 C61.0593432,95.7580973 61.345137,95.8837239 61.4180802,95.9147776 C61.4300381,95.9190122 61.4408002,95.9232469 61.4527581,95.9260699 C61.8366066,96.0234658 62.1558825,96.0262889 62.5397311,95.9246584 C62.551689,95.9218353 62.5624511,95.9176007 62.5732132,95.9133661 C62.7190995,95.8554932 62.8853143,95.7962087 63.0300049,95.707282 C63.0347881,95.7058705 63.0383754,95.7030474 63.0431586,95.7002243 C63.0455502,95.6988128 63.0479417,95.6959897 63.0503333,95.6945782 C63.1005565,95.6550552 63.3672176,95.4390904 63.416245,95.3967443 C63.4258113,95.3882751 63.4341819,95.3798059 63.4413566,95.3699252 C63.6637735,95.0974989 63.8479252,94.8504803 63.9328262,94.472189 C64.0272936,94.0557862 64.0177273,93.8017099 63.9316305,93.3838956" id="Fill-16" fill="#231F20"></path>
                    <path d="M91,91 C88.3361308,91 88.3305374,94 91,94 C93.6638692,94 93.6694626,91 91,91" id="Fill-18" fill="#231F20"></path>
                    <path d="M102.292905,105.256148 C100.858374,114.205669 94.4405353,121.923101 85.9746397,125.132646 C77.376365,128.391882 67.8781672,125.909868 61.229938,119.758347 C57.4622262,116.272315 54.8299194,111.777168 53.7276092,106.759627 C53.2591909,104.630548 49.5513043,105.423059 50.04518,107.66681 C52.2612565,117.755407 60.4076603,125.872918 70.1718891,128.868408 C80.1028645,131.916138 90.943946,128.61613 98.1344203,121.26947 C102.179619,117.137452 105.055045,111.902033 105.975334,106.164606 C106.335558,103.911936 102.636581,103.110505 102.292905,105.256148" id="Fill-20" fill="#231F20"></path>
                    <path d="M40.4665,210.52 C40.4545,210.53 40.4455,210.542 40.4335,210.552 C40.4455,210.546 40.4875,210.513 40.5665,210.448 C40.5605,210.451 40.5535,210.454 40.5485,210.458 C40.5205,210.478 40.4935,210.499 40.4665,210.52" id="Fill-22" fill="#231F20"></path>
                    <g id="Group-26" transform="translate(35.000000, 153.000000)">
                        <mask id="mask-4" fill="white">
                            <use xlink:href="#path-3"></use>
                        </mask>
                        <g id="Clip-25"></g>
                        <path d="M10.9789846,2.27445 L8.06544615,53.3145804 C5.23690769,52.7438196 2.02783077,54.0264283 0.503061538,56.4287543 C-0.0160923077,57.2457761 0.309523077,58.3616457 1.2066,58.7810587 C2.09583077,59.1953413 3.33421538,59.0414283 3.89129231,58.1628413 C3.98152308,58.0191891 4.09006154,57.8870804 4.19467692,57.7549717 C4.34244615,57.6010587 4.49283077,57.4509935 4.65890769,57.3163196 C4.62883077,57.3317109 4.70467692,57.2586022 4.78836923,57.2060152 C4.79490769,57.2021674 4.80275385,57.1996022 4.80929231,57.1944717 C4.84198462,57.1726674 4.87467692,57.1495804 4.90475385,57.1239283 C4.86944615,57.1534283 4.86029231,57.1598413 4.83283077,57.1829283 C4.95052308,57.1111022 5.07083077,57.0418413 5.19375385,56.9789935 C5.31406154,56.9187109 5.43698462,56.8661239 5.55990769,56.8122543 C5.59652308,56.8019935 5.63313846,56.7891674 5.66975385,56.7789065 C5.88421538,56.7147761 6.10390769,56.6827109 6.3236,56.6455152 C6.5616,56.6301239 6.79829231,56.6301239 7.03498462,56.6442326 C7.30436923,56.6916891 7.57375385,56.737863 7.83529231,56.826363 C8.22890769,56.9623196 8.78598462,56.8802326 9.19006154,56.7147761 C10.3133692,57.0213196 11.8080615,56.4941674 11.8852154,55.1256239 L14.9020615,2.27445 C15.0302154,0.0401456522 11.1071385,0.0337326087 10.9789846,2.27445" id="Fill-24" fill="#231F20" mask="url(#mask-4)"></path>
                    </g>
                    <path d="M118.432087,207.044687 C115.885459,205.112545 112.654424,204.121239 109.453895,204.294653 C110.419492,187.428207 111.385089,170.560467 112.349359,153.692728 C112.478017,151.438346 108.49891,151.43317 108.370252,153.692728 C107.382107,170.957766 106.395288,188.221511 105.407143,205.48655 C105.060961,205.881261 104.883228,206.388561 105.084836,206.937274 C105.424386,207.859991 106.545168,208.443646 107.531987,208.149877 C107.935203,208.028229 108.343724,207.925992 108.758878,207.850932 C108.799995,207.843168 108.943243,207.818579 109.058637,207.796579 C109.249634,207.769402 109.449916,207.760343 109.640913,207.751284 C110.061372,207.729284 110.484484,207.731872 110.904943,207.757755 C111.007073,207.764226 111.70607,207.788814 111.163585,207.77199 C111.342645,207.775873 111.532316,207.82505 111.710049,207.856109 C112.098675,207.925992 112.483322,208.015287 112.862664,208.123995 C113.009891,208.165407 113.153139,208.21329 113.296386,208.261173 C113.285775,208.262467 113.659812,208.398351 113.723477,208.424234 C114.109451,208.591177 114.484813,208.778826 114.848238,208.987182 C114.987507,209.066124 115.122797,209.152831 115.259413,209.238244 C115.289919,209.266715 115.573762,209.463423 115.618859,209.498365 C116.408048,210.097549 117.662793,210.233433 118.432087,209.498365 C119.112515,208.84871 119.262394,207.67493 118.432087,207.044687" id="Fill-27" fill="#231F20"></path>
                    <path d="M159.450751,64.2656222 C156.380183,61.5747151 151.486545,61.2625955 148.031835,63.4268812 C146.292275,64.5160884 144.961267,66.0933839 144.333021,68.0650031 C143.754881,69.8760671 143.795993,71.9067707 144.36257,73.7139813 C144.897029,75.4222899 145.904278,76.9045366 147.251988,78.0335616 C137.013763,88.3656172 126.774253,98.6976728 116.534743,109.029728 C114.805461,110.775286 117.688455,113.050034 119.259712,111.465032 L151.43387,78.9981779 C152.498934,77.9230995 151.814158,76.650217 150.763228,76.1980932 C150.657877,76.1043289 150.546104,76.0144179 150.421482,75.9424891 C150.362383,75.9065247 150.17224,75.7819338 150.104147,75.7408316 C150.028347,75.677894 149.867752,75.5507342 149.82921,75.5199075 C149.69688,75.4068766 149.569689,75.2874234 149.446352,75.164117 C149.37826,75.0973259 149.314022,75.0266816 149.2485,74.9573217 C149.03523,74.6798821 148.829669,74.4024425 148.649803,74.1005985 C148.55987,73.9503188 148.47893,73.7961857 148.396706,73.6420526 C148.394136,73.6381992 148.395421,73.6394837 148.392852,73.6369148 C148.355594,73.5470038 148.317051,73.4583773 148.281078,73.3684663 C148.151317,73.0409335 148.043398,72.7044095 147.956034,72.3640323 C147.916207,72.2060458 147.885373,72.046775 147.853254,71.8862196 C147.866101,71.9260374 147.807003,71.5702468 147.800579,71.4841891 C147.77103,71.1348208 147.763321,70.7828835 147.780023,70.4322307 C147.787731,70.2562621 147.808287,70.0828623 147.82242,69.9094626 C147.823705,69.9068937 147.82242,69.9081782 147.823705,69.9056093 C147.839122,69.811845 147.857108,69.7206495 147.87638,69.6294541 C147.949611,69.2877924 148.048537,68.9538374 148.171874,68.627589 C148.200138,68.5556602 148.286217,68.3668471 148.29778,68.3308827 C148.374865,68.1857407 148.45195,68.0393143 148.538029,67.8993101 C148.631816,67.7503147 148.730743,67.6038883 148.836093,67.4613152 C148.879774,67.4035152 148.990263,67.2789243 149.033945,67.2275466 C149.279334,66.9745114 149.533716,66.7394585 149.809938,66.5185343 C149.82921,66.503121 149.888308,66.4607344 149.93456,66.4273389 C149.953831,66.4157789 149.971817,66.404219 149.976957,66.4003656 C150.131127,66.3130235 150.280159,66.2192592 150.436899,66.1357705 C150.592355,66.0535661 150.751665,65.9752152 150.913544,65.9032864 C150.982921,65.8724598 151.052298,65.844202 151.122959,65.8159443 C151.137092,65.8108065 151.142231,65.8082376 151.161502,65.8030999 C151.503247,65.69906 151.843708,65.6014424 152.194446,65.5333669 C152.310074,65.5128158 152.929327,65.464007 152.43855,65.4858426 C152.641542,65.4768515 152.843248,65.4550159 153.047525,65.4498782 C153.251801,65.4447404 153.454793,65.4473093 153.657784,65.4588693 C153.747717,65.4627226 153.939146,65.4884114 154.025224,65.498687 C154.382387,65.565478 154.73698,65.6309846 155.085149,65.7414466 C155.150671,65.7619977 155.214909,65.7851177 155.279147,65.8069532 C155.295849,65.8146598 155.306127,65.8197976 155.333107,65.832642 C155.538668,65.9302597 155.742944,66.0227395 155.942081,66.134486 C156.007604,66.1704504 156.073126,66.2089837 156.137364,66.247517 C156.161775,66.2616458 156.273548,66.3361435 156.337786,66.3798145 C156.353203,66.3913745 156.36862,66.4029345 156.373759,66.4067878 C156.489387,66.5069744 156.610155,66.5994542 156.725783,66.7009252 C157.474796,67.3585598 158.703023,67.3739731 159.450751,66.7009252 C160.175354,66.0497128 160.190771,64.9155501 159.450751,64.2656222" id="Fill-29" fill="#231F20"></path>
                    <path d="M37.9137983,113.875569 C33.1000599,98.7062165 27.0851303,83.946812 19.970284,69.7046315 C19.8497803,69.4619832 19.690818,69.27425 19.5074985,69.1337694 C19.2203407,68.4492456 18.4627058,67.9754428 17.7101986,68.0009848 L1.92293144,68.5399195 C0.974285264,68.5718469 0,69.2231661 0,70.2525059 C0,71.2371474 0.97300331,71.9957427 1.92293144,71.9638153 C6.83666225,71.7965156 11.7503931,71.6279389 16.6628419,71.4606392 C23.6366733,85.4218585 29.4875127,99.9181811 34.2051045,114.786139 C34.8678749,116.871638 38.6111814,116.074729 37.9137983,113.875569" id="Fill-31" fill="#231F20"></path>
                    <path d="M272.179136,29.0003397 C253.726217,29.2922402 235.273298,29.5815344 216.820379,29.8721317 C214.400303,29.9099224 214.386121,33.0387305 216.820379,32.9996367 C235.273298,32.7090394 253.726217,32.418442 272.179136,32.1278447 C274.599212,32.090054 274.614684,28.962549 272.179136,29.0003397" id="Fill-33" fill="#A5DDE8"></path>
                    <path d="M264.197459,48.0263695 C247.713312,47.2923408 231.243231,46.2859912 214.794889,45.0085586 C212.383198,44.8204096 212.420281,47.7948967 214.794889,47.9780944 C231.243231,49.2567649 247.713312,50.2631145 264.197459,50.9971431 C266.610428,51.1048337 266.591247,48.1328222 264.197459,48.0263695" id="Fill-35" fill="#FFDF40"></path>
                    <path d="M261.242228,66.7500288 C245.421668,66.8459044 229.60365,66.2666001 213.827583,65.008065 C211.431299,64.8176643 211.376636,68.0598776 213.751309,68.2475776 C229.527376,69.5061127 245.345394,70.0867673 261.165954,69.9895414 C263.548255,69.9760378 263.647411,66.7351749 261.242228,66.7500288" id="Fill-37" fill="#BBECC8"></path>
                    <path d="M249.209543,86.1864195 C237.433536,85.285357 225.619242,84.8961821 213.802395,85.0235697 C211.405587,85.0481123 211.392825,87.8541448 213.802395,87.8272648 C225.619242,87.701046 237.433536,88.0890521 249.209543,88.9912833 C251.61656,89.1759368 251.576996,86.367567 249.209543,86.1864195" id="Fill-39" fill="#F7AEAB"></path>
                    <path d="M271.456893,83.8259553 C269.875996,82.0790475 267.750452,81.1573581 265.424385,81.0178662 C262.4657,80.8405681 259.610511,82.0138644 256.944202,83.1610874 C256.120117,83.5169873 255.698372,84.533844 256.248193,85.3017013 C256.836825,86.125616 258.03867,86.2351236 258.902859,85.8622761 C261.043927,84.9405867 263.588629,83.7307879 265.922458,84.2183577 C266.733606,84.3891375 267.408916,84.7228751 268.138561,85.4451041 C268.600411,85.901386 269.090722,86.7683216 269.130826,87.4462261 C269.157994,87.9129373 269.126945,88.1462929 268.962646,88.6012711 C268.797053,89.0653749 268.794465,89.0549456 268.469747,89.5099239 C267.878528,90.3416605 267.534404,90.6167333 266.820284,91.3024598 C265.445084,92.6243736 263.934046,94.0649207 263.562755,96.0282364 C263.381638,96.9929467 263.974151,97.7425526 264.918549,97.953746 C265.685712,98.1258294 267.123009,97.829898 267.30542,96.8612768 C267.595208,95.322955 268.546075,94.496433 269.626312,93.4561103 C270.87473,92.2554371 272.216293,90.9856698 272.757059,89.2791756 C273.367683,87.357577 272.788107,85.2951829 271.456893,83.8259553" id="Fill-41" fill="#000000"></path>
                    <path d="M266,104 C263.336874,104 263.329795,107 266,107 C268.663126,107 268.670205,104 266,104" id="Fill-43" fill="#000000"></path>
                    <path d="M252.173347,107.254869 C238.058645,106.837425 223.942649,106.419982 209.826653,106.001394 C207.384646,105.929342 207.397594,108.674179 209.826653,108.746231 C223.942649,109.163675 238.058645,109.581119 252.173347,109.998562 C254.615354,110.071758 254.602406,107.325778 252.173347,107.254869" id="Fill-45" fill="#FFD499"></path>
                </g>
            </g>
        </g>
    </g>
</svg>