<?xml version="1.0" encoding="UTF-8"?>
<svg width="22px" height="75px" viewBox="0 0 22 75" version="1.1" xmlns="http://www.w3.org/2000/svg" xmlns:xlink="http://www.w3.org/1999/xlink">
    <title>arrow/down</title>
    <g id="Desktop" stroke="none" stroke-width="1" fill="none" fill-rule="evenodd">
        <g id="Homepage" transform="translate(-757.000000, -894.000000)" fill="#00AADA">
            <g id="Hero-Section" transform="translate(56.000000, 357.000000)">
                <g id="Fill-1" transform="translate(700.516759, 536.550311)">
                    <path d="M48.3101608,37.3725701 C43.8313189,33.8495571 39.1667489,30.5744599 34.3246689,27.5603265 C33.2711138,26.9030236 31.8740438,26.728504 30.8385685,27.5603265 C30.0003265,28.2323086 29.8080239,29.6855515 30.8385685,30.3281752 C33.6573625,32.0831576 36.4087685,33.9376325 39.1042917,35.8655035 L-23.6849624,32.777974 C-26.7848141,32.6246577 -26.7585163,36.5391166 -23.6849624,36.6908019 L38.2841295,39.7391867 C33.3368582,41.619758 28.3879434,43.4970673 23.4406722,45.3760075 C22.3723246,45.7821326 21.8759539,47.1179417 22.5564091,48.0541498 C23.3256194,49.1126847 24.8081571,49.1811878 25.9291003,48.7554904 C33.2218054,45.9860107 40.5177978,43.216531 47.8105029,40.4470514 C49.1484028,39.9381717 49.4179551,38.2435372 48.3101608,37.3725701" transform="translate(11.500000, 38.000000) rotate(-270.000000) translate(-11.500000, -38.000000) "></path>
                </g>
            </g>
        </g>
    </g>
</svg>