<?xml version="1.0" encoding="UTF-8"?>
<svg width="88px" height="35px" viewBox="0 0 88 35" version="1.1" xmlns="http://www.w3.org/2000/svg" xmlns:xlink="http://www.w3.org/1999/xlink">
    <title>Fill 1</title>
    <g id="Mobile" stroke="none" stroke-width="1" fill="none" fill-rule="evenodd">
        <g id="About" transform="translate(-30.000000, -144.000000)" fill="#FFDC4C">
            <g id="Hero-Section" transform="translate(27.000000, 144.000000)">
                <g id="Flash" transform="translate(3.000000, 0.374980)">
                    <path d="M81.2468977,6.10724994 C75.9026678,2.99083108 69.5742938,1.62973738 63.3350139,1.57944151 C63.1008787,1.33446129 62.7439251,1.15103278 62.2408585,1.07862834 C46.9983006,-1.12016295 31.5460459,0.176321383 16.6321687,3.75507546 C10.5714875,5.20906412 2.8014736,6.92242861 0.488131415,13.4272445 C-1.71640631,19.626228 3.97775309,24.2895361 8.93239788,26.9699071 C21.1274527,33.568206 35.85059,33.7081636 49.4268998,34.0789529 C56.830544,34.2808093 64.3880054,34.1936455 71.5964374,32.3520871 C77.575575,30.8245419 83.7582154,27.9253646 86.6124859,22.2813881 C89.8067029,15.9655229 87.2656687,9.61700801 81.2468977,6.10724994" id="Fill-1"></path>
                </g>
            </g>
        </g>
    </g>
</svg>