<?xml version="1.0" encoding="UTF-8"?>
<svg width="279px" height="252px" viewBox="0 0 279 252" version="1.1" xmlns="http://www.w3.org/2000/svg" xmlns:xlink="http://www.w3.org/1999/xlink">
    <title>Group 47</title>
    <defs>
        <polygon id="path-1" points="0.624193645 0.788095599 19.5829451 0.788095599 19.5829451 78 0.624193645 78"></polygon>
        <polygon id="path-3" points="0.000102613618 0.00616238371 66.9263 0.00616238371 66.9263 100.999748 0.000102613618 100.999748"></polygon>
        <polygon id="path-5" points="0.552775935 0.122654159 76.9728696 0.122654159 76.9728696 74.1745127 0.552775935 74.1745127"></polygon>
    </defs>
    <g id="Desktop" stroke="none" stroke-width="1" fill="none" fill-rule="evenodd">
        <g id="Contact" transform="translate(-899.000000, -1383.000000)">
            <g id="Large-CTA" transform="translate(194.000000, 1383.000000)">
                <g id="Group-47" transform="translate(705.000000, 0.000000)">
                    <path d="M176.601839,165.068823 C177.46839,162.92883 176.897446,160.464544 175.11367,158.682624 C174.654212,158.22152 174.191376,157.762105 173.731918,157.299313 C172.868746,155.52246 171.922804,153.797966 170.899159,152.125832 C170.892402,151.45529 170.733619,150.729009 170.378891,149.94868 C159.09853,125.130161 148.061411,100.181587 136.507403,75.4880557 C128.343584,58.0353703 118.056462,40.0438863 99.1899824,32.6949427 C95.429862,31.2305589 91.5920393,32.0294672 89.6579253,35.5781067 C88.5819161,36.2250029 87.6731359,37.1590332 87.0988138,38.4190452 C69.0684795,77.8408661 51.0381451,117.266065 33.0078108,156.691264 C32.6936229,157.378697 32.5686234,158.012081 32.5297722,158.615063 C31.8963287,159.650434 31.3118716,160.717898 30.7899142,161.819141 C30.1953219,163.069019 29.9419445,164.329031 30.0416063,165.516415 C29.6699861,168.72556 31.788221,172.414389 36.3794191,172.772462 C80.8843113,176.243406 125.536162,175.657315 169.932947,171.019255 C173.483608,170.649359 175.948126,168.338774 176.405894,165.712342 C176.486975,165.499525 176.546096,165.286708 176.601839,165.068823" id="Fill-1" fill="#00AADA"></path>
                    <path d="M92.4828939,90.8121847 C91.8460998,89.3107164 90.9046032,87.9517604 89.5505599,86.9982856 C88.5337436,86.2806347 87.7531573,85.8751534 86.5754307,85.4611893 C85.7434901,85.1693785 84.8670423,85.0624943 83.9871709,85.0115971 C82.3763559,84.9199821 80.5549879,85.374664 79.2043682,86.2517929 C78.2098054,86.8998843 77.5593169,87.4801127 76.8095432,88.3826902 C76.4637572,88.798351 76.2052736,89.2581226 75.9707554,89.7331634 C75.3408085,90.4949253 74.8409594,91.3601782 74.4729199,92.2763283 C73.2917696,95.214795 74.4095828,98.741973 76.8643212,100.686247 C79.3772612,102.678025 82.9960318,103.599265 86.1218005,102.583017 C87.9346094,101.996003 89.4512749,101.06628 90.6991858,99.6343711 C91.6869013,98.5010595 92.491453,97.1302274 92.782461,95.6423317 C93.092299,94.039069 93.1350943,92.3458879 92.4828939,90.8121847" id="Fill-3" fill="#FEFEFE"></path>
                    <path d="M127.448555,85.4699576 C124.82043,83.4401707 121.623329,82.5808325 118.331399,83.1946455 C115.166473,83.7865966 111.996466,86.3562026 111.215818,89.5328947 C110.777232,91.3137931 111.021079,93.2241808 111.820354,94.853728 C111.840675,94.9394937 111.854222,95.0303043 111.876236,95.1143883 C112.536654,97.6167271 114.424772,100.008075 116.807357,101.09444 C119.762305,102.441465 123.36751,102.311976 126.129412,100.529396 C128.867607,98.7585873 130.757419,96.1233959 130.984332,92.8222594 C131.17399,90.0474886 129.621161,87.1499552 127.448555,85.4699576" id="Fill-5" fill="#FEFEFE"></path>
                    <path d="M84.8974457,94.7298695 C84.8095551,94.4140386 84.6481235,94.1476113 84.4149445,93.9252946 C84.2194328,93.6623962 83.968317,93.4577237 83.6615969,93.3148058 C83.347702,93.1436572 83.0140766,93.0483786 82.6607207,93.0360276 C82.3952554,92.9830951 82.12979,92.9936816 81.8661184,93.0342632 C81.8069268,93.0272055 81.7513226,93.0201479 81.6939246,93.0130902 C81.2132171,93.0130902 80.7612085,93.1207197 80.3361052,93.3359788 C80.1531494,93.4594881 79.9737809,93.5847618 79.7908251,93.7065067 C79.4643744,93.9923425 79.2329891,94.339933 79.1002564,94.7510425 C78.994429,95.3509448 78.9406185,95.499156 79.1020501,96.0990583 C79.2329891,96.5842734 79.4984544,96.8630516 79.8320798,97.2141709 C79.8428419,97.2247574 79.8518103,97.2353439 79.8625725,97.244166 C80.0491157,97.3853195 80.2374526,97.5317662 80.4491074,97.6376314 C80.4526948,97.6411602 80.4598695,97.644689 80.4670442,97.6464534 C80.4706316,97.6482179 80.4760127,97.6499823 80.4796,97.6517467 C80.5890148,97.6976216 81.0177055,97.8546548 81.1271202,97.8934721 C81.1432634,97.8987653 81.1612003,97.9040586 81.1791371,97.9075874 C81.7549099,98.0293323 82.2338238,98.0328611 82.8095966,97.905823 C82.8275334,97.9022941 82.8436766,97.8970009 82.8598198,97.8917076 C83.0786493,97.8176021 83.3297652,97.7452609 83.5450073,97.6341025 C83.5521821,97.6323381 83.5593568,97.6288093 83.5647379,97.6252804 C83.5683253,97.623516 83.5737063,97.6199872 83.5772937,97.6182228 C83.6526284,97.568819 84.0508265,97.298863 84.1243675,97.2459304 C84.138717,97.2353439 84.1512728,97.2247574 84.1638286,97.2124065 C84.4956603,96.8718737 84.7718878,96.5631004 84.8992394,96.0902362 C85.0409405,95.5697327 85.026591,95.2521374 84.8974457,94.7298695" id="Fill-7" fill="#231F20"></path>
                    <path d="M120.499672,90 C117.169399,90 117.164154,95 120.499672,95 C123.829945,95 123.836938,90 120.499672,90" id="Fill-9" fill="#231F20"></path>
                    <path d="M135.101129,109.69097 C133.205504,121.738411 124.72313,132.127271 113.537767,136.447815 C102.175792,140.835252 89.6246372,137.492361 80.8395015,129.213176 C75.8607533,124.520437 72.3823576,118.469273 70.9257373,111.714885 C70.3084398,108.8471 65.407064,109.915658 66.0596837,112.936095 C68.9880623,126.515194 79.7529233,137.444336 92.6556184,141.47673 C105.778657,145.579446 120.104332,141.137124 129.606004,131.245667 C134.949748,125.685045 138.75109,118.637361 139.967182,110.913895 C140.444873,107.881452 135.556953,106.802602 135.101129,109.69097" id="Fill-11" fill="#231F20"></path>
                    <path d="M52.933,249.04 C52.909,249.06 52.891,249.084 52.867,249.104 C52.891,249.09 52.975,249.026 53.133,248.896 C53.121,248.902 53.109,248.908 53.097,248.916 C53.041,248.956 52.985,248.998 52.933,249.04" id="Fill-13" fill="#231F20"></path>
                    <g id="Group-17" transform="translate(47.000000, 173.000000)">
                        <mask id="mask-2" fill="white">
                            <use xlink:href="#path-1"></use>
                        </mask>
                        <g id="Clip-16"></g>
                        <path d="M14.5020462,3.00537391 L10.7315846,70.4838522 C7.07112308,69.729287 2.9182,71.4249391 0.944969231,74.6008957 C0.273123077,75.6810261 0.694507692,77.1562435 1.85543077,77.7107217 C3.0062,78.2567217 4.60712308,78.0549391 5.32973846,76.8934174 C5.44650769,76.7035043 5.58696923,76.5288522 5.72404615,76.3525043 C5.91358462,76.1507217 6.10650769,75.9523304 6.32312308,75.774287 C6.2842,75.7946348 6.38235385,75.6979826 6.49235385,75.6284609 C6.49912308,75.6233739 6.50758462,75.618287 6.51773846,75.6132 C6.56004615,75.5843739 6.60235385,75.5538522 6.63958462,75.5199391 C6.59558462,75.5589391 6.58204615,75.5674174 6.5482,75.5979391 C6.7022,75.5029826 6.85450769,75.4114174 7.01527692,75.3283304 C7.17096923,75.2486348 7.33004615,75.1774174 7.48912308,75.1078957 C7.53650769,75.0926348 7.58389231,75.0773739 7.62958462,75.062113 C7.90881538,74.9790261 8.19312308,74.9366348 8.47743077,74.8874609 C8.78543077,74.8654174 9.09173846,74.867113 9.39804615,74.8857652 C9.74666154,74.9485043 10.0952769,75.0095478 10.4337385,75.1265478 C10.9414308,75.306287 11.6623538,75.1960696 12.1886615,74.9790261 C13.6389692,75.384287 15.5749692,74.6873739 15.6748154,72.878113 L19.5789692,3.00537391 C19.7448154,0.0532434783 14.6678923,0.0447652174 14.5020462,3.00537391" id="Fill-15" fill="#231F20" mask="url(#mask-2)"></path>
                    </g>
                    <path d="M155.269857,244.127521 C151.994051,241.595749 147.840036,240.296796 143.726946,240.524028 C144.968376,218.423168 146.208101,196.320612 147.447826,174.218057 C147.614941,171.26404 142.499159,171.257257 142.332043,174.218057 C141.063329,196.841211 139.794615,219.46267 138.524196,242.085824 C138.079123,242.603031 137.848912,243.26777 138.109817,243.986773 C138.544659,245.195851 139.98731,245.960639 141.254318,245.575701 C141.774423,245.4163 142.299643,245.282335 142.831685,245.18398 C142.884548,245.173806 143.070421,245.139891 143.218779,245.112758 C143.464336,245.077148 143.720125,245.065277 143.965683,245.053407 C144.506251,245.024579 145.050229,245.02797 145.590797,245.061886 C145.722102,245.070364 146.622479,245.100888 145.923322,245.080539 C146.153533,245.085626 146.39909,245.150065 146.62589,245.190764 C147.127237,245.282335 147.621762,245.397646 148.109467,245.541786 C148.297045,245.596051 148.482919,245.658794 148.667087,245.721537 C148.65174,245.723233 149.132623,245.901288 149.214476,245.935203 C149.710707,246.15226 150.193296,246.399841 150.660537,246.672859 C150.839589,246.776301 151.015231,246.889917 151.189168,247.001837 C151.230094,247.039144 151.593315,247.296899 151.651294,247.342685 C152.667629,248.127822 154.280806,248.305877 155.269857,247.342685 C156.144656,246.491413 156.33735,244.953357 155.269857,244.127521" id="Fill-18" fill="#231F20"></path>
                    <g id="Group-12" transform="translate(200.000000, 0.000000)">
                        <g id="Group-3">
                            <mask id="mask-4" fill="white">
                                <use xlink:href="#path-3"></use>
                            </mask>
                            <g id="Clip-2"></g>
                            <path d="M66.732,87.6433854 C66.60202,82.1499219 66.47137,76.6571272 66.34072,71.1643325 C66.0955,60.8375841 65.85028,50.5101669 65.60506,40.1840874 C65.49049,35.3501338 65.37592,30.5161801 65.26135,25.6822265 C65.14477,20.7807166 65.49719,15.5735311 64.80843,10.7108159 C64.25568,6.80659735 61.36329,4.50031921 57.63273,3.68964371 C52.63252,2.60339205 47.13048,2.70974305 42.0358,2.28433907 C36.96792,1.8616106 31.90004,1.43821325 26.83283,1.01481589 C22.68955,0.669676821 18.29502,-0.13364106 14.11757,0.365339073 C9.13009,-1.01856159 3.16039,1.69372318 1.10148,6.82933907 C-0.38525,10.5395841 0.05293,14.930743 0.08375,18.8269351 C0.12328,23.8862993 0.16348,28.9456636 0.20368,34.0056967 C0.36113,54.023094 0.51925,74.0411603 0.67737,94.0592265 C0.69814,96.6952596 3.44313,97.9493987 5.70237,98.0724715 C16.19658,98.6410146 26.69079,99.2102265 37.185,99.7801073 C41.99493,100.040299 46.80419,100.30116 51.61412,100.562021 C55.78688,100.788101 61.46848,102.079028 64.80441,98.7814781 C67.7035,95.9160212 66.81977,91.3409219 66.732,87.6433854" id="Fill-1" fill="#B3B3B3" mask="url(#mask-4)"></path>
                        </g>
                        <path d="M55.6508852,18.2316929 C53.5780669,13.5232761 48.7003399,12.3670115 44.1418655,11.5401479 C38.8765222,10.5848851 33.4439197,9.70222504 28.0803449,10.0961617 C23.4196565,10.4383353 17.5489945,11.4218325 14.0405356,14.8489468 C10.5672541,18.2424489 11.3391682,24.9440776 11.1241208,29.3930072 C10.8254438,35.5635609 10.6661494,41.7428538 10.6469013,47.9214745 C10.6455739,48.4626332 10.6382729,49.0084976 10.6309719,49.5563788 C10.5002177,53.4386043 10.3687999,57.3208298 10.237382,61.2037275 C10.0727778,66.0741558 9.02010736,72.1358056 13.2035763,75.6872856 C17.2323969,79.106333 23.5046135,79.0175964 28.4593328,79.435734 C34.3923851,79.9365579 40.4475631,80.1980619 46.3965448,79.8209314 C51.8623336,79.4753965 54.6473305,76.824055 55.1391519,71.3687719 C56.2455842,59.1036284 56.700237,46.749076 56.7679371,34.4355307 C56.7958136,29.4111578 57.727022,22.9481767 55.6508852,18.2316929" id="Fill-4" fill="#A5DDE8"></path>
                        <path d="M42.5107594,25.9994075 C39.8049813,23.6435761 35.5677843,23.4324466 32.5124137,25.0352939 C29.6640833,25.8203483 27.299073,27.8675029 27.0255083,31.1039315 C26.4858461,37.4665469 34.6330486,40.344189 39.7126617,38.4012628 C45.0115338,36.3761565 47.0086235,29.9146576 42.5107594,25.9994075" id="Fill-6" fill="#FFEDA5"></path>
                        <path d="M45.2444488,50.6812199 C43.7946049,46.2279059 40.7768671,42 35.5616355,42 C34.5717795,42 33.6097399,42.1912959 32.7236865,42.5230537 C30.7148013,42.1672167 28.5661557,42.8996256 27.231648,44.4366811 C21.006207,51.6055936 18.8548476,60.851337 20.5665725,70.038889 C20.9512526,72.1016737 23.7505301,72.8528109 25.4737886,72.9852465 C31.5560771,73.454122 44.3536463,76.7529722 45.4771566,68.2008435 C48.1224263,63.3829972 46.841516,55.5866878 45.2444488,50.6812199" id="Fill-8" fill="#FFEDA5"></path>
                        <path d="M32.5,87 C26.5076482,87 26.4923567,95 32.5,95 C38.4923518,95 38.5076433,87 32.5,87" id="Fill-10" fill="#000000"></path>
                    </g>
                    <path d="M210.276625,55.9906553 C206.227381,52.4386175 199.778396,52.026615 195.224478,54.8835046 C192.93143,56.3212746 191.176927,58.4033283 190.347095,61.0058953 C189.586697,63.396527 189.64089,66.0753908 190.38774,68.4626315 C191.09225,70.7176245 192.418289,72.6742124 194.196502,74.1645424 L153.705752,115.079949 C151.42456,117.384111 155.224854,120.386812 157.297742,118.29289 C171.433686,104.008442 185.571323,89.7239939 199.708961,75.4378504 C201.112902,74.0187308 200.208554,72.3385067 198.823242,71.7416965 C198.684372,71.6179262 198.537034,71.4992424 198.372761,71.4042953 C198.294859,71.3568218 198.044215,71.1923599 197.956151,71.1381044 C197.854539,71.0550257 197.642847,70.8871729 197.593735,70.8464813 C197.419301,70.6955832 197.25164,70.5395987 197.087367,70.3768323 C196.999304,70.2886672 196.912933,70.1954156 196.826563,70.1038595 C196.54713,69.7376351 196.27447,69.3714107 196.039069,68.972972 C195.918828,68.7746005 195.813829,68.5711425 195.703749,68.3676845 C195.702055,68.362598 195.702055,68.3642935 195.700362,68.359207 C195.649556,68.2422187 195.598749,68.1235348 195.553024,68.004851 C195.380283,67.5741982 195.238026,67.1299815 195.124559,66.6806784 C195.070366,66.472134 195.029721,66.261894 194.989077,66.0499586 C195.004318,66.1025186 194.928109,65.6311742 194.919642,65.5192723 C194.878997,65.0581008 194.868835,64.5918428 194.892545,64.1306713 C194.902706,63.8983901 194.928109,63.6694998 194.948432,63.4406096 L194.948432,63.4355231 C194.970448,63.3117528 194.992464,63.1913735 195.017867,63.0709942 C195.116092,62.6199956 195.246494,62.1791699 195.409073,61.7485171 C195.444638,61.65357 195.558105,61.404334 195.57504,61.3568604 C195.674959,61.1652708 195.776571,60.9719857 195.891731,60.787178 C196.013666,60.5905019 196.145762,60.3972168 196.282938,60.2090181 C196.340518,60.1327214 196.486162,59.9682595 196.545436,59.8987447 C196.868901,59.5664299 197.202528,59.2561564 197.566638,58.9645333 C197.593735,58.9441875 197.671637,58.8882365 197.732605,58.844154 C197.756314,58.8271991 197.780024,58.8119398 197.788491,58.8068533 C197.990022,58.6932559 198.186472,58.5694856 198.393084,58.4592792 C198.598001,58.3507683 198.809693,58.2473438 199.021385,58.1523967 C199.112836,58.1117051 199.205981,58.0744045 199.299125,58.0371038 C199.316061,58.0303219 199.322835,58.0269309 199.349931,58.020149 C199.798718,57.8828148 200.247505,57.7539581 200.711534,57.6640975 C200.862259,57.6369697 201.680237,57.5725414 201.031613,57.6013646 C201.299191,57.5894962 201.565076,57.560673 201.836042,57.5538911 C202.103621,57.5471091 202.372893,57.5505001 202.640472,57.5657594 C202.759019,57.5708459 203.009662,57.6047556 203.123129,57.6183194 C203.595626,57.7047891 204.061348,57.7929542 204.52199,57.9387658 C204.606667,57.9658935 204.691344,57.9964122 204.777714,58.0252355 C204.79973,58.0354084 204.811585,58.0421903 204.847149,58.0591451 C205.118115,58.1880019 205.387387,58.3100767 205.651578,58.4575837 C205.736255,58.5050573 205.824319,58.5559218 205.908996,58.6067863 C205.93948,58.6254366 206.086817,58.7237746 206.171494,58.7814211 C206.19351,58.7949849 206.213832,58.8119398 206.218913,58.8170262 C206.371331,58.9492739 206.532217,59.0713487 206.682942,59.2052919 C207.671967,60.071684 209.290987,60.0920298 210.276625,59.2052919 C211.230086,58.3456818 211.252102,56.8468745 210.276625,55.9906553" id="Fill-20" fill="#231F20"></path>
                    <path d="M49.8862148,121.167425 C43.5521803,100.939919 35.6392759,81.262416 26.2773874,62.272842 C26.1171388,61.9493109 25.9079723,61.6972972 25.6684429,61.5116925 C25.2889069,60.5989942 24.2919923,59.9672571 23.3018249,60.001313 C16.3790879,60.2414071 9.4529772,60.4797985 2.53024015,60.7198926 C1.28030152,60.7624625 0,61.6291854 0,63.0033412 C0,64.3161965 1.27861469,65.3276569 2.53024015,65.285087 C8.99584714,65.0620208 15.4597673,64.8372519 21.9253743,64.6141857 C31.1000251,83.2291446 38.7987024,102.557575 45.0062249,122.381519 C45.8783144,125.162183 50.8055354,124.099639 49.8862148,121.167425" id="Fill-22" fill="#231F20"></path>
                    <g id="Group-26" transform="translate(202.000000, 147.000000)">
                        <mask id="mask-6" fill="white">
                            <use xlink:href="#path-5"></use>
                        </mask>
                        <g id="Clip-25"></g>
                        <path d="M76.7668478,69.0311289 C77.2161957,67.9232178 76.9194565,66.6481067 75.9936304,65.7242844 C75.7528478,65.4844622 75.5137609,65.2480178 75.2729783,65.0081956 C74.8236304,64.0860622 74.333587,63.1960178 73.8011522,62.3279289 C73.7977609,61.9817067 73.7146739,61.6067733 73.5315435,61.20144 C67.6662826,48.3489956 61.9281957,35.4289956 55.9221957,22.6424178 C51.6779783,13.6051733 46.331587,4.28757333 36.5239348,0.482506667 C34.5671522,-0.275804444 32.5730652,0.137973333 31.5675435,1.97548444 C31.0079783,2.30988444 30.5348913,2.79290667 30.2364565,3.44650667 C20.8628913,23.8617956 11.4893261,44.2770844 2.11745652,64.6940622 C1.95297826,65.0504178 1.88854348,65.3763733 1.86819565,65.6888178 C1.53923913,66.2258844 1.23571739,66.7781511 0.962717391,67.3489956 C0.654108696,67.99584 0.521847826,68.6477511 0.574413043,69.2641956 C0.381108696,70.9243733 1.48328261,72.8345067 3.87076087,73.0202844 C27.0045435,74.8189511 50.2180217,74.5149511 73.2992391,72.1116622 C75.1458043,71.9208178 76.4260217,70.7250844 76.663413,69.36384 C76.7058043,69.2540622 76.7363261,69.1425956 76.7668478,69.0311289" id="Fill-24" fill="#00AADA" mask="url(#mask-6)"></path>
                    </g>
                    <path d="M232.927439,183.845356 C231.893238,182.730695 230.456939,182.140273 229.002438,182.016616 C227.468511,181.889475 226.020629,182.50428 224.804408,183.43955 C223.296956,184.597752 222.183328,186.658133 222.14527,188.687164 C221.715042,189.317644 221.355967,189.995148 221.10114,190.721419 C220.672567,191.937096 221.695185,193.145807 222.497725,193.891236 C223.005725,194.359742 223.589842,194.77774 224.202089,195.086013 C225.436512,195.707785 226.843026,196.0596 228.21479,195.991675 C231.059258,195.848859 233.809406,194.192543 234.699647,191.21605 C235.475711,188.631431 234.699647,185.757696 232.927439,183.845356" id="Fill-27" fill="#FEFEFE"></path>
                    <path d="M260.174171,184.637782 C258.963043,182.215116 256.172036,180.93029 253.592469,181.002919 C250.997678,181.077276 248.36229,182.289473 246.888977,184.537486 C246.542215,185.068363 246.269881,185.673597 246.085505,186.28056 C245.938343,186.768206 245.989088,187.266227 246.176847,187.707184 C246.000929,188.635786 246.009387,189.607619 246.300328,190.596744 C247.213748,193.711106 250.184057,195.701462 253.245707,195.976411 C255.941989,196.215046 258.660261,194.620687 259.945816,192.210125 C261.214456,189.828961 261.395448,187.076011 260.174171,184.637782" id="Fill-29" fill="#FEFEFE"></path>
                    <path d="M230.947596,188.402133 C230.95858,188.321692 230.971134,188.241251 230.982118,188.160811 C230.980549,187.765043 230.872276,187.403061 230.660438,187.071645 C230.538042,186.926852 230.415647,186.78045 230.293252,186.634049 C229.991971,186.363768 229.645184,186.178755 229.254461,186.080617 C228.757033,186.019483 228.40397,185.930998 227.904974,186.088662 C227.460898,186.225411 227.137649,186.365377 226.789293,186.687139 C226.640222,186.825497 226.516257,186.992814 226.392293,187.156912 C226.381309,187.168174 226.373463,187.184262 226.364048,187.20035 C226.269897,187.378928 226.178885,187.563942 226.109842,187.758608 C226.103565,187.774696 226.097289,187.792393 226.09415,187.811699 C226.050213,188.016018 226.025107,188.225163 226.003138,188.434309 C226,188.453615 226,188.474529 226,188.495444 C226,188.513141 226.001569,188.530837 226.003138,188.550143 C226.025107,188.760898 226.050213,188.971652 226.095719,189.17758 C226.098858,189.195277 226.103565,189.212974 226.109842,189.23067 C226.177316,189.423728 226.273036,189.607132 226.365617,189.788928 C226.373463,189.803407 226.381309,189.819496 226.390724,189.832366 C226.508411,190.0029 226.644929,190.162172 226.790862,190.306965 C227.09842,190.61264 227.507973,190.792826 227.91125,190.913487 C227.920665,190.915096 227.93008,190.916705 227.939495,190.918314 C228.039922,190.93762 228.330219,190.968187 228.262744,190.960143 C228.297266,190.963361 228.483998,190.993928 228.590701,190.998754 C228.8198,191.008407 229.050468,190.960143 229.276429,190.916705 C229.576141,190.852353 229.8429,190.725256 230.076706,190.53059 C230.326204,190.38258 230.528627,190.181478 230.682406,189.925677 C230.853446,189.682747 230.946027,189.415684 230.961718,189.12288 C231.021347,188.883167 231.007224,188.641845 230.947596,188.402133" id="Fill-31" fill="#231F20"></path>
                    <path d="M254.906155,184.835784 C254.777564,184.403406 254.558102,184.034394 254.24434,183.732475 C254.071171,183.60388 253.898002,183.473421 253.724833,183.342962 C253.316771,183.115591 252.882991,183.001906 252.426922,183.001906 L251.573078,183.001906 C251.223311,182.986996 250.892404,183.05968 250.582071,183.216231 C250.270024,183.315007 249.993982,183.484603 249.753946,183.732475 C249.508766,183.952392 249.330453,184.220764 249.222437,184.537593 C249.062984,184.830193 248.989258,185.150749 249.00126,185.499261 C249.030407,185.722905 249.062984,185.942821 249.092131,186.164601 C249.220722,186.596979 249.440184,186.965991 249.753946,187.26791 C249.928829,187.396505 250.100284,187.526964 250.275168,187.657423 C250.681515,187.884794 251.11358,187.99848 251.573078,187.99848 L252.426922,187.99848 C252.774975,188.011526 253.105882,187.940705 253.416215,187.782291 C253.728262,187.685378 254.006019,187.513918 254.24434,187.26791 C254.491235,187.047994 254.667833,186.779621 254.775849,186.462793 C254.937017,186.170192 255.010742,185.849636 254.99874,185.499261 C254.966164,185.277481 254.937017,185.057564 254.906155,184.835784" id="Fill-33" fill="#231F20"></path>
                    <path d="M248.736953,197.308002 C247.505109,196.687578 246.22789,197.033243 245.364086,198.086191 C245.4061,198.034785 245.429628,198.002877 245.360725,198.077328 C245.296864,198.148234 245.234684,198.222685 245.167462,198.29359 C245.019573,198.453128 244.866643,198.605575 244.708671,198.752704 C244.565824,198.885652 244.416255,199.007964 244.265006,199.126731 C244.206186,199.169275 244.115436,199.23309 244.080145,199.257907 C243.715465,199.490122 243.33398,199.67625 242.949134,199.865922 L242.947453,199.867695 C242.905439,199.883649 242.863426,199.899602 242.821412,199.913784 C242.619746,199.982917 242.416399,200.043186 242.209691,200.096365 C242.026511,200.145999 241.84165,200.18677 241.656789,200.222223 C241.603012,200.231086 241.549234,200.239949 241.492095,200.248813 C241.088763,200.271857 240.692153,200.298446 240.28714,200.275402 C240.223279,200.271857 240.152696,200.268312 240.083793,200.259448 C239.909016,200.227541 239.735919,200.199179 239.562822,200.156635 C239.356114,200.108774 239.151087,200.050277 238.949421,199.984689 C238.860352,199.954554 238.771282,199.915556 238.682213,199.888967 C238.717505,199.899602 238.739352,199.906693 238.767921,199.913784 C238.76456,199.913784 238.761199,199.912011 238.757838,199.910238 C237.615063,199.392627 236.008456,199.504304 235.309346,200.761106 C234.689223,201.874324 235.006847,203.467927 236.213483,204.012128 C240.919027,206.139296 246.41275,204.760182 249.64109,200.559025 C250.446074,199.513167 249.788979,197.834476 248.736953,197.308002" id="Fill-35" fill="#231F20"></path>
                    <path d="M238.838857,199.952656 C239.054857,200.042656 239.440857,200.110656 238.838857,199.952656" id="Fill-37" fill="#231F20"></path>
                    <path d="M224.9302,241.123727 C223.333529,234.617049 223.034493,227.90262 223.918915,221.28185 C224.098336,219.950203 222.414673,219 221.200405,219 C219.710662,219 218.661317,219.943392 218.481895,221.28185 C217.543103,228.316418 217.992563,235.432725 219.685289,242.337875 C220.38304,245.178267 225.664198,244.117378 224.9302,241.123727" id="Fill-39" fill="#231F20"></path>
                    <path d="M266.857056,233.066945 C266.31356,231.868346 265.877065,230.626816 265.56965,229.345792 C265.274124,228.111131 265.17052,227.359002 265.111076,226.050502 C264.990487,223.43522 265.301299,221.36257 266.159004,218.896683 C266.590403,217.660306 265.574745,216.312311 264.379055,216.066752 C263.083157,215.795436 261.705734,216.35524 261.245461,217.672326 C259.383988,223.021377 259.603085,229.129426 261.943514,234.291303 C262.488708,235.488185 263.735352,236.293547 265.078805,235.898594 C266.145416,235.586065 267.43452,234.337667 266.857056,233.066945" id="Fill-41" fill="#231F20"></path>
                    <path d="M217.739759,183.727641 C213.075023,181.318634 207.868844,180.042975 202.605398,180.00011 C201.368063,179.988108 199.934628,180.956855 200.002308,182.297668 C200.071724,183.662487 201.265674,184.584939 202.605398,184.596941 C203.185019,184.602085 203.762905,184.619231 204.340791,184.653523 C204.670515,184.674098 205.00024,184.699817 205.329965,184.732394 C205.388968,184.737538 205.61804,184.763257 205.737782,184.778688 C206.846698,184.927858 207.945202,185.13018 209.031558,185.399372 C209.593825,185.538254 210.150886,185.692568 210.702741,185.862313 C210.938754,185.93604 211.174768,186.011483 211.410781,186.090354 C211.469785,186.110929 211.950488,186.284103 212.051141,186.316681 C213.095848,186.719611 214.116259,187.182551 215.110639,187.695215 C216.247321,188.281607 217.986185,188.029562 218.6734,186.87221 C219.35541,185.72343 218.933709,184.343181 217.739759,183.727641" id="Fill-43" fill="#231F20"></path>
                    <path d="M277.26136,172.645435 C276.14367,171.728936 274.753831,171.84265 273.631005,172.645435 L261.73864,181.13833 C260.703107,181.876622 260.805804,183.592512 261.73864,184.354565 C262.85633,185.271064 264.246169,185.15735 265.368995,184.354565 C269.333117,181.5236 273.29895,178.692635 277.26136,175.863367 C278.296893,175.123378 278.194196,173.407488 277.26136,172.645435" id="Fill-45" fill="#231F20"></path>
                </g>
            </g>
        </g>
    </g>
</svg>