<?xml version="1.0" encoding="UTF-8"?>
<svg width="47px" height="14px" viewBox="0 0 47 14" version="1.1" xmlns="http://www.w3.org/2000/svg" xmlns:xlink="http://www.w3.org/1999/xlink">
    <title>Right_Arrow</title>
    <g id="Desktop" stroke="none" stroke-width="1" fill="none" fill-rule="evenodd">
        <g id="Homepage" transform="translate(-868.000000, -1782.000000)" fill="#00AADA">
            <g id="About-Values" transform="translate(86.000000, 1100.000000)">
                <g id="Link" transform="translate(494.000000, 674.000000)">
                    <g id="Right_Arrow" transform="translate(288.000000, 7.000000)">
                        <path d="M46.2115064,8.35954267 C43.4865064,6.19954267 40.6485064,4.19154267 37.7025064,2.34354267 C37.0615064,1.94054267 36.2115064,1.83354267 35.5815064,2.34354267 C35.0715064,2.75554267 34.9545064,3.64654267 35.5815064,4.04054267 C37.2965064,5.11654267 38.9705064,6.25354267 40.6105064,7.43554267 L2.40850639,5.54254267 C0.52250639,5.44854267 0.53850639,7.84854267 2.40850639,7.94154267 L40.1115064,9.81054267 C37.1015064,10.9635427 34.0905064,12.1145427 31.0805064,13.2665427 C30.4305064,13.5155427 30.1285064,14.3345427 30.5425064,14.9085427 C31.0105064,15.5575427 31.9125064,15.5995427 32.5945064,15.3385427 C37.0315064,13.6405427 41.4705064,11.9425427 45.9075064,10.2445427 C46.7215064,9.93254267 46.8855064,8.89354267 46.2115064,8.35954267" id="Arrow" transform="translate(23.815608, 8.744227) rotate(-4.000000) translate(-23.815608, -8.744227) "></path>
                    </g>
                </g>
            </g>
        </g>
    </g>
</svg>