<?xml version="1.0" encoding="UTF-8"?>
<svg width="509px" height="389px" viewBox="0 0 509 389" version="1.1" xmlns="http://www.w3.org/2000/svg" xmlns:xlink="http://www.w3.org/1999/xlink">
    <title>Camp_Image</title>
    <defs>
        <polygon id="path-1" points="0.00805143024 0.48973913 35.0481248 0.48973913 35.0481248 63.4086465 0.00805143024 63.4086465"></polygon>
    </defs>
    <g id="Desktop" stroke="none" stroke-width="1" fill="none" fill-rule="evenodd">
        <g id="Homepage" transform="translate(-756.000000, -3329.000000)">
            <g id="Additional-Programming" transform="translate(174.000000, 3198.000000)">
                <g id="Camp_Image" transform="translate(582.000000, 131.000000)">
                    <rect id="Rectangle" fill="#B9E4B0" x="0" y="0" width="509" height="389"></rect>
                    <g id="School_Spirit_Health" transform="translate(97.000000, 77.000000)">
                        <g id="Group-3" transform="translate(3.685185, 0.000000)">
                            <mask id="mask-2" fill="white">
                                <use xlink:href="#path-1"></use>
                            </mask>
                            <g id="Clip-2"></g>
                            <path d="M34.8366462,33.4112 C35.0346462,29.5308522 34.8255692,25.6185043 34.1872615,21.7409391 C33.2678769,16.1618087 31.5717231,10.2418087 27.8277231,5.88006957 C24.4354154,1.92598261 18.8346462,-0.597843478 13.6464923,0.952069565 C8.41403077,2.51589565 5.71126154,7.48424348 4.06772308,12.3552 C1.92710769,18.7023304 0.675415385,25.3903304 0.212953846,32.0713739 C-0.393507692,40.8282435 -0.0681230769,53.3416348 7.08341538,59.4592 C7.27864615,60.0630261 7.7508,60.5416348 8.45833846,60.7378087 C8.67156923,60.7962435 8.88756923,60.8310261 9.1008,60.8783304 C10.2057231,61.5308522 11.4131077,62.0790261 12.7866462,62.453287 C13.1480308,62.5506783 13.5108,62.6313739 13.8735692,62.6995478 C17.9664923,64.2786783 21.8184923,63.0779826 24.7192615,60.5040696 C25.9944923,59.7318957 27.1714154,58.8038957 28.1932615,57.7409391 C32.2529538,53.5238957 34.2218769,47.8710261 34.8352615,42.1235478 C35.1412615,39.2435478 35.0955692,36.3218087 34.8366462,33.4112" id="Fill-1" fill="#5C6972" mask="url(#mask-2)"></path>
                        </g>
                        <path d="M239.562267,132.081126 C239.813088,130.614168 239.513496,128.978961 238.421031,127.264496 C227.853108,110.684388 215.884769,95.1735595 202.713881,80.5707163 C202.004616,79.7850939 201.221497,79.2136058 200.403542,78.810366 C198.267383,77.1793304 195.228269,76.7343762 192.534731,77.1417874 C171.628804,80.3051342 150.55427,81.5968921 129.415638,81.2506621 C129.240063,81.2464906 129.075636,81.259005 128.907029,81.2645669 C125.642176,80.5637639 121.946747,81.2882051 119.678211,84.2388082 L90.2095355,122.571619 C89.6828115,123.257127 89.3246949,123.93012 89.0808412,124.586428 C88.463543,125.383174 87.8476382,126.177139 87.2317334,126.972495 C86.5057461,127.541202 85.7811522,128.109909 85.0537714,128.678617 C83.1879422,130.140013 82.4856435,132.402328 82.7350711,134.588166 C82.5594964,135.974476 82.8353994,137.498445 83.7536828,139.093328 C94.6950503,158.13459 104.796168,177.63193 113.920476,197.604815 C114.28138,198.393219 114.749579,199.080117 115.294418,199.668291 C116.069176,202.616113 118.624763,205.080047 122.996015,204.998009 C151.178536,204.473797 179.362451,203.949585 207.544972,203.425373 C209.647687,203.385049 211.328188,202.762113 212.599014,201.798509 C214.325498,201.302107 215.854113,200.154959 216.815593,198.180475 C225.824246,179.675939 234.830111,161.171403 243.838764,142.665476 C246.157464,137.900294 243.376139,133.79281 239.562267,132.081126" id="Fill-4" fill="#F078AE"></path>
                        <path d="M147.177681,105.491733 C147.198681,105.515733 147.196681,105.511733 147.177681,105.491733" id="Fill-6" fill="#FEFEFE"></path>
                        <path d="M156.537134,104.732654 C156.130144,102.613231 154.701441,100.887951 152.895425,99.834014 C152.385274,99.2709519 151.808706,98.7627523 151.178437,98.3325151 C147.771312,96.0124104 143.293013,96.8310161 140.668778,99.9422952 C138.252277,102.806693 137.939969,106.919934 140.307009,109.872401 C140.541593,110.318519 140.80868,110.7502 141.153491,111.138569 C141.775281,111.841674 142.546865,112.35998 143.384868,112.735355 C143.632171,113.31863 144.145147,113.79651 144.77259,113.894685 C146.428812,114.151673 148.073728,113.927892 149.566023,113.337398 C150.859063,113.377823 152.153516,113.119392 153.271325,112.484143 C155.981763,110.945106 157.117942,107.758752 156.537134,104.732654" id="Fill-8" fill="#FEFEFE"></path>
                        <path d="M182.446411,97.7431274 C179.291753,95.2622637 174.918315,95.476231 171.889787,98.0872099 C171.585092,98.3503318 171.321495,98.6423682 171.070653,98.9416332 C170.9261,99.0515083 170.767375,99.1353603 170.629908,99.2539097 C168.02937,101.507795 166.925382,105.64835 168.243365,108.898339 C169.677558,112.443256 173.36933,114.387756 177.051181,113.935244 C179.457564,113.641762 181.423202,112.288564 182.585295,110.346956 C183.76156,109.482412 184.722413,108.325832 185.251024,106.917697 C186.454215,103.718308 185.039863,99.7844907 182.446411,97.7431274" id="Fill-10" fill="#FEFEFE"></path>
                        <path d="M151.606329,102.342416 C151.482125,101.806571 151.098349,101.272085 150.674102,100.919842 C149.711172,100.117434 148.335159,99.7991908 147.107075,100.128314 C145.985052,100.428877 145.094691,101.121124 144.299227,101.919452 C143.943362,102.277135 143.685185,102.693299 143.685185,103.208744 C143.685185,103.672509 143.929407,104.200194 144.299227,104.498037 C144.539262,104.691159 144.821163,104.8394 145.119811,104.931881 C146.019941,105.526207 146.982871,105.961411 148.095125,105.998132 C148.724518,106.019892 149.398569,105.84989 149.958184,105.576527 C150.464769,105.329005 150.995078,104.903321 151.279771,104.419156 C151.666338,103.76227 151.779378,103.082263 151.606329,102.342416" id="Fill-12" fill="#231F20"></path>
                        <path d="M180.547097,101.641067 C180.438023,101.290614 180.278309,100.928902 180.058863,100.640377 C179.905641,100.439113 179.749822,100.225182 179.566735,100.050659 C179.371961,99.8648773 179.147321,99.7086515 178.929175,99.5594628 C178.624029,99.3483468 178.260451,99.2047879 177.912455,99.1090819 C177.3567,98.9598933 176.880153,98.9824123 176.324398,99.0654513 C176.227011,99.0809331 176.134818,99.1006373 176.040028,99.1358233 C175.794613,99.224492 175.531019,99.3159756 175.308976,99.4679792 C175.096023,99.6129455 174.864892,99.7677639 174.6857,99.9676204 C174.503911,100.170292 174.310435,100.394075 174.174094,100.641784 C173.880634,101.175204 173.765068,101.646697 173.698845,102.253303 C173.684562,102.374343 173.680666,102.49679 173.691054,102.620645 C173.713129,102.902133 173.742994,103.20614 173.828694,103.479184 C173.848172,103.535481 173.881933,103.584742 173.904007,103.641039 C173.929977,103.898601 174.007886,104.149125 174.145527,104.38276 C174.594805,105.139963 175.336245,105.659309 176.137415,105.874647 C176.808736,106.054799 177.600816,106.049169 178.257854,105.802867 C178.781146,105.605826 179.125247,105.422859 179.565436,105.058332 C179.825135,104.842993 180.056266,104.560098 180.228966,104.26172 C180.675648,103.490443 180.81978,102.512272 180.547097,101.641067" id="Fill-14" fill="#231F20"></path>
                        <path d="M179.559582,123.495785 C177.674179,132.245541 169.430297,139.368846 160.123143,139.335765 C150.813169,139.305442 142.631335,132.107706 140.807979,123.352437 C140.327109,121.043703 136.22209,121.902414 136.728343,124.333821 C138.434655,132.533616 144.966584,139.144175 152.958045,141.845738 C161.134239,144.609327 170.270761,142.241324 176.522066,136.547367 C180.061605,133.320653 182.639404,129.120825 183.639218,124.478548 C184.162393,122.052654 180.057374,121.185673 179.559582,123.495785" id="Fill-16" fill="#231F20"></path>
                        <path d="M135.751288,203.916739 C129.987859,213.395979 124.227244,222.873826 118.463815,232.353066 C117.022958,234.722876 115.586322,237.095471 114.142651,239.462496 C113.019795,241.304599 111.89694,243.214927 110.387135,244.778556 C107.000276,248.280361 102.280906,248.317955 97.6966162,248.259476 C95.0147082,248.223274 95.0147082,251.957604 97.6966162,251.991021 C102.601722,252.053678 107.698192,251.8671 111.771709,248.826169 C115.794571,245.824224 118.13315,240.778284 120.667314,236.608142 C126.910559,226.33943 133.152398,216.070717 139.395643,205.800613 C140.747854,203.577001 136.993746,201.872743 135.751288,203.916739" id="Fill-18" fill="#231F20"></path>
                        <path d="M232.62459,247.76886 C232.294973,246.62723 231.083596,246.34632 230.057194,246.472245 L220.706922,247.627713 C218.39265,247.912775 215.013033,248.914642 212.744657,247.988884 C210.555555,247.094953 209.210663,243.598105 208.07717,241.735518 L203.28034,233.853426 C200.151065,228.712631 196.974504,223.593976 193.900861,218.418586 C191.102595,213.702616 188.610301,208.827509 187.735495,203.364289 C187.362764,201.036748 183.319741,201.900235 183.711944,204.350935 C184.666025,210.313704 187.539394,215.681441 190.610255,220.81255 C194.063584,226.585739 197.600359,232.313263 201.098193,238.061544 C202.87423,240.98135 204.634968,243.909458 206.427695,246.818194 C207.825437,249.086232 209.45266,251.077512 212.184169,251.723744 C215.079791,252.410106 218.257743,251.644868 221.147802,251.287849 L231.167043,250.049353 C232.205962,249.922044 232.899966,248.723678 232.62459,247.76886" id="Fill-20" fill="#231F20"></path>
                        <path d="M272.154543,42.892221 C267.995424,41.621118 263.837706,40.3486212 259.679988,39.0761244 C259.152914,38.914449 258.513697,39.0189805 257.995033,39.3074875 C257.329182,39.4371065 256.716598,39.8176012 256.418016,40.5033278 C246.225581,63.9211714 236.031743,87.3404087 225.839307,110.756858 C224.845436,113.044008 228.947082,113.927647 229.896096,111.750605 C239.861441,88.8540248 249.828188,65.9546575 259.794935,43.0566839 L271.035912,46.4964672 C272.004551,46.7919429 273.362888,46.214929 273.623622,45.1905203 C273.905382,44.0824864 273.186263,43.2086031 272.154543,42.892221" id="Fill-22" fill="#231F20"></path>
                        <path d="M89.6126339,120.669025 C83.7161516,99.1208261 76.8159532,77.8504175 68.906447,56.9494701 C66.66556,51.0214236 64.3393991,45.125323 61.9419437,39.2611683 C61.2947006,37.6819301 58.9992942,37.6972085 58.1144025,38.6916981 C57.307795,38.2791794 56.3278438,38.4444646 55.5981227,38.9889338 C50.4942685,42.7932729 45.3890163,46.597612 40.2851621,50.4005621 C39.4282291,51.038091 39.5442575,52.3714848 40.2851621,53.0340148 C41.1476869,53.8048831 42.3764702,53.6840443 43.2501785,53.0340148 C48.326074,49.251899 53.4005717,45.4697831 58.4750693,41.6890562 C66.6949166,61.913584 73.9977198,82.5034062 80.31498,103.394631 C82.1476705,109.460184 83.896485,115.54796 85.5684131,121.659348 C86.197483,123.955285 90.2752543,123.089968 89.6126339,120.669025" id="Fill-24" fill="#231F20"></path>
                        <path d="M313.069786,26.4174816 C312.599686,30.9067252 311.953473,35.3862368 310.74841,39.743403 C309.518386,44.1895476 307.703165,48.5522749 304.840967,52.2087353 C302.532072,55.1589289 298.591003,58.3593745 294.590305,57.1539938 C291.382813,56.1877429 289.697943,52.8788547 288.809053,49.880001 C287.677487,46.0636574 287.670553,42.0040131 287.882722,38.0597628 C287.942351,36.9600441 288.051902,35.8658866 288.172547,34.7731193 C291.592208,34.7425329 295.011869,34.7133369 298.430143,34.6813602 C301.070465,34.6591156 301.078785,30.9317504 298.430143,30.9553853 L288.713369,31.040193 C289.973901,23.8788136 292.546274,16.9815892 296.254373,10.7183367 C296.925548,10.4597429 297.483011,9.92865246 297.587015,9.10977216 C297.63139,8.75385814 297.7243,8.41740817 297.843559,8.0934708 C297.907348,7.96973507 297.960044,7.84877992 297.991938,7.72921505 C299.173427,5.18081507 302.507111,3.81416085 305.177941,4.41337546 C308.863853,5.2405975 311.436225,8.7844445 312.555311,12.2031655 C314.0502,16.7702653 313.562073,21.7238655 313.069786,26.4174816 M37.1103661,33.2743876 L26.8957587,33.3633661 C24.2554366,33.3883913 24.2471163,37.1143662 26.8957587,37.0921216 C30.1933879,37.0615352 33.491017,37.0337294 36.7886462,37.0031431 C36.6680012,38.1556928 36.5376492,39.2887784 36.4003635,40.3815457 C35.730576,45.7730869 34.3091841,51.4037579 30.9394453,55.7762173 C28.1119155,59.4493612 23.5787154,62.3119665 18.8458272,62.2829918 C8.86141591,62.2202074 5.53466556,49.9870533 4.98552294,41.9928908 C4.36288396,32.8920581 5.8813465,23.7606391 9.29684718,15.3660733 C10.3008352,15.3271452 11.2410339,14.7279306 11.1744712,13.5545265 C11.1065217,12.3324624 11.3173037,11.1687904 11.7347076,10.0940969 C12.1021894,9.39339115 12.4835384,8.69963687 12.8801414,8.01422432 C14.2003025,6.21379989 16.1597432,4.84297481 18.34938,4.17702631 C22.9657835,2.77005371 27.5530658,4.97783285 30.7744251,8.27559868 C37.0146822,14.6653675 37.7191379,24.3640246 37.1103661,33.2743876 M315.629678,8.92486371 C313.41924,4.33273869 308.88188,0.338438009 303.530513,0.544200801 C299.600538,0.692961738 295.946521,2.82844585 294.287999,6.23465423 C294.243624,6.28887551 294.193702,6.33892592 294.1521,6.40009864 C289.252805,13.854829 285.985684,22.2966646 284.52269,31.0791211 C253.830333,31.3502275 223.139362,31.6227241 192.449778,31.8938305 L86.4680258,32.8350563 C71.395725,32.9699143 56.3234241,33.1033821 41.2511233,33.2368498 C41.4494248,29.5915117 41.4050497,25.933661 40.9959662,22.3786917 C40.2873503,16.2280525 38.2225186,10.3554712 33.8945537,5.82312865 C29.6900071,1.42008296 23.2680893,-1.24232074 17.2427745,0.581738608 C15.4233929,1.13229311 13.6844412,2.03041989 12.1701389,3.19548218 C11.5364061,3.20521421 10.9123804,3.46936914 10.522711,4.08804781 C10.0914399,4.77067977 9.67403605,5.46165347 9.26911271,6.15957862 C8.63537994,7.03685106 8.11535852,7.98641854 7.73123603,8.99715874 C2.62531906,18.9405066 0.133376417,30.2101904 0.787910043,41.4006276 C1.38142782,51.5594703 5.52357177,64.6448717 17.3648062,65.9142056 C23.0517604,66.5231523 28.7747695,63.8287719 32.688104,59.7927626 C37.0867918,55.250688 39.2140261,49.095878 40.1944398,42.9508 C40.5064527,40.9863215 40.7643833,38.9843051 40.9626848,36.9669956 C71.6009601,36.6958892 102.239235,36.4220022 132.877511,36.1508958 C168.204299,35.8366905 203.532474,35.5238754 238.857876,35.2110604 C253.907989,35.0775926 268.956716,34.9441249 284.008216,34.8092668 C283.893117,35.8909118 283.780793,36.9725567 283.72255,38.0597628 C283.289893,46.0497545 284.198197,58.3607648 293.698641,60.8021125 C298.728288,62.0964717 303.741295,59.3492603 307.066659,55.7067028 C310.615285,51.8166738 312.931113,46.860293 314.439869,41.849691 C316.033215,36.5526894 316.775112,31.0207289 317.321481,25.5276966 C317.874784,19.9651497 318.116074,14.0897878 315.629678,8.92486371" id="Fill-26" fill="#85878A"></path>
                        <path d="M314.345376,20.6693746 C314.33551,16.8508845 313.735045,13.033782 312.029499,9.72035388 C311.846259,9.36237044 311.633418,9.01964986 311.406482,8.68664201 C310.794741,7.62656701 310.043455,6.6636193 309.086376,5.87550072 C305.243965,2.71331365 299.707285,3.82750243 296.359624,7.14925575 C294.210073,9.28328108 293.189564,11.950119 292.734282,14.773748 C290.508616,20.0560851 288.418266,25.4091863 287.128535,30.9912305 C285.810613,36.696765 284.873268,43.4068732 286.71413,49.09992 C287.038324,50.1003311 287.486558,51.0077775 288.03628,51.8125464 C288.144814,52.0664649 288.233616,52.3217709 288.357655,52.5715268 C290.302823,56.4385805 294.272092,59.3607244 298.80095,58.9638901 C303.787909,58.5268173 307.428755,54.7749288 309.513467,50.5554418 C311.898412,45.7309905 313.305135,40.4181277 314.08743,35.1233029 C314.793611,30.3349275 314.866907,25.478563 314.345376,20.6693746" id="Fill-28" fill="#5C6972"></path>
                    </g>
                </g>
            </g>
        </g>
    </g>
</svg>