<?xml version="1.0" encoding="UTF-8"?>
<svg width="509px" height="389px" viewBox="0 0 509 389" version="1.1" xmlns="http://www.w3.org/2000/svg" xmlns:xlink="http://www.w3.org/1999/xlink">
    <title>After-school_Image</title>
    <g id="Desktop" stroke="none" stroke-width="1" fill="none" fill-rule="evenodd">
        <g id="Homepage" transform="translate(-174.000000, -3329.000000)">
            <g id="Additional-Programming" transform="translate(174.000000, 3198.000000)">
                <g id="After-school_Image" transform="translate(0.000000, 131.000000)">
                    <rect id="Rectangle" fill="#FFD499" x="0" y="0" width="509" height="389"></rect>
                    <path d="M401.259682,218.7192 L398.425297,218.953874 C399.445676,218.747361 400.47139,218.57169 401.494436,218.378587 C401.411739,218.489889 401.338378,218.606556 401.259682,218.7192 M387.806689,103.68045 C389.168527,103.589263 390.530366,103.520872 391.893539,103.440412 C391.664121,103.565125 391.434702,103.688496 391.205284,103.811868 C391.063898,103.781025 390.915843,103.759569 390.755783,103.756887 C389.770084,103.731408 388.784385,103.738113 387.800019,103.735431 C387.804021,103.716657 387.802687,103.699224 387.806689,103.68045 M435.812509,165.334118 C435.809841,165.8209 435.812509,166.306341 435.809841,166.791782 C435.684461,166.778372 435.559081,166.783736 435.433701,166.790441 C435.4297,166.62818 435.427032,166.46592 435.423031,166.303659 C435.415028,165.929521 435.312323,165.623774 435.153597,165.371666 C435.373679,165.385076 435.596428,165.383735 435.812509,165.334118 M439.90336,97.8283405 L440.579612,97.5413672 C440.619626,97.7505627 440.671646,97.9597582 440.708993,98.1702947 C440.3702,98.3848542 440.09143,98.6946244 439.947377,99.1170384 C439.902027,99.2497971 439.863346,99.3865788 439.817995,99.5193375 C439.715291,99.3423259 439.595246,99.1840883 439.472534,99.0231687 C439.781982,98.6758505 439.915365,98.2520955 439.90336,97.8283405 M299.0284,232.208287 C299.408541,231.932041 299.787349,231.655796 300.164822,231.380892 C300.187497,231.376869 300.208838,231.374187 300.231514,231.371505 C300.41158,231.615566 300.618324,231.824761 300.847742,232.001773 C300.242184,232.09162 299.636626,232.155988 299.0284,232.208287 M447.064685,127.754025 C446.992659,125.25843 446.920632,122.761494 446.851273,120.26724 C448.471875,119.076434 449.469578,117.16015 449.073431,115.042716 C448.786658,113.51398 447.843641,112.193098 446.593844,111.313404 C446.508479,108.324322 446.42178,105.333899 446.337749,102.344818 C446.548494,100.039644 446.599179,97.7224018 446.488472,95.3971134 C448.147754,94.6139712 447.891659,91.8756558 445.660164,92.0043915 L314.666205,99.5005635 C305.252044,100.039644 295.836549,100.577384 286.422388,101.117806 C286.124944,100.931407 285.760809,100.804012 285.281964,100.824127 L273.817709,101.288112 C273.593625,101.297499 273.396219,101.341752 273.210817,101.400756 C272.071727,101.219721 270.848606,101.78294 271.015335,103.095776 C275.408966,137.767248 277.957912,172.66803 278.611488,207.613065 C278.778217,216.491804 278.799558,225.370544 278.726197,234.249284 C278.467435,234.532234 278.327383,234.907713 278.391406,235.378403 L279.191703,241.210398 C279.395779,242.688176 280.857655,243.406951 282.202154,242.763272 C282.400895,242.668061 282.600969,242.58492 282.798376,242.493732 C283.023793,242.562123 283.281222,242.59833 283.577331,242.576874 C325.530238,239.599861 367.536498,237.388557 409.569434,235.955032 C421.29512,235.555414 433.020806,235.216142 444.750493,234.935874 C445.745529,234.911736 446.345752,234.341812 446.561832,233.664609 C447.484841,233.377636 448.342493,232.825145 448.990734,231.972271 C449.01741,231.937405 449.024079,231.90388 449.045421,231.869014 C449.60963,231.602156 450.021783,231.093918 450,230.32955 C449.021412,196.136814 448.042382,161.945419 447.064685,127.754025" id="Fill-1" fill="#F7F1EE"></path>
                    <path d="M189.852921,195.89904 C176.527913,168.194971 143.255529,161.821822 119.021675,177.099517 C91.4017166,188.455479 76.3535553,222.867283 85.8482922,251.001916 C96.3169855,282.021194 135.609704,293.463802 164.128699,281.118743 C194.612999,267.923219 203.323754,223.905702 189.852921,195.89904" id="Fill-3" fill="#5AB947"></path>
                    <path d="M129.508,200.495 L129.507,200.495 C129.502,200.499 129.497,200.501 129.492,200.505 L129.5,200.505 C129.503,200.502 129.506,200.498 129.508,200.495" id="Fill-5" fill="#FEFEFE"></path>
                    <path d="M129.4975,200.504778 C129.5015,200.500778 129.5035,200.497778 129.5065,200.494778 L129.5015,200.494778 C129.4985,200.497778 129.4965,200.501778 129.4935,200.504778 C129.4955,200.504778 129.4955,200.505778 129.4975,200.504778" id="Fill-7" fill="#FEFEFE"></path>
                    <path d="M129.498,200.5025 C129.499,200.5005 129.5,200.4995 129.502,200.4975 L129.501,200.4975 C129.5,200.4995 129.499,200.5005 129.498,200.5025" id="Fill-9" fill="#FEFEFE"></path>
                    <path d="M137.853742,197.805985 C137.18779,194.238696 133.639237,192.082371 130.22196,192.030113 C130.193244,192.028738 130.164527,192.036989 130.134443,192.036989 C127.636098,191.805954 125.065277,192.659958 123.313564,194.521989 C121.408695,196.54767 120.462414,199.304962 121.315708,202.043 C122.159429,204.753535 124.422572,206.732459 127.045356,207.615342 C129.772067,208.532606 132.915852,207.755613 135.042249,205.856451 C135.600171,205.360001 136.066475,204.78654 136.449363,204.166321 C136.707812,203.812893 136.938913,203.444337 137.124887,203.055153 C137.928952,201.374649 138.196974,199.650139 137.853742,197.805985" id="Fill-11" fill="#FEFEFE"></path>
                    <path d="M129.4935,200.508 L129.4945,200.507 L129.5065,200.492 C129.5015,200.497 129.4975,200.502 129.4935,200.508" id="Fill-13" fill="#FEFEFE"></path>
                    <path d="M163.917238,192.549645 C162.856987,190.74083 160.8556,189.469734 158.831961,189.122346 C156.881623,188.788268 154.915578,189.152959 153.212632,190.038067 C152.7401,190.031412 152.250552,190.131236 151.775403,190.317575 C148.215055,191.7231 146.319693,196.031514 147.224178,199.707708 C148.173168,203.555599 152.308146,206.217579 156.108033,205.985987 C160.064993,205.745077 163.745765,202.867478 164.724861,198.895804 C165.253677,196.752911 165.039009,194.462277 163.917238,192.549645" id="Fill-15" fill="#FEFEFE"></path>
                    <path d="M156.4825,195.493 L156.4795,195.493 L156.4785,195.492 C156.4775,195.492 156.4765,195.492 156.4745,195.493 C156.4725,195.492 156.4705,195.493 156.4685,195.492 L156.4705,195.494 C156.4695,195.494 156.4685,195.494 156.4685,195.495 C156.4695,195.495 156.4725,195.496 156.4735,195.497 C156.4755,195.498 156.4775,195.499 156.4785,195.5 L156.4815,195.499 C156.4935,195.503 156.5045,195.508 156.5175,195.511 C156.5215,195.511 156.5275,195.51 156.5315,195.51 L156.4985,195.493 L156.4965,195.493 L156.4975,195.493 C156.4945,195.491 156.4915,195.49 156.4885,195.489 C156.4865,195.489 156.4845,195.49 156.4825,195.49 C156.4825,195.491 156.4835,195.492 156.4825,195.493" id="Fill-17" fill="#FEFEFE"></path>
                    <path d="M132.848873,195.701277 C132.684628,195.412839 132.48433,195.149604 132.25332,194.926975 C131.10628,193.825029 129.353004,193.75782 128.00166,194.449512 C126.789189,195.072594 125.996009,196.394369 126,197.811357 C126.00135,198.538053 126.204319,199.187739 126.52079,199.823423 C126.846608,200.48011 127.379401,200.961774 127.962936,201.353826 C128.571842,201.76408 129.287574,201.926502 129.997964,201.98811 C130.690995,202.049718 131.389368,201.866294 132.016968,201.568054 C133.21208,200.998179 134.009266,199.627397 133.999919,198.259416 C133.993242,197.269485 133.549916,196.32576 132.848873,195.701277" id="Fill-19" fill="#231F20"></path>
                    <path d="M159.929278,193.90317 C159.744615,193.160388 159.820576,193.619635 159.709254,193.449247 C159.595314,193.273535 159.41458,193.076525 159.246943,192.927436 C159.071448,192.77036 158.86845,192.641239 158.672,192.513448 C158.599969,192.468189 158.525318,192.428254 158.446738,192.392313 C157.848221,192.128745 157.192079,191.946378 156.533318,192.014266 C156.294959,192.040889 156.046123,192.056863 155.809073,192.115434 C155.578572,192.171342 155.350691,192.269847 155.131977,192.361697 C154.84516,192.4815 154.580608,192.673186 154.340939,192.868865 C154.219141,192.970033 154.120916,193.09383 154.017452,193.214965 C153.916608,193.334768 153.807906,193.449247 153.729326,193.587687 C153.619314,193.776711 153.526328,193.98437 153.447748,194.188036 C153.417626,194.263912 153.395362,194.341119 153.379646,194.420988 C153.339046,194.623323 153.307614,194.837638 153.295827,195.050622 C153.232963,195.178413 153.164861,195.304872 153.122951,195.437987 C153.060087,195.644316 153.041752,195.867949 153.014249,196.079602 C153.003772,196.155478 152.997224,196.231353 153.001153,196.309891 C153.00901,196.524207 153.04961,196.743847 153.09021,196.954168 C153.104616,197.024719 153.12688,197.089946 153.153074,197.155172 C153.217247,197.312248 153.316782,197.562505 153.433342,197.727567 C153.538115,197.872663 153.663843,198.012434 153.784332,198.144218 C153.813145,198.174834 153.841957,198.204119 153.874699,198.233405 C154.257121,198.55155 154.663117,198.767196 155.141144,198.896318 C155.376884,198.960213 155.634888,198.980181 155.875866,198.996154 C155.972781,199.004141 156.071006,198.998817 156.167921,198.988168 C156.412829,198.961545 156.669523,198.946902 156.909192,198.879013 C157.14886,198.812456 157.3846,198.715282 157.609862,198.615445 C157.692371,198.579504 157.772261,198.535576 157.846911,198.487655 C158.052529,198.358533 158.260765,198.218762 158.446738,198.061686 C158.601278,197.931233 158.708671,197.759515 158.834399,197.60377 C158.842257,197.597115 158.851424,197.593121 158.857972,197.586465 C159.019061,197.425396 159.165744,197.247022 159.304568,197.067316 C159.358264,196.996765 159.408032,196.923552 159.448631,196.845014 C159.596623,196.569466 159.747235,196.275281 159.800931,195.962461 C159.840221,195.742821 159.889988,195.509869 159.886059,195.283574 C159.886059,195.250295 159.874272,195.214354 159.871653,195.181075 C159.88344,195.115849 159.897846,195.051953 159.907014,194.986727 C159.927968,194.86293 159.946304,194.739133 159.963329,194.614005 C159.976426,194.535467 159.988213,194.455598 160,194.37706 C159.976426,194.218653 159.952852,194.060246 159.929278,193.90317" id="Fill-21" fill="#231F20"></path>
                    <path d="M168.10596,225.305806 C166.41106,234.12507 164.090741,245.295606 154.720119,249.062956 C145.662873,252.704107 134.351984,249.133361 127.243006,243.028023 C123.273126,239.616686 120.339389,235.2396 118.929862,230.195656 C118.316444,228.002463 114.426576,228.830058 115.071998,231.142807 C117.929725,241.372834 126.522907,249.011148 136.464274,252.286988 C141.90769,254.080332 148.060536,254.610364 153.647971,253.178346 C159.084719,251.788838 163.519996,248.309752 166.364387,243.516875 C169.487484,238.259059 170.822334,232.188259 171.963824,226.252957 C172.413219,223.909655 168.535353,223.07409 168.10596,225.305806" id="Fill-23" fill="#231F20"></path>
                    <path d="M119.986682,282.74882 C119.457331,292.238923 118.926642,301.729026 118.398627,311.219129 C114.274765,309.960019 109.720469,310.351653 105.996294,312.646654 C105.180878,313.150565 104.64618,314.217199 105.277124,315.098041 C105.857272,315.906705 107.125844,316.292992 108.021465,315.742299 C108.449223,315.477645 108.887676,315.235714 109.343507,315.02319 C109.542682,314.928289 109.744531,314.842744 109.946379,314.759873 C109.969104,314.750516 109.96242,314.75319 109.975788,314.746506 C110.070697,314.714427 110.165606,314.681011 110.263188,314.648932 C110.73907,314.491209 111.224309,314.361556 111.716232,314.261308 C111.900703,314.223882 112.086511,314.18913 112.272318,314.159724 C112.36188,314.145021 112.450106,314.131655 112.539668,314.120962 C112.570413,314.116952 112.614525,314.112942 112.673342,314.106259 C113.113132,314.078189 113.550248,314.05012 113.991374,314.055466 C114.241346,314.05814 114.492654,314.067496 114.742626,314.083536 C114.797432,314.087546 115.174395,314.132991 115.255936,314.138338 C115.65295,314.20116 116.048627,314.272001 116.438957,314.368239 C116.680908,314.429724 116.922859,314.497892 117.162137,314.572744 C117.228974,314.592793 117.917399,314.845417 117.569845,314.709081 C118.490863,315.071308 119.746068,315.031209 120.312848,314.06616 C120.368992,313.971259 120.411768,313.869674 120.449196,313.765417 C121.388929,313.697249 122.30059,313.125169 122.362081,312.030466 C122.907473,302.269026 123.451529,292.510259 123.996922,282.74882 C124.126586,280.420403 120.117683,280.41372 119.986682,282.74882" id="Fill-25" fill="#231F20"></path>
                    <path d="M172.514003,306.712399 C169.371478,307.440382 166.227611,308.168365 163.086428,308.896348 C163.313195,300.180552 163.539961,291.463422 163.765385,282.74896 C163.827109,280.419681 159.801671,280.414348 159.739948,282.74896 L159.000609,311.22296 C158.965722,312.517596 160.436349,313.202914 161.547369,312.94692 C165.559389,312.017608 169.57275,311.088297 173.584769,310.160318 C176.123479,309.572332 174.926582,306.153745 172.514003,306.712399" id="Fill-27" fill="#231F20"></path>
                    <path d="M81.0635201,241.303789 C77.6742829,255.909443 74.2850457,270.516432 70.8971512,285.120751 C69.2790724,281.585165 67.6609936,278.04958 66.0429149,274.512659 C65.1016093,272.453794 61.1658508,273.293629 62.1595258,275.46465 C64.6356563,280.878849 67.1117868,286.293048 69.5892602,291.707248 C70.2566337,293.167947 73.0174387,293.675319 73.4739921,291.707248 C77.2982978,275.22298 81.1226035,258.740048 84.948252,242.255781 C85.4920876,239.91252 81.5818425,239.072685 81.0635201,241.303789" id="Fill-29" fill="#231F20"></path>
                    <path d="M250.48973,209.434383 C247.8201,206.465412 245.150469,203.496441 242.48217,200.528809 C241.939194,199.923225 240.737461,199.849537 240.062734,200.247454 C224.020996,209.703681 207.979259,219.159908 191.936191,228.616135 C189.707063,229.930467 191.896266,232.928914 193.952387,231.717745 C209.521683,222.538854 225.092309,213.361303 240.661604,204.182413 C242.997198,206.780262 245.331461,209.376773 247.665724,211.974622 C249.218794,213.70027 252.191852,211.327505 250.48973,209.434383" id="Fill-31" fill="#231F20"></path>
                    <path d="M260.511319,200.448809 C251.558149,207.650335 242.602302,214.851862 233.649131,222.054705 C231.664148,223.649338 234.699847,225.989274 236.488072,224.551339 C245.441242,217.348496 254.39709,210.14697 263.351598,202.945443 C265.335243,201.349493 262.299544,199.010874 260.511319,200.448809" id="Fill-33" fill="#926558"></path>
                    <path d="M269.597973,193.09743 C268.341145,192.938802 267.112735,192.952245 265.88045,193.30042 C264.689499,193.639184 263.627718,194.201103 262.624064,194.936436 C260.867347,196.22159 259.489099,198.234011 259.040878,200.43329 C258.892332,201.161903 259.157131,201.88917 259.697064,202.31397 C259.533017,202.569388 259.430973,202.865134 259.446473,203.198521 C259.498141,204.252455 260.386833,205.010641 261.384029,205 C266.069038,204.946115 270.298077,200.905141 270.5435,196.005157 C270.734673,195.803512 270.890969,195.56557 270.951679,195.312841 C271.177727,194.385272 270.591293,193.22245 269.597973,193.09743" id="Fill-35" fill="#F89C1C"></path>
                    <path d="M264.521,198.477 C264.506,198.494 264.492,198.51 264.479,198.523 C264.495,198.508 264.507,198.495 264.521,198.477" id="Fill-37" fill="#009AB3"></path>
                    <path d="M263.516,199.4675 C263.505,199.4915 263.494,199.5155 263.484,199.5325 C263.496,199.5125 263.506,199.4915 263.516,199.4675" id="Fill-39" fill="#009AB3"></path>
                    <path d="M269.516134,215.050147 C268.494654,214.845232 267.403466,215.270824 267.042865,216.280948 L265.078996,221.783432 C264.741184,222.730505 265.538796,223.760333 266.483866,223.949484 C267.505346,224.155713 268.596534,223.727494 268.957135,222.719997 L270.921004,217.2162 C271.258816,216.27044 270.461204,215.240613 269.516134,215.050147" id="Fill-41" fill="#F89C1C"></path>
                    <path d="M272.934693,230.46759 C272.8464,230.121588 272.692483,229.827784 272.474137,229.586179 C272.354822,229.481782 272.233121,229.377385 272.113806,229.272988 C271.828643,229.091039 271.527969,229.000064 271.209398,229.001555 L270.790602,229.001555 C270.5472,228.989624 270.318115,229.046297 270.100961,229.173065 C269.883808,229.250617 269.691711,229.387825 269.525863,229.586179 C269.352856,229.760672 269.231155,229.975432 269.154793,230.228968 C269.04383,230.463115 268.992525,230.719634 269.000877,230.998524 C269.022354,231.17749 269.04383,231.353474 269.065307,231.530949 C269.1536,231.876951 269.307517,232.172246 269.525863,232.413851 C269.645178,232.516757 269.766879,232.621154 269.887388,232.725551 C270.171357,232.9075 270.472031,232.998475 270.790602,232.998475 L271.209398,232.998475 C271.4528,233.010406 271.681885,232.952242 271.899039,232.826965 C272.114999,232.747922 272.308289,232.610714 272.474137,232.413851 C272.647144,232.237867 272.770038,232.023107 272.845207,231.769571 C272.95617,231.535423 273.007475,231.278905 272.999123,230.998524 C272.977646,230.82254 272.957363,230.645065 272.934693,230.46759" id="Fill-43" fill="#F89C1C"></path>
                    <path d="M274.000262,242 C271.336044,242 271.33045,246 274.000262,246 C276.664481,246 276.668677,242 274.000262,242" id="Fill-45" fill="#F89C1C"></path>
                    <path d="M271.827105,252.103117 C271.744479,251.875544 271.60588,251.684115 271.412641,251.526153 C271.227398,251.349449 271.012837,251.224953 270.770289,251.155342 C270.527741,251.041556 270.271867,250.990687 270,251.001396 C269.822753,251.021476 269.645507,251.042895 269.46826,251.065652 C269.136423,251.145972 268.843233,251.299918 268.586026,251.526153 C268.482077,251.646632 268.378128,251.768451 268.274179,251.888931 C268.094267,252.164696 268.003644,252.465895 268.000979,252.795207 L268.000979,254.203482 C267.99165,254.455151 268.048956,254.685401 268.174228,254.895572 C268.256854,255.123145 268.395452,255.315912 268.586026,255.473875 C268.772601,255.650578 268.987163,255.773736 269.231043,255.844685 C269.470926,255.957133 269.728133,256.009341 270,255.998631 C270.177246,255.978551 270.355825,255.955794 270.531739,255.934375 C270.863577,255.852717 271.156766,255.700109 271.412641,255.473875 C271.519256,255.352056 271.623205,255.231576 271.727154,255.109758 C271.905733,254.835332 271.996355,254.532793 271.99902,254.203482 L271.99902,252.795207 C272.008349,252.543538 271.951044,252.313287 271.827105,252.103117" id="Fill-47" fill="#F89C1C"></path>
                    <path d="M340.060055,184.665023 C338.223711,186.277322 335.127471,186.266724 332.8511,185.980564 C331.326385,185.78979 329.852495,185.355251 328.432103,184.78823 C327.239081,184.311297 326.034022,183.823765 324.724641,183.840988 C322.20485,183.872783 320.803183,185.707652 320.573138,188.026078 C320.522314,188.544081 320.730959,190.078216 320.237433,190.382924 C319.504501,190.83866 317.040884,189.772184 316.289226,189.566838 C313.401632,188.777248 310.552824,187.839279 307.772226,186.733059 C305.018379,185.633462 302.322042,184.393436 299.700604,183.012978 C299.569532,182.944088 298.928884,182.577114 298.206651,182.163772 C298.760363,182.277706 299.22714,182.341297 299.364899,182.338648 C301.688082,182.305527 304.282771,180.172575 302.93059,177.749489 C302.4919,176.963874 301.122333,175.945091 302.691183,175.333026 C303.975153,174.832246 305.7152,176.435272 306.612641,177.144048 C307.840437,178.112488 310.720007,177.377216 309.967012,175.41649 C308.612157,171.892482 311.721771,167.871669 315.538906,169.72376 C316.568757,170.223215 317.615995,169.788676 318.167032,169.078575 C319.467052,168.641386 320.696185,168.033296 321.919969,167.390761 C323.47277,166.57335 325.176705,165.555892 326.994325,165.57444 C328.357205,165.587688 329.718748,166.447493 329.678624,167.910088 C329.631813,169.631023 329.376356,170.926692 330.957244,172.08723 C332.107467,172.931137 333.633519,173.155031 335.019136,172.892717 C336.491689,172.614506 338.051177,171.29499 339.574554,171.540081 C343.114833,172.107102 342.356489,176.869812 339.167964,177.3123 C336.917004,177.624956 337.534915,180.869428 339.700276,180.800537 C341.67438,180.739596 340.993608,183.846287 340.060055,184.665023 M345.582463,172.168044 C344.845518,170.382193 343.316791,169.024258 341.495159,168.375098 C339.237512,167.572261 337.358369,168.212146 335.237144,169.056053 C334.956275,169.167338 334.248754,169.554184 333.89165,169.453498 C333.3473,169.299819 333.654918,169.417728 333.529196,168.977889 C333.412836,168.568521 333.711092,167.93791 333.69638,167.476874 C333.68033,166.96947 333.554608,166.454117 333.37405,165.981158 C332.699966,164.211205 331.032142,162.887715 329.234585,162.337917 C324.164241,160.793183 320.356468,164.986222 315.768951,166.030176 C313.184962,165.39029 310.392327,165.880472 308.287152,167.630552 C306.849373,168.824211 305.984031,170.518649 305.7045,172.309799 C303.885543,171.554654 301.938188,171.386403 300.096494,172.615831 C298.963658,173.3723 298.055517,174.563309 297.912408,175.938467 C297.841522,176.645918 297.951195,177.313625 298.286899,177.942912 C298.373835,178.105864 298.510257,178.376126 298.668078,178.581473 C296.133575,177.422259 291.312001,178.38275 292.082383,181.955776 C292.436812,183.597222 294.532625,184.356341 295.851369,185.091613 C297.575366,186.054753 299.335475,186.955628 301.125008,187.79556 C304.76426,189.503247 308.533246,190.960543 312.375793,192.158176 C315.270075,193.061699 320.008726,195.193327 322.813398,193.126615 C323.974321,192.27211 324.370211,191.05593 324.495933,189.676797 C324.546757,189.123025 324.426385,188.435446 324.592231,187.904195 C324.85705,187.058963 325.420124,187.47628 326.191844,187.765089 C329.85517,189.137598 333.466335,190.011976 337.413205,189.464827 C340.704715,189.006441 344.519175,187.104007 344.979265,183.479313 C345.18256,181.880262 344.683684,180.277236 343.710007,179.09815 C345.631949,177.398413 346.616326,174.679893 345.582463,172.168044" id="Fill-49" fill="#9DC3E7"></path>
                    <path d="M416.939864,186.464304 C415.958255,177.391024 404.73833,168.47009 395.961669,173.011367 C392.605373,168.830425 387.012891,166.522693 381.614042,167.083067 C379.719402,167.280456 377.296307,167.818308 375.686737,169.111274 C373.825714,168.328341 371.746854,168.070013 369.674718,168.499235 C366.55105,169.147043 363.927599,171.417681 362.69857,174.280487 C358.571779,174.002288 354.224461,176.588219 353.217303,180.684377 C352.055508,185.408471 355.706287,190.352475 360.496001,191.077118 C361.501814,191.23079 362.64075,190.892977 362.976917,189.838468 C363.274089,188.908486 362.553346,187.802312 361.567703,187.652614 C358.760032,187.227366 356.523846,184.485113 357.107433,181.628931 C357.685641,178.795269 360.896713,177.226753 363.571261,178.054728 C364.473535,178.334253 365.830307,177.787127 366.050833,176.814753 C366.9168,173.011367 370.805585,171.014954 374.022036,172.30792 C374.133643,174.877954 377.60827,176.437196 379.731504,174.65142 C380.327193,174.150661 380.532927,173.146493 380.046157,172.5 C379.744951,172.097283 379.416851,171.722376 379.065892,171.36999 C379.153296,171.323623 379.23801,171.273282 379.332137,171.23354 C380.07305,170.926195 380.90809,170.738079 381.704135,170.630774 C383.20882,170.426761 384.753846,170.567185 386.219536,170.940768 C389.367408,171.746222 392.004306,173.706866 393.642114,176.467666 C394.2889,177.559268 395.917295,177.549995 396.808811,176.828001 C402.905545,171.898569 411.15106,179.575553 412.67995,185.38595 C413.416829,188.190466 412.731048,191.720952 410.131801,193.421943 C407.775939,194.962639 404.484187,193.763731 403.852192,191.036051 C403.408451,189.132371 400.588678,189.533773 399.962062,191.036051 C399.395956,192.39128 397.967917,193.337159 396.479367,193.362329 C395.647017,193.375577 394.926274,192.893364 394.097957,192.992721 C393.211819,193.098702 392.562344,193.7995 391.684275,193.998214 C387.717498,194.897726 384.556179,190.949941 382.392606,188.31102 C381.250981,186.920022 377.91351,187.471122 378.705521,189.679497 C379.933204,193.094728 378.450034,197.454512 374.936411,198.95944 C371.566668,200.402103 367.271793,198.512996 365.828962,195.255411 C364.915931,193.194085 360.976048,194.026034 361.938832,196.199965 C364.248975,201.41157 370.550098,204.36446 376.086104,202.375996 C379.631998,201.101576 382.12905,197.96322 382.910304,194.447307 C384.027724,195.426305 385.251374,196.268852 386.661932,196.831875 C389.356651,197.906256 392.173734,197.900957 394.678854,196.645084 C397.188008,197.160416 399.72809,196.564274 401.606594,195.016954 C403.748653,197.320712 407.402121,198.281163 410.446453,197.267721 C414.930927,195.774717 417.426635,190.95524 416.939864,186.464304" id="Fill-51" fill="#9DC3E7"></path>
                    <path d="M371.627614,147.555773 C371.363195,147.416069 371.089427,147.304575 370.821,147.179649 C371.213624,146.8586 371.48205,146.395161 371.547487,145.828288 C372.17248,140.485981 372.797472,135.143674 373.422464,129.801366 C373.546661,128.750905 372.320715,128 371.419284,128 C370.326883,128 369.5403,128.744189 369.416103,129.801366 C368.791111,135.143674 368.166119,140.485981 367.541126,145.828288 C367.53712,145.872617 367.546468,145.911573 367.546468,145.955901 C359.433587,143.662887 350.257685,146.105008 343.744677,151.37209 C339.320319,154.951987 335.821431,160.227129 336.007059,166.117503 C336.080509,168.464249 340.088205,168.466936 340.01342,166.117503 C339.838475,160.556238 343.647189,155.815729 348.028813,152.830915 C352.442487,149.824608 357.91117,148.240856 363.23963,148.784893 C373.069904,149.789682 381.217507,159.75563 378.511878,169.745758 C377.880209,172.081758 381.773056,172.928038 382.375346,170.702188 C384.835251,161.621475 379.777888,151.81135 371.627614,147.555773" id="Fill-53" fill="#FFDF40"></path>
                    <path d="M338.414989,152.937283 C334.486015,149.889782 331.615314,145.91957 330.029269,141.33153 C329.692422,140.359123 328.516866,139.786961 327.513144,140.074385 C326.568063,140.344349 325.726627,141.259002 326.08393,142.289162 C327.873175,147.461452 331.159821,152.10053 335.521104,155.483807 C336.355722,156.131182 337.591282,156.211768 338.414989,155.483807 C339.150052,154.831058 339.238696,153.577943 338.414989,152.937283" id="Fill-55" fill="#FFDF40"></path>
                    <path d="M351.417899,142.958534 C350.529304,142.331877 349.686764,141.646553 348.90247,140.895898 C348.519128,140.531903 348.153395,140.151909 347.797144,139.761248 C347.775471,139.735915 347.764634,139.723915 347.747025,139.707916 C347.740252,139.698582 347.738897,139.697249 347.729416,139.685249 C347.642723,139.578584 347.550613,139.473253 347.462566,139.366587 C347.285118,139.153257 347.113088,138.934594 346.945122,138.713264 C346.307121,137.87461 345.73143,136.990623 345.223468,136.070637 C345.088012,135.827974 344.963391,135.581311 344.836062,135.335981 C344.81168,135.289315 344.807616,135.282648 344.79678,135.263982 C344.794071,135.257315 344.79678,135.262649 344.787298,135.241316 C344.730406,135.114651 344.67216,134.989319 344.616623,134.863988 C344.391765,134.358662 344.18858,133.844003 344.003004,133.322678 C343.660299,132.358692 342.508918,131.786701 341.505184,132.074696 C340.574597,132.340026 339.722575,133.252012 340.085599,134.27333 C341.67315,138.737264 344.628814,142.727871 348.54351,145.486496 C349.375213,146.071821 350.611932,146.263818 351.417899,145.486496 C352.088409,144.838506 352.292949,143.575858 351.417899,142.958534" id="Fill-57" fill="#FFDF40"></path>
                    <path d="M395.4128,140.497883 C394.556803,139.76769 393.379466,139.903871 392.51253,140.497883 C387.870183,143.679348 383.229203,146.860812 378.588224,150.042277 C377.737696,150.625913 377.87307,151.891754 378.588224,152.502627 C379.44422,153.231523 380.622925,153.096638 381.488494,152.502627 C386.130841,149.319865 390.770453,146.138401 395.4128,142.956936 C396.26196,142.3733 396.126586,141.107458 395.4128,140.497883" id="Fill-59" fill="#FFDF40"></path>
                    <path d="M398.740446,153.887577 C398.095884,152.939685 397.022486,152.807228 396.056296,153.225294 L385.964258,157.582563 C385.081743,157.961996 384.706512,159.297599 385.259554,160.113035 C385.904116,161.060927 386.977514,161.192004 387.942396,160.775318 C391.306409,159.322435 394.67173,157.870932 398.035742,156.418049 C398.918257,156.038616 399.293488,154.703013 398.740446,153.887577" id="Fill-61" fill="#FFDF40"></path>
                    <path d="M391.886667,97.2770677 C382.581333,85.1807452 373.273333,73.0857452 363.968,60.9894226 C363.172,59.9564871 361.252,59.7038742 360.513333,60.9894226 C354.305333,71.7935839 348.1,82.5964226 341.893333,93.4005839 C340.662667,95.5418419 344.216,97.1593581 345.346667,95.1900355 L362.490667,65.349971 C370.488,75.7454548 378.486667,86.1396161 386.484,96.5337774 C385.468,97.4199065 385.405333,99.1657129 387.193333,99.4685839 C388.005333,99.6061323 388.817333,99.7436806 389.629333,99.881229 C390.981333,100.111358 393.044,98.7821645 391.886667,97.2770677" id="Fill-63" fill="#59240C"></path>
                    <path d="M450.240488,323.13294 C443.900961,314.525179 439.816945,304.230254 435.198835,294.643239 C430.279543,284.431597 425.361591,274.222642 420.442299,264.012343 C417.597811,258.107269 414.753323,252.200851 411.907496,246.295776 C411.678598,245.820254 411.311827,245.54891 410.899543,245.428015 L445.916866,243.362045 C448.445449,243.21294 448.476236,239.60891 445.916866,239.760701 C404.104898,242.228313 362.294268,244.695925 320.482299,247.163537 C308.69474,247.859358 296.907181,248.555179 285.120961,249.251 C282.592378,249.400104 282.561591,253.002791 285.120961,252.852343 L323.661433,250.576821 C312.630173,269.926821 301.850567,289.420552 291.340016,309.059358 C288.278677,314.780403 285.240094,320.513537 282.222929,326.257418 C281.063717,328.465776 284.623008,330.108612 285.691197,328.074881 C296.27537,307.92294 307.132614,287.914731 318.264268,268.062343 C321.436709,262.404433 324.633244,256.758612 327.84852,251.126224 C328.010488,250.844134 328.086787,250.571448 328.101512,250.314881 C355.270724,248.712343 382.439937,247.108463 409.607811,245.504582 C408.623953,245.876672 407.858283,246.904284 408.440567,248.113239 C418.311276,268.602343 428.168598,289.099507 438.052693,309.583239 C440.618756,314.898612 443.263795,320.187119 446.77222,324.951746 C448.124189,326.786672 451.719622,325.142493 450.240488,323.13294" id="Fill-66" fill="#59240C"></path>
                </g>
            </g>
        </g>
    </g>
</svg>