<?xml version="1.0" encoding="UTF-8"?>
<svg width="292px" height="239px" viewBox="0 0 292 239" version="1.1" xmlns="http://www.w3.org/2000/svg" xmlns:xlink="http://www.w3.org/1999/xlink">
    <title>Group</title>
    <g id="Desktop" stroke="none" stroke-width="1" fill="none" fill-rule="evenodd">
        <g id="Homepage" transform="translate(-86.000000, -1323.000000)">
            <g id="Group" transform="translate(86.000000, 1323.000000)">
                <g transform="translate(96.000000, 68.000000)" fill="#FFB3B3" id="Heart">
                    <path d="M99.825684,21.4114006 C98.113684,13.3074006 92.259684,5.92440059 84.606684,2.65240059 C81.833684,1.46640059 78.969684,0.841400587 76.114684,0.693400587 C73.064684,-0.340599413 69.329684,-0.157599413 66.528684,0.841400587 C63.095684,2.06640059 60.268684,4.11840059 57.922684,6.66340059 C56.694684,7.62740059 55.529684,8.68240059 54.457684,9.84340059 C52.719684,11.7264006 51.330684,13.7734006 50.189684,15.9294006 C48.972684,11.6434006 46.412684,7.81640059 42.371684,4.98040059 C34.809684,-0.325599413 24.191684,-0.871599413 16.111684,3.61240059 C13.844684,4.87040059 11.935684,6.36540059 10.331684,8.04140059 C9.03868404,8.86240059 7.81768404,9.80740059 6.69168404,10.8904006 C0.147684042,17.1854006 -0.412315958,26.0304006 0.179684042,34.5734006 C1.25968404,50.1054006 4.23968404,65.6044006 11.863684,79.3254006 C15.534684,85.9304006 20.965684,92.5354006 27.386684,96.8454006 C37.503684,104.452401 51.053684,106.287401 62.367684,97.2114006 C69.622684,91.3914006 75.675684,83.2494006 80.919684,75.6384006 C86.405684,67.6744006 91.122684,59.1154006 95.001684,50.2574006 C98.969684,41.1954006 101.922684,31.3334006 99.825684,21.4114006"></path>
                </g>
                <rect id="Rectangle" x="0" y="0" width="292" height="239"></rect>
            </g>
        </g>
    </g>
</svg>