<?xml version="1.0" encoding="UTF-8"?>
<svg width="292px" height="239px" viewBox="0 0 292 239" version="1.1" xmlns="http://www.w3.org/2000/svg" xmlns:xlink="http://www.w3.org/1999/xlink">
    <title>Group 4</title>
    <g id="Desktop" stroke="none" stroke-width="1" fill="none" fill-rule="evenodd">
        <g id="Homepage" transform="translate(-735.000000, -1323.000000)">
            <g id="Group-4" transform="translate(735.000000, 1323.000000)">
                <g id="Shapes" transform="translate(93.000000, 60.000000)">
                    <path d="M93.0073465,50.7241059 C87.0623465,33.8791059 79.6943465,17.6471059 71.0473465,2.01910593 C69.5363465,-0.711894072 63.9483465,-0.633894072 62.4123465,2.01910593 C53.5873465,17.2701059 44.7623465,32.5201059 35.9373465,47.7711059 C33.8143465,51.4401059 37.8003465,54.1491059 41.1913465,53.8281059 C41.8963465,54.1431059 42.6993465,54.3281059 43.5343465,54.3551059 C58.4173465,54.8331059 73.3023465,55.3101059 88.1863465,55.7871059 C90.7503465,55.8691059 94.0433465,53.6601059 93.0073465,50.7241059" id="Triangle" fill="#99D533"></path>
                    <path d="M47.4420465,82.8216059 C47.5260465,76.5086059 47.6100465,70.1946059 47.6943672,63.8816059 C47.7290465,61.2276059 44.8920465,60.0406059 42.6940465,59.8816059 C36.8980465,59.4616059 31.0980465,59.0996059 25.2950465,58.8206059 C21.2860465,58.6276059 14.1560465,56.9886059 10.7630465,59.8526059 C10.4100465,60.1506059 10.1010465,60.4986059 9.82204654,60.8796059 C7.11404654,60.5486059 3.89804654,61.8226059 3.59004654,64.7506059 C2.99504654,70.4136059 2.39904654,76.0766059 1.80404654,81.7396059 C1.23104654,87.1936059 -0.174953458,93.2516059 0.0180465421,98.7286059 C0.150046542,102.475606 2.42204654,104.318606 6.05104654,104.807606 C11.4990465,105.542606 17.3360465,105.085606 22.8380465,105.182606 C28.4350465,105.281606 34.0750465,105.606606 39.6710465,105.481606 C43.4650465,105.396606 46.5740465,104.310606 47.1700465,100.201606 C47.9770465,94.6216059 47.3670465,88.4576059 47.4420465,82.8216059" id="Square" fill="#FFDF40"></path>
                    <path d="M105.894247,89.0916059 C104.957247,83.2206059 102.388247,78.4996059 98.5002465,75.2196059 C98.6062465,74.0036059 97.9322465,72.7646059 96.0602465,71.8946059 C91.2162465,69.6446059 85.2272465,65.5916059 79.6952465,65.5715334 C74.7212465,65.5536059 70.1452465,68.8906059 67.0562465,72.5426059 C66.3942465,73.3256059 65.7902465,74.1676059 65.2232465,75.0386059 C63.2902465,76.5746059 61.6422465,78.5036059 60.4232465,80.9066059 C56.3992465,88.8426059 54.7652465,98.4126059 59.8162465,105.163606 C60.9302465,109.654606 63.4672465,113.674606 67.8192465,116.311606 C76.3582465,121.485606 88.7342465,120.315606 96.9472465,115.009606 C106.005247,109.159606 107.490247,99.0986059 105.894247,89.0916059" id="Circle" fill="#9CC3E7"></path>
                </g>
                <rect id="Rectangle-Copy-2" x="0" y="0" width="292" height="239"></rect>
            </g>
        </g>
    </g>
</svg>