<?xml version="1.0" encoding="UTF-8"?>
<svg width="292px" height="239px" viewBox="0 0 292 239" version="1.1" xmlns="http://www.w3.org/2000/svg" xmlns:xlink="http://www.w3.org/1999/xlink">
    <title>Group 5</title>
    <g id="Desktop" stroke="none" stroke-width="1" fill="none" fill-rule="evenodd">
        <g id="Homepage" transform="translate(-1061.000000, -1323.000000)">
            <g id="Group-5" transform="translate(1061.000000, 1323.000000)">
                <g id="World" transform="translate(99.000000, 72.000000)">
                    <path d="M90.1309913,23.0894805 C88.4024824,20.2859883 86.0706026,18.0526138 83.4085999,16.2232793 C82.2785161,14.8351665 81.0186087,13.5102623 79.6115677,12.2646789 C69.1502557,2.99778609 55.1762871,0.576024888 41.5893166,0.971389179 C36.3530967,0.765651021 31.0377462,1.15977593 26.1650325,2.96804082 C19.8889871,5.29808742 15.0224555,10.2358032 11.3898666,15.7448762 C3.70059823,27.407503 -1.245064,41.9331127 0.715891078,56.0100645 C1.64938482,62.7151454 4.00846571,69.1140979 7.69298406,74.5599621 C8.20115086,75.8464453 8.77855692,77.1130983 9.45363982,78.3475272 C14.11369,86.8782244 22.1775923,91.4255335 31.5273668,93.1656321 C50.7511558,96.7449803 72.1634004,96.1736231 84.4570803,78.6846403 C90.2694698,70.4142143 92.7831027,60.5053193 93.7376155,50.5542851 C94.6031064,41.5439454 95.0704715,31.1021142 90.1309913,23.0894805" id="Fill-23" fill="#4B7DD1"></path>
                    <path d="M80.6172666,61.8665418 C78.3645248,59.5070403 75.878615,57.7364684 73.070885,56.1550601 C72.8085711,56.0075125 72.5377563,55.8914921 72.2620839,55.7893437 C72.3628804,53.828347 71.2189005,51.8131234 68.2970154,50.9101822 C64.4266713,49.7134067 60.2466511,49.2896801 56.6094749,51.4600179 C53.2722595,53.4512808 51.5077129,57.039085 52.6164748,60.9711671 C53.6948763,64.7935342 56.8049959,68.2829733 57.4923554,72.1810059 C57.8311775,74.0966033 56.5208225,76.4598881 55.8492504,78.3363917 C54.957869,80.8257855 54.0664876,83.3164404 53.1763206,85.8058343 C51.2320404,91.2373537 59.8556091,93.6548654 62.990017,90.5525812 C69.9607654,83.6544129 76.1919344,76.1004771 81.5353652,67.7772758 C82.9307293,65.6044158 82.2385121,63.5639704 80.6172666,61.8665418" id="Fill-25" fill="#7CC76C"></path>
                    <path d="M56.954679,14.7094066 C55.5760101,15.5076147 54.1935606,16.3527762 52.7972488,17.1905241 C52.5842734,17.2560117 52.3750787,17.3042008 52.1759656,17.306672 C50.7380669,17.3252062 48.0021527,15.20736 46.4432739,14.6970505 C46.1118389,14.5883162 45.7778835,14.4981162 45.443928,14.4042094 C47.8975554,13.7060862 50.1243451,12.3333165 51.461427,10.1573963 C55.208029,4.05963004 44.1257492,0.146433334 40.9386801,5.33231479 C41.6015502,5.36938328 41.606591,5.40521615 40.9525424,5.43857779 C40.1157635,5.41880793 39.2802448,5.4015093 38.4434659,5.38297506 C37.0925216,5.4163367 35.6949496,5.48305998 34.3830718,5.81296952 C32.9741579,6.16512015 31.7845204,6.73597487 30.5646379,7.48105147 C30.4184536,7.57001584 30.2798306,7.6651583 30.137427,7.7565939 C30.0996207,7.75412267 30.0756767,7.75041582 30.0366102,7.74794459 C27.9043362,6.39741601 22.8849229,7.89004046 20.6896385,8.62893898 C17.5466767,9.6866265 14.8032013,11.3794208 12.0156185,13.1290534 C10.0396104,14.3683765 9.80521153,17.1571624 11.0629003,18.9203868 C12.554988,21.0122852 15.5454645,21.5448358 17.9436426,21.1173126 C15.6815671,21.5213591 16.9228732,21.972359 17.9852295,22.7853945 C18.2586949,22.9942137 18.5435022,23.1906766 18.8333503,23.3809616 C18.4905734,23.7887149 18.2234091,24.2557779 18.0646227,24.7809148 C17.3400024,27.1829528 15.8189299,29.2736155 16.9291742,31.8758234 C18.0495002,34.5027435 20.6656945,35.6975845 23.3411187,36.1930666 C23.1193219,36.8763624 22.9605355,37.6127897 22.8924842,38.4208827 C22.5182021,42.8592163 25.4998571,46.8836185 29.3031685,48.9891086 C31.6156524,50.2679714 34.1763975,50.9364398 36.7963724,51.2663494 C38.1233727,51.4331576 39.721318,51.2663494 40.9840476,51.6086151 C41.3091816,51.6975795 41.4704884,51.750711 41.5448407,51.7680096 C43.582599,57.1997787 54.9887526,55.2116721 53.1765718,48.8877881 C52.3259305,45.9173666 49.9832016,44.1640271 47.130088,43.1310519 C43.9896466,41.9942849 40.6110257,42.6318629 37.5058702,41.6421343 C35.5802705,41.028033 34.0667593,39.4093757 36.130982,38.2973211 C38.6740842,36.925787 43.4969048,37.531239 46.2945693,37.3261267 C49.0619887,37.1234856 52.3423133,35.7222968 52.3876808,32.546763 C52.4053237,31.3420371 51.8621736,30.3350099 51.0379967,29.5578073 C54.0839224,28.2072787 56.9899648,26.5466104 59.8708031,24.8587586 C61.4170798,24.0840272 62.900346,23.1610219 64.339505,22.2157754 C70.0822783,18.4446746 61.749775,11.92927 56.954679,14.7094066" id="Fill-27" fill="#7CC76C"></path>
                </g>
                <rect id="Rectangle-Copy-3" x="0" y="0" width="292" height="239"></rect>
            </g>
        </g>
    </g>
</svg>