<?xml version="1.0" encoding="UTF-8"?>
<svg width="292px" height="239px" viewBox="0 0 292 239" version="1.1" xmlns="http://www.w3.org/2000/svg" xmlns:xlink="http://www.w3.org/1999/xlink">
    <title>Group 2</title>
    <g id="Desktop" stroke="none" stroke-width="1" fill="none" fill-rule="evenodd">
        <g id="Homepage" transform="translate(-411.000000, -1323.000000)">
            <g id="Group-2" transform="translate(411.000000, 1323.000000)">
                <g id="Think_Bubble" transform="translate(73.000000, 69.000000)">
                    <path d="M10.6912,82.2847 C-3.5458,82.2847 -3.5818,100.4497 10.6912,100.4497 C24.9292,100.4497 24.9652,82.2847 10.6912,82.2847" id="Fill-1" fill="#5EBFAA"></path>
                    <path d="M63.3396,61.4132 C60.5856,59.0212 57.0996,57.5252 53.4306,56.9232 C51.8296,56.2052 50.0466,55.8092 48.1876,55.8762 C45.5416,55.9712 41.8616,57.0672 39.4046,59.1342 C38.2066,59.7782 37.0746,60.5332 36.0516,61.4262 C30.8166,65.9932 32.4026,72.7072 38.3486,75.6902 C39.3596,76.1972 40.4416,76.5682 41.5546,76.8332 C44.2336,78.1592 47.2716,78.8592 50.0896,78.9472 C55.9986,79.1322 61.2606,76.8662 65.1136,72.4202 C68.1066,68.9662 66.3666,64.0432 63.3396,61.4132" id="Fill-4" fill="#5EBFAA"></path>
                    <path d="M101.5506,0.0362 C96.7496,0.3042 91.6276,0.3682 90.0706,3.2322 C76.4616,2.9202 65.1466,10.0702 60.6596,21.1452 C47.2526,54.2442 112.0046,70.7862 132.9006,58.6282 C164.6396,40.1612 127.1716,-1.3968 101.5506,0.0362" id="Fill-6" fill="#5EBFAA"></path>
                    <path d="M114.448,17.6749 C113.651,14.7059 111.185,12.3509 108.384,11.2259 C104.988,9.8629 101.051,9.9129 97.773,11.5949 C94.875,13.0829 97.861,16.2989 100.297,15.0489 C102.771,13.7789 105.847,14.0209 107.967,15.9529 C110.015,17.8229 110.274,20.8929 109.142,23.3309 C108.623,24.4489 107.768,25.4329 106.624,25.9249 C105.135,26.5659 103.525,26.7929 102.229,27.8459 C100.307,29.4079 100.612,31.7119 100.716,33.9169 C100.828,36.3059 100.941,38.6949 101.052,41.0829 C101.177,43.7269 106.177,43.7179 106.052,41.0829 C105.956,39.0129 105.858,36.9429 105.76,34.8729 C105.713,33.8429 105.64,32.8119 105.617,31.7809 C105.603,31.1579 105.568,30.8359 106.043,30.4899 C106.515,30.1439 107.26,30.0359 107.803,29.8579 C108.552,29.6129 109.267,29.3599 109.949,28.9619 C111.224,28.2169 112.35,27.1929 113.144,25.9379 C114.692,23.4869 115.201,20.4839 114.448,17.6749" id="Fill-9" fill="#FFFFFF"></path>
                    <path d="M102.5388,49.2257 C101.4128,49.2257 100.0388,49.9557 100.0388,51.2257 C100.0388,52.5007 101.4188,53.2257 102.5388,53.2257 C103.6638,53.2257 105.0388,52.4957 105.0388,51.2257 C105.0388,49.9507 103.6588,49.2257 102.5388,49.2257" id="Fill-11" fill="#FFFFFF"></path>
                </g>
                <rect id="Rectangle-Copy" x="0" y="0" width="292" height="239"></rect>
            </g>
        </g>
    </g>
</svg>