<?xml version="1.0" encoding="UTF-8"?>
<svg xmlns="http://www.w3.org/2000/svg" viewBox="0 0 16 16"><defs/><defs><linearGradient id="a" x1="49.874%" x2="49.874%" y1="548.809%" y2="-488.167%"><stop offset="0%" stop-color="#C35822"/><stop offset="24.04%" stop-color="#C55D21"/><stop offset="50.87%" stop-color="#CC6A1C"/><stop offset="78.93%" stop-color="#D68015"/><stop offset="100%" stop-color="#E1960E"/></linearGradient><linearGradient id="b" x1="50.078%" x2="50.078%" y1="170.585%" y2="2.277%"><stop offset="0%" stop-color="#C35822"/><stop offset="24.04%" stop-color="#C55D21"/><stop offset="50.87%" stop-color="#CC6A1C"/><stop offset="78.93%" stop-color="#D68015"/><stop offset="100%" stop-color="#E1960E"/></linearGradient><linearGradient id="c" x1="49.94%" x2="49.94%" y1="675.337%" y2="-599.863%"><stop offset="0%" stop-color="#C35822"/><stop offset="24.04%" stop-color="#C55D21"/><stop offset="50.87%" stop-color="#CC6A1C"/><stop offset="78.93%" stop-color="#D68015"/><stop offset="100%" stop-color="#E1960E"/></linearGradient><linearGradient id="d" x1="49.78%" x2="49.78%" y1="554.574%" y2="-504.607%"><stop offset="0%" stop-color="#C35822"/><stop offset="24.04%" stop-color="#C55D21"/><stop offset="50.87%" stop-color="#CC6A1C"/><stop offset="78.93%" stop-color="#D68015"/><stop offset="100%" stop-color="#E1960E"/></linearGradient><linearGradient id="e" x1="50.287%" x2="50.287%" y1="2314.184%" y2="-5337.016%"><stop offset="0%" stop-color="#C35822"/><stop offset="24.04%" stop-color="#C55D21"/><stop offset="50.87%" stop-color="#CC6A1C"/><stop offset="78.93%" stop-color="#D68015"/><stop offset="100%" stop-color="#E1960E"/></linearGradient><linearGradient id="f" x1="49.811%" x2="49.811%" y1="996.8%" y2="-2294.995%"><stop offset="0%" stop-color="#C35822"/><stop offset="24.04%" stop-color="#C55D21"/><stop offset="50.87%" stop-color="#CC6A1C"/><stop offset="78.93%" stop-color="#D68015"/><stop offset="100%" stop-color="#E1960E"/></linearGradient><linearGradient id="g" x1="383.348%" x2="-1538.192%" y1="961.983%" y2="-4007.043%"><stop offset="0%" stop-color="#C84B0E"/><stop offset="100%" stop-color="#EF9000"/></linearGradient><linearGradient id="h" x1="200.177%" x2="-789.192%" y1="455.915%" y2="-2087.357%"><stop offset="0%" stop-color="#C84B0E"/><stop offset="100%" stop-color="#EF9000"/></linearGradient><linearGradient id="i" x1="466.793%" x2="-1454.747%" y1="1177.823%" y2="-3791.203%"><stop offset="0%" stop-color="#C84B0E"/><stop offset="100%" stop-color="#EF9000"/></linearGradient><linearGradient id="j" x1="302.36%" x2="-1619.804%" y1="752.341%" y2="-4216.685%"><stop offset="0%" stop-color="#C84B0E"/><stop offset="100%" stop-color="#EF9000"/></linearGradient><linearGradient id="k" x1="49.97%" x2="49.97%" y1="99.64%" y2="-86.556%"><stop offset="0%" stop-color="#C35822"/><stop offset="24.04%" stop-color="#C55D21"/><stop offset="50.87%" stop-color="#CC6A1C"/><stop offset="78.93%" stop-color="#D68015"/><stop offset="100%" stop-color="#E1960E"/></linearGradient></defs><g fill="none" fill-rule="nonzero"><path fill="url(#a)" d="M9.821 7.604c-.296 0-.514.194-.665.582-.128.327-.134.61-.017.776.073.1.185.155.324.155.392 0 .587-.41.632-.56.123-.454.095-.598.039-.776-.04-.1-.173-.177-.313-.177z"/><path fill="url(#b)" d="M1.088 8.78c.005-.012.005-.018.01-.029.118-.393.336-1.125.504-1.612a.275.275 0 01.145-.161.27.27 0 01.218-.011c.05.016.095.055.14.122.223-.1.413-.144.614-.128a.64.64 0 01.52.31c.29-.204.575-.31.899-.31.324 0 .492.144.58.266.185.26.18.654-.021 1.214-.135.371-.174.648-.107.743a.082.082 0 00.073.038c.307 0 .564-.56.777-1.108.022-.05.033-.083.044-.11.162-.356.486-1.07 1.442-.982.19.017.357.094.486.222l.028.028.01-.034a.282.282 0 01.515-.027.29.29 0 01.022.216c-.028.088-.257.842-.346 1.103 0 .005-.168.487-.05.66a.139.139 0 00.117.06c.223 0 .435-.3.642-.909.078-.227.151-.454.212-.66.05-.166.095-.315.14-.448a.286.286 0 01.363-.178c.05.017.09.061.123.1.257-.122.48-.183.71-.183.43 0 .754.266.865.704.068.266.05.865-.257 1.402l-.027.05.055-.016c.24-.067.442-.2.626-.632.212-.499.587-1.84.592-1.851a.277.277 0 01.14-.167.271.271 0 01.218-.016c.15.044.234.205.184.354l-.084.267c-.173.543-.57 1.806-.575 1.817-.084.278-.034.36-.022.372.022.033.106.066.273.066.14 0 .319-.044.509-.133l.01-.033a1.375 1.375 0 01-.144-.937c.072-.399.257-.72.52-.925.24-.183.535-.266.837-.233a.857.857 0 01.62.393c.257.433.006.893-.251 1.198a4.612 4.612 0 01-.576.565l-.033.028.045.01c.117.034.234.045.352.045.268 0 .508-.078.72-.188.47-.388 1.034-.82 1.252-1.142.43-.632.095-.665-.263-.682-.989-.033.173-1.74.246-2.084.067-.332-.157-.499-.369-.454-.268.055-1.324.704-1.832.765-.514.06-.564-.222-.704-.327-.352-.277-.933.46-1.162.648-.235.189-.598.532-.866.316-.268-.216-.168-.804-.073-1.092a4.46 4.46 0 00.235-1.286c.017-.15.04-.443.084-.615.044-.172-.118-.355-.28-.105-.162.244-.346.443-.698.294-.547-.233-.251-1.464-.732-1.464-.82 0-1.195-1.485-1.218-1.712C8.105.044 8.032 0 7.975 0c-.055 0-.128.044-.139.172-.017.227-.39 1.712-1.218 1.712-.48 0-.184 1.23-.732 1.464-.351.15-.536-.05-.698-.294-.162-.25-.324-.067-.28.105.046.172.068.466.085.615.01.333.067.77.234 1.286.095.288.218.732-.05.948-.268.216-.654.022-.888-.172-.23-.188-.81-.925-1.162-.648-.14.11-.19.388-.704.327C1.92 5.459.859 4.81.59 4.75c-.213-.045-.436.122-.37.454.068.338 1.235 2.051.247 2.084-.358.011-.699.05-.263.682.173.216.525.515.883.81z"/><path fill="url(#c)" d="M13.58 7.632a.283.283 0 00-.133-.033.463.463 0 00-.274.1c-.224.166-.414.537-.285 1.097l.006.033.027-.017c.503-.282.771-.71.771-.97 0-.1-.039-.171-.111-.21z"/><path fill="url(#d)" d="M7.045 7.815c-.028-.05-.095-.111-.269-.122h-.044c-.274 0-.486.177-.66.532-.15.316-.178.598-.072.77.061.106.167.167.313.178.357.027.575-.327.642-.51l.017.005-.017-.005c.14-.422.173-.688.09-.848z"/><path fill="url(#e)" d="M4.067 11.162H3.96v.205h.106c.1 0 .15-.033.15-.105 0-.066-.044-.1-.15-.1z"/><path fill="url(#f)" d="M5.09 11.157c-.068 0-.118.022-.152.066a.255.255 0 00-.055.172c0 .067.016.128.055.172.04.044.09.066.151.066.067 0 .118-.022.151-.066a.255.255 0 00.056-.172.246.246 0 00-.056-.172c-.033-.044-.084-.066-.15-.066z"/><path fill="url(#g)" d="M10.761 11.486h.171l-.084-.241z"/><path fill="url(#h)" d="M11.718 11.157v.47h.061c.181 0 .272-.08.272-.241 0-.153-.091-.23-.273-.23h-.06z"/><path fill="url(#i)" d="M8.69 11.486h.171l-.084-.241z"/><path fill="url(#j)" d="M12.773 11.486h.171l-.084-.241z"/><path fill="url(#k)" d="M15.794 10.428c-.447-.172-1.184-.41-1.463-.703-.196.066-.397.11-.587.11-.33 0-.637-.083-.883-.238-.357.177-.681.277-.955.277-.34 0-.586-.1-.732-.294a.452.452 0 01-.067-.11 3.24 3.24 0 01-1.022.304c-.877.1-1.358-.177-1.43-.254l-.04-.04-.01.04c-.095.326-.168.565-.19.631a.289.289 0 01-.358.21.282.282 0 01-.195-.348c.005-.011.027-.095.067-.233l.01-.044-.044.016a.802.802 0 01-.28.05.638.638 0 01-.524-.255c-.24.166-.475.255-.732.255-.61 0-.816-.271-.888-.432a.154.154 0 00-.023-.039l-.022.028c-.24.288-.497.432-.777.432a.604.604 0 01-.508-.244c-.235-.332-.112-.88.033-1.29.118-.322.135-.544.062-.65a.143.143 0 00-.129-.066c-.156 0-.541.056-.731.549-.134.343-.425 1.38-.436 1.424-.034.105-.157.25-.358.188a.278.278 0 01-.167-.138.29.29 0 01-.023-.216c.006-.011.319-1.064.436-1.408.034-.1.034-.26-.028-.354a.15.15 0 00-.117-.072c-.235-.017-.47-.006-.693.61-.112.31-.229.703-.34 1.052-.24.765-.744.986-1.43 1.252-.207.078-.314.316-.112.394 1.072.404 1.446 1.274 3.027 1.667.637.161.643.676.034 1.025-.162.095-.436.688 1.156.145.654-.222 1.235-.743 1.704.127a.243.243 0 00.324.105c.196-.11 1.05-.875 1.196-.947a.223.223 0 01.318.232 5.566 5.566 0 01-.33 1.098c-.156.343-.357.659-.625.886a.463.463 0 00-.123.166c-.095.233.016.524.256.613.23.083.487-.07.582-.297.179-.426.29-.831.369-1.235.078-.405.134-1.031.15-1.203.023-.2.246-.366.42-.266.117.067.223.205.329.316.318.321.57.526.765.637a.234.234 0 00.324-.105c.47-.87 1.045-.355 1.704-.127 1.598.543 1.324-.05 1.157-.145-.61-.349-.598-.864.033-1.025 1.576-.399 1.898-1.247 2.97-1.651.201-.078.147-.332-.054-.41z"/></g></svg>
