<svg xmlns="http://www.w3.org/2000/svg" viewBox="0 0 288 288"><path d="M175.55 136.874c-5.292 0-9.186 3.492-11.883 10.475-2.296 5.886-2.396 10.974-.3 13.967 1.299 1.796 3.296 2.793 5.793 2.793 6.99 0 10.485-7.382 11.283-10.076 2.197-8.18 1.698-10.774.7-13.966-.7-1.796-3.096-3.193-5.593-3.193z" transform="translate(1)"/><path d="M19.443 158.024c.1-.2.1-.3.2-.499 2.097-7.083 5.991-20.252 8.987-29.03.4-1.298 1.398-2.295 2.596-2.894a4.81 4.81 0 013.895-.2c.898.3 1.697.998 2.496 2.195 3.994-1.795 7.39-2.594 10.984-2.294 3.396.2 6.192 1.696 8.289 4.19.4.399.699.898.998 1.396 5.193-3.69 10.286-5.586 16.077-5.586 5.792 0 8.788 2.594 10.386 4.788 3.295 4.69 3.195 11.772-.4 21.848-2.396 6.684-3.095 11.672-1.897 13.368.3.5.799.699 1.298.699 5.492 0 10.086-10.076 13.88-19.953.4-.898.6-1.496.8-1.995 2.895-6.385 8.687-19.254 25.763-17.658 3.395.3 6.39 1.696 8.687 3.99l.5.5.2-.6c.998-2.493 3.694-3.79 6.19-2.992 1.299.399 2.397 1.297 2.996 2.494.6 1.197.799 2.594.4 3.89-.5 1.597-4.594 15.165-6.192 19.853 0 .1-2.995 8.78-.898 11.872.499.699 1.198 1.098 2.097 1.098 3.994 0 7.789-5.388 11.483-16.361 1.398-4.09 2.697-8.181 3.795-11.872.899-2.993 1.698-5.687 2.496-8.08.9-2.695 3.795-4.091 6.491-3.193.899.299 1.598 1.097 2.197 1.795 4.594-2.194 8.588-3.292 12.682-3.292 7.69 0 13.48 4.789 15.478 12.67 1.198 4.789.899 15.563-4.593 25.24l-.5.898.999-.3c4.294-1.197 7.889-3.59 11.184-11.372 3.795-8.979 10.485-33.122 10.585-33.321.4-1.297 1.298-2.394 2.496-2.993 1.199-.599 2.597-.798 3.895-.3 2.696.799 4.194 3.692 3.295 6.386l-1.498 4.788c-3.095 9.777-10.185 32.523-10.285 32.722-1.498 4.988-.6 6.485-.4 6.684.4.599 1.898 1.198 4.893 1.198 2.497 0 5.692-.799 9.088-2.395l.2-.598c-2.797-4.988-3.695-10.775-2.597-16.86 1.298-7.183 4.593-12.97 9.287-16.66 4.294-3.293 9.586-4.79 14.978-4.19 4.394.498 8.888 3.292 11.085 7.083 4.593 7.781.1 16.061-4.494 21.548-2.896 3.492-6.49 6.984-10.285 10.176l-.6.499.8.2c2.096.598 4.194.797 6.29.797 4.794 0 9.088-1.396 12.882-3.391 8.388-6.984 18.474-14.765 22.368-20.552 7.69-11.372 1.698-11.971-4.693-12.27-17.675-.599 3.096-31.326 4.394-37.511 1.198-5.986-2.796-8.979-6.59-8.18-4.794.997-23.667 12.67-32.754 13.767-9.187 1.097-10.086-3.99-12.582-5.886-6.291-4.988-16.677 8.28-20.77 11.672-4.195 3.392-10.686 9.577-15.479 5.686-4.793-3.89-2.996-14.465-1.298-19.653 3.096-9.278 3.994-17.159 4.194-23.145.3-2.693.7-7.98 1.498-11.073.799-3.093-2.097-6.385-4.993-1.896-2.896 4.39-6.191 7.981-12.482 5.288-9.786-4.19-4.494-26.338-13.082-26.338-14.679 0-21.37-26.736-21.769-30.826C144.864.798 143.566 0 142.568 0c-.999 0-2.297.798-2.497 3.093-.3 4.09-6.99 30.826-21.769 30.826-8.587 0-3.295 22.148-13.081 26.338-6.291 2.693-9.586-.898-12.482-5.288-2.896-4.49-5.792-1.197-4.993 1.896.799 3.092 1.198 8.38 1.498 11.073.2 5.986 1.198 13.867 4.194 23.145 1.697 5.188 3.894 13.169-.899 17.06-4.793 3.89-11.683.399-15.877-3.093-4.095-3.392-14.48-16.66-20.77-11.672-2.497 1.995-3.396 6.983-12.583 5.886-8.987-.998-27.96-12.67-32.753-13.768-3.795-.798-7.79 2.195-6.591 8.181 1.198 6.085 22.069 36.912 4.394 37.51-6.391.2-12.483.899-4.694 12.271 3.096 3.891 9.387 9.278 15.778 14.566z" transform="translate(1)"/><path d="M242.755 137.373c-.7-.4-1.598-.599-2.397-.599-1.597 0-3.295.599-4.893 1.796-3.994 2.993-7.39 9.677-5.092 19.753l.1.599.499-.3c8.987-5.088 13.78-12.77 13.78-17.458 0-1.796-.699-3.093-1.997-3.791z" transform="translate(1)"/><path d="M125.921 140.665c-.5-.898-1.698-1.995-4.793-2.195h-.8c-4.892 0-8.687 3.193-11.782 9.578-2.696 5.686-3.196 10.774-1.298 13.867 1.098 1.895 2.995 2.992 5.592 3.192 6.39.499 10.285-5.886 11.483-9.178l.3.1-.3-.1c2.497-7.582 3.096-12.37 1.598-15.264z" transform="translate(1)"/><path d="M72.697 200.922h-1.898v3.69h1.898c1.797 0 2.696-.598 2.696-1.895 0-1.197-.799-1.795-2.696-1.795z" transform="translate(1)"/><path d="M90.97 200.822c-1.198 0-2.096.399-2.695 1.197-.7.798-1 1.896-1 3.093s.3 2.294 1 3.092c.699.798 1.597 1.197 2.696 1.197 1.198 0 2.097-.399 2.696-1.197.699-.798.998-1.895.998-3.092 0-1.297-.3-2.295-.998-3.093-.6-.798-1.498-1.197-2.696-1.197z" transform="translate(1)"/><path d="M192.359 206.743h3.059l-1.507-4.324z" transform="translate(1)"/><path d="M209.463 200.822v8.45h1.086c3.236 0 4.854-1.442 4.854-4.324 0-2.751-1.618-4.126-4.876-4.126h-1.064z" transform="translate(1)"/><path d="M155.338 206.743h3.059l-1.507-4.324z" transform="translate(1)"/><path d="M228.318 206.743h3.058l-1.507-4.324z" transform="translate(1)"/><path d="M282.323 187.708c-7.988-3.092-21.17-7.38-26.162-12.667-3.495 1.197-7.09 1.995-10.485 1.995-5.892 0-11.384-1.496-15.778-4.289-6.39 3.192-12.183 4.987-17.076 4.987-6.091 0-10.485-1.795-13.081-5.286a8.151 8.151 0 01-1.198-1.995c-5.892 2.793-11.983 4.788-18.274 5.486-15.678 1.795-24.266-3.192-25.564-4.588l-.7-.698-.199.698c-1.697 5.884-2.996 10.173-3.395 11.37-.699 2.493-2.696 3.99-4.993 3.99-.5 0-.998-.1-1.398-.2-2.696-.798-4.294-3.59-3.495-6.283.1-.2.5-1.696 1.198-4.19l.2-.797-.799.299a14.254 14.254 0 01-4.993.898c-3.794 0-7.19-1.596-9.386-4.588-4.294 2.992-8.488 4.588-13.082 4.588-10.884 0-14.579-4.887-15.877-7.78 0-.066-.133-.299-.4-.698l-.4.499c-4.293 5.186-8.886 7.78-13.88 7.78-3.894 0-7.09-1.597-9.086-4.39-4.194-5.983-1.998-15.857.599-23.238 2.097-5.784 2.396-9.774 1.098-11.669-.5-.798-1.298-1.197-2.297-1.197-2.796 0-9.686.998-13.081 9.874-2.397 6.184-7.59 24.834-7.789 25.632-.599 1.895-2.796 4.488-6.39 3.391-1.299-.399-2.397-1.296-2.997-2.493-.599-1.197-.798-2.593-.399-3.89.1-.2 5.692-19.149 7.789-25.333.6-1.795.6-4.687-.5-6.383-.499-.798-1.198-1.196-2.096-1.296-4.194-.3-8.388-.1-12.383 10.97-1.997 5.586-4.094 12.667-6.091 18.95-4.294 13.764-13.281 17.753-25.564 22.54-3.695 1.397-5.592 5.686-1.997 7.082 19.173 7.28 25.863 22.94 54.123 30.02 11.384 2.893 11.484 12.168.6 18.451-2.897 1.696-7.79 12.368 20.67 2.593 11.683-3.989 22.069-13.364 30.457 2.294 1.098 2.095 3.694 2.992 5.791 1.895 3.495-1.994 18.774-15.758 21.37-17.054 2.896-1.397 6.191.997 5.692 4.188-.6 3.69-3.096 13.565-5.892 19.748-2.796 6.184-6.39 11.869-11.184 15.958-.899.798-1.697 1.795-2.197 2.992-1.697 4.189.292 9.424 4.586 11.02 4.094 1.495 8.695-1.246 10.393-5.335 3.195-7.68 5.193-14.96 6.59-22.241 1.399-7.28 2.397-18.551 2.697-21.643.4-3.59 4.394-6.582 7.49-4.787 2.096 1.197 3.993 3.69 5.89 5.685 5.693 5.784 10.186 9.475 13.681 11.47 2.097 1.196 4.694.299 5.792-1.896 8.388-15.658 18.674-6.383 30.457-2.294 28.56 9.775 23.666-.897 20.67-2.593-10.884-6.283-10.684-15.558.6-18.45 28.16-7.182 33.918-22.445 53.09-29.726 3.596-1.396 2.63-5.98-.965-7.376zM62.112 200.922h-6.89v2.893h6.39v3.392h-6.39v5.686h-3.995V197.33h10.985v3.592h-.1zm13.181 11.971l-2.896-4.788H70.8v4.788h-3.994V197.33h6.191c4.094 0 6.491 1.896 6.491 5.387 0 2.195-.899 3.692-2.796 4.59l3.295 5.586h-4.693zm21.27-1.995c-1.498 1.496-3.395 2.294-5.592 2.294-2.197 0-4.094-.798-5.592-2.294-1.498-1.497-2.297-3.392-2.297-5.687 0-2.294.799-4.19 2.297-5.686 1.498-1.496 3.395-2.295 5.592-2.295 2.197 0 4.094.799 5.592 2.295 1.498 1.496 2.296 3.392 2.296 5.686 0 2.195-.699 4.09-2.296 5.687zm43.134-13.664c2.504 0 4.565.927 6.138 2.76l-2.548 2.603c-1.042-1.17-1.796-1.72-3.391-1.72-1.13 0-2.06.418-2.837 1.234-.775.818-1.152 1.855-1.152 3.09 0 1.26.377 2.32 1.152 3.137.776.815 1.729 1.213 2.881 1.213 1.75 0 2.703-.662 3.79-2.141l2.438 2.694c-1.553 2.052-3.745 3.09-6.56 3.09-2.282 0-4.166-.751-5.651-2.274-1.485-1.524-2.217-3.444-2.217-5.718 0-2.273.754-4.15 2.262-5.673 1.529-1.523 3.412-2.295 5.695-2.295zm-31.251.096l3.195 7.682 3.196-7.682h4.793v15.563h-4.194v-7.98L113.239 210h-3.395l-2.197-5.088v7.981h-3.994V197.33h4.793zm50.68.002l5.674 15.56h-4.298l-.886-2.53h-5.542l-.886 2.53h-4.166l5.672-15.56h4.433zm14.49 0l4.765 9.634v-9.634h4.055v15.56h-5.23l-4.766-9.632v9.632h-4.032v-15.56h5.208zm22.532 0l5.674 15.56h-4.298l-.887-2.53h-5.54l-.886 2.53h-4.167l5.672-15.56h4.432zm14.888 0c2.216 0 4.1.49 5.763 1.62 1.662 1.133 2.658 3.243 2.658 6.061 0 5.903-4.232 7.879-8.42 7.879h-5.608v-15.56h5.607zm21.071 0l5.674 15.56h-4.299l-.887-2.53h-5.54l-.885 2.53h-4.168l5.674-15.56h4.431z" transform="translate(1)"/></svg>
