<?xml version="1.0" encoding="UTF-8"?>
<svg width="292px" height="239px" viewBox="0 0 292 239" version="1.1" xmlns="http://www.w3.org/2000/svg" xmlns:xlink="http://www.w3.org/1999/xlink">
    <title>Group</title>
    <defs>
        <polygon id="path-1" points="0.000276715759 0.362088637 137.246 0.362088637 137.246 136 0.000276715759 136"></polygon>
    </defs>
    <g id="Desktop" stroke="none" stroke-width="1" fill="none" fill-rule="evenodd">
        <g id="About" transform="translate(-86.000000, -3654.000000)">
            <g id="Group" transform="translate(86.000000, 3654.000000)">
                <g id="Group-14" transform="translate(77.000000, 51.000000)">
                    <path d="M39.5522,51.3708 C38.8092,49.2048 37.4152,47.2648 35.5002,46.0288 C30.9802,43.1128 24.1102,44.1268 21.0742,48.7268 C19.3962,50.4458 18.4092,52.7358 18.2612,55.2258 C18.1812,56.5778 18.4032,57.9378 18.8722,59.2008 C19.0012,60.0768 19.2702,60.9388 19.7712,61.7658 C21.0872,63.9348 23.6492,65.3068 26.0922,65.7438 C29.8862,66.4238 33.8882,65.1678 36.6772,62.5878 C38.5062,61.5158 39.9122,59.7438 40.4532,57.5898 C41.0202,55.3358 40.6392,53.1698 39.5522,51.3708" id="Fill-1" fill="#BFEAF6"></path>
                    <path d="M54.0048,101.2643 C53.9348,101.0193 53.8558,100.7773 53.7838,100.5333 C54.1758,99.9253 54.2048,99.1213 53.4758,98.6563 C53.3558,98.5793 53.2458,98.4903 53.1278,98.4113 C51.3018,92.8023 48.8788,87.4113 45.9248,82.2963 C45.9928,81.5273 45.0888,80.8403 44.4248,80.6933 C43.3988,80.4643 42.4348,80.8913 41.9638,81.8103 C38.9378,87.7213 36.4868,93.9043 34.6298,100.2783 C33.9758,100.5393 33.4548,101.2263 33.5828,101.9223 C33.7488,102.8233 34.6828,103.3103 35.5468,103.3103 C41.0568,103.3023 46.5668,103.2963 52.0758,103.2893 C53.1608,103.2873 54.3498,102.4723 54.0048,101.2643" id="Fill-3" fill="#FFD499"></path>
                    <path d="M109.3691,45.9977 C109.3691,44.9957 108.2651,44.3727 107.3691,44.3967 L91.4421,44.8277 C90.5421,44.8517 89.4421,45.3947 89.4421,46.4277 C89.4421,46.6737 89.5101,46.8957 89.6241,47.0927 C89.6921,51.7677 89.7611,56.4427 89.8291,61.1177 C89.8331,61.3667 89.8951,61.5837 89.9961,61.7737 C89.9321,61.9287 89.8871,62.0917 89.8871,62.2747 C89.8871,63.2927 90.9901,63.8787 91.8871,63.8757115 C96.1631,63.8607 100.4401,63.8477 104.7171,63.8337 C105.1061,63.8317 105.5281,63.7177 105.8871,63.5127 C106.0851,63.5627 106.2791,63.5957 106.4461,63.5957 C107.4681,63.5957 108.2961,63.0097 108.4461,61.9957 C109.1831,56.9977 109.3661,51.9407 109.0111,46.9017 C109.2271,46.6617 109.3691,46.3617 109.3691,45.9977" id="Fill-5" fill="#CEECC8"></path>
                    <path d="M98.706,99.0446 C98.478,98.9466 98.268,98.8216 98.065,98.6856 C98.432,98.6766 98.797,98.6766 99.163,98.6816 C99.467,98.9646 99.855,99.1726 100.283,99.2906 C99.749,99.3416 99.196,99.2546 98.706,99.0446 M104.834,92.7476 C104.627,92.5796 104.396,92.4386 104.163,92.3036 C104.2,92.2336 104.245,92.1706 104.28,92.0996 C105.165,90.3146 105.099,88.0826 103.845,86.4846 C101.586,83.6066 97.017,83.6836 94.44,85.9906 C94.254,85.8846 94.053,85.8026 93.85,85.7566 C90.428,84.9816 85.611,85.7936 84.597,89.7816 C84.297,90.9596 84.489,92.0566 84.999,92.9586 C84.709,93.2696 84.457,93.6176 84.267,94.0156 C82.946,96.7736 84.858,99.7516 87.337,100.9936 C89.618,102.1366 93.035,102.4226 95.281,100.9546 C96.063,101.5276 96.94,101.9776 97.915,102.2406 C100.62,102.9746 104.024,102.2066 105.635,99.7596 C107.078,97.5656 106.966,94.4706 104.834,92.7476" id="Fill-7" fill="#E5D6FF"></path>
                    <path d="M79.7978,19.8688 C77.9638,20.6888 76.0718,21.3048 74.1488,21.7578 C73.3208,20.1418 72.4928,18.5258 71.6648,16.9098 C71.3528,16.3008 70.8098,15.9118 70.1828,15.7848 C69.1768,15.2008 67.4528,15.6438 67.0128,16.6948 C66.1558,18.7428 65.1568,20.7298 64.0498,22.6548 C61.2458,22.5258 58.4448,22.1188 55.7068,21.4568 C53.8688,21.0128 51.9818,23.4098 54.1658,24.3818 C56.4238,25.3868 58.6398,26.4748 60.8248,27.6188 C59.2648,29.7408 57.5488,31.7478 55.6828,33.6058 C54.4448,34.8398 55.5818,36.1578 56.8848,36.3558 C57.4658,36.7658 58.2868,36.9038 59.0378,36.4488 L67.4508,31.3458 C70.2708,33.0618 73.0218,34.8938 75.6918,36.8498 C76.3228,37.3128 77.5448,37.3608 78.3518,36.9648 C78.7268,37.0848 79.1388,37.1088 79.5598,37.0158 C80.3158,36.8478 81.4268,35.9658 80.9568,35.0478 C79.4068,32.0228 77.8578,28.9988 76.3078,25.9728 C78.1448,24.8598 79.9808,23.7458 81.8168,22.6328 C84.0568,21.2728 81.7888,18.9778 79.7978,19.8688" id="Fill-9" fill="#ACACFB"></path>
                    <g id="Group-13" transform="translate(0.000000, 0.638000)">
                        <mask id="mask-2" fill="white">
                            <use xlink:href="#path-1"></use>
                        </mask>
                        <g id="Clip-12"></g>
                        <path d="M133.0585,67.9935 C131.4985,82.5655 123.6965,95.5975 115.6295,107.4795 C111.7955,113.1285 107.8075,118.8225 102.7305,123.4385 C97.4435,128.2465 91.2465,131.2235 84.1735,132.2885 C77.2045,133.3375 69.9505,132.7645 63.0215,131.6645 C56.4175,130.6155 49.9015,128.9165 43.6975,126.4135 C31.4675,121.4795 20.5085,113.4455 13.3775,102.2225 C6.4955,91.3915 3.4205,78.3305 4.0685,65.5635 C4.7135,52.8455 9.2955,40.6855 16.9255,30.5175 C24.4075,20.5475 34.5415,12.6475 45.9535,7.6585 C48.2125,6.6705 50.5205,5.8075 52.8685,5.0615 C66.0965,2.4525 80.1285,3.1795 92.8505,7.7715 C105.3915,12.3005 116.2465,20.4395 123.6475,31.5745 C130.7285,42.2275 134.4275,55.2015 133.0585,67.9935 M131.8055,38.3415 C125.9375,25.8135 116.1295,15.5665 103.9435,9.0425 C91.2505,2.2465 76.4515,-0.4685 62.1415,0.5805 C59.5815,0.7675 57.0325,1.0735 54.5005,1.4895 C54.1575,1.3875 53.7585,1.3765 53.3225,1.5045 C52.8125,1.6535 52.3075,1.8165 51.8015,1.9765 C51.7015,1.9965 51.6005,2.0125 51.5015,2.0315 C51.3035,2.0715 51.1135,2.1475 50.9355,2.2465 C39.2155,6.0925 28.4335,12.7005 19.8105,21.5455 C10.5975,30.9965 3.8435,42.8325 1.2815,55.8445 C-1.3315,69.1095 0.0385,83.1895 5.5185,95.5835 C11.1505,108.3205 20.9685,118.3685 33.0915,125.0945 C45.4895,131.9725 59.8915,135.4475 74.0135,135.9535 C81.6985,136.2275 89.6625,135.3485 96.6265,131.8895 C103.0255,128.7115 108.1885,123.6155 112.5935,118.0765 C117.2365,112.2375 121.4065,105.9215 125.2425,99.5285 C129.1855,92.9585 132.6845,86.0395 134.8855,78.6775 C138.8985,65.2515 137.7455,51.0225 131.8055,38.3415" id="Fill-11" fill="#5EBFAA" mask="url(#mask-2)"></path>
                    </g>
                </g>
                <rect id="Rectangle" x="0" y="0" width="292" height="239"></rect>
            </g>
        </g>
    </g>
</svg>