<?xml version="1.0" encoding="UTF-8"?>
<svg width="292px" height="239px" viewBox="0 0 292 239" version="1.1" xmlns="http://www.w3.org/2000/svg" xmlns:xlink="http://www.w3.org/1999/xlink">
    <title>Group 5</title>
    <defs>
        <polygon id="path-1" points="0.244171983 0.474 91.1593747 0.474 91.1593747 109 0.244171983 109"></polygon>
        <polygon id="path-3" points="0 0.117564472 42.5436112 0.117564472 42.5436112 69.6956692 0 69.6956692"></polygon>
        <polygon id="path-5" points="0.443400309 0.771916892 39.692 0.771916892 39.692 77.634541 0.443400309 77.634541"></polygon>
    </defs>
    <g id="Desktop" stroke="none" stroke-width="1" fill="none" fill-rule="evenodd">
        <g id="About" transform="translate(-1061.000000, -3654.000000)">
            <g id="Group-5" transform="translate(1061.000000, 3654.000000)">
                <g id="Group-12" transform="translate(65.000000, 65.000000)">
                    <g id="Group-3" transform="translate(31.000000, 0.526000)">
                        <mask id="mask-2" fill="white">
                            <use xlink:href="#path-1"></use>
                        </mask>
                        <g id="Clip-2"></g>
                        <path d="M87.7312,85.1587 C86.7102,86.0947 85.6372,86.9537 84.5282,87.7527 C84.1972,87.8087 83.8812,87.9287 83.6182,88.1197 C80.3872,90.4507 76.1762,90.0917 72.4702,89.3707 C68.7042,88.6377 64.8132,87.6837 61.2862,86.1487 C57.7692,84.6197 54.8442,82.2737 53.5012,78.5827 C52.1282,74.8157 52.1752,70.7207 51.5312,66.8047 C50.8832,62.8677 49.4662,59.4107 46.6722,56.5107 C44.0852,53.8227 40.9222,51.8287 38.1082,49.4047 C35.0592,46.7767 32.9532,43.5127 32.3022,39.4887 C31.6262,35.2967 32.4282,31.0437 34.0652,27.1677 C35.9942,22.6017 39.0632,18.5927 42.2812,14.8627 C45.7852,10.8027 49.6392,7.0697 53.7672,3.6467 C55.9342,3.3707 55.8342,0.4707 53.4362,0.473697674 C40.8932,0.4967 29.1772,6.3247 20.1822,14.8247 C10.5822,23.8967 2.9012,36.2977 0.7982,49.4607 C-1.1398,61.5937 2.1192,74.2307 8.8122,84.4347 C15.8362,95.1437 26.6852,102.6137 38.9212,106.1607 C44.4542,107.7637 50.2532,108.5447 56.0282,108.5277 C56.3812,108.7077 56.7902,108.8087 57.1582,108.8407 C64.9002,109.5057 73.5572,108.1387 80.1882,103.8907 C86.2012,100.0407 88.8622,93.1797 91.0732,86.7157 C91.6902,84.9137 88.8292,84.1517 87.7312,85.1587" id="Fill-1" fill="#FFDF40" mask="url(#mask-2)"></path>
                    </g>
                    <path d="M131.5378,41.3068 C129.2368,35.2188 125.8878,29.4118 122.1218,24.1168 C118.3928,18.8698 113.9758,14.0348 108.8468,10.1278 C103.2558,5.8708 96.8458,2.7078 89.9678,1.1988 C89.0568,0.9978 87.8368,1.3538 87.5078,2.3158 C87.3728,2.7078 87.4418,3.0728 87.6228,3.3838 C81.7678,9.8418 75.8848,16.3938 71.4818,23.9598 C69.2538,27.7908 67.0058,32.0008 66.5828,36.4848 C66.1728,40.8328 68.3028,44.5118 71.4368,47.3488 C74.4898,50.1108 78.3068,51.8568 81.3388,54.6418 C84.3828,57.4378 86.1228,61.5178 86.6728,65.5668 C87.2218,69.6018 86.7058,73.9248 88.3468,77.7528 C90.0138,81.6418 93.6088,84.0248 97.4338,85.5058 C101.7478,87.1768 106.5628,87.9948 111.1368,86.9828 C113.4618,86.4678 115.5358,85.4418 117.4608,84.0578 C118.9878,82.9598 121.1078,80.9558 123.0968,82.0698 C124.0438,82.5998 125.1008,82.2398 125.6558,81.5868 C126.2708,81.4538 126.8008,81.0708 127.1028,80.4638 C130.1768,74.3018 132.6668,67.8428 133.7098,61.0078 C134.7308,54.3138 133.9288,47.6308 131.5378,41.3068" id="Fill-4" fill="#ACACFB"></path>
                    <g id="Group-8" transform="translate(0.000000, 31.526000)">
                        <mask id="mask-4" fill="white">
                            <use xlink:href="#path-3"></use>
                        </mask>
                        <g id="Clip-7"></g>
                        <path d="M41.572,29.271 C32.923,25.923 24.659,21.646 16.966,16.467 C17.379,15.006 17.786,13.545 18.203,12.086 C19.332,11.737 20.359,11.079 21.17,10.198 C23.415,7.76 23.229,3.469 20.478,1.47 C19.236,0.567 17.63,0.103 16.087,0.249 C15.355,-0.007 14.535,0.116 13.877,0.574 C13.27,0.996 12.768,1.546 12.343,2.155 C11.886,2.67 11.51,3.27 11.22,3.935 C10.57,5.425 10.436,7.154 11.085,8.647 C11.207,9.073 11.382,9.487 11.618,9.885 C12.118,10.725 12.889,11.339 13.765,11.75 C13.529,13.138 13.272,14.523 13.025,15.909 C8.445,32.116 4.109,48.39 0.051,64.736 C-0.236,65.889 0.73,66.608 1.773,66.74 C2.016,66.977 2.34,67.151 2.727,67.237 C3.51,67.411 5.009,67.112 5.187,66.12 C6.218,60.382 7.597,54.717 9.278,49.139 C13.142,55.779 17.084,62.374 21.136,68.9 C22.004,70.295 24.572,69.6956692 24.831,68.334 C26.202,68.411 27.728,67.352 26.818,65.947 C21.979,58.473 17.325,50.882 12.859,43.179 C12.595,42.724 12.153,42.479 11.665,42.397 C13.142,35.958 14.494,29.492 15.732,23.003 C19.245,27.901 23.038,32.591 27.117,37.033 C27.809,37.787 28.9,38.057 29.853,37.607 C30.601,37.252 31.26,36.169 30.57,35.417 C26.763,31.272 23.197,26.916 19.882,22.372 C26.151,26.141 32.719,29.389 39.552,32.034 C40.46,32.385 41.674,32.322 42.289,31.46 C42.842,30.687 42.445,29.609 41.572,29.271" id="Fill-6" fill="#BFD3FB" mask="url(#mask-4)"></path>
                    </g>
                    <g id="Group-11" transform="translate(123.000000, 22.526000)">
                        <mask id="mask-6" fill="white">
                            <use xlink:href="#path-5"></use>
                        </mask>
                        <g id="Clip-10"></g>
                        <path d="M39.6452,74.5064 C35.0832,55.1804 31.7222,35.5894 29.5862,15.8474 C29.5052,15.0964 28.9422,14.6214 28.2642,14.4094 C30.0402,14.1114 31.7962,13.2544 32.9072,11.8184 C34.0122,10.3864 34.3702,8.3794 34.1552,6.6124 C33.9402,4.8424 33.2562,3.0904 31.8092,1.9634 C30.1522,0.6724 27.9692,0.4964 26.0192,1.1194 C25.7742,1.0354 25.5142,0.9904 25.2582,0.9954 C21.3862,1.0684 19.6662,5.3214 19.8372,8.6784 C19.9272,10.4434 20.6082,12.2114 22.0812,13.2784 C23.3272,14.1824 24.7852,14.5344 26.2732,14.5604 C26.0132,14.7054 25.8152,14.9144 25.6972,15.1744 C20.6702,16.1994 15.7452,17.6524 10.9532,19.4814 C10.0852,19.8124 9.6842,20.9044 10.2352,21.6704 C10.8602,22.5364 12.0622,22.5914 12.9712,22.2444 C16.4502,20.9164 20.0112,19.8284 23.6282,18.9584 C15.2882,25.8954 7.6082,33.6104 0.7192,41.9914 C0.0782,42.7714 0.6532,43.7974 1.4362,44.1804 C2.3482,44.6274 3.5312,44.3874 4.1722,43.6074 C10.8162,35.5244 18.2082,28.1064 26.2352,21.4044 C27.2882,30.1614 28.5672,38.8894 30.0902,47.5754 C29.9522,47.6904 29.8252,47.8204 29.7272,47.9884 C24.5462,56.9294 19.9302,66.1874 15.9282,75.7134 C15.0552,77.7924 18.9222,78.3474 19.7862,76.5644 C23.4362,69.0174 27.2802,61.5674 31.2962,54.2094 C32.6392,61.2894 34.1322,68.3424 35.7882,75.3564 C36.2542,77.3304 40.1612,76.6914 39.6452,74.5064" id="Fill-9" fill="#F7AEAB" mask="url(#mask-6)"></path>
                    </g>
                </g>
                <rect id="Rectangle-Copy-3" x="0" y="0" width="292" height="239"></rect>
            </g>
        </g>
    </g>
</svg>