<?xml version="1.0" encoding="UTF-8"?>
<svg width="292px" height="239px" viewBox="0 0 292 239" version="1.1" xmlns="http://www.w3.org/2000/svg" xmlns:xlink="http://www.w3.org/1999/xlink">
    <title>Group 2</title>
    <defs>
        <polygon id="path-1" points="0 0.0961494955 126.526912 0.0961494955 126.526912 34 0 34"></polygon>
    </defs>
    <g id="Desktop" stroke="none" stroke-width="1" fill="none" fill-rule="evenodd">
        <g id="About" transform="translate(-411.000000, -3654.000000)">
            <g id="Group-2" transform="translate(411.000000, 3654.000000)">
                <g id="Group-12" transform="translate(83.000000, 49.000000)">
                    <g id="Group-3" transform="translate(0.000000, 106.629000)">
                        <mask id="mask-2" fill="white">
                            <use xlink:href="#path-1"></use>
                        </mask>
                        <g id="Clip-2"></g>
                        <path d="M123.0585,13.1355 C122.9685,13.7145 122.7895,14.2675 122.5555,14.7965 C122.5185,14.7065 122.4715,14.6205 122.4135,14.5385 C122.6975,13.8985 122.9335,13.2375 123.1065,12.5525 C123.1005,12.7545 123.0865,12.9515 123.0585,13.1355 M115.8715,10.0165 C116.2795,9.7675 116.6845,9.5155 117.1025,9.2845 C118.0365,8.7705 119.2295,8.0935 120.3605,8.1975 C118.8725,8.8265 117.3725,9.4215 115.8715,10.0165 M71.7825,9.2845 C71.7825,9.1795 71.7705,9.0735 71.7475,8.9695 C72.1505,8.8125 72.5515,8.6565 72.9785,8.4865 C74.3425,8.0185 75.6975,7.5295 77.0465,7.0225 C77.1825,6.9815 77.3175,6.9415 77.4535,6.9025 C75.5655,7.7045 73.6755,8.4975 71.7825,9.2845 M57.1585,14.0845 C55.7415,14.3315 54.3235,14.5785 52.9055,14.8255 C54.3505,14.4795 55.7895,14.1075 57.2255,13.7175 C57.1865,13.8365 57.1625,13.9585 57.1585,14.0845 M26.9725,23.3785 C25.2105,23.4645 23.4475,23.5195 21.6825,23.5415 C21.7605,23.5275 21.8395,23.5115 21.9175,23.4975 C24.6335,23.0255 27.3495,22.5515 30.0645,22.0775 C29.0485,22.4915 28.0165,22.9365 26.9725,23.3785 M11.0695,30.0485 C10.5575,29.9845 10.0815,29.8695 9.6245,29.7325 C10.1575,29.5155 10.6965,29.3205 11.2355,29.1305 C12.7435,29.5035 14.2865,29.6815 15.7665,29.6665 C16.2805,29.8335 16.8005,29.9715 17.3275,30.0645 C15.2175,30.2455 13.0985,30.3045 11.0695,30.0485 M8.6245,24.3385 C9.1995,24.5435 9.7895,24.6865 10.3905,24.7845 C10.4765,25.0275 10.5745,25.2675 10.6895,25.4985 C10.6725,25.5005 10.6555,25.5015 10.6385,25.5025 C9.8215,25.1655 9.0545,24.7465 8.3695,24.2325 C8.4545,24.2675 8.5375,24.3075 8.6245,24.3385 M5.0715,16.1105 C5.0525,16.1395 5.0395,16.1695 5.0215,16.1985 C4.9995,16.1985 4.9785,16.1955 4.9565,16.1945 C5.0045,15.9055 5.0525,15.6155 5.1025,15.3315 C5.1115,15.2815 5.1105,15.2345 5.1155,15.1845 C5.5645,15.2435 6.0155,15.2835 6.4645,15.3405 C5.9315,15.4045 5.3475,15.6855 5.0715,16.1105 M81.1605,11.7835 C83.5895,10.5015 85.9965,9.1805 88.3625,7.7825 C86.8195,9.0365 84.6155,10.0855 83.7445,10.5735 C82.5865,11.2215 81.4045,11.8215 80.2125,12.3995 C80.5335,12.2005 80.8435,11.9885 81.1605,11.7835 M89.2495,3.9585 C90.2995,4.8695 90.1285,5.8455 89.3965,6.7675 C89.6095,6.3325 89.6045,5.8555 89.2675,5.4545 C89.2885,5.2735 89.2785,5.0895 89.2335,4.9105 C89.2855,4.3495 88.9915,3.8105 88.4365,3.4905 C88.7215,3.5935 88.9965,3.7385 89.2495,3.9585 M126.3295,8.9195 C125.5015,6.4455 122.9795,5.0815 120.3525,5.0045 C117.2255,4.9125 114.6485,6.8105 112.0905,8.3325 C102.0555,14.3045 90.2965,17.2905 78.6385,16.7785 C80.7935,15.8805 82.9095,14.8905 84.9645,13.7765 C86.7045,12.8315 88.4065,11.8125 90.0645,10.7315 C91.4585,9.8225 92.8715,8.7835 93.5925,7.2335 C95.1215,3.9395 92.0805,0.8335 88.9725,0.2395 C85.0625,-0.5085 81.2135,1.8465 77.7175,3.2425 C76.7045,3.6485 75.6855,4.0375 74.6635,4.4185 C74.5875,4.4435 74.5105,4.4655 74.4335,4.4895 C72.7105,5.0555 71.0075,5.6705 69.3065,6.2925 C57.2535,10.2325 44.6565,12.5475 32.0005,13.1705 C23.1255,13.6075 14.2125,13.2325 5.4125,12.0055 C4.4835,11.8765 3.2975,12.1135 2.9525,13.1225 C2.9275,13.1965 2.9205,13.2685 2.9095,13.3405 C2.1755,13.4215 1.3705,13.7715 1.2455,14.4815 C0.8155,16.9215 0.4615,19.4195 0.5495,21.8985 C0.4415,22.2175 0.4665,22.4955 0.5875,22.7325 C0.6565,23.6145 0.7855,24.4915 0.9965,25.3625 C1.5625,27.6855 -1.1585,26.5815 0.6005,27.9375 C0.3745,28.8035 5.1465,32.7245 6.0145,32.8185 C33.3145,35.7575 56.8575,32.6695 84.1335,29.4885 C95.3595,28.1795 107.3555,26.4895 116.5945,19.4155 C120.6125,16.3405 127.8095,13.3375 126.3295,8.9195" id="Fill-1" fill="#99D533" mask="url(#mask-2)"></path>
                    </g>
                    <path d="M68.6444,22.3094 C68.5894,22.1654 68.5114,22.0414 68.4184,21.9304 C68.5484,21.9864 68.6764,22.0404 68.8054,22.0964 C69.1684,22.5744 69.5454,23.0414 69.8944,23.5314 C69.4944,23.1074 69.0724,22.7054 68.6444,22.3094 M50.6164,27.7674 C52.4574,27.4144 54.2934,27.4304 56.0694,27.7514 C54.2684,27.6484 52.4414,27.6414 50.6164,27.7674 M89.7504,18.8764 C89.4874,18.6704 89.2244,18.4644 88.9754,18.2564 C88.7244,18.0474 88.4744,17.8384 88.2244,17.6294 C87.4224,16.7474 86.5264,15.9564 85.5264,15.2524 C85.4534,15.1694 85.3764,15.0894 85.3034,15.0064 C86.8764,16.1974 88.3714,17.4864 89.7504,18.8764 M102.2834,38.3204 C102.1434,33.0144 100.7554,27.8574 98.0104,23.3034 C95.4534,19.0644 91.8264,15.4914 87.8724,12.5504 C72.2934,0.9634 49.8324,-4.0726 31.5484,3.8184 C29.3214,4.7804 27.2094,5.9574 25.1764,7.2764 C24.4954,7.7174 24.4864,8.5694 24.8734,9.1774 C12.0604,17.2384 4.0064,32.2464 5.4134,47.6554 C6.2784,57.1324 10.2934,66.2984 16.6304,73.3974 C23.2794,80.8464 32.2794,85.7854 42.0654,87.6924 C51.9494,89.6194 62.3914,88.5594 71.6144,84.4824 C80.1974,80.6884 87.6414,74.3774 93.0224,66.7104 C98.7654,58.5274 102.5494,48.4054 102.2834,38.3204" id="Fill-4" fill="#9CC3E7"></path>
                    <path d="M50.0849,40.2928 C49.0889,34.9118 44.1369,30.9088 38.7869,30.4688 C33.3079,30.0168 27.8159,33.5978 26.0259,38.7828 C25.7049,39.7128 26.2889,40.3628 27.0989,40.6348 C27.3689,40.7678 27.6939,40.8528 28.0889,40.8528 C29.2339,40.8528 29.8519,40.1848 29.9519,39.4588 C31.2369,35.9898 34.8529,33.2438 38.6609,33.6558 C42.5539,34.0778 45.5389,37.4198 46.2279,41.1438 C46.4099,42.1318 47.8819,42.4398 48.6879,42.2618 C49.6799,42.0408 50.2689,41.2878 50.0849,40.2928" id="Fill-6" fill="#FFEDA5"></path>
                    <path d="M89.9765,40.2557 C88.1595,33.9587 81.8945,29.3917 75.3535,29.4417 C68.8115,29.4897 62.5965,34.0677 60.8505,40.4097 C60.2555,42.5687 64.1655,43.2287 64.7075,41.2617 C66.0035,36.5537 70.3395,32.6777 75.3535,32.6407 C80.3665,32.6047 84.7655,36.4137 86.1195,41.1067 C86.6835,43.0637 90.5985,42.4107 89.9765,40.2557" id="Fill-8" fill="#FFEDA5"></path>
                    <path d="M70.4706,54.0087 C70.4426,61.6287 63.9276,67.4287 56.5946,68.0277 C48.7106,68.6697 41.5586,64.3137 36.4906,58.5967 C35.8166,57.8357 34.6906,57.5707 33.7536,58.0227 C32.9966,58.3887 32.3576,59.4457 33.0356,60.2117 C37.7596,65.5387 43.9406,69.8757 51.1096,70.9727 C58.2656,72.0687 65.8216,70.0827 70.5846,64.4067 C73.0226,61.5037 74.4566,57.8077 74.4706092,54.0087 C74.4776,51.8967 70.4776,51.8907 70.4706,54.0087" id="Fill-10" fill="#FFEDA5"></path>
                </g>
                <rect id="Rectangle-Copy" x="0" y="0" width="292" height="239"></rect>
            </g>
        </g>
    </g>
</svg>