<?xml version="1.0" encoding="UTF-8"?>
<svg width="22px" height="22px" viewBox="0 0 22 22" version="1.1" xmlns="http://www.w3.org/2000/svg" xmlns:xlink="http://www.w3.org/1999/xlink">
    <title>Fill 1</title>
    <g id="Symbols" stroke="none" stroke-width="1" fill="none" fill-rule="evenodd">
        <g id="Mobile/Minimal-Footer" transform="translate(-270.000000, -186.000000)" fill="#231F20">
            <path d="M290.785732,186 L271.214185,186 C270.54354,186 270,186.54354 270,187.214185 L270,206.785732 C270,207.456296 270.54354,208 271.214185,208 L281.750891,208 L281.750891,199.480425 L278.883831,199.480425 L278.883831,196.160168 L281.750891,196.160168 L281.750891,193.711602 C281.750891,190.870095 283.48636,189.322812 286.021229,189.322812 C287.235497,189.322812 288.279054,189.413155 288.583136,189.453545 L288.583136,192.423148 L286.825081,192.423972 C285.446531,192.423972 285.179543,193.079039 285.179543,194.04033 L285.179543,196.160168 L288.467405,196.160168 L288.039349,199.480425 L285.179543,199.480425 L285.179543,208 L290.785732,208 C291.456296,208 291.999918,207.456296 291.999918,206.785732 L291.999918,187.214185 C291.999918,186.54354 291.456296,186 290.785732,186" id="Fill-1"></path>
        </g>
    </g>
</svg>