<?xml version="1.0" encoding="UTF-8"?>
<svg width="292px" height="239px" viewBox="0 0 292 239" version="1.1" xmlns="http://www.w3.org/2000/svg" xmlns:xlink="http://www.w3.org/1999/xlink">
    <title>Group</title>
    <defs>
        <polygon id="path-1" points="0.209680695 0.450267141 46.713 0.450267141 46.713 34.5878683 0.209680695 34.5878683"></polygon>
        <polygon id="path-3" points="0.726599399 0.695673912 17.1787395 0.695673912 17.1787395 36 0.726599399 36"></polygon>
        <polygon id="path-5" points="0 0.123656963 67.1359505 0.123656963 67.1359505 66.372237 0 66.372237"></polygon>
    </defs>
    <g id="Desktop" stroke="none" stroke-width="1" fill="none" fill-rule="evenodd">
        <g id="Admissions" transform="translate(-86.000000, -1218.000000)">
            <g id="Group" transform="translate(86.000000, 1218.000000)">
                <g id="Group-44" transform="translate(47.000000, 53.000000)">
                    <path d="M147.0307,5.7114 L165.0987,69.0944 C165.6777,71.1264 169.5267,70.0344 168.9457,67.9974 L150.8777,4.6144 C150.2987,2.5814 146.4507,3.6734 147.0307,5.7114" id="Fill-1" fill="#999999"></path>
                    <g id="Group-5" transform="translate(151.000000, 5.648000)">
                        <mask id="mask-2" fill="white">
                            <use xlink:href="#path-1"></use>
                        </mask>
                        <g id="Clip-4"></g>
                        <path d="M44.854,8.6737 C41.609,8.7977 38.43,8.1157 35.273,7.4447 C31.626,6.6677 27.98,5.8887 24.333,5.1107 C17.121,3.5717 9.909,2.0337 2.696,0.4957 C1.019,0.1387 -0.309,1.9697 0.409,3.0457 C0.249,3.3517 0.195,3.7057 0.306,4.0967 L8.283,32.0787 C8.391,32.4577 8.614,32.7277 8.899,32.9037 C8.832,33.3707 8.977,33.8587 9.385,34.1987 C10.181,34.8657 11.435,34.5927 12.174,34.0007 C22.754,25.5267 36.066,21.1777 46.1,11.9237 C46.729,11.3437 46.822,10.7607 46.613,10.2867 C46.72,9.4517 46.187,8.6227 44.854,8.6737" id="Fill-3" fill="#FFEDA5" mask="url(#mask-2)"></path>
                    </g>
                    <path d="M169.8784,25.0824 C169.0734,24.5064 167.8154,24.5984 167.0894,25.2794 C166.9754,25.3874 166.8544,25.4844 166.7324,25.5824 C166.6884,25.6074 166.4814,25.7534 166.4204,25.7854 C166.3874,25.8044 166.3104,25.8494 166.2364,25.8934 C166.0644,25.9824 165.8444,26.0104 165.6614,26.0694 C165.6304,26.0804 165.6164,26.0864 165.5994,26.0934 C165.5854,26.0944 165.5814,26.0944 165.5654,26.0954 C165.3544,26.1134 165.1444,26.1254 164.9324,26.1374 C164.9034,26.1394 164.8914,26.1414 164.8714,26.1424 C164.8524,26.1384 164.8364,26.1334 164.8034,26.1274 C164.6394,26.0984 164.4764,26.0714 164.3134,26.0394 C164.2674,26.0204 164.0194,25.9484 163.9644,25.9264 C163.8404,25.8754 163.7214,25.8144 163.6014,25.7544 C163.5774,25.7284 163.2924,25.5524 163.2484,25.5194 C163.1284,25.4284 163.0124,25.3324 162.9004,25.2304 C162.8554,25.1894 162.8124,25.1464 162.7674,25.1034 C162.7574,25.0904 162.7314,25.0604 162.6794,25.0014 C162.5864,24.8814 162.4904,24.7674 162.4034,24.6434 C162.2874,24.4784 162.1914,24.3044 162.0854,24.1324 C162.0684,24.0984 162.0574,24.0754 162.0454,24.0554 C162.0244,24.0064 162.0044,23.9574 161.9844,23.9084 C161.8584,23.5864 161.7724,23.2524 161.7124,22.9124 C161.7084,22.8604 161.6904,22.7024 161.6894,22.6464 C161.6844,22.4394 161.6904,22.2324 161.7114,22.0274 C161.7234,21.9024 161.7424,21.7794 161.7624,21.6564 C161.7654,21.6874 161.8574,21.2894 161.8744,21.2394 C161.9774,20.9204 162.1094,20.6084 162.2634,20.3114 C162.3104,20.2364 162.4154,20.0584 162.4384,20.0214 C162.5384,19.8684 162.6434,19.7194 162.7544,19.5734 C162.7864,19.5314 163.0324,19.2494 163.0404,19.2294 C163.1324,19.1364 163.2244,19.0424 163.3214,18.9544 C163.4624,18.8264 163.6114,18.7084 163.7654,18.5944 C163.8284,18.5584 163.9844,18.4594 164.0284,18.4354 C164.1034,18.3954 164.1804,18.3584 164.2564,18.3224 C164.2764,18.3144 164.2904,18.3114 164.3174,18.3014 C164.3994,18.2744 164.4834,18.2544 164.5664,18.2334 C164.5884,18.2314 164.6004,18.2304 164.6274,18.2274 C165.5144,18.1364 166.6924,17.5164 166.6874,16.4784 C166.6814,15.4944 165.7384,14.8714 164.8044,14.9684 C161.1184,15.3484 157.9414,18.7964 157.7524,22.4984 C157.5754,25.9434 160.3564,29.0504 163.7764,29.3534 C165.9464,29.5464 168.1824,28.8904 169.7884,27.3844 C170.4304,26.7814 170.7074,25.6764 169.8784,25.0824" id="Fill-6" fill="#009FCF"></path>
                    <path d="M182.1196,19.6391 C180.4326,19.3691 178.7446,19.1001 177.0576,18.8311 C177.8086,17.6371 178.5596,16.4431 179.3116,15.2481 C179.5476,14.8751 179.6916,14.4441 179.5646,14.0001 C179.4486,13.5931 179.0846,13.2211 178.6916,13.0731 C177.7956,12.7341 176.5146,12.9871 175.9716,13.8481 C175.1976,15.0771 174.4236,16.3081 173.6496,17.5371 C173.2596,16.4791 172.8756,15.4181 172.4656,14.3681 C172.1036,13.4431 171.0246,13.0781 170.1026,13.3771 C169.3256,13.6291 168.2396,14.4931 168.6186,15.4641 C169.9716,18.9291 171.2226,22.4321 172.3696,25.9701 C172.6756,26.9141 173.8486,27.2461 174.7306,26.9601 C175.5576,26.6931 176.5366,25.8671 176.2166,24.8731 C176.1586,24.6981 176.1016,24.5211 176.0456,24.3441 C176.0366,24.3191 176.0206,24.2981 176.0116,24.2731 C175.7546,23.4911 175.4766,22.7151 175.2116,21.9361 C177.1196,22.2411 179.0276,22.5451 180.9356,22.8491 C181.8586,22.9961 183.1126,22.5121 183.4096,21.5471 C183.7026,20.5971 183.0686,19.7901 182.1196,19.6391" id="Fill-8" fill="#009FCF"></path>
                    <path d="M151.476,1.1371 C150.821,0.3441 149.89,-0.0279 148.87,0.0021 C148.652,0.0081 148.428,0.0521 148.206,0.1011 C148.161,0.0911 148.114,0.0741 148.069,0.0681 C147.555,0.0021 146.996,0.0681 146.542,0.3351 C146.404,0.4311 146.266,0.5261 146.127,0.6211 C145.887,0.8261 145.709,1.0761 145.594,1.3701 C145.297,1.9881 145.08,2.5941 144.952,3.2691 C144.839,3.8621 144.862,4.5281 145.098,5.0881 C145.357,5.7011 145.73,6.2781 146.313,6.6311 C146.727,6.8821 147.134,7.0841 147.627,7.1411 C148.178,7.2031 148.747,7.1771 149.271,6.9821 C149.788,6.7881 150.28,6.5461 150.679,6.1531 C150.977,5.8591 151.242,5.5551 151.443,5.1901 C151.794,4.5501 152.05,3.8781 152.064,3.1341 C152.077,2.4551 151.92,1.6751 151.476,1.1371" id="Fill-10" fill="#009FCF"></path>
                    <path d="M128.271,46.3725 C128.207,46.2965 128.142,46.2235 128.079,46.1465 C129.056,46.9605 129.993,47.8195 130.842,48.7635 C129.906,48.0695 129.053,47.3105 128.271,46.3725 M115.794,38.7315 C114.575,38.2155 113.325,37.7625 112.04,37.3815 C113.409,37.4635 114.78,37.9465 116.061,38.5465 C115.967,38.6035 115.876,38.6645 115.794,38.7315 M96.041,98.0385 C95.997,97.6935 95.827,97.3675 95.491,97.1435 C94.214,96.2935 93.027,95.3525 91.925,94.3255 C92.875,95.1115 93.847,95.8725 94.844,96.6015 C95.409,97.0895 96,97.5445 96.614,97.9745 C96.667,98.0825 96.713,98.1925 96.769,98.3005 C96.525,98.2185 96.282,98.1305 96.041,98.0385 M140.279,62.9645 C140.414,62.5915 140.354,62.2015 140.153,61.8605 C139.742,58.3775 139.028,54.8895 137.426,51.7445 C135.883,48.7165 133.651,46.1625 131.055,43.9845 C128.449,41.7985 125.533,40.0105 122.614,38.2785 C119.53,36.4485 116.301,34.5675 112.662,34.2075 C111.192,34.0615 109.771,34.2195 108.397,34.6675 C101.563,35.1225 95.251,38.4365 90.332,43.1365 C87.658,45.6895 85.332,48.5715 83.246,51.6185 C81.167,54.6535 79.123,57.8355 77.693,61.2365 C74.739,68.2665 75.447,76.7885 77.173,84.0415 C78.059,87.7605 79.366,91.3785 81.042,94.8135 C82.576,97.9595 84.383,100.9835 86.987,103.3665 C92.279,108.2085 99.848,108.6655 106.653,108.7505 C110.522,108.7985 114.497,108.8635 118.271,107.8815 C121.571,107.0225 124.594,105.3655 127.176,103.1475 C132.44,98.6265 136.422,92.0955 138.853,85.6475 C141.574,78.4275 141.089,70.5175 140.279,62.9645" id="Fill-12" fill="#89D1E9"></path>
                    <path d="M167.2612,50.9662 C164.3372,49.4132 160.8862,50.9492 158.8602,53.2252 C157.8932,54.3102 157.2622,55.6692 157.2802,57.1412 C157.2872,57.8732 157.4442,58.5542 157.7102,59.1852 C150.0942,62.4052 142.4772,65.6272 134.8612,68.8482 C133.9912,69.2152 133.6032,70.2402 134.1432,71.0372 C134.7252,71.8952 136.0082,71.9802 136.8792,71.6112 C144.7562,68.2792 152.6342,64.9482 160.5112,61.6172 C160.9662,61.6072 161.5272,61.4572 161.8712,61.1542 C162.1932,60.8692 162.4822,60.4772 162.4562,60.0222 C162.4302,59.5392 162.2002,59.2302 161.8712,58.8912 C162.2222,59.2512 161.9222,58.9272 161.8522,58.8352 C161.7732,58.7322 161.7062,58.6202 161.6302,58.5142 C161.6222,58.5032 161.6202,58.5012 161.6152,58.4922 C161.5702,58.3942 161.5262,58.2962 161.4882,58.1952 C161.4072,57.9862 161.3562,57.7722 161.3052,57.5542 C161.3002,57.5102 161.2942,57.4662 161.2912,57.4212 C161.2822,57.3102 161.2792,57.1972 161.2792,57.0852 C161.2792,56.9742 161.2832,56.8622 161.2922,56.7502 C161.2982,56.6752 161.3062,56.6022 161.3172,56.5282 L161.2822,56.7332 C161.2152,56.6362 161.4632,56.0832 161.5042,55.9842 L161.5482,55.8812 C161.5932,55.7882 161.6032,55.7662 161.5852,55.7982 C161.6362,55.7192 161.6962,55.6372 161.7232,55.5952 C161.8792,55.3612 162.0542,55.1392 162.2392,54.9262 C162.2792,54.8792 162.5642,54.6062 162.3532,54.7922 C162.1312,54.9892 162.4902,54.6662 162.5292,54.6322 C162.7012,54.4762 162.8832,54.3272 163.0722,54.1892 C163.1592,54.1242 163.2502,54.0642 163.3402,54.0022 C163.3592,53.9912 163.3722,53.9862 163.4032,53.9692 C163.6192,53.8502 163.8422,53.7562 164.0682,53.6562 C164.1622,53.6322 164.2562,53.6052 164.3522,53.5842 C164.3782,53.5782 164.4562,53.5672 164.5292,53.5552 C164.5942,53.5512 164.6612,53.5482 164.6862,53.5482 C164.7022,53.5482 164.7212,53.5492 164.7392,53.5512 C164.7162,53.5462 164.6852,53.5402 164.6572,53.5342 C164.6602,53.5332 164.6582,53.5332 164.6602,53.5322 C164.7052,53.5402 164.7492,53.5492 164.7942,53.5572 C164.8272,53.5622 164.8592,53.5672 164.8822,53.5712 C164.8832,53.5712 164.8842,53.5722 164.8852,53.5732 C164.8912,53.5742 164.8962,53.5742 164.9022,53.5762 C164.9072,53.5772 164.9132,53.5792 164.9192,53.5812 C164.9222,53.5822 164.9132,53.5812 164.8942,53.5792 C164.9912,53.6382 165.1592,53.6852 165.2422,53.7302 C166.0652,54.1662 167.4472,53.9742 167.9792,53.1552 C168.5432,52.2882 168.1062,51.4142 167.2612,50.9662" id="Fill-14" fill="#231F20"></path>
                    <path d="M164.7944,53.5571 C164.7754,53.5541 164.7574,53.5521 164.7384,53.5511 C164.8194,53.5671 164.8674,53.5761 164.8944,53.5791 L164.8854,53.5741 C164.8554,53.5671 164.8244,53.5621 164.7944,53.5571" id="Fill-16" fill="#231F20"></path>
                    <path d="M82.0366,65.3344 C74.0776,61.1924 66.1176,57.0514 58.1576,52.9094 C57.9876,52.8214 57.8136,52.7694 57.6406,52.7314 C57.0866,52.5624 56.4716,52.5704 55.9986,52.8564 C53.6906,54.2574 51.3466,55.5974 48.9686,56.8744 C48.5726,57.0864 48.1986,57.3874 48.0496,57.8304 C47.9166,58.2244 47.9886,58.7334 48.2506,59.0634 C48.8576,59.8274 50.1106,60.1074 50.9866,59.6374 C53.0496,58.5294 55.0806,57.3664 57.0896,56.1674 L80.0176,68.0974 C81.9596,69.1074 84.3506,66.5374 82.0366,65.3344" id="Fill-18" fill="#231F20"></path>
                    <path d="M79.6948,128.891 C79.7108,128.901 79.7178,128.903 79.7298,128.909 L79.7298,128.908 C79.7188,128.903 79.7088,128.898 79.6948,128.891" id="Fill-20" fill="#231F20"></path>
                    <path d="M88.9487,97.0229 C86.0577,106.6059 83.6437,116.3229 81.6677,126.1339 C80.5477,125.5729 79.2417,125.3659 77.8987,125.5499 C75.6567,125.8599 73.7677,127.3489 72.1457,128.8279 C71.4647,129.4489 71.3407,130.4909 72.1457,131.0899 C72.9097,131.6579 74.2227,131.7749 74.9737,131.0899 C75.5887,130.5309 76.2157,129.9829 76.8947,129.5029 C76.9747,129.4469 77.0557,129.3929 77.1367,129.3369 C77.1697,129.3149 77.1847,129.3029 77.1997,129.2919 C77.3467,129.1959 77.5127,129.1169 77.6657,129.0409 C77.8337,128.9559 78.0047,128.8769 78.1787,128.8079 C78.2197,128.7979 78.4057,128.7399 78.4247,128.7349 C78.5087,128.7139 78.5937,128.6999 78.6777,128.6809 C78.8137,128.6829 78.9587,128.6699 79.0907,128.6689 C79.1707,128.6889 79.2527,128.7009 79.3317,128.7199 C79.3777,128.7379 79.4487,128.7629 79.4747,128.7749 C79.5007,128.7869 79.6167,128.8509 79.6947,128.8909 C79.6167,128.8389 79.5297,128.7549 79.6977,128.8809 C79.7087,128.8899 79.7187,128.8989 79.7297,128.9079 C79.7487,128.9169 79.7647,128.9229 79.7677,128.9219 C79.7617,128.9249 79.7447,128.9159 79.7297,128.9089 C79.8587,129.0049 79.9837,129.1049 80.1057,129.2109 C80.1147,129.2189 80.1147,129.2179 80.1227,129.2239 C80.1807,129.2859 80.2397,129.3779 80.2747,129.4249 C80.3467,129.5239 80.6117,130.0079 80.4427,129.6629 C80.8817,130.5599 81.9147,131.0389 82.9027,130.7809 C82.9307,130.7729 82.9637,130.7579 82.9927,130.7499 C83.8937,130.8429 84.8137,130.4909 84.9897,129.5769 C87.0527,118.8819 89.6607,108.2999 92.8057,97.8739 C93.4517,95.7319 89.5387,95.0669 88.9487,97.0229" id="Fill-22" fill="#231F20"></path>
                    <g id="Group-26" transform="translate(116.000000, 96.648000)">
                        <mask id="mask-4" fill="white">
                            <use xlink:href="#path-3"></use>
                        </mask>
                        <g id="Clip-25"></g>
                        <path d="M16.9243,33.2733 C16.8673,33.1873 16.6473,32.7113 16.8083,33.0983 C16.7583,32.9793 16.7003,32.8633 16.6523,32.7443 C16.5353,32.4633 16.4363,32.1773 16.3283,31.8933 C16.0873,31.2533 15.8053,30.5803 15.3643,30.0493 C14.3293,28.8023 12.7263,28.2033 11.1183,28.3253 C9.6863,28.4333 8.3563,28.9823 7.2833,29.9273 C6.0173,20.7543 5.1483,11.5313 4.7283,2.2793 C4.6323,0.1643 0.6323,0.1713 0.7283,2.2793 C1.1973,12.6183 2.1963,22.9233 3.7233,33.1603 C3.7953,33.6443 4.0293,34.0303 4.3633,34.3033 C4.3493,34.6263 4.4843,34.9953 4.6423,35.2143 C4.9043,35.5803 5.3993,35.8703 5.8373,35.9513 C6.8793,36.1433 7.7973,35.7733 8.2893,34.8433 L8.2903,34.8423 C8.2923,34.8383 8.2953,34.8363 8.2973,34.8333 C8.3203,34.7893 8.3333,34.7633 8.3453,34.7423 C8.3523,34.7283 8.3543,34.7243 8.3623,34.7093 C8.4313,34.5823 8.4983,34.4553 8.5693,34.3303 C8.6953,34.0983 8.8273,33.8703 8.9663,33.6453 C9.2523,33.1783 9.5703,32.7393 9.9293,32.3243 C9.9453,32.3063 9.9493,32.2993 9.9603,32.2863 C9.9763,32.2733 9.9873,32.2653 10.0103,32.2453 C10.1163,32.1513 10.2193,32.0553 10.3293,31.9663 C10.4103,31.9023 10.4973,31.8453 10.5783,31.7823 C10.5963,31.7723 10.6123,31.7623 10.6303,31.7533 C10.7243,31.7053 10.8193,31.6603 10.9143,31.6193 C10.9293,31.6133 10.9453,31.6073 10.9593,31.6013 C11.0523,31.5913 11.2063,31.5363 11.2783,31.5223 C11.3433,31.5353 11.4733,31.5233 11.5563,31.5153 C11.6833,31.5583 11.8783,31.6503 11.6783,31.5213 C11.7123,31.5413 11.7463,31.5593 11.7693,31.5673 C11.7783,31.5703 11.7793,31.5703 11.7873,31.5723 C11.8113,31.5893 11.8323,31.6083 11.8553,31.6263 C11.9133,31.7513 12.1413,32.0043 12.2263,32.1353 C12.2353,32.1573 12.2413,32.1753 12.2553,32.2063 C12.3073,32.3233 12.3553,32.4423 12.4023,32.5623 C12.4883,32.7843 12.5693,33.0083 12.6533,33.2323 C12.8703,33.8083 13.1303,34.3733 13.4703,34.8883 C14.0113,35.7083 15.3763,35.8953 16.2063,35.4623 C17.0533,35.0213 17.4893,34.1293 16.9243,33.2733" id="Fill-24" fill="#231F20" mask="url(#mask-4)"></path>
                    </g>
                    <path d="M119.7739,78.226 C119.6269,76.114 115.6279,76.126 115.7739,78.226 C116.1389,83.482 112.5499,88.531 107.1159,89.022 C104.4239,89.265 101.8689,88.372 100.2939,86.125 C98.5849,83.687 97.9659,80.718 98.2789,77.784 C98.4989,75.706 94.5029,75.675 94.2789,77.784 C93.8909,81.427 94.9009,85.273 97.1629,88.181 C99.5239,91.219 103.4479,92.504 107.2129,92.212 C110.8349,91.93 114.1749,90.398 116.5969,87.666 C118.8559,85.118 120.0089,81.614 119.7739,78.226" id="Fill-27" fill="#231F20"></path>
                    <path d="M100.6948,58.0033 C99.1798,57.3883 97.3498,57.4123 95.9258,58.2703 C95.2578,58.6733 94.7138,59.1633 94.3108,59.8013 C93.9228,60.2783 93.5768,60.7923 93.3598,61.3723 C93.0838,62.1143 93.0938,62.8833 93.2468,63.6463 C93.5278,65.0533 94.6458,66.2733 95.9878,66.7493 C97.7788,67.3863 99.8968,67.1493 101.3708,65.8783 C102.5078,64.8973 103.2158,63.4483 103.217813,61.9373 C103.2218,60.2603 102.2788,58.6483 100.6948,58.0033" id="Fill-29" fill="#FFFFFF"></path>
                    <path d="M98.1987,63.8451 C98.1997,63.8451 98.1997,63.8441 98.2007,63.8441 C98.1987,63.8441 98.1967,63.8451 98.1957,63.8451 L98.1987,63.8451 Z" id="Fill-31" fill="#FFFFFF"></path>
                    <path d="M120.8833,60.0834 C120.2083,58.9034 118.7533,58.3714 117.4563,58.3574 C117.3873,58.3564 117.3153,58.3724 117.2443,58.3744 C116.4343,57.9384 115.4843,58.0474 114.7113,58.5594 C113.8133,59.1524 113.1623,60.0054 112.6853,60.9564 C112.2663,61.7904 112.0453,62.8164 112.1463,63.7484 C112.2643,64.8434 112.7623,65.8234 113.6933,66.4494 C114.6063,67.0624 115.7133,67.4194 116.8213,67.3364 C117.9673,67.2514 119.0873,66.8584 119.9063,66.0244 C120.6133,65.3044 121.1523,64.4364 121.3383,63.4314 C121.5533,62.2654 121.4843,61.1324 120.8833,60.0834" id="Fill-33" fill="#FFFFFF"></path>
                    <path d="M100.7856,62.7787 C100.7676,62.6457 100.7466,62.3977 100.6816,62.2337 C100.6496,62.1497 100.5976,62.0647 100.5576,61.9897 C100.5306,61.9387 100.4976,61.8767 100.4646,61.8167 C100.4526,61.7267 100.4486,61.6367 100.4186,61.5467 C100.3506,61.4197 100.2836,61.2917 100.2176,61.1647 C100.0256,60.9137 99.7866,60.7217 99.4996,60.5907 C99.3296,60.5027 99.1356,60.4577 98.9556,60.4017 C98.9306,60.3937 98.9046,60.3887 98.8786,60.3857 C98.7016,60.3677 98.5236,60.3477 98.3476,60.3297 C98.3436,60.3287 98.3396,60.3287 98.3366,60.3287 C98.3306,60.3277 98.3246,60.3277 98.3186,60.3277 C98.3056,60.3267 98.2926,60.3277 98.2786,60.3277 C98.0786,60.3397 97.8736,60.3507 97.6766,60.3947 C97.4906,60.4367 97.3096,60.5067 97.1336,60.5767 C97.1086,60.5867 97.0856,60.5977 97.0626,60.6117 C96.9316,60.6917 96.7776,60.7827 96.6486,60.8677 C96.6436,60.8707 96.6396,60.8747 96.6346,60.8787 C96.6236,60.8857 96.6116,60.8947 96.6006,60.9047 C96.4736,61.0207 96.3456,61.1437 96.2406,61.2817 C96.2236,61.3017 96.2166,61.3267 96.2006,61.3477 C96.1996,61.3497 96.1976,61.3497 96.1966,61.3517 C96.0756,61.4667 95.9536,61.5927 95.8436,61.7177 C95.8266,61.7367 95.8106,61.7577 95.7966,61.7777 C95.7826,61.7957 95.7706,61.8147 95.7596,61.8337 C95.6756,61.9777 95.5936,62.1317 95.5226,62.2827 C95.5036,62.3257 95.4876,62.3707 95.4756,62.4167 C95.4326,62.5987 95.3896,62.7897 95.3876,62.9787 C95.3846,63.1627 95.4316,63.3657 95.4716,63.5327 C95.5136,63.7077 95.6486,63.9217 95.7206,64.0447 C95.7316,64.0647 95.7436,64.0857 95.7586,64.1037 L95.7756,64.1247 C95.8676,64.2307 96.0046,64.3707 96.1066,64.4667 C96.2506,64.6027 96.4416,64.6967 96.6086,64.7897 C96.6286,64.7997 96.6486,64.8097 96.6696,64.8177 C96.7556,64.8507 96.8586,64.8827 96.9336,64.9077 C97.0136,64.9337 97.1146,64.9737 97.2056,64.9977 C97.4186,65.0537 97.6456,65.0687 97.8646,65.0727 C97.8876,65.0737 97.9096,65.0717 97.9316,65.0697 C98.0296,65.0617 98.1496,65.0497 98.2656,65.0377 C98.2756,65.0377 98.2886,65.0397 98.2976,65.0407 L98.3266,65.0407 C98.5246,65.0387 98.7246,65.0147 98.9186,64.9777 C99.0196,64.9587 99.1236,64.9147 99.2176,64.8827 C99.2996,64.8547 99.4196,64.8247 99.5096,64.7797 C99.5176,64.7757 99.5266,64.7707 99.5346,64.7667 C99.6616,64.6977 99.8316,64.5887 99.9516,64.5087 C99.9726,64.4967 99.9906,64.4827 100.0096,64.4677 C100.3466,64.1837 100.4806,63.9677 100.6636,63.5757 C100.6806,63.5377 100.6936,63.4987 100.7036,63.4587 C100.7476,63.2777 100.7866,63.0907 100.7936,62.9027 C100.7956,62.8607 100.7916,62.8197 100.7856,62.7787" id="Fill-35" fill="#231F20"></path>
                    <path d="M119.9946,61.9848 C119.9756,61.8258 119.9476,61.6558 119.9126,61.4988 C119.9006,61.4458 119.8816,61.3958 119.8586,61.3468 C119.7886,61.1988 119.7046,60.9978 119.5886,60.8568 C119.4866,60.7328 119.3626,60.6108 119.2476,60.5008 C119.2316,60.4858 119.2166,60.4708 119.1996,60.4578 C119.0476,60.3358 118.8746,60.2358 118.6996,60.1468 C118.6816,60.1368 118.6616,60.1288 118.6416,60.1208 C118.4796,60.0548 118.2906,59.9928 118.1236,59.9448 C118.0816,59.9328 118.0396,59.9228 117.9966,59.9178 C117.8096,59.8918 117.6096,59.8688 117.4216,59.8558 C117.3996,59.8548 117.3776,59.8548 117.3556,59.8548 C117.3336,59.8548 117.3116,59.8568 117.2906,59.8588 C117.0956,59.8748 116.8936,59.8898 116.7006,59.9228 C116.5016,59.9578 116.2606,60.0578 116.1046,60.1148 C116.0596,60.1308 116.0176,60.1498 115.9766,60.1728 C115.6376,60.3638 115.3106,60.5708 115.0896,60.9048 C115.0846,60.9128 115.0796,60.9198 115.0756,60.9268 C115.0066,61.0388 114.9156,61.2138 114.8606,61.3328 C114.8516,61.3528 114.8436,61.3728 114.8366,61.3938 C114.8226,61.4348 114.8246,61.4798 114.8146,61.5228 C114.6956,61.6778 114.5976,61.8468 114.5276,62.0428 C114.4096,62.3758 114.3976,62.8018 114.5266,63.1338 C114.5326,63.1478 114.5396,63.1618 114.5466,63.1738 C114.6046,63.2968 114.6856,63.4578 114.7566,63.5728 C114.7686,63.5928 114.7816,63.6128 114.7976,63.6308 C114.9166,63.7798 115.0536,63.9388 115.2136,64.0508 C115.3776,64.1668 115.5486,64.2888 115.7366,64.3658 C115.9076,64.4358 116.0976,64.4978 116.2746,64.5478 C116.3046,64.5568 116.3346,64.5648 116.3656,64.5698 C116.5846,64.6088 116.8066,64.6348 117.0286,64.6398 C117.0576,64.6398 117.0866,64.6388 117.1146,64.6368 C117.3136,64.6258 117.5246,64.6028 117.7226,64.5718 C117.9256,64.5388 118.1786,64.4338 118.3376,64.3768 C118.3906,64.3578 118.4406,64.3358 118.4896,64.3078 C118.6676,64.2088 118.8486,64.1058 119.0126,63.9808 C119.1136,63.9028 119.1986,63.8028 119.2876,63.7128 C119.3736,63.6228 119.4666,63.5368 119.5396,63.4348 C119.6526,63.2778 119.7336,63.0958 119.8196,62.9248 C119.9326,62.7038 119.9576,62.4508 119.9906,62.2068 C119.9976,62.1598 120.0016,62.1128 120.0006,62.0648 C119.9996,62.0378 119.9976,62.0108 119.9946,61.9848" id="Fill-37" fill="#231F20"></path>
                    <g id="Group-41" transform="translate(0.000000, 17.648000)">
                        <mask id="mask-6" fill="white">
                            <use xlink:href="#path-5"></use>
                        </mask>
                        <g id="Clip-40"></g>
                        <path d="M64.7876,18.8427 C61.8776,12.0157 56.3166,7.2557 49.5536,4.4227 C46.2006,3.0187 42.6826,2.0267 39.1416,1.2277 C35.4786,0.4017 31.7156,-0.2083 27.9656,0.3227 C26.1646,0.5777 24.4006,1.1807 22.8446,2.1227 C22.7216,2.1977 22.6176,2.2777 22.5216,2.3587 C12.0296,6.6667 4.0616,16.2727 1.2006,27.2677 C-0.5194,33.8767 -0.5424,41.1687 2.1246,47.5327 C4.6826,53.6337 9.2846,58.6827 14.9396,62.0617 C26.4766,68.9547 41.6476,67.2177 52.3086,59.4337 C52.3916,59.3807 52.4696,59.3177 52.5506,59.2607 C52.6296,59.2017 52.7066,59.1417 52.7846,59.0827 C52.9186,58.9807 53.0556,58.8907 53.1856,58.7777 C53.1946,58.7697 53.1996,58.7607 53.2096,58.7527 C53.7106,58.3607 54.2046,57.9597 54.6836,57.5397 C65.3096,48.2247 70.4866,32.2107 64.7876,18.8427" id="Fill-39" fill="#FAA93B" mask="url(#mask-6)"></path>
                    </g>
                    <path d="M35.6001,33.435 C31.9931,38.658 28.1581,43.716 24.1021,48.599 C23.4571,49.375 24.0401,50.407 24.8201,50.788 C25.7361,51.236 26.9111,50.992 27.5561,50.213 C29.9631,47.316 32.2831,44.349 34.5331,41.33 C34.5311,41.365 34.5291,41.4 34.5281,41.435 C34.4131,44.319 34.2651,47.202 34.0781,50.082 C33.8961,52.88 33.6781,55.676 33.4261,58.468 C33.2991,59.865 33.1641,61.26 33.0211,62.655 C32.9031,63.805 32.8851,65.067 32.6721,66.234 C32.4821,66.405 32.3311,66.614 32.2491,66.866 L32.2001,67.021 C32.0811,67.384 32.1191,67.958 32.4011,68.253 L32.4971,68.355 C33.3501,69.246 34.6091,69.406 35.6391,68.678 C36.7521,67.892 36.6221,66.34 36.7581,65.115 C36.9211,63.64 37.0751,62.164 37.2181,60.686 C37.5051,57.731 37.7521,54.772 37.9601,51.81 C38.1631,48.931 38.3281,46.049 38.4551,43.165 C38.5811,40.326 38.5461,37.438 39.2551,34.668 C39.7671,32.667 36.6081,31.975 35.6001,33.435" id="Fill-42" fill="#FFFFFF"></path>
                </g>
                <rect id="Rectangle" x="0" y="0" width="292" height="239"></rect>
            </g>
        </g>
    </g>
</svg>