<?xml version="1.0" encoding="UTF-8"?>
<svg width="292px" height="239px" viewBox="0 0 292 239" version="1.1" xmlns="http://www.w3.org/2000/svg" xmlns:xlink="http://www.w3.org/1999/xlink">
    <title>Group 4</title>
    <defs>
        <polygon id="path-1" points="0.908104874 0.784 87.998099 0.784 87.998099 130 0.908104874 130"></polygon>
        <polygon id="path-3" points="0 0.701374219 62.4104462 0.701374219 62.4104462 61.6831243 0 61.6831243"></polygon>
    </defs>
    <g id="Desktop" stroke="none" stroke-width="1" fill="none" fill-rule="evenodd">
        <g id="Admissions" transform="translate(-412.000000, -1218.000000)">
            <g id="Group-4" transform="translate(412.000000, 1218.000000)">
                <g id="Group-25" transform="translate(78.000000, 54.000000)">
                    <g id="Group-3" transform="translate(48.000000, 0.216000)">
                        <mask id="mask-2" fill="white">
                            <use xlink:href="#path-1"></use>
                        </mask>
                        <g id="Clip-2"></g>
                        <path d="M81.3353,105.0009 C81.2233,104.3419 81.1063,103.6829 80.9883,103.0239 C81.1383,102.5339 81.2713,102.0419 81.3863,101.5459 L81.3353,105.0009 Z M74.9943,95.7559 C74.8303,93.6269 74.6653,91.4979 74.5013,89.3679 C74.5673,89.0509 74.6373,88.7329 74.7003,88.4149 C74.8993,90.0689 75.1233,91.7199 75.3623,93.3679 C75.2473,94.1649 75.1183,94.9599 74.9943,95.7559 L74.9943,95.7559 Z M72.4643,39.0259 C72.6553,38.5209 72.8543,38.0189 73.0443,37.5129 C73.0873,38.0769 73.1313,38.6429 73.1753,39.2069 C72.9513,39.1119 72.7113,39.0529 72.4643,39.0259 L72.4643,39.0259 Z M52.6053,23.6399 C52.3973,23.4639 52.1333,23.3329 51.8433,23.2469 C52.2343,23.1549 52.6283,23.0749 53.0213,22.9879 C52.8833,23.2059 52.7413,23.4209 52.6053,23.6399 L52.6053,23.6399 Z M50.7603,70.1399 C50.4763,70.1349 50.1903,70.1669 49.9253,70.2529 C50.3273,69.8979 50.7303,69.5439 51.1313,69.1879 C51.0113,69.5079 50.8813,69.8219 50.7603,70.1399 L50.7603,70.1399 Z M36.3563,6.3229 C32.9363,5.9979 29.5173,5.6559 26.1013,5.3449 C24.6223,5.2099 23.1013,5.1149 21.5723,4.9989 C28.0303,5.3939 34.4823,6.0009 40.9373,6.4609 C39.4093,6.4309 37.8833,6.3799 36.3563,6.3229 L36.3563,6.3229 Z M32.2593,95.1919 C32.0903,95.2929 31.9173,95.3869 31.7453,95.4819 C32.6053,93.1499 33.5943,90.8719 34.6923,88.6469 C33.9493,90.8529 33.1193,93.0299 32.2593,95.1919 L32.2593,95.1919 Z M12.0223,55.9589 C12.0133,55.4579 12.0043,54.9569 11.9963,54.4559 C12.0713,54.3479 12.1383,54.2299 12.1893,54.0989 C12.2463,53.9539 12.3013,53.8099 12.3573,53.6649 C12.4073,53.6909 12.4623,53.7119 12.5153,53.7339 C12.3513,54.4759 12.1873,55.2179 12.0223,55.9589 L12.0223,55.9589 Z M87.9393,124.3009 C87.6153,123.2599 86.3863,123.0829 85.4803,123.1829 C85.3423,123.1979 85.2033,123.2109 85.0643,123.2269 C85.0743,122.6299 85.0843,122.0329 85.0943,121.4369 C85.7413,120.9389 85.9713,120.1419 85.1293,119.2779 C85.5963,89.7499 86.1793,60.2169 86.2363,30.6859 C86.2543,21.5529 86.2023,12.4199 86.0493,3.2889 C86.0243,1.8169 84.0833,1.3719 82.9143,1.9479 C82.6363,1.1669 81.7383,0.5459 80.5833,0.8719 C61.3233,6.3129 41.1973,2.9479 21.6073,1.7629 C15.9773,1.4229 10.3353,1.2569 4.6963,1.4809 C3.7853,1.5189 2.7113,2.0409 2.6963,3.0819 C2.6873,3.7699 3.2273,4.2819 3.8543,4.5249 C2.3613,20.2829 1.2723,36.0859 0.9783,51.9139 C0.6763,68.1219 1.3743,84.3059 2.5813,100.4659 C3.2323,109.1909 4.0103,117.9059 4.7913,126.6209 C3.8873,126.6129 2.8363,127.2299 2.8223,128.2199 C2.8083,129.2559 3.9383,129.7979 4.8223,129.8189 C26.0583,130.3379 47.3163,129.7429 68.4893,128.0159 C72.6673,127.6749 76.8393,127.2719 81.0083,126.8449 L81.0083,126.8789 C80.9763,128.9899 84.9763,128.9989 85.0083,126.8789 C85.0103,126.7289 85.0123,126.5779 85.0153,126.4279 C85.5233,126.3719 86.0343,126.3249 86.5433,126.2689 C87.4573,126.1669 88.2193,125.1969 87.9393,124.3009 L87.9393,124.3009 Z" id="Fill-1" fill="#F7F1EE" mask="url(#mask-2)"></path>
                    </g>
                    <path d="M119.1654,15.4991 C101.0074,15.8991 82.8374,15.2751 64.7494,13.6291 C63.8424,13.5471 62.7634,14.2711 62.7492529,15.2291 C62.7344,16.3111 63.8694,16.7491 64.7494,16.8291 C82.8374,18.4761 101.0074,19.1001 119.1654,18.6991 C121.6654,18.6451 121.6854,15.4431 119.1654,15.4991" id="Fill-4" fill="#BFEAF6"></path>
                    <path d="M117.2015,29.213 C99.7145,29.762 82.2065,29.389 64.7585,28.095 C63.8485,28.027 62.7715,28.726 62.7583326,29.694 C62.7425,30.765 63.8765,31.229 64.7585,31.295 C82.2065,32.589 99.7145,32.962 117.2015,32.412 C118.1125,32.384 119.1865,31.848 119.201648,30.813 C119.2165,29.815 118.0865,29.185 117.2015,29.213" id="Fill-6" fill="#CBF1DE"></path>
                    <path d="M68.2191,50.9337 C68.1811,50.9357 68.1441,50.9337 68.1061,50.9357 C67.9981,49.3407 67.9091,47.7457 67.8601,46.1477 C67.8591,46.1307 67.8531,46.1157 67.8511,46.0987 C68.0971,46.0487 68.3401,45.9907 68.5871,45.9467 C69.2041,45.8377 69.8701,45.6797 70.4981,45.6687 C70.1421,45.6747 70.4551,45.6727 70.6341,45.6567 C70.7741,45.6437 70.9131,45.6307 71.0531,45.6207 C71.3601,45.5957 71.6661,45.5747 71.9741,45.5587 L71.9891,45.5587 L71.9901,50.4467 C71.2251,50.5937 70.4571,50.7227 69.6831,50.8187 C69.6501,50.8237 69.6351,50.8257 69.6151,50.8287 C69.5931,50.8297 69.5811,50.8297 69.5501,50.8327 C69.4121,50.8447 69.2741,50.8587 69.1351,50.8707 C68.8301,50.8957 68.5251,50.9167 68.2191,50.9337 M75.9891,43.9177 C75.9881,42.8957 74.8821,42.3247 73.9891,42.3177 C71.1831,42.2947 68.3641,42.6087 65.6331,43.2517 C64.8041,43.4477 63.8671,44.2647 64.2341,45.2087 C63.9971,45.4547 63.8471,45.7657 63.8601,46.1477 C63.9261,48.2937 64.0461,50.4377 64.2171,52.5787 C64.2981,53.5977 65.2531,54.1717 66.2171,54.1787 C69.0061,54.1977 71.8101,53.8777 74.5221,53.2247 C75.2431,53.0507 75.9901,52.4957 75.9901,51.6817 C75.9901,49.0937 75.9891,46.5057 75.9891,43.9177" id="Fill-8" fill="#E5D6FF"></path>
                    <path d="M118.8334,46.1827 C118.5164,45.1627 117.2734,44.9367 116.3734,45.0657 C105.1264,46.6717 93.7764,47.4177 82.4164,47.3377 C79.9064,47.3207 79.9034,50.5197 82.4164,50.5367 C94.1334,50.6197 105.8384,49.8087 117.4374,48.1507 C118.3454,48.0217 119.1184,47.0987 118.8334,46.1827" id="Fill-10" fill="#E5D6FF"></path>
                    <path d="M117.2025,62.9053 L64.7495,64.5953 C63.8395,64.6253 62.7645,65.1603 62.7493711,66.1963 C62.7355,67.1943 63.8645,67.8243 64.7495,67.7963 L117.2025,66.1053 C118.1135,66.0763 119.1875,65.5423 119.202648,64.5063 C119.2175,63.5083 118.0875,62.8773 117.2025,62.9053" id="Fill-12" fill="#FFC5AB"></path>
                    <path d="M115.5511,78.3009 C99.2201,79.7969 82.7851,79.9369 66.4311,78.7179 C65.5221,78.6499 64.4451,79.3499 64.4309327,80.3179 C64.4151,81.3879 65.5501,81.8519 66.4311,81.9179 C82.7851,83.1369 99.2201,82.9969 115.5511,81.5009 C116.4581,81.4179 117.5351,80.9749 117.551229,79.9019 C117.5651,78.9439 116.4341,78.2209 115.5511,78.3009" id="Fill-14" fill="#BFD3FB"></path>
                    <path d="M114.972,93.3428 L66.724,96.3898 C65.814,96.4468 64.739,96.9338 64.7238522,97.9898 C64.709,98.9668 65.839,99.6458 66.724,99.5898 L114.972,96.5428 C115.881,96.4858 116.957,95.9988 116.972129,94.9438 C116.986,93.9658 115.857,93.2868 114.972,93.3428" id="Fill-16" fill="#FFEDA5"></path>
                    <path d="M100.3402,122.1319 C98.8612,122.5299 96.6192,122.9339 95.1602,122.3319 C93.2682,121.5519 93.6032,118.9859 94.2982,117.4999 C94.5032,117.0619 94.7592,116.6519 95.0322,116.2519 C95.1622,116.0629 95.4222,115.7949 95.5252,115.5749 C95.5382,115.5469 95.5452,115.5329 95.5582,115.5089 C96.3522,116.0639 97.0392,116.7929 97.8152,117.3749 C99.1662,118.3899 100.7082,119.2609 102.3312,119.8249 C102.2272,120.8909 101.7112,121.7629 100.3402,122.1319 M119.5982,116.0709 C119.1172,116.3459 118.6482,116.2179 118.2422,115.9209 C120.0582,113.3029 120.1132,109.7129 117.9472,106.9939 C117.0592,105.8799 114.8322,105.9139 114.2912,107.3769 C113.9042,108.4229 113.5172,109.5589 113.2642,110.7129 C112.7762,110.2889 112.1182,110.0259 111.2762,110.0099 C110.4392,109.9949 109.6952,110.4359 109.3472,111.1849 C108.6732,112.6349 108.2922,114.6639 108.7662,116.3349 C108.5172,116.5229 108.2592,116.6949 107.9872,116.8339 C107.3702,117.1469 106.7302,117.2769 106.0872,117.2899 C105.8532,116.1709 105.5602,115.0529 105.4912,113.9339 C105.3892,112.2639 105.7022,110.6459 106.3632,109.1599 C106.4422,109.0919 106.5182,109.0209 106.5832,108.9359 C107.1362,108.2279 107.5562,107.4459 107.8552,106.5999 C108.5742,104.5649 105.2022,104.0589 104.1992,105.3669 C102.8952,107.0689 102.0282,109.0259 101.6712,111.1409 C101.3932,112.7849 101.5222,114.3169 101.7942,115.8819 C100.0922,114.7509 98.6992,113.0129 96.7772,112.3609 C94.1832,111.4809 92.3532,113.2669 91.1262,115.3429 C89.9842,117.2769 89.3322,119.5219 90.0482,121.7319 C90.7182,123.8019 92.5612,125.1539 94.6472,125.5679 C96.6982,125.9729 99.0172,125.7489 101.0472,125.3009 C103.1572,124.8349 105.2902,123.7329 106.0692,121.5789 C106.1992,121.2159 106.2762,120.8539 106.3242,120.4909 C107.5692,120.4589 108.8102,120.1889 110.0062,119.5969 C110.3982,119.4029 110.7802,119.1699 111.1522,118.9149 C112.5822,119.3769 114.2922,119.0009 115.5982,118.2879 C117.3402,119.5329 119.6822,119.9419 121.6162,118.8339 C123.8722,117.5439 121.5062,114.9789 119.5982,116.0709" id="Fill-18" fill="#F7AEAB"></path>
                    <g id="Group-22" transform="translate(0.000000, 14.216000)">
                        <mask id="mask-4" fill="white">
                            <use xlink:href="#path-3"></use>
                        </mask>
                        <g id="Clip-21"></g>
                        <path d="M55.3783,10.0653 C45.6253,-0.2127 30.3383,-1.5727 17.6963,3.7593 C16.0403,4.4593 14.4413,5.2753 12.8913,6.1813 C11.7523,6.8463 11.8033,7.8333 12.3753,8.4993 C4.8833,14.0873 -0.0977,23.0693 0.0013,32.5253 C0.1073,42.5893 5.5543,51.8953 13.8343,57.1503 C14.0173,57.3423 14.2753,57.5083 14.6083,57.6403 C16.7313,58.8943 19.0213,59.8953 21.4533,60.5713 C34.7063,64.2533 48.8943,58.5273 56.5443,47.2813 C64.0883,36.1903 65.0313,20.2373 55.3783,10.0653" id="Fill-20" fill="#FF1D25" mask="url(#mask-4)"></path>
                    </g>
                    <path d="M31.5541,41.6182 C31.5211,41.6252 31.3441,41.6782 31.2911,41.6912 C31.1421,41.7302 30.9921,41.7642 30.8391,41.7922 C30.7701,41.8052 30.7001,41.8142 30.6301,41.8262 C30.5901,41.8272 30.4211,41.8442 30.3611,41.8462 C30.2701,41.8482 29.8521,41.8282 29.7791,41.8352 C29.4751,41.7922 29.1701,41.7302 28.8781,41.6392 C28.8641,41.6362 28.8611,41.6352 28.8501,41.6322 C28.8221,41.6182 28.7941,41.6042 28.7461,41.5812 C28.6351,41.5282 28.5211,41.4822 28.4091,41.4292 C28.2541,41.3522 28.0991,41.2712 27.9511,41.1812 C27.9261,41.1612 27.9071,41.1462 27.8611,41.1112 C27.6151,40.9222 27.3701,40.7372 27.1411,40.5262 C26.9921,40.3892 26.9151,40.3062 26.6981,40.0322 C26.0231,39.1832 25.5531,38.1032 25.4881,37.1052 C25.4041,35.8432 25.7401,34.7052 26.4131,33.7182 C26.8471,33.0802 27.0721,32.8392 27.6541,32.3912 C27.7581,32.3112 27.8661,32.2352 27.9741,32.1612 C27.9911,32.1552 28.0931,32.0962 28.1771,32.0472 C29.2481,31.6762 30.3381,31.4862 31.4501,31.489165 C32.1761,31.4912 32.6091,31.5292 33.2211,31.6562 C33.7291,31.7622 33.8581,31.7502 34.1441,32.2842 C34.8121,33.5352 35.1061,35.1302 35.0731,36.5362 C35.0411,37.8622 34.6681,39.0022 33.9241,39.9502 C33.6421,40.3092 33.3401,40.6042 32.8351,40.9672 C32.5151,41.1962 32.1131,41.4162 31.5541,41.6182 M40.8561,57.1072 C36.4251,56.3222 32.1091,56.3642 27.7741,56.8992 C33.7511,50.7832 39.1741,44.0232 40.4581,35.2812 C40.6061,34.2812 39.7301,33.7632 38.7591,33.7322 C38.6151,33.0892 38.4191,32.4532 38.1711,31.8362 C37.7191,30.7062 37.0801,29.7592 35.9931,29.1632 C34.9061,28.5652 33.5981,28.4222 32.3821,28.3262 C31.1731,28.2322 29.9561,28.3122 28.7661,28.5352 C28.4921,28.5032 28.2201,28.5142 27.9771,28.5842 C27.4871,28.7222 27.0181,28.9092 26.5651,29.1222 C26.1911,29.2512 25.8211,29.3892 25.4581,29.5432 C25.0861,29.7032 24.8011,29.9962 24.6371,30.3382 C22.8951,31.7662 21.7051,33.8112 21.4981,36.1632 C21.1981,39.5792 23.5141,42.8892 26.5581,44.2702 C28.5871,45.1912 30.9331,45.2562 33.0371,44.5782 C30.0031,49.7222 25.5301,54.1372 21.3311,58.2352 C19.8651,59.6672 21.6391,61.2502 23.2771,60.9092 C28.8051,59.7602 34.1861,59.2002 39.7921,60.1932 C40.7131,60.3562 41.9141,60.0622 42.2521,59.0752 C42.5731,58.1402 41.7381,57.2642 40.8561,57.1072" id="Fill-23" fill="#FFFFFF"></path>
                </g>
                <rect id="Rectangle-Copy-2" x="0" y="0" width="292" height="239"></rect>
            </g>
        </g>
    </g>
</svg>