<?xml version="1.0" encoding="UTF-8"?>
<svg width="292px" height="239px" viewBox="0 0 292 239" version="1.1" xmlns="http://www.w3.org/2000/svg" xmlns:xlink="http://www.w3.org/1999/xlink">
    <title>Group 6</title>
    <defs>
        <polygon id="path-1" points="0 0.867 67.4808744 0.867 67.4808744 68.3911787 0 68.3911787"></polygon>
    </defs>
    <g id="Desktop" stroke="none" stroke-width="1" fill="none" fill-rule="evenodd">
        <g id="Admissions" transform="translate(-736.000000, -1218.000000)">
            <g id="Group-6" transform="translate(736.000000, 1218.000000)">
                <g id="Group-24" transform="translate(63.000000, 69.000000)">
                    <path d="M135.5863,29.6787 C130.1823,17.9367 119.7573,9.5287 107.4633,5.8257 C93.8463,1.7257 79.7493,4.5857 67.0013,10.1927 C55.8143,15.1127 44.9913,22.7197 39.7003,34.0907 C39.5083,34.5047 39.3373,34.9317 39.1643,35.3577 C36.3823,40.2287 34.5553,45.6757 34.4223,51.3107 C34.2593,58.2627 36.7493,65.0137 40.3833,70.8507 C41.7153,72.9897 43.2273,74.9967 44.8643,76.8917 C45.1863,79.2777 45.1713,81.7117 44.9163,84.1417 C44.6733,86.4707 44.2203,88.7667 43.7023,91.0487 C43.2173,93.1917 42.8863,95.5807 41.8633,97.5407 C41.3923,98.4457 42.4973,99.3397 43.2613,99.5097 C43.6813,99.6027 44.0843,99.5807 44.4513,99.4677 C44.7193,99.4447 44.9913,99.3697 45.2563,99.2197 C48.8993,97.1477 52.0583,94.2817 54.3143,90.7317 C55.1203,89.4617 55.7713,88.1367 56.3193,86.7767 C60.3723,89.3767 64.7623,91.4637 69.3373,92.9527 C81.3863,96.8717 94.4813,96.1647 106.2043,91.4747 C118.0473,86.7357 128.4243,77.8997 134.4443,66.5987 C140.5763,55.0897 141.0533,41.5557 135.5863,29.6787" id="Fill-1" fill="#E5D6FF"></path>
                    <path d="M93.5267,30.0176 C90.8137,27.7756 87.1617,27.1226 83.7367,27.4556 C80.2387,27.7966 75.7677,28.7586 73.8697,32.0716 C72.6847,34.1376 76.3157,35.4436 77.3237,33.6866 C78.0897,32.3486 79.3407,31.6896 80.7897,31.2726 C82.6387,30.7406 84.6517,30.3996 86.5797,30.6106 C89.9907,30.9836 92.8987,33.4146 92.7477,37.0366 C92.6757,38.7636 91.8817,40.4206 90.6897,41.6616 C89.5197,42.8766 88.0597,43.4586 86.6287,44.2756 C85.1577,45.1146 83.8677,46.2316 83.6267,48.0016 C83.3907,49.7236 84.3957,51.3096 84.1497,53.0196 C83.8537,55.0716 87.8477,55.1136 88.1497,53.0196 C88.2587,52.2626 88.1567,51.5396 88.0017,50.7956 C87.8397,50.0256 87.4537,49.1546 87.5817,48.3516 C87.7717,47.1486 89.3387,46.6886 90.2707,46.2086 C93.1967,44.7046 95.7807,42.1356 96.4987,38.8276 C97.2197,35.5006 96.1687,32.2006 93.5267,30.0176" id="Fill-3" fill="#FFEDA5"></path>
                    <path d="M89.7035,61.1983 C89.6155,60.9903 89.4775,60.8183 89.2895,60.6833 C89.0985,60.5233 88.8845,60.4133 88.6455,60.3523 C88.4015,60.2513 88.1445,60.2053 87.8755,60.2153 C87.6985,60.2343 87.5205,60.2533 87.3445,60.2723 C87.0175,60.3423 86.7245,60.4793 86.4615,60.6833 C86.3565,60.7923 86.2525,60.8993 86.1485,61.0083 C85.9715,61.2473 85.8795,61.5163 85.8755,61.8153 L85.8755,62.0983 C85.8675,62.3253 85.9255,62.5313 86.0475,62.7153 C86.1355,62.9233 86.2725,63.0943 86.4615,63.2293 C86.6515,63.3893 86.8665,63.5003 87.1045,63.5603 C87.3495,63.6623 87.6055,63.7083 87.8755,63.6983 C88.0525,63.6783 88.2295,63.6603 88.4065,63.6413 C88.7325,63.5713 89.0265,63.4343 89.2895,63.2293 C89.3935,63.1223 89.4985,63.0133 89.6015,62.9053 C89.7795,62.6663 89.8705,62.3963 89.8755,62.0983 L89.8755,61.8153 C89.8835,61.5883 89.8255,61.3823 89.7035,61.1983" id="Fill-5" fill="#FFEDA5"></path>
                    <path d="M77.0746,56.0958 C78.9056,53.9718 79.8746,51.1608 78.0346,48.6998 C74.7326,44.2858 66.0166,43.2478 63.0856,48.6148 C62.6156,49.4748 62.8916,50.3718 63.8036,50.8038 C64.5816,51.1718 66.0606,51.1058 66.5396,50.2298 C67.4756,48.5148 69.1776,47.8878 71.0556,48.3038 C72.5626,48.6368 74.8236,49.6408 75.0576,51.4008 C75.3256,53.4068 72.9686,55.0688 71.8556,56.4268 C71.1116,57.3358 70.4326,58.4048 70.1916,59.5688 C69.9106,60.9278 70.2376,62.0958 70.8526,63.3128 C71.3156,64.2278 72.3026,64.6548 73.3126,64.4298 C74.0726,64.2608 75.1756,63.3818 74.7106,62.4618 C74.1096,61.2758 73.8256,60.3478 74.5206,59.1378 C75.1846,57.9828 76.2136,57.0948 77.0746,56.0958" id="Fill-7" fill="#FFEDA5"></path>
                    <path d="M77.5248,68.5626 C77.4378,68.3536 77.2998,68.1826 77.1118,68.0476 C76.9208,67.8866 76.7058,67.7766 76.4668,67.7166 C76.2228,67.6146 75.9658,67.5686 75.6968,67.5796 C75.5198,67.5976 75.3418,67.6166 75.1658,67.6356 C74.8388,67.7066 74.5458,67.8426 74.2828,68.0476 C74.1788,68.1556 74.0748,68.2626 73.9698,68.3716 C73.7928,68.6116 73.7018,68.8796 73.6968,69.1786 L73.6968,69.4616 C73.6898,69.6896 73.7478,69.8946 73.8698,70.0786 C73.9568,70.2866 74.0938,70.4586 74.2828,70.5926 C74.4738,70.7526 74.6888,70.8646 74.9258,70.9236 C75.1708,71.0266 75.4278,71.0716 75.6968,71.0616 C75.8748,71.0426 76.0508,71.0236 76.2288,71.0046 C76.5538,70.9346 76.8488,70.7976 77.1118,70.5926 C77.2148,70.4856 77.3198,70.3766 77.4238,70.2696 C77.6018,70.0296 77.6928,69.7606 77.6968,69.4616 L77.6968,69.1786 C77.7048,68.9516 77.6468,68.7466 77.5248,68.5626" id="Fill-9" fill="#FFEDA5"></path>
                    <path d="M112.2718,43.6944 C110.7868,41.3364 107.8788,40.3664 105.2148,40.6764 C102.0958,41.0394 98.8088,43.2014 98.4868,46.5344 C98.2858,48.6164 102.2828,48.6454 102.4868,46.5344 C102.6908,44.4294 105.8808,43.1814 107.6038,44.1304 C109.7318,45.3004 109.4488,47.9504 107.9268,49.5214 C106.0558,51.4554 103.0768,51.6154 101.2538,53.5854 C100.3348,54.5784 100.0028,55.8224 99.8878,57.1434 C99.7758,58.4314 99.9118,59.6914 99.3288,60.8854 C98.8818,61.8004 99.9438,62.6794 100.7258,62.8534 C101.7358,63.0784 102.7338,62.6624 103.1858,61.7364 C103.7518,60.5774 103.7908,59.2664 103.8408,58.0014 C103.8798,57.0244 103.8818,55.9154 104.7098,55.2554 C105.6308,54.5184 106.9478,54.2224 107.9888,53.6794 C109.3028,52.9954 110.5038,52.1474 111.4798,51.0244 C113.2518,48.9814 113.7428,46.0314 112.2718,43.6944" id="Fill-11" fill="#FFEDA5"></path>
                    <path d="M100.6205,67.5792 C98.1115,67.5792 98.1055,70.7782 100.6205,70.7782 C103.1285,70.7782 103.1345,67.5792 100.6205,67.5792" id="Fill-13" fill="#FFEDA5"></path>
                    <path d="M157.6781,90.4688 C157.7741,90.0558 157.8691,89.6418 157.9651,89.2288 C160.1491,87.2958 161.9851,84.9878 163.2941,82.3188 C165.6181,77.5808 166.0921,72.0628 165.0201,66.9318 C162.5061,54.9058 150.5541,47.0658 138.6471,47.2718 C138.2061,47.2798 137.8461,47.3878 137.5601,47.5568 C133.8401,47.6298 130.1361,48.2118 126.5701,49.3488 C121.2081,51.0568 115.3331,53.8598 111.9531,58.5468 C108.4871,63.3538 108.8231,69.9558 110.4691,75.3828 C112.0681,80.6498 115.2631,85.4388 119.4691,88.9808 C127.3941,95.6528 138.8431,97.7068 148.6541,94.5018 C148.7101,94.6318 148.7531,94.7668 148.8161,94.8948 C150.1421,97.6378 152.5471,99.9148 155.6481,100.3958 C155.6931,100.4038 155.7411,100.4048 155.7891,100.4088 C156.0441,100.5848 156.3091,100.7558 156.6101,100.9078 C157.4711,101.3448 158.7651,101.1398 159.3461,100.3348 C159.9451,99.5028 159.4491,98.5618 158.6281,98.1458 C158.4331,98.0458 158.1551,97.8468 157.9561,97.5978 C157.6431,97.2068 157.5301,97.0118 157.3591,96.5598 C157.0091,95.6338 156.9691,94.7868 157.0561,93.7398 C157.1481,92.6298 157.4281,91.5498 157.6781,90.4688" id="Fill-15" fill="#F7AEAB"></path>
                    <path d="M144.1722,76.6397 C142.6472,78.2807 140.6642,79.4857 138.7632,80.6367 C138.7302,80.6577 138.6992,80.6817 138.6672,80.7027 C136.8832,79.4507 135.1792,78.0717 133.6422,76.5277 C132.0452,74.9237 130.4852,72.9777 129.7762,70.7987 C129.4652,69.8417 129.4022,68.8237 130.0682,68.0047 C130.6602,67.2757 131.5672,66.7897 132.4192,66.4287 C133.8112,65.8377 136.0262,65.9157 136.0602,67.9087 C136.0632,68.0557 136.0882,68.1907 136.1272,68.3177 C136.1582,68.8457 136.4752,69.3147 137.0632,69.5927 C137.8372,69.9597 139.3242,69.8967 139.7992,69.0187 C140.6962,67.3567 142.3392,66.2097 144.1252,66.3077 C146.0912,66.4127 146.6592,68.5267 146.6712,70.3267 C146.6882,72.7037 145.7872,74.9027 144.1722,76.6397 M149.5092,65.8577 C148.0902,63.5217 145.1612,62.8657 142.6142,63.2067 C141.2412,63.3907 139.8942,63.9417 138.7422,64.7577 C137.4452,63.4097 135.3902,62.7237 133.4912,62.8787 C130.5452,63.1197 126.6082,64.9937 125.7372,68.0877 C124.8432,71.2697 127.1732,74.7107 129.1372,77.0007 C131.3412,79.5737 133.9952,81.7687 136.8092,83.6417 C137.6482,84.2007 138.8122,84.3107 139.6372,83.6417 C139.6432,83.6377 139.6462,83.6317 139.6512,83.6277 C140.0582,83.6597 140.4622,83.5927 140.7812,83.3997 C144.9012,80.9067 149.3422,78.0047 150.3882,72.9377 C150.8772,70.5657 150.7952,67.9757 149.5092,65.8577" id="Fill-17" fill="#BFEAF6"></path>
                    <g id="Group-21" transform="translate(0.000000, 0.133000)">
                        <mask id="mask-2" fill="white">
                            <use xlink:href="#path-1"></use>
                        </mask>
                        <g id="Clip-20"></g>
                        <path d="M62.6478,40.6825 C62.6168,40.8015 62.5738,40.9175 62.5418,41.0365 C62.5338,41.0325 62.5268,41.0265 62.5188,41.0225 C62.4598,40.9945 62.3988,40.9765 62.3388,40.9535 C62.6488,39.9425 62.9338,38.9185 63.1978,37.8855 C63.0588,38.8185 62.8878,39.7505 62.6478,40.6825 M65.4608,23.8735 C59.7888,10.7615 45.4408,2.7755 31.4538,2.7165 C31.1818,2.7155 30.9118,2.7245 30.6398,2.7305 C30.7948,1.6755 29.7398,0.5185 28.2478,0.9655 C16.0448,4.6245 5.4188,14.0135 1.4948,26.3095 C-2.3182,38.2515 1.3418,51.7515 10.4288,60.3395 C21.2588,70.5765 38.5098,70.2775 51.2218,63.7815 C58.2328,60.1995 62.2248,53.1725 65.0178,46.0675 C67.8288,38.9145 68.5688,31.0575 65.4608,23.8735" id="Fill-19" fill="#7AC943" mask="url(#mask-2)"></path>
                    </g>
                    <path d="M42.8968,37.3194 C42.1318,36.0144 40.9698,34.9004 39.7008,34.0904 C37.9048,32.9474 35.7838,32.2914 33.6758,32.3034 C35.8608,29.5844 38.1548,26.9554 40.5618,24.4294 C40.7608,24.2214 40.8368,23.9754 40.8408,23.7234 C40.9768,23.5184 41.0628,23.2774 41.0628,22.9914 C41.0628,22.0134 39.9588,21.3374 39.0628,21.3914 C37.0088,21.5184 34.9548,21.6694 32.8968,21.7474 C30.8848,21.8234 28.8758,21.8054 27.0108,21.5024 C26.0898,21.3524 24.8868,21.6234 24.5508,22.6204 C24.2378,23.5474 25.0598,24.4434 25.9478,24.5884 C29.0278,25.0894 32.1318,25.0144 35.2328,24.8354 C32.8898,27.4054 30.6518,30.0694 28.5338,32.8294 C28.1138,33.3754 28.2378,34.0624 28.6368,34.5464 C28.6018,34.8454 28.6698,35.1614 28.8858,35.4604 C29.4598,36.2574 30.7688,36.4754 31.6228,36.0344 C33.2438,35.1964 34.8348,35.3304 36.5608,36.2024 C38.2178,37.0404 40.0788,38.8224 39.7138,40.8664 C39.5048,42.0454 38.8688,43.2064 38.2468,44.2154 C37.6218,45.2284 36.8758,46.1214 35.8098,46.6874 C33.8978,47.7044 31.3258,48.5194 29.1668,47.9324 C27.3418,47.4384 25.9968,45.3424 26.8778,43.4874 C27.3148,42.5674 26.2708,41.6944 25.4808,41.5184 C24.4798,41.2964 23.4618,41.7074 23.0208,42.6364 C21.6538,45.5134 23.5488,48.7574 26.0728,50.2234 C29.2558,52.0734 33.3278,51.3004 36.5638,50.0264 C39.9258,48.7034 42.2098,45.8734 43.3558,42.4844 C43.9588,40.7034 43.8528,38.9484 42.8968,37.3194" id="Fill-22" fill="#FFFFFF"></path>
                </g>
                <rect id="Rectangle-Copy-3" x="0" y="0" width="292" height="239"></rect>
            </g>
        </g>
    </g>
</svg>