<?xml version="1.0" encoding="UTF-8"?>
<svg width="292px" height="239px" viewBox="0 0 292 239" version="1.1" xmlns="http://www.w3.org/2000/svg" xmlns:xlink="http://www.w3.org/1999/xlink">
    <title>Group 7</title>
    <defs>
        <polygon id="path-1" points="0.949941114 0.183666171 133.208 0.183666171 133.208 117.999955 0.949941114 117.999955"></polygon>
        <polygon id="path-3" points="0 0.333096931 62.4501725 0.333096931 62.4501725 64.804277 0 64.804277"></polygon>
    </defs>
    <g id="Desktop" stroke="none" stroke-width="1" fill="none" fill-rule="evenodd">
        <g id="Admissions" transform="translate(-1062.000000, -1218.000000)">
            <g id="Group-7" transform="translate(1062.000000, 1218.000000)">
                <g id="Group-15" transform="translate(63.000000, 57.000000)">
                    <path d="M144.7734,68.1146 C144.8194,68.0396 144.8804,67.9756 144.9154,67.8916 C145.0574,67.5346 145.1664,67.1716 145.2584,66.8056 C145.3354,67.8286 145.3964,68.8506 145.4174,69.8766 C145.2304,69.2806 145.0084,68.6956 144.7734,68.1146 M141.2574,87.0066 C141.0824,87.3456 140.8994,87.6856 140.7214,88.0256 C140.9364,87.2706 141.1294,86.5106 141.3004,85.7466 C141.6354,85.5056 141.9604,85.2536 142.2624,84.9766 C141.9414,85.6606 141.6044,86.3366 141.2574,87.0066 M120.7894,111.6216 C120.5204,111.7546 120.2464,111.8786 119.9744,112.0076 C120.6124,111.5786 121.2424,111.1316 121.8654,110.6756 C122.4654,110.5076 123.0494,110.2806 123.6184,110.0126 C122.7114,110.5886 121.7754,111.1346 120.7894,111.6216 M108.7604,89.9816 C108.9414,89.6896 109.1384,89.4086 109.3154,89.1156 C109.6784,88.9796 110.0424,88.8436 110.4014,88.6956 C110.4244,88.7416 110.4504,88.7866 110.4744,88.8326 C109.9194,89.2396 109.3444,89.6186 108.7604,89.9816 M95.5454,113.1556 C95.4074,113.1636 95.2674,113.1666 95.1274,113.1746 C95.3174,112.9976 95.4994,112.8086 95.6704,112.6086 C96.1894,112.5456 96.7044,112.4626 97.2054,112.3396 C96.6614,112.6376 96.1124,112.9216 95.5454,113.1556 M90.3204,108.2396 C90.1284,108.2706 89.9384,108.3066 89.7474,108.3386 C89.6724,108.2986 89.6024,108.2496 89.5284,108.2076 C89.4614,108.0646 89.3924,107.9246 89.3254,107.7816 C89.7824,107.8306 90.2404,107.8656 90.6994,107.8786 C90.5814,108.0046 90.4534,108.1236 90.3204,108.2396 M81.0144,84.8006 C80.5944,84.7516 80.1754,84.6996 79.7574,84.6366 C79.7484,84.5456 79.7404,84.4536 79.7294,84.3616 C79.8164,84.2406 79.9154,84.1296 79.9974,84.0036 C80.0494,83.9246 80.0914,83.8406 80.1424,83.7606 C80.4604,84.0956 80.7904,84.4256 81.1294,84.7456 C81.0904,84.7616 81.0534,84.7826 81.0144,84.8006 M106.3674,12.4306 C106.3514,12.5946 106.3824,12.7646 106.4654,12.9386 C105.2654,12.4456 104.0104,12.0816 102.7164,11.9016 C102.0494,11.8076 101.3094,12.0166 100.8024,12.3996 C99.6334,11.9936 98.4414,11.6556 97.2304,11.3896 C98.6594,11.4196 100.0884,11.4856 101.5164,11.6396 C103.1494,11.8166 104.7674,12.0876 106.3674,12.4306 M143.2284,53.7596 C143.0544,53.5636 142.8404,53.4056 142.5964,53.2876 C142.5664,52.2256 142.5034,51.1676 142.4424,50.1066 C142.5814,50.7196 142.7174,51.3336 142.8474,51.9466 C142.9764,52.5496 143.1024,53.1536 143.2284,53.7596 M116.0724,16.0936 C116.0454,16.0756 116.0184,16.0576 115.9924,16.0406 C115.6944,15.7586 115.3944,15.4786 115.0874,15.2076 C115.6574,15.4516 116.2224,15.7066 116.7834,15.9716 C116.5444,15.9796 116.3024,16.0206 116.0724,16.0936 M124.7634,21.2146 C124.1464,20.5726 123.4974,19.9616 122.8104,19.3906 C123.8104,20.0596 124.7874,20.7666 125.7354,21.5116 C125.4614,21.3436 125.1224,21.2446 124.7634,21.2146 M144.3754,61.0346 C144.2914,60.0506 144.1924,59.0676 144.0814,58.0856 C144.2714,59.1246 144.4494,60.1656 144.6094,61.2086 C144.5364,61.1456 144.4594,61.0876 144.3754,61.0346 M86.0034,30.1716 C85.4644,30.0186 84.9024,29.9426 84.3464,29.9516 C84.3654,29.9356 84.3824,29.9196 84.4014,29.9036 C85.2834,29.7446 86.1674,29.5936 87.0514,29.4486 C86.6984,29.6816 86.3524,29.9286 86.0034,30.1716 M124.0084,48.2566 C124.0764,48.2896 124.1444,48.3176 124.2144,48.3436 C124.3414,48.6406 124.4754,48.9346 124.6014,49.2316 C124.8874,49.9076 125.5584,50.2676 126.2664,50.3476 C126.2464,50.5406 126.2284,50.7316 126.2084,50.9236 C125.4604,50.7706 124.5964,50.9776 124.0684,51.4796 C124.1014,50.4056 124.0824,49.3296 124.0084,48.2566 M64.3184,20.3166 C64.1764,20.2436 64.0244,20.1856 63.8684,20.1366 C65.0194,19.5396 66.1804,18.9616 67.3604,18.4226 C67.3954,18.4356 67.4304,18.4506 67.4674,18.4636 C66.4124,19.0456 65.3494,19.6586 64.3184,20.3166 M63.5424,109.6206 C63.6084,109.4646 63.6374,109.2906 63.6274,109.1016 C64.0544,109.5966 64.4994,110.0736 64.9544,110.5406 C64.4844,110.2316 64.0074,109.9346 63.5424,109.6206 M61.9744,38.1956 C61.5334,38.3296 61.1044,38.5156 60.6964,38.7776 C60.7834,38.5326 60.8714,38.2886 60.9654,38.0466 C61.3124,37.8356 61.6694,37.6396 62.0204,37.4376 C62.0264,37.6576 62.0324,37.8776 62.0334,38.0966 C62.0134,38.1306 61.9934,38.1626 61.9744,38.1956 M59.2584,95.0196 C59.0854,94.7186 58.9114,94.4196 58.7424,94.1156 C58.8144,93.8686 58.8744,93.6196 58.9414,93.3716 C59.1754,93.7486 59.4194,94.1176 59.6854,94.4686 C59.5564,94.6486 59.4064,94.8346 59.2584,95.0196 M46.3494,38.0676 C45.1684,39.9186 44.2294,41.9316 43.5304,44.0446 C43.4844,44.0596 43.4364,44.0726 43.3904,44.0916 C44.1004,41.9076 45.0954,39.8036 46.3924,37.9306 C46.3774,37.9766 46.3644,38.0226 46.3494,38.0676 M38.0024,59.9326 C38.0384,59.1816 38.0924,58.4316 38.1634,57.6836 C38.2014,58.1616 38.2454,58.6396 38.2944,59.1176 C38.1984,59.3886 38.0924,59.6586 38.0024,59.9326 M148.4634,60.4066 C146.5484,48.6216 144.0114,36.4666 136.3544,26.9466 C129.7454,18.7286 120.4614,12.8386 110.3174,10.0396 C99.1764,6.9666 87.2074,7.8176 76.3314,11.5346 C73.4654,12.3876 70.6484,13.3956 67.8934,14.5536 C62.9314,16.3206 58.2614,18.8226 54.0634,21.9606 C54.0024,22.0006 53.9414,22.0386 53.8804,22.0786 C53.8204,22.1186 53.7724,22.1676 53.7224,22.2146 C49.7944,25.2006 46.2904,28.7436 43.3744,32.7766 C36.5134,42.2666 33.1444,54.2536 34.0334,65.9286 C34.5264,72.4036 36.3434,78.6906 38.6594,84.7306 C40.8184,90.3636 43.4144,95.9466 47.3614,100.5656 C51.2914,105.1636 56.1664,108.7846 61.1714,112.1216 C66.2034,115.4746 71.3564,118.8966 77.0804,120.9556 C89.4644,125.4116 102.4404,122.1476 114.3714,117.8396 C120.0724,115.7806 125.8024,113.4606 130.4084,109.4056 C134.6974,105.6296 137.8924,100.8436 140.7124,95.9196 C143.6854,90.7316 147.0084,85.3416 148.4334,79.4816 C149.9584,73.2086 149.4904,66.7176 148.4634,60.4066" id="Fill-1" fill="#FFEDA5"></path>
                    <g id="Group-5" transform="translate(32.000000, 5.667000)">
                        <mask id="mask-2" fill="white">
                            <use xlink:href="#path-1"></use>
                        </mask>
                        <g id="Clip-4"></g>
                        <path d="M128.9287,62.7552 C128.9237,62.7552 128.9177,62.7542 128.9127,62.7532 C125.2487,62.5452 121.5847,62.3362 117.9207,62.1272 C117.7457,62.1172 117.5647,62.1432 117.3837,62.1842 C117.1657,59.6092 116.8317,57.0432 116.4817,54.4982 C116.2537,52.8502 116.0017,51.1932 115.7337,49.5352 C120.0577,49.1612 124.3957,48.9842 128.7357,49.0072 C129.3447,53.5652 129.3537,58.1652 128.9287,62.7552 L128.9287,62.7552 Z M125.9157,78.6122 C125.6827,78.5392 125.4367,78.4952 125.1937,78.4832 C124.7567,78.4602 124.3217,78.4322 123.8867,78.3972 C123.6997,78.3812 123.5137,78.3632 123.3267,78.3472 C123.2677,78.3422 123.2357,78.3392 123.2027,78.3362 C123.1747,78.3322 123.1577,78.3302 123.1157,78.3252 C122.3097,78.2312 121.5067,78.1162 120.7087,77.9752 C119.2637,77.7202 117.8377,77.3732 116.4287,76.9652 C116.7327,75.8652 116.9977,74.7502 117.1767,73.5982 C117.6047,70.8412 117.6817,68.0642 117.5737,65.2862 C117.6907,65.3072 117.8077,65.3202 117.9207,65.3272 L128.5677,65.9342 C127.9917,70.1952 127.0587,74.4352 125.9157,78.6122 L125.9157,78.6122 Z M121.2087,92.9562 C120.8367,93.9492 120.4467,94.9282 120.0327,95.8912 L120.0327,95.8912 C119.9437,95.9122 119.8947,95.9272 119.8657,95.9382 C119.8367,95.9312 119.7737,95.9192 119.6667,95.9022 C119.5647,95.8792 119.4617,95.8542 119.3607,95.8252 C118.8637,95.6952 118.3687,95.5562 117.8737,95.4212 C116.9117,95.1592 115.9497,94.8972 114.9887,94.6352 L109.1007,93.0312 C108.7677,92.9422 108.3847,92.9442 108.0197,93.0312 C108.5967,92.1882 109.1687,91.3422 109.7387,90.5002 C111.9857,87.1722 113.9977,83.7422 115.4167,80.0632 C118.5527,80.9652 121.7807,81.4902 125.0387,81.6702 C123.8877,85.5062 122.5847,89.2822 121.2087,92.9562 L121.2087,92.9562 Z M113.7997,105.1722 C112.6747,106.1812 111.4617,107.0642 110.1837,107.8272 C109.7087,107.6332 109.1447,107.6022 108.6497,107.6542 C108.8307,107.6352 108.8837,107.6342 108.6697,107.6462 C108.5287,107.6522 108.3867,107.6622 108.2437,107.6682 C108.0167,107.6762 107.7887,107.6772 107.5617,107.6722 C107.3077,107.6662 107.0547,107.6512 106.8017,107.6312 C106.6667,107.6092 106.5307,107.5942 106.3957,107.5712 C105.9177,107.4932 105.4457,107.3892 104.9797,107.2572 C104.8697,107.2262 104.7607,107.1932 104.6517,107.1592 C104.6237,107.1512 104.6127,107.1482 104.5907,107.1412 C104.5807,107.1372 104.5777,107.1352 104.5637,107.1292 C104.3257,107.0312 104.0837,106.9472 103.8487,106.8452 C103.4047,106.6522 102.9707,106.4362 102.5497,106.1942 C102.5347,106.1862 102.4497,106.1362 102.3927,106.1022 C102.3237,106.0552 102.1517,105.9432 102.1577,105.9482 C101.9687,105.8202 101.7837,105.6892 101.6027,105.5512 C101.1927,105.2402 100.8137,104.9012 100.4397,104.5502 C100.4117,104.5252 100.3847,104.4962 100.3627,104.4752 C100.2947,104.4022 100.2287,104.3302 100.1627,104.2562 C99.9737,104.0432 99.7947,103.8222 99.6197,103.5972 C99.5337,103.4862 99.4317,103.3892 99.3227,103.3002 C102.1587,100.9142 104.4937,98.0192 106.6497,94.9912 C106.8547,95.5512 107.4447,95.9562 108.0367,96.1172 C110.1537,96.6932 112.2697,97.2712 114.3857,97.8472 C115.4247,98.1292 116.4637,98.4122 117.5027,98.6952 C117.8477,98.7892 118.1997,98.8842 118.5527,98.9642 C117.3187,101.2502 115.8167,103.3662 113.7997,105.1722 L113.7997,105.1722 Z M102.4497,110.7272 C102.4307,110.7312 102.4117,110.7392 102.3917,110.7442 C102.1167,110.7052 101.8367,110.7102 101.5777,110.7872 C101.1887,110.9022 100.7997,111.0182 100.4107,111.1322 C99.9967,111.0242 99.5497,111.0022 99.1577,111.0482 C92.8067,111.7892 86.4517,112.5092 80.0967,113.2152 C80.4127,113.1042 80.7317,112.9952 81.0457,112.8802 C86.3197,110.9412 91.6647,108.5922 96.3797,105.4692 C98.3967,107.9452 101.1317,109.6002 104.1327,110.3572 C103.5787,110.4992 103.0187,110.6252 102.4497,110.7272 L102.4497,110.7272 Z M53.8547,114.1082 C48.1427,113.6412 42.7177,111.8402 37.7567,109.0002 C32.7547,106.1382 28.0187,102.5692 23.5147,98.9842 C19.2527,95.5912 15.2877,91.7032 12.9357,86.7132 C11.6957,84.0832 10.8067,81.3072 9.9217,78.5422 C8.9627,75.5442 8.0057,72.5432 7.1817,69.5042 C5.6137,63.7252 4.5827,57.7952 4.9977,51.7892 C5.3517,46.6552 6.6997,41.6292 8.7717,36.9272 C12.9417,27.4632 20.1507,19.4642 28.9217,14.0352 C38.3257,8.2142 49.3777,5.2252 60.3717,4.6362 C62.5107,4.5222 64.6517,4.5212 66.7917,4.5742 C67.1247,4.7422 67.4997,4.8312 67.8387,4.8152 C73.7917,4.5172 79.5697,6.9962 84.8397,9.5152 C89.7787,11.8762 94.4587,14.8152 98.3887,18.6532 C106.1157,26.2002 109.4307,36.8992 111.3397,47.2482 C112.3837,52.9072 113.2387,58.6972 113.5427,64.4462 C113.8637,70.5122 113.1507,76.3662 110.4767,81.8752 C109.2217,84.4592 107.6477,86.8802 106.0347,89.2512 C104.3597,91.7172 102.6807,94.2012 100.8307,96.5412 C97.0377,101.3392 92.1067,104.3352 86.6417,106.9152 C76.4877,111.7102 65.1837,115.0332 53.8547,114.1082 L53.8547,114.1082 Z M96.1027,3.4502 C98.5667,5.1362 100.9937,6.9252 103.3517,8.8182 L103.3137,8.8302 C102.9547,8.9432 102.5957,9.0512 102.2347,9.1522 C101.4217,9.3822 100.6017,9.5832 99.7757,9.7572 C98.9797,9.9242 98.1787,10.0642 97.3727,10.1782 C97.1567,10.2092 96.9397,10.2372 96.7227,10.2642 C96.6767,10.2702 96.5077,10.2892 96.4157,10.2992 C96.0107,10.3402 95.6057,10.3742 95.1997,10.4022 C94.8477,10.4272 94.4397,10.5282 94.0807,10.7082 C89.3247,7.5812 84.0437,5.1782 78.7517,3.4172 C84.5357,3.3692 90.3197,3.3772 96.1027,3.4502 L96.1027,3.4502 Z M106.2807,11.2732 C109.4277,14.0012 112.4017,16.9372 115.1057,20.0832 C112.0717,20.3632 109.0377,20.6442 106.0047,20.9242 C105.7847,20.9432 105.5417,20.9902 105.3027,21.0652 C103.1317,18.1752 100.5757,15.5952 97.7247,13.3402 C100.6397,12.9572 103.4877,12.2732 106.2767,11.2752 C106.2777,11.2742 106.2797,11.2742 106.2807,11.2732 L106.2807,11.2732 Z M116.4287,23.1602 C116.7367,23.1332 117.0887,23.0532 117.4127,22.9162 C120.2397,26.5692 122.6887,30.4922 124.6117,34.7052 C120.5687,35.0372 116.5167,35.2372 112.4607,35.2972 C111.1777,31.3532 109.5317,27.5452 107.3367,24.0002 L116.4287,23.1602 Z M125.8507,37.6862 C126.0087,38.0972 126.1727,38.5052 126.3207,38.9222 C127.1277,41.1982 127.7477,43.4962 128.2057,45.8102 C123.9067,45.8032 119.6087,45.9842 115.3247,46.3672 C115.2837,46.3702 115.2407,46.3792 115.1977,46.3852 C114.7037,43.7232 114.1247,41.0722 113.4097,38.4672 C117.2777,38.3902 121.1407,38.2042 124.9947,37.8792 C125.2747,37.8562 125.5717,37.7902 125.8507,37.6862 L125.8507,37.6862 Z M131.3897,41.9792 C129.2507,33.9442 125.0957,26.5222 119.8937,20.0762 C113.8847,12.6312 106.5307,6.3532 98.6397,0.9842 C98.2837,0.7422 97.8647,0.5922 97.4367,0.5442 C97.1467,0.3692 96.7787,0.2582 96.3247,0.2522 C85.3997,0.1112 74.4727,0.1882 63.5497,0.4792 C63.1927,0.4882 62.8137,0.5822 62.4797,0.7502 C61.5237,0.9172 60.5897,1.1862 59.6787,1.5242 C39.4577,2.8152 19.4777,11.6432 8.4757,29.3402 C2.4587,39.0172 -0.2583,50.3402 1.4557,61.6572 C2.4407,68.1582 4.4547,74.4322 6.4757,80.6702 C8.3717,86.5262 10.8357,91.7822 15.1457,96.2592 C19.2347,100.5062 24.1147,103.9422 28.9087,107.3372 C34.0237,110.9582 39.3687,114.1532 45.4457,115.8562 C49.5517,117.0062 53.7577,117.4792 57.9737,117.4482 C58.3757,117.7972 58.9497,117.9872 59.4607,117.9942 C61.4087,118.0222 63.3587,117.9472 65.3007,117.7872 C65.5827,117.9032 65.8797,117.9712 66.1577,117.9422 C76.9417,116.7882 87.7197,115.5832 98.4937,114.3312 C98.5527,114.3652 98.6087,114.4032 98.6717,114.4302 C99.1397,114.6302 99.7157,114.7382 100.2127,114.5922 C101.0227,114.3522 101.8317,114.1122 102.6417,113.8722 C102.6837,113.8592 102.7247,113.8442 102.7667,113.8302 C103.0247,113.8532 103.2817,113.8542 103.5137,113.8132 C111.8127,112.3262 118.9307,106.9342 122.7067,99.4252 C124.9587,94.9472 126.5217,90.0262 128.0537,85.2642 C129.5737,80.5412 130.8757,75.7402 131.7907,70.8612 C133.5847,61.3032 133.9097,51.4432 131.3897,41.9792 L131.3897,41.9792 Z" id="Fill-3" fill="#FFF000" mask="url(#mask-2)"></path>
                    </g>
                    <path d="M131.2558,68.1097 C130.9318,72.3057 130.1498,76.4517 128.9258,80.4787 C127.7268,84.4287 126.2148,88.6577 123.8478,92.0717 C121.4388,95.5457 116.8648,97.2257 113.1828,98.9937 C109.1568,100.9257 105.0208,102.6807 100.7048,103.8577 C96.4358,105.0227 92.0488,105.6127 87.6228,105.2767 C83.4208,104.9587 79.1958,103.8387 75.2768,102.3117 C68.5328,99.6847 62.1888,95.5367 58.0148,89.5217 C55.6848,86.1627 54.3238,82.3617 53.4998,78.3757 C52.5598,73.8227 51.9938,69.0767 52.0648,64.4227 C52.1948,55.6587 55.3458,47.1847 59.8678,39.7607 C62.0938,36.1087 64.6778,32.6407 68.2918,30.2587 C71.5928,28.0847 75.4768,26.9277 79.2978,26.0687 C81.2388,25.6317 83.1948,25.2747 85.1518,24.9217 C85.4948,24.8597 85.8198,24.6957 86.0768,24.4637 C93.6058,22.2537 101.7678,22.7667 108.8998,26.1227 C112.8778,27.9937 116.3188,30.7517 119.6348,33.6017 C122.9068,36.4177 126.0978,39.2237 127.7758,43.3067 C130.9508,51.0407 131.8968,59.8207 131.2558,68.1097 M133.3688,47.7647 C132.1488,43.2177 130.4438,39.0657 127.1388,35.6327 C123.9138,32.2847 120.1898,29.1657 116.3598,26.5307 C108.8248,21.3497 99.7588,19.0957 90.6718,20.1937 C88.4578,20.4617 86.2868,20.9457 84.1658,21.6307 C83.9318,21.7077 83.7008,21.8137 83.4908,21.9467 C74.9058,23.5177 66.3928,25.6557 60.4268,32.5157 C57.3868,36.0117 55.0368,40.1907 53.0488,44.3577 C51.0218,48.6077 49.5058,53.0977 48.7078,57.7437 C47.8738,62.6017 47.9538,67.4667 48.5498,72.3487 C49.1328,77.1267 49.8908,82.0297 51.9018,86.4427 C55.2568,93.8057 61.5238,99.3097 68.6178,102.9817 C76.6418,107.1337 85.9188,109.3087 94.9348,108.2807 C99.7478,107.7307 104.4258,106.3127 108.9178,104.5307 C113.3718,102.7617 117.8078,100.6827 121.9648,98.2937 C123.9818,97.1337 125.8058,95.7737 127.1768,93.8667 C128.5158,92.0037 129.4978,89.8377 130.4158,87.7437 C132.2468,83.5657 133.5728,79.1697 134.3908,74.6827 C136.0188,65.7537 135.7258,56.5427 133.3688,47.7647" id="Fill-6" fill="#FFF000"></path>
                    <path d="M105.7978,72.0716 C105.6088,72.7176 104.3338,73.2866 103.8108,73.5926 C102.9518,74.0966 102.0578,74.5196 101.1408,74.8866 C101.0168,72.5216 100.9748,70.1506 100.9718,67.7766 C101.1178,67.8036 101.2658,67.8266 101.4118,67.8606 C102.8398,68.1966 104.1888,68.9796 105.0548,70.1826 C105.3638,70.6136 105.9648,71.5046 105.7978,72.0716 M91.4678,76.7646 C89.7778,76.8336 88.0868,76.8096 86.3968,76.7506 C86.4838,74.5096 86.5688,72.2696 86.6538,70.0296 C87.4498,69.7766 88.2478,69.5296 89.0578,69.3126 C91.0748,68.7706 93.1198,68.3236 95.1808,67.9776 C95.7958,67.8746 96.4198,67.7826 97.0458,67.7126 C97.0528,70.4966 97.1098,73.2776 97.2768,76.0516 C95.3678,76.4656 93.4108,76.6866 91.4678,76.7646 M80.2718,68.6886 C78.6308,69.1086 77.0668,68.9566 75.7708,67.7836 C74.5338,66.6646 73.9998,64.8876 74.2628,63.2556 C74.8308,59.7316 78.8368,57.9316 81.7278,56.6476 C82.0978,56.4826 82.4718,56.3306 82.8458,56.1766 C83.0188,58.8646 82.9728,61.5586 82.8748,64.2516 C82.8308,65.4736 82.7798,66.6946 82.7348,67.9166 C81.9198,68.2016 81.1028,68.4746 80.2718,68.6886 M97.0508,64.4976 C95.4428,64.6366 93.8378,64.9206 92.2898,65.2256 C90.4368,65.5926 88.6018,66.0506 86.7858,66.5756 C86.8148,65.8006 86.8468,65.0266 86.8748,64.2516 C86.9888,61.1026 87.0388,57.9486 86.7348,54.8096 C90.0838,53.8166 93.5498,53.2516 97.0348,53.1146 C97.1278,56.9046 97.0748,60.7026 97.0508,64.4976 M104.5568,65.4646 C103.4028,64.9596 102.2028,64.6816 100.9828,64.5366 C101.0158,60.7376 101.0868,56.9346 101.0098,53.1406 C103.1238,53.2566 105.2318,53.5276 107.3108,53.9616 C108.2248,54.1516 109.4398,53.8116 109.7708,52.8436 C110.0978,51.8876 109.2478,51.0576 108.3738,50.8756 C105.9138,50.3626 103.4108,50.0666 100.9018,49.9476 C100.7818,47.4106 100.5758,44.8786 100.2168,42.3566 C100.0718,41.3486 99.2228,40.7566 98.2168,40.7566 C97.4368,40.7566 96.0718,41.3446 96.2168,42.3566 C96.5748,44.8676 96.7848,47.3856 96.9118,49.9096 C93.3428,50.0416 89.7928,50.5946 86.3468,51.5456 C86.0138,49.0476 85.6968,46.5526 85.9058,44.0186 C86.0778,41.9296 82.0808,41.9036 81.9058,44.0186 C81.6648,46.9526 82.1268,49.8326 82.5038,52.7286 C76.6818,54.7596 69.3348,58.4216 70.2898,65.1346 C70.7978,68.7006 73.6908,71.5066 77.2538,72.0286 C79.1108,72.3006 80.8608,71.9406 82.6028,71.3816 C82.5358,73.1146 82.4708,74.8486 82.4028,76.5826 C80.6718,76.5146 78.9008,76.3976 77.3288,75.7196 C76.4398,75.3366 75.1938,75.4526 74.5928,76.2936 C74.0248,77.0896 74.4548,78.1136 75.3108,78.4826 C77.1948,79.2956 79.1538,79.5526 81.1878,79.6846 C81.5518,79.7096 81.9168,79.7266 82.2818,79.7496 C82.2138,81.4936 82.1488,83.2386 82.0818,84.9826 C82.0008,87.0896 86.0008,87.1036 86.0818,84.9826 C86.1468,83.3016 86.2098,81.6206 86.2748,79.9396 C86.7728,79.9576 87.2698,79.9826 87.7668,79.9926 C91.0218,80.0576 94.3258,79.9196 97.5348,79.3036 C97.7538,81.5436 98.0558,83.7786 98.5008,86.0056 C98.8988,87.9866 102.7988,87.3536 102.3588,85.1536 C101.9028,82.8816 101.6038,80.5976 101.3928,78.3076 C102.7948,77.8436 104.1658,77.2776 105.4588,76.5656 C106.8938,75.7746 108.9758,74.7236 109.5858,73.0816 C110.7778,69.8716 107.1468,66.5976 104.5568,65.4646" id="Fill-8" fill="#FAA93B"></path>
                    <g id="Group-12" transform="translate(0.000000, 0.667000)">
                        <mask id="mask-4" fill="white">
                            <use xlink:href="#path-3"></use>
                        </mask>
                        <g id="Clip-11"></g>
                        <path d="M58.2207,32.0589 C58.3897,30.2959 58.4247,28.5189 58.3497,26.7389 C58.3817,26.7199 58.4137,26.7019 58.4457,26.6809 C58.4997,28.4699 58.4217,30.2699 58.2207,32.0589 M55.2557,8.9209 C51.8217,5.4709 47.3797,3.0709 42.6357,2.0429 C42.5737,1.0429 41.4967,0.6309 40.6497,0.5509 C28.4647,-0.5981 15.1867,2.7279 7.0907,12.2229 C5.7597,12.7389 4.6677,13.8209 4.4267,15.3319 C4.3987,15.5109 4.4147,15.6679 4.4557,15.8119 C0.9847,21.4969 -0.2263,28.4939 0.0337,35.0869 C0.1117,37.0299 0.4117,38.9289 0.8997,40.7819 C0.8987,40.9469 0.8907,41.1119 0.8897,41.2759 C0.8867,41.7999 1.0837,42.1819 1.3937,42.4359 C1.7617,43.5549 2.1927,44.6579 2.6937,45.7379 C4.1917,48.9689 5.9917,52.1999 8.2087,54.9959 C16.4797,65.4369 31.5907,67.4359 43.1097,61.4999 C55.1887,55.2749 61.9287,42.2849 62.4257,28.9799 C62.7047,21.4859 60.6157,14.3049 55.2557,8.9209" id="Fill-10" fill="#3FA9F5" mask="url(#mask-4)"></path>
                    </g>
                    <path d="M38.4756,33.4075 L37.7436,33.4335 C37.9496,28.6785 38.1546,23.9235 38.3596,19.1675 C38.4506,17.0635 34.4516,17.0475 34.3596,19.1675 C34.1526,23.9715 33.9446,28.7765 33.7376,33.5815 C32.5466,33.6245 31.3566,33.6685 30.1656,33.7125 C28.8366,33.7615 27.5066,33.8095 26.1776,33.8585 C25.4806,33.8845 24.6806,33.9895 23.9176,33.9685 C26.6466,28.9755 28.9566,23.7715 30.7416,18.3645 C31.4416,16.2445 27.5256,15.5725 26.8846,17.5135 C25.0376,23.1055 22.6726,28.5195 19.7716,33.6455 C19.4916,34.1415 19.4816,34.6515 19.6916,35.0785 C19.6656,35.6915 20.0266,36.3175 20.6516,36.5345 C23.4656,37.5075 26.5776,37.0445 29.5006,36.9365 C30.8676,36.8865 32.2326,36.8365 33.5986,36.7865 C33.4556,40.0845 33.3136,43.3825 33.1716,46.6785 C33.0796,48.7835 37.0796,48.8005 37.1716,46.6785 L37.6056,36.6385 C37.8956,36.6285 38.1856,36.6185 38.4756,36.6065 C39.3746,36.5745 40.4756,36.0465 40.4756,35.0075 C40.4756,34.0115 39.3716,33.3745 38.4756,33.4075" id="Fill-13" fill="#FFFFFF"></path>
                </g>
                <rect id="Rectangle-Copy-4" x="0" y="0" width="292" height="239"></rect>
            </g>
        </g>
    </g>
</svg>